<?xml version="1.0" encoding="UTF-8" standalone="no"?><svg xmlns="http://www.w3.org/2000/svg" xmlns:xlink="http://www.w3.org/1999/xlink" contentStyleType="text/css" height="1529px" preserveAspectRatio="none" style="width:1679px;height:1529px;background:#FFFFFF;" version="1.1" viewBox="0 0 1679 1529" width="1679px" zoomAndPan="magnify"><defs/><g><text fill="#000000" font-family="sans-serif" font-size="14" font-weight="bold" lengthAdjust="spacing" textLength="270" x="703" y="32.9951">OCI Route Table Reconcile Activity</text><ellipse cx="643.125" cy="57.2969" fill="#0F766E" rx="10" ry="10" style="stroke:#222222;stroke-width:1.0;"/><rect fill="none" height="362.1406" style="stroke:#000000;stroke-width:1.5;" width="686" x="320.625" y="77.2969"/><path d="M453.625,77.2969 L453.625,86.5938 L443.625,96.5938 L320.625,96.5938 " fill="none" style="stroke:#000000;stroke-width:1.5;"/><text fill="#000000" font-family="sans-serif" font-size="14" lengthAdjust="spacing" textLength="123" x="323.625" y="91.292">Observe and Bind</text><rect fill="#F8FAFC" height="33.9688" rx="12.5" ry="12.5" style="stroke:#475569;stroke-width:0.5;" width="304" x="491.125" y="113.5938"/><text fill="#0F172A" font-family="sans-serif" font-size="12" lengthAdjust="spacing" textLength="284" x="501.125" y="134.7324">Read CR spec, status OCID, and delete intent</text><rect fill="#F8FAFC" height="33.9688" rx="12.5" ry="12.5" style="stroke:#475569;stroke-width:0.5;" width="460" x="413.125" y="167.5625"/><text fill="#0F172A" font-family="sans-serif" font-size="12" lengthAdjust="spacing" textLength="440" x="423.125" y="188.7012">Keep status-bound OCID authoritative for later update or delete paths</text><polygon fill="#E2E8F0" points="543.125,221.5313,743.125,221.5313,755.125,233.5313,743.125,245.5313,543.125,245.5313,531.125,233.5313,543.125,221.5313" style="stroke:#475569;stroke-width:0.5;"/><text fill="#0F172A" font-family="sans-serif" font-size="11" lengthAdjust="spacing" textLength="200" x="543.125" y="237.3394">"Tracked or explicit OCID present?"</text><text fill="#000000" font-family="sans-serif" font-size="11" lengthAdjust="spacing" textLength="20" x="511.125" y="230.937">yes</text><text fill="#000000" font-family="sans-serif" font-size="11" lengthAdjust="spacing" textLength="14" x="755.125" y="230.937">no</text><rect fill="#F8FAFC" height="33.9688" rx="12.5" ry="12.5" style="stroke:#475569;stroke-width:0.5;" width="272" x="340.625" y="255.5313"/><text fill="#0F172A" font-family="sans-serif" font-size="12" lengthAdjust="spacing" textLength="252" x="350.625" y="276.6699">Get the OCI resource by known identifier</text><rect fill="#F8FAFC" height="33.9688" rx="12.5" ry="12.5" style="stroke:#475569;stroke-width:0.5;" width="328" x="645.625" y="255.5313"/><text fill="#0F172A" font-family="sans-serif" font-size="12" lengthAdjust="spacing" textLength="308" x="655.625" y="276.6699">Resolve an existing OCI resource by display name</text><rect fill="#F8FAFC" height="33.9688" rx="12.5" ry="12.5" style="stroke:#475569;stroke-width:0.5;" width="345" x="637.125" y="309.5"/><text fill="#0F172A" font-family="sans-serif" font-size="12" lengthAdjust="spacing" textLength="325" x="647.125" y="330.6387">Continue list pagination until a match or exhaustion</text><rect fill="#F8FAFC" height="33.9688" rx="12.5" ry="12.5" style="stroke:#475569;stroke-width:0.5;" width="354" x="632.625" y="363.4688"/><text fill="#0F172A" font-family="sans-serif" font-size="12" lengthAdjust="spacing" textLength="334" x="642.625" y="384.6074">Persist the resolved or created OCID back into status</text><polygon fill="#E2E8F0" points="643.125,403.4375,655.125,415.4375,643.125,427.4375,631.125,415.4375,643.125,403.4375" style="stroke:#475569;stroke-width:0.5;"/><path d="M1237,828.7383 L1237,1201.9258 L1667,1201.9258 L1667,838.7383 L1657,828.7383 L1237,828.7383 " fill="#FEFFDD" style="stroke:#181818;stroke-width:0.5;"/><path d="M1657,828.7383 L1657,838.7383 L1667,838.7383 L1657,828.7383 " fill="#FEFFDD" style="stroke:#181818;stroke-width:0.5;"/><text fill="#000000" font-family="sans-serif" font-size="13" lengthAdjust="spacing" textLength="69" x="1243" y="845.8052">Archetype:</text><text fill="#000000" font-family="sans-serif" font-size="13" lengthAdjust="spacing" textLength="272" x="1243" y="860.938">- resolved-drift-delete-paginated-collection</text><text fill="#000000" font-family="sans-serif" font-size="13" lengthAdjust="spacing" textLength="134" x="1243" y="876.0708">Retryable OCI states:</text><text fill="#000000" font-family="sans-serif" font-size="13" lengthAdjust="spacing" textLength="102" x="1243" y="891.2036">- PROVISIONING</text><text fill="#000000" font-family="sans-serif" font-size="13" lengthAdjust="spacing" textLength="76" x="1243" y="906.3364">- UPDATING</text><text fill="#000000" font-family="sans-serif" font-size="13" lengthAdjust="spacing" textLength="113" x="1243" y="921.4692">Active OCI states:</text><text fill="#000000" font-family="sans-serif" font-size="13" lengthAdjust="spacing" textLength="79" x="1243" y="936.6021">- AVAILABLE</text><text fill="#000000" font-family="sans-serif" font-size="13" lengthAdjust="spacing" textLength="111" x="1243" y="951.7349">Failed OCI states:</text><text fill="#000000" font-family="sans-serif" font-size="13" lengthAdjust="spacing" textLength="53" x="1243" y="966.8677">- FAILED</text><text fill="#000000" font-family="sans-serif" font-size="13" lengthAdjust="spacing" textLength="67" x="1243" y="982.0005">- DELETED</text><text fill="#000000" font-family="sans-serif" font-size="13" lengthAdjust="spacing" textLength="102" x="1243" y="997.1333">Update surface:</text><text fill="#000000" font-family="sans-serif" font-size="13" lengthAdjust="spacing" textLength="94" x="1243" y="1012.2661">- display name</text><text fill="#000000" font-family="sans-serif" font-size="13" lengthAdjust="spacing" textLength="96" x="1243" y="1027.3989">- freeform tags</text><text fill="#000000" font-family="sans-serif" font-size="13" lengthAdjust="spacing" textLength="88" x="1243" y="1042.5317">- defined tags</text><text fill="#000000" font-family="sans-serif" font-size="13" lengthAdjust="spacing" textLength="78" x="1243" y="1057.6646">- route rules</text><text fill="#000000" font-family="sans-serif" font-size="13" lengthAdjust="spacing" textLength="139" x="1243" y="1072.7974">Reject before mutate:</text><text fill="#000000" font-family="sans-serif" font-size="13" lengthAdjust="spacing" textLength="71" x="1243" y="1087.9302">- vcnId drift</text><text fill="#000000" font-family="sans-serif" font-size="13" lengthAdjust="spacing" textLength="105" x="1243" y="1103.063">Boundary notes:</text><text fill="#000000" font-family="sans-serif" font-size="13" lengthAdjust="spacing" textLength="409" x="1243" y="1118.1958">- Later-page name matches must keep using the resolved OCID</text><text fill="#000000" font-family="sans-serif" font-size="13" lengthAdjust="spacing" textLength="156" x="1259" y="1133.3286">for later mutation paths.</text><text fill="#000000" font-family="sans-serif" font-size="13" lengthAdjust="spacing" textLength="358" x="1243" y="1148.4614">- Partial OCI-side application of an already-submitted full</text><text fill="#000000" font-family="sans-serif" font-size="13" lengthAdjust="spacing" textLength="351" x="1259" y="1163.5942">route-rule list remains outside the modeled guarantee.</text><text fill="#000000" font-family="sans-serif" font-size="13" lengthAdjust="spacing" textLength="166" x="1243" y="1178.7271">Controller-local invariants:</text><text fill="#000000" font-family="sans-serif" font-size="13" lengthAdjust="spacing" textLength="229" x="1243" y="1193.8599">- StatusPresentUsesStatusInvariant</text><polygon fill="#E2E8F0" points="586.125,459.4375,700.125,459.4375,712.125,471.4375,700.125,483.4375,586.125,483.4375,574.125,471.4375,586.125,459.4375" style="stroke:#475569;stroke-width:0.5;"/><text fill="#0F172A" font-family="sans-serif" font-size="11" lengthAdjust="spacing" textLength="114" x="586.125" y="475.2456">"Delete requested?"</text><text fill="#000000" font-family="sans-serif" font-size="11" lengthAdjust="spacing" textLength="20" x="554.125" y="468.8433">yes</text><text fill="#000000" font-family="sans-serif" font-size="11" lengthAdjust="spacing" textLength="14" x="712.125" y="468.8433">no</text><rect fill="none" height="220.2031" style="stroke:#000000;stroke-width:1.5;" width="611" x="11" y="493.4375"/><path d="M67,493.4375 L67,502.7344 L57,512.7344 L11,512.7344 " fill="none" style="stroke:#000000;stroke-width:1.5;"/><text fill="#000000" font-family="sans-serif" font-size="14" lengthAdjust="spacing" textLength="46" x="14" y="507.4326">Delete</text><rect fill="#F8FAFC" height="33.9688" rx="12.5" ry="12.5" style="stroke:#475569;stroke-width:0.5;" width="255" x="189" y="529.7344"/><text fill="#0F172A" font-family="sans-serif" font-size="12" lengthAdjust="spacing" textLength="235" x="199" y="550.873">Submit OCI delete for OCI Route Table</text><rect fill="#F8FAFC" height="33.9688" rx="12.5" ry="12.5" style="stroke:#475569;stroke-width:0.5;" width="591" x="21" y="598.7031"/><text fill="#0F172A" font-family="sans-serif" font-size="12" lengthAdjust="spacing" textLength="571" x="31" y="619.8418">Confirm deletion with follow-up GetRouteTable calls until the resource is gone or not found.</text><rect fill="#F8FAFC" height="33.9688" rx="12.5" ry="12.5" style="stroke:#475569;stroke-width:0.5;" width="338" x="147.5" y="667.6719"/><text fill="#0F172A" font-family="sans-serif" font-size="12" lengthAdjust="spacing" textLength="318" x="157.5" y="688.8105">Remove the finalizer after OCI deletion is confirmed</text><ellipse cx="316.5" cy="759.6406" fill="none" rx="11" ry="11" style="stroke:#222222;stroke-width:1.0;"/><ellipse cx="316.5" cy="759.6406" fill="#222222" rx="6" ry="6" style="stroke:#111111;stroke-width:1.0;"/><rect fill="none" height="416.3594" style="stroke:#000000;stroke-width:1.5;" width="376" x="787.75" y="493.4375"/><path d="M948.75,493.4375 L948.75,502.7344 L938.75,512.7344 L787.75,512.7344 " fill="none" style="stroke:#000000;stroke-width:1.5;"/><text fill="#000000" font-family="sans-serif" font-size="14" lengthAdjust="spacing" textLength="151" x="790.75" y="507.4326">Lifecycle Classification</text><rect fill="#F8FAFC" height="33.9688" rx="12.5" ry="12.5" style="stroke:#475569;stroke-width:0.5;" width="268" x="835.75" y="578.1367"/><text fill="#0F172A" font-family="sans-serif" font-size="12" lengthAdjust="spacing" textLength="248" x="845.75" y="599.2754">Request requeue and keep the finalizer</text><ellipse cx="969.75" cy="658.1055" fill="none" rx="11" ry="11" style="stroke:#222222;stroke-width:1.0;"/><ellipse cx="969.75" cy="658.1055" fill="#222222" rx="6" ry="6" style="stroke:#111111;stroke-width:1.0;"/><polygon fill="#E2E8F0" points="889.75,529.7344,1049.75,529.7344,1061.75,541.7344,1049.75,553.7344,889.75,553.7344,877.75,541.7344,889.75,529.7344" style="stroke:#475569;stroke-width:0.5;"/><text fill="#000000" font-family="sans-serif" font-size="11" lengthAdjust="spacing" textLength="20" x="973.75" y="563.9448">yes</text><text fill="#0F172A" font-family="sans-serif" font-size="11" lengthAdjust="spacing" textLength="160" x="889.75" y="545.5425">"OCI state in retryable set?"</text><rect fill="#F8FAFC" height="33.9688" rx="12.5" ry="12.5" style="stroke:#475569;stroke-width:0.5;" width="324" x="807.75" y="774.9102"/><text fill="#0F172A" font-family="sans-serif" font-size="12" lengthAdjust="spacing" textLength="304" x="817.75" y="796.0488">Return an unsuccessful terminal reconcile result</text><ellipse cx="969.75" cy="848.3945" fill="none" rx="11" ry="11" style="stroke:#222222;stroke-width:1.0;"/><ellipse cx="969.75" cy="848.3945" fill="#222222" rx="6" ry="6" style="stroke:#111111;stroke-width:1.0;"/><polygon fill="#E2E8F0" points="899.75,726.5078,1039.75,726.5078,1051.75,738.5078,1039.75,750.5078,899.75,750.5078,887.75,738.5078,899.75,726.5078" style="stroke:#475569;stroke-width:0.5;"/><text fill="#000000" font-family="sans-serif" font-size="11" lengthAdjust="spacing" textLength="20" x="973.75" y="760.7183">yes</text><text fill="#0F172A" font-family="sans-serif" font-size="11" lengthAdjust="spacing" textLength="140" x="899.75" y="742.3159">"OCI state in failed set?"</text><rect fill="none" height="566.9141" style="stroke:#000000;stroke-width:1.5;" width="585" x="642" y="944.7969"/><path d="M821,944.7969 L821,954.0938 L811,964.0938 L642,964.0938 " fill="none" style="stroke:#000000;stroke-width:1.5;"/><text fill="#000000" font-family="sans-serif" font-size="14" lengthAdjust="spacing" textLength="169" x="645" y="958.792">Ready and Drift Handling</text><rect fill="#F8FAFC" height="33.9688" rx="12.5" ry="12.5" style="stroke:#475569;stroke-width:0.5;" width="364" x="787.75" y="981.0938"/><text fill="#0F172A" font-family="sans-serif" font-size="12" lengthAdjust="spacing" textLength="344" x="797.75" y="1002.2324">Compare live OCI state with the supported drift surface</text><rect fill="#F8FAFC" height="33.9688" rx="12.5" ry="12.5" style="stroke:#475569;stroke-width:0.5;" width="290" x="824.75" y="1098.4648"/><text fill="#0F172A" font-family="sans-serif" font-size="12" lengthAdjust="spacing" textLength="270" x="834.75" y="1119.6035">Reject the change before any OCI mutation</text><ellipse cx="969.75" cy="1178.4336" fill="none" rx="11" ry="11" style="stroke:#222222;stroke-width:1.0;"/><ellipse cx="969.75" cy="1178.4336" fill="#222222" rx="6" ry="6" style="stroke:#111111;stroke-width:1.0;"/><polygon fill="#E2E8F0" points="845.25,1050.0625,1094.25,1050.0625,1106.25,1062.0625,1094.25,1074.0625,845.25,1074.0625,833.25,1062.0625,845.25,1050.0625" style="stroke:#475569;stroke-width:0.5;"/><text fill="#000000" font-family="sans-serif" font-size="11" lengthAdjust="spacing" textLength="20" x="973.75" y="1084.2729">yes</text><text fill="#0F172A" font-family="sans-serif" font-size="11" lengthAdjust="spacing" textLength="249" x="845.25" y="1065.8706">"Unsupported or immutable drift detected?"</text><rect fill="#F8FAFC" height="33.9688" rx="12.5" ry="12.5" style="stroke:#475569;stroke-width:0.5;" width="482" x="728.75" y="1239.8359"/><text fill="#0F172A" font-family="sans-serif" font-size="12" lengthAdjust="spacing" textLength="462" x="738.75" y="1260.9746">Move the route table compartment before reconciling route rules or tags.</text><rect fill="#F8FAFC" height="33.9688" rx="12.5" ry="12.5" style="stroke:#475569;stroke-width:0.5;" width="435" x="752.25" y="1293.8047"/><text fill="#0F172A" font-family="sans-serif" font-size="12" lengthAdjust="spacing" textLength="415" x="762.25" y="1314.9434">Resubmit the full desired route-rule list when semantic drift exists.</text><polygon fill="#E2E8F0" points="892.25,1347.7734,1047.25,1347.7734,1059.25,1359.7734,1047.25,1371.7734,892.25,1371.7734,880.25,1359.7734,892.25,1347.7734" style="stroke:#475569;stroke-width:0.5;"/><text fill="#0F172A" font-family="sans-serif" font-size="11" lengthAdjust="spacing" textLength="155" x="892.25" y="1363.5815">"Supported drift detected?"</text><text fill="#000000" font-family="sans-serif" font-size="11" lengthAdjust="spacing" textLength="20" x="860.25" y="1357.1792">yes</text><text fill="#000000" font-family="sans-serif" font-size="11" lengthAdjust="spacing" textLength="14" x="1059.25" y="1357.1792">no</text><rect fill="#F8FAFC" height="33.9688" rx="12.5" ry="12.5" style="stroke:#475569;stroke-width:0.5;" width="329" x="662" y="1381.7734"/><text fill="#0F172A" font-family="sans-serif" font-size="12" lengthAdjust="spacing" textLength="309" x="672" y="1402.9121">Apply only the supported in-place update surface</text><rect fill="#F8FAFC" height="33.9688" rx="12.5" ry="12.5" style="stroke:#475569;stroke-width:0.5;" width="204" x="1011" y="1381.7734"/><text fill="#0F172A" font-family="sans-serif" font-size="12" lengthAdjust="spacing" textLength="184" x="1021" y="1402.9121">Skip the no-op mutation path</text><polygon fill="#E2E8F0" points="969.75,1421.7422,981.75,1433.7422,969.75,1445.7422,957.75,1433.7422,969.75,1421.7422" style="stroke:#475569;stroke-width:0.5;"/><rect fill="#F8FAFC" height="33.9688" rx="12.5" ry="12.5" style="stroke:#475569;stroke-width:0.5;" width="287" x="826.25" y="1465.7422"/><text fill="#0F172A" font-family="sans-serif" font-size="12" lengthAdjust="spacing" textLength="267" x="836.25" y="1486.8809">Return success for the usable active state</text><line style="stroke:#334155;stroke-width:1.0;" x1="643.125" x2="643.125" y1="147.5625" y2="167.5625"/><polygon fill="#334155" points="639.125,157.5625,643.125,167.5625,647.125,157.5625,643.125,161.5625" style="stroke:#334155;stroke-width:1.0;"/><line style="stroke:#334155;stroke-width:1.0;" x1="809.625" x2="809.625" y1="289.5" y2="309.5"/><polygon fill="#334155" points="805.625,299.5,809.625,309.5,813.625,299.5,809.625,303.5" style="stroke:#334155;stroke-width:1.0;"/><line style="stroke:#334155;stroke-width:1.0;" x1="809.625" x2="809.625" y1="343.4688" y2="363.4688"/><polygon fill="#334155" points="805.625,353.4688,809.625,363.4688,813.625,353.4688,809.625,357.4688" style="stroke:#334155;stroke-width:1.0;"/><line style="stroke:#334155;stroke-width:1.0;" x1="531.125" x2="476.625" y1="233.5313" y2="233.5313"/><line style="stroke:#334155;stroke-width:1.0;" x1="476.625" x2="476.625" y1="233.5313" y2="255.5313"/><polygon fill="#334155" points="472.625,245.5313,476.625,255.5313,480.625,245.5313,476.625,249.5313" style="stroke:#334155;stroke-width:1.0;"/><line style="stroke:#334155;stroke-width:1.0;" x1="755.125" x2="809.625" y1="233.5313" y2="233.5313"/><line style="stroke:#334155;stroke-width:1.0;" x1="809.625" x2="809.625" y1="233.5313" y2="255.5313"/><polygon fill="#334155" points="805.625,245.5313,809.625,255.5313,813.625,245.5313,809.625,249.5313" style="stroke:#334155;stroke-width:1.0;"/><line style="stroke:#334155;stroke-width:1.0;" x1="476.625" x2="476.625" y1="289.5" y2="415.4375"/><line style="stroke:#334155;stroke-width:1.0;" x1="476.625" x2="631.125" y1="415.4375" y2="415.4375"/><polygon fill="#334155" points="621.125,411.4375,631.125,415.4375,621.125,419.4375,625.125,415.4375" style="stroke:#334155;stroke-width:1.0;"/><line style="stroke:#334155;stroke-width:1.0;" x1="809.625" x2="809.625" y1="397.4375" y2="415.4375"/><line style="stroke:#334155;stroke-width:1.0;" x1="809.625" x2="655.125" y1="415.4375" y2="415.4375"/><polygon fill="#334155" points="665.125,411.4375,655.125,415.4375,665.125,419.4375,661.125,415.4375" style="stroke:#334155;stroke-width:1.0;"/><line style="stroke:#334155;stroke-width:1.0;" x1="643.125" x2="643.125" y1="201.5313" y2="221.5313"/><polygon fill="#334155" points="639.125,211.5313,643.125,221.5313,647.125,211.5313,643.125,215.5313" style="stroke:#334155;stroke-width:1.0;"/><line style="stroke:#334155;stroke-width:1.0;" x1="643.125" x2="643.125" y1="67.2969" y2="113.5938"/><polygon fill="#334155" points="639.125,103.5938,643.125,113.5938,647.125,103.5938,643.125,107.5938" style="stroke:#334155;stroke-width:1.0;"/><line style="stroke:#334155;stroke-width:1.0;" x1="316.5" x2="316.5" y1="563.7031" y2="598.7031"/><polygon fill="#334155" points="312.5,588.7031,316.5,598.7031,320.5,588.7031,316.5,592.7031" style="stroke:#334155;stroke-width:1.0;"/><line style="stroke:#334155;stroke-width:1.0;" x1="316.5" x2="316.5" y1="632.6719" y2="667.6719"/><polygon fill="#334155" points="312.5,657.6719,316.5,667.6719,320.5,657.6719,316.5,661.6719" style="stroke:#334155;stroke-width:1.0;"/><line style="stroke:#334155;stroke-width:1.0;" x1="316.5" x2="316.5" y1="701.6406" y2="748.6406"/><polygon fill="#334155" points="312.5,738.6406,316.5,748.6406,320.5,738.6406,316.5,742.6406" style="stroke:#334155;stroke-width:1.0;"/><line style="stroke:#334155;stroke-width:1.0;" x1="969.75" x2="969.75" y1="612.1055" y2="647.1055"/><polygon fill="#334155" points="965.75,637.1055,969.75,647.1055,973.75,637.1055,969.75,641.1055" style="stroke:#334155;stroke-width:1.0;"/><line style="stroke:#334155;stroke-width:1.0;" x1="969.75" x2="969.75" y1="553.7344" y2="578.1367"/><polygon fill="#334155" points="965.75,568.1367,969.75,578.1367,973.75,568.1367,969.75,572.1367" style="stroke:#334155;stroke-width:1.0;"/><line style="stroke:#334155;stroke-width:1.0;" x1="1061.75" x2="1113.75" y1="541.7344" y2="541.7344"/><polygon fill="#334155" points="1109.75,610.6211,1113.75,620.6211,1117.75,610.6211,1113.75,614.6211" style="stroke:#334155;stroke-width:1.0;"/><line style="stroke:#334155;stroke-width:1.0;" x1="1113.75" x2="1113.75" y1="541.7344" y2="699.5078"/><line style="stroke:#334155;stroke-width:1.0;" x1="1113.75" x2="969.75" y1="699.5078" y2="699.5078"/><line style="stroke:#334155;stroke-width:1.0;" x1="969.75" x2="969.75" y1="699.5078" y2="726.5078"/><polygon fill="#334155" points="965.75,716.5078,969.75,726.5078,973.75,716.5078,969.75,720.5078" style="stroke:#334155;stroke-width:1.0;"/><line style="stroke:#334155;stroke-width:1.0;" x1="969.75" x2="969.75" y1="808.8789" y2="837.3945"/><polygon fill="#334155" points="965.75,827.3945,969.75,837.3945,973.75,827.3945,969.75,831.3945" style="stroke:#334155;stroke-width:1.0;"/><line style="stroke:#334155;stroke-width:1.0;" x1="969.75" x2="969.75" y1="750.5078" y2="774.9102"/><polygon fill="#334155" points="965.75,764.9102,969.75,774.9102,973.75,764.9102,969.75,768.9102" style="stroke:#334155;stroke-width:1.0;"/><line style="stroke:#334155;stroke-width:1.0;" x1="1051.75" x2="1141.75" y1="738.5078" y2="738.5078"/><polygon fill="#334155" points="1137.75,807.3945,1141.75,817.3945,1145.75,807.3945,1141.75,811.3945" style="stroke:#334155;stroke-width:1.0;"/><line style="stroke:#334155;stroke-width:1.0;" x1="1141.75" x2="1141.75" y1="738.5078" y2="889.7969"/><line style="stroke:#334155;stroke-width:1.0;" x1="1141.75" x2="969.75" y1="889.7969" y2="889.7969"/><line style="stroke:#334155;stroke-width:1.0;" x1="969.75" x2="969.75" y1="889.7969" y2="981.0938"/><polygon fill="#334155" points="965.75,971.0938,969.75,981.0938,973.75,971.0938,969.75,975.0938" style="stroke:#334155;stroke-width:1.0;"/><line style="stroke:#334155;stroke-width:1.0;" x1="969.75" x2="969.75" y1="1132.4336" y2="1167.4336"/><polygon fill="#334155" points="965.75,1157.4336,969.75,1167.4336,973.75,1157.4336,969.75,1161.4336" style="stroke:#334155;stroke-width:1.0;"/><line style="stroke:#334155;stroke-width:1.0;" x1="969.75" x2="969.75" y1="1074.0625" y2="1098.4648"/><polygon fill="#334155" points="965.75,1088.4648,969.75,1098.4648,973.75,1088.4648,969.75,1092.4648" style="stroke:#334155;stroke-width:1.0;"/><line style="stroke:#334155;stroke-width:1.0;" x1="1106.25" x2="1124.75" y1="1062.0625" y2="1062.0625"/><polygon fill="#334155" points="1120.75,1130.9492,1124.75,1140.9492,1128.75,1130.9492,1124.75,1134.9492" style="stroke:#334155;stroke-width:1.0;"/><line style="stroke:#334155;stroke-width:1.0;" x1="1124.75" x2="1124.75" y1="1062.0625" y2="1219.8359"/><line style="stroke:#334155;stroke-width:1.0;" x1="1124.75" x2="969.75" y1="1219.8359" y2="1219.8359"/><line style="stroke:#334155;stroke-width:1.0;" x1="969.75" x2="969.75" y1="1219.8359" y2="1239.8359"/><polygon fill="#334155" points="965.75,1229.8359,969.75,1239.8359,973.75,1229.8359,969.75,1233.8359" style="stroke:#334155;stroke-width:1.0;"/><line style="stroke:#334155;stroke-width:1.0;" x1="969.75" x2="969.75" y1="1015.0625" y2="1050.0625"/><polygon fill="#334155" points="965.75,1040.0625,969.75,1050.0625,973.75,1040.0625,969.75,1044.0625" style="stroke:#334155;stroke-width:1.0;"/><line style="stroke:#334155;stroke-width:1.0;" x1="969.75" x2="969.75" y1="1273.8047" y2="1293.8047"/><polygon fill="#334155" points="965.75,1283.8047,969.75,1293.8047,973.75,1283.8047,969.75,1287.8047" style="stroke:#334155;stroke-width:1.0;"/><line style="stroke:#334155;stroke-width:1.0;" x1="880.25" x2="826.5" y1="1359.7734" y2="1359.7734"/><line style="stroke:#334155;stroke-width:1.0;" x1="826.5" x2="826.5" y1="1359.7734" y2="1381.7734"/><polygon fill="#334155" points="822.5,1371.7734,826.5,1381.7734,830.5,1371.7734,826.5,1375.7734" style="stroke:#334155;stroke-width:1.0;"/><line style="stroke:#334155;stroke-width:1.0;" x1="1059.25" x2="1113" y1="1359.7734" y2="1359.7734"/><line style="stroke:#334155;stroke-width:1.0;" x1="1113" x2="1113" y1="1359.7734" y2="1381.7734"/><polygon fill="#334155" points="1109,1371.7734,1113,1381.7734,1117,1371.7734,1113,1375.7734" style="stroke:#334155;stroke-width:1.0;"/><line style="stroke:#334155;stroke-width:1.0;" x1="826.5" x2="826.5" y1="1415.7422" y2="1433.7422"/><line style="stroke:#334155;stroke-width:1.0;" x1="826.5" x2="957.75" y1="1433.7422" y2="1433.7422"/><polygon fill="#334155" points="947.75,1429.7422,957.75,1433.7422,947.75,1437.7422,951.75,1433.7422" style="stroke:#334155;stroke-width:1.0;"/><line style="stroke:#334155;stroke-width:1.0;" x1="1113" x2="1113" y1="1415.7422" y2="1433.7422"/><line style="stroke:#334155;stroke-width:1.0;" x1="1113" x2="981.75" y1="1433.7422" y2="1433.7422"/><polygon fill="#334155" points="991.75,1429.7422,981.75,1433.7422,991.75,1437.7422,987.75,1433.7422" style="stroke:#334155;stroke-width:1.0;"/><line style="stroke:#334155;stroke-width:1.0;" x1="969.75" x2="969.75" y1="1327.7734" y2="1347.7734"/><polygon fill="#334155" points="965.75,1337.7734,969.75,1347.7734,973.75,1337.7734,969.75,1341.7734" style="stroke:#334155;stroke-width:1.0;"/><line style="stroke:#334155;stroke-width:1.0;" x1="969.75" x2="969.75" y1="1445.7422" y2="1465.7422"/><polygon fill="#334155" points="965.75,1455.7422,969.75,1465.7422,973.75,1455.7422,969.75,1459.7422" style="stroke:#334155;stroke-width:1.0;"/><line style="stroke:#334155;stroke-width:1.0;" x1="574.125" x2="316.5" y1="471.4375" y2="471.4375"/><line style="stroke:#334155;stroke-width:1.0;" x1="316.5" x2="316.5" y1="471.4375" y2="529.7344"/><polygon fill="#334155" points="312.5,519.7344,316.5,529.7344,320.5,519.7344,316.5,523.7344" style="stroke:#334155;stroke-width:1.0;"/><line style="stroke:#334155;stroke-width:1.0;" x1="712.125" x2="969.75" y1="471.4375" y2="471.4375"/><line style="stroke:#334155;stroke-width:1.0;" x1="969.75" x2="969.75" y1="471.4375" y2="529.7344"/><polygon fill="#334155" points="965.75,519.7344,969.75,529.7344,973.75,519.7344,969.75,523.7344" style="stroke:#334155;stroke-width:1.0;"/><line style="stroke:#334155;stroke-width:1.0;" x1="969.75" x2="969.75" y1="1499.7109" y2="1517.7109"/><line style="stroke:#334155;stroke-width:1.0;" x1="969.75" x2="643.125" y1="1517.7109" y2="1517.7109"/><line style="stroke:#334155;stroke-width:1.0;" x1="643.125" x2="643.125" y1="427.4375" y2="459.4375"/><polygon fill="#334155" points="639.125,449.4375,643.125,459.4375,647.125,449.4375,643.125,453.4375" style="stroke:#334155;stroke-width:1.0;"/><!--SRC=[VLPjKnit4Fv-lq93lv2P71EI02byw1Y_f9xIm1Z8TrctPwlefAjUSDnE_djtLxAnYHlFOEwaVNtssLr77Gs8s-5Kp5oA81xa7Dzde9nL6fy6Akfd7TTLUDAsbrvs8YnburRQBaGhJO2TcskfdXRU9TiCdN5U_3BXpux4m7ktAfSVFdmyFJlRkMoWbSd41_WM1qOlR0Ss2WDjt96H9HxnRoKE-Fiq6Ko6TEDy0xwSVhmuEpl_5KydpiPozcvoUl5-W6SZBJjdcnzCZT-FFqtUxGWSj7WVfNynUN5-FiR3yTR8nUHqT3gglbU1vAeASuWwQcV5qUqyW7y68MqZhhLjZZYZond8HWnd8lIWtWfKYobGUKPlMR810rWbRIDYSqKAVm3qHQwUK_miBMIAI-Srdcjqqc8mHaRm8lKD_XVuNaprCYu3MTAjE3vwy8W3D7GFttgZbOxPNkyXeClVZjw8k0GhZjSGtg0MHl0P8fqnYL3A9Qz0pDVYoRgL5Rf1DTrgyEG4a33YsBgYEaDnmo2WEnqYaUgrcKQ7tiYriBA3gwmsn3fgcq0OrC4C5jfAHZNXkH5IT3AgPKvYALEWkw9w1pwG4WNiitVELdb0N0fuSmI1C7O5M8xSDhh5IbQCqoY3v-7l107rVi1bfz9PDjSN8xXFyowZkYa1LUTL1xuaschVPK4ojj9nYVB6k5MTUe7GirBkMYMD2GM3JNwCeWvYuInNtRg8-aYJawjD2Jg75I3v5c4q-XzaYMo9AziGoJFQK3aQQ4ZrE_w5wFfgjwGxMT_e5jHQOLX38qD01YYkqGO7Xf4y4CJ4Q0mt-ZKd4k0GqJXOnZlZddBpF543x8L_LSGvF7h8jJlijPKuvfgVkOp9Ms9eiY4f1I6q2V45tv4_36KpAX5kd5x_wnofimSGTVgQCnXvtKRnEpuQR80jKOQkGt4Y-NDkhXmpKu3o3QdldIVIDcmW9DzALQZ3YJxQ5ncilUww51dWhD0W-TGXyfR4_y9RzgIMqYwm6G6PIg2lEHmozj9P1-6-_7F3BS_SpjuL9nPvl1UR6nHf06HHdmm4YZhAHNWXQyZTm_LEnc0EGNjCZvLgKif3OKNv1EWaTeCg-VA8sTXYWEvVGVXpH0PzRzR2MVpQnr_R6aSKDbgPhdkLs1zvD02UT2QiTRNhjp3o9Bvw3M2XNs4UZmfIJO6Hv6q8cHYvARDgrHedUPfYloEMUh6CrS2h9SHr3vTLlPrzDITUvqbKbr6Anmfd34A1SLMpRLzkIHZ8nDtizklqVdhxPVhbCxu-teq63_Guo47j2m- -3gOtW-kRSJN93RT_FS7RyGWVHkERyGC-FUuXIIAxUm1VMmz4dOxvGTU0_Ozso-iEYQh2v48rnfijFYixBPMlhcacIhzcm3Ya6zgNX0YmoxnJa98TxfCyT58WXFSs2QqFBjpBnjshRpWXu6W8uEX0uJhWVXIofrMRfLnBiqOQJ-EXpdGdZX7RsV9hfdiakRROAYcoCOgdSrJGHYmI_cZ2tmfmKj7Ez5HKNnk7cm99-ooznblEzfuNtLtUyey1GZwOReI8M8nDzHy0]--></g></svg>