<?xml version="1.0" encoding="UTF-8" standalone="no"?><svg xmlns="http://www.w3.org/2000/svg" xmlns:xlink="http://www.w3.org/1999/xlink" contentStyleType="text/css" height="1395px" preserveAspectRatio="none" style="width:1160px;height:1395px;background:#FFFFFF;" version="1.1" viewBox="0 0 1160 1395" width="1160px" zoomAndPan="magnify"><defs/><g><text fill="#000000" font-family="sans-serif" font-size="14" font-weight="bold" lengthAdjust="spacing" textLength="291" x="436.25" y="27.9951">OCI Route Table Reconcile Sequence</text><rect fill="none" height="314.9375" style="stroke:#475569;stroke-width:1.5;" width="886" x="268.5" y="193.8594"/><rect fill="none" height="283.8047" style="stroke:#475569;stroke-width:1.5;" width="866" x="278.5" y="217.9922"/><rect fill="none" height="46.2656" style="stroke:#475569;stroke-width:1.5;" width="724" x="288.5" y="315.1953"/><rect fill="none" height="119.3359" style="stroke:#475569;stroke-width:1.5;" width="846" x="288.5" y="375.4609"/><rect fill="none" height="603.3359" style="stroke:#475569;stroke-width:1.5;" width="1134.5" x="10" y="522.7969"/><rect fill="none" height="104.5313" style="stroke:#475569;stroke-width:1.5;" width="846" x="288.5" y="546.9297"/><rect fill="none" height="321.8594" style="stroke:#475569;stroke-width:1.5;" width="1013" x="20" y="768.1406"/><rect fill="none" height="46.2656" style="stroke:#475569;stroke-width:1.5;" width="406.5" x="30" y="918.2031"/><rect fill="none" height="46.2656" style="stroke:#475569;stroke-width:1.5;" width="724" x="288.5" y="1036.7344"/><line style="stroke:#94A3B8;stroke-width:0.5;stroke-dasharray:5.0,5.0;" x1="76" x2="76" y1="118.5938" y2="1314.4609"/><line style="stroke:#94A3B8;stroke-width:0.5;stroke-dasharray:5.0,5.0;" x1="362.5" x2="362.5" y1="118.5938" y2="1314.4609"/><line style="stroke:#94A3B8;stroke-width:0.5;stroke-dasharray:5.0,5.0;" x1="984.5" x2="984.5" y1="118.5938" y2="1314.4609"/><line style="stroke:#94A3B8;stroke-width:0.5;stroke-dasharray:5.0,5.0;" x1="1068.5" x2="1068.5" y1="118.5938" y2="1314.4609"/><text fill="#000000" font-family="sans-serif" font-size="14" lengthAdjust="spacing" textLength="67" x="40" y="115.292">Controller</text><ellipse cx="76.5" cy="50.7969" fill="#E0F2FE" rx="8" ry="8" style="stroke:#0F766E;stroke-width:0.5;"/><path d="M76.5,58.7969 L76.5,85.7969 M63.5,66.7969 L89.5,66.7969 M76.5,85.7969 L63.5,100.7969 M76.5,85.7969 L89.5,100.7969 " fill="none" style="stroke:#0F766E;stroke-width:0.5;"/><text fill="#000000" font-family="sans-serif" font-size="14" lengthAdjust="spacing" textLength="67" x="40" y="1326.4561">Controller</text><ellipse cx="76.5" cy="1338.2578" fill="#E0F2FE" rx="8" ry="8" style="stroke:#0F766E;stroke-width:0.5;"/><path d="M76.5,1346.2578 L76.5,1373.2578 M63.5,1354.2578 L89.5,1354.2578 M76.5,1373.2578 L63.5,1388.2578 M76.5,1373.2578 L89.5,1388.2578 " fill="none" style="stroke:#0F766E;stroke-width:0.5;"/><rect fill="#F8FAFC" height="30.2969" rx="2.5" ry="2.5" style="stroke:#475569;stroke-width:0.5;" width="128" x="298.5" y="87.2969"/><text fill="#000000" font-family="sans-serif" font-size="14" lengthAdjust="spacing" textLength="114" x="305.5" y="107.292">Service Manager</text><rect fill="#F8FAFC" height="30.2969" rx="2.5" ry="2.5" style="stroke:#475569;stroke-width:0.5;" width="128" x="298.5" y="1313.4609"/><text fill="#000000" font-family="sans-serif" font-size="14" lengthAdjust="spacing" textLength="114" x="305.5" y="1333.4561">Service Manager</text><text fill="#000000" font-family="sans-serif" font-size="14" lengthAdjust="spacing" textLength="24" x="969.5" y="115.292">OCI</text><path d="M966.5,66.2969 C966.5,56.2969 984.5,56.2969 984.5,56.2969 C984.5,56.2969 1002.5,56.2969 1002.5,66.2969 L1002.5,92.2969 C1002.5,102.2969 984.5,102.2969 984.5,102.2969 C984.5,102.2969 966.5,102.2969 966.5,92.2969 L966.5,66.2969 " fill="#E2E2F0" style="stroke:#181818;stroke-width:1.5;"/><path d="M966.5,66.2969 C966.5,76.2969 984.5,76.2969 984.5,76.2969 C984.5,76.2969 1002.5,76.2969 1002.5,66.2969 " fill="none" style="stroke:#181818;stroke-width:1.5;"/><text fill="#000000" font-family="sans-serif" font-size="14" lengthAdjust="spacing" textLength="24" x="969.5" y="1326.4561">OCI</text><path d="M966.5,1339.7578 C966.5,1329.7578 984.5,1329.7578 984.5,1329.7578 C984.5,1329.7578 1002.5,1329.7578 1002.5,1339.7578 L1002.5,1365.7578 C1002.5,1375.7578 984.5,1375.7578 984.5,1375.7578 C984.5,1375.7578 966.5,1375.7578 966.5,1365.7578 L966.5,1339.7578 " fill="#E2E2F0" style="stroke:#181818;stroke-width:1.5;"/><path d="M966.5,1339.7578 C966.5,1349.7578 984.5,1349.7578 984.5,1349.7578 C984.5,1349.7578 1002.5,1349.7578 1002.5,1339.7578 " fill="none" style="stroke:#181818;stroke-width:1.5;"/><text fill="#000000" font-family="sans-serif" font-size="14" lengthAdjust="spacing" textLength="106" x="1012.5" y="115.292">Kubernetes API</text><path d="M1050.5,66.2969 C1050.5,56.2969 1068.5,56.2969 1068.5,56.2969 C1068.5,56.2969 1086.5,56.2969 1086.5,66.2969 L1086.5,92.2969 C1086.5,102.2969 1068.5,102.2969 1068.5,102.2969 C1068.5,102.2969 1050.5,102.2969 1050.5,92.2969 L1050.5,66.2969 " fill="#E2E2F0" style="stroke:#181818;stroke-width:1.5;"/><path d="M1050.5,66.2969 C1050.5,76.2969 1068.5,76.2969 1068.5,76.2969 C1068.5,76.2969 1086.5,76.2969 1086.5,66.2969 " fill="none" style="stroke:#181818;stroke-width:1.5;"/><text fill="#000000" font-family="sans-serif" font-size="14" lengthAdjust="spacing" textLength="106" x="1012.5" y="1326.4561">Kubernetes API</text><path d="M1050.5,1339.7578 C1050.5,1329.7578 1068.5,1329.7578 1068.5,1329.7578 C1068.5,1329.7578 1086.5,1329.7578 1086.5,1339.7578 L1086.5,1365.7578 C1086.5,1375.7578 1068.5,1375.7578 1068.5,1375.7578 C1068.5,1375.7578 1050.5,1375.7578 1050.5,1365.7578 L1050.5,1339.7578 " fill="#E2E2F0" style="stroke:#181818;stroke-width:1.5;"/><path d="M1050.5,1339.7578 C1050.5,1349.7578 1068.5,1349.7578 1068.5,1349.7578 C1068.5,1349.7578 1086.5,1349.7578 1086.5,1339.7578 " fill="none" style="stroke:#181818;stroke-width:1.5;"/><polygon fill="#334155" points="350.5,145.7266,360.5,149.7266,350.5,153.7266,354.5,149.7266" style="stroke:#334155;stroke-width:1.0;"/><line style="stroke:#334155;stroke-width:1.0;" x1="76.5" x2="356.5" y1="149.7266" y2="149.7266"/><text fill="#000000" font-family="sans-serif" font-size="13" font-weight="bold" lengthAdjust="spacing" textLength="9" x="83.5" y="144.6606">1</text><text fill="#000000" font-family="sans-serif" font-size="13" lengthAdjust="spacing" textLength="239" x="96.5" y="144.6606">reconcile desired spec and live status</text><polygon fill="#334155" points="1056.5,174.8594,1066.5,178.8594,1056.5,182.8594,1060.5,178.8594" style="stroke:#334155;stroke-width:1.0;"/><line style="stroke:#334155;stroke-width:1.0;" x1="362.5" x2="1062.5" y1="178.8594" y2="178.8594"/><text fill="#000000" font-family="sans-serif" font-size="13" font-weight="bold" lengthAdjust="spacing" textLength="9" x="369.5" y="173.7935">2</text><text fill="#000000" font-family="sans-serif" font-size="13" lengthAdjust="spacing" textLength="212" x="382.5" y="173.7935">read CR status and finalizer state</text><path d="M268.5,193.8594 L438.5,193.8594 L438.5,200.9922 L428.5,210.9922 L268.5,210.9922 L268.5,193.8594 " fill="#F8FAFC" style="stroke:#475569;stroke-width:1.5;"/><rect fill="none" height="314.9375" style="stroke:#475569;stroke-width:1.5;" width="886" x="268.5" y="193.8594"/><text fill="#000000" font-family="sans-serif" font-size="13" font-weight="bold" lengthAdjust="spacing" textLength="125" x="283.5" y="206.9263">Lookup and bind</text><path d="M278.5,217.9922 L342.5,217.9922 L342.5,225.125 L332.5,235.125 L278.5,235.125 L278.5,217.9922 " fill="#F8FAFC" style="stroke:#475569;stroke-width:1.5;"/><rect fill="none" height="283.8047" style="stroke:#475569;stroke-width:1.5;" width="866" x="278.5" y="217.9922"/><text fill="#000000" font-family="sans-serif" font-size="13" font-weight="bold" lengthAdjust="spacing" textLength="19" x="293.5" y="231.0591">alt</text><text fill="#000000" font-family="sans-serif" font-size="11" font-weight="bold" lengthAdjust="spacing" textLength="256" x="357.5" y="230.2026">[tracked or explicit OCID already exists]</text><polygon fill="#334155" points="972.5,252.2578,982.5,256.2578,972.5,260.2578,976.5,256.2578" style="stroke:#334155;stroke-width:1.0;"/><line style="stroke:#334155;stroke-width:1.0;" x1="362.5" x2="978.5" y1="256.2578" y2="256.2578"/><text fill="#000000" font-family="sans-serif" font-size="13" font-weight="bold" lengthAdjust="spacing" textLength="9" x="369.5" y="251.1919">3</text><text fill="#000000" font-family="sans-serif" font-size="13" lengthAdjust="spacing" textLength="278" x="382.5" y="251.1919">get the current resource by known identifier</text><line style="stroke:#475569;stroke-width:1.0;stroke-dasharray:2.0,2.0;" x1="278.5" x2="1144.5" y1="265.2578" y2="265.2578"/><text fill="#000000" font-family="sans-serif" font-size="11" font-weight="bold" lengthAdjust="spacing" textLength="145" x="283.5" y="275.4683">[no OCID is bound yet]</text><polygon fill="#334155" points="972.5,296.1953,982.5,300.1953,972.5,304.1953,976.5,300.1953" style="stroke:#334155;stroke-width:1.0;"/><line style="stroke:#334155;stroke-width:1.0;" x1="362.5" x2="978.5" y1="300.1953" y2="300.1953"/><text fill="#000000" font-family="sans-serif" font-size="13" font-weight="bold" lengthAdjust="spacing" textLength="9" x="369.5" y="295.1294">4</text><text fill="#000000" font-family="sans-serif" font-size="13" lengthAdjust="spacing" textLength="193" x="382.5" y="295.1294">list resources by display name</text><path d="M288.5,315.1953 L365.5,315.1953 L365.5,322.3281 L355.5,332.3281 L288.5,332.3281 L288.5,315.1953 " fill="#F8FAFC" style="stroke:#475569;stroke-width:1.5;"/><rect fill="none" height="46.2656" style="stroke:#475569;stroke-width:1.5;" width="724" x="288.5" y="315.1953"/><text fill="#000000" font-family="sans-serif" font-size="13" font-weight="bold" lengthAdjust="spacing" textLength="32" x="303.5" y="328.2622">loop</text><text fill="#000000" font-family="sans-serif" font-size="11" font-weight="bold" lengthAdjust="spacing" textLength="263" x="380.5" y="327.4058">[later pages until a match or exhaustion]</text><polygon fill="#334155" points="972.5,349.4609,982.5,353.4609,972.5,357.4609,976.5,353.4609" style="stroke:#334155;stroke-width:1.0;"/><line style="stroke:#334155;stroke-width:1.0;" x1="362.5" x2="978.5" y1="353.4609" y2="353.4609"/><text fill="#000000" font-family="sans-serif" font-size="13" font-weight="bold" lengthAdjust="spacing" textLength="9" x="369.5" y="348.395">5</text><text fill="#000000" font-family="sans-serif" font-size="13" lengthAdjust="spacing" textLength="147" x="382.5" y="348.395">fetch the next list page</text><path d="M288.5,375.4609 L352.5,375.4609 L352.5,382.5938 L342.5,392.5938 L288.5,392.5938 L288.5,375.4609 " fill="#F8FAFC" style="stroke:#475569;stroke-width:1.5;"/><rect fill="none" height="119.3359" style="stroke:#475569;stroke-width:1.5;" width="846" x="288.5" y="375.4609"/><text fill="#000000" font-family="sans-serif" font-size="13" font-weight="bold" lengthAdjust="spacing" textLength="19" x="303.5" y="388.5278">alt</text><text fill="#000000" font-family="sans-serif" font-size="11" font-weight="bold" lengthAdjust="spacing" textLength="162" x="367.5" y="387.6714">[existing resource found]</text><polygon fill="#334155" points="1056.5,409.7266,1066.5,413.7266,1056.5,417.7266,1060.5,413.7266" style="stroke:#334155;stroke-width:1.0;"/><line style="stroke:#334155;stroke-width:1.0;" x1="362.5" x2="1062.5" y1="413.7266" y2="413.7266"/><text fill="#000000" font-family="sans-serif" font-size="13" font-weight="bold" lengthAdjust="spacing" textLength="9" x="369.5" y="408.6606">6</text><text fill="#000000" font-family="sans-serif" font-size="13" lengthAdjust="spacing" textLength="221" x="382.5" y="408.6606">persist the resolved OCID in status</text><line style="stroke:#475569;stroke-width:1.0;stroke-dasharray:2.0,2.0;" x1="288.5" x2="1134.5" y1="422.7266" y2="422.7266"/><text fill="#000000" font-family="sans-serif" font-size="11" font-weight="bold" lengthAdjust="spacing" textLength="182" x="293.5" y="432.937">[no existing resource found]</text><polygon fill="#334155" points="972.5,453.6641,982.5,457.6641,972.5,461.6641,976.5,457.6641" style="stroke:#334155;stroke-width:1.0;"/><line style="stroke:#334155;stroke-width:1.0;" x1="362.5" x2="978.5" y1="457.6641" y2="457.6641"/><text fill="#000000" font-family="sans-serif" font-size="13" font-weight="bold" lengthAdjust="spacing" textLength="9" x="369.5" y="452.5981">7</text><text fill="#000000" font-family="sans-serif" font-size="13" lengthAdjust="spacing" textLength="152" x="382.5" y="452.5981">create the OCI resource</text><polygon fill="#334155" points="1056.5,482.7969,1066.5,486.7969,1056.5,490.7969,1060.5,486.7969" style="stroke:#334155;stroke-width:1.0;"/><line style="stroke:#334155;stroke-width:1.0;" x1="362.5" x2="1062.5" y1="486.7969" y2="486.7969"/><text fill="#000000" font-family="sans-serif" font-size="13" font-weight="bold" lengthAdjust="spacing" textLength="9" x="369.5" y="481.731">8</text><text fill="#000000" font-family="sans-serif" font-size="13" lengthAdjust="spacing" textLength="216" x="382.5" y="481.731">persist the created OCID in status</text><path d="M10,522.7969 L74,522.7969 L74,529.9297 L64,539.9297 L10,539.9297 L10,522.7969 " fill="#F8FAFC" style="stroke:#475569;stroke-width:1.5;"/><rect fill="none" height="603.3359" style="stroke:#475569;stroke-width:1.5;" width="1134.5" x="10" y="522.7969"/><text fill="#000000" font-family="sans-serif" font-size="13" font-weight="bold" lengthAdjust="spacing" textLength="19" x="25" y="535.8638">alt</text><text fill="#000000" font-family="sans-serif" font-size="11" font-weight="bold" lengthAdjust="spacing" textLength="120" x="89" y="535.0073">[delete requested]</text><path d="M288.5,546.9297 L381.5,546.9297 L381.5,554.0625 L371.5,564.0625 L288.5,564.0625 L288.5,546.9297 " fill="#F8FAFC" style="stroke:#475569;stroke-width:1.5;"/><rect fill="none" height="104.5313" style="stroke:#475569;stroke-width:1.5;" width="846" x="288.5" y="546.9297"/><text fill="#000000" font-family="sans-serif" font-size="13" font-weight="bold" lengthAdjust="spacing" textLength="48" x="303.5" y="559.9966">Delete</text><polygon fill="#334155" points="972.5,581.1953,982.5,585.1953,972.5,589.1953,976.5,585.1953" style="stroke:#334155;stroke-width:1.0;"/><line style="stroke:#334155;stroke-width:1.0;" x1="362.5" x2="978.5" y1="585.1953" y2="585.1953"/><text fill="#000000" font-family="sans-serif" font-size="13" font-weight="bold" lengthAdjust="spacing" textLength="9" x="369.5" y="580.1294">9</text><text fill="#000000" font-family="sans-serif" font-size="13" lengthAdjust="spacing" textLength="114" x="382.5" y="580.1294">submit OCI delete</text><polygon fill="#334155" points="972.5,610.3281,982.5,614.3281,972.5,618.3281,976.5,614.3281" style="stroke:#334155;stroke-width:1.0;"/><line style="stroke:#334155;stroke-width:1.0;" x1="362.5" x2="978.5" y1="614.3281" y2="614.3281"/><text fill="#000000" font-family="sans-serif" font-size="13" font-weight="bold" lengthAdjust="spacing" textLength="18" x="369.5" y="609.2622">10</text><text fill="#000000" font-family="sans-serif" font-size="13" lengthAdjust="spacing" textLength="576" x="391.5" y="609.2622">Confirm deletion with follow-up GetRouteTable calls until the resource is gone or not found.</text><polygon fill="#334155" points="1056.5,639.4609,1066.5,643.4609,1056.5,647.4609,1060.5,643.4609" style="stroke:#334155;stroke-width:1.0;"/><line style="stroke:#334155;stroke-width:1.0;" x1="362.5" x2="1062.5" y1="643.4609" y2="643.4609"/><text fill="#000000" font-family="sans-serif" font-size="13" font-weight="bold" lengthAdjust="spacing" textLength="18" x="369.5" y="638.395">11</text><text fill="#000000" font-family="sans-serif" font-size="13" lengthAdjust="spacing" textLength="289" x="391.5" y="638.395">remove the finalizer after delete confirmation</text><line style="stroke:#475569;stroke-width:1.0;stroke-dasharray:2.0,2.0;" x1="10" x2="1144.5" y1="659.4609" y2="659.4609"/><text fill="#000000" font-family="sans-serif" font-size="11" font-weight="bold" lengthAdjust="spacing" textLength="147" x="15" y="669.6714">[OCI state is retryable]</text><polygon fill="#334155" points="87.5,690.3984,77.5,694.3984,87.5,698.3984,83.5,694.3984" style="stroke:#334155;stroke-width:1.0;"/><line style="stroke:#334155;stroke-width:1.0;stroke-dasharray:2.0,2.0;" x1="81.5" x2="361.5" y1="694.3984" y2="694.3984"/><text fill="#000000" font-family="sans-serif" font-size="13" font-weight="bold" lengthAdjust="spacing" textLength="18" x="93.5" y="689.3325">12</text><text fill="#000000" font-family="sans-serif" font-size="13" lengthAdjust="spacing" textLength="110" x="115.5" y="689.3325">requeue required</text><line style="stroke:#475569;stroke-width:1.0;stroke-dasharray:2.0,2.0;" x1="10" x2="1144.5" y1="703.3984" y2="703.3984"/><text fill="#000000" font-family="sans-serif" font-size="11" font-weight="bold" lengthAdjust="spacing" textLength="200" x="15" y="713.6089">[OCI state is failed or terminal]</text><polygon fill="#334155" points="87.5,734.3359,77.5,738.3359,87.5,742.3359,83.5,738.3359" style="stroke:#334155;stroke-width:1.0;"/><line style="stroke:#334155;stroke-width:1.0;stroke-dasharray:2.0,2.0;" x1="81.5" x2="361.5" y1="738.3359" y2="738.3359"/><text fill="#000000" font-family="sans-serif" font-size="13" font-weight="bold" lengthAdjust="spacing" textLength="18" x="93.5" y="733.27">13</text><text fill="#000000" font-family="sans-serif" font-size="13" lengthAdjust="spacing" textLength="240" x="115.5" y="733.27">unsuccessful terminal reconcile result</text><line style="stroke:#475569;stroke-width:1.0;stroke-dasharray:2.0,2.0;" x1="10" x2="1144.5" y1="747.3359" y2="747.3359"/><text fill="#000000" font-family="sans-serif" font-size="11" font-weight="bold" lengthAdjust="spacing" textLength="203" x="15" y="757.5464">[OCI state is active and usable]</text><path d="M20,768.1406 L167,768.1406 L167,775.2734 L157,785.2734 L20,785.2734 L20,768.1406 " fill="#F8FAFC" style="stroke:#475569;stroke-width:1.5;"/><rect fill="none" height="321.8594" style="stroke:#475569;stroke-width:1.5;" width="1013" x="20" y="768.1406"/><text fill="#000000" font-family="sans-serif" font-size="13" font-weight="bold" lengthAdjust="spacing" textLength="102" x="35" y="781.2075">Drift handling</text><path d="M324,790.2734 L324,905.2734 L1023,905.2734 L1023,800.2734 L1013,790.2734 L324,790.2734 " fill="#FEFFDD" style="stroke:#181818;stroke-width:0.5;"/><path d="M1013,790.2734 L1013,800.2734 L1023,800.2734 L1013,790.2734 " fill="#FEFFDD" style="stroke:#181818;stroke-width:0.5;"/><text fill="#000000" font-family="sans-serif" font-size="13" lengthAdjust="spacing" textLength="171" x="330" y="807.3403">Supported update surface:</text><text fill="#000000" font-family="sans-serif" font-size="13" lengthAdjust="spacing" textLength="94" x="330" y="822.4731">- display name</text><text fill="#000000" font-family="sans-serif" font-size="13" lengthAdjust="spacing" textLength="96" x="330" y="837.606">- freeform tags</text><text fill="#000000" font-family="sans-serif" font-size="13" lengthAdjust="spacing" textLength="88" x="330" y="852.7388">- defined tags</text><text fill="#000000" font-family="sans-serif" font-size="13" lengthAdjust="spacing" textLength="78" x="330" y="867.8716">- route rules</text><text fill="#000000" font-family="sans-serif" font-size="13" lengthAdjust="spacing" textLength="139" x="330" y="883.0044">Reject before mutate:</text><text fill="#000000" font-family="sans-serif" font-size="13" lengthAdjust="spacing" textLength="71" x="330" y="898.1372">- vcnId drift</text><path d="M30,918.2031 L100,918.2031 L100,925.3359 L90,935.3359 L30,935.3359 L30,918.2031 " fill="#F8FAFC" style="stroke:#475569;stroke-width:1.5;"/><rect fill="none" height="46.2656" style="stroke:#475569;stroke-width:1.5;" width="406.5" x="30" y="918.2031"/><text fill="#000000" font-family="sans-serif" font-size="13" font-weight="bold" lengthAdjust="spacing" textLength="25" x="45" y="931.27">opt</text><text fill="#000000" font-family="sans-serif" font-size="11" font-weight="bold" lengthAdjust="spacing" textLength="286" x="115" y="930.4136">[unsupported or immutable drift is detected]</text><polygon fill="#334155" points="87.5,952.4688,77.5,956.4688,87.5,960.4688,83.5,956.4688" style="stroke:#334155;stroke-width:1.0;"/><line style="stroke:#334155;stroke-width:1.0;stroke-dasharray:2.0,2.0;" x1="81.5" x2="361.5" y1="956.4688" y2="956.4688"/><text fill="#000000" font-family="sans-serif" font-size="13" font-weight="bold" lengthAdjust="spacing" textLength="18" x="93.5" y="951.4028">14</text><text fill="#000000" font-family="sans-serif" font-size="13" lengthAdjust="spacing" textLength="169" x="115.5" y="951.4028">reject before OCI mutation</text><polygon fill="#334155" points="972.5,988.6016,982.5,992.6016,972.5,996.6016,976.5,992.6016" style="stroke:#334155;stroke-width:1.0;"/><line style="stroke:#334155;stroke-width:1.0;" x1="362.5" x2="978.5" y1="992.6016" y2="992.6016"/><text fill="#000000" font-family="sans-serif" font-size="13" font-weight="bold" lengthAdjust="spacing" textLength="18" x="369.5" y="987.5356">15</text><text fill="#000000" font-family="sans-serif" font-size="13" lengthAdjust="spacing" textLength="468" x="391.5" y="987.5356">Move the route table compartment before reconciling route rules or tags.</text><polygon fill="#334155" points="972.5,1017.7344,982.5,1021.7344,972.5,1025.7344,976.5,1021.7344" style="stroke:#334155;stroke-width:1.0;"/><line style="stroke:#334155;stroke-width:1.0;" x1="362.5" x2="978.5" y1="1021.7344" y2="1021.7344"/><text fill="#000000" font-family="sans-serif" font-size="13" font-weight="bold" lengthAdjust="spacing" textLength="18" x="369.5" y="1016.6685">16</text><text fill="#000000" font-family="sans-serif" font-size="13" lengthAdjust="spacing" textLength="421" x="391.5" y="1016.6685">Resubmit the full desired route-rule list when semantic drift exists.</text><path d="M288.5,1036.7344 L358.5,1036.7344 L358.5,1043.8672 L348.5,1053.8672 L288.5,1053.8672 L288.5,1036.7344 " fill="#F8FAFC" style="stroke:#475569;stroke-width:1.5;"/><rect fill="none" height="46.2656" style="stroke:#475569;stroke-width:1.5;" width="724" x="288.5" y="1036.7344"/><text fill="#000000" font-family="sans-serif" font-size="13" font-weight="bold" lengthAdjust="spacing" textLength="25" x="303.5" y="1049.8013">opt</text><text fill="#000000" font-family="sans-serif" font-size="11" font-weight="bold" lengthAdjust="spacing" textLength="258" x="373.5" y="1048.9448">[supported drift or collection diff exists]</text><polygon fill="#334155" points="972.5,1071,982.5,1075,972.5,1079,976.5,1075" style="stroke:#334155;stroke-width:1.0;"/><line style="stroke:#334155;stroke-width:1.0;" x1="362.5" x2="978.5" y1="1075" y2="1075"/><text fill="#000000" font-family="sans-serif" font-size="13" font-weight="bold" lengthAdjust="spacing" textLength="18" x="369.5" y="1069.9341">17</text><text fill="#000000" font-family="sans-serif" font-size="13" lengthAdjust="spacing" textLength="277" x="391.5" y="1069.9341">apply the supported in-place mutation path</text><polygon fill="#334155" points="87.5,1114.1328,77.5,1118.1328,87.5,1122.1328,83.5,1118.1328" style="stroke:#334155;stroke-width:1.0;"/><line style="stroke:#334155;stroke-width:1.0;stroke-dasharray:2.0,2.0;" x1="81.5" x2="361.5" y1="1118.1328" y2="1118.1328"/><text fill="#000000" font-family="sans-serif" font-size="13" font-weight="bold" lengthAdjust="spacing" textLength="18" x="93.5" y="1113.0669">18</text><text fill="#000000" font-family="sans-serif" font-size="13" lengthAdjust="spacing" textLength="169" x="115.5" y="1113.0669">successful active reconcile</text><path d="M51,1138.1328 L51,1299.1328 L1008,1299.1328 L1008,1148.1328 L998,1138.1328 L51,1138.1328 " fill="#FEFFDD" style="stroke:#181818;stroke-width:0.5;"/><path d="M998,1138.1328 L998,1148.1328 L1008,1148.1328 L998,1138.1328 " fill="#FEFFDD" style="stroke:#181818;stroke-width:0.5;"/><text fill="#000000" font-family="sans-serif" font-size="13" lengthAdjust="spacing" textLength="105" x="57" y="1155.1997">Boundary notes:</text><text fill="#000000" font-family="sans-serif" font-size="13" lengthAdjust="spacing" textLength="463" x="57" y="1170.3325">- Later-page name matches must keep using the resolved OCID for later</text><text fill="#000000" font-family="sans-serif" font-size="13" lengthAdjust="spacing" textLength="102" x="73" y="1185.4653">mutation paths.</text><text fill="#000000" font-family="sans-serif" font-size="13" lengthAdjust="spacing" textLength="425" x="57" y="1200.5981">- Partial OCI-side application of an already-submitted full route-rule</text><text fill="#000000" font-family="sans-serif" font-size="13" lengthAdjust="spacing" textLength="284" x="73" y="1215.731">list remains outside the modeled guarantee.</text><text fill="#000000" font-family="sans-serif" font-size="13" lengthAdjust="spacing" textLength="108" x="57" y="1230.8638">Sequence notes:</text><text fill="#000000" font-family="sans-serif" font-size="13" lengthAdjust="spacing" textLength="315" x="57" y="1245.9966">- Matching route-rule lists must skip no-op writes.</text><text fill="#000000" font-family="sans-serif" font-size="13" lengthAdjust="spacing" textLength="374" x="57" y="1261.1294">- Differing lists converge only after whole-list resubmission.</text><text fill="#000000" font-family="sans-serif" font-size="13" lengthAdjust="spacing" textLength="166" x="57" y="1276.2622">Controller-local invariants:</text><text fill="#000000" font-family="sans-serif" font-size="13" lengthAdjust="spacing" textLength="229" x="57" y="1291.395">- StatusPresentUsesStatusInvariant</text><!--SRC=[bLRRRjms47tNLmpSryf8wqiSFnHONpOmOhU6dNu0bnhjigP8bHTljaN_lJCajPAzNgSDa3ZctC-ScL5GGIFyTda33pO6XAzYGRy_eBH6AlhV8_uPqKYiH0pMn6w1hl9FolJ2YGxyIZHshSmIMg4zJYGNGZujdOsckRJQElXXdlvCD6REsNKH7XqT_tHoCX4ss8gemrVy5cPQBKs79e36Dao3bzJWxmhWNhYWfEg52RkXp-Qp-UKh9UiQT4NX-EF9oUadKhXLBTugWo-aduvdHnTdK-cUsW0-qsl_jkiisflQJ0RhTiJN7-O_pw-tugdZ3_EFfwVNrJ-LO14SN5eJdDKQtG483-ElLJzM3GUFw9uLONOdZ5WMtV9Mdgf61B4G7k60Q94KwEVazKia4XWCw65sdnM-dFcg6aD2_Sihf-VWjfHgq2k73VWU9GZJW5RF23w847trqemTaM-s5WrSFXIjPDKg8xJwYvJu4QkAaUlXrjed-i4Q2sKQmaxe0C4Hj1IJaC9llIOu0bTrHK9slQ5NvOCdRO3T54Zp79P8RbO8CZh7R7JeRNG4vM83JyQk3QY6tbMh24C0f7a0OtCKvM71ROKDXlTYQ4fYwzYpvqRvNeiD6D5XijJMzg2fO0SzsNg855E3W4u4kSe5haJqGLcJ3FO6Qv4Dk2H3OvPZiyjaXGcw35x2XeTyMtBBnUprdZhMe_FiaVspdNuc-3COPcXs2bHm-hz1KWcIcaTBYsFm2XjC_tjcsS7RYQNW_2__hHY81ZNHdiBGul5aHl9CkgiaUA-pFYwwpBdYvJrbcgHMkIvhKXzXhSAAyD3QhciAznb3sjPvMKkXzK230Uq48B5kQGqo9umD6S_3wXra77RsESCvJfTecMkbT9ap4uLT2Hrk8DULnf23EWnkmwbLkv4erBWdpZEKCKFAI-4DRwsWfP4cb_BeEAtlkut6HqaJvDkejsQJ5KGGqNLv8nWjKrv6l3sYBoMK5ZlL1bYHH1DB4ug_MZ8YmDohT7xaVLae6FlUEcPOx1kEuQDhXSJp8gzt1vmVMuVOMc9044i_gY9rXLozU7JfRBkeSNXxm3zG1bYm1uGkScrZl6TfRXfek9g1vioE7Dls8M4t94sWguuzCC-I3OFK41DaflzRPDffyJGTHZkbDAodOT7i6OMxWP2vpfo9j1qVjVHHKFmElKqRP8GaqORWEdmlnWEMwKp4ZrflJrJoLBEdl1xNAwGTWHsTKYKB8Fbo76xn6z7BSif0CXGoJNAZsdPwRFOc9VfURr96eqDbQkAAn2s2jA_3wjMs-cv39gDHwBuTZBpgHbwFPeNJ5xn3XDiaodXcLGstV8nglXo9nFaG4VGT7I5uGknfbBWjkvU0EfTFMO7YHLa9qZf_iz7maa7jwS8cO9JCUhQbKHrkU9sxo42b9exDA-xBTUs4CaIC698xpggplDuQM4Rwi3G1yJ2XM3ul9wNUSMbRYet4ACNIjsbFwZLTwBLJP9LBkAAUesEph4jW4xW4bpNKuhnVrokhiHxkFnVYFLN83iOcrDhIiYSQF0kdAD6IrMCwMlTaHmFnkqUV7su6jMexu_y2]--></g></svg>