<?xml version="1.0" encoding="UTF-8" standalone="no"?><svg xmlns="http://www.w3.org/2000/svg" xmlns:xlink="http://www.w3.org/1999/xlink" contentStyleType="text/css" height="509px" preserveAspectRatio="none" style="width:2478px;height:509px;background:#FFFFFF;" version="1.1" viewBox="0 0 2478 509" width="2478px" zoomAndPan="magnify"><defs/><g><text fill="#000000" font-family="sans-serif" font-size="14" font-weight="bold" lengthAdjust="spacing" textLength="323" x="1070.5" y="22.9951">OCI Route Table Reconcile State Machine</text><ellipse cx="16" cy="187.2969" fill="#222222" rx="10" ry="10" style="stroke:none;stroke-width:1.0;"/><g id="Observe"><rect fill="#F8FAFC" height="50.2656" rx="6" ry="6" style="stroke:#475569;stroke-width:0.5;" width="329" x="86" y="162.2969"/><line style="stroke:#475569;stroke-width:0.5;" x1="86" x2="415" y1="188.5938" y2="188.5938"/><text fill="#0F172A" font-family="sans-serif" font-size="14" lengthAdjust="spacing" textLength="58" x="221.5" y="180.292">Observe</text><text fill="#0F172A" font-family="sans-serif" font-size="12" lengthAdjust="spacing" textLength="309" x="91" y="204.7324">read spec, status, delete intent, and OCI lifecycle</text></g><rect fill="#F8FAFC" height="40" rx="6" ry="6" style="stroke:#475569;stroke-width:0.5;" width="122" x="475" y="167.2969"/><text fill="#0F172A" font-family="sans-serif" font-size="14" lengthAdjust="spacing" textLength="112" x="480" y="192.1436">ResolveByName</text><rect fill="#F8FAFC" height="40" rx="6" ry="6" style="stroke:#475569;stroke-width:0.5;" width="130" x="657" y="167.2969"/><text fill="#0F172A" font-family="sans-serif" font-size="14" lengthAdjust="spacing" textLength="120" x="662" y="192.1436">PaginatedLookup</text><rect fill="#F8FAFC" height="40" rx="6" ry="6" style="stroke:#475569;stroke-width:0.5;" width="111" x="862" y="240.2969"/><text fill="#0F172A" font-family="sans-serif" font-size="14" lengthAdjust="spacing" textLength="101" x="867" y="265.1436">EvaluateReady</text><rect fill="#F8FAFC" height="40" rx="6" ry="6" style="stroke:#475569;stroke-width:0.5;" width="75" x="1299" y="88.2969"/><text fill="#0F172A" font-family="sans-serif" font-size="14" lengthAdjust="spacing" textLength="65" x="1304" y="113.1436">Retryable</text><rect fill="#F8FAFC" height="40" rx="6" ry="6" style="stroke:#475569;stroke-width:0.5;" width="50" x="1484.5" y="177.2969"/><text fill="#0F172A" font-family="sans-serif" font-size="14" lengthAdjust="spacing" textLength="40" x="1489.5" y="202.1436">Failed</text><rect fill="#F8FAFC" height="40" rx="6" ry="6" style="stroke:#475569;stroke-width:0.5;" width="173" x="1250" y="253.2969"/><text fill="#0F172A" font-family="sans-serif" font-size="14" lengthAdjust="spacing" textLength="163" x="1255" y="278.1436">RejectUnsupportedDrift</text><rect fill="#F8FAFC" height="40" rx="6" ry="6" style="stroke:#475569;stroke-width:0.5;" width="53" x="1483" y="353.2969"/><text fill="#0F172A" font-family="sans-serif" font-size="14" lengthAdjust="spacing" textLength="43" x="1488" y="378.1436">Ready</text><rect fill="#F8FAFC" height="40" rx="6" ry="6" style="stroke:#475569;stroke-width:0.5;" width="142" x="1048" y="312.2969"/><text fill="#0F172A" font-family="sans-serif" font-size="14" lengthAdjust="spacing" textLength="132" x="1053" y="337.1436">MoveCompartment</text><rect fill="#F8FAFC" height="40" rx="6" ry="6" style="stroke:#475569;stroke-width:0.5;" width="97" x="1288" y="353.2969"/><text fill="#0F172A" font-family="sans-serif" font-size="14" lengthAdjust="spacing" textLength="87" x="1293" y="378.1436">ApplyUpdate</text><rect fill="#F8FAFC" height="40" rx="6" ry="6" style="stroke:#475569;stroke-width:0.5;" width="141" x="847" y="423.2969"/><text fill="#0F172A" font-family="sans-serif" font-size="14" lengthAdjust="spacing" textLength="131" x="852" y="448.1436">CompareCollection</text><rect fill="#F8FAFC" height="40" rx="6" ry="6" style="stroke:#475569;stroke-width:0.5;" width="142" x="1048" y="387.2969"/><text fill="#0F172A" font-family="sans-serif" font-size="14" lengthAdjust="spacing" textLength="132" x="1053" y="412.1436">ResubmitWholeList</text><rect fill="#F8FAFC" height="40" rx="6" ry="6" style="stroke:#475569;stroke-width:0.5;" width="113" x="1754.5" y="175.2969"/><text fill="#0F172A" font-family="sans-serif" font-size="14" lengthAdjust="spacing" textLength="103" x="1759.5" y="200.1436">DeletePending</text><rect fill="#F8FAFC" height="40" rx="6" ry="6" style="stroke:#475569;stroke-width:0.5;" width="65" x="2246" y="122.2969"/><text fill="#0F172A" font-family="sans-serif" font-size="14" lengthAdjust="spacing" textLength="55" x="2251" y="147.1436">Deleted</text><g id="elem_GMN39"><path d="M1596,256.2969 L1596,369.2969 L1536.26,373.2969 L1596,377.2969 L1596,496.4219 A6,6 0 0 0 1602,502.4219 L2020,502.4219 A6,6 0 0 0 2026,496.4219 L2026,260.2969 L2016,250.2969 L1602,250.2969 A6,6 0 0 0 1596,256.2969 " fill="#FFF7ED" style="stroke:#181818;stroke-width:0.5;"/><path d="M2016,250.2969 L2016,257.2969 A3,3 0 0 0 2019,260.2969 L2026,260.2969 L2016,250.2969 " fill="#FFF7ED" style="stroke:#181818;stroke-width:0.5;"/><text fill="#0F172A" font-family="sans-serif" font-size="13" lengthAdjust="spacing" textLength="69" x="1602" y="267.3638">Archetype:</text><text fill="#0F172A" font-family="sans-serif" font-size="13" lengthAdjust="spacing" textLength="272" x="1602" y="282.4966">- resolved-drift-delete-paginated-collection</text><text fill="#0F172A" font-family="sans-serif" font-size="13" lengthAdjust="spacing" textLength="102" x="1602" y="297.6294">Update surface:</text><text fill="#0F172A" font-family="sans-serif" font-size="13" lengthAdjust="spacing" textLength="94" x="1602" y="312.7622">- display name</text><text fill="#0F172A" font-family="sans-serif" font-size="13" lengthAdjust="spacing" textLength="96" x="1602" y="327.895">- freeform tags</text><text fill="#0F172A" font-family="sans-serif" font-size="13" lengthAdjust="spacing" textLength="88" x="1602" y="343.0278">- defined tags</text><text fill="#0F172A" font-family="sans-serif" font-size="13" lengthAdjust="spacing" textLength="78" x="1602" y="358.1606">- route rules</text><text fill="#0F172A" font-family="sans-serif" font-size="13" lengthAdjust="spacing" textLength="139" x="1602" y="373.2935">Reject before mutate:</text><text fill="#0F172A" font-family="sans-serif" font-size="13" lengthAdjust="spacing" textLength="71" x="1602" y="388.4263">- vcnId drift</text><text fill="#0F172A" font-family="sans-serif" font-size="13" lengthAdjust="spacing" textLength="105" x="1602" y="403.5591">Boundary notes:</text><text fill="#0F172A" font-family="sans-serif" font-size="13" lengthAdjust="spacing" textLength="409" x="1602" y="418.6919">- Later-page name matches must keep using the resolved OCID</text><text fill="#0F172A" font-family="sans-serif" font-size="13" lengthAdjust="spacing" textLength="156" x="1618" y="433.8247">for later mutation paths.</text><text fill="#0F172A" font-family="sans-serif" font-size="13" lengthAdjust="spacing" textLength="358" x="1602" y="448.9575">- Partial OCI-side application of an already-submitted full</text><text fill="#0F172A" font-family="sans-serif" font-size="13" lengthAdjust="spacing" textLength="351" x="1618" y="464.0903">route-rule list remains outside the modeled guarantee.</text><text fill="#0F172A" font-family="sans-serif" font-size="13" lengthAdjust="spacing" textLength="166" x="1602" y="479.2231">Controller-local invariants:</text><text fill="#0F172A" font-family="sans-serif" font-size="13" lengthAdjust="spacing" textLength="229" x="1602" y="494.356">- StatusPresentUsesStatusInvariant</text></g><g id="elem_GMN42"><path d="M2086,203.7969 L2086,202.5469 L1867.86,206.5469 L2086,210.5469 L2086,292.5938 A6,6 0 0 0 2092,298.5938 L2465,298.5938 A6,6 0 0 0 2471,292.5938 L2471,207.7969 L2461,197.7969 L2092,197.7969 A6,6 0 0 0 2086,203.7969 " fill="#FFF7ED" style="stroke:#181818;stroke-width:0.5;"/><path d="M2461,197.7969 L2461,204.7969 A3,3 0 0 0 2464,207.7969 L2471,207.7969 L2461,197.7969 " fill="#FFF7ED" style="stroke:#181818;stroke-width:0.5;"/><text fill="#0F172A" font-family="sans-serif" font-size="13" lengthAdjust="spacing" textLength="90" x="2092" y="214.8638">Delete states:</text><text fill="#0F172A" font-family="sans-serif" font-size="13" lengthAdjust="spacing" textLength="102" x="2092" y="229.9966">- DeletePending</text><text fill="#0F172A" font-family="sans-serif" font-size="13" lengthAdjust="spacing" textLength="59" x="2092" y="245.1294">- Deleted</text><text fill="#0F172A" font-family="sans-serif" font-size="13" lengthAdjust="spacing" textLength="103" x="2092" y="260.2622">Delete workflow:</text><text fill="#0F172A" font-family="sans-serif" font-size="13" lengthAdjust="spacing" textLength="364" x="2092" y="275.395">- Confirm deletion with follow-up GetRouteTable calls until</text><text fill="#0F172A" font-family="sans-serif" font-size="13" lengthAdjust="spacing" textLength="217" x="2108" y="290.5278">the resource is gone or not found.</text></g><!--link *start to Observe--><g id="link_*start_Observe"><path d="M26.08,187.2969 C26.08,187.2969 80.84,187.2969 80.84,187.2969 " fill="none" id="*start-to-Observe" style="stroke:#181818;stroke-width:1.0;"/><polygon fill="#181818" points="85.84,187.2969,76.84,183.2969,80.84,187.2969,76.84,191.2969,85.84,187.2969" style="stroke:#181818;stroke-width:1.0;"/></g><!--link Observe to ResolveByName--><g id="link_Observe_ResolveByName"><path d="M415.34,187.2969 C415.34,187.2969 469.86,187.2969 469.86,187.2969 " fill="none" id="Observe-to-ResolveByName" style="stroke:#181818;stroke-width:1.0;"/><polygon fill="#181818" points="474.86,187.2969,465.86,183.2969,469.86,187.2969,465.86,191.2969,474.86,187.2969" style="stroke:#181818;stroke-width:1.0;"/><text fill="#000000" font-family="sans-serif" font-size="13" lengthAdjust="spacing" textLength="163" x="443.6" y="200.3638">status/spec OCID missing</text></g><!--link ResolveByName to PaginatedLookup--><g id="link_ResolveByName_PaginatedLookup"><path d="M597.16,187.2969 C597.16,187.2969 651.96,187.2969 651.96,187.2969 " fill="none" id="ResolveByName-to-PaginatedLookup" style="stroke:#181818;stroke-width:1.0;"/><polygon fill="#181818" points="656.96,187.2969,647.96,183.2969,651.96,187.2969,647.96,191.2969,656.96,187.2969" style="stroke:#181818;stroke-width:1.0;"/><text fill="#000000" font-family="sans-serif" font-size="13" lengthAdjust="spacing" textLength="219" x="625.56" y="200.3638">continue searching later list pages</text></g><!--link PaginatedLookup to EvaluateReady--><g id="link_PaginatedLookup_EvaluateReady"><path d="M787.27,199.7969 C844.28,199.7969 918,199.7969 918,199.7969 C918,199.7969 918,235.1469 918,235.1469 " fill="none" id="PaginatedLookup-to-EvaluateReady" style="stroke:#181818;stroke-width:1.0;"/><polygon fill="#181818" points="918,240.1469,922,231.1469,918,235.1469,914,231.1469,918,240.1469" style="stroke:#181818;stroke-width:1.0;"/><text fill="#000000" font-family="sans-serif" font-size="13" lengthAdjust="spacing" textLength="148" x="871.31" y="212.8638">OCI state in AVAILABLE</text></g><!--link PaginatedLookup to Retryable--><g id="link_PaginatedLookup_Retryable"><path d="M787.23,173.2969 C945.51,173.2969 1337,173.2969 1337,173.2969 C1337,173.2969 1337,133.5069 1337,133.5069 " fill="none" id="PaginatedLookup-to-Retryable" style="stroke:#181818;stroke-width:1.0;"/><polygon fill="#181818" points="1337,128.5069,1333,137.5069,1337,133.5069,1341,137.5069,1337,128.5069" style="stroke:#181818;stroke-width:1.0;"/><text fill="#000000" font-family="sans-serif" font-size="13" lengthAdjust="spacing" textLength="246" x="1083.01" y="186.3638">OCI state in PROVISIONING, UPDATING</text></g><!--link PaginatedLookup to Failed--><g id="link_PaginatedLookup_Failed"><path d="M787.11,192.2969 C787.11,192.2969 1479.42,192.2969 1479.42,192.2969 " fill="none" id="PaginatedLookup-to-Failed" style="stroke:#181818;stroke-width:1.0;"/><polygon fill="#181818" points="1484.42,192.2969,1475.4315,188.2712,1479.42,192.2826,1475.4086,196.2711,1484.42,192.2969" style="stroke:#181818;stroke-width:1.0;"/><text fill="#000000" font-family="sans-serif" font-size="13" lengthAdjust="spacing" textLength="188" x="1134.26" y="205.3638">OCI state in FAILED, DELETED</text></g><!--link EvaluateReady to RejectUnsupportedDrift--><g id="link_EvaluateReady_RejectUnsupportedDrift"><path d="M973.14,266.7969 C973.14,266.7969 1244.63,266.7969 1244.63,266.7969 " fill="none" id="EvaluateReady-to-RejectUnsupportedDrift" style="stroke:#181818;stroke-width:1.0;"/><polygon fill="#181818" points="1249.63,266.7969,1240.63,262.7969,1244.63,266.7969,1240.63,270.7969,1249.63,266.7969" style="stroke:#181818;stroke-width:1.0;"/><text fill="#000000" font-family="sans-serif" font-size="13" lengthAdjust="spacing" textLength="275" x="832.88" y="279.8638">unsupported or immutable drift is detected</text></g><!--link RejectUnsupportedDrift to Ready--><g id="link_RejectUnsupportedDrift_Ready"><path d="M1404,293.7169 C1404,320.2769 1404,363.2969 1404,363.2969 C1404,363.2969 1477.88,363.2969 1477.88,363.2969 " fill="none" id="RejectUnsupportedDrift-to-Ready" style="stroke:#181818;stroke-width:1.0;"/><polygon fill="#181818" points="1482.88,363.2969,1473.88,359.2969,1477.88,363.2969,1473.88,367.2969,1482.88,363.2969" style="stroke:#181818;stroke-width:1.0;"/><text fill="#000000" font-family="sans-serif" font-size="13" lengthAdjust="spacing" textLength="252" x="1153.15" y="359.3638">wait for the spec or live state to change</text></g><!--link EvaluateReady to MoveCompartment--><g id="link_EvaluateReady_MoveCompartment"><path d="M918,280.3569 C918,301.6569 918,332.2969 918,332.2969 C918,332.2969 1042.85,332.2969 1042.85,332.2969 " fill="none" id="EvaluateReady-to-MoveCompartment" style="stroke:#181818;stroke-width:1.0;"/><polygon fill="#181818" points="1047.85,332.2969,1038.85,328.2969,1042.85,332.2969,1038.85,336.2969,1047.85,332.2969" style="stroke:#181818;stroke-width:1.0;"/><text fill="#000000" font-family="sans-serif" font-size="13" lengthAdjust="spacing" textLength="158" x="795.45" y="345.3638">continue active reconcile</text></g><!--link MoveCompartment to ApplyUpdate--><g id="link_MoveCompartment_ApplyUpdate"><path d="M1190.08,332.2969 C1253.7,332.2969 1337,332.2969 1337,332.2969 C1337,332.2969 1337,348.2769 1337,348.2769 " fill="none" id="MoveCompartment-to-ApplyUpdate" style="stroke:#181818;stroke-width:1.0;"/><polygon fill="#181818" points="1337,353.2769,1341,344.2769,1337,348.2769,1333,344.2769,1337,353.2769" style="stroke:#181818;stroke-width:1.0;"/><text fill="#000000" font-family="sans-serif" font-size="13" lengthAdjust="spacing" textLength="221" x="1272.53" y="328.3638">continue after compartment move</text></g><!--link CompareCollection to ResubmitWholeList--><g id="link_CompareCollection_ResubmitWholeList"><path d="M981,422.9669 C981,413.9269 981,405.2969 981,405.2969 C981,405.2969 1042.98,405.2969 1042.98,405.2969 " fill="none" id="CompareCollection-to-ResubmitWholeList" style="stroke:#181818;stroke-width:1.0;"/><polygon fill="#181818" points="1047.98,405.2969,1038.98,401.2969,1042.98,405.2969,1038.98,409.2969,1047.98,405.2969" style="stroke:#181818;stroke-width:1.0;"/><text fill="#000000" font-family="sans-serif" font-size="13" lengthAdjust="spacing" textLength="187" x="815.16" y="418.3638">semantic collection diff exists</text></g><!--link CompareCollection to Ready--><g id="link_CompareCollection_Ready"><path d="M988.09,445.2969 C1145.2,445.2969 1510,445.2969 1510,445.2969 C1510,445.2969 1510,398.3569 1510,398.3569 " fill="none" id="CompareCollection-to-Ready" style="stroke:#181818;stroke-width:1.0;"/><polygon fill="#181818" points="1510,393.3569,1506,402.3569,1510,398.3569,1514,402.3569,1510,393.3569" style="stroke:#181818;stroke-width:1.0;"/><text fill="#000000" font-family="sans-serif" font-size="13" lengthAdjust="spacing" textLength="222" x="1049.52" y="458.3638">matching collection skips mutation</text></g><!--link ResubmitWholeList to ApplyUpdate--><g id="link_ResubmitWholeList_ApplyUpdate"><path d="M1190.08,415.9669 C1253.7,415.9669 1337,415.9669 1337,415.9669 C1337,415.9669 1337,398.6269 1337,398.6269 " fill="none" id="ResubmitWholeList-to-ApplyUpdate" style="stroke:#181818;stroke-width:1.0;"/><polygon fill="#181818" points="1337,393.6269,1333,402.6269,1337,398.6269,1341,402.6269,1337,393.6269" style="stroke:#181818;stroke-width:1.0;"/><text fill="#000000" font-family="sans-serif" font-size="13" lengthAdjust="spacing" textLength="229" x="1042.21" y="429.0338">full desired collection is resubmitted</text></g><!--link ApplyUpdate to Ready--><g id="link_ApplyUpdate_Ready"><path d="M1385.15,373.2969 C1385.15,373.2969 1477.67,373.2969 1477.67,373.2969 " fill="none" id="ApplyUpdate-to-Ready" style="stroke:#181818;stroke-width:1.0;"/><polygon fill="#181818" points="1482.67,373.2969,1473.67,369.2969,1477.67,373.2969,1473.67,377.2969,1482.67,373.2969" style="stroke:#181818;stroke-width:1.0;"/><text fill="#000000" font-family="sans-serif" font-size="13" lengthAdjust="spacing" textLength="231" x="1199.41" y="386.3638">supported mutation path completes</text></g><!--link Ready to Ready--><g id="link_Ready_Ready"><path d="M1482.84,383.2969 C1464.33,383.2969 1443,383.2969 1443,383.2969 C1443,383.2969 1443,404.6269 1443,404.6269 C1443,404.6269 1551,404.6269 1551,404.6269 C1551,404.6269 1551,383.2969 1551,383.2969 C1551,383.2969 1541.02,383.2969 1541.02,383.2969 " fill="none" id="Ready-to-Ready" style="stroke:#181818;stroke-width:1.0;"/><polygon fill="#181818" points="1536.02,383.2969,1545.02,387.2969,1541.02,383.2969,1545.02,379.2969,1536.02,383.2969" style="stroke:#181818;stroke-width:1.0;"/><text fill="#000000" font-family="sans-serif" font-size="13" lengthAdjust="spacing" textLength="170" x="1306.07" y="422.6938">no supported drift remains</text></g><!--link Retryable to Retryable--><g id="link_Retryable_Retryable"><path d="M1298.95,108.2969 C1286.15,108.2969 1275,108.2969 1275,108.2969 C1275,108.2969 1275,70.2969 1275,70.2969 C1275,70.2969 1399,70.2969 1399,70.2969 C1399,70.2969 1399,99.6269 1399,99.6269 C1399,99.6269 1379.3,99.6269 1379.3,99.6269 " fill="none" id="Retryable-to-Retryable" style="stroke:#181818;stroke-width:1.0;"/><polygon fill="#181818" points="1374.3,99.6269,1383.3,103.6269,1379.3,99.6269,1383.3,95.6269,1374.3,99.6269" style="stroke:#181818;stroke-width:1.0;"/><text fill="#000000" font-family="sans-serif" font-size="13" lengthAdjust="spacing" textLength="159" x="1165.54" y="61.3638">OCI remains nonterminal</text></g><!--link Failed to Failed--><g id="link_Failed_Failed"><path d="M1484.34,184.7969 C1473.39,184.7969 1463,184.7969 1463,184.7969 C1463,184.7969 1463,169.2969 1463,169.2969 C1463,169.2969 1566,169.2969 1566,169.2969 C1566,169.2969 1566,186.7969 1566,186.7969 C1566,186.7969 1539.78,186.7969 1539.78,186.7969 " fill="none" id="Failed-to-Failed" style="stroke:#181818;stroke-width:1.0;"/><polygon fill="#181818" points="1534.78,186.7969,1543.78,190.7969,1539.78,186.7969,1543.78,182.7969,1534.78,186.7969" style="stroke:#181818;stroke-width:1.0;"/><text fill="#000000" font-family="sans-serif" font-size="13" lengthAdjust="spacing" textLength="135" x="1376.94" y="160.3638">OCI remains terminal</text></g><!--link Ready to DeletePending--><g id="link_Ready_DeletePending"><path d="M1536.12,363.2969 C1556.45,363.2969 1581,363.2969 1581,363.2969 C1581,363.2969 1581,205.7969 1581,205.7969 C1581,205.7969 1749.44,205.7969 1749.44,205.7969 " fill="none" id="Ready-to-DeletePending" style="stroke:#181818;stroke-width:1.0;"/><polygon fill="#181818" points="1754.44,205.7969,1745.44,201.7969,1749.44,205.7969,1745.44,209.7969,1754.44,205.7969" style="stroke:#181818;stroke-width:1.0;"/><text fill="#000000" font-family="sans-serif" font-size="13" lengthAdjust="spacing" textLength="109" x="1471" y="235.8338">delete requested</text></g><!--link Retryable to DeletePending--><g id="link_Retryable_DeletePending"><path d="M1374.13,110.9669 C1486.36,110.9669 1811,110.9669 1811,110.9669 C1811,110.9669 1811,169.8869 1811,169.8869 " fill="none" id="Retryable-to-DeletePending" style="stroke:#181818;stroke-width:1.0;"/><polygon fill="#181818" points="1811,174.8869,1815,165.8869,1811,169.8869,1807,165.8869,1811,174.8869" style="stroke:#181818;stroke-width:1.0;"/><text fill="#000000" font-family="sans-serif" font-size="13" lengthAdjust="spacing" textLength="109" x="1512.02" y="124.0338">delete requested</text></g><!--link Failed to DeletePending--><g id="link_Failed_DeletePending"><path d="M1534.69,196.2969 C1534.69,196.2969 1749.4,196.2969 1749.4,196.2969 " fill="none" id="Failed-to-DeletePending" style="stroke:#181818;stroke-width:1.0;"/><polygon fill="#181818" points="1754.4,196.2969,1745.4,192.2969,1749.4,196.2969,1745.4,200.2969,1754.4,196.2969" style="stroke:#181818;stroke-width:1.0;"/><text fill="#000000" font-family="sans-serif" font-size="13" lengthAdjust="spacing" textLength="109" x="1643.04" y="209.3638">delete requested</text></g><!--link DeletePending to Deleted--><g id="link_DeletePending_Deleted"><path d="M1867.92,186.5469 C1992.64,186.5469 2279,186.5469 2279,186.5469 C2279,186.5469 2279,167.3469 2279,167.3469 " fill="none" id="DeletePending-to-Deleted" style="stroke:#181818;stroke-width:1.0;"/><polygon fill="#181818" points="2279,162.3469,2275,171.3469,2279,167.3469,2283,171.3469,2279,162.3469" style="stroke:#181818;stroke-width:1.0;"/><text fill="#000000" font-family="sans-serif" font-size="13" lengthAdjust="spacing" textLength="373" x="2084.06" y="186.8638">OCI deletion is confirmed and the finalizer can be removed</text></g><!--link Deleted to Deleted--><g id="link_Deleted_Deleted"><path d="M2245.96,145.2969 C2212.73,145.2969 2166,145.2969 2166,145.2969 C2166,145.2969 2166,171.2969 2166,171.2969 C2166,171.2969 2391,171.2969 2391,171.2969 C2391,171.2969 2391,142.2969 2391,142.2969 C2391,142.2969 2316.04,142.2969 2316.04,142.2969 " fill="none" id="Deleted-to-Deleted" style="stroke:#181818;stroke-width:1.0;"/><polygon fill="#181818" points="2311.04,142.2969,2320.04,146.2969,2316.04,142.2969,2320.04,138.2969,2311.04,142.2969" style="stroke:#181818;stroke-width:1.0;"/><text fill="#000000" font-family="sans-serif" font-size="13" lengthAdjust="spacing" textLength="100" x="2171.5" y="162.3638">terminal stutter</text></g><!--SRC=[XLRVRzis47xNNt70tWOhQxjcMVCmm8xjme2R64xIFGnxOCIJp8KYDPAowmxzttT7Ih7ikAXVB95tt_twxav11OrmTxE0jMq3meDuelSr5jOKYfxkWw3JJwBOA8EPnZ90iE1KjGaWbSCYA6koZP88M3TX3n9zuLGJZ_spCermeWQ_4TBkbAcW5DhZu4OJRjWt2DQ5ZHrSEDiQMLXdqC7RTuEBYIYUgtXxOxLryDCy_WOI4alHwl20Ny9OgyhKQ0AmxqEFOc3_PG0JwoIw3klzrUNbRn_eT6vDwCxUpDzUlHkpv2lBly_7yvlism3Ns7Ema_UNlxxvS1PYFh-QJSyQ_9RzzVFVaET_mDsJHxV5hFk7Qt0e9FW6Yr6CfFKZYbeZsLOcKBWZ44R6kcfLOh4lz46R4TVehTxYP7yhQiPB8Bym8cjDeLRUKxsoOq5MNObA6KgUN5hxt3QaJ6G9ohG87eLZfbIWIS2HRH-W4HNwx5IBaMPReLiwMrCmUy9XTrDTb87nv_5YEPuiPsTLrnZSFdBrH6srllkyk5_StIvkFuxWSJKTFz3JMOov88RBKu0vcPrDHp2TBMSFL9bZ9vFjVuZtZyQtJKEiHJbrYlhY6jh34T4PL5st8Veeeu3oLAD0gYYpxs0a-9IDdL01Ii896uobPaojg839L-h3OYDCXMTS_6ItU6DhecI8v1_KI53B4eRhMpmxbMNzSTFe_MCZsSvGj-Ig5WFXcfIpf4qWMgU1q5EiVQfL-7DZDIwP2KGph0LX5OJn8YjLMG9-8G7_NQIKaLg4nAw1DdLUuu4J7KVEQwElmobRhNbEqVYIGoYgZ-lKkKH3fQ4NXnhtLedYOHFJmXteio5Laewn0xN41aUfK8Q5UoQVutKdHG3Krguc3kkiu-qh2lUoBu87FwPnDgpGI4xVTJyh7FxReazy77hnG_612p-KFHOugFHkHuKk_yIqKhcQxdXyCV5BZaHzPTe90qyCp9phOUK9O1yxzKXBLNHP5WToMbYsJ0N9nZIbujQvpdAkEKyucSUwvCd_lEa7HdvWIDQnmRUk54LKbietMkp1q7Iarz8XKilM44Jb-Hh9VtAiUtLnnxfMHvBm1A28I1uJbIBYjZ2BZYFPX1U5SFkuLJpVBdckidCOJQQMG6u0elepOWCjZ-sOkZwmED1fmq2S9cao7r7NNn3oYbfQKU98EFUypmNnNnL9YZ97sHUQryu-V-cHs4eHEKQMSsHfwFTSfEC8nlxKbdCheMffKnATyOBwtGJ7-NMvjWLPLsOhdABR6Erzt4eh2eHcpQD7dmuMlL16f8gvEItp4USwggIn6N6Fh_ltdbEmi-wvr7R7eZU9aGUMxXJrUaa-srrEY-GZXlZbb3wSA0JjQGy4bTBIbw5r1JA_AsluIuTz9WmgxiKXXFy1]--></g></svg>