<?xml version="1.0" encoding="UTF-8" standalone="no"?><svg xmlns="http://www.w3.org/2000/svg" xmlns:xlink="http://www.w3.org/1999/xlink" contentStyleType="text/css" height="1548px" preserveAspectRatio="none" style="width:1940px;height:1548px;background:#FFFFFF;" version="1.1" viewBox="0 0 1940 1548" width="1940px" zoomAndPan="magnify"><defs/><g><text fill="#000000" font-family="sans-serif" font-size="14" font-weight="bold" lengthAdjust="spacing" textLength="321" x="808" y="32.9951">Object Storage Bucket Reconcile Activity</text><ellipse cx="755.5" cy="57.2969" fill="#0F766E" rx="10" ry="10" style="stroke:#222222;stroke-width:1.0;"/><rect fill="none" height="244.1719" style="stroke:#000000;stroke-width:1.5;" width="529" x="491" y="77.2969"/><path d="M624,77.2969 L624,86.5938 L614,96.5938 L491,96.5938 " fill="none" style="stroke:#000000;stroke-width:1.5;"/><text fill="#000000" font-family="sans-serif" font-size="14" lengthAdjust="spacing" textLength="123" x="494" y="91.292">Observe and Bind</text><rect fill="#F8FAFC" height="33.9688" rx="12.5" ry="12.5" style="stroke:#475569;stroke-width:0.5;" width="304" x="603.5" y="113.5938"/><text fill="#0F172A" font-family="sans-serif" font-size="12" lengthAdjust="spacing" textLength="284" x="613.5" y="134.7324">Read CR spec, status OCID, and delete intent</text><rect fill="#F8FAFC" height="33.9688" rx="12.5" ry="12.5" style="stroke:#475569;stroke-width:0.5;" width="352" x="579.5" y="167.5625"/><text fill="#0F172A" font-family="sans-serif" font-size="12" lengthAdjust="spacing" textLength="332" x="589.5" y="188.7012">Bind the OCI resource through explicit identifiers only</text><rect fill="#F8FAFC" height="33.9688" rx="12.5" ry="12.5" style="stroke:#475569;stroke-width:0.5;" width="509" x="501" y="221.5313"/><text fill="#0F172A" font-family="sans-serif" font-size="12" lengthAdjust="spacing" textLength="489" x="511" y="242.6699">Resolve and persist the Object Storage namespace before mutation or delete</text><rect fill="#F8FAFC" height="33.9688" rx="12.5" ry="12.5" style="stroke:#475569;stroke-width:0.5;" width="426" x="542.5" y="275.5"/><text fill="#0F172A" font-family="sans-serif" font-size="12" lengthAdjust="spacing" textLength="406" x="552.5" y="296.6387">Validate the composite bucket identifier before delete or update</text><path d="M1511,756.1719 L1511,1174.7578 L1928,1174.7578 L1928,766.1719 L1918,756.1719 L1511,756.1719 " fill="#FEFFDD" style="stroke:#181818;stroke-width:0.5;"/><path d="M1918,756.1719 L1918,766.1719 L1928,766.1719 L1918,756.1719 " fill="#FEFFDD" style="stroke:#181818;stroke-width:0.5;"/><text fill="#000000" font-family="sans-serif" font-size="13" lengthAdjust="spacing" textLength="69" x="1517" y="773.2388">Archetype:</text><text fill="#000000" font-family="sans-serif" font-size="13" lengthAdjust="spacing" textLength="182" x="1517" y="788.3716">- bindonly-drift-delete-secret</text><text fill="#000000" font-family="sans-serif" font-size="13" lengthAdjust="spacing" textLength="134" x="1517" y="803.5044">Retryable OCI states:</text><text fill="#000000" font-family="sans-serif" font-size="13" lengthAdjust="spacing" textLength="73" x="1517" y="818.6372">- CREATING</text><text fill="#000000" font-family="sans-serif" font-size="13" lengthAdjust="spacing" textLength="76" x="1517" y="833.77">- UPDATING</text><text fill="#000000" font-family="sans-serif" font-size="13" lengthAdjust="spacing" textLength="83" x="1517" y="848.9028">- RESOLVING</text><text fill="#000000" font-family="sans-serif" font-size="13" lengthAdjust="spacing" textLength="113" x="1517" y="864.0356">Active OCI states:</text><text fill="#000000" font-family="sans-serif" font-size="13" lengthAdjust="spacing" textLength="51" x="1517" y="879.1685">- READY</text><text fill="#000000" font-family="sans-serif" font-size="13" lengthAdjust="spacing" textLength="111" x="1517" y="894.3013">Failed OCI states:</text><text fill="#000000" font-family="sans-serif" font-size="13" lengthAdjust="spacing" textLength="53" x="1517" y="909.4341">- FAILED</text><text fill="#000000" font-family="sans-serif" font-size="13" lengthAdjust="spacing" textLength="67" x="1517" y="924.5669">- DELETED</text><text fill="#000000" font-family="sans-serif" font-size="13" lengthAdjust="spacing" textLength="102" x="1517" y="939.6997">Update surface:</text><text fill="#000000" font-family="sans-serif" font-size="13" lengthAdjust="spacing" textLength="108" x="1517" y="954.8325">- compartmentId</text><text fill="#000000" font-family="sans-serif" font-size="13" lengthAdjust="spacing" textLength="84" x="1517" y="969.9653">- AccessType</text><text fill="#000000" font-family="sans-serif" font-size="13" lengthAdjust="spacing" textLength="76" x="1517" y="985.0981">- Versioning</text><text fill="#000000" font-family="sans-serif" font-size="13" lengthAdjust="spacing" textLength="96" x="1517" y="1000.231">- freeform tags</text><text fill="#000000" font-family="sans-serif" font-size="13" lengthAdjust="spacing" textLength="88" x="1517" y="1015.3638">- defined tags</text><text fill="#000000" font-family="sans-serif" font-size="13" lengthAdjust="spacing" textLength="139" x="1517" y="1030.4966">Reject before mutate:</text><text fill="#000000" font-family="sans-serif" font-size="13" lengthAdjust="spacing" textLength="75" x="1517" y="1045.6294">- name drift</text><text fill="#000000" font-family="sans-serif" font-size="13" lengthAdjust="spacing" textLength="113" x="1517" y="1060.7622">- namespace drift</text><text fill="#000000" font-family="sans-serif" font-size="13" lengthAdjust="spacing" textLength="117" x="1517" y="1075.895">- storageType drift</text><text fill="#000000" font-family="sans-serif" font-size="13" lengthAdjust="spacing" textLength="256" x="1517" y="1091.0278">- malformed composite bucket identifier</text><text fill="#000000" font-family="sans-serif" font-size="13" lengthAdjust="spacing" textLength="105" x="1517" y="1106.1606">Boundary notes:</text><text fill="#000000" font-family="sans-serif" font-size="13" lengthAdjust="spacing" textLength="396" x="1517" y="1121.2935">- The modeled update surface excludes storage tier and other</text><text fill="#000000" font-family="sans-serif" font-size="13" lengthAdjust="spacing" textLength="198" x="1533" y="1136.4263">unreconciled bucket attributes.</text><text fill="#000000" font-family="sans-serif" font-size="13" lengthAdjust="spacing" textLength="364" x="1517" y="1151.5591">- Missing Secrets still allow completion, but Secret-delete</text><text fill="#000000" font-family="sans-serif" font-size="13" lengthAdjust="spacing" textLength="196" x="1533" y="1166.6919">failures block finalizer removal.</text><polygon fill="#E2E8F0" points="698.5,341.4688,812.5,341.4688,824.5,353.4688,812.5,365.4688,698.5,365.4688,686.5,353.4688,698.5,341.4688" style="stroke:#475569;stroke-width:0.5;"/><text fill="#0F172A" font-family="sans-serif" font-size="11" lengthAdjust="spacing" textLength="114" x="698.5" y="357.2769">"Delete requested?"</text><text fill="#000000" font-family="sans-serif" font-size="11" lengthAdjust="spacing" textLength="20" x="666.5" y="350.8745">yes</text><text fill="#000000" font-family="sans-serif" font-size="11" lengthAdjust="spacing" textLength="14" x="824.5" y="350.8745">no</text><rect fill="none" height="348.3047" style="stroke:#000000;stroke-width:1.5;" width="763" x="11" y="375.4688"/><path d="M67,375.4688 L67,384.7656 L57,394.7656 L11,394.7656 " fill="none" style="stroke:#000000;stroke-width:1.5;"/><text fill="#000000" font-family="sans-serif" font-size="14" lengthAdjust="spacing" textLength="46" x="14" y="389.4639">Delete</text><rect fill="#F8FAFC" height="33.9688" rx="12.5" ry="12.5" style="stroke:#475569;stroke-width:0.5;" width="297" x="231.25" y="411.7656"/><text fill="#0F172A" font-family="sans-serif" font-size="12" lengthAdjust="spacing" textLength="277" x="241.25" y="432.9043">Submit OCI delete for Object Storage Bucket</text><rect fill="#F8FAFC" height="33.9688" rx="12.5" ry="12.5" style="stroke:#475569;stroke-width:0.5;" width="640" x="59.75" y="480.7344"/><text fill="#0F172A" font-family="sans-serif" font-size="12" lengthAdjust="spacing" textLength="620" x="69.75" y="501.873">Confirm bucket disappearance with follow-up GetBucket calls until the bucket is gone or not found.</text><rect fill="#F8FAFC" height="33.9688" rx="12.5" ry="12.5" style="stroke:#475569;stroke-width:0.5;" width="470" x="144.75" y="549.7031"/><text fill="#0F172A" font-family="sans-serif" font-size="12" lengthAdjust="spacing" textLength="450" x="154.75" y="570.8418">Delete the owned connection Secret after bucket deletion is confirmed.</text><polygon fill="#E2E8F0" points="278.75,605.8047,480.75,605.8047,492.75,617.8047,480.75,629.8047,278.75,629.8047,266.75,617.8047,278.75,605.8047" style="stroke:#475569;stroke-width:0.5;"/><text fill="#0F172A" font-family="sans-serif" font-size="11" lengthAdjust="spacing" textLength="202" x="278.75" y="621.6128">"Owned Secret cleanup succeeds?"</text><text fill="#000000" font-family="sans-serif" font-size="11" lengthAdjust="spacing" textLength="20" x="246.75" y="615.2104">yes</text><text fill="#000000" font-family="sans-serif" font-size="11" lengthAdjust="spacing" textLength="14" x="492.75" y="615.2104">no</text><rect fill="#F8FAFC" height="33.9688" rx="12.5" ry="12.5" style="stroke:#475569;stroke-width:0.5;" width="338" x="23" y="639.8047"/><text fill="#0F172A" font-family="sans-serif" font-size="12" lengthAdjust="spacing" textLength="318" x="33" y="660.9434">Remove the finalizer after OCI deletion is confirmed</text><rect fill="#F8FAFC" height="33.9688" rx="12.5" ry="12.5" style="stroke:#475569;stroke-width:0.5;" width="373" x="381" y="639.8047"/><text fill="#0F172A" font-family="sans-serif" font-size="12" lengthAdjust="spacing" textLength="353" x="391" y="660.9434">Stay blocked until Secret cleanup succeeds or is absent</text><polygon fill="#E2E8F0" points="379.75,679.7734,391.75,691.7734,379.75,703.7734,367.75,691.7734,379.75,679.7734" style="stroke:#475569;stroke-width:0.5;"/><ellipse cx="379.75" cy="769.7734" fill="none" rx="11" ry="11" style="stroke:#222222;stroke-width:1.0;"/><ellipse cx="379.75" cy="769.7734" fill="#222222" rx="6" ry="6" style="stroke:#111111;stroke-width:1.0;"/><rect fill="none" height="417.9766" style="stroke:#000000;stroke-width:1.5;" width="376" x="949.25" y="375.4688"/><path d="M1110.25,375.4688 L1110.25,384.7656 L1100.25,394.7656 L949.25,394.7656 " fill="none" style="stroke:#000000;stroke-width:1.5;"/><text fill="#000000" font-family="sans-serif" font-size="14" lengthAdjust="spacing" textLength="151" x="952.25" y="389.4639">Lifecycle Classification</text><rect fill="#F8FAFC" height="33.9688" rx="12.5" ry="12.5" style="stroke:#475569;stroke-width:0.5;" width="268" x="997.25" y="460.168"/><text fill="#0F172A" font-family="sans-serif" font-size="12" lengthAdjust="spacing" textLength="248" x="1007.25" y="481.3066">Request requeue and keep the finalizer</text><ellipse cx="1131.25" cy="540.1367" fill="none" rx="11" ry="11" style="stroke:#222222;stroke-width:1.0;"/><ellipse cx="1131.25" cy="540.1367" fill="#222222" rx="6" ry="6" style="stroke:#111111;stroke-width:1.0;"/><polygon fill="#E2E8F0" points="1051.25,411.7656,1211.25,411.7656,1223.25,423.7656,1211.25,435.7656,1051.25,435.7656,1039.25,423.7656,1051.25,411.7656" style="stroke:#475569;stroke-width:0.5;"/><text fill="#000000" font-family="sans-serif" font-size="11" lengthAdjust="spacing" textLength="20" x="1135.25" y="445.9761">yes</text><text fill="#0F172A" font-family="sans-serif" font-size="11" lengthAdjust="spacing" textLength="160" x="1051.25" y="427.5737">"OCI state in retryable set?"</text><rect fill="#F8FAFC" height="33.9688" rx="12.5" ry="12.5" style="stroke:#475569;stroke-width:0.5;" width="324" x="969.25" y="652.0742"/><text fill="#0F172A" font-family="sans-serif" font-size="12" lengthAdjust="spacing" textLength="304" x="979.25" y="673.2129">Return an unsuccessful terminal reconcile result</text><ellipse cx="1131.25" cy="732.043" fill="none" rx="11" ry="11" style="stroke:#222222;stroke-width:1.0;"/><ellipse cx="1131.25" cy="732.043" fill="#222222" rx="6" ry="6" style="stroke:#111111;stroke-width:1.0;"/><polygon fill="#E2E8F0" points="1061.25,603.6719,1201.25,603.6719,1213.25,615.6719,1201.25,627.6719,1061.25,627.6719,1049.25,615.6719,1061.25,603.6719" style="stroke:#475569;stroke-width:0.5;"/><text fill="#000000" font-family="sans-serif" font-size="11" lengthAdjust="spacing" textLength="20" x="1135.25" y="637.8823">yes</text><text fill="#0F172A" font-family="sans-serif" font-size="11" lengthAdjust="spacing" textLength="140" x="1061.25" y="619.48">"OCI state in failed set?"</text><rect fill="none" height="702.1875" style="stroke:#000000;stroke-width:1.5;" width="707" x="794" y="828.4453"/><path d="M973,828.4453 L973,837.7422 L963,847.7422 L794,847.7422 " fill="none" style="stroke:#000000;stroke-width:1.5;"/><text fill="#000000" font-family="sans-serif" font-size="14" lengthAdjust="spacing" textLength="169" x="797" y="842.4404">Ready and Drift Handling</text><rect fill="#F8FAFC" height="33.9688" rx="12.5" ry="12.5" style="stroke:#475569;stroke-width:0.5;" width="364" x="949.25" y="864.7422"/><text fill="#0F172A" font-family="sans-serif" font-size="12" lengthAdjust="spacing" textLength="344" x="959.25" y="885.8809">Compare live OCI state with the supported drift surface</text><rect fill="#F8FAFC" height="33.9688" rx="12.5" ry="12.5" style="stroke:#475569;stroke-width:0.5;" width="290" x="986.25" y="982.1133"/><text fill="#0F172A" font-family="sans-serif" font-size="12" lengthAdjust="spacing" textLength="270" x="996.25" y="1003.252">Reject the change before any OCI mutation</text><ellipse cx="1131.25" cy="1062.082" fill="none" rx="11" ry="11" style="stroke:#222222;stroke-width:1.0;"/><ellipse cx="1131.25" cy="1062.082" fill="#222222" rx="6" ry="6" style="stroke:#111111;stroke-width:1.0;"/><polygon fill="#E2E8F0" points="1006.75,933.7109,1255.75,933.7109,1267.75,945.7109,1255.75,957.7109,1006.75,957.7109,994.75,945.7109,1006.75,933.7109" style="stroke:#475569;stroke-width:0.5;"/><text fill="#000000" font-family="sans-serif" font-size="11" lengthAdjust="spacing" textLength="20" x="1135.25" y="967.9214">yes</text><text fill="#0F172A" font-family="sans-serif" font-size="11" lengthAdjust="spacing" textLength="249" x="1006.75" y="949.519">"Unsupported or immutable drift detected?"</text><rect fill="#F8FAFC" height="33.9688" rx="12.5" ry="12.5" style="stroke:#475569;stroke-width:0.5;" width="451" x="905.75" y="1138.4844"/><text fill="#0F172A" font-family="sans-serif" font-size="12" lengthAdjust="spacing" textLength="431" x="915.75" y="1159.623">Resolve and persist the bucket namespace before update or delete.</text><rect fill="#F8FAFC" height="33.9688" rx="12.5" ry="12.5" style="stroke:#475569;stroke-width:0.5;" width="430" x="916.25" y="1194.7578"/><text fill="#0F172A" font-family="sans-serif" font-size="12" lengthAdjust="spacing" textLength="410" x="926.25" y="1215.8965">Validate the composite bucket identifier before any OCI mutation.</text><rect fill="#F8FAFC" height="33.9688" rx="12.5" ry="12.5" style="stroke:#475569;stroke-width:0.5;" width="451" x="905.75" y="1248.7266"/><text fill="#0F172A" font-family="sans-serif" font-size="12" lengthAdjust="spacing" textLength="431" x="915.75" y="1269.8652">Diff only the modeled bucket attributes before calling UpdateBucket.</text><polygon fill="#E2E8F0" points="1053.75,1302.6953,1208.75,1302.6953,1220.75,1314.6953,1208.75,1326.6953,1053.75,1326.6953,1041.75,1314.6953,1053.75,1302.6953" style="stroke:#475569;stroke-width:0.5;"/><text fill="#0F172A" font-family="sans-serif" font-size="11" lengthAdjust="spacing" textLength="155" x="1053.75" y="1318.5034">"Supported drift detected?"</text><text fill="#000000" font-family="sans-serif" font-size="11" lengthAdjust="spacing" textLength="20" x="1021.75" y="1312.1011">yes</text><text fill="#000000" font-family="sans-serif" font-size="11" lengthAdjust="spacing" textLength="14" x="1220.75" y="1312.1011">no</text><rect fill="#F8FAFC" height="33.9688" rx="12.5" ry="12.5" style="stroke:#475569;stroke-width:0.5;" width="329" x="823.5" y="1336.6953"/><text fill="#0F172A" font-family="sans-serif" font-size="12" lengthAdjust="spacing" textLength="309" x="833.5" y="1357.834">Apply only the supported in-place update surface</text><rect fill="#F8FAFC" height="33.9688" rx="12.5" ry="12.5" style="stroke:#475569;stroke-width:0.5;" width="204" x="1172.5" y="1336.6953"/><text fill="#0F172A" font-family="sans-serif" font-size="12" lengthAdjust="spacing" textLength="184" x="1182.5" y="1357.834">Skip the no-op mutation path</text><polygon fill="#E2E8F0" points="1131.25,1376.6641,1143.25,1388.6641,1131.25,1400.6641,1119.25,1388.6641,1131.25,1376.6641" style="stroke:#475569;stroke-width:0.5;"/><polygon fill="#E2E8F0" points="1060.75,1420.6641,1201.75,1420.6641,1213.75,1432.6641,1201.75,1444.6641,1060.75,1444.6641,1048.75,1432.6641,1060.75,1420.6641" style="stroke:#475569;stroke-width:0.5;"/><text fill="#0F172A" font-family="sans-serif" font-size="11" lengthAdjust="spacing" textLength="141" x="1060.75" y="1436.4722">"Secret sync succeeds?"</text><text fill="#000000" font-family="sans-serif" font-size="11" lengthAdjust="spacing" textLength="20" x="1028.75" y="1430.0698">yes</text><text fill="#000000" font-family="sans-serif" font-size="11" lengthAdjust="spacing" textLength="14" x="1213.75" y="1430.0698">no</text><rect fill="#F8FAFC" height="33.9688" rx="12.5" ry="12.5" style="stroke:#475569;stroke-width:0.5;" width="287" x="814" y="1454.6641"/><text fill="#0F172A" font-family="sans-serif" font-size="12" lengthAdjust="spacing" textLength="267" x="824" y="1475.8027">Return success for the usable active state</text><rect fill="#F8FAFC" height="33.9688" rx="12.5" ry="12.5" style="stroke:#475569;stroke-width:0.5;" width="368" x="1121" y="1454.6641"/><text fill="#0F172A" font-family="sans-serif" font-size="12" lengthAdjust="spacing" textLength="348" x="1131" y="1475.8027">Block successful completion until Secret sync succeeds</text><polygon fill="#E2E8F0" points="1131.25,1494.6328,1143.25,1506.6328,1131.25,1518.6328,1119.25,1506.6328,1131.25,1494.6328" style="stroke:#475569;stroke-width:0.5;"/><line style="stroke:#334155;stroke-width:1.0;" x1="755.5" x2="755.5" y1="147.5625" y2="167.5625"/><polygon fill="#334155" points="751.5,157.5625,755.5,167.5625,759.5,157.5625,755.5,161.5625" style="stroke:#334155;stroke-width:1.0;"/><line style="stroke:#334155;stroke-width:1.0;" x1="755.5" x2="755.5" y1="201.5313" y2="221.5313"/><polygon fill="#334155" points="751.5,211.5313,755.5,221.5313,759.5,211.5313,755.5,215.5313" style="stroke:#334155;stroke-width:1.0;"/><line style="stroke:#334155;stroke-width:1.0;" x1="755.5" x2="755.5" y1="255.5" y2="275.5"/><polygon fill="#334155" points="751.5,265.5,755.5,275.5,759.5,265.5,755.5,269.5" style="stroke:#334155;stroke-width:1.0;"/><line style="stroke:#334155;stroke-width:1.0;" x1="755.5" x2="755.5" y1="67.2969" y2="113.5938"/><polygon fill="#334155" points="751.5,103.5938,755.5,113.5938,759.5,103.5938,755.5,107.5938" style="stroke:#334155;stroke-width:1.0;"/><line style="stroke:#334155;stroke-width:1.0;" x1="379.75" x2="379.75" y1="445.7344" y2="480.7344"/><polygon fill="#334155" points="375.75,470.7344,379.75,480.7344,383.75,470.7344,379.75,474.7344" style="stroke:#334155;stroke-width:1.0;"/><line style="stroke:#334155;stroke-width:1.0;" x1="379.75" x2="379.75" y1="514.7031" y2="549.7031"/><polygon fill="#334155" points="375.75,539.7031,379.75,549.7031,383.75,539.7031,379.75,543.7031" style="stroke:#334155;stroke-width:1.0;"/><line style="stroke:#334155;stroke-width:1.0;" x1="266.75" x2="192" y1="617.8047" y2="617.8047"/><line style="stroke:#334155;stroke-width:1.0;" x1="192" x2="192" y1="617.8047" y2="639.8047"/><polygon fill="#334155" points="188,629.8047,192,639.8047,196,629.8047,192,633.8047" style="stroke:#334155;stroke-width:1.0;"/><line style="stroke:#334155;stroke-width:1.0;" x1="492.75" x2="567.5" y1="617.8047" y2="617.8047"/><line style="stroke:#334155;stroke-width:1.0;" x1="567.5" x2="567.5" y1="617.8047" y2="639.8047"/><polygon fill="#334155" points="563.5,629.8047,567.5,639.8047,571.5,629.8047,567.5,633.8047" style="stroke:#334155;stroke-width:1.0;"/><line style="stroke:#334155;stroke-width:1.0;" x1="192" x2="192" y1="673.7734" y2="691.7734"/><line style="stroke:#334155;stroke-width:1.0;" x1="192" x2="367.75" y1="691.7734" y2="691.7734"/><polygon fill="#334155" points="357.75,687.7734,367.75,691.7734,357.75,695.7734,361.75,691.7734" style="stroke:#334155;stroke-width:1.0;"/><line style="stroke:#334155;stroke-width:1.0;" x1="567.5" x2="567.5" y1="673.7734" y2="691.7734"/><line style="stroke:#334155;stroke-width:1.0;" x1="567.5" x2="391.75" y1="691.7734" y2="691.7734"/><polygon fill="#334155" points="401.75,687.7734,391.75,691.7734,401.75,695.7734,397.75,691.7734" style="stroke:#334155;stroke-width:1.0;"/><line style="stroke:#334155;stroke-width:1.0;" x1="379.75" x2="379.75" y1="583.6719" y2="605.8047"/><polygon fill="#334155" points="375.75,595.8047,379.75,605.8047,383.75,595.8047,379.75,599.8047" style="stroke:#334155;stroke-width:1.0;"/><line style="stroke:#334155;stroke-width:1.0;" x1="379.75" x2="379.75" y1="703.7734" y2="758.7734"/><polygon fill="#334155" points="375.75,748.7734,379.75,758.7734,383.75,748.7734,379.75,752.7734" style="stroke:#334155;stroke-width:1.0;"/><line style="stroke:#334155;stroke-width:1.0;" x1="1131.25" x2="1131.25" y1="494.1367" y2="529.1367"/><polygon fill="#334155" points="1127.25,519.1367,1131.25,529.1367,1135.25,519.1367,1131.25,523.1367" style="stroke:#334155;stroke-width:1.0;"/><line style="stroke:#334155;stroke-width:1.0;" x1="1131.25" x2="1131.25" y1="435.7656" y2="460.168"/><polygon fill="#334155" points="1127.25,450.168,1131.25,460.168,1135.25,450.168,1131.25,454.168" style="stroke:#334155;stroke-width:1.0;"/><line style="stroke:#334155;stroke-width:1.0;" x1="1223.25" x2="1275.25" y1="423.7656" y2="423.7656"/><polygon fill="#334155" points="1271.25,492.6523,1275.25,502.6523,1279.25,492.6523,1275.25,496.6523" style="stroke:#334155;stroke-width:1.0;"/><line style="stroke:#334155;stroke-width:1.0;" x1="1275.25" x2="1275.25" y1="423.7656" y2="581.5391"/><line style="stroke:#334155;stroke-width:1.0;" x1="1275.25" x2="1131.25" y1="581.5391" y2="581.5391"/><line style="stroke:#334155;stroke-width:1.0;" x1="1131.25" x2="1131.25" y1="581.5391" y2="603.6719"/><polygon fill="#334155" points="1127.25,593.6719,1131.25,603.6719,1135.25,593.6719,1131.25,597.6719" style="stroke:#334155;stroke-width:1.0;"/><line style="stroke:#334155;stroke-width:1.0;" x1="1131.25" x2="1131.25" y1="686.043" y2="721.043"/><polygon fill="#334155" points="1127.25,711.043,1131.25,721.043,1135.25,711.043,1131.25,715.043" style="stroke:#334155;stroke-width:1.0;"/><line style="stroke:#334155;stroke-width:1.0;" x1="1131.25" x2="1131.25" y1="627.6719" y2="652.0742"/><polygon fill="#334155" points="1127.25,642.0742,1131.25,652.0742,1135.25,642.0742,1131.25,646.0742" style="stroke:#334155;stroke-width:1.0;"/><line style="stroke:#334155;stroke-width:1.0;" x1="1213.25" x2="1303.25" y1="615.6719" y2="615.6719"/><polygon fill="#334155" points="1299.25,684.5586,1303.25,694.5586,1307.25,684.5586,1303.25,688.5586" style="stroke:#334155;stroke-width:1.0;"/><line style="stroke:#334155;stroke-width:1.0;" x1="1303.25" x2="1303.25" y1="615.6719" y2="773.4453"/><line style="stroke:#334155;stroke-width:1.0;" x1="1303.25" x2="1131.25" y1="773.4453" y2="773.4453"/><line style="stroke:#334155;stroke-width:1.0;" x1="1131.25" x2="1131.25" y1="773.4453" y2="864.7422"/><polygon fill="#334155" points="1127.25,854.7422,1131.25,864.7422,1135.25,854.7422,1131.25,858.7422" style="stroke:#334155;stroke-width:1.0;"/><line style="stroke:#334155;stroke-width:1.0;" x1="1131.25" x2="1131.25" y1="1016.082" y2="1051.082"/><polygon fill="#334155" points="1127.25,1041.082,1131.25,1051.082,1135.25,1041.082,1131.25,1045.082" style="stroke:#334155;stroke-width:1.0;"/><line style="stroke:#334155;stroke-width:1.0;" x1="1131.25" x2="1131.25" y1="957.7109" y2="982.1133"/><polygon fill="#334155" points="1127.25,972.1133,1131.25,982.1133,1135.25,972.1133,1131.25,976.1133" style="stroke:#334155;stroke-width:1.0;"/><line style="stroke:#334155;stroke-width:1.0;" x1="1267.75" x2="1286.25" y1="945.7109" y2="945.7109"/><polygon fill="#334155" points="1282.25,1014.5977,1286.25,1024.5977,1290.25,1014.5977,1286.25,1018.5977" style="stroke:#334155;stroke-width:1.0;"/><line style="stroke:#334155;stroke-width:1.0;" x1="1286.25" x2="1286.25" y1="945.7109" y2="1103.4844"/><line style="stroke:#334155;stroke-width:1.0;" x1="1286.25" x2="1131.25" y1="1103.4844" y2="1103.4844"/><line style="stroke:#334155;stroke-width:1.0;" x1="1131.25" x2="1131.25" y1="1103.4844" y2="1138.4844"/><polygon fill="#334155" points="1127.25,1128.4844,1131.25,1138.4844,1135.25,1128.4844,1131.25,1132.4844" style="stroke:#334155;stroke-width:1.0;"/><line style="stroke:#334155;stroke-width:1.0;" x1="1131.25" x2="1131.25" y1="898.7109" y2="933.7109"/><polygon fill="#334155" points="1127.25,923.7109,1131.25,933.7109,1135.25,923.7109,1131.25,927.7109" style="stroke:#334155;stroke-width:1.0;"/><line style="stroke:#334155;stroke-width:1.0;" x1="1131.25" x2="1131.25" y1="1172.4531" y2="1194.7578"/><polygon fill="#334155" points="1127.25,1184.7578,1131.25,1194.7578,1135.25,1184.7578,1131.25,1188.7578" style="stroke:#334155;stroke-width:1.0;"/><line style="stroke:#334155;stroke-width:1.0;" x1="1131.25" x2="1131.25" y1="1228.7266" y2="1248.7266"/><polygon fill="#334155" points="1127.25,1238.7266,1131.25,1248.7266,1135.25,1238.7266,1131.25,1242.7266" style="stroke:#334155;stroke-width:1.0;"/><line style="stroke:#334155;stroke-width:1.0;" x1="1041.75" x2="988" y1="1314.6953" y2="1314.6953"/><line style="stroke:#334155;stroke-width:1.0;" x1="988" x2="988" y1="1314.6953" y2="1336.6953"/><polygon fill="#334155" points="984,1326.6953,988,1336.6953,992,1326.6953,988,1330.6953" style="stroke:#334155;stroke-width:1.0;"/><line style="stroke:#334155;stroke-width:1.0;" x1="1220.75" x2="1274.5" y1="1314.6953" y2="1314.6953"/><line style="stroke:#334155;stroke-width:1.0;" x1="1274.5" x2="1274.5" y1="1314.6953" y2="1336.6953"/><polygon fill="#334155" points="1270.5,1326.6953,1274.5,1336.6953,1278.5,1326.6953,1274.5,1330.6953" style="stroke:#334155;stroke-width:1.0;"/><line style="stroke:#334155;stroke-width:1.0;" x1="988" x2="988" y1="1370.6641" y2="1388.6641"/><line style="stroke:#334155;stroke-width:1.0;" x1="988" x2="1119.25" y1="1388.6641" y2="1388.6641"/><polygon fill="#334155" points="1109.25,1384.6641,1119.25,1388.6641,1109.25,1392.6641,1113.25,1388.6641" style="stroke:#334155;stroke-width:1.0;"/><line style="stroke:#334155;stroke-width:1.0;" x1="1274.5" x2="1274.5" y1="1370.6641" y2="1388.6641"/><line style="stroke:#334155;stroke-width:1.0;" x1="1274.5" x2="1143.25" y1="1388.6641" y2="1388.6641"/><polygon fill="#334155" points="1153.25,1384.6641,1143.25,1388.6641,1153.25,1392.6641,1149.25,1388.6641" style="stroke:#334155;stroke-width:1.0;"/><line style="stroke:#334155;stroke-width:1.0;" x1="1131.25" x2="1131.25" y1="1282.6953" y2="1302.6953"/><polygon fill="#334155" points="1127.25,1292.6953,1131.25,1302.6953,1135.25,1292.6953,1131.25,1296.6953" style="stroke:#334155;stroke-width:1.0;"/><line style="stroke:#334155;stroke-width:1.0;" x1="1048.75" x2="957.5" y1="1432.6641" y2="1432.6641"/><line style="stroke:#334155;stroke-width:1.0;" x1="957.5" x2="957.5" y1="1432.6641" y2="1454.6641"/><polygon fill="#334155" points="953.5,1444.6641,957.5,1454.6641,961.5,1444.6641,957.5,1448.6641" style="stroke:#334155;stroke-width:1.0;"/><line style="stroke:#334155;stroke-width:1.0;" x1="1213.75" x2="1305" y1="1432.6641" y2="1432.6641"/><line style="stroke:#334155;stroke-width:1.0;" x1="1305" x2="1305" y1="1432.6641" y2="1454.6641"/><polygon fill="#334155" points="1301,1444.6641,1305,1454.6641,1309,1444.6641,1305,1448.6641" style="stroke:#334155;stroke-width:1.0;"/><line style="stroke:#334155;stroke-width:1.0;" x1="957.5" x2="957.5" y1="1488.6328" y2="1506.6328"/><line style="stroke:#334155;stroke-width:1.0;" x1="957.5" x2="1119.25" y1="1506.6328" y2="1506.6328"/><polygon fill="#334155" points="1109.25,1502.6328,1119.25,1506.6328,1109.25,1510.6328,1113.25,1506.6328" style="stroke:#334155;stroke-width:1.0;"/><line style="stroke:#334155;stroke-width:1.0;" x1="1305" x2="1305" y1="1488.6328" y2="1506.6328"/><line style="stroke:#334155;stroke-width:1.0;" x1="1305" x2="1143.25" y1="1506.6328" y2="1506.6328"/><polygon fill="#334155" points="1153.25,1502.6328,1143.25,1506.6328,1153.25,1510.6328,1149.25,1506.6328" style="stroke:#334155;stroke-width:1.0;"/><line style="stroke:#334155;stroke-width:1.0;" x1="1131.25" x2="1131.25" y1="1400.6641" y2="1420.6641"/><polygon fill="#334155" points="1127.25,1410.6641,1131.25,1420.6641,1135.25,1410.6641,1131.25,1414.6641" style="stroke:#334155;stroke-width:1.0;"/><line style="stroke:#334155;stroke-width:1.0;" x1="686.5" x2="379.75" y1="353.4688" y2="353.4688"/><line style="stroke:#334155;stroke-width:1.0;" x1="379.75" x2="379.75" y1="353.4688" y2="411.7656"/><polygon fill="#334155" points="375.75,401.7656,379.75,411.7656,383.75,401.7656,379.75,405.7656" style="stroke:#334155;stroke-width:1.0;"/><line style="stroke:#334155;stroke-width:1.0;" x1="824.5" x2="1131.25" y1="353.4688" y2="353.4688"/><line style="stroke:#334155;stroke-width:1.0;" x1="1131.25" x2="1131.25" y1="353.4688" y2="411.7656"/><polygon fill="#334155" points="1127.25,401.7656,1131.25,411.7656,1135.25,401.7656,1131.25,405.7656" style="stroke:#334155;stroke-width:1.0;"/><line style="stroke:#334155;stroke-width:1.0;" x1="1131.25" x2="1131.25" y1="1518.6328" y2="1536.6328"/><line style="stroke:#334155;stroke-width:1.0;" x1="1131.25" x2="755.5" y1="1536.6328" y2="1536.6328"/><line style="stroke:#334155;stroke-width:1.0;" x1="755.5" x2="755.5" y1="309.4688" y2="341.4688"/><polygon fill="#334155" points="751.5,331.4688,755.5,341.4688,759.5,331.4688,755.5,335.4688" style="stroke:#334155;stroke-width:1.0;"/><!--SRC=[bLPTJoCt57sVNs7H5rOYQDbTOBjvg48-jaXigH90wgDZtqbSFFRKzi2crVxttcjx9XD8g8g4vB5zlyyvJb110xjT_WaYi4MmZg-0NJNY4GARWx16A3mVYQ2ULDWK_b6PcZjUCR_cqZuhis8brnvw9rTSFAwSROmSMsqT-saM_tetHixPvtpuyUEdi_Fptg64aZSwtC7tCD9gPIemWMaeG-yEp_cmVmgs9zxdsMWsfXFh9BYy- -do_FpYPzoTMHFotllPsUM74UvD5A-iaQzSJJzCFy_UzoxizRW8t6rTNbvSJ75psZcvd9rDpYR5ZyBJlQB06e8AoXfsTBlqu9w0SIFPbJBoA5RqPGvSil6S-Hh42KEpq7XsExwUdCIR4ZG4OCe4xCsG3CYMXJNG9UR0syO9m0siPRLcyBtMIgZ0b4G3LIfmdbcZDyCKp5kTSwZnHFcGNEs2ml0AVCtHxH9Awu1L3UP5LM2DAQFexe5h9Nc0w4FOghPUuTSoOMgRGUic5uDEcfhiXjYeGfNi-6YIJXpyrO0F87yvUaTE3JlUW7-7iNgDJ7TJ-p29HREii5xgHlQFiVR3V9WinjQKobLjdb9vNjU0Q3DOyRCAQ_IWjNqUD3Nx2Y5JH72jFMkm91thRQlqR6LDBChOW9Q8gDCSA5T5j-sp0OazCWRJeZ8M81oQyp9GVt8cT9yEqQb8IKBhBBRfDdh9fa83DvYYRuG0aFvLps8ESwZiKygXL0O7zZV6Ir6xbhqCcI82SfqT6zkvGknls59Rp5NcHXn8XRg13Zb2tkIkWv6gnDKF_FV1raNVVM-wDwe4iK67RAovzuWV4Q7NpZlr0JCdgX0n43J1RVWIBJo4Gqs8k4huQXB-7m7gtROCy_MONZ_dVL5BZceftmeP6cSm4dOgjiNxia7aWAie7gRIAYvo64NmO72ao4w3I30siOA9KsLWl-9IepXtX1WZ4JcoJQkd918fvmXigjStTMqTaep9wC0thaIkzs1sRxPtQ98LyPyQd0maWbhi8sakF38lIiAQcrKd8jniOZgjcBpHxeD2bOdoIg2IdcpbgMNW_rMebpbsJ5Pb6MKqEgeiHP6j6nw2KyicW6_Ta5RGUtaVqqe2qkVnuiK8tkxegAunS1TzEnjb1hMcBkJoToRvchwFAW7Us86jjvfUyx0UxiDx9hVV6F6V8XF1dd4U1PW2DJwY9ZxXa61u8BShKXNMumdDAYlJZjBi9FDIMTAgABN5oh3zACX8BxLQXsBan1h2feOlnO0jyGcbTWvYzmS9CWCV8nJpJauwxdWo6i-dexlhtxxYylxtIRkSJnUtDm-q7gKgTutGPl97CKjQiNiq6rtVJ2Uuc4nlfdUukjyP8bqHaSc1VXPTI_mUnVRSOHNuyK2qi0Rhn8_I0I6lOe6lF7xZBoj5JqNyp8pil-NHFR4e0J1_94grEpwzdHIkswkufZ3nAJj8fkAA7a7kDd40iTYx7cjsmOg_M8Hk978dnsE1-4Z4juWX5qVSc4ukzx3k50DyK_XMuCWJJCYPqffnUiPxM3f1uv3lvB57_oJcZIF-HXnk7qf7hoVNfmIjM4tnBm00]--></g></svg>