<?xml version="1.0" encoding="UTF-8" standalone="no"?><svg xmlns="http://www.w3.org/2000/svg" xmlns:xlink="http://www.w3.org/1999/xlink" contentStyleType="text/css" height="561px" preserveAspectRatio="none" style="width:468px;height:561px;background:#FFFFFF;" version="1.1" viewBox="0 0 468 561" width="468px" zoomAndPan="magnify"><defs/><g><text fill="#000000" font-family="sans-serif" font-size="14" font-weight="bold" lengthAdjust="spacing" textLength="300" x="77.25" y="22.9951">ObjectStorageBucket Formal Lifecycle</text><ellipse cx="290.5" cy="53.2969" fill="#222222" rx="10" ry="10" style="stroke:none;stroke-width:1.0;"/><g id="Observed"><rect fill="#F1F1F1" height="50" rx="12.5" ry="12.5" style="stroke:#181818;stroke-width:0.5;" width="87" x="247" y="124.2969"/><line style="stroke:#181818;stroke-width:0.5;" x1="247" x2="334" y1="150.5938" y2="150.5938"/><text fill="#000000" font-family="sans-serif" font-size="14" lengthAdjust="spacing" textLength="67" x="257" y="142.292">Observed</text></g><g id="Retryable"><rect fill="#F1F1F1" height="50" rx="12.5" ry="12.5" style="stroke:#181818;stroke-width:0.5;" width="85" x="7" y="251.2969"/><line style="stroke:#181818;stroke-width:0.5;" x1="7" x2="92" y1="277.5938" y2="277.5938"/><text fill="#000000" font-family="sans-serif" font-size="14" lengthAdjust="spacing" textLength="65" x="17" y="269.292">Retryable</text></g><g id="Active"><rect fill="#F1F1F1" height="50" rx="12.5" ry="12.5" style="stroke:#181818;stroke-width:0.5;" width="61" x="220" y="251.2969"/><line style="stroke:#181818;stroke-width:0.5;" x1="220" x2="281" y1="277.5938" y2="277.5938"/><text fill="#000000" font-family="sans-serif" font-size="14" lengthAdjust="spacing" textLength="41" x="230" y="269.292">Active</text></g><g id="Failed"><rect fill="#F1F1F1" height="50" rx="12.5" ry="12.5" style="stroke:#181818;stroke-width:0.5;" width="60" x="344.5" y="251.2969"/><line style="stroke:#181818;stroke-width:0.5;" x1="344.5" x2="404.5" y1="277.5938" y2="277.5938"/><text fill="#000000" font-family="sans-serif" font-size="14" lengthAdjust="spacing" textLength="40" x="354.5" y="269.292">Failed</text></g><g id="DeletePending"><rect fill="#F1F1F1" height="50" rx="12.5" ry="12.5" style="stroke:#181818;stroke-width:0.5;" width="123" x="162" y="378.2969"/><line style="stroke:#181818;stroke-width:0.5;" x1="162" x2="285" y1="404.5938" y2="404.5938"/><text fill="#000000" font-family="sans-serif" font-size="14" lengthAdjust="spacing" textLength="103" x="172" y="396.292">DeletePending</text></g><g id="Deleted"><rect fill="#F1F1F1" height="50" rx="12.5" ry="12.5" style="stroke:#181818;stroke-width:0.5;" width="75" x="186" y="505.2969"/><line style="stroke:#181818;stroke-width:0.5;" x1="186" x2="261" y1="531.5938" y2="531.5938"/><text fill="#000000" font-family="sans-serif" font-size="14" lengthAdjust="spacing" textLength="55" x="196" y="523.292">Deleted</text></g><!--link *start to Observed--><g id="link_*start_Observed"><path d="M290.5,63.3069 C290.5,75.9969 290.5,99.7069 290.5,118.8669 " fill="none" id="*start-to-Observed" style="stroke:#181818;stroke-width:1.0;"/><polygon fill="#181818" points="290.5,124.1369,294.5,115.1369,290.5,119.1369,286.5,115.1369,290.5,124.1369" style="stroke:#181818;stroke-width:1.0;"/></g><!--link Observed to Retryable--><g id="link_Observed_Retryable"><path d="M246.82,153.1769 C181.53,158.4869 63.35,172.3469 37.5,204.2969 C28.12,215.8969 30.09,232.1069 34.87,246.1169 " fill="none" id="Observed-to-Retryable" style="stroke:#181818;stroke-width:1.0;"/><polygon fill="#181818" points="36.74,251.1669,37.3515,241.337,34.9969,246.4805,29.8534,244.126,36.74,251.1669" style="stroke:#181818;stroke-width:1.0;"/><text fill="#000000" font-family="sans-serif" font-size="13" lengthAdjust="spacing" textLength="221" x="38.5" y="217.3638">CREATING, UPDATING, RESOLVING</text></g><!--link Observed to Active--><g id="link_Observed_Active"><path d="M282.79,174.3969 C276.2,194.9769 266.72,224.6269 259.73,246.4569 " fill="none" id="Observed-to-Active" style="stroke:#181818;stroke-width:1.0;"/><polygon fill="#181818" points="258.19,251.2669,264.7314,243.9042,259.7066,246.5024,257.1083,241.4776,258.19,251.2669" style="stroke:#181818;stroke-width:1.0;"/><text fill="#000000" font-family="sans-serif" font-size="13" lengthAdjust="spacing" textLength="42" x="274.5" y="217.3638">READY</text></g><!--link Observed to Failed--><g id="link_Observed_Failed"><path d="M306.7,174.3969 C320.64,195.1469 340.78,225.1169 355.49,247.0069 " fill="none" id="Observed-to-Failed" style="stroke:#181818;stroke-width:1.0;"/><polygon fill="#181818" points="358.35,251.2669,356.6628,241.5636,355.5666,247.1132,350.017,246.017,358.35,251.2669" style="stroke:#181818;stroke-width:1.0;"/><text fill="#000000" font-family="sans-serif" font-size="13" lengthAdjust="spacing" textLength="110" x="339.5" y="217.3638">FAILED, DELETED</text></g><!--link Active to DeletePending--><g id="link_Active_DeletePending"><path d="M233.65,301.4469 C228.36,310.4069 223.19,320.9169 220.5,331.2969 C217,344.7969 217.18,360.2069 218.46,373.2169 " fill="none" id="Active-to-DeletePending" style="stroke:#181818;stroke-width:1.0;"/><polygon fill="#181818" points="219.03,378.2669,222.0028,368.8774,218.4731,373.298,214.0525,369.7684,219.03,378.2669" style="stroke:#181818;stroke-width:1.0;"/><text fill="#000000" font-family="sans-serif" font-size="13" lengthAdjust="spacing" textLength="109" x="221.5" y="344.3638">delete requested</text></g><!--link Retryable to DeletePending--><g id="link_Retryable_DeletePending"><path d="M62.08,301.6069 C70.88,316.6769 83.84,335.5269 99.5,348.2969 C116.35,362.0369 137.23,372.8969 157.02,381.1669 " fill="none" id="Retryable-to-DeletePending" style="stroke:#181818;stroke-width:1.0;"/><polygon fill="#181818" points="161.75,383.1069,154.9509,375.9814,157.1266,381.2031,151.9049,383.3788,161.75,383.1069" style="stroke:#181818;stroke-width:1.0;"/><text fill="#000000" font-family="sans-serif" font-size="13" lengthAdjust="spacing" textLength="109" x="100.5" y="344.3638">delete requested</text></g><!--link Failed to DeletePending--><g id="link_Failed_DeletePending"><path d="M365.69,301.4669 C359.22,316.4869 349.17,335.3269 335.5,348.2969 C322.4,360.7169 305.9,370.7869 289.63,378.7169 " fill="none" id="Failed-to-DeletePending" style="stroke:#181818;stroke-width:1.0;"/><polygon fill="#181818" points="285.05,380.8969,294.8951,380.6256,289.5614,378.7411,291.4459,373.4074,285.05,380.8969" style="stroke:#181818;stroke-width:1.0;"/><text fill="#000000" font-family="sans-serif" font-size="13" lengthAdjust="spacing" textLength="109" x="351.5" y="344.3638">delete requested</text></g><!--link DeletePending to Deleted--><g id="link_DeletePending_Deleted"><path d="M223.5,428.3969 C223.5,448.8869 223.5,478.3769 223.5,500.1769 " fill="none" id="DeletePending-to-Deleted" style="stroke:#181818;stroke-width:1.0;"/><polygon fill="#181818" points="223.5,505.2669,227.5,496.2669,223.5,500.2669,219.5,496.2669,223.5,505.2669" style="stroke:#181818;stroke-width:1.0;"/><text fill="#000000" font-family="sans-serif" font-size="13" lengthAdjust="spacing" textLength="188" x="224.5" y="471.3638">finalizer removed after delete</text></g><!--SRC=[ZO_1Ri8m44Jl_eezL-47E5HAQwT2YWWAK0aX3iRP85EJgCuc4dnzDyGK-SPjndwpEqkM749nFAEXDRLUd_2ZDpz8aBN-eXtajaPpDGw5sByTO3PxPxf3Fs0b7kB-MYBvgpxoj3bybYhTB9PV2MnNCgXIhOlycsKSImtPOSnmHExYlqnRnt8EMRh8bKn0gbnjb1GXD38I7HAkiAbiSsAqkdlm-DjZHrposUibFEnyYOs1PsIiNDj6Etj3p_ob7I_IDR6RXWZHaUPP_-M2dmuBPgeIJBGhUgl-0000]--></g></svg>