<?xml version="1.0" encoding="UTF-8" standalone="no"?><svg xmlns="http://www.w3.org/2000/svg" xmlns:xlink="http://www.w3.org/1999/xlink" contentStyleType="text/css" height="1450px" preserveAspectRatio="none" style="width:1202px;height:1450px;background:#FFFFFF;" version="1.1" viewBox="0 0 1202 1450" width="1202px" zoomAndPan="magnify"><defs/><g><text fill="#000000" font-family="sans-serif" font-size="14" font-weight="bold" lengthAdjust="spacing" textLength="342" x="431.25" y="27.9951">Object Storage Bucket Reconcile Sequence</text><rect fill="none" height="117.5313" style="stroke:#475569;stroke-width:1.5;" width="765" x="288.5" y="193.8594"/><rect fill="none" height="886.6016" style="stroke:#475569;stroke-width:1.5;" width="1185.5" x="10" y="325.3906"/><rect fill="none" height="208.7344" style="stroke:#475569;stroke-width:1.5;" width="1165.5" x="20" y="349.5234"/><rect fill="none" height="90.2031" style="stroke:#475569;stroke-width:1.5;" width="1145.5" x="30" y="461.0547"/><rect fill="none" height="500.9219" style="stroke:#475569;stroke-width:1.5;" width="1155.5" x="20" y="674.9375"/><rect fill="none" height="46.2656" style="stroke:#475569;stroke-width:1.5;" width="406.5" x="30" y="885.5313"/><rect fill="none" height="46.2656" style="stroke:#475569;stroke-width:1.5;" width="765" x="288.5" y="1033.1953"/><rect fill="none" height="46.2656" style="stroke:#475569;stroke-width:1.5;" width="406.5" x="30" y="1122.5938"/><line style="stroke:#94A3B8;stroke-width:0.5;stroke-dasharray:5.0,5.0;" x1="76" x2="76" y1="118.5938" y2="1370.0547"/><line style="stroke:#94A3B8;stroke-width:0.5;stroke-dasharray:5.0,5.0;" x1="362.5" x2="362.5" y1="118.5938" y2="1370.0547"/><line style="stroke:#94A3B8;stroke-width:0.5;stroke-dasharray:5.0,5.0;" x1="1025.5" x2="1025.5" y1="118.5938" y2="1370.0547"/><line style="stroke:#94A3B8;stroke-width:0.5;stroke-dasharray:5.0,5.0;" x1="1109.5" x2="1109.5" y1="118.5938" y2="1370.0547"/><text fill="#000000" font-family="sans-serif" font-size="14" lengthAdjust="spacing" textLength="67" x="40" y="115.292">Controller</text><ellipse cx="76.5" cy="50.7969" fill="#E0F2FE" rx="8" ry="8" style="stroke:#0F766E;stroke-width:0.5;"/><path d="M76.5,58.7969 L76.5,85.7969 M63.5,66.7969 L89.5,66.7969 M76.5,85.7969 L63.5,100.7969 M76.5,85.7969 L89.5,100.7969 " fill="none" style="stroke:#0F766E;stroke-width:0.5;"/><text fill="#000000" font-family="sans-serif" font-size="14" lengthAdjust="spacing" textLength="67" x="40" y="1382.0498">Controller</text><ellipse cx="76.5" cy="1393.8516" fill="#E0F2FE" rx="8" ry="8" style="stroke:#0F766E;stroke-width:0.5;"/><path d="M76.5,1401.8516 L76.5,1428.8516 M63.5,1409.8516 L89.5,1409.8516 M76.5,1428.8516 L63.5,1443.8516 M76.5,1428.8516 L89.5,1443.8516 " fill="none" style="stroke:#0F766E;stroke-width:0.5;"/><rect fill="#F8FAFC" height="30.2969" rx="2.5" ry="2.5" style="stroke:#475569;stroke-width:0.5;" width="128" x="298.5" y="87.2969"/><text fill="#000000" font-family="sans-serif" font-size="14" lengthAdjust="spacing" textLength="114" x="305.5" y="107.292">Service Manager</text><rect fill="#F8FAFC" height="30.2969" rx="2.5" ry="2.5" style="stroke:#475569;stroke-width:0.5;" width="128" x="298.5" y="1369.0547"/><text fill="#000000" font-family="sans-serif" font-size="14" lengthAdjust="spacing" textLength="114" x="305.5" y="1389.0498">Service Manager</text><text fill="#000000" font-family="sans-serif" font-size="14" lengthAdjust="spacing" textLength="24" x="1010.5" y="115.292">OCI</text><path d="M1007.5,66.2969 C1007.5,56.2969 1025.5,56.2969 1025.5,56.2969 C1025.5,56.2969 1043.5,56.2969 1043.5,66.2969 L1043.5,92.2969 C1043.5,102.2969 1025.5,102.2969 1025.5,102.2969 C1025.5,102.2969 1007.5,102.2969 1007.5,92.2969 L1007.5,66.2969 " fill="#E2E2F0" style="stroke:#181818;stroke-width:1.5;"/><path d="M1007.5,66.2969 C1007.5,76.2969 1025.5,76.2969 1025.5,76.2969 C1025.5,76.2969 1043.5,76.2969 1043.5,66.2969 " fill="none" style="stroke:#181818;stroke-width:1.5;"/><text fill="#000000" font-family="sans-serif" font-size="14" lengthAdjust="spacing" textLength="24" x="1010.5" y="1382.0498">OCI</text><path d="M1007.5,1395.3516 C1007.5,1385.3516 1025.5,1385.3516 1025.5,1385.3516 C1025.5,1385.3516 1043.5,1385.3516 1043.5,1395.3516 L1043.5,1421.3516 C1043.5,1431.3516 1025.5,1431.3516 1025.5,1431.3516 C1025.5,1431.3516 1007.5,1431.3516 1007.5,1421.3516 L1007.5,1395.3516 " fill="#E2E2F0" style="stroke:#181818;stroke-width:1.5;"/><path d="M1007.5,1395.3516 C1007.5,1405.3516 1025.5,1405.3516 1025.5,1405.3516 C1025.5,1405.3516 1043.5,1405.3516 1043.5,1395.3516 " fill="none" style="stroke:#181818;stroke-width:1.5;"/><text fill="#000000" font-family="sans-serif" font-size="14" lengthAdjust="spacing" textLength="106" x="1053.5" y="115.292">Kubernetes API</text><path d="M1091.5,66.2969 C1091.5,56.2969 1109.5,56.2969 1109.5,56.2969 C1109.5,56.2969 1127.5,56.2969 1127.5,66.2969 L1127.5,92.2969 C1127.5,102.2969 1109.5,102.2969 1109.5,102.2969 C1109.5,102.2969 1091.5,102.2969 1091.5,92.2969 L1091.5,66.2969 " fill="#E2E2F0" style="stroke:#181818;stroke-width:1.5;"/><path d="M1091.5,66.2969 C1091.5,76.2969 1109.5,76.2969 1109.5,76.2969 C1109.5,76.2969 1127.5,76.2969 1127.5,66.2969 " fill="none" style="stroke:#181818;stroke-width:1.5;"/><text fill="#000000" font-family="sans-serif" font-size="14" lengthAdjust="spacing" textLength="106" x="1053.5" y="1382.0498">Kubernetes API</text><path d="M1091.5,1395.3516 C1091.5,1385.3516 1109.5,1385.3516 1109.5,1385.3516 C1109.5,1385.3516 1127.5,1385.3516 1127.5,1395.3516 L1127.5,1421.3516 C1127.5,1431.3516 1109.5,1431.3516 1109.5,1431.3516 C1109.5,1431.3516 1091.5,1431.3516 1091.5,1421.3516 L1091.5,1395.3516 " fill="#E2E2F0" style="stroke:#181818;stroke-width:1.5;"/><path d="M1091.5,1395.3516 C1091.5,1405.3516 1109.5,1405.3516 1109.5,1405.3516 C1109.5,1405.3516 1127.5,1405.3516 1127.5,1395.3516 " fill="none" style="stroke:#181818;stroke-width:1.5;"/><polygon fill="#334155" points="350.5,145.7266,360.5,149.7266,350.5,153.7266,354.5,149.7266" style="stroke:#334155;stroke-width:1.0;"/><line style="stroke:#334155;stroke-width:1.0;" x1="76.5" x2="356.5" y1="149.7266" y2="149.7266"/><text fill="#000000" font-family="sans-serif" font-size="13" font-weight="bold" lengthAdjust="spacing" textLength="9" x="83.5" y="144.6606">1</text><text fill="#000000" font-family="sans-serif" font-size="13" lengthAdjust="spacing" textLength="239" x="96.5" y="144.6606">reconcile desired spec and live status</text><polygon fill="#334155" points="1097.5,174.8594,1107.5,178.8594,1097.5,182.8594,1101.5,178.8594" style="stroke:#334155;stroke-width:1.0;"/><line style="stroke:#334155;stroke-width:1.0;" x1="362.5" x2="1103.5" y1="178.8594" y2="178.8594"/><text fill="#000000" font-family="sans-serif" font-size="13" font-weight="bold" lengthAdjust="spacing" textLength="9" x="369.5" y="173.7935">2</text><text fill="#000000" font-family="sans-serif" font-size="13" lengthAdjust="spacing" textLength="212" x="382.5" y="173.7935">read CR status and finalizer state</text><path d="M288.5,193.8594 L458.5,193.8594 L458.5,200.9922 L448.5,210.9922 L288.5,210.9922 L288.5,193.8594 " fill="#F8FAFC" style="stroke:#475569;stroke-width:1.5;"/><rect fill="none" height="117.5313" style="stroke:#475569;stroke-width:1.5;" width="765" x="288.5" y="193.8594"/><text fill="#000000" font-family="sans-serif" font-size="13" font-weight="bold" lengthAdjust="spacing" textLength="125" x="303.5" y="206.9263">Lookup and bind</text><polygon fill="#334155" points="1013.5,228.125,1023.5,232.125,1013.5,236.125,1017.5,232.125" style="stroke:#334155;stroke-width:1.0;"/><line style="stroke:#334155;stroke-width:1.0;" x1="362.5" x2="1019.5" y1="232.125" y2="232.125"/><text fill="#000000" font-family="sans-serif" font-size="13" font-weight="bold" lengthAdjust="spacing" textLength="9" x="369.5" y="227.0591">3</text><text fill="#000000" font-family="sans-serif" font-size="13" lengthAdjust="spacing" textLength="287" x="382.5" y="227.0591">bind or create through explicit identifiers only</text><polygon fill="#334155" points="1013.5,257.2578,1023.5,261.2578,1013.5,265.2578,1017.5,261.2578" style="stroke:#334155;stroke-width:1.0;"/><line style="stroke:#334155;stroke-width:1.0;" x1="362.5" x2="1019.5" y1="261.2578" y2="261.2578"/><text fill="#000000" font-family="sans-serif" font-size="13" font-weight="bold" lengthAdjust="spacing" textLength="9" x="369.5" y="256.1919">4</text><text fill="#000000" font-family="sans-serif" font-size="13" lengthAdjust="spacing" textLength="272" x="382.5" y="256.1919">resolve and persist the bucket namespace</text><line style="stroke:#334155;stroke-width:1.0;" x1="362.5" x2="404.5" y1="290.3906" y2="290.3906"/><line style="stroke:#334155;stroke-width:1.0;" x1="404.5" x2="404.5" y1="290.3906" y2="303.3906"/><line style="stroke:#334155;stroke-width:1.0;" x1="363.5" x2="404.5" y1="303.3906" y2="303.3906"/><polygon fill="#334155" points="373.5,299.3906,363.5,303.3906,373.5,307.3906,369.5,303.3906" style="stroke:#334155;stroke-width:1.0;"/><text fill="#000000" font-family="sans-serif" font-size="13" font-weight="bold" lengthAdjust="spacing" textLength="9" x="369.5" y="285.3247">5</text><text fill="#000000" font-family="sans-serif" font-size="13" lengthAdjust="spacing" textLength="312" x="382.5" y="285.3247">validate the composite identifier before mutation</text><path d="M10,325.3906 L74,325.3906 L74,332.5234 L64,342.5234 L10,342.5234 L10,325.3906 " fill="#F8FAFC" style="stroke:#475569;stroke-width:1.5;"/><rect fill="none" height="886.6016" style="stroke:#475569;stroke-width:1.5;" width="1185.5" x="10" y="325.3906"/><text fill="#000000" font-family="sans-serif" font-size="13" font-weight="bold" lengthAdjust="spacing" textLength="19" x="25" y="338.4575">alt</text><text fill="#000000" font-family="sans-serif" font-size="11" font-weight="bold" lengthAdjust="spacing" textLength="120" x="89" y="337.6011">[delete requested]</text><path d="M20,349.5234 L113,349.5234 L113,356.6563 L103,366.6563 L20,366.6563 L20,349.5234 " fill="#F8FAFC" style="stroke:#475569;stroke-width:1.5;"/><rect fill="none" height="208.7344" style="stroke:#475569;stroke-width:1.5;" width="1165.5" x="20" y="349.5234"/><text fill="#000000" font-family="sans-serif" font-size="13" font-weight="bold" lengthAdjust="spacing" textLength="48" x="35" y="362.5903">Delete</text><polygon fill="#334155" points="1013.5,383.7891,1023.5,387.7891,1013.5,391.7891,1017.5,387.7891" style="stroke:#334155;stroke-width:1.0;"/><line style="stroke:#334155;stroke-width:1.0;" x1="362.5" x2="1019.5" y1="387.7891" y2="387.7891"/><text fill="#000000" font-family="sans-serif" font-size="13" font-weight="bold" lengthAdjust="spacing" textLength="9" x="369.5" y="382.7231">6</text><text fill="#000000" font-family="sans-serif" font-size="13" lengthAdjust="spacing" textLength="114" x="382.5" y="382.7231">submit OCI delete</text><polygon fill="#334155" points="1013.5,412.9219,1023.5,416.9219,1013.5,420.9219,1017.5,416.9219" style="stroke:#334155;stroke-width:1.0;"/><line style="stroke:#334155;stroke-width:1.0;" x1="362.5" x2="1019.5" y1="416.9219" y2="416.9219"/><text fill="#000000" font-family="sans-serif" font-size="13" font-weight="bold" lengthAdjust="spacing" textLength="9" x="369.5" y="411.856">7</text><text fill="#000000" font-family="sans-serif" font-size="13" lengthAdjust="spacing" textLength="626" x="382.5" y="411.856">Confirm bucket disappearance with follow-up GetBucket calls until the bucket is gone or not found.</text><polygon fill="#334155" points="1097.5,442.0547,1107.5,446.0547,1097.5,450.0547,1101.5,446.0547" style="stroke:#334155;stroke-width:1.0;"/><line style="stroke:#334155;stroke-width:1.0;" x1="362.5" x2="1103.5" y1="446.0547" y2="446.0547"/><text fill="#000000" font-family="sans-serif" font-size="13" font-weight="bold" lengthAdjust="spacing" textLength="9" x="369.5" y="440.9888">8</text><text fill="#000000" font-family="sans-serif" font-size="13" lengthAdjust="spacing" textLength="454" x="382.5" y="440.9888">Delete the owned connection Secret after bucket deletion is confirmed.</text><path d="M30,461.0547 L94,461.0547 L94,468.1875 L84,478.1875 L30,478.1875 L30,461.0547 " fill="#F8FAFC" style="stroke:#475569;stroke-width:1.5;"/><rect fill="none" height="90.2031" style="stroke:#475569;stroke-width:1.5;" width="1145.5" x="30" y="461.0547"/><text fill="#000000" font-family="sans-serif" font-size="13" font-weight="bold" lengthAdjust="spacing" textLength="19" x="45" y="474.1216">alt</text><text fill="#000000" font-family="sans-serif" font-size="11" font-weight="bold" lengthAdjust="spacing" textLength="217" x="109" y="473.2651">[owned Secret cleanup succeeds]</text><polygon fill="#334155" points="1097.5,495.3203,1107.5,499.3203,1097.5,503.3203,1101.5,499.3203" style="stroke:#334155;stroke-width:1.0;"/><line style="stroke:#334155;stroke-width:1.0;" x1="362.5" x2="1103.5" y1="499.3203" y2="499.3203"/><text fill="#000000" font-family="sans-serif" font-size="13" font-weight="bold" lengthAdjust="spacing" textLength="9" x="369.5" y="494.2544">9</text><text fill="#000000" font-family="sans-serif" font-size="13" lengthAdjust="spacing" textLength="127" x="382.5" y="494.2544">remove the finalizer</text><line style="stroke:#475569;stroke-width:1.0;stroke-dasharray:2.0,2.0;" x1="30" x2="1175.5" y1="508.3203" y2="508.3203"/><text fill="#000000" font-family="sans-serif" font-size="11" font-weight="bold" lengthAdjust="spacing" textLength="138" x="35" y="518.5308">[Secret cleanup fails]</text><polygon fill="#334155" points="87.5,539.2578,77.5,543.2578,87.5,547.2578,83.5,543.2578" style="stroke:#334155;stroke-width:1.0;"/><line style="stroke:#334155;stroke-width:1.0;stroke-dasharray:2.0,2.0;" x1="81.5" x2="361.5" y1="543.2578" y2="543.2578"/><text fill="#000000" font-family="sans-serif" font-size="13" font-weight="bold" lengthAdjust="spacing" textLength="18" x="93.5" y="538.1919">10</text><text fill="#000000" font-family="sans-serif" font-size="13" lengthAdjust="spacing" textLength="177" x="115.5" y="538.1919">retain the finalizer and retry</text><line style="stroke:#475569;stroke-width:1.0;stroke-dasharray:2.0,2.0;" x1="10" x2="1195.5" y1="566.2578" y2="566.2578"/><text fill="#000000" font-family="sans-serif" font-size="11" font-weight="bold" lengthAdjust="spacing" textLength="147" x="15" y="576.4683">[OCI state is retryable]</text><polygon fill="#334155" points="87.5,597.1953,77.5,601.1953,87.5,605.1953,83.5,601.1953" style="stroke:#334155;stroke-width:1.0;"/><line style="stroke:#334155;stroke-width:1.0;stroke-dasharray:2.0,2.0;" x1="81.5" x2="361.5" y1="601.1953" y2="601.1953"/><text fill="#000000" font-family="sans-serif" font-size="13" font-weight="bold" lengthAdjust="spacing" textLength="18" x="93.5" y="596.1294">11</text><text fill="#000000" font-family="sans-serif" font-size="13" lengthAdjust="spacing" textLength="110" x="115.5" y="596.1294">requeue required</text><line style="stroke:#475569;stroke-width:1.0;stroke-dasharray:2.0,2.0;" x1="10" x2="1195.5" y1="610.1953" y2="610.1953"/><text fill="#000000" font-family="sans-serif" font-size="11" font-weight="bold" lengthAdjust="spacing" textLength="200" x="15" y="620.4058">[OCI state is failed or terminal]</text><polygon fill="#334155" points="87.5,641.1328,77.5,645.1328,87.5,649.1328,83.5,645.1328" style="stroke:#334155;stroke-width:1.0;"/><line style="stroke:#334155;stroke-width:1.0;stroke-dasharray:2.0,2.0;" x1="81.5" x2="361.5" y1="645.1328" y2="645.1328"/><text fill="#000000" font-family="sans-serif" font-size="13" font-weight="bold" lengthAdjust="spacing" textLength="18" x="93.5" y="640.0669">12</text><text fill="#000000" font-family="sans-serif" font-size="13" lengthAdjust="spacing" textLength="240" x="115.5" y="640.0669">unsuccessful terminal reconcile result</text><line style="stroke:#475569;stroke-width:1.0;stroke-dasharray:2.0,2.0;" x1="10" x2="1195.5" y1="654.1328" y2="654.1328"/><text fill="#000000" font-family="sans-serif" font-size="11" font-weight="bold" lengthAdjust="spacing" textLength="203" x="15" y="664.3433">[OCI state is active and usable]</text><path d="M20,674.9375 L167,674.9375 L167,682.0703 L157,692.0703 L20,692.0703 L20,674.9375 " fill="#F8FAFC" style="stroke:#475569;stroke-width:1.5;"/><rect fill="none" height="500.9219" style="stroke:#475569;stroke-width:1.5;" width="1155.5" x="20" y="674.9375"/><text fill="#000000" font-family="sans-serif" font-size="13" font-weight="bold" lengthAdjust="spacing" textLength="102" x="35" y="688.0044">Drift handling</text><path d="M324,697.0703 L324,873.0703 L1064,873.0703 L1064,707.0703 L1054,697.0703 L324,697.0703 " fill="#FEFFDD" style="stroke:#181818;stroke-width:0.5;"/><path d="M1054,697.0703 L1054,707.0703 L1064,707.0703 L1054,697.0703 " fill="#FEFFDD" style="stroke:#181818;stroke-width:0.5;"/><text fill="#000000" font-family="sans-serif" font-size="13" lengthAdjust="spacing" textLength="171" x="330" y="714.1372">Supported update surface:</text><text fill="#000000" font-family="sans-serif" font-size="13" lengthAdjust="spacing" textLength="108" x="330" y="729.27">- compartmentId</text><text fill="#000000" font-family="sans-serif" font-size="13" lengthAdjust="spacing" textLength="84" x="330" y="744.4028">- AccessType</text><text fill="#000000" font-family="sans-serif" font-size="13" lengthAdjust="spacing" textLength="76" x="330" y="759.5356">- Versioning</text><text fill="#000000" font-family="sans-serif" font-size="13" lengthAdjust="spacing" textLength="96" x="330" y="774.6685">- freeform tags</text><text fill="#000000" font-family="sans-serif" font-size="13" lengthAdjust="spacing" textLength="88" x="330" y="789.8013">- defined tags</text><text fill="#000000" font-family="sans-serif" font-size="13" lengthAdjust="spacing" textLength="139" x="330" y="804.9341">Reject before mutate:</text><text fill="#000000" font-family="sans-serif" font-size="13" lengthAdjust="spacing" textLength="75" x="330" y="820.0669">- name drift</text><text fill="#000000" font-family="sans-serif" font-size="13" lengthAdjust="spacing" textLength="113" x="330" y="835.1997">- namespace drift</text><text fill="#000000" font-family="sans-serif" font-size="13" lengthAdjust="spacing" textLength="117" x="330" y="850.3325">- storageType drift</text><text fill="#000000" font-family="sans-serif" font-size="13" lengthAdjust="spacing" textLength="256" x="330" y="865.4653">- malformed composite bucket identifier</text><path d="M30,885.5313 L100,885.5313 L100,892.6641 L90,902.6641 L30,902.6641 L30,885.5313 " fill="#F8FAFC" style="stroke:#475569;stroke-width:1.5;"/><rect fill="none" height="46.2656" style="stroke:#475569;stroke-width:1.5;" width="406.5" x="30" y="885.5313"/><text fill="#000000" font-family="sans-serif" font-size="13" font-weight="bold" lengthAdjust="spacing" textLength="25" x="45" y="898.5981">opt</text><text fill="#000000" font-family="sans-serif" font-size="11" font-weight="bold" lengthAdjust="spacing" textLength="286" x="115" y="897.7417">[unsupported or immutable drift is detected]</text><polygon fill="#334155" points="87.5,919.7969,77.5,923.7969,87.5,927.7969,83.5,923.7969" style="stroke:#334155;stroke-width:1.0;"/><line style="stroke:#334155;stroke-width:1.0;stroke-dasharray:2.0,2.0;" x1="81.5" x2="361.5" y1="923.7969" y2="923.7969"/><text fill="#000000" font-family="sans-serif" font-size="13" font-weight="bold" lengthAdjust="spacing" textLength="18" x="93.5" y="918.731">13</text><text fill="#000000" font-family="sans-serif" font-size="13" lengthAdjust="spacing" textLength="169" x="115.5" y="918.731">reject before OCI mutation</text><polygon fill="#334155" points="1013.5,955.9297,1023.5,959.9297,1013.5,963.9297,1017.5,959.9297" style="stroke:#334155;stroke-width:1.0;"/><line style="stroke:#334155;stroke-width:1.0;" x1="362.5" x2="1019.5" y1="959.9297" y2="959.9297"/><text fill="#000000" font-family="sans-serif" font-size="13" font-weight="bold" lengthAdjust="spacing" textLength="18" x="369.5" y="954.8638">14</text><text fill="#000000" font-family="sans-serif" font-size="13" lengthAdjust="spacing" textLength="434" x="391.5" y="954.8638">Resolve and persist the bucket namespace before update or delete.</text><polygon fill="#334155" points="1013.5,985.0625,1023.5,989.0625,1013.5,993.0625,1017.5,989.0625" style="stroke:#334155;stroke-width:1.0;"/><line style="stroke:#334155;stroke-width:1.0;" x1="362.5" x2="1019.5" y1="989.0625" y2="989.0625"/><text fill="#000000" font-family="sans-serif" font-size="13" font-weight="bold" lengthAdjust="spacing" textLength="18" x="369.5" y="983.9966">15</text><text fill="#000000" font-family="sans-serif" font-size="13" lengthAdjust="spacing" textLength="418" x="391.5" y="983.9966">Validate the composite bucket identifier before any OCI mutation.</text><polygon fill="#334155" points="1013.5,1014.1953,1023.5,1018.1953,1013.5,1022.1953,1017.5,1018.1953" style="stroke:#334155;stroke-width:1.0;"/><line style="stroke:#334155;stroke-width:1.0;" x1="362.5" x2="1019.5" y1="1018.1953" y2="1018.1953"/><text fill="#000000" font-family="sans-serif" font-size="13" font-weight="bold" lengthAdjust="spacing" textLength="18" x="369.5" y="1013.1294">16</text><text fill="#000000" font-family="sans-serif" font-size="13" lengthAdjust="spacing" textLength="437" x="391.5" y="1013.1294">Diff only the modeled bucket attributes before calling UpdateBucket.</text><path d="M288.5,1033.1953 L358.5,1033.1953 L358.5,1040.3281 L348.5,1050.3281 L288.5,1050.3281 L288.5,1033.1953 " fill="#F8FAFC" style="stroke:#475569;stroke-width:1.5;"/><rect fill="none" height="46.2656" style="stroke:#475569;stroke-width:1.5;" width="765" x="288.5" y="1033.1953"/><text fill="#000000" font-family="sans-serif" font-size="13" font-weight="bold" lengthAdjust="spacing" textLength="25" x="303.5" y="1046.2622">opt</text><text fill="#000000" font-family="sans-serif" font-size="11" font-weight="bold" lengthAdjust="spacing" textLength="258" x="373.5" y="1045.4058">[supported drift or collection diff exists]</text><polygon fill="#334155" points="1013.5,1067.4609,1023.5,1071.4609,1013.5,1075.4609,1017.5,1071.4609" style="stroke:#334155;stroke-width:1.0;"/><line style="stroke:#334155;stroke-width:1.0;" x1="362.5" x2="1019.5" y1="1071.4609" y2="1071.4609"/><text fill="#000000" font-family="sans-serif" font-size="13" font-weight="bold" lengthAdjust="spacing" textLength="18" x="369.5" y="1066.395">17</text><text fill="#000000" font-family="sans-serif" font-size="13" lengthAdjust="spacing" textLength="277" x="391.5" y="1066.395">apply the supported in-place mutation path</text><polygon fill="#334155" points="1097.5,1103.5938,1107.5,1107.5938,1097.5,1111.5938,1101.5,1107.5938" style="stroke:#334155;stroke-width:1.0;"/><line style="stroke:#334155;stroke-width:1.0;" x1="362.5" x2="1103.5" y1="1107.5938" y2="1107.5938"/><text fill="#000000" font-family="sans-serif" font-size="13" font-weight="bold" lengthAdjust="spacing" textLength="18" x="369.5" y="1102.5278">18</text><text fill="#000000" font-family="sans-serif" font-size="13" lengthAdjust="spacing" textLength="351" x="391.5" y="1102.5278">upsert the owned Secret for the usable active resource</text><path d="M30,1122.5938 L94,1122.5938 L94,1129.7266 L84,1139.7266 L30,1139.7266 L30,1122.5938 " fill="#F8FAFC" style="stroke:#475569;stroke-width:1.5;"/><rect fill="none" height="46.2656" style="stroke:#475569;stroke-width:1.5;" width="406.5" x="30" y="1122.5938"/><text fill="#000000" font-family="sans-serif" font-size="13" font-weight="bold" lengthAdjust="spacing" textLength="19" x="45" y="1135.6606">alt</text><text fill="#000000" font-family="sans-serif" font-size="11" font-weight="bold" lengthAdjust="spacing" textLength="116" x="109" y="1134.8042">[Secret sync fails]</text><polygon fill="#334155" points="87.5,1156.8594,77.5,1160.8594,87.5,1164.8594,83.5,1160.8594" style="stroke:#334155;stroke-width:1.0;"/><line style="stroke:#334155;stroke-width:1.0;stroke-dasharray:2.0,2.0;" x1="81.5" x2="361.5" y1="1160.8594" y2="1160.8594"/><text fill="#000000" font-family="sans-serif" font-size="13" font-weight="bold" lengthAdjust="spacing" textLength="18" x="93.5" y="1155.7935">19</text><text fill="#000000" font-family="sans-serif" font-size="13" lengthAdjust="spacing" textLength="150" x="115.5" y="1155.7935">block success and retry</text><polygon fill="#334155" points="87.5,1199.9922,77.5,1203.9922,87.5,1207.9922,83.5,1203.9922" style="stroke:#334155;stroke-width:1.0;"/><line style="stroke:#334155;stroke-width:1.0;stroke-dasharray:2.0,2.0;" x1="81.5" x2="361.5" y1="1203.9922" y2="1203.9922"/><text fill="#000000" font-family="sans-serif" font-size="13" font-weight="bold" lengthAdjust="spacing" textLength="18" x="93.5" y="1198.9263">20</text><text fill="#000000" font-family="sans-serif" font-size="13" lengthAdjust="spacing" textLength="169" x="115.5" y="1198.9263">successful active reconcile</text><path d="M51,1223.9922 L51,1354.9922 L1049,1354.9922 L1049,1233.9922 L1039,1223.9922 L51,1223.9922 " fill="#FEFFDD" style="stroke:#181818;stroke-width:0.5;"/><path d="M1039,1223.9922 L1039,1233.9922 L1049,1233.9922 L1039,1223.9922 " fill="#FEFFDD" style="stroke:#181818;stroke-width:0.5;"/><text fill="#000000" font-family="sans-serif" font-size="13" lengthAdjust="spacing" textLength="105" x="57" y="1241.0591">Boundary notes:</text><text fill="#000000" font-family="sans-serif" font-size="13" lengthAdjust="spacing" textLength="481" x="57" y="1256.1919">- The modeled update surface excludes storage tier and other unreconciled</text><text fill="#000000" font-family="sans-serif" font-size="13" lengthAdjust="spacing" textLength="113" x="73" y="1271.3247">bucket attributes.</text><text fill="#000000" font-family="sans-serif" font-size="13" lengthAdjust="spacing" textLength="451" x="57" y="1286.4575">- Missing Secrets still allow completion, but Secret-delete failures block</text><text fill="#000000" font-family="sans-serif" font-size="13" lengthAdjust="spacing" textLength="109" x="73" y="1301.5903">finalizer removal.</text><text fill="#000000" font-family="sans-serif" font-size="13" lengthAdjust="spacing" textLength="108" x="57" y="1316.7231">Sequence notes:</text><text fill="#000000" font-family="sans-serif" font-size="13" lengthAdjust="spacing" textLength="450" x="57" y="1331.856">- Connection Secret generation happens only after the bucket reaches</text><text fill="#000000" font-family="sans-serif" font-size="13" lengthAdjust="spacing" textLength="46" x="73" y="1346.9888">READY.</text><!--SRC=[bLPBRnit4BxlhnYurqX8waSS7mB8iXK4SPh0TWFqIEtEIgovv9OFsshH_zuPahjQlUpK1qlY3BzvVqCllKBuDlyJImzttbYnGBWCvGDwkCNIw5AI_0x_2gXBB4JmHeTcZhPm3rAtmee6t59Kvadg1TH2EHn8BaNviB0cw6fgbB7moop-3JGcrfgdB3m-FdbtUZeGLbYBeFmzFlk9aWlTeFQWiFP3uzar-AS0-2wibwLiXVQxfizdazbqIydO2crME7b_UdhsWHHkP8qtKkE6zCF9vFZoV2Wz41l09pfjzqCdqK7N9YLLO4Ty_NRsw-ow5m-1tyxUdvrT5_yMWaLmD3NQMwCKsYCG3jO_YtOTDHpTeNsKbBElGbEzasu-oqT59RoO2uTmz6twEIhGv-3qIw0cqEZHmUHxKlXoxefYRH967xT0By3sBLMXanOhS2sM87G5IZuYE2zySCNcDGOYRBujAfZUPgrugvPQAFatAV4X5WLdheKROnxeWpNcKbUKkrr8YkSYIe4oLnAsH_1BkhvO0ZwtYhBbGLRKSxAMQ1qOhLQ7aImweoW4jjcIkdIUu13cQPYqQD2rWcPe7y9sdXufg2evX52QfZLEqg-rDp37sbY49b3OqkW2ASf2A4-9LLGLSeVcmddas5DEhgA0VXuCmOLvGp7JzupoaZ8LkfQswUAhf1DjYpIJF8nFqY-XfZOmJoCo_GbzvfHIAEKWK1Hgc1tfO64qSYMqyNIJkdzym7fiXHHCX31Fclg8-aeJXr4gw0fLquEeFUSfkyVwB2HBPV8SimLEMiB85qk5GfFNBfGbOkMYra5FB3RcCNdIDsEyWSI5sv2raEeG7W6kXuTnlP1w4pSs5mdiAbc8dSt_eoskMvm23Z9gYRdQrsyxbgXLGcePdiazQEmtna6Xd3RipkkmGSS4EbS7rLyRC00D397x7cF4PJ8FKd0vXDp2LjOUbYHHj6vY3dupT8aAOBVSUSDqbHCTsjPO6WK8RHmg5snDatYHvQCuOSIFl5y-L_tf97f_lsgnF_h1WsrqPvoFQeiyYWruiN3zAQqkoIqrEBp5k6I7WpjmWVa1AevluoXInjQvIskQ7TkID4AnAt4SEixe9godZgvrUD9IPARriLfTcgZCic47vofRuB9KD71b8fIVQjzXj5pVdghMhNkGN6v_aamx_5nOSZmHr_Wby1_xoNKdKHsuqAkD05u4lv9r7JT5H6yC-rDrsC9xA-U1bsR6PZxabzFlCO14akE-AEkIf2hmekBy9fwhs1G-KsuEKrJqYOWv-xC6b7hKAivW5nMqmYzVgKqalD0wj7v0lPdZQcO7EampsqqnhyLWI-ofDckxbIx_3ntEbIaV83FAGHvy5MP0IRs3cP3I2btpoVfQvf9Btah2hkBWE1xT4TmFYhp9BbIPKWLwvdJp2bvc1ZUK9aiJrvlkPcgdJSRHo5Vf73T9IXq3IaN-ytQD_PjMsnkwtgLtb5y1dE1WkTquVTdAUft4tINKEEOjlwC7mKrtTke2DThKBajUzpgzYlAk7KmeFQVA9VRKTpsv-cDSzAJp7m00]--></g></svg>