<?xml version="1.0" encoding="UTF-8" standalone="no"?><svg xmlns="http://www.w3.org/2000/svg" xmlns:xlink="http://www.w3.org/1999/xlink" contentStyleType="text/css" height="524px" preserveAspectRatio="none" style="width:2773px;height:524px;background:#FFFFFF;" version="1.1" viewBox="0 0 2773 524" width="2773px" zoomAndPan="magnify"><defs/><g><text fill="#000000" font-family="sans-serif" font-size="14" font-weight="bold" lengthAdjust="spacing" textLength="374" x="1192.605" y="22.9951">Object Storage Bucket Reconcile State Machine</text><ellipse cx="16" cy="348.2969" fill="#222222" rx="10" ry="10" style="stroke:none;stroke-width:1.0;"/><g id="Observe"><rect fill="#F8FAFC" height="50.2656" rx="6" ry="6" style="stroke:#475569;stroke-width:0.5;" width="329" x="86" y="323.2969"/><line style="stroke:#475569;stroke-width:0.5;" x1="86" x2="415" y1="349.5938" y2="349.5938"/><text fill="#0F172A" font-family="sans-serif" font-size="14" lengthAdjust="spacing" textLength="58" x="221.5" y="341.292">Observe</text><text fill="#0F172A" font-family="sans-serif" font-size="12" lengthAdjust="spacing" textLength="309" x="91" y="365.7324">read spec, status, delete intent, and OCI lifecycle</text></g><rect fill="#F8FAFC" height="40" rx="6" ry="6" style="stroke:#475569;stroke-width:0.5;" width="147" x="475" y="328.2969"/><text fill="#0F172A" font-family="sans-serif" font-size="14" lengthAdjust="spacing" textLength="137" x="480" y="353.1436">ResolveNamespace</text><rect fill="#F8FAFC" height="40" rx="6" ry="6" style="stroke:#475569;stroke-width:0.5;" width="153" x="682" y="328.2969"/><text fill="#0F172A" font-family="sans-serif" font-size="14" lengthAdjust="spacing" textLength="143" x="687" y="353.1436">ValidateCompositeID</text><rect fill="#F8FAFC" height="40" rx="6" ry="6" style="stroke:#475569;stroke-width:0.5;" width="111" x="895" y="253.2969"/><text fill="#0F172A" font-family="sans-serif" font-size="14" lengthAdjust="spacing" textLength="101" x="900" y="278.1436">EvaluateReady</text><rect fill="#F8FAFC" height="40" rx="6" ry="6" style="stroke:#475569;stroke-width:0.5;" width="75" x="1305.5" y="346.2969"/><text fill="#0F172A" font-family="sans-serif" font-size="14" lengthAdjust="spacing" textLength="65" x="1310.5" y="371.1436">Retryable</text><rect fill="#F8FAFC" height="40" rx="6" ry="6" style="stroke:#475569;stroke-width:0.5;" width="50" x="925.5" y="419.2969"/><text fill="#0F172A" font-family="sans-serif" font-size="14" lengthAdjust="spacing" textLength="40" x="930.5" y="444.1436">Failed</text><rect fill="#F8FAFC" height="40" rx="6" ry="6" style="stroke:#475569;stroke-width:0.5;" width="173" x="1066" y="178.2969"/><text fill="#0F172A" font-family="sans-serif" font-size="14" lengthAdjust="spacing" textLength="163" x="1071" y="203.1436">RejectUnsupportedDrift</text><rect fill="#F8FAFC" height="40" rx="6" ry="6" style="stroke:#475569;stroke-width:0.5;" width="53" x="1476" y="178.2969"/><text fill="#0F172A" font-family="sans-serif" font-size="14" lengthAdjust="spacing" textLength="43" x="1481" y="203.1436">Ready</text><rect fill="#F8FAFC" height="40" rx="6" ry="6" style="stroke:#475569;stroke-width:0.5;" width="97" x="1104" y="253.2969"/><text fill="#0F172A" font-family="sans-serif" font-size="14" lengthAdjust="spacing" textLength="87" x="1109" y="278.1436">ApplyUpdate</text><rect fill="#F8FAFC" height="40" rx="6" ry="6" style="stroke:#475569;stroke-width:0.5;" width="88" x="1299" y="253.2969"/><text fill="#0F172A" font-family="sans-serif" font-size="14" lengthAdjust="spacing" textLength="78" x="1304" y="278.1436">SyncSecret</text><rect fill="#F8FAFC" height="40" rx="6" ry="6" style="stroke:#475569;stroke-width:0.5;" width="111" x="1447" y="253.2969"/><text fill="#0F172A" font-family="sans-serif" font-size="14" lengthAdjust="spacing" textLength="101" x="1452" y="278.1436">SecretBlocked</text><rect fill="#F8FAFC" height="40" rx="6" ry="6" style="stroke:#475569;stroke-width:0.5;" width="113" x="1770" y="360.2969"/><text fill="#0F172A" font-family="sans-serif" font-size="14" lengthAdjust="spacing" textLength="103" x="1775" y="385.1436">DeletePending</text><rect fill="#F8FAFC" height="40" rx="6" ry="6" style="stroke:#475569;stroke-width:0.5;" width="169" x="2209.5" y="296.2969"/><text fill="#0F172A" font-family="sans-serif" font-size="14" lengthAdjust="spacing" textLength="159" x="2214.5" y="321.1436">DeleteCleanupBlocked</text><rect fill="#F8FAFC" height="40" rx="6" ry="6" style="stroke:#475569;stroke-width:0.5;" width="65" x="2553" y="296.2969"/><text fill="#0F172A" font-family="sans-serif" font-size="14" lengthAdjust="spacing" textLength="55" x="2558" y="321.1436">Deleted</text><g id="elem_GMN39"><path d="M1618,49.2969 L1618,194.2969 L1529.01,198.2969 L1618,202.2969 L1618,319.6875 A6,6 0 0 0 1624,325.6875 L2029,325.6875 A6,6 0 0 0 2035,319.6875 L2035,53.2969 L2025,43.2969 L1624,43.2969 A6,6 0 0 0 1618,49.2969 " fill="#FFF7ED" style="stroke:#181818;stroke-width:0.5;"/><path d="M2025,43.2969 L2025,50.2969 A3,3 0 0 0 2028,53.2969 L2035,53.2969 L2025,43.2969 " fill="#FFF7ED" style="stroke:#181818;stroke-width:0.5;"/><text fill="#0F172A" font-family="sans-serif" font-size="13" lengthAdjust="spacing" textLength="69" x="1624" y="60.3638">Archetype:</text><text fill="#0F172A" font-family="sans-serif" font-size="13" lengthAdjust="spacing" textLength="182" x="1624" y="75.4966">- bindonly-drift-delete-secret</text><text fill="#0F172A" font-family="sans-serif" font-size="13" lengthAdjust="spacing" textLength="102" x="1624" y="90.6294">Update surface:</text><text fill="#0F172A" font-family="sans-serif" font-size="13" lengthAdjust="spacing" textLength="108" x="1624" y="105.7622">- compartmentId</text><text fill="#0F172A" font-family="sans-serif" font-size="13" lengthAdjust="spacing" textLength="84" x="1624" y="120.895">- AccessType</text><text fill="#0F172A" font-family="sans-serif" font-size="13" lengthAdjust="spacing" textLength="76" x="1624" y="136.0278">- Versioning</text><text fill="#0F172A" font-family="sans-serif" font-size="13" lengthAdjust="spacing" textLength="96" x="1624" y="151.1606">- freeform tags</text><text fill="#0F172A" font-family="sans-serif" font-size="13" lengthAdjust="spacing" textLength="88" x="1624" y="166.2935">- defined tags</text><text fill="#0F172A" font-family="sans-serif" font-size="13" lengthAdjust="spacing" textLength="139" x="1624" y="181.4263">Reject before mutate:</text><text fill="#0F172A" font-family="sans-serif" font-size="13" lengthAdjust="spacing" textLength="75" x="1624" y="196.5591">- name drift</text><text fill="#0F172A" font-family="sans-serif" font-size="13" lengthAdjust="spacing" textLength="113" x="1624" y="211.6919">- namespace drift</text><text fill="#0F172A" font-family="sans-serif" font-size="13" lengthAdjust="spacing" textLength="117" x="1624" y="226.8247">- storageType drift</text><text fill="#0F172A" font-family="sans-serif" font-size="13" lengthAdjust="spacing" textLength="256" x="1624" y="241.9575">- malformed composite bucket identifier</text><text fill="#0F172A" font-family="sans-serif" font-size="13" lengthAdjust="spacing" textLength="105" x="1624" y="257.0903">Boundary notes:</text><text fill="#0F172A" font-family="sans-serif" font-size="13" lengthAdjust="spacing" textLength="396" x="1624" y="272.2231">- The modeled update surface excludes storage tier and other</text><text fill="#0F172A" font-family="sans-serif" font-size="13" lengthAdjust="spacing" textLength="198" x="1640" y="287.356">unreconciled bucket attributes.</text><text fill="#0F172A" font-family="sans-serif" font-size="13" lengthAdjust="spacing" textLength="364" x="1624" y="302.4888">- Missing Secrets still allow completion, but Secret-delete</text><text fill="#0F172A" font-family="sans-serif" font-size="13" lengthAdjust="spacing" textLength="196" x="1640" y="317.6216">failures block finalizer removal.</text></g><g id="elem_GMN42"><path d="M2095,377.2969 L2095,381.7969 L1883.36,385.7969 L2095,389.7969 L2095,511.4922 A6,6 0 0 0 2101,517.4922 L2487,517.4922 A6,6 0 0 0 2493,511.4922 L2493,381.2969 L2483,371.2969 L2101,371.2969 A6,6 0 0 0 2095,377.2969 " fill="#FFF7ED" style="stroke:#181818;stroke-width:0.5;"/><path d="M2483,371.2969 L2483,378.2969 A3,3 0 0 0 2486,381.2969 L2493,381.2969 L2483,371.2969 " fill="#FFF7ED" style="stroke:#181818;stroke-width:0.5;"/><text fill="#0F172A" font-family="sans-serif" font-size="13" lengthAdjust="spacing" textLength="90" x="2101" y="388.3638">Delete states:</text><text fill="#0F172A" font-family="sans-serif" font-size="13" lengthAdjust="spacing" textLength="102" x="2101" y="403.4966">- DeletePending</text><text fill="#0F172A" font-family="sans-serif" font-size="13" lengthAdjust="spacing" textLength="153" x="2101" y="418.6294">- DeleteCleanupBlocked</text><text fill="#0F172A" font-family="sans-serif" font-size="13" lengthAdjust="spacing" textLength="59" x="2101" y="433.7622">- Deleted</text><text fill="#0F172A" font-family="sans-serif" font-size="13" lengthAdjust="spacing" textLength="103" x="2101" y="448.895">Delete workflow:</text><text fill="#0F172A" font-family="sans-serif" font-size="13" lengthAdjust="spacing" textLength="364" x="2101" y="464.0278">- Confirm bucket disappearance with follow-up GetBucket</text><text fill="#0F172A" font-family="sans-serif" font-size="13" lengthAdjust="spacing" textLength="267" x="2117" y="479.1606">calls until the bucket is gone or not found.</text><text fill="#0F172A" font-family="sans-serif" font-size="13" lengthAdjust="spacing" textLength="377" x="2101" y="494.2935">- Delete the owned connection Secret after bucket deletion</text><text fill="#0F172A" font-family="sans-serif" font-size="13" lengthAdjust="spacing" textLength="82" x="2117" y="509.4263">is confirmed.</text></g><!--link *start to Observe--><g id="link_*start_Observe"><path d="M26.08,348.2969 C26.08,348.2969 80.84,348.2969 80.84,348.2969 " fill="none" id="*start-to-Observe" style="stroke:#181818;stroke-width:1.0;"/><polygon fill="#181818" points="85.84,348.2969,76.84,344.2969,80.84,348.2969,76.84,352.2969,85.84,348.2969" style="stroke:#181818;stroke-width:1.0;"/></g><!--link Observe to ResolveNamespace--><g id="link_Observe_ResolveNamespace"><path d="M415.19,348.2969 C415.19,348.2969 469.88,348.2969 469.88,348.2969 " fill="none" id="Observe-to-ResolveNamespace" style="stroke:#181818;stroke-width:1.0;"/><polygon fill="#181818" points="474.88,348.2969,465.88,344.2969,469.88,348.2969,465.88,352.2969,474.88,348.2969" style="stroke:#181818;stroke-width:1.0;"/><text fill="#000000" font-family="sans-serif" font-size="13" lengthAdjust="spacing" textLength="303" x="443.53" y="361.3638">namespace is required before mutate or delete</text></g><!--link ResolveNamespace to ValidateCompositeID--><g id="link_ResolveNamespace_ValidateCompositeID"><path d="M622.24,348.2969 C622.24,348.2969 676.73,348.2969 676.73,348.2969 " fill="none" id="ResolveNamespace-to-ValidateCompositeID" style="stroke:#181818;stroke-width:1.0;"/><polygon fill="#181818" points="681.73,348.2969,672.73,344.2969,676.73,348.2969,672.73,352.2969,681.73,348.2969" style="stroke:#181818;stroke-width:1.0;"/><text fill="#000000" font-family="sans-serif" font-size="13" lengthAdjust="spacing" textLength="252" x="650.49" y="344.3638">validate the bucket composite identifier</text></g><!--link ValidateCompositeID to EvaluateReady--><g id="link_ValidateCompositeID_EvaluateReady"><path d="M835.27,330.9669 C871.11,330.9669 906,330.9669 906,330.9669 C906,330.9669 906,298.4669 906,298.4669 " fill="none" id="ValidateCompositeID-to-EvaluateReady" style="stroke:#181818;stroke-width:1.0;"/><polygon fill="#181818" points="906,293.4669,902,302.4669,906,298.4669,910,302.4669,906,293.4669" style="stroke:#181818;stroke-width:1.0;"/><text fill="#000000" font-family="sans-serif" font-size="13" lengthAdjust="spacing" textLength="120" x="887.89" y="327.0338">OCI state in READY</text></g><!--link ValidateCompositeID to Retryable--><g id="link_ValidateCompositeID_Retryable"><path d="M835.21,357.2969 C835.21,357.2969 1300.34,357.2969 1300.34,357.2969 " fill="none" id="ValidateCompositeID-to-Retryable" style="stroke:#181818;stroke-width:1.0;"/><polygon fill="#181818" points="1305.34,357.2969,1296.34,353.2969,1300.34,357.2969,1296.34,361.2969,1305.34,357.2969" style="stroke:#181818;stroke-width:1.0;"/><text fill="#000000" font-family="sans-serif" font-size="13" lengthAdjust="spacing" textLength="299" x="1068.78" y="353.3638">OCI state in CREATING, UPDATING, RESOLVING</text></g><!--link ValidateCompositeID to Failed--><g id="link_ValidateCompositeID_Failed"><path d="M835.14,362.7969 C885.83,362.7969 943,362.7969 943,362.7969 C943,362.7969 943,414.1969 943,414.1969 " fill="none" id="ValidateCompositeID-to-Failed" style="stroke:#181818;stroke-width:1.0;"/><polygon fill="#181818" points="943,419.1969,947,410.1969,943,414.1969,939,410.1969,943,419.1969" style="stroke:#181818;stroke-width:1.0;"/><text fill="#000000" font-family="sans-serif" font-size="13" lengthAdjust="spacing" textLength="188" x="915.77" y="375.8638">OCI state in FAILED, DELETED</text></g><!--link EvaluateReady to RejectUnsupportedDrift--><g id="link_EvaluateReady_RejectUnsupportedDrift"><path d="M1006.37,266.6269 C1043.33,266.6269 1085,266.6269 1085,266.6269 C1085,266.6269 1085,223.4269 1085,223.4269 " fill="none" id="EvaluateReady-to-RejectUnsupportedDrift" style="stroke:#181818;stroke-width:1.0;"/><polygon fill="#181818" points="1085,218.4269,1081,227.4269,1085,223.4269,1089,227.4269,1085,218.4269" style="stroke:#181818;stroke-width:1.0;"/><text fill="#000000" font-family="sans-serif" font-size="13" lengthAdjust="spacing" textLength="275" x="791.29" y="262.6938">unsupported or immutable drift is detected</text></g><!--link RejectUnsupportedDrift to Ready--><g id="link_RejectUnsupportedDrift_Ready"><path d="M1239.02,188.2969 C1239.02,188.2969 1470.91,188.2969 1470.91,188.2969 " fill="none" id="RejectUnsupportedDrift-to-Ready" style="stroke:#181818;stroke-width:1.0;"/><polygon fill="#181818" points="1475.91,188.2969,1466.91,184.2969,1470.91,188.2969,1466.91,192.2969,1475.91,188.2969" style="stroke:#181818;stroke-width:1.0;"/><text fill="#000000" font-family="sans-serif" font-size="13" lengthAdjust="spacing" textLength="252" x="1355.96" y="184.3638">wait for the spec or live state to change</text></g><!--link EvaluateReady to ApplyUpdate--><g id="link_EvaluateReady_ApplyUpdate"><path d="M1006.23,279.9669 C1006.23,279.9669 1098.82,279.9669 1098.82,279.9669 " fill="none" id="EvaluateReady-to-ApplyUpdate" style="stroke:#181818;stroke-width:1.0;"/><polygon fill="#181818" points="1103.82,279.9669,1094.82,275.9669,1098.82,279.9669,1094.82,283.9669,1103.82,279.9669" style="stroke:#181818;stroke-width:1.0;"/><text fill="#000000" font-family="sans-serif" font-size="13" lengthAdjust="spacing" textLength="158" x="1053.53" y="293.0338">continue active reconcile</text></g><!--link ApplyUpdate to SyncSecret--><g id="link_ApplyUpdate_SyncSecret"><path d="M1201.06,273.2969 C1201.06,273.2969 1293.76,273.2969 1293.76,273.2969 " fill="none" id="ApplyUpdate-to-SyncSecret" style="stroke:#181818;stroke-width:1.0;"/><polygon fill="#181818" points="1298.76,273.2969,1289.76,269.2969,1293.76,273.2969,1289.76,277.2969,1298.76,273.2969" style="stroke:#181818;stroke-width:1.0;"/><text fill="#000000" font-family="sans-serif" font-size="13" lengthAdjust="spacing" textLength="231" x="1015.41" y="269.3638">supported mutation path completes</text></g><!--link SyncSecret to SecretBlocked--><g id="link_SyncSecret_SecretBlocked"><path d="M1387.01,279.9669 C1387.01,279.9669 1441.94,279.9669 1441.94,279.9669 " fill="none" id="SyncSecret-to-SecretBlocked" style="stroke:#181818;stroke-width:1.0;"/><polygon fill="#181818" points="1446.94,279.9669,1437.94,275.9669,1441.94,279.9669,1437.94,283.9669,1446.94,279.9669" style="stroke:#181818;stroke-width:1.0;"/><text fill="#000000" font-family="sans-serif" font-size="13" lengthAdjust="spacing" textLength="105" x="1415.48" y="293.0338">Secret write fails</text></g><!--link SecretBlocked to SyncSecret--><g id="link_SecretBlocked_SyncSecret"><path d="M1446.71,266.6269 C1446.71,266.6269 1392.2,266.6269 1392.2,266.6269 " fill="none" id="SecretBlocked-to-SyncSecret" style="stroke:#181818;stroke-width:1.0;"/><polygon fill="#181818" points="1387.2,266.6269,1396.2,270.6269,1392.2,266.6269,1396.2,262.6269,1387.2,266.6269" style="stroke:#181818;stroke-width:1.0;"/><text fill="#000000" font-family="sans-serif" font-size="13" lengthAdjust="spacing" textLength="109" x="1309.46" y="262.6938">retry Secret sync</text></g><!--link SyncSecret to Ready--><g id="link_SyncSecret_Ready"><path d="M1343,253.1969 C1343,230.9869 1343,198.2969 1343,198.2969 C1343,198.2969 1470.8,198.2969 1470.8,198.2969 " fill="none" id="SyncSecret-to-Ready" style="stroke:#181818;stroke-width:1.0;"/><polygon fill="#181818" points="1475.8,198.2969,1466.8,194.2969,1470.8,198.2969,1466.8,202.2969,1475.8,198.2969" style="stroke:#181818;stroke-width:1.0;"/><text fill="#000000" font-family="sans-serif" font-size="13" lengthAdjust="spacing" textLength="176" x="1380.45" y="202.8638">Secret side effects succeed</text></g><!--link Ready to Ready--><g id="link_Ready_Ready"><path d="M1475.71,208.2969 C1468.18,208.2969 1462,208.2969 1462,208.2969 C1462,208.2969 1462,235.7969 1462,235.7969 C1462,235.7969 1544,235.7969 1544,235.7969 C1544,235.7969 1544,188.2969 1544,188.2969 C1544,188.2969 1534.02,188.2969 1534.02,188.2969 " fill="none" id="Ready-to-Ready" style="stroke:#181818;stroke-width:1.0;"/><polygon fill="#181818" points="1529.02,188.2969,1538.02,192.2969,1534.02,188.2969,1538.02,184.2969,1529.02,188.2969" style="stroke:#181818;stroke-width:1.0;"/><text fill="#000000" font-family="sans-serif" font-size="13" lengthAdjust="spacing" textLength="170" x="1335.14" y="226.8638">no supported drift remains</text></g><!--link Retryable to Retryable--><g id="link_Retryable_Retryable"><path d="M1305.13,351.7969 C1286.93,351.7969 1269,351.7969 1269,351.7969 C1269,351.7969 1269,339.6269 1269,339.6269 C1269,339.6269 1417,339.6269 1417,339.6269 C1417,339.6269 1417,353.2969 1417,353.2969 C1417,353.2969 1385.87,353.2969 1385.87,353.2969 " fill="none" id="Retryable-to-Retryable" style="stroke:#181818;stroke-width:1.0;"/><polygon fill="#181818" points="1380.87,353.2969,1389.87,357.2969,1385.87,353.2969,1389.87,349.2969,1380.87,353.2969" style="stroke:#181818;stroke-width:1.0;"/><text fill="#000000" font-family="sans-serif" font-size="13" lengthAdjust="spacing" textLength="159" x="1176.25" y="330.6938">OCI remains nonterminal</text></g><!--link Failed to Failed--><g id="link_Failed_Failed"><path d="M925.43,439.2969 C920.08,439.2969 916,439.2969 916,439.2969 C916,439.2969 916,409.7969 916,409.7969 C916,409.7969 991,409.7969 991,409.7969 C991,409.7969 991,439.2969 991,439.2969 C991,439.2969 980.92,439.2969 980.92,439.2969 " fill="none" id="Failed-to-Failed" style="stroke:#181818;stroke-width:1.0;"/><polygon fill="#181818" points="975.92,439.2969,984.92,443.2969,980.92,439.2969,984.92,435.2969,975.92,439.2969" style="stroke:#181818;stroke-width:1.0;"/><text fill="#000000" font-family="sans-serif" font-size="13" lengthAdjust="spacing" textLength="135" x="812.83" y="400.8638">OCI remains terminal</text></g><!--link Ready to DeletePending--><g id="link_Ready_DeletePending"><path d="M1529.08,208.2969 C1554.18,208.2969 1588,208.2969 1588,208.2969 C1588,208.2969 1588,368.9669 1588,368.9669 C1588,368.9669 1764.98,368.9669 1764.98,368.9669 " fill="none" id="Ready-to-DeletePending" style="stroke:#181818;stroke-width:1.0;"/><polygon fill="#181818" points="1769.98,368.9669,1760.98,364.9669,1764.98,368.9669,1760.98,372.9669,1769.98,368.9669" style="stroke:#181818;stroke-width:1.0;"/><text fill="#000000" font-family="sans-serif" font-size="13" lengthAdjust="spacing" textLength="109" x="1478" y="360.7238">delete requested</text></g><!--link Retryable to DeletePending--><g id="link_Retryable_DeletePending"><path d="M1380.54,377.6269 C1380.54,377.6269 1764.67,377.6269 1764.67,377.6269 " fill="none" id="Retryable-to-DeletePending" style="stroke:#181818;stroke-width:1.0;"/><polygon fill="#181818" points="1769.67,377.6269,1760.67,373.6269,1764.67,377.6269,1760.67,381.6269,1769.67,377.6269" style="stroke:#181818;stroke-width:1.0;"/><text fill="#000000" font-family="sans-serif" font-size="13" lengthAdjust="spacing" textLength="109" x="1462.6" y="390.6938">delete requested</text></g><!--link Failed to DeletePending--><g id="link_Failed_DeletePending"><path d="M959,419.2569 C959,406.8569 959,393.2969 959,393.2969 C959,393.2969 1764.92,393.2969 1764.92,393.2969 " fill="none" id="Failed-to-DeletePending" style="stroke:#181818;stroke-width:1.0;"/><polygon fill="#181818" points="1769.92,393.2969,1760.92,389.2969,1764.92,393.2969,1760.92,397.2969,1769.92,393.2969" style="stroke:#181818;stroke-width:1.0;"/><text fill="#000000" font-family="sans-serif" font-size="13" lengthAdjust="spacing" textLength="109" x="1238.98" y="406.3638">delete requested</text></g><!--link DeletePending to DeleteCleanupBlocked--><g id="link_DeletePending_DeleteCleanupBlocked"><path d="M1827,360.2369 C1827,347.5869 1827,333.6269 1827,333.6269 C1827,333.6269 2204.43,333.6269 2204.43,333.6269 " fill="none" id="DeletePending-to-DeleteCleanupBlocked" style="stroke:#181818;stroke-width:1.0;"/><polygon fill="#181818" points="2209.43,333.6269,2200.43,329.6269,2204.43,333.6269,2200.43,337.6269,2209.43,333.6269" style="stroke:#181818;stroke-width:1.0;"/><text fill="#000000" font-family="sans-serif" font-size="13" lengthAdjust="spacing" textLength="274" x="1727.41" y="346.6938">owned Secret cleanup fails after OCI delete</text></g><!--link DeleteCleanupBlocked to Deleted--><g id="link_DeleteCleanupBlocked_Deleted"><path d="M2378.71,309.6269 C2378.71,309.6269 2547.72,309.6269 2547.72,309.6269 " fill="none" id="DeleteCleanupBlocked-to-Deleted" style="stroke:#181818;stroke-width:1.0;"/><polygon fill="#181818" points="2552.72,309.6269,2543.72,305.6269,2547.72,309.6269,2543.72,313.6269,2552.72,309.6269" style="stroke:#181818;stroke-width:1.0;"/><text fill="#000000" font-family="sans-serif" font-size="13" lengthAdjust="spacing" textLength="301" x="2464.21" y="305.6938">retry Secret cleanup until completion is allowed</text></g><!--link Deleted to Deleted--><g id="link_Deleted_Deleted"><path d="M2552.79,322.9669 C2537.66,322.9669 2523,322.9669 2523,322.9669 C2523,322.9669 2523,342.9669 2523,342.9669 C2523,342.9669 2636,342.9669 2636,342.9669 C2636,342.9669 2636,316.2969 2636,316.2969 C2636,316.2969 2623.05,316.2969 2623.05,316.2969 " fill="none" id="Deleted-to-Deleted" style="stroke:#181818;stroke-width:1.0;"/><polygon fill="#181818" points="2618.05,316.2969,2627.05,320.2969,2623.05,316.2969,2627.05,312.2969,2618.05,316.2969" style="stroke:#181818;stroke-width:1.0;"/><text fill="#000000" font-family="sans-serif" font-size="13" lengthAdjust="spacing" textLength="100" x="2468.41" y="361.0338">terminal stutter</text></g><!--SRC=[XLPDRnit4Btlho3GMo4PIHhNZGy5z1aOSE90iWq4GGyKEIknvf9Racj5BVBV-qZkIYjPHdpnafnvd9dtPgYWWYPsj_gRH63BO1rV4nituea2Mv2mHYYSBmCFn3vniL662arbOC4ofzQRmAHoy5NM51ibYL5LXnsJv8LJTThsJyhKtF6A-GsNTglCcfLSU-gTQE26NKtCkh2nlGDd6oE5TOOSU_kkTp3cuccTJYTMMyT-cQU_deMaaZSwtDFtCD9gRIeoWSNO-n6bnFuh61jR9ycrME-lBYz__u3TkJMXtNipVtlrRXGjNzpyntmqdnG_UhZ6deCTlx_yxSs7in3p-TLiUlR27yMtN_zYm-6VOCcJUwQY_S-kcICkcQz9358cZHyWQqsuMvc0T0UC6ydk9ZSeS4bY9_J1Eo8ko5lzJ9zvHRxc8aAQ_RVomF-d0RsIhQYqZbZLf7eXkdnDyG8WeZvohIJi9hQghLU1RgO0VcvtMTWGMsM5YSw2GJecg5AHAywvHzWP41hiBv3q3e0nhSoVCcmn6qs_lkgweE1sVANfr6q2l_kRpny7xE7BjFrQp9Ptju_uV1Lkpj4KyXHhFhgvdKq7R3gxdTs3pEDuSnYnpHwCR-eQGYSvTGgjTCsQmrOihgfYeMEuCXc02Obg2nmNhs1a-5oOBLU1WQzKwQYEYAaLEC-nedN5XfirdGbnLDTwzr0degx13qWn3J6E3eU_woP2qRUBVikT4KiIZc8wXsIIO304MCt39j4TPUEBdddoJfzZRQ6AMDVsQEkYD4fK6nv79Y-kT97Xpi_ZvFIAhZYTIPfL9PeYUCGh1ANQ7fZAriRsaibaEAguChuuQEgSmbeh0A0HNQKCrqKhcnSAwcptXeSufgdDlf2HSMfUTzqT-v9ybaC_Yf-QzqBugUsnmS5beecRfZwmPRS6_zl2YdoQMMEyH58foNPWd8KuOCjJAZku1aBKdO2YeD0JN6kxtGTw2jDL4w9l0XP5aOPoVhHicIakHaviqijpNGpPIXbfZTuD4zF37FBGfqYALko-SIK6NJIFqN0Nuhjo8x4UGKNUtmCCYqTo7d6YT5YKZk80hLZWQuyrdYOLQvQMkQEFHso4ZvCuQwvTv0dRxVZyMCVhzdiLr_4Q81ycQpjgUmDs71yUZXh7WlXurJq6HMLZlf8rHtao-YvqW-Uykuy5GAHdnMAyE3nP3EJi1uFixkCXEBLgSC45BlYal8ygogn6CALr9h17wW3EeRLfgv_mevOQXnXMKJ2iZBIgVn46EiTYX5qK46dAvfJa8mstGibJCELzV3myA_3zTYSqjhNkgKJa4M5YJQb0R9krL9xNDU4tW47jjWf3hxGnoo4q_17pAvcbf0IozwskUqyYTBss9hsnI0NUuEfY7qEopFs6WflymwlhbTniNIIKQvhk0gZ8WPBi5Uj_]--></g></svg>