<?xml version="1.0" encoding="UTF-8" standalone="no"?><svg xmlns="http://www.w3.org/2000/svg" xmlns:xlink="http://www.w3.org/1999/xlink" contentStyleType="text/css" height="1246px" preserveAspectRatio="none" style="width:1795px;height:1246px;background:#FFFFFF;" version="1.1" viewBox="0 0 1795 1246" width="1795px" zoomAndPan="magnify"><defs/><g><text fill="#000000" font-family="sans-serif" font-size="14" font-weight="bold" lengthAdjust="spacing" textLength="274" x="759.375" y="32.9951">NoSQL Database Reconcile Activity</text><ellipse cx="719.625" cy="57.2969" fill="#0F766E" rx="10" ry="10" style="stroke:#222222;stroke-width:1.0;"/><rect fill="none" height="308.1719" style="stroke:#000000;stroke-width:1.5;" width="686" x="397.125" y="77.2969"/><path d="M530.125,77.2969 L530.125,86.5938 L520.125,96.5938 L397.125,96.5938 " fill="none" style="stroke:#000000;stroke-width:1.5;"/><text fill="#000000" font-family="sans-serif" font-size="14" lengthAdjust="spacing" textLength="123" x="400.125" y="91.292">Observe and Bind</text><rect fill="#F8FAFC" height="33.9688" rx="12.5" ry="12.5" style="stroke:#475569;stroke-width:0.5;" width="304" x="567.625" y="113.5938"/><text fill="#0F172A" font-family="sans-serif" font-size="12" lengthAdjust="spacing" textLength="284" x="577.625" y="134.7324">Read CR spec, status OCID, and delete intent</text><rect fill="#F8FAFC" height="33.9688" rx="12.5" ry="12.5" style="stroke:#475569;stroke-width:0.5;" width="460" x="489.625" y="167.5625"/><text fill="#0F172A" font-family="sans-serif" font-size="12" lengthAdjust="spacing" textLength="440" x="499.625" y="188.7012">Keep status-bound OCID authoritative for later update or delete paths</text><polygon fill="#E2E8F0" points="619.625,221.5313,819.625,221.5313,831.625,233.5313,819.625,245.5313,619.625,245.5313,607.625,233.5313,619.625,221.5313" style="stroke:#475569;stroke-width:0.5;"/><text fill="#0F172A" font-family="sans-serif" font-size="11" lengthAdjust="spacing" textLength="200" x="619.625" y="237.3394">"Tracked or explicit OCID present?"</text><text fill="#000000" font-family="sans-serif" font-size="11" lengthAdjust="spacing" textLength="20" x="587.625" y="230.937">yes</text><text fill="#000000" font-family="sans-serif" font-size="11" lengthAdjust="spacing" textLength="14" x="831.625" y="230.937">no</text><rect fill="#F8FAFC" height="33.9688" rx="12.5" ry="12.5" style="stroke:#475569;stroke-width:0.5;" width="272" x="417.125" y="255.5313"/><text fill="#0F172A" font-family="sans-serif" font-size="12" lengthAdjust="spacing" textLength="252" x="427.125" y="276.6699">Get the OCI resource by known identifier</text><rect fill="#F8FAFC" height="33.9688" rx="12.5" ry="12.5" style="stroke:#475569;stroke-width:0.5;" width="328" x="722.125" y="255.5313"/><text fill="#0F172A" font-family="sans-serif" font-size="12" lengthAdjust="spacing" textLength="308" x="732.125" y="276.6699">Resolve an existing OCI resource by display name</text><rect fill="#F8FAFC" height="33.9688" rx="12.5" ry="12.5" style="stroke:#475569;stroke-width:0.5;" width="354" x="709.125" y="309.5"/><text fill="#0F172A" font-family="sans-serif" font-size="12" lengthAdjust="spacing" textLength="334" x="719.125" y="330.6387">Persist the resolved or created OCID back into status</text><polygon fill="#E2E8F0" points="719.625,349.4688,731.625,361.4688,719.625,373.4688,707.625,361.4688,719.625,349.4688" style="stroke:#475569;stroke-width:0.5;"/><path d="M1377.75,652.3828 L1377.75,1025.5703 L1783.75,1025.5703 L1783.75,662.3828 L1773.75,652.3828 L1377.75,652.3828 " fill="#FEFFDD" style="stroke:#181818;stroke-width:0.5;"/><path d="M1773.75,652.3828 L1773.75,662.3828 L1783.75,662.3828 L1773.75,652.3828 " fill="#FEFFDD" style="stroke:#181818;stroke-width:0.5;"/><text fill="#000000" font-family="sans-serif" font-size="13" lengthAdjust="spacing" textLength="69" x="1383.75" y="669.4497">Archetype:</text><text fill="#000000" font-family="sans-serif" font-size="13" lengthAdjust="spacing" textLength="138" x="1383.75" y="684.5825">- resolved-drift-delete</text><text fill="#000000" font-family="sans-serif" font-size="13" lengthAdjust="spacing" textLength="134" x="1383.75" y="699.7153">Retryable OCI states:</text><text fill="#000000" font-family="sans-serif" font-size="13" lengthAdjust="spacing" textLength="73" x="1383.75" y="714.8481">- CREATING</text><text fill="#000000" font-family="sans-serif" font-size="13" lengthAdjust="spacing" textLength="76" x="1383.75" y="729.981">- UPDATING</text><text fill="#000000" font-family="sans-serif" font-size="13" lengthAdjust="spacing" textLength="113" x="1383.75" y="745.1138">Active OCI states:</text><text fill="#000000" font-family="sans-serif" font-size="13" lengthAdjust="spacing" textLength="54" x="1383.75" y="760.2466">- ACTIVE</text><text fill="#000000" font-family="sans-serif" font-size="13" lengthAdjust="spacing" textLength="111" x="1383.75" y="775.3794">Failed OCI states:</text><text fill="#000000" font-family="sans-serif" font-size="13" lengthAdjust="spacing" textLength="53" x="1383.75" y="790.5122">- FAILED</text><text fill="#000000" font-family="sans-serif" font-size="13" lengthAdjust="spacing" textLength="72" x="1383.75" y="805.645">- DELETING</text><text fill="#000000" font-family="sans-serif" font-size="13" lengthAdjust="spacing" textLength="67" x="1383.75" y="820.7778">- DELETED</text><text fill="#000000" font-family="sans-serif" font-size="13" lengthAdjust="spacing" textLength="102" x="1383.75" y="835.9106">Update surface:</text><text fill="#000000" font-family="sans-serif" font-size="13" lengthAdjust="spacing" textLength="97" x="1383.75" y="851.0435">- ddlStatement</text><text fill="#000000" font-family="sans-serif" font-size="13" lengthAdjust="spacing" textLength="79" x="1383.75" y="866.1763">- tableLimits</text><text fill="#000000" font-family="sans-serif" font-size="13" lengthAdjust="spacing" textLength="94" x="1383.75" y="881.3091">- freeformTags</text><text fill="#000000" font-family="sans-serif" font-size="13" lengthAdjust="spacing" textLength="86" x="1383.75" y="896.4419">- definedTags</text><text fill="#000000" font-family="sans-serif" font-size="13" lengthAdjust="spacing" textLength="175" x="1383.75" y="911.5747">Reject before mutate: none</text><text fill="#000000" font-family="sans-serif" font-size="13" lengthAdjust="spacing" textLength="105" x="1383.75" y="926.7075">Boundary notes:</text><text fill="#000000" font-family="sans-serif" font-size="13" lengthAdjust="spacing" textLength="385" x="1383.75" y="941.8403">- OCI-managed schema and replication internals outside the</text><text fill="#000000" font-family="sans-serif" font-size="13" lengthAdjust="spacing" textLength="216" x="1399.75" y="956.9731">CRD surface remain out of model.</text><text fill="#000000" font-family="sans-serif" font-size="13" lengthAdjust="spacing" textLength="368" x="1383.75" y="972.106">- Compartment changes are applied in place before other</text><text fill="#000000" font-family="sans-serif" font-size="13" lengthAdjust="spacing" textLength="161" x="1399.75" y="987.2388">supported table updates.</text><text fill="#000000" font-family="sans-serif" font-size="13" lengthAdjust="spacing" textLength="166" x="1383.75" y="1002.3716">Controller-local invariants:</text><text fill="#000000" font-family="sans-serif" font-size="13" lengthAdjust="spacing" textLength="229" x="1383.75" y="1017.5044">- StatusPresentUsesStatusInvariant</text><polygon fill="#E2E8F0" points="662.625,405.4688,776.625,405.4688,788.625,417.4688,776.625,429.4688,662.625,429.4688,650.625,417.4688,662.625,405.4688" style="stroke:#475569;stroke-width:0.5;"/><text fill="#0F172A" font-family="sans-serif" font-size="11" lengthAdjust="spacing" textLength="114" x="662.625" y="421.2769">"Delete requested?"</text><text fill="#000000" font-family="sans-serif" font-size="11" lengthAdjust="spacing" textLength="20" x="630.625" y="414.8745">yes</text><text fill="#000000" font-family="sans-serif" font-size="11" lengthAdjust="spacing" textLength="14" x="788.625" y="414.8745">no</text><rect fill="none" height="297.1719" style="stroke:#000000;stroke-width:1.5;" width="713" x="11" y="439.4688"/><path d="M67,439.4688 L67,448.7656 L57,458.7656 L11,458.7656 " fill="none" style="stroke:#000000;stroke-width:1.5;"/><text fill="#000000" font-family="sans-serif" font-size="14" lengthAdjust="spacing" textLength="46" x="14" y="453.4639">Delete</text><rect fill="#F8FAFC" height="33.9688" rx="12.5" ry="12.5" style="stroke:#475569;stroke-width:0.5;" width="261" x="237" y="475.7656"/><text fill="#0F172A" font-family="sans-serif" font-size="12" lengthAdjust="spacing" textLength="241" x="247" y="496.9043">Submit OCI delete for NoSQL Database</text><rect fill="#F8FAFC" height="33.9688" rx="12.5" ry="12.5" style="stroke:#475569;stroke-width:0.5;" width="511" x="112" y="544.7344"/><text fill="#0F172A" font-family="sans-serif" font-size="12" lengthAdjust="spacing" textLength="491" x="122" y="565.873">Look for a matching delete work request before submitting a duplicate delete.</text><rect fill="#F8FAFC" height="33.9688" rx="12.5" ry="12.5" style="stroke:#475569;stroke-width:0.5;" width="693" x="21" y="613.7031"/><text fill="#0F172A" font-family="sans-serif" font-size="12" lengthAdjust="spacing" textLength="673" x="31" y="634.8418">Wait for the matching table delete work request to succeed, or treat an already-missing table as complete.</text><rect fill="#F8FAFC" height="33.9688" rx="12.5" ry="12.5" style="stroke:#475569;stroke-width:0.5;" width="338" x="198.5" y="682.6719"/><text fill="#0F172A" font-family="sans-serif" font-size="12" lengthAdjust="spacing" textLength="318" x="208.5" y="703.8105">Remove the finalizer after OCI deletion is confirmed</text><ellipse cx="367.5" cy="782.6406" fill="none" rx="11" ry="11" style="stroke:#222222;stroke-width:1.0;"/><ellipse cx="367.5" cy="782.6406" fill="#222222" rx="6" ry="6" style="stroke:#111111;stroke-width:1.0;"/><rect fill="none" height="430.8438" style="stroke:#000000;stroke-width:1.5;" width="376" x="889.75" y="439.4688"/><path d="M1050.75,439.4688 L1050.75,448.7656 L1040.75,458.7656 L889.75,458.7656 " fill="none" style="stroke:#000000;stroke-width:1.5;"/><text fill="#000000" font-family="sans-serif" font-size="14" lengthAdjust="spacing" textLength="151" x="892.75" y="453.4639">Lifecycle Classification</text><rect fill="#F8FAFC" height="33.9688" rx="12.5" ry="12.5" style="stroke:#475569;stroke-width:0.5;" width="268" x="937.75" y="524.168"/><text fill="#0F172A" font-family="sans-serif" font-size="12" lengthAdjust="spacing" textLength="248" x="947.75" y="545.3066">Request requeue and keep the finalizer</text><ellipse cx="1071.75" cy="604.1367" fill="none" rx="11" ry="11" style="stroke:#222222;stroke-width:1.0;"/><ellipse cx="1071.75" cy="604.1367" fill="#222222" rx="6" ry="6" style="stroke:#111111;stroke-width:1.0;"/><polygon fill="#E2E8F0" points="991.75,475.7656,1151.75,475.7656,1163.75,487.7656,1151.75,499.7656,991.75,499.7656,979.75,487.7656,991.75,475.7656" style="stroke:#475569;stroke-width:0.5;"/><text fill="#000000" font-family="sans-serif" font-size="11" lengthAdjust="spacing" textLength="20" x="1075.75" y="509.9761">yes</text><text fill="#0F172A" font-family="sans-serif" font-size="11" lengthAdjust="spacing" textLength="160" x="991.75" y="491.5737">"OCI state in retryable set?"</text><rect fill="#F8FAFC" height="33.9688" rx="12.5" ry="12.5" style="stroke:#475569;stroke-width:0.5;" width="324" x="909.75" y="728.9414"/><text fill="#0F172A" font-family="sans-serif" font-size="12" lengthAdjust="spacing" textLength="304" x="919.75" y="750.0801">Return an unsuccessful terminal reconcile result</text><ellipse cx="1071.75" cy="808.9102" fill="none" rx="11" ry="11" style="stroke:#222222;stroke-width:1.0;"/><ellipse cx="1071.75" cy="808.9102" fill="#222222" rx="6" ry="6" style="stroke:#111111;stroke-width:1.0;"/><polygon fill="#E2E8F0" points="1001.75,680.5391,1141.75,680.5391,1153.75,692.5391,1141.75,704.5391,1001.75,704.5391,989.75,692.5391,1001.75,680.5391" style="stroke:#475569;stroke-width:0.5;"/><text fill="#000000" font-family="sans-serif" font-size="11" lengthAdjust="spacing" textLength="20" x="1075.75" y="714.7495">yes</text><text fill="#0F172A" font-family="sans-serif" font-size="11" lengthAdjust="spacing" textLength="140" x="1001.75" y="696.3472">"OCI state in failed set?"</text><rect fill="none" height="323.1719" style="stroke:#000000;stroke-width:1.5;" width="623.75" x="744" y="905.3125"/><path d="M923,905.3125 L923,914.6094 L913,924.6094 L744,924.6094 " fill="none" style="stroke:#000000;stroke-width:1.5;"/><text fill="#000000" font-family="sans-serif" font-size="14" lengthAdjust="spacing" textLength="169" x="747" y="919.3076">Ready and Drift Handling</text><rect fill="#F8FAFC" height="33.9688" rx="12.5" ry="12.5" style="stroke:#475569;stroke-width:0.5;" width="364" x="889.75" y="941.6094"/><text fill="#0F172A" font-family="sans-serif" font-size="12" lengthAdjust="spacing" textLength="344" x="899.75" y="962.748">Compare live OCI state with the supported drift surface</text><rect fill="#F8FAFC" height="33.9688" rx="12.5" ry="12.5" style="stroke:#475569;stroke-width:0.5;" width="572" x="785.75" y="1010.5781"/><text fill="#0F172A" font-family="sans-serif" font-size="12" lengthAdjust="spacing" textLength="552" x="795.75" y="1031.7168">Keep the retained OCID authoritative for update and delete once status.ocid is present.</text><polygon fill="#E2E8F0" points="994.25,1064.5469,1149.25,1064.5469,1161.25,1076.5469,1149.25,1088.5469,994.25,1088.5469,982.25,1076.5469,994.25,1064.5469" style="stroke:#475569;stroke-width:0.5;"/><text fill="#0F172A" font-family="sans-serif" font-size="11" lengthAdjust="spacing" textLength="155" x="994.25" y="1080.355">"Supported drift detected?"</text><text fill="#000000" font-family="sans-serif" font-size="11" lengthAdjust="spacing" textLength="20" x="962.25" y="1073.9526">yes</text><text fill="#000000" font-family="sans-serif" font-size="11" lengthAdjust="spacing" textLength="14" x="1161.25" y="1073.9526">no</text><rect fill="#F8FAFC" height="33.9688" rx="12.5" ry="12.5" style="stroke:#475569;stroke-width:0.5;" width="329" x="764" y="1098.5469"/><text fill="#0F172A" font-family="sans-serif" font-size="12" lengthAdjust="spacing" textLength="309" x="774" y="1119.6855">Apply only the supported in-place update surface</text><rect fill="#F8FAFC" height="33.9688" rx="12.5" ry="12.5" style="stroke:#475569;stroke-width:0.5;" width="204" x="1113" y="1098.5469"/><text fill="#0F172A" font-family="sans-serif" font-size="12" lengthAdjust="spacing" textLength="184" x="1123" y="1119.6855">Skip the no-op mutation path</text><polygon fill="#E2E8F0" points="1071.75,1138.5156,1083.75,1150.5156,1071.75,1162.5156,1059.75,1150.5156,1071.75,1138.5156" style="stroke:#475569;stroke-width:0.5;"/><rect fill="#F8FAFC" height="33.9688" rx="12.5" ry="12.5" style="stroke:#475569;stroke-width:0.5;" width="287" x="928.25" y="1182.5156"/><text fill="#0F172A" font-family="sans-serif" font-size="12" lengthAdjust="spacing" textLength="267" x="938.25" y="1203.6543">Return success for the usable active state</text><line style="stroke:#334155;stroke-width:1.0;" x1="719.625" x2="719.625" y1="147.5625" y2="167.5625"/><polygon fill="#334155" points="715.625,157.5625,719.625,167.5625,723.625,157.5625,719.625,161.5625" style="stroke:#334155;stroke-width:1.0;"/><line style="stroke:#334155;stroke-width:1.0;" x1="886.125" x2="886.125" y1="289.5" y2="309.5"/><polygon fill="#334155" points="882.125,299.5,886.125,309.5,890.125,299.5,886.125,303.5" style="stroke:#334155;stroke-width:1.0;"/><line style="stroke:#334155;stroke-width:1.0;" x1="607.625" x2="553.125" y1="233.5313" y2="233.5313"/><line style="stroke:#334155;stroke-width:1.0;" x1="553.125" x2="553.125" y1="233.5313" y2="255.5313"/><polygon fill="#334155" points="549.125,245.5313,553.125,255.5313,557.125,245.5313,553.125,249.5313" style="stroke:#334155;stroke-width:1.0;"/><line style="stroke:#334155;stroke-width:1.0;" x1="831.625" x2="886.125" y1="233.5313" y2="233.5313"/><line style="stroke:#334155;stroke-width:1.0;" x1="886.125" x2="886.125" y1="233.5313" y2="255.5313"/><polygon fill="#334155" points="882.125,245.5313,886.125,255.5313,890.125,245.5313,886.125,249.5313" style="stroke:#334155;stroke-width:1.0;"/><line style="stroke:#334155;stroke-width:1.0;" x1="553.125" x2="553.125" y1="289.5" y2="361.4688"/><line style="stroke:#334155;stroke-width:1.0;" x1="553.125" x2="707.625" y1="361.4688" y2="361.4688"/><polygon fill="#334155" points="697.625,357.4688,707.625,361.4688,697.625,365.4688,701.625,361.4688" style="stroke:#334155;stroke-width:1.0;"/><line style="stroke:#334155;stroke-width:1.0;" x1="886.125" x2="886.125" y1="343.4688" y2="361.4688"/><line style="stroke:#334155;stroke-width:1.0;" x1="886.125" x2="731.625" y1="361.4688" y2="361.4688"/><polygon fill="#334155" points="741.625,357.4688,731.625,361.4688,741.625,365.4688,737.625,361.4688" style="stroke:#334155;stroke-width:1.0;"/><line style="stroke:#334155;stroke-width:1.0;" x1="719.625" x2="719.625" y1="201.5313" y2="221.5313"/><polygon fill="#334155" points="715.625,211.5313,719.625,221.5313,723.625,211.5313,719.625,215.5313" style="stroke:#334155;stroke-width:1.0;"/><line style="stroke:#334155;stroke-width:1.0;" x1="719.625" x2="719.625" y1="67.2969" y2="113.5938"/><polygon fill="#334155" points="715.625,103.5938,719.625,113.5938,723.625,103.5938,719.625,107.5938" style="stroke:#334155;stroke-width:1.0;"/><line style="stroke:#334155;stroke-width:1.0;" x1="367.5" x2="367.5" y1="509.7344" y2="544.7344"/><polygon fill="#334155" points="363.5,534.7344,367.5,544.7344,371.5,534.7344,367.5,538.7344" style="stroke:#334155;stroke-width:1.0;"/><line style="stroke:#334155;stroke-width:1.0;" x1="367.5" x2="367.5" y1="578.7031" y2="613.7031"/><polygon fill="#334155" points="363.5,603.7031,367.5,613.7031,371.5,603.7031,367.5,607.7031" style="stroke:#334155;stroke-width:1.0;"/><line style="stroke:#334155;stroke-width:1.0;" x1="367.5" x2="367.5" y1="647.6719" y2="682.6719"/><polygon fill="#334155" points="363.5,672.6719,367.5,682.6719,371.5,672.6719,367.5,676.6719" style="stroke:#334155;stroke-width:1.0;"/><line style="stroke:#334155;stroke-width:1.0;" x1="367.5" x2="367.5" y1="716.6406" y2="771.6406"/><polygon fill="#334155" points="363.5,761.6406,367.5,771.6406,371.5,761.6406,367.5,765.6406" style="stroke:#334155;stroke-width:1.0;"/><line style="stroke:#334155;stroke-width:1.0;" x1="1071.75" x2="1071.75" y1="558.1367" y2="593.1367"/><polygon fill="#334155" points="1067.75,583.1367,1071.75,593.1367,1075.75,583.1367,1071.75,587.1367" style="stroke:#334155;stroke-width:1.0;"/><line style="stroke:#334155;stroke-width:1.0;" x1="1071.75" x2="1071.75" y1="499.7656" y2="524.168"/><polygon fill="#334155" points="1067.75,514.168,1071.75,524.168,1075.75,514.168,1071.75,518.168" style="stroke:#334155;stroke-width:1.0;"/><line style="stroke:#334155;stroke-width:1.0;" x1="1163.75" x2="1215.75" y1="487.7656" y2="487.7656"/><polygon fill="#334155" points="1211.75,556.6523,1215.75,566.6523,1219.75,556.6523,1215.75,560.6523" style="stroke:#334155;stroke-width:1.0;"/><line style="stroke:#334155;stroke-width:1.0;" x1="1215.75" x2="1215.75" y1="487.7656" y2="645.5391"/><line style="stroke:#334155;stroke-width:1.0;" x1="1215.75" x2="1071.75" y1="645.5391" y2="645.5391"/><line style="stroke:#334155;stroke-width:1.0;" x1="1071.75" x2="1071.75" y1="645.5391" y2="680.5391"/><polygon fill="#334155" points="1067.75,670.5391,1071.75,680.5391,1075.75,670.5391,1071.75,674.5391" style="stroke:#334155;stroke-width:1.0;"/><line style="stroke:#334155;stroke-width:1.0;" x1="1071.75" x2="1071.75" y1="762.9102" y2="797.9102"/><polygon fill="#334155" points="1067.75,787.9102,1071.75,797.9102,1075.75,787.9102,1071.75,791.9102" style="stroke:#334155;stroke-width:1.0;"/><line style="stroke:#334155;stroke-width:1.0;" x1="1071.75" x2="1071.75" y1="704.5391" y2="728.9414"/><polygon fill="#334155" points="1067.75,718.9414,1071.75,728.9414,1075.75,718.9414,1071.75,722.9414" style="stroke:#334155;stroke-width:1.0;"/><line style="stroke:#334155;stroke-width:1.0;" x1="1153.75" x2="1243.75" y1="692.5391" y2="692.5391"/><polygon fill="#334155" points="1239.75,761.4258,1243.75,771.4258,1247.75,761.4258,1243.75,765.4258" style="stroke:#334155;stroke-width:1.0;"/><line style="stroke:#334155;stroke-width:1.0;" x1="1243.75" x2="1243.75" y1="692.5391" y2="850.3125"/><line style="stroke:#334155;stroke-width:1.0;" x1="1243.75" x2="1071.75" y1="850.3125" y2="850.3125"/><line style="stroke:#334155;stroke-width:1.0;" x1="1071.75" x2="1071.75" y1="850.3125" y2="941.6094"/><polygon fill="#334155" points="1067.75,931.6094,1071.75,941.6094,1075.75,931.6094,1071.75,935.6094" style="stroke:#334155;stroke-width:1.0;"/><line style="stroke:#334155;stroke-width:1.0;" x1="1071.75" x2="1071.75" y1="975.5781" y2="1010.5781"/><polygon fill="#334155" points="1067.75,1000.5781,1071.75,1010.5781,1075.75,1000.5781,1071.75,1004.5781" style="stroke:#334155;stroke-width:1.0;"/><line style="stroke:#334155;stroke-width:1.0;" x1="982.25" x2="928.5" y1="1076.5469" y2="1076.5469"/><line style="stroke:#334155;stroke-width:1.0;" x1="928.5" x2="928.5" y1="1076.5469" y2="1098.5469"/><polygon fill="#334155" points="924.5,1088.5469,928.5,1098.5469,932.5,1088.5469,928.5,1092.5469" style="stroke:#334155;stroke-width:1.0;"/><line style="stroke:#334155;stroke-width:1.0;" x1="1161.25" x2="1215" y1="1076.5469" y2="1076.5469"/><line style="stroke:#334155;stroke-width:1.0;" x1="1215" x2="1215" y1="1076.5469" y2="1098.5469"/><polygon fill="#334155" points="1211,1088.5469,1215,1098.5469,1219,1088.5469,1215,1092.5469" style="stroke:#334155;stroke-width:1.0;"/><line style="stroke:#334155;stroke-width:1.0;" x1="928.5" x2="928.5" y1="1132.5156" y2="1150.5156"/><line style="stroke:#334155;stroke-width:1.0;" x1="928.5" x2="1059.75" y1="1150.5156" y2="1150.5156"/><polygon fill="#334155" points="1049.75,1146.5156,1059.75,1150.5156,1049.75,1154.5156,1053.75,1150.5156" style="stroke:#334155;stroke-width:1.0;"/><line style="stroke:#334155;stroke-width:1.0;" x1="1215" x2="1215" y1="1132.5156" y2="1150.5156"/><line style="stroke:#334155;stroke-width:1.0;" x1="1215" x2="1083.75" y1="1150.5156" y2="1150.5156"/><polygon fill="#334155" points="1093.75,1146.5156,1083.75,1150.5156,1093.75,1154.5156,1089.75,1150.5156" style="stroke:#334155;stroke-width:1.0;"/><line style="stroke:#334155;stroke-width:1.0;" x1="1071.75" x2="1071.75" y1="1044.5469" y2="1064.5469"/><polygon fill="#334155" points="1067.75,1054.5469,1071.75,1064.5469,1075.75,1054.5469,1071.75,1058.5469" style="stroke:#334155;stroke-width:1.0;"/><line style="stroke:#334155;stroke-width:1.0;" x1="1071.75" x2="1071.75" y1="1162.5156" y2="1182.5156"/><polygon fill="#334155" points="1067.75,1172.5156,1071.75,1182.5156,1075.75,1172.5156,1071.75,1176.5156" style="stroke:#334155;stroke-width:1.0;"/><line style="stroke:#334155;stroke-width:1.0;" x1="650.625" x2="367.5" y1="417.4688" y2="417.4688"/><line style="stroke:#334155;stroke-width:1.0;" x1="367.5" x2="367.5" y1="417.4688" y2="475.7656"/><polygon fill="#334155" points="363.5,465.7656,367.5,475.7656,371.5,465.7656,367.5,469.7656" style="stroke:#334155;stroke-width:1.0;"/><line style="stroke:#334155;stroke-width:1.0;" x1="788.625" x2="1071.75" y1="417.4688" y2="417.4688"/><line style="stroke:#334155;stroke-width:1.0;" x1="1071.75" x2="1071.75" y1="417.4688" y2="475.7656"/><polygon fill="#334155" points="1067.75,465.7656,1071.75,475.7656,1075.75,465.7656,1071.75,469.7656" style="stroke:#334155;stroke-width:1.0;"/><line style="stroke:#334155;stroke-width:1.0;" x1="1071.75" x2="1071.75" y1="1216.4844" y2="1234.4844"/><line style="stroke:#334155;stroke-width:1.0;" x1="1071.75" x2="719.625" y1="1234.4844" y2="1234.4844"/><line style="stroke:#334155;stroke-width:1.0;" x1="719.625" x2="719.625" y1="373.4688" y2="405.4688"/><polygon fill="#334155" points="715.625,395.4688,719.625,405.4688,723.625,395.4688,719.625,399.4688" style="stroke:#334155;stroke-width:1.0;"/><!--SRC=[VLRRSXev47sVhr1vNvmguugJs4xiXwqn0rbNgCG1lFiiHZsWHIFDIXgJoLR-VRjR0mQ7B5N6klJrzEaMKKS3uhERVPs8GaQva07454fdIuqNUHdrauvT5jRQDjBBMeILL6wZxL9KqWJOkxcJvNhfNMlLq1ddnMzZ_kn9vDwxJN_vzksxYylBlKi5bMnDdCEtc1kzj3NOA0nKSKz6zl68VpDnnD_xSJuUqetp2dn_-kxwylBg0vwEdOtzsUlnnVMR7CyABMjdrK-cHcz6xyUlzmIEMfn5wPzDNbzTZV1mj3DoFRueBehiHnP8BiimXwYZTbQSV5a4y4yWf5NYJbjrmXdTJ44gCPoAq41v9b0jja5y6TuNPoofm404eMr4R6v9uHD0qyiD5XG_ImlPnfNp6iyrEgam62CZUD4s2lyBtFUc6XbNWIpfIfoUp3tY08hkuLjZTAbZijTu2EZozvDN8gx0YjCEmYlKmWW-GgGpaXCevLfVWbXqOctTnWgjK4rN6Zmv0IICEBMkLvsYk64Gq9qEaKZrqepIeJ6o4rRMS9lK7i07b6QlFfdWa4iFc5oFm08p8Q1SZmwxjqfNM8wCaoqI0Xx-QI6Wta_9xPKhoQOYOGIpTb4dQBOu4iI7NTG7Et5kpRTIr3AMAygnrzaulzww5mj08H21BJCIKgYMQa05InhdlSs_93edcuJ0pYgwDN3KDe7GbYM0EYES8k54e4k3AzKDQXt2imKPHEdgPj_X56g7TI9tbRRIwE_89LaHetOO44wQL6sbVGsAL7_WNuYkoVOBlmVhH5TGTYKw7Hg9CLIKBTviWUOwaGUg8V4UKug-up037ACZ1vkovkpRr69hQfE3y6zxSGwF5eaSnxrM4eUX-Z-NiVMM86qj8nr2rHg1-DJa3qFP3bJaAywuNpf7RXu0HFEWummAhwie_i2bmLBjc3Z4IadaZQ4-Vuvve-EAymrjqpXFNQ7OG6Xz9SijEJzjOK5OfRRmo-dHpusz6OJvGDzQvwxKYchVJucUDGpZx8L_XRhbiMRZUFAcCHsQng_3uBKTu1H0ZtqW1saSJXLgpxLEQLatS8sesyYiuc5t-wBOszhrPTkrLHjICvIC0QEQ69rKiyeuoMrg7GqHlLp5BFVb2cBNm4qss4sc0IS-IB1bqnr_TyKA93sSZlBv_UUFk7nyAD8oJxuF1VFX_FxFKJPEZ3oy6-Vtar61Ys8q6VNMU8c7ZmV0aRHIPaQgzCxYbfj_ed7w1DnL7cWWrNEvf2s-pKGFtatXRopXTc0nk723C5Z8xkW5ahvZK3Wa371GIokNr3w8JYsPH1xIPEEXWQ-Pnou9mhKnu8D1-7DjXjDY6p1grCXG4X6k4hL3FCy9D-P_vDyAvKhQ9GH1_I2HIPg98n9n-d0TslPi_9bSQUmbPeNpR8W_4xmp1lp0k1AxLzidwRMqaJEQCUSV4jKV0uHqSByL8e9m_jb_]--></g></svg>