<?xml version="1.0" encoding="UTF-8" standalone="no"?><svg xmlns="http://www.w3.org/2000/svg" xmlns:xlink="http://www.w3.org/1999/xlink" contentStyleType="text/css" height="1287px" preserveAspectRatio="none" style="width:1238px;height:1287px;background:#FFFFFF;" version="1.1" viewBox="0 0 1238 1287" width="1238px" zoomAndPan="magnify"><defs/><g><text fill="#000000" font-family="sans-serif" font-size="14" font-weight="bold" lengthAdjust="spacing" textLength="295" x="472.75" y="27.9951">NoSQL Database Reconcile Sequence</text><rect fill="none" height="254.6719" style="stroke:#475569;stroke-width:1.5;" width="867" x="248.5" y="193.8594"/><rect fill="none" height="223.5391" style="stroke:#475569;stroke-width:1.5;" width="847" x="258.5" y="217.9922"/><rect fill="none" height="119.3359" style="stroke:#475569;stroke-width:1.5;" width="827" x="268.5" y="315.1953"/><rect fill="none" height="571.0703" style="stroke:#475569;stroke-width:1.5;" width="1221.5" x="10" y="462.5313"/><rect fill="none" height="191.9297" style="stroke:#475569;stroke-width:1.5;" width="953" x="268.5" y="486.6641"/><rect fill="none" height="202.1953" style="stroke:#475569;stroke-width:1.5;" width="735.5" x="258.5" y="795.2734"/><rect fill="none" height="46.2656" style="stroke:#475569;stroke-width:1.5;" width="705" x="268.5" y="944.2031"/><line style="stroke:#94A3B8;stroke-width:0.5;stroke-dasharray:5.0,5.0;" x1="56" x2="56" y1="118.5938" y2="1206.7969"/><line style="stroke:#94A3B8;stroke-width:0.5;stroke-dasharray:5.0,5.0;" x1="342.5" x2="342.5" y1="118.5938" y2="1206.7969"/><line style="stroke:#94A3B8;stroke-width:0.5;stroke-dasharray:5.0,5.0;" x1="945.5" x2="945.5" y1="118.5938" y2="1206.7969"/><line style="stroke:#94A3B8;stroke-width:0.5;stroke-dasharray:5.0,5.0;" x1="1029.5" x2="1029.5" y1="118.5938" y2="1206.7969"/><line style="stroke:#94A3B8;stroke-width:0.5;stroke-dasharray:5.0,5.0;" x1="1153.5" x2="1153.5" y1="118.5938" y2="1206.7969"/><text fill="#000000" font-family="sans-serif" font-size="14" lengthAdjust="spacing" textLength="67" x="20" y="115.292">Controller</text><ellipse cx="56.5" cy="50.7969" fill="#E0F2FE" rx="8" ry="8" style="stroke:#0F766E;stroke-width:0.5;"/><path d="M56.5,58.7969 L56.5,85.7969 M43.5,66.7969 L69.5,66.7969 M56.5,85.7969 L43.5,100.7969 M56.5,85.7969 L69.5,100.7969 " fill="none" style="stroke:#0F766E;stroke-width:0.5;"/><text fill="#000000" font-family="sans-serif" font-size="14" lengthAdjust="spacing" textLength="67" x="20" y="1218.792">Controller</text><ellipse cx="56.5" cy="1230.5938" fill="#E0F2FE" rx="8" ry="8" style="stroke:#0F766E;stroke-width:0.5;"/><path d="M56.5,1238.5938 L56.5,1265.5938 M43.5,1246.5938 L69.5,1246.5938 M56.5,1265.5938 L43.5,1280.5938 M56.5,1265.5938 L69.5,1280.5938 " fill="none" style="stroke:#0F766E;stroke-width:0.5;"/><rect fill="#F8FAFC" height="30.2969" rx="2.5" ry="2.5" style="stroke:#475569;stroke-width:0.5;" width="128" x="278.5" y="87.2969"/><text fill="#000000" font-family="sans-serif" font-size="14" lengthAdjust="spacing" textLength="114" x="285.5" y="107.292">Service Manager</text><rect fill="#F8FAFC" height="30.2969" rx="2.5" ry="2.5" style="stroke:#475569;stroke-width:0.5;" width="128" x="278.5" y="1205.7969"/><text fill="#000000" font-family="sans-serif" font-size="14" lengthAdjust="spacing" textLength="114" x="285.5" y="1225.792">Service Manager</text><text fill="#000000" font-family="sans-serif" font-size="14" lengthAdjust="spacing" textLength="24" x="930.5" y="115.292">OCI</text><path d="M927.5,66.2969 C927.5,56.2969 945.5,56.2969 945.5,56.2969 C945.5,56.2969 963.5,56.2969 963.5,66.2969 L963.5,92.2969 C963.5,102.2969 945.5,102.2969 945.5,102.2969 C945.5,102.2969 927.5,102.2969 927.5,92.2969 L927.5,66.2969 " fill="#E2E2F0" style="stroke:#181818;stroke-width:1.5;"/><path d="M927.5,66.2969 C927.5,76.2969 945.5,76.2969 945.5,76.2969 C945.5,76.2969 963.5,76.2969 963.5,66.2969 " fill="none" style="stroke:#181818;stroke-width:1.5;"/><text fill="#000000" font-family="sans-serif" font-size="14" lengthAdjust="spacing" textLength="24" x="930.5" y="1218.792">OCI</text><path d="M927.5,1232.0938 C927.5,1222.0938 945.5,1222.0938 945.5,1222.0938 C945.5,1222.0938 963.5,1222.0938 963.5,1232.0938 L963.5,1258.0938 C963.5,1268.0938 945.5,1268.0938 945.5,1268.0938 C945.5,1268.0938 927.5,1268.0938 927.5,1258.0938 L927.5,1232.0938 " fill="#E2E2F0" style="stroke:#181818;stroke-width:1.5;"/><path d="M927.5,1232.0938 C927.5,1242.0938 945.5,1242.0938 945.5,1242.0938 C945.5,1242.0938 963.5,1242.0938 963.5,1232.0938 " fill="none" style="stroke:#181818;stroke-width:1.5;"/><text fill="#000000" font-family="sans-serif" font-size="14" lengthAdjust="spacing" textLength="106" x="973.5" y="115.292">Kubernetes API</text><path d="M1011.5,66.2969 C1011.5,56.2969 1029.5,56.2969 1029.5,56.2969 C1029.5,56.2969 1047.5,56.2969 1047.5,66.2969 L1047.5,92.2969 C1047.5,102.2969 1029.5,102.2969 1029.5,102.2969 C1029.5,102.2969 1011.5,102.2969 1011.5,92.2969 L1011.5,66.2969 " fill="#E2E2F0" style="stroke:#181818;stroke-width:1.5;"/><path d="M1011.5,66.2969 C1011.5,76.2969 1029.5,76.2969 1029.5,76.2969 C1029.5,76.2969 1047.5,76.2969 1047.5,66.2969 " fill="none" style="stroke:#181818;stroke-width:1.5;"/><text fill="#000000" font-family="sans-serif" font-size="14" lengthAdjust="spacing" textLength="106" x="973.5" y="1218.792">Kubernetes API</text><path d="M1011.5,1232.0938 C1011.5,1222.0938 1029.5,1222.0938 1029.5,1222.0938 C1029.5,1222.0938 1047.5,1222.0938 1047.5,1232.0938 L1047.5,1258.0938 C1047.5,1268.0938 1029.5,1268.0938 1029.5,1268.0938 C1029.5,1268.0938 1011.5,1268.0938 1011.5,1258.0938 L1011.5,1232.0938 " fill="#E2E2F0" style="stroke:#181818;stroke-width:1.5;"/><path d="M1011.5,1232.0938 C1011.5,1242.0938 1029.5,1242.0938 1029.5,1242.0938 C1029.5,1242.0938 1047.5,1242.0938 1047.5,1232.0938 " fill="none" style="stroke:#181818;stroke-width:1.5;"/><rect fill="#E2E2F0" height="30.2969" style="stroke:#181818;stroke-width:0.5;" width="112" x="1099.5" y="83.2969"/><rect fill="#E2E2F0" height="30.2969" style="stroke:#181818;stroke-width:0.5;" width="112" x="1095.5" y="87.2969"/><text fill="#000000" font-family="sans-serif" font-size="14" lengthAdjust="spacing" textLength="98" x="1102.5" y="107.292">Work Request</text><rect fill="#E2E2F0" height="30.2969" style="stroke:#181818;stroke-width:0.5;" width="112" x="1099.5" y="1205.7969"/><rect fill="#E2E2F0" height="30.2969" style="stroke:#181818;stroke-width:0.5;" width="112" x="1095.5" y="1209.7969"/><text fill="#000000" font-family="sans-serif" font-size="14" lengthAdjust="spacing" textLength="98" x="1102.5" y="1229.792">Work Request</text><polygon fill="#334155" points="330.5,145.7266,340.5,149.7266,330.5,153.7266,334.5,149.7266" style="stroke:#334155;stroke-width:1.0;"/><line style="stroke:#334155;stroke-width:1.0;" x1="56.5" x2="336.5" y1="149.7266" y2="149.7266"/><text fill="#000000" font-family="sans-serif" font-size="13" font-weight="bold" lengthAdjust="spacing" textLength="9" x="63.5" y="144.6606">1</text><text fill="#000000" font-family="sans-serif" font-size="13" lengthAdjust="spacing" textLength="239" x="76.5" y="144.6606">reconcile desired spec and live status</text><polygon fill="#334155" points="1017.5,174.8594,1027.5,178.8594,1017.5,182.8594,1021.5,178.8594" style="stroke:#334155;stroke-width:1.0;"/><line style="stroke:#334155;stroke-width:1.0;" x1="342.5" x2="1023.5" y1="178.8594" y2="178.8594"/><text fill="#000000" font-family="sans-serif" font-size="13" font-weight="bold" lengthAdjust="spacing" textLength="9" x="349.5" y="173.7935">2</text><text fill="#000000" font-family="sans-serif" font-size="13" lengthAdjust="spacing" textLength="212" x="362.5" y="173.7935">read CR status and finalizer state</text><path d="M248.5,193.8594 L418.5,193.8594 L418.5,200.9922 L408.5,210.9922 L248.5,210.9922 L248.5,193.8594 " fill="#F8FAFC" style="stroke:#475569;stroke-width:1.5;"/><rect fill="none" height="254.6719" style="stroke:#475569;stroke-width:1.5;" width="867" x="248.5" y="193.8594"/><text fill="#000000" font-family="sans-serif" font-size="13" font-weight="bold" lengthAdjust="spacing" textLength="125" x="263.5" y="206.9263">Lookup and bind</text><path d="M258.5,217.9922 L322.5,217.9922 L322.5,225.125 L312.5,235.125 L258.5,235.125 L258.5,217.9922 " fill="#F8FAFC" style="stroke:#475569;stroke-width:1.5;"/><rect fill="none" height="223.5391" style="stroke:#475569;stroke-width:1.5;" width="847" x="258.5" y="217.9922"/><text fill="#000000" font-family="sans-serif" font-size="13" font-weight="bold" lengthAdjust="spacing" textLength="19" x="273.5" y="231.0591">alt</text><text fill="#000000" font-family="sans-serif" font-size="11" font-weight="bold" lengthAdjust="spacing" textLength="256" x="337.5" y="230.2026">[tracked or explicit OCID already exists]</text><polygon fill="#334155" points="933.5,252.2578,943.5,256.2578,933.5,260.2578,937.5,256.2578" style="stroke:#334155;stroke-width:1.0;"/><line style="stroke:#334155;stroke-width:1.0;" x1="342.5" x2="939.5" y1="256.2578" y2="256.2578"/><text fill="#000000" font-family="sans-serif" font-size="13" font-weight="bold" lengthAdjust="spacing" textLength="9" x="349.5" y="251.1919">3</text><text fill="#000000" font-family="sans-serif" font-size="13" lengthAdjust="spacing" textLength="278" x="362.5" y="251.1919">get the current resource by known identifier</text><line style="stroke:#475569;stroke-width:1.0;stroke-dasharray:2.0,2.0;" x1="258.5" x2="1105.5" y1="265.2578" y2="265.2578"/><text fill="#000000" font-family="sans-serif" font-size="11" font-weight="bold" lengthAdjust="spacing" textLength="145" x="263.5" y="275.4683">[no OCID is bound yet]</text><polygon fill="#334155" points="933.5,296.1953,943.5,300.1953,933.5,304.1953,937.5,300.1953" style="stroke:#334155;stroke-width:1.0;"/><line style="stroke:#334155;stroke-width:1.0;" x1="342.5" x2="939.5" y1="300.1953" y2="300.1953"/><text fill="#000000" font-family="sans-serif" font-size="13" font-weight="bold" lengthAdjust="spacing" textLength="9" x="349.5" y="295.1294">4</text><text fill="#000000" font-family="sans-serif" font-size="13" lengthAdjust="spacing" textLength="193" x="362.5" y="295.1294">list resources by display name</text><path d="M268.5,315.1953 L332.5,315.1953 L332.5,322.3281 L322.5,332.3281 L268.5,332.3281 L268.5,315.1953 " fill="#F8FAFC" style="stroke:#475569;stroke-width:1.5;"/><rect fill="none" height="119.3359" style="stroke:#475569;stroke-width:1.5;" width="827" x="268.5" y="315.1953"/><text fill="#000000" font-family="sans-serif" font-size="13" font-weight="bold" lengthAdjust="spacing" textLength="19" x="283.5" y="328.2622">alt</text><text fill="#000000" font-family="sans-serif" font-size="11" font-weight="bold" lengthAdjust="spacing" textLength="162" x="347.5" y="327.4058">[existing resource found]</text><polygon fill="#334155" points="1017.5,349.4609,1027.5,353.4609,1017.5,357.4609,1021.5,353.4609" style="stroke:#334155;stroke-width:1.0;"/><line style="stroke:#334155;stroke-width:1.0;" x1="342.5" x2="1023.5" y1="353.4609" y2="353.4609"/><text fill="#000000" font-family="sans-serif" font-size="13" font-weight="bold" lengthAdjust="spacing" textLength="9" x="349.5" y="348.395">5</text><text fill="#000000" font-family="sans-serif" font-size="13" lengthAdjust="spacing" textLength="221" x="362.5" y="348.395">persist the resolved OCID in status</text><line style="stroke:#475569;stroke-width:1.0;stroke-dasharray:2.0,2.0;" x1="268.5" x2="1095.5" y1="362.4609" y2="362.4609"/><text fill="#000000" font-family="sans-serif" font-size="11" font-weight="bold" lengthAdjust="spacing" textLength="182" x="273.5" y="372.6714">[no existing resource found]</text><polygon fill="#334155" points="933.5,393.3984,943.5,397.3984,933.5,401.3984,937.5,397.3984" style="stroke:#334155;stroke-width:1.0;"/><line style="stroke:#334155;stroke-width:1.0;" x1="342.5" x2="939.5" y1="397.3984" y2="397.3984"/><text fill="#000000" font-family="sans-serif" font-size="13" font-weight="bold" lengthAdjust="spacing" textLength="9" x="349.5" y="392.3325">6</text><text fill="#000000" font-family="sans-serif" font-size="13" lengthAdjust="spacing" textLength="152" x="362.5" y="392.3325">create the OCI resource</text><polygon fill="#334155" points="1017.5,422.5313,1027.5,426.5313,1017.5,430.5313,1021.5,426.5313" style="stroke:#334155;stroke-width:1.0;"/><line style="stroke:#334155;stroke-width:1.0;" x1="342.5" x2="1023.5" y1="426.5313" y2="426.5313"/><text fill="#000000" font-family="sans-serif" font-size="13" font-weight="bold" lengthAdjust="spacing" textLength="9" x="349.5" y="421.4653">7</text><text fill="#000000" font-family="sans-serif" font-size="13" lengthAdjust="spacing" textLength="216" x="362.5" y="421.4653">persist the created OCID in status</text><path d="M10,462.5313 L74,462.5313 L74,469.6641 L64,479.6641 L10,479.6641 L10,462.5313 " fill="#F8FAFC" style="stroke:#475569;stroke-width:1.5;"/><rect fill="none" height="571.0703" style="stroke:#475569;stroke-width:1.5;" width="1221.5" x="10" y="462.5313"/><text fill="#000000" font-family="sans-serif" font-size="13" font-weight="bold" lengthAdjust="spacing" textLength="19" x="25" y="475.5981">alt</text><text fill="#000000" font-family="sans-serif" font-size="11" font-weight="bold" lengthAdjust="spacing" textLength="120" x="89" y="474.7417">[delete requested]</text><path d="M268.5,486.6641 L361.5,486.6641 L361.5,493.7969 L351.5,503.7969 L268.5,503.7969 L268.5,486.6641 " fill="#F8FAFC" style="stroke:#475569;stroke-width:1.5;"/><rect fill="none" height="191.9297" style="stroke:#475569;stroke-width:1.5;" width="953" x="268.5" y="486.6641"/><text fill="#000000" font-family="sans-serif" font-size="13" font-weight="bold" lengthAdjust="spacing" textLength="48" x="283.5" y="499.731">Delete</text><polygon fill="#334155" points="933.5,520.9297,943.5,524.9297,933.5,528.9297,937.5,524.9297" style="stroke:#334155;stroke-width:1.0;"/><line style="stroke:#334155;stroke-width:1.0;" x1="342.5" x2="939.5" y1="524.9297" y2="524.9297"/><text fill="#000000" font-family="sans-serif" font-size="13" font-weight="bold" lengthAdjust="spacing" textLength="9" x="349.5" y="519.8638">8</text><text fill="#000000" font-family="sans-serif" font-size="13" lengthAdjust="spacing" textLength="114" x="362.5" y="519.8638">submit OCI delete</text><polygon fill="#334155" points="353.5,550.0625,343.5,554.0625,353.5,558.0625,349.5,554.0625" style="stroke:#334155;stroke-width:1.0;"/><line style="stroke:#334155;stroke-width:1.0;stroke-dasharray:2.0,2.0;" x1="347.5" x2="944.5" y1="554.0625" y2="554.0625"/><text fill="#000000" font-family="sans-serif" font-size="13" font-weight="bold" lengthAdjust="spacing" textLength="9" x="359.5" y="548.9966">9</text><text fill="#000000" font-family="sans-serif" font-size="13" lengthAdjust="spacing" textLength="199" x="372.5" y="548.9966">return a delete work-request ID</text><polygon fill="#334155" points="1141.5,579.1953,1151.5,583.1953,1141.5,587.1953,1145.5,583.1953" style="stroke:#334155;stroke-width:1.0;"/><line style="stroke:#334155;stroke-width:1.0;" x1="342.5" x2="1147.5" y1="583.1953" y2="583.1953"/><text fill="#000000" font-family="sans-serif" font-size="13" font-weight="bold" lengthAdjust="spacing" textLength="18" x="349.5" y="578.1294">10</text><text fill="#000000" font-family="sans-serif" font-size="13" lengthAdjust="spacing" textLength="339" x="371.5" y="578.1294">wait for the matching delete work request to succeed</text><polygon fill="#334155" points="1141.5,608.3281,1151.5,612.3281,1141.5,616.3281,1145.5,612.3281" style="stroke:#334155;stroke-width:1.0;"/><line style="stroke:#334155;stroke-width:1.0;" x1="342.5" x2="1147.5" y1="612.3281" y2="612.3281"/><text fill="#000000" font-family="sans-serif" font-size="13" font-weight="bold" lengthAdjust="spacing" textLength="18" x="349.5" y="607.2622">11</text><text fill="#000000" font-family="sans-serif" font-size="13" lengthAdjust="spacing" textLength="496" x="371.5" y="607.2622">Look for a matching delete work request before submitting a duplicate delete.</text><polygon fill="#334155" points="1141.5,637.4609,1151.5,641.4609,1141.5,645.4609,1145.5,641.4609" style="stroke:#334155;stroke-width:1.0;"/><line style="stroke:#334155;stroke-width:1.0;" x1="342.5" x2="1147.5" y1="641.4609" y2="641.4609"/><text fill="#000000" font-family="sans-serif" font-size="13" font-weight="bold" lengthAdjust="spacing" textLength="18" x="349.5" y="636.395">12</text><text fill="#000000" font-family="sans-serif" font-size="13" lengthAdjust="spacing" textLength="681" x="371.5" y="636.395">Wait for the matching table delete work request to succeed, or treat an already-missing table as complete.</text><polygon fill="#334155" points="1017.5,666.5938,1027.5,670.5938,1017.5,674.5938,1021.5,670.5938" style="stroke:#334155;stroke-width:1.0;"/><line style="stroke:#334155;stroke-width:1.0;" x1="342.5" x2="1023.5" y1="670.5938" y2="670.5938"/><text fill="#000000" font-family="sans-serif" font-size="13" font-weight="bold" lengthAdjust="spacing" textLength="18" x="349.5" y="665.5278">13</text><text fill="#000000" font-family="sans-serif" font-size="13" lengthAdjust="spacing" textLength="289" x="371.5" y="665.5278">remove the finalizer after delete confirmation</text><line style="stroke:#475569;stroke-width:1.0;stroke-dasharray:2.0,2.0;" x1="10" x2="1231.5" y1="686.5938" y2="686.5938"/><text fill="#000000" font-family="sans-serif" font-size="11" font-weight="bold" lengthAdjust="spacing" textLength="147" x="15" y="696.8042">[OCI state is retryable]</text><polygon fill="#334155" points="67.5,717.5313,57.5,721.5313,67.5,725.5313,63.5,721.5313" style="stroke:#334155;stroke-width:1.0;"/><line style="stroke:#334155;stroke-width:1.0;stroke-dasharray:2.0,2.0;" x1="61.5" x2="341.5" y1="721.5313" y2="721.5313"/><text fill="#000000" font-family="sans-serif" font-size="13" font-weight="bold" lengthAdjust="spacing" textLength="18" x="73.5" y="716.4653">14</text><text fill="#000000" font-family="sans-serif" font-size="13" lengthAdjust="spacing" textLength="110" x="95.5" y="716.4653">requeue required</text><line style="stroke:#475569;stroke-width:1.0;stroke-dasharray:2.0,2.0;" x1="10" x2="1231.5" y1="730.5313" y2="730.5313"/><text fill="#000000" font-family="sans-serif" font-size="11" font-weight="bold" lengthAdjust="spacing" textLength="200" x="15" y="740.7417">[OCI state is failed or terminal]</text><polygon fill="#334155" points="67.5,761.4688,57.5,765.4688,67.5,769.4688,63.5,765.4688" style="stroke:#334155;stroke-width:1.0;"/><line style="stroke:#334155;stroke-width:1.0;stroke-dasharray:2.0,2.0;" x1="61.5" x2="341.5" y1="765.4688" y2="765.4688"/><text fill="#000000" font-family="sans-serif" font-size="13" font-weight="bold" lengthAdjust="spacing" textLength="18" x="73.5" y="760.4028">15</text><text fill="#000000" font-family="sans-serif" font-size="13" lengthAdjust="spacing" textLength="240" x="95.5" y="760.4028">unsuccessful terminal reconcile result</text><line style="stroke:#475569;stroke-width:1.0;stroke-dasharray:2.0,2.0;" x1="10" x2="1231.5" y1="774.4688" y2="774.4688"/><text fill="#000000" font-family="sans-serif" font-size="11" font-weight="bold" lengthAdjust="spacing" textLength="203" x="15" y="784.6792">[OCI state is active and usable]</text><path d="M258.5,795.2734 L405.5,795.2734 L405.5,802.4063 L395.5,812.4063 L258.5,812.4063 L258.5,795.2734 " fill="#F8FAFC" style="stroke:#475569;stroke-width:1.5;"/><rect fill="none" height="202.1953" style="stroke:#475569;stroke-width:1.5;" width="735.5" x="258.5" y="795.2734"/><text fill="#000000" font-family="sans-serif" font-size="13" font-weight="bold" lengthAdjust="spacing" textLength="102" x="273.5" y="808.3403">Drift handling</text><path d="M304,817.4063 L304,902.4063 L984,902.4063 L984,827.4063 L974,817.4063 L304,817.4063 " fill="#FEFFDD" style="stroke:#181818;stroke-width:0.5;"/><path d="M974,817.4063 L974,827.4063 L984,827.4063 L974,817.4063 " fill="#FEFFDD" style="stroke:#181818;stroke-width:0.5;"/><text fill="#000000" font-family="sans-serif" font-size="13" lengthAdjust="spacing" textLength="171" x="310" y="834.4731">Supported update surface:</text><text fill="#000000" font-family="sans-serif" font-size="13" lengthAdjust="spacing" textLength="97" x="310" y="849.606">- ddlStatement</text><text fill="#000000" font-family="sans-serif" font-size="13" lengthAdjust="spacing" textLength="79" x="310" y="864.7388">- tableLimits</text><text fill="#000000" font-family="sans-serif" font-size="13" lengthAdjust="spacing" textLength="94" x="310" y="879.8716">- freeformTags</text><text fill="#000000" font-family="sans-serif" font-size="13" lengthAdjust="spacing" textLength="86" x="310" y="895.0044">- definedTags</text><polygon fill="#334155" points="933.5,925.2031,943.5,929.2031,933.5,933.2031,937.5,929.2031" style="stroke:#334155;stroke-width:1.0;"/><line style="stroke:#334155;stroke-width:1.0;" x1="342.5" x2="939.5" y1="929.2031" y2="929.2031"/><text fill="#000000" font-family="sans-serif" font-size="13" font-weight="bold" lengthAdjust="spacing" textLength="18" x="349.5" y="924.1372">16</text><text fill="#000000" font-family="sans-serif" font-size="13" lengthAdjust="spacing" textLength="557" x="371.5" y="924.1372">Keep the retained OCID authoritative for update and delete once status.ocid is present.</text><path d="M268.5,944.2031 L338.5,944.2031 L338.5,951.3359 L328.5,961.3359 L268.5,961.3359 L268.5,944.2031 " fill="#F8FAFC" style="stroke:#475569;stroke-width:1.5;"/><rect fill="none" height="46.2656" style="stroke:#475569;stroke-width:1.5;" width="705" x="268.5" y="944.2031"/><text fill="#000000" font-family="sans-serif" font-size="13" font-weight="bold" lengthAdjust="spacing" textLength="25" x="283.5" y="957.27">opt</text><text fill="#000000" font-family="sans-serif" font-size="11" font-weight="bold" lengthAdjust="spacing" textLength="258" x="353.5" y="956.4136">[supported drift or collection diff exists]</text><polygon fill="#334155" points="933.5,978.4688,943.5,982.4688,933.5,986.4688,937.5,982.4688" style="stroke:#334155;stroke-width:1.0;"/><line style="stroke:#334155;stroke-width:1.0;" x1="342.5" x2="939.5" y1="982.4688" y2="982.4688"/><text fill="#000000" font-family="sans-serif" font-size="13" font-weight="bold" lengthAdjust="spacing" textLength="18" x="349.5" y="977.4028">17</text><text fill="#000000" font-family="sans-serif" font-size="13" lengthAdjust="spacing" textLength="277" x="371.5" y="977.4028">apply the supported in-place mutation path</text><polygon fill="#334155" points="67.5,1021.6016,57.5,1025.6016,67.5,1029.6016,63.5,1025.6016" style="stroke:#334155;stroke-width:1.0;"/><line style="stroke:#334155;stroke-width:1.0;stroke-dasharray:2.0,2.0;" x1="61.5" x2="341.5" y1="1025.6016" y2="1025.6016"/><text fill="#000000" font-family="sans-serif" font-size="13" font-weight="bold" lengthAdjust="spacing" textLength="18" x="73.5" y="1020.5356">18</text><text fill="#000000" font-family="sans-serif" font-size="13" lengthAdjust="spacing" textLength="169" x="95.5" y="1020.5356">successful active reconcile</text><path d="M31,1045.6016 L31,1191.6016 L969,1191.6016 L969,1055.6016 L959,1045.6016 L31,1045.6016 " fill="#FEFFDD" style="stroke:#181818;stroke-width:0.5;"/><path d="M959,1045.6016 L959,1055.6016 L969,1055.6016 L959,1045.6016 " fill="#FEFFDD" style="stroke:#181818;stroke-width:0.5;"/><text fill="#000000" font-family="sans-serif" font-size="13" lengthAdjust="spacing" textLength="105" x="37" y="1062.6685">Boundary notes:</text><text fill="#000000" font-family="sans-serif" font-size="13" lengthAdjust="spacing" textLength="467" x="37" y="1077.8013">- OCI-managed schema and replication internals outside the CRD surface</text><text fill="#000000" font-family="sans-serif" font-size="13" lengthAdjust="spacing" textLength="134" x="53" y="1092.9341">remain out of model.</text><text fill="#000000" font-family="sans-serif" font-size="13" lengthAdjust="spacing" textLength="473" x="37" y="1108.0669">- Compartment changes are applied in place before other supported table</text><text fill="#000000" font-family="sans-serif" font-size="13" lengthAdjust="spacing" textLength="56" x="53" y="1123.1997">updates.</text><text fill="#000000" font-family="sans-serif" font-size="13" lengthAdjust="spacing" textLength="108" x="37" y="1138.3325">Sequence notes:</text><text fill="#000000" font-family="sans-serif" font-size="13" lengthAdjust="spacing" textLength="474" x="37" y="1153.4653">- The delete path is work-request-backed rather than pure Get/404 polling.</text><text fill="#000000" font-family="sans-serif" font-size="13" lengthAdjust="spacing" textLength="166" x="37" y="1168.5981">Controller-local invariants:</text><text fill="#000000" font-family="sans-serif" font-size="13" lengthAdjust="spacing" textLength="229" x="37" y="1183.731">- StatusPresentUsesStatusInvariant</text><!--SRC=[bLRRRkCs47tNLmpIrtMQDfVDvg60uyIB8EasJLBiCosDR28IgP9KijwY_zup52rf4-TI0xQXcU5SpfmPAkXGCNsnjtzUqPaAQg4yqmtdrkGQYbl-ksMJSwRQO4rRBzXb_bwRHZbLar-fmZvgiwHILPv7cbELto-TRKqnivLrzDCyVaOMK-ViOrBkxn_ySdWuKXPSghOAT_mjJ2kzD3MRG1MNOHmyfKR_P4JNoWMTwqQPy3pqyNmwdpqnigvWbmmEFXuU7ds2mPKk-KeR_a7xwM2wVteyrhvG6z5dI9ljhZlLYwbDys3TC_NvtlpN-Ncl7ZlUctyyEZhF_isKg6XdParmjghOxP3oD3ncpL0rxTooUz30x7Tbr3BP9baIPSM61Jj_p2wY0Vv7qiiM930SsDFqkZEuFFPPBj7oeAtnjFFLkdkm20to8Lg883rdsP0SJNvx4lw4N4- -WhrsN91lE2Tb2ghq0vCFAhG- -_6OE48MSbeLDBj9Ll5KgOsgz7SOYP2pJ31kwChQU_o9nKAR0YYhAb1mQ09Y0bF-rbG0BaZzPr2AwpMasWSFQwBdAS3oX9OCDokcl7LEUElOszO1zCMQxerzDAGBo7MfWJOHOtB8s2wAzhGG0j2QmsinAYJHE_RYkT2-gTIQZAevdfHgOh8odtqEfNYF-cs-8uGDEo_kfGOvLpq0Zouxiq5VZcyI_xz1OW4vq0mSO-2vF_h-p3e7snEBmULNlfa0KN05nY9Cf22BlcF1MLIy1hLl5tL7WkGb6ilZP2jxG-iCgKt4Hn1_aiBInTaBWKRZSKAF2k5A453Ah5N8LmBkoD-c30eMsUKvS_4UlqBuw5UzxdN1CE9KTsmigcbb5gHZtOdTzmJykhKGx96AtoZdWynVa0vZFZUZDwcrzuC7R9NSrirhsQIDKDk7Zcd39b1bm6zA0lkcr0u9OdbjY2FSbXx7bI5ZYSQwjGJEdaT2g66ddNJrj1tRP85jyLOgBBYuPP17BMczxROr4HtloxRgZutM9MO8T-QMOBWYP77AfcjzAY6nt-aoq0gQ2i165BzO709Wxaaw7-GMIDFPDerrCdnjKqWCtxfIvNoIz1CgYkfMeikztGjZswuqIELxMUbOs5RVgUKWnEsFQxRePMW8ziphKth9tAID5PISJbkx3IlhD78H18IBAMK18xNVoaj4jpvsRQuBWQm1cCYz8vPj0ahSr5n4pE1fkF6mVCjoV3EycAPgcceTynmSQZF1vaOETHiY1wbHOVLaaxt9ZX4tKhzxPdHhS6ZiS2mrzLJsjNBhYBANDauatKaTO-42pbTSguYPusuHI9hQW8NWe2VR1ezBBHOskpdR429XWGb4IyI8R4cr1UwxCSOCyukta_XsbuE5Irnb2gj7KD8H6UgGIIl9mhyR8HSIcUNJzTNlHgJIc-6edBjLltC4NUdnU3LF5jsrxrGC4P0CDIr2VkRmyy7U0JN02oCYxWVu9fNDCOBQF2YdyNwLOjr6Bbrt5FhBi-y45nkph2VqVm00]--></g></svg>