<?xml version="1.0" encoding="UTF-8" standalone="no"?><svg xmlns="http://www.w3.org/2000/svg" xmlns:xlink="http://www.w3.org/1999/xlink" contentStyleType="text/css" height="479px" preserveAspectRatio="none" style="width:2530px;height:479px;background:#FFFFFF;" version="1.1" viewBox="0 0 2530 479" width="2530px" zoomAndPan="magnify"><defs/><g><text fill="#000000" font-family="sans-serif" font-size="14" font-weight="bold" lengthAdjust="spacing" textLength="327" x="1094.655" y="22.9951">NoSQL Database Reconcile State Machine</text><ellipse cx="16" cy="294.7969" fill="#222222" rx="10" ry="10" style="stroke:none;stroke-width:1.0;"/><g id="Observe"><rect fill="#F8FAFC" height="50.2656" rx="6" ry="6" style="stroke:#475569;stroke-width:0.5;" width="329" x="86" y="269.7969"/><line style="stroke:#475569;stroke-width:0.5;" x1="86" x2="415" y1="296.0938" y2="296.0938"/><text fill="#0F172A" font-family="sans-serif" font-size="14" lengthAdjust="spacing" textLength="58" x="221.5" y="287.792">Observe</text><text fill="#0F172A" font-family="sans-serif" font-size="12" lengthAdjust="spacing" textLength="309" x="91" y="312.2324">read spec, status, delete intent, and OCI lifecycle</text></g><rect fill="#F8FAFC" height="40" rx="6" ry="6" style="stroke:#475569;stroke-width:0.5;" width="122" x="475" y="274.7969"/><text fill="#0F172A" font-family="sans-serif" font-size="14" lengthAdjust="spacing" textLength="112" x="480" y="299.6436">ResolveByName</text><rect fill="#F8FAFC" height="40" rx="6" ry="6" style="stroke:#475569;stroke-width:0.5;" width="111" x="657" y="191.7969"/><text fill="#0F172A" font-family="sans-serif" font-size="14" lengthAdjust="spacing" textLength="101" x="662" y="216.6436">EvaluateReady</text><rect fill="#F8FAFC" height="40" rx="6" ry="6" style="stroke:#475569;stroke-width:0.5;" width="75" x="861.5" y="274.7969"/><text fill="#0F172A" font-family="sans-serif" font-size="14" lengthAdjust="spacing" textLength="65" x="866.5" y="299.6436">Retryable</text><rect fill="#F8FAFC" height="40" rx="6" ry="6" style="stroke:#475569;stroke-width:0.5;" width="50" x="1053.5" y="360.7969"/><text fill="#0F172A" font-family="sans-serif" font-size="14" lengthAdjust="spacing" textLength="40" x="1058.5" y="385.6436">Failed</text><rect fill="#F8FAFC" height="40" rx="6" ry="6" style="stroke:#475569;stroke-width:0.5;" width="142" x="828" y="181.7969"/><text fill="#0F172A" font-family="sans-serif" font-size="14" lengthAdjust="spacing" textLength="132" x="833" y="206.6436">MoveCompartment</text><rect fill="#F8FAFC" height="40" rx="6" ry="6" style="stroke:#475569;stroke-width:0.5;" width="97" x="1030" y="181.7969"/><text fill="#0F172A" font-family="sans-serif" font-size="14" lengthAdjust="spacing" textLength="87" x="1035" y="206.6436">ApplyUpdate</text><rect fill="#F8FAFC" height="40" rx="6" ry="6" style="stroke:#475569;stroke-width:0.5;" width="53" x="1187" y="181.7969"/><text fill="#0F172A" font-family="sans-serif" font-size="14" lengthAdjust="spacing" textLength="43" x="1192" y="206.6436">Ready</text><rect fill="#F8FAFC" height="40" rx="6" ry="6" style="stroke:#475569;stroke-width:0.5;" width="113" x="1446.5" y="315.7969"/><text fill="#0F172A" font-family="sans-serif" font-size="14" lengthAdjust="spacing" textLength="103" x="1451.5" y="340.6436">DeletePending</text><rect fill="#F8FAFC" height="40" rx="6" ry="6" style="stroke:#475569;stroke-width:0.5;" width="207" x="1864.5" y="251.7969"/><text fill="#0F172A" font-family="sans-serif" font-size="14" lengthAdjust="spacing" textLength="197" x="1869.5" y="276.6436">DeleteWorkRequestPending</text><rect fill="#F8FAFC" height="40" rx="6" ry="6" style="stroke:#475569;stroke-width:0.5;" width="65" x="2230" y="251.7969"/><text fill="#0F172A" font-family="sans-serif" font-size="14" lengthAdjust="spacing" textLength="55" x="2235" y="276.6436">Deleted</text><g id="elem_GMN31"><path d="M1300,49.2969 L1300,191.1269 L1240.22,195.1269 L1300,199.1269 L1300,274.2891 A6,6 0 0 0 1306,280.2891 L1700,280.2891 A6,6 0 0 0 1706,274.2891 L1706,53.2969 L1696,43.2969 L1306,43.2969 A6,6 0 0 0 1300,49.2969 " fill="#FFF7ED" style="stroke:#181818;stroke-width:0.5;"/><path d="M1696,43.2969 L1696,50.2969 A3,3 0 0 0 1699,53.2969 L1706,53.2969 L1696,43.2969 " fill="#FFF7ED" style="stroke:#181818;stroke-width:0.5;"/><text fill="#0F172A" font-family="sans-serif" font-size="13" lengthAdjust="spacing" textLength="69" x="1306" y="60.3638">Archetype:</text><text fill="#0F172A" font-family="sans-serif" font-size="13" lengthAdjust="spacing" textLength="138" x="1306" y="75.4966">- resolved-drift-delete</text><text fill="#0F172A" font-family="sans-serif" font-size="13" lengthAdjust="spacing" textLength="102" x="1306" y="90.6294">Update surface:</text><text fill="#0F172A" font-family="sans-serif" font-size="13" lengthAdjust="spacing" textLength="97" x="1306" y="105.7622">- ddlStatement</text><text fill="#0F172A" font-family="sans-serif" font-size="13" lengthAdjust="spacing" textLength="79" x="1306" y="120.895">- tableLimits</text><text fill="#0F172A" font-family="sans-serif" font-size="13" lengthAdjust="spacing" textLength="94" x="1306" y="136.0278">- freeformTags</text><text fill="#0F172A" font-family="sans-serif" font-size="13" lengthAdjust="spacing" textLength="86" x="1306" y="151.1606">- definedTags</text><text fill="#0F172A" font-family="sans-serif" font-size="13" lengthAdjust="spacing" textLength="175" x="1306" y="166.2935">Reject before mutate: none</text><text fill="#0F172A" font-family="sans-serif" font-size="13" lengthAdjust="spacing" textLength="105" x="1306" y="181.4263">Boundary notes:</text><text fill="#0F172A" font-family="sans-serif" font-size="13" lengthAdjust="spacing" textLength="385" x="1306" y="196.5591">- OCI-managed schema and replication internals outside the</text><text fill="#0F172A" font-family="sans-serif" font-size="13" lengthAdjust="spacing" textLength="216" x="1322" y="211.6919">CRD surface remain out of model.</text><text fill="#0F172A" font-family="sans-serif" font-size="13" lengthAdjust="spacing" textLength="368" x="1306" y="226.8247">- Compartment changes are applied in place before other</text><text fill="#0F172A" font-family="sans-serif" font-size="13" lengthAdjust="spacing" textLength="161" x="1322" y="241.9575">supported table updates.</text><text fill="#0F172A" font-family="sans-serif" font-size="13" lengthAdjust="spacing" textLength="166" x="1306" y="257.0903">Controller-local invariants:</text><text fill="#0F172A" font-family="sans-serif" font-size="13" lengthAdjust="spacing" textLength="229" x="1306" y="272.2231">- StatusPresentUsesStatusInvariant</text></g><g id="elem_GMN34"><path d="M1766,332.7969 L1766,337.2969 L1559.55,341.2969 L1766,345.2969 L1766,466.9922 A6,6 0 0 0 1772,472.9922 L2164,472.9922 A6,6 0 0 0 2170,466.9922 L2170,336.7969 L2160,326.7969 L1772,326.7969 A6,6 0 0 0 1766,332.7969 " fill="#FFF7ED" style="stroke:#181818;stroke-width:0.5;"/><path d="M2160,326.7969 L2160,333.7969 A3,3 0 0 0 2163,336.7969 L2170,336.7969 L2160,326.7969 " fill="#FFF7ED" style="stroke:#181818;stroke-width:0.5;"/><text fill="#0F172A" font-family="sans-serif" font-size="13" lengthAdjust="spacing" textLength="90" x="1772" y="343.8638">Delete states:</text><text fill="#0F172A" font-family="sans-serif" font-size="13" lengthAdjust="spacing" textLength="102" x="1772" y="358.9966">- DeletePending</text><text fill="#0F172A" font-family="sans-serif" font-size="13" lengthAdjust="spacing" textLength="185" x="1772" y="374.1294">- DeleteWorkRequestPending</text><text fill="#0F172A" font-family="sans-serif" font-size="13" lengthAdjust="spacing" textLength="59" x="1772" y="389.2622">- Deleted</text><text fill="#0F172A" font-family="sans-serif" font-size="13" lengthAdjust="spacing" textLength="103" x="1772" y="404.395">Delete workflow:</text><text fill="#0F172A" font-family="sans-serif" font-size="13" lengthAdjust="spacing" textLength="383" x="1772" y="419.5278">- Look for a matching delete work request before submitting</text><text fill="#0F172A" font-family="sans-serif" font-size="13" lengthAdjust="spacing" textLength="118" x="1788" y="434.6606">a duplicate delete.</text><text fill="#0F172A" font-family="sans-serif" font-size="13" lengthAdjust="spacing" textLength="329" x="1772" y="449.7935">- Wait for the matching table delete work request to</text><text fill="#0F172A" font-family="sans-serif" font-size="13" lengthAdjust="spacing" textLength="357" x="1788" y="464.9263">succeed, or treat an already-missing table as complete.</text></g><!--link *start to Observe--><g id="link_*start_Observe"><path d="M26.08,294.7969 C26.08,294.7969 80.84,294.7969 80.84,294.7969 " fill="none" id="*start-to-Observe" style="stroke:#181818;stroke-width:1.0;"/><polygon fill="#181818" points="85.84,294.7969,76.84,290.7969,80.84,294.7969,76.84,298.7969,85.84,294.7969" style="stroke:#181818;stroke-width:1.0;"/></g><!--link Observe to ResolveByName--><g id="link_Observe_ResolveByName"><path d="M415.34,294.7969 C415.34,294.7969 469.86,294.7969 469.86,294.7969 " fill="none" id="Observe-to-ResolveByName" style="stroke:#181818;stroke-width:1.0;"/><polygon fill="#181818" points="474.86,294.7969,465.86,290.7969,469.86,294.7969,465.86,298.7969,474.86,294.7969" style="stroke:#181818;stroke-width:1.0;"/><text fill="#000000" font-family="sans-serif" font-size="13" lengthAdjust="spacing" textLength="163" x="443.6" y="299.3638">status/spec OCID missing</text></g><!--link ResolveByName to EvaluateReady--><g id="link_ResolveByName_EvaluateReady"><path d="M597.41,284.7969 C648.53,284.7969 713,284.7969 713,284.7969 C713,284.7969 713,237.1269 713,237.1269 " fill="none" id="ResolveByName-to-EvaluateReady" style="stroke:#181818;stroke-width:1.0;"/><polygon fill="#181818" points="713,232.1269,709,241.1269,713,237.1269,717,241.1269,713,232.1269" style="stroke:#181818;stroke-width:1.0;"/><text fill="#000000" font-family="sans-serif" font-size="13" lengthAdjust="spacing" textLength="123" x="680.04" y="280.8638">OCI state in ACTIVE</text></g><!--link ResolveByName to Retryable--><g id="link_ResolveByName_Retryable"><path d="M597.17,294.7969 C597.17,294.7969 856.26,294.7969 856.26,294.7969 " fill="none" id="ResolveByName-to-Retryable" style="stroke:#181818;stroke-width:1.0;"/><polygon fill="#181818" points="861.26,294.7969,852.26,290.7969,856.26,294.7969,852.26,298.7969,861.26,294.7969" style="stroke:#181818;stroke-width:1.0;"/><text fill="#000000" font-family="sans-serif" font-size="13" lengthAdjust="spacing" textLength="217" x="727.71" y="299.3638">OCI state in CREATING, UPDATING</text></g><!--link ResolveByName to Failed--><g id="link_ResolveByName_Failed"><path d="M536,314.9069 C536,342.1569 536,387.4669 536,387.4669 C536,387.4669 1048.42,387.4669 1048.42,387.4669 " fill="none" id="ResolveByName-to-Failed" style="stroke:#181818;stroke-width:1.0;"/><polygon fill="#181818" points="1053.42,387.4669,1044.42,383.4669,1048.42,387.4669,1044.42,391.4669,1053.42,387.4669" style="stroke:#181818;stroke-width:1.0;"/><text fill="#000000" font-family="sans-serif" font-size="13" lengthAdjust="spacing" textLength="259" x="495.93" y="400.5338">OCI state in FAILED, DELETING, DELETED</text></g><!--link EvaluateReady to MoveCompartment--><g id="link_EvaluateReady_MoveCompartment"><path d="M768.2,206.7969 C768.2,206.7969 822.67,206.7969 822.67,206.7969 " fill="none" id="EvaluateReady-to-MoveCompartment" style="stroke:#181818;stroke-width:1.0;"/><polygon fill="#181818" points="827.67,206.7969,818.67,202.7969,822.67,206.7969,818.67,210.7969,827.67,206.7969" style="stroke:#181818;stroke-width:1.0;"/><text fill="#000000" font-family="sans-serif" font-size="13" lengthAdjust="spacing" textLength="158" x="636.44" y="202.8638">continue active reconcile</text></g><!--link MoveCompartment to ApplyUpdate--><g id="link_MoveCompartment_ApplyUpdate"><path d="M970.2,201.7969 C970.2,201.7969 1024.76,201.7969 1024.76,201.7969 " fill="none" id="MoveCompartment-to-ApplyUpdate" style="stroke:#181818;stroke-width:1.0;"/><polygon fill="#181818" points="1029.76,201.7969,1020.76,197.7969,1024.76,201.7969,1020.76,205.7969,1029.76,201.7969" style="stroke:#181818;stroke-width:1.0;"/><text fill="#000000" font-family="sans-serif" font-size="13" lengthAdjust="spacing" textLength="221" x="775.48" y="214.8638">continue after compartment move</text></g><!--link ApplyUpdate to Ready--><g id="link_ApplyUpdate_Ready"><path d="M1127.24,195.1269 C1127.24,195.1269 1181.81,195.1269 1181.81,195.1269 " fill="none" id="ApplyUpdate-to-Ready" style="stroke:#181818;stroke-width:1.0;"/><polygon fill="#181818" points="1186.81,195.1269,1177.81,191.1269,1181.81,195.1269,1177.81,199.1269,1186.81,195.1269" style="stroke:#181818;stroke-width:1.0;"/><text fill="#000000" font-family="sans-serif" font-size="13" lengthAdjust="spacing" textLength="231" x="922.52" y="191.1938">supported mutation path completes</text></g><!--link Ready to Ready--><g id="link_Ready_Ready"><path d="M1186.9,208.4669 C1172.25,208.4669 1157,208.4669 1157,208.4669 C1157,208.4669 1157,226.7969 1157,226.7969 C1157,226.7969 1270,226.7969 1270,226.7969 C1270,226.7969 1270,208.4669 1270,208.4669 C1270,208.4669 1245.1,208.4669 1245.1,208.4669 " fill="none" id="Ready-to-Ready" style="stroke:#181818;stroke-width:1.0;"/><polygon fill="#181818" points="1240.1,208.4669,1249.1,212.4669,1245.1,208.4669,1249.1,204.4669,1240.1,208.4669" style="stroke:#181818;stroke-width:1.0;"/><text fill="#000000" font-family="sans-serif" font-size="13" lengthAdjust="spacing" textLength="170" x="1035" y="244.8638">no supported drift remains</text></g><!--link Retryable to Retryable--><g id="link_Retryable_Retryable"><path d="M861.5,304.7969 C852.28,304.7969 845,304.7969 845,304.7969 C845,304.7969 845,325.7969 845,325.7969 C845,325.7969 954,325.7969 954,325.7969 C954,325.7969 954,299.4669 954,299.4669 C954,299.4669 941.6,299.4669 941.6,299.4669 " fill="none" id="Retryable-to-Retryable" style="stroke:#181818;stroke-width:1.0;"/><polygon fill="#181818" points="936.6,299.4669,945.6,303.4669,941.6,299.4669,945.6,295.4669,936.6,299.4669" style="stroke:#181818;stroke-width:1.0;"/><text fill="#000000" font-family="sans-serif" font-size="13" lengthAdjust="spacing" textLength="159" x="735.12" y="343.8638">OCI remains nonterminal</text></g><!--link Failed to Failed--><g id="link_Failed_Failed"><path d="M1053.15,374.1269 C1046.92,374.1269 1042,374.1269 1042,374.1269 C1042,374.1269 1042,343.7969 1042,343.7969 C1042,343.7969 1116,343.7969 1116,343.7969 C1116,343.7969 1116,380.7969 1116,380.7969 C1116,380.7969 1108.72,380.7969 1108.72,380.7969 " fill="none" id="Failed-to-Failed" style="stroke:#181818;stroke-width:1.0;"/><polygon fill="#181818" points="1103.72,380.7969,1112.72,384.7969,1108.72,380.7969,1112.72,376.7969,1103.72,380.7969" style="stroke:#181818;stroke-width:1.0;"/><text fill="#000000" font-family="sans-serif" font-size="13" lengthAdjust="spacing" textLength="135" x="1086.4" y="355.1138">OCI remains terminal</text></g><!--link Ready to DeletePending--><g id="link_Ready_DeletePending"><path d="M1214,221.8269 C1214,258.2869 1214,331.7969 1214,331.7969 C1214,331.7969 1441.25,331.7969 1441.25,331.7969 " fill="none" id="Ready-to-DeletePending" style="stroke:#181818;stroke-width:1.0;"/><polygon fill="#181818" points="1446.25,331.7969,1437.25,327.7969,1441.25,331.7969,1437.25,335.7969,1446.25,331.7969" style="stroke:#181818;stroke-width:1.0;"/><text fill="#000000" font-family="sans-serif" font-size="13" lengthAdjust="spacing" textLength="109" x="1273.64" y="344.8638">delete requested</text></g><!--link Retryable to DeletePending--><g id="link_Retryable_DeletePending"><path d="M899,315.0369 C899,326.1869 899,337.7969 899,337.7969 C899,337.7969 1441.45,337.7969 1441.45,337.7969 " fill="none" id="Retryable-to-DeletePending" style="stroke:#181818;stroke-width:1.0;"/><polygon fill="#181818" points="1446.45,337.7969,1437.45,333.7969,1441.45,337.7969,1437.45,341.7969,1446.45,337.7969" style="stroke:#181818;stroke-width:1.0;"/><text fill="#000000" font-family="sans-serif" font-size="13" lengthAdjust="spacing" textLength="109" x="1048.84" y="333.8638">delete requested</text></g><!--link Failed to DeletePending--><g id="link_Failed_DeletePending"><path d="M1079,360.6369 C1079,354.7169 1079,349.7969 1079,349.7969 C1079,349.7969 1441.26,349.7969 1441.26,349.7969 " fill="none" id="Failed-to-DeletePending" style="stroke:#181818;stroke-width:1.0;"/><polygon fill="#181818" points="1446.26,349.7969,1437.26,345.7969,1441.26,349.7969,1437.26,353.7969,1446.26,349.7969" style="stroke:#181818;stroke-width:1.0;"/><text fill="#000000" font-family="sans-serif" font-size="13" lengthAdjust="spacing" textLength="109" x="1255.71" y="362.8638">delete requested</text></g><!--link DeletePending to DeleteWorkRequestPending--><g id="link_DeletePending_DeleteWorkRequestPending"><path d="M1503,315.5569 C1503,301.7869 1503,286.0469 1503,286.0469 C1503,286.0469 1859.22,286.0469 1859.22,286.0469 " fill="none" id="DeletePending-to-DeleteWorkRequestPending" style="stroke:#181818;stroke-width:1.0;"/><polygon fill="#181818" points="1864.22,286.0469,1855.22,282.0469,1859.22,286.0469,1855.22,290.0469,1864.22,286.0469" style="stroke:#181818;stroke-width:1.0;"/><text fill="#000000" font-family="sans-serif" font-size="13" lengthAdjust="spacing" textLength="265" x="1400.35" y="299.1138">wait for the matching delete work request</text></g><!--link DeleteWorkRequestPending to Deleted--><g id="link_DeleteWorkRequestPending_Deleted"><path d="M2071.83,265.1269 C2071.83,265.1269 2224.78,265.1269 2224.78,265.1269 " fill="none" id="DeleteWorkRequestPending-to-Deleted" style="stroke:#181818;stroke-width:1.0;"/><polygon fill="#181818" points="2229.78,265.1269,2220.78,261.1269,2224.78,265.1269,2220.78,269.1269,2229.78,265.1269" style="stroke:#181818;stroke-width:1.0;"/><text fill="#000000" font-family="sans-serif" font-size="13" lengthAdjust="spacing" textLength="373" x="2149.31" y="261.1938">OCI deletion is confirmed and the finalizer can be removed</text></g><!--link Deleted to Deleted--><g id="link_Deleted_Deleted"><path d="M2229.79,278.4669 C2214.66,278.4669 2200,278.4669 2200,278.4669 C2200,278.4669 2200,307.1269 2200,307.1269 C2200,307.1269 2313,307.1269 2313,307.1269 C2313,307.1269 2313,271.7969 2313,271.7969 C2313,271.7969 2300.05,271.7969 2300.05,271.7969 " fill="none" id="Deleted-to-Deleted" style="stroke:#181818;stroke-width:1.0;"/><polygon fill="#181818" points="2295.05,271.7969,2304.05,275.7969,2300.05,271.7969,2304.05,267.7969,2295.05,271.7969" style="stroke:#181818;stroke-width:1.0;"/><text fill="#000000" font-family="sans-serif" font-size="13" lengthAdjust="spacing" textLength="100" x="2257.41" y="325.1938">terminal stutter</text></g><!--SRC=[XLLDSzis4BtpL-nCRnt9pPVhneVEwBEZ6SLnPRivT7fO4Ki9CGYm02X7oUI_TnSaBKfH6byi4liUTj- -NKOT3S6Dk_jp2LECkCP0iABSsLppmLt4IF0Eywssb1ag8aG7Nc-s4PJsb4VjRBRLYe3AAkv1KSYzhjBhyAXjXHvB25jKxadR3HHe0lLE3FF6VKNWVDowte5tjLMvyvOyl7pLEnXZ_hX9fnDdd8UVvkcl5w6emDh4U_eKHqPlR4asWkJUpoWLzYK363kloBTSRwukBtzzos_dpiRstOlvowjN8udyvkRVvgFv9FlQuxNk7EtupUNh5s_FKipdLxFfsGk_Pd___0yCXx_3-tKWlwEi_G_Nu0aLX8hoGQga3WEksX3VhMtaSWU0Li7xoO85BYZVv-Q05iOL1MTsDDxVO2by3SalmYYeAPGw1EvNTXmeqDaEJStYhJY5FKFbaaPDRM4qkL_yDJk3Mb7qUrmREaLCLhFH_UBcZm4yt4xJhpFeER8PrIbqFbeiPzC1J6VBMKEHVh6SnpaAmpkteuahkKansU4QsE9Hsve0sSGiY-zCdvt62dvKLMR_K2cvkeyj8lipxmMN3CxwqKtrZLQXhYesEfTIrbm53mbK6BU9GBeNiaF67SQw7anvpIFegKHj9RWJzPp4RHGJi2LygIsQh1No6qsxsEV0GnxJvAjRiahczxhpcQT_QmgSqqaMFmplfV33sEE00-I3yu-h9kg0Va8TeU01Ybk24gFih4t7-SI8ZZZxBidXXawO19S-wI1TBxGl-Ko6IsufH2lzMIo05jQIklI_IroT47RgieNho0zPbjP5iqvTqRGy6_byctRYTJPamZGBQfWwFsogoLfhXTeNcASufKpQrU91VepIZwKkTGpyL7WY5gQynuqyydxahQlIque-yXBdrFcS6bUIU8wt_LZM5Ffzscb1Bc51XYLQt70rWPCiCIdXgJ8wR-miwyTpYG5S7ODy5rWdNc_0Wpxj4cxj9Y5ITkcuh0lcxmzTlaMxeG38QI6Fa-Ox6L8PmRVfEkRsYVmm8Qbog9D0uIARiFczCuRyqBYSfTTsXrwZZQcYkxJtRbbbllCXK6XUBBgWZ8sHwZzjrP4pstOtcodn7XyFlslRvwFECiceXN5Fmh9qxZ4v6l_NpvqSeLvpmwFGYYO8gcuQGorADFvmTaeQrSvnHzSAdET4QW22vAzFvCu36laExOVjnw9bmV2ypouE-lq7]--></g></svg>