<?xml version="1.0" encoding="UTF-8" standalone="no"?><svg xmlns="http://www.w3.org/2000/svg" xmlns:xlink="http://www.w3.org/1999/xlink" contentStyleType="text/css" height="683px" preserveAspectRatio="none" style="width:557px;height:683px;background:#FFFFFF;" version="1.1" viewBox="0 0 557 683" width="557px" zoomAndPan="magnify"><defs/><g><text fill="#000000" font-family="sans-serif" font-size="14" font-weight="bold" lengthAdjust="spacing" textLength="287" x="125.085" y="22.9951">NoSQL Database Controller Contract</text><ellipse cx="255.67" cy="201.2969" fill="#222222" rx="10" ry="10" style="stroke:none;stroke-width:1.0;"/><g id="LookupOrCreate"><rect fill="#F1F1F1" height="50" rx="12.5" ry="12.5" style="stroke:#181818;stroke-width:0.5;" width="133" x="189.17" y="419.2969"/><line style="stroke:#181818;stroke-width:0.5;" x1="189.17" x2="322.17" y1="445.5938" y2="445.5938"/><text fill="#000000" font-family="sans-serif" font-size="14" lengthAdjust="spacing" textLength="113" x="199.17" y="437.292">LookupOrCreate</text></g><g id="Provisioning"><rect fill="#F1F1F1" height="50" rx="12.5" ry="12.5" style="stroke:#181818;stroke-width:0.5;" width="103" x="53.17" y="546.2969"/><line style="stroke:#181818;stroke-width:0.5;" x1="53.17" x2="156.17" y1="572.5938" y2="572.5938"/><text fill="#000000" font-family="sans-serif" font-size="14" lengthAdjust="spacing" textLength="83" x="63.17" y="564.292">Provisioning</text></g><g id="Active"><rect fill="#F1F1F1" height="50" rx="12.5" ry="12.5" style="stroke:#181818;stroke-width:0.5;" width="61" x="270.17" y="546.2969"/><line style="stroke:#181818;stroke-width:0.5;" x1="270.17" x2="331.17" y1="572.5938" y2="572.5938"/><text fill="#000000" font-family="sans-serif" font-size="14" lengthAdjust="spacing" textLength="41" x="280.17" y="564.292">Active</text></g><g id="Failed"><rect fill="#F1F1F1" height="50" rx="12.5" ry="12.5" style="stroke:#181818;stroke-width:0.5;" width="60" x="366.67" y="546.2969"/><line style="stroke:#181818;stroke-width:0.5;" x1="366.67" x2="426.67" y1="572.5938" y2="572.5938"/><text fill="#000000" font-family="sans-serif" font-size="14" lengthAdjust="spacing" textLength="40" x="376.67" y="564.292">Failed</text></g><ellipse cx="347.67" cy="667.2969" fill="none" rx="10" ry="10" style="stroke:#222222;stroke-width:1.0;"/><ellipse cx="348.17" cy="667.7969" fill="#222222" rx="6" ry="6" style="stroke:none;stroke-width:1.0;"/><path d="M313.67,44.2969 L531.67,44.2969 A12.5,12.5 0 0 1 544.17,56.7969 L544.17,70.5938 L301.17,70.5938 L301.17,56.7969 A12.5,12.5 0 0 1 313.67,44.2969 " fill="#F1F1F1" style="stroke:#F1F1F1;stroke-width:1.0;"/><rect fill="none" height="314.2969" rx="12.5" ry="12.5" style="stroke:#181818;stroke-width:0.5;" width="243" x="301.17" y="44.2969"/><line style="stroke:#181818;stroke-width:0.5;" x1="301.17" x2="544.17" y1="70.5938" y2="70.5938"/><text fill="#000000" font-family="sans-serif" font-size="14" lengthAdjust="spacing" textLength="80" x="382.67" y="62.292">DeleteLoop</text><ellipse cx="343.17" cy="91.5938" fill="#222222" rx="10" ry="10" style="stroke:none;stroke-width:1.0;"/><g id="DeleteLoop.Exists"><rect fill="#F1F1F1" height="50" rx="12.5" ry="12.5" style="stroke:#181818;stroke-width:0.5;" width="60" x="313.17" y="138.5938"/><line style="stroke:#181818;stroke-width:0.5;" x1="313.17" x2="373.17" y1="164.8906" y2="164.8906"/><text fill="#000000" font-family="sans-serif" font-size="14" lengthAdjust="spacing" textLength="40" x="323.17" y="156.5889">Exists</text></g><g id="DeleteLoop.Gone"><rect fill="#F1F1F1" height="50" rx="12.5" ry="12.5" style="stroke:#181818;stroke-width:0.5;" width="58" x="314.17" y="241.5938"/><line style="stroke:#181818;stroke-width:0.5;" x1="314.17" x2="372.17" y1="267.8906" y2="267.8906"/><text fill="#000000" font-family="sans-serif" font-size="14" lengthAdjust="spacing" textLength="38" x="324.17" y="259.5889">Gone</text></g><ellipse cx="343.17" cy="338.5938" fill="none" rx="10" ry="10" style="stroke:#222222;stroke-width:1.0;"/><ellipse cx="343.67" cy="339.0938" fill="#222222" rx="6" ry="6" style="stroke:none;stroke-width:1.0;"/><!--link *start*DeleteLoop to Exists--><g id="link_*start*DeleteLoop_Exists"><path d="M343.17,101.7438 C343.17,109.7838 343.17,121.9238 343.17,133.2438 " fill="none" id="*start*DeleteLoop-to-Exists" style="stroke:#181818;stroke-width:1.0;"/><polygon fill="#181818" points="343.17,138.3738,347.17,129.3738,343.17,133.3738,339.17,129.3738,343.17,138.3738" style="stroke:#181818;stroke-width:1.0;"/></g><!--link Exists to Exists--><g id="link_Exists_Exists"><path d="M373.64,155.7238 C383.42,155.8038 391.17,158.4238 391.17,163.5938 C391.17,167.7938 386.05,170.3138 378.89,171.1538 " fill="none" id="Exists-to-Exists" style="stroke:#181818;stroke-width:1.0;"/><polygon fill="#181818" points="373.64,171.4638,382.864,174.916,378.631,171.1634,382.3835,166.9304,373.64,171.4638" style="stroke:#181818;stroke-width:1.0;"/><text fill="#000000" font-family="sans-serif" font-size="13" lengthAdjust="spacing" textLength="109" x="408.67" y="160.6606">delete submitted</text><text fill="#000000" font-family="sans-serif" font-size="13" lengthAdjust="spacing" textLength="132" x="397.17" y="175.7935">get still returns table</text></g><!--link Exists to Gone--><g id="link_Exists_Gone"><path d="M343.17,188.7838 C343.17,202.9238 343.17,220.8738 343.17,235.8738 " fill="none" id="Exists-to-Gone" style="stroke:#181818;stroke-width:1.0;"/><polygon fill="#181818" points="343.17,241.2538,347.17,232.2538,343.17,236.2538,339.17,232.2538,343.17,241.2538" style="stroke:#181818;stroke-width:1.0;"/><text fill="#000000" font-family="sans-serif" font-size="13" lengthAdjust="spacing" textLength="99" x="344.17" y="219.6606">get returns 404</text></g><!--link Gone to *end*DeleteLoop--><g id="link_Gone_*end*DeleteLoop"><path d="M343.17,291.6838 C343.17,302.1638 343.17,314.0938 343.17,323.1638 " fill="none" id="Gone-to-*end*DeleteLoop" style="stroke:#181818;stroke-width:1.0;"/><polygon fill="#181818" points="343.17,328.4038,347.17,319.4038,343.17,323.4038,339.17,319.4038,343.17,328.4038" style="stroke:#181818;stroke-width:1.0;"/></g><!--link *start to LookupOrCreate--><g id="link_*start_LookupOrCreate"><path d="M255.67,211.4469 C255.67,244.5969 255.67,359.2969 255.67,413.9269 " fill="none" id="*start-to-LookupOrCreate" style="stroke:#181818;stroke-width:1.0;"/><polygon fill="#181818" points="255.67,419.0269,259.67,410.0269,255.67,414.0269,251.67,410.0269,255.67,419.0269" style="stroke:#181818;stroke-width:1.0;"/></g><!--link LookupOrCreate to Provisioning--><g id="link_LookupOrCreate_Provisioning"><path d="M188.95,451.4669 C127.04,458.7369 41.4,473.2669 20.67,499.2969 C6,517.7169 24.96,534.8669 48.55,547.6969 " fill="none" id="LookupOrCreate-to-Provisioning" style="stroke:#181818;stroke-width:1.0;"/><polygon fill="#181818" points="53,550.0369,46.9255,542.2844,48.5835,547.6928,43.1751,549.3508,53,550.0369" style="stroke:#181818;stroke-width:1.0;"/><text fill="#000000" font-family="sans-serif" font-size="13" lengthAdjust="spacing" textLength="143" x="21.67" y="512.3638">CREATING / UPDATING</text></g><!--link Provisioning to LookupOrCreate--><g id="link_Provisioning_LookupOrCreate"><path d="M133.7,546.2669 C159.05,525.2769 195.85,494.8169 222.39,472.8469 " fill="none" id="Provisioning-to-LookupOrCreate" style="stroke:#181818;stroke-width:1.0;"/><polygon fill="#181818" points="226.56,469.3969,217.0736,472.0441,222.7049,472.5809,222.168,478.2122,226.56,469.3969" style="stroke:#181818;stroke-width:1.0;"/><text fill="#000000" font-family="sans-serif" font-size="13" lengthAdjust="spacing" textLength="53" x="190.67" y="512.3638">requeue</text></g><!--link LookupOrCreate to Active--><g id="link_LookupOrCreate_Active"><path d="M264.35,469.3969 C271.76,489.9769 282.43,519.6269 290.29,541.4569 " fill="none" id="LookupOrCreate-to-Active" style="stroke:#181818;stroke-width:1.0;"/><polygon fill="#181818" points="292.02,546.2669,292.7562,536.4456,290.3365,541.5588,285.2233,539.1392,292.02,546.2669" style="stroke:#181818;stroke-width:1.0;"/><text fill="#000000" font-family="sans-serif" font-size="13" lengthAdjust="spacing" textLength="45" x="282.67" y="512.3638">ACTIVE</text></g><!--link LookupOrCreate to Failed--><g id="link_LookupOrCreate_Failed"><path d="M296.86,469.5469 C310.15,478.1969 324.57,488.4969 336.67,499.2969 C350.97,512.0569 364.91,528.2469 375.75,541.9469 " fill="none" id="LookupOrCreate-to-Failed" style="stroke:#181818;stroke-width:1.0;"/><polygon fill="#181818" points="379.01,546.1169,376.5964,536.5683,375.9215,542.1848,370.3051,541.5099,379.01,546.1169" style="stroke:#181818;stroke-width:1.0;"/><text fill="#000000" font-family="sans-serif" font-size="13" lengthAdjust="spacing" textLength="150" x="353.67" y="512.3638">FAILED or terminal fault</text></g><!--link Active to *end--><g id="link_Active_*end"><path d="M312.78,596.5069 C321.87,614.6869 333.96,638.8669 341.26,653.4769 " fill="none" id="Active-to-*end" style="stroke:#181818;stroke-width:1.0;"/><polygon fill="#181818" points="343.54,658.0369,343.0802,648.1988,341.2982,653.5676,335.9294,651.7856,343.54,658.0369" style="stroke:#181818;stroke-width:1.0;"/></g><!--link Failed to *end--><g id="link_Failed_*end"><path d="M384.05,596.5069 C374.58,614.6869 361.97,638.8669 354.36,653.4769 " fill="none" id="Failed-to-*end" style="stroke:#181818;stroke-width:1.0;"/><polygon fill="#181818" points="351.98,658.0369,359.6779,651.8934,354.2845,653.5996,352.5783,648.2062,351.98,658.0369" style="stroke:#181818;stroke-width:1.0;"/></g><!--SRC=[RP11Ry8m38Nl-HK-8o5suBJ3fAejg5B5sCPssNO8r21h9c69Wv2c_VUvXKghu6Oxt_DxiP0mmiA_FDLGMB5h6n5oxoHuPWpdqcx4cFVH9up73r1x_vKEZo4FQ0NDiEs8PV17YkGTkHtSG_vSPgjgCOS9l2wBhhoboZP2HrG-orVLMtaBcLbYR1IPPLLT5k0328OzESkmjOarvS3xEgvg0tudJ6WkVYsZNpENtNrhehHuWOo2kkC0FmQWlq5veYXH1-VYtqmDcau3CQtt98BDXzkXG1HYLdD9mKNGGpCEzNFlsdWjsrFJkwaotKEVwzVy0G00]--></g></svg>