<?xml version="1.0" encoding="UTF-8" standalone="no"?><svg xmlns="http://www.w3.org/2000/svg" xmlns:xlink="http://www.w3.org/1999/xlink" contentStyleType="text/css" height="1598px" preserveAspectRatio="none" style="width:1706px;height:1598px;background:#FFFFFF;" version="1.1" viewBox="0 0 1706 1598" width="1706px" zoomAndPan="magnify"><defs/><g><text fill="#000000" font-family="sans-serif" font-size="14" font-weight="bold" lengthAdjust="spacing" textLength="232" x="735.5" y="32.9951">OCI Subnet Reconcile Activity</text><ellipse cx="630.5" cy="57.2969" fill="#0F766E" rx="10" ry="10" style="stroke:#222222;stroke-width:1.0;"/><rect fill="none" height="362.1406" style="stroke:#000000;stroke-width:1.5;" width="686" x="308" y="77.2969"/><path d="M441,77.2969 L441,86.5938 L431,96.5938 L308,96.5938 " fill="none" style="stroke:#000000;stroke-width:1.5;"/><text fill="#000000" font-family="sans-serif" font-size="14" lengthAdjust="spacing" textLength="123" x="311" y="91.292">Observe and Bind</text><rect fill="#F8FAFC" height="33.9688" rx="12.5" ry="12.5" style="stroke:#475569;stroke-width:0.5;" width="304" x="478.5" y="113.5938"/><text fill="#0F172A" font-family="sans-serif" font-size="12" lengthAdjust="spacing" textLength="284" x="488.5" y="134.7324">Read CR spec, status OCID, and delete intent</text><rect fill="#F8FAFC" height="33.9688" rx="12.5" ry="12.5" style="stroke:#475569;stroke-width:0.5;" width="460" x="400.5" y="167.5625"/><text fill="#0F172A" font-family="sans-serif" font-size="12" lengthAdjust="spacing" textLength="440" x="410.5" y="188.7012">Keep status-bound OCID authoritative for later update or delete paths</text><polygon fill="#E2E8F0" points="530.5,221.5313,730.5,221.5313,742.5,233.5313,730.5,245.5313,530.5,245.5313,518.5,233.5313,530.5,221.5313" style="stroke:#475569;stroke-width:0.5;"/><text fill="#0F172A" font-family="sans-serif" font-size="11" lengthAdjust="spacing" textLength="200" x="530.5" y="237.3394">"Tracked or explicit OCID present?"</text><text fill="#000000" font-family="sans-serif" font-size="11" lengthAdjust="spacing" textLength="20" x="498.5" y="230.937">yes</text><text fill="#000000" font-family="sans-serif" font-size="11" lengthAdjust="spacing" textLength="14" x="742.5" y="230.937">no</text><rect fill="#F8FAFC" height="33.9688" rx="12.5" ry="12.5" style="stroke:#475569;stroke-width:0.5;" width="272" x="328" y="255.5313"/><text fill="#0F172A" font-family="sans-serif" font-size="12" lengthAdjust="spacing" textLength="252" x="338" y="276.6699">Get the OCI resource by known identifier</text><rect fill="#F8FAFC" height="33.9688" rx="12.5" ry="12.5" style="stroke:#475569;stroke-width:0.5;" width="328" x="633" y="255.5313"/><text fill="#0F172A" font-family="sans-serif" font-size="12" lengthAdjust="spacing" textLength="308" x="643" y="276.6699">Resolve an existing OCI resource by display name</text><rect fill="#F8FAFC" height="33.9688" rx="12.5" ry="12.5" style="stroke:#475569;stroke-width:0.5;" width="345" x="624.5" y="309.5"/><text fill="#0F172A" font-family="sans-serif" font-size="12" lengthAdjust="spacing" textLength="325" x="634.5" y="330.6387">Continue list pagination until a match or exhaustion</text><rect fill="#F8FAFC" height="33.9688" rx="12.5" ry="12.5" style="stroke:#475569;stroke-width:0.5;" width="354" x="620" y="363.4688"/><text fill="#0F172A" font-family="sans-serif" font-size="12" lengthAdjust="spacing" textLength="334" x="630" y="384.6074">Persist the resolved or created OCID back into status</text><polygon fill="#E2E8F0" points="630.5,403.4375,642.5,415.4375,630.5,427.4375,618.5,415.4375,630.5,403.4375" style="stroke:#475569;stroke-width:0.5;"/><path d="M1309,832.957 L1309,1266.6758 L1694,1266.6758 L1694,842.957 L1684,832.957 L1309,832.957 " fill="#FEFFDD" style="stroke:#181818;stroke-width:0.5;"/><path d="M1684,832.957 L1684,842.957 L1694,842.957 L1684,832.957 " fill="#FEFFDD" style="stroke:#181818;stroke-width:0.5;"/><text fill="#000000" font-family="sans-serif" font-size="13" lengthAdjust="spacing" textLength="69" x="1315" y="850.0239">Archetype:</text><text fill="#000000" font-family="sans-serif" font-size="13" lengthAdjust="spacing" textLength="207" x="1315" y="865.1567">- resolved-drift-delete-paginated</text><text fill="#000000" font-family="sans-serif" font-size="13" lengthAdjust="spacing" textLength="134" x="1315" y="880.2896">Retryable OCI states:</text><text fill="#000000" font-family="sans-serif" font-size="13" lengthAdjust="spacing" textLength="102" x="1315" y="895.4224">- PROVISIONING</text><text fill="#000000" font-family="sans-serif" font-size="13" lengthAdjust="spacing" textLength="76" x="1315" y="910.5552">- UPDATING</text><text fill="#000000" font-family="sans-serif" font-size="13" lengthAdjust="spacing" textLength="113" x="1315" y="925.688">Active OCI states:</text><text fill="#000000" font-family="sans-serif" font-size="13" lengthAdjust="spacing" textLength="79" x="1315" y="940.8208">- AVAILABLE</text><text fill="#000000" font-family="sans-serif" font-size="13" lengthAdjust="spacing" textLength="111" x="1315" y="955.9536">Failed OCI states:</text><text fill="#000000" font-family="sans-serif" font-size="13" lengthAdjust="spacing" textLength="53" x="1315" y="971.0864">- FAILED</text><text fill="#000000" font-family="sans-serif" font-size="13" lengthAdjust="spacing" textLength="67" x="1315" y="986.2192">- DELETED</text><text fill="#000000" font-family="sans-serif" font-size="13" lengthAdjust="spacing" textLength="102" x="1315" y="1001.3521">Update surface:</text><text fill="#000000" font-family="sans-serif" font-size="13" lengthAdjust="spacing" textLength="94" x="1315" y="1016.4849">- display name</text><text fill="#000000" font-family="sans-serif" font-size="13" lengthAdjust="spacing" textLength="96" x="1315" y="1031.6177">- freeform tags</text><text fill="#000000" font-family="sans-serif" font-size="13" lengthAdjust="spacing" textLength="88" x="1315" y="1046.7505">- defined tags</text><text fill="#000000" font-family="sans-serif" font-size="13" lengthAdjust="spacing" textLength="66" x="1315" y="1061.8833">- cidrBlock</text><text fill="#000000" font-family="sans-serif" font-size="13" lengthAdjust="spacing" textLength="88" x="1315" y="1077.0161">- routeTableId</text><text fill="#000000" font-family="sans-serif" font-size="13" lengthAdjust="spacing" textLength="99" x="1315" y="1092.1489">- securityListIds</text><text fill="#000000" font-family="sans-serif" font-size="13" lengthAdjust="spacing" textLength="139" x="1315" y="1107.2817">Reject before mutate:</text><text fill="#000000" font-family="sans-serif" font-size="13" lengthAdjust="spacing" textLength="154" x="1315" y="1122.4146">- availabilityDomain drift</text><text fill="#000000" font-family="sans-serif" font-size="13" lengthAdjust="spacing" textLength="95" x="1315" y="1137.5474">- dnsLabel drift</text><text fill="#000000" font-family="sans-serif" font-size="13" lengthAdjust="spacing" textLength="179" x="1315" y="1152.6802">- prohibitPublicIpOnVnic drift</text><text fill="#000000" font-family="sans-serif" font-size="13" lengthAdjust="spacing" textLength="71" x="1315" y="1167.813">- vcnId drift</text><text fill="#000000" font-family="sans-serif" font-size="13" lengthAdjust="spacing" textLength="105" x="1315" y="1182.9458">Boundary notes:</text><text fill="#000000" font-family="sans-serif" font-size="13" lengthAdjust="spacing" textLength="353" x="1315" y="1198.0786">- The current formal notes remain lifecycle-centric even</text><text fill="#000000" font-family="sans-serif" font-size="13" lengthAdjust="spacing" textLength="348" x="1331" y="1213.2114">though the implementation now reconciles CIDR, route</text><text fill="#000000" font-family="sans-serif" font-size="13" lengthAdjust="spacing" textLength="298" x="1331" y="1228.3442">table, security list, tag, and compartment drift.</text><text fill="#000000" font-family="sans-serif" font-size="13" lengthAdjust="spacing" textLength="166" x="1315" y="1243.4771">Controller-local invariants:</text><text fill="#000000" font-family="sans-serif" font-size="13" lengthAdjust="spacing" textLength="229" x="1315" y="1258.6099">- StatusPresentUsesStatusInvariant</text><polygon fill="#E2E8F0" points="573.5,459.4375,687.5,459.4375,699.5,471.4375,687.5,483.4375,573.5,483.4375,561.5,471.4375,573.5,459.4375" style="stroke:#475569;stroke-width:0.5;"/><text fill="#0F172A" font-family="sans-serif" font-size="11" lengthAdjust="spacing" textLength="114" x="573.5" y="475.2456">"Delete requested?"</text><text fill="#000000" font-family="sans-serif" font-size="11" lengthAdjust="spacing" textLength="20" x="541.5" y="468.8433">yes</text><text fill="#000000" font-family="sans-serif" font-size="11" lengthAdjust="spacing" textLength="14" x="699.5" y="468.8433">no</text><rect fill="none" height="220.2031" style="stroke:#000000;stroke-width:1.5;" width="585" x="11" y="493.4375"/><path d="M67,493.4375 L67,502.7344 L57,512.7344 L11,512.7344 " fill="none" style="stroke:#000000;stroke-width:1.5;"/><text fill="#000000" font-family="sans-serif" font-size="14" lengthAdjust="spacing" textLength="46" x="14" y="507.4326">Delete</text><rect fill="#F8FAFC" height="33.9688" rx="12.5" ry="12.5" style="stroke:#475569;stroke-width:0.5;" width="225" x="191" y="529.7344"/><text fill="#0F172A" font-family="sans-serif" font-size="12" lengthAdjust="spacing" textLength="205" x="201" y="550.873">Submit OCI delete for OCI Subnet</text><rect fill="#F8FAFC" height="33.9688" rx="12.5" ry="12.5" style="stroke:#475569;stroke-width:0.5;" width="565" x="21" y="598.7031"/><text fill="#0F172A" font-family="sans-serif" font-size="12" lengthAdjust="spacing" textLength="545" x="31" y="619.8418">Confirm deletion with follow-up GetSubnet calls until the resource is gone or not found.</text><rect fill="#F8FAFC" height="33.9688" rx="12.5" ry="12.5" style="stroke:#475569;stroke-width:0.5;" width="338" x="134.5" y="667.6719"/><text fill="#0F172A" font-family="sans-serif" font-size="12" lengthAdjust="spacing" textLength="318" x="144.5" y="688.8105">Remove the finalizer after OCI deletion is confirmed</text><ellipse cx="303.5" cy="759.6406" fill="none" rx="11" ry="11" style="stroke:#222222;stroke-width:1.0;"/><ellipse cx="303.5" cy="759.6406" fill="#222222" rx="6" ry="6" style="stroke:#111111;stroke-width:1.0;"/><rect fill="none" height="416.3594" style="stroke:#000000;stroke-width:1.5;" width="376" x="775.5" y="493.4375"/><path d="M936.5,493.4375 L936.5,502.7344 L926.5,512.7344 L775.5,512.7344 " fill="none" style="stroke:#000000;stroke-width:1.5;"/><text fill="#000000" font-family="sans-serif" font-size="14" lengthAdjust="spacing" textLength="151" x="778.5" y="507.4326">Lifecycle Classification</text><rect fill="#F8FAFC" height="33.9688" rx="12.5" ry="12.5" style="stroke:#475569;stroke-width:0.5;" width="268" x="823.5" y="578.1367"/><text fill="#0F172A" font-family="sans-serif" font-size="12" lengthAdjust="spacing" textLength="248" x="833.5" y="599.2754">Request requeue and keep the finalizer</text><ellipse cx="957.5" cy="658.1055" fill="none" rx="11" ry="11" style="stroke:#222222;stroke-width:1.0;"/><ellipse cx="957.5" cy="658.1055" fill="#222222" rx="6" ry="6" style="stroke:#111111;stroke-width:1.0;"/><polygon fill="#E2E8F0" points="877.5,529.7344,1037.5,529.7344,1049.5,541.7344,1037.5,553.7344,877.5,553.7344,865.5,541.7344,877.5,529.7344" style="stroke:#475569;stroke-width:0.5;"/><text fill="#000000" font-family="sans-serif" font-size="11" lengthAdjust="spacing" textLength="20" x="961.5" y="563.9448">yes</text><text fill="#0F172A" font-family="sans-serif" font-size="11" lengthAdjust="spacing" textLength="160" x="877.5" y="545.5425">"OCI state in retryable set?"</text><rect fill="#F8FAFC" height="33.9688" rx="12.5" ry="12.5" style="stroke:#475569;stroke-width:0.5;" width="324" x="795.5" y="774.9102"/><text fill="#0F172A" font-family="sans-serif" font-size="12" lengthAdjust="spacing" textLength="304" x="805.5" y="796.0488">Return an unsuccessful terminal reconcile result</text><ellipse cx="957.5" cy="848.3945" fill="none" rx="11" ry="11" style="stroke:#222222;stroke-width:1.0;"/><ellipse cx="957.5" cy="848.3945" fill="#222222" rx="6" ry="6" style="stroke:#111111;stroke-width:1.0;"/><polygon fill="#E2E8F0" points="887.5,726.5078,1027.5,726.5078,1039.5,738.5078,1027.5,750.5078,887.5,750.5078,875.5,738.5078,887.5,726.5078" style="stroke:#475569;stroke-width:0.5;"/><text fill="#000000" font-family="sans-serif" font-size="11" lengthAdjust="spacing" textLength="20" x="961.5" y="760.7183">yes</text><text fill="#0F172A" font-family="sans-serif" font-size="11" lengthAdjust="spacing" textLength="140" x="887.5" y="742.3159">"OCI state in failed set?"</text><rect fill="none" height="635.8828" style="stroke:#000000;stroke-width:1.5;" width="683" x="616" y="944.7969"/><path d="M795,944.7969 L795,954.0938 L785,964.0938 L616,964.0938 " fill="none" style="stroke:#000000;stroke-width:1.5;"/><text fill="#000000" font-family="sans-serif" font-size="14" lengthAdjust="spacing" textLength="169" x="619" y="958.792">Ready and Drift Handling</text><rect fill="#F8FAFC" height="33.9688" rx="12.5" ry="12.5" style="stroke:#475569;stroke-width:0.5;" width="364" x="775.5" y="981.0938"/><text fill="#0F172A" font-family="sans-serif" font-size="12" lengthAdjust="spacing" textLength="344" x="785.5" y="1002.2324">Compare live OCI state with the supported drift surface</text><rect fill="#F8FAFC" height="33.9688" rx="12.5" ry="12.5" style="stroke:#475569;stroke-width:0.5;" width="290" x="812.5" y="1098.4648"/><text fill="#0F172A" font-family="sans-serif" font-size="12" lengthAdjust="spacing" textLength="270" x="822.5" y="1119.6035">Reject the change before any OCI mutation</text><ellipse cx="957.5" cy="1178.4336" fill="none" rx="11" ry="11" style="stroke:#222222;stroke-width:1.0;"/><ellipse cx="957.5" cy="1178.4336" fill="#222222" rx="6" ry="6" style="stroke:#111111;stroke-width:1.0;"/><polygon fill="#E2E8F0" points="833,1050.0625,1082,1050.0625,1094,1062.0625,1082,1074.0625,833,1074.0625,821,1062.0625,833,1050.0625" style="stroke:#475569;stroke-width:0.5;"/><text fill="#000000" font-family="sans-serif" font-size="11" lengthAdjust="spacing" textLength="20" x="961.5" y="1084.2729">yes</text><text fill="#0F172A" font-family="sans-serif" font-size="11" lengthAdjust="spacing" textLength="249" x="833" y="1065.8706">"Unsupported or immutable drift detected?"</text><rect fill="#F8FAFC" height="33.9688" rx="12.5" ry="12.5" style="stroke:#475569;stroke-width:0.5;" width="453" x="731" y="1254.8359"/><text fill="#0F172A" font-family="sans-serif" font-size="12" lengthAdjust="spacing" textLength="433" x="741" y="1275.9746">Reuse the tracked OCID from status or spec before any fresh lookup.</text><rect fill="#F8FAFC" height="33.9688" rx="12.5" ry="12.5" style="stroke:#475569;stroke-width:0.5;" width="458" x="728.5" y="1308.8047"/><text fill="#0F172A" font-family="sans-serif" font-size="12" lengthAdjust="spacing" textLength="438" x="738.5" y="1329.9434">Treat securityListIds as an order-insensitive set while diffing live state.</text><rect fill="#F8FAFC" height="33.9688" rx="12.5" ry="12.5" style="stroke:#475569;stroke-width:0.5;" width="663" x="626" y="1362.7734"/><text fill="#0F172A" font-family="sans-serif" font-size="12" lengthAdjust="spacing" textLength="643" x="636" y="1383.9121">Move the Subnet compartment before calling the mutable update path when compartment drift exists.</text><polygon fill="#E2E8F0" points="880,1416.7422,1035,1416.7422,1047,1428.7422,1035,1440.7422,880,1440.7422,868,1428.7422,880,1416.7422" style="stroke:#475569;stroke-width:0.5;"/><text fill="#0F172A" font-family="sans-serif" font-size="11" lengthAdjust="spacing" textLength="155" x="880" y="1432.5503">"Supported drift detected?"</text><text fill="#000000" font-family="sans-serif" font-size="11" lengthAdjust="spacing" textLength="20" x="848" y="1426.1479">yes</text><text fill="#000000" font-family="sans-serif" font-size="11" lengthAdjust="spacing" textLength="14" x="1047" y="1426.1479">no</text><rect fill="#F8FAFC" height="33.9688" rx="12.5" ry="12.5" style="stroke:#475569;stroke-width:0.5;" width="329" x="649.75" y="1450.7422"/><text fill="#0F172A" font-family="sans-serif" font-size="12" lengthAdjust="spacing" textLength="309" x="659.75" y="1471.8809">Apply only the supported in-place update surface</text><rect fill="#F8FAFC" height="33.9688" rx="12.5" ry="12.5" style="stroke:#475569;stroke-width:0.5;" width="204" x="998.75" y="1450.7422"/><text fill="#0F172A" font-family="sans-serif" font-size="12" lengthAdjust="spacing" textLength="184" x="1008.75" y="1471.8809">Skip the no-op mutation path</text><polygon fill="#E2E8F0" points="957.5,1490.7109,969.5,1502.7109,957.5,1514.7109,945.5,1502.7109,957.5,1490.7109" style="stroke:#475569;stroke-width:0.5;"/><rect fill="#F8FAFC" height="33.9688" rx="12.5" ry="12.5" style="stroke:#475569;stroke-width:0.5;" width="287" x="814" y="1534.7109"/><text fill="#0F172A" font-family="sans-serif" font-size="12" lengthAdjust="spacing" textLength="267" x="824" y="1555.8496">Return success for the usable active state</text><line style="stroke:#334155;stroke-width:1.0;" x1="630.5" x2="630.5" y1="147.5625" y2="167.5625"/><polygon fill="#334155" points="626.5,157.5625,630.5,167.5625,634.5,157.5625,630.5,161.5625" style="stroke:#334155;stroke-width:1.0;"/><line style="stroke:#334155;stroke-width:1.0;" x1="797" x2="797" y1="289.5" y2="309.5"/><polygon fill="#334155" points="793,299.5,797,309.5,801,299.5,797,303.5" style="stroke:#334155;stroke-width:1.0;"/><line style="stroke:#334155;stroke-width:1.0;" x1="797" x2="797" y1="343.4688" y2="363.4688"/><polygon fill="#334155" points="793,353.4688,797,363.4688,801,353.4688,797,357.4688" style="stroke:#334155;stroke-width:1.0;"/><line style="stroke:#334155;stroke-width:1.0;" x1="518.5" x2="464" y1="233.5313" y2="233.5313"/><line style="stroke:#334155;stroke-width:1.0;" x1="464" x2="464" y1="233.5313" y2="255.5313"/><polygon fill="#334155" points="460,245.5313,464,255.5313,468,245.5313,464,249.5313" style="stroke:#334155;stroke-width:1.0;"/><line style="stroke:#334155;stroke-width:1.0;" x1="742.5" x2="797" y1="233.5313" y2="233.5313"/><line style="stroke:#334155;stroke-width:1.0;" x1="797" x2="797" y1="233.5313" y2="255.5313"/><polygon fill="#334155" points="793,245.5313,797,255.5313,801,245.5313,797,249.5313" style="stroke:#334155;stroke-width:1.0;"/><line style="stroke:#334155;stroke-width:1.0;" x1="464" x2="464" y1="289.5" y2="415.4375"/><line style="stroke:#334155;stroke-width:1.0;" x1="464" x2="618.5" y1="415.4375" y2="415.4375"/><polygon fill="#334155" points="608.5,411.4375,618.5,415.4375,608.5,419.4375,612.5,415.4375" style="stroke:#334155;stroke-width:1.0;"/><line style="stroke:#334155;stroke-width:1.0;" x1="797" x2="797" y1="397.4375" y2="415.4375"/><line style="stroke:#334155;stroke-width:1.0;" x1="797" x2="642.5" y1="415.4375" y2="415.4375"/><polygon fill="#334155" points="652.5,411.4375,642.5,415.4375,652.5,419.4375,648.5,415.4375" style="stroke:#334155;stroke-width:1.0;"/><line style="stroke:#334155;stroke-width:1.0;" x1="630.5" x2="630.5" y1="201.5313" y2="221.5313"/><polygon fill="#334155" points="626.5,211.5313,630.5,221.5313,634.5,211.5313,630.5,215.5313" style="stroke:#334155;stroke-width:1.0;"/><line style="stroke:#334155;stroke-width:1.0;" x1="630.5" x2="630.5" y1="67.2969" y2="113.5938"/><polygon fill="#334155" points="626.5,103.5938,630.5,113.5938,634.5,103.5938,630.5,107.5938" style="stroke:#334155;stroke-width:1.0;"/><line style="stroke:#334155;stroke-width:1.0;" x1="303.5" x2="303.5" y1="563.7031" y2="598.7031"/><polygon fill="#334155" points="299.5,588.7031,303.5,598.7031,307.5,588.7031,303.5,592.7031" style="stroke:#334155;stroke-width:1.0;"/><line style="stroke:#334155;stroke-width:1.0;" x1="303.5" x2="303.5" y1="632.6719" y2="667.6719"/><polygon fill="#334155" points="299.5,657.6719,303.5,667.6719,307.5,657.6719,303.5,661.6719" style="stroke:#334155;stroke-width:1.0;"/><line style="stroke:#334155;stroke-width:1.0;" x1="303.5" x2="303.5" y1="701.6406" y2="748.6406"/><polygon fill="#334155" points="299.5,738.6406,303.5,748.6406,307.5,738.6406,303.5,742.6406" style="stroke:#334155;stroke-width:1.0;"/><line style="stroke:#334155;stroke-width:1.0;" x1="957.5" x2="957.5" y1="612.1055" y2="647.1055"/><polygon fill="#334155" points="953.5,637.1055,957.5,647.1055,961.5,637.1055,957.5,641.1055" style="stroke:#334155;stroke-width:1.0;"/><line style="stroke:#334155;stroke-width:1.0;" x1="957.5" x2="957.5" y1="553.7344" y2="578.1367"/><polygon fill="#334155" points="953.5,568.1367,957.5,578.1367,961.5,568.1367,957.5,572.1367" style="stroke:#334155;stroke-width:1.0;"/><line style="stroke:#334155;stroke-width:1.0;" x1="1049.5" x2="1101.5" y1="541.7344" y2="541.7344"/><polygon fill="#334155" points="1097.5,610.6211,1101.5,620.6211,1105.5,610.6211,1101.5,614.6211" style="stroke:#334155;stroke-width:1.0;"/><line style="stroke:#334155;stroke-width:1.0;" x1="1101.5" x2="1101.5" y1="541.7344" y2="699.5078"/><line style="stroke:#334155;stroke-width:1.0;" x1="1101.5" x2="957.5" y1="699.5078" y2="699.5078"/><line style="stroke:#334155;stroke-width:1.0;" x1="957.5" x2="957.5" y1="699.5078" y2="726.5078"/><polygon fill="#334155" points="953.5,716.5078,957.5,726.5078,961.5,716.5078,957.5,720.5078" style="stroke:#334155;stroke-width:1.0;"/><line style="stroke:#334155;stroke-width:1.0;" x1="957.5" x2="957.5" y1="808.8789" y2="837.3945"/><polygon fill="#334155" points="953.5,827.3945,957.5,837.3945,961.5,827.3945,957.5,831.3945" style="stroke:#334155;stroke-width:1.0;"/><line style="stroke:#334155;stroke-width:1.0;" x1="957.5" x2="957.5" y1="750.5078" y2="774.9102"/><polygon fill="#334155" points="953.5,764.9102,957.5,774.9102,961.5,764.9102,957.5,768.9102" style="stroke:#334155;stroke-width:1.0;"/><line style="stroke:#334155;stroke-width:1.0;" x1="1039.5" x2="1129.5" y1="738.5078" y2="738.5078"/><polygon fill="#334155" points="1125.5,807.3945,1129.5,817.3945,1133.5,807.3945,1129.5,811.3945" style="stroke:#334155;stroke-width:1.0;"/><line style="stroke:#334155;stroke-width:1.0;" x1="1129.5" x2="1129.5" y1="738.5078" y2="889.7969"/><line style="stroke:#334155;stroke-width:1.0;" x1="1129.5" x2="957.5" y1="889.7969" y2="889.7969"/><line style="stroke:#334155;stroke-width:1.0;" x1="957.5" x2="957.5" y1="889.7969" y2="981.0938"/><polygon fill="#334155" points="953.5,971.0938,957.5,981.0938,961.5,971.0938,957.5,975.0938" style="stroke:#334155;stroke-width:1.0;"/><line style="stroke:#334155;stroke-width:1.0;" x1="957.5" x2="957.5" y1="1132.4336" y2="1167.4336"/><polygon fill="#334155" points="953.5,1157.4336,957.5,1167.4336,961.5,1157.4336,957.5,1161.4336" style="stroke:#334155;stroke-width:1.0;"/><line style="stroke:#334155;stroke-width:1.0;" x1="957.5" x2="957.5" y1="1074.0625" y2="1098.4648"/><polygon fill="#334155" points="953.5,1088.4648,957.5,1098.4648,961.5,1088.4648,957.5,1092.4648" style="stroke:#334155;stroke-width:1.0;"/><line style="stroke:#334155;stroke-width:1.0;" x1="1094" x2="1112.5" y1="1062.0625" y2="1062.0625"/><polygon fill="#334155" points="1108.5,1130.9492,1112.5,1140.9492,1116.5,1130.9492,1112.5,1134.9492" style="stroke:#334155;stroke-width:1.0;"/><line style="stroke:#334155;stroke-width:1.0;" x1="1112.5" x2="1112.5" y1="1062.0625" y2="1219.8359"/><line style="stroke:#334155;stroke-width:1.0;" x1="1112.5" x2="957.5" y1="1219.8359" y2="1219.8359"/><line style="stroke:#334155;stroke-width:1.0;" x1="957.5" x2="957.5" y1="1219.8359" y2="1254.8359"/><polygon fill="#334155" points="953.5,1244.8359,957.5,1254.8359,961.5,1244.8359,957.5,1248.8359" style="stroke:#334155;stroke-width:1.0;"/><line style="stroke:#334155;stroke-width:1.0;" x1="957.5" x2="957.5" y1="1015.0625" y2="1050.0625"/><polygon fill="#334155" points="953.5,1040.0625,957.5,1050.0625,961.5,1040.0625,957.5,1044.0625" style="stroke:#334155;stroke-width:1.0;"/><line style="stroke:#334155;stroke-width:1.0;" x1="957.5" x2="957.5" y1="1288.8047" y2="1308.8047"/><polygon fill="#334155" points="953.5,1298.8047,957.5,1308.8047,961.5,1298.8047,957.5,1302.8047" style="stroke:#334155;stroke-width:1.0;"/><line style="stroke:#334155;stroke-width:1.0;" x1="957.5" x2="957.5" y1="1342.7734" y2="1362.7734"/><polygon fill="#334155" points="953.5,1352.7734,957.5,1362.7734,961.5,1352.7734,957.5,1356.7734" style="stroke:#334155;stroke-width:1.0;"/><line style="stroke:#334155;stroke-width:1.0;" x1="868" x2="814.25" y1="1428.7422" y2="1428.7422"/><line style="stroke:#334155;stroke-width:1.0;" x1="814.25" x2="814.25" y1="1428.7422" y2="1450.7422"/><polygon fill="#334155" points="810.25,1440.7422,814.25,1450.7422,818.25,1440.7422,814.25,1444.7422" style="stroke:#334155;stroke-width:1.0;"/><line style="stroke:#334155;stroke-width:1.0;" x1="1047" x2="1100.75" y1="1428.7422" y2="1428.7422"/><line style="stroke:#334155;stroke-width:1.0;" x1="1100.75" x2="1100.75" y1="1428.7422" y2="1450.7422"/><polygon fill="#334155" points="1096.75,1440.7422,1100.75,1450.7422,1104.75,1440.7422,1100.75,1444.7422" style="stroke:#334155;stroke-width:1.0;"/><line style="stroke:#334155;stroke-width:1.0;" x1="814.25" x2="814.25" y1="1484.7109" y2="1502.7109"/><line style="stroke:#334155;stroke-width:1.0;" x1="814.25" x2="945.5" y1="1502.7109" y2="1502.7109"/><polygon fill="#334155" points="935.5,1498.7109,945.5,1502.7109,935.5,1506.7109,939.5,1502.7109" style="stroke:#334155;stroke-width:1.0;"/><line style="stroke:#334155;stroke-width:1.0;" x1="1100.75" x2="1100.75" y1="1484.7109" y2="1502.7109"/><line style="stroke:#334155;stroke-width:1.0;" x1="1100.75" x2="969.5" y1="1502.7109" y2="1502.7109"/><polygon fill="#334155" points="979.5,1498.7109,969.5,1502.7109,979.5,1506.7109,975.5,1502.7109" style="stroke:#334155;stroke-width:1.0;"/><line style="stroke:#334155;stroke-width:1.0;" x1="957.5" x2="957.5" y1="1396.7422" y2="1416.7422"/><polygon fill="#334155" points="953.5,1406.7422,957.5,1416.7422,961.5,1406.7422,957.5,1410.7422" style="stroke:#334155;stroke-width:1.0;"/><line style="stroke:#334155;stroke-width:1.0;" x1="957.5" x2="957.5" y1="1514.7109" y2="1534.7109"/><polygon fill="#334155" points="953.5,1524.7109,957.5,1534.7109,961.5,1524.7109,957.5,1528.7109" style="stroke:#334155;stroke-width:1.0;"/><line style="stroke:#334155;stroke-width:1.0;" x1="561.5" x2="303.5" y1="471.4375" y2="471.4375"/><line style="stroke:#334155;stroke-width:1.0;" x1="303.5" x2="303.5" y1="471.4375" y2="529.7344"/><polygon fill="#334155" points="299.5,519.7344,303.5,529.7344,307.5,519.7344,303.5,523.7344" style="stroke:#334155;stroke-width:1.0;"/><line style="stroke:#334155;stroke-width:1.0;" x1="699.5" x2="957.5" y1="471.4375" y2="471.4375"/><line style="stroke:#334155;stroke-width:1.0;" x1="957.5" x2="957.5" y1="471.4375" y2="529.7344"/><polygon fill="#334155" points="953.5,519.7344,957.5,529.7344,961.5,519.7344,957.5,523.7344" style="stroke:#334155;stroke-width:1.0;"/><line style="stroke:#334155;stroke-width:1.0;" x1="957.5" x2="957.5" y1="1568.6797" y2="1586.6797"/><line style="stroke:#334155;stroke-width:1.0;" x1="957.5" x2="630.5" y1="1586.6797" y2="1586.6797"/><line style="stroke:#334155;stroke-width:1.0;" x1="630.5" x2="630.5" y1="427.4375" y2="459.4375"/><polygon fill="#334155" points="626.5,449.4375,630.5,459.4375,634.5,449.4375,630.5,453.4375" style="stroke:#334155;stroke-width:1.0;"/><!--SRC=[VLRRSjis47tdLs3S5sV6yiH9RAVnGqVM9TLKZJsox7S814LK8C3Y8aNjvD-xkm1riTLa9Wa9xFNisKC55RHa3uC9UueB8mERIM6DK73O5q6jLTWMVgLConrlcAzvQJVAB5d5jPS7D_TSh9REHbCEhBQE_JAcFmSMVUVi9bz-_FZfwlhwuBAK5OywpENtqDTgQHff0jEo2WSsFDV3_YtOYNoVn_tn06-iAwNBfvzkhwzlVeNJiJKXdxqVNzr-wCFPKF76cl9DgD67qUVn-mE3an6V0dVxaBStDoCu7Es2t8wlXbV3uaVXqQuee8UWWhA6dJqil7HhoRWfsRqovHbrz6KcUSa6C-PRAIuOk8NeSJB32x8ifPP1CcK2O7E73dz8sMQxtWBh9sl6OwYjKt2k84a5nMWUf6EnBU5_1kyvLCj3xJ6IgjZvsTm13hB4U_czrKgeaEArJdf8-TlPEnPgQTZvLlftu0KLV0N2m1dn1wniT4AonPQjZDqOfafmKvMI3fD880mxDpQxpi1S4mYGJlc0f7eTfbI-rNpB36_aNN8Rm1oLYP9fy84EbifmGZN2kMQSDJo8EZLHy-ZnBhi-IkVH2GjsAJjrAvm4N39u2m01CROPMAhSbAg2IHQ4qp21v-JVKNhmUuFBmQIJRPelL00hrYHKkn7WTFRBj- -nKgv9DXXdeq8DfbhRJI-s353FoogurZwtthL5u2dFbjRGi8qDu0likBpha6yi08_s5Q2drJz03buXHNQLOLQ88L8biaJN7_3N1ziMXvCyQ7QgAYcs0fHZeBdtC7X1e-dQ9_Gm0oABH8PoWzlo1NXuUOfVL2p1dE2EQMTMoFkZyk-oEPM73sbafxDM7DIj_5dA49r1OaRZen3I-oe2lj8rc0zAwHGIu0RH-j_am9WZW731jzJ1qAagiD_XKGFlT_mOs0RCaTlhj5EfPXe_zkjZsrg7N2qfW8-kuYAl1ZNwRFOsC7lLD34GmCcX1Cw9KvpDZVy5jvH9rDmiOGSb41H1tr8v66o_K2VXXY3H9tA5B2YqLvMpJQTfK1Xgt67q2g2icRPs5TkEftFSInYJY21csocixgJqZ7kS32boJnaG9gz8vs2SR5FZLA2K2jM4K2G4kuX_ThplreVm3lInoSNWHg4pMdNOPU54kOGKWDgXNmAM9CnV7apYwTMiVWvzlstrbba3_nmFMfaUIA3O5N4qycD9HO5PgRGPnlPikviNbNxtTbB4yqnnaY9qZPwQfgzjnYzjVt8jAcqvgJK82wo0MjQXw3jHox1jvPUYjzFM7ZNUIqhNor8josAss_eTnJtwFSuUNYPFauTlaszVuVNvSTYVusC_LN9it7_fJwRz- -ce6ATrFhuUm-re20_3qNGqXwVd8_ZGvF3Z0g_0G6H0mm9VUhoMG2A8cr-5AjszjcA53TeOv1mxc9Jm-egXHLwZJ2YQ0INaQwYKBvG6sw5jE4WH8OJ9Z9_oXTIxWzRPMYrKU8mB-19FsWVpOfJONQ-5cMHY5VUexTnjQHxK_1mNE3g7zCIMGBFe3YP3MNKdr3q19WxYohKqH0huvH2NIMnKqsg954yKWY_wNlayWvsUNIGaaYF2SR73WZxF5mXU-l7oPcCk2_oIE_YcmHu3hb2ZCclk53U1cdWYhNXClpsUlVJfOD8P8HsfhU8_]--></g></svg>