<?xml version="1.0" encoding="UTF-8" standalone="no"?><svg xmlns="http://www.w3.org/2000/svg" xmlns:xlink="http://www.w3.org/1999/xlink" contentStyleType="text/css" height="1484px" preserveAspectRatio="none" style="width:1241px;height:1484px;background:#FFFFFF;" version="1.1" viewBox="0 0 1241 1484" width="1241px" zoomAndPan="magnify"><defs/><g><text fill="#000000" font-family="sans-serif" font-size="14" font-weight="bold" lengthAdjust="spacing" textLength="253" x="495.75" y="27.9951">OCI Subnet Reconcile Sequence</text><rect fill="none" height="314.9375" style="stroke:#475569;stroke-width:1.5;" width="967" x="268.5" y="193.8594"/><rect fill="none" height="283.8047" style="stroke:#475569;stroke-width:1.5;" width="947" x="278.5" y="217.9922"/><rect fill="none" height="46.2656" style="stroke:#475569;stroke-width:1.5;" width="805" x="288.5" y="315.1953"/><rect fill="none" height="119.3359" style="stroke:#475569;stroke-width:1.5;" width="927" x="288.5" y="375.4609"/><rect fill="none" height="708.1328" style="stroke:#475569;stroke-width:1.5;" width="1215.5" x="10" y="522.7969"/><rect fill="none" height="104.5313" style="stroke:#475569;stroke-width:1.5;" width="927" x="288.5" y="546.9297"/><rect fill="none" height="426.6563" style="stroke:#475569;stroke-width:1.5;" width="1094" x="20" y="768.1406"/><rect fill="none" height="46.2656" style="stroke:#475569;stroke-width:1.5;" width="406.5" x="30" y="993.8672"/><rect fill="none" height="46.2656" style="stroke:#475569;stroke-width:1.5;" width="805" x="288.5" y="1141.5313"/><line style="stroke:#94A3B8;stroke-width:0.5;stroke-dasharray:5.0,5.0;" x1="76" x2="76" y1="118.5938" y2="1404.125"/><line style="stroke:#94A3B8;stroke-width:0.5;stroke-dasharray:5.0,5.0;" x1="362.5" x2="362.5" y1="118.5938" y2="1404.125"/><line style="stroke:#94A3B8;stroke-width:0.5;stroke-dasharray:5.0,5.0;" x1="1065.5" x2="1065.5" y1="118.5938" y2="1404.125"/><line style="stroke:#94A3B8;stroke-width:0.5;stroke-dasharray:5.0,5.0;" x1="1149.5" x2="1149.5" y1="118.5938" y2="1404.125"/><text fill="#000000" font-family="sans-serif" font-size="14" lengthAdjust="spacing" textLength="67" x="40" y="115.292">Controller</text><ellipse cx="76.5" cy="50.7969" fill="#E0F2FE" rx="8" ry="8" style="stroke:#0F766E;stroke-width:0.5;"/><path d="M76.5,58.7969 L76.5,85.7969 M63.5,66.7969 L89.5,66.7969 M76.5,85.7969 L63.5,100.7969 M76.5,85.7969 L89.5,100.7969 " fill="none" style="stroke:#0F766E;stroke-width:0.5;"/><text fill="#000000" font-family="sans-serif" font-size="14" lengthAdjust="spacing" textLength="67" x="40" y="1416.1201">Controller</text><ellipse cx="76.5" cy="1427.9219" fill="#E0F2FE" rx="8" ry="8" style="stroke:#0F766E;stroke-width:0.5;"/><path d="M76.5,1435.9219 L76.5,1462.9219 M63.5,1443.9219 L89.5,1443.9219 M76.5,1462.9219 L63.5,1477.9219 M76.5,1462.9219 L89.5,1477.9219 " fill="none" style="stroke:#0F766E;stroke-width:0.5;"/><rect fill="#F8FAFC" height="30.2969" rx="2.5" ry="2.5" style="stroke:#475569;stroke-width:0.5;" width="128" x="298.5" y="87.2969"/><text fill="#000000" font-family="sans-serif" font-size="14" lengthAdjust="spacing" textLength="114" x="305.5" y="107.292">Service Manager</text><rect fill="#F8FAFC" height="30.2969" rx="2.5" ry="2.5" style="stroke:#475569;stroke-width:0.5;" width="128" x="298.5" y="1403.125"/><text fill="#000000" font-family="sans-serif" font-size="14" lengthAdjust="spacing" textLength="114" x="305.5" y="1423.1201">Service Manager</text><text fill="#000000" font-family="sans-serif" font-size="14" lengthAdjust="spacing" textLength="24" x="1050.5" y="115.292">OCI</text><path d="M1047.5,66.2969 C1047.5,56.2969 1065.5,56.2969 1065.5,56.2969 C1065.5,56.2969 1083.5,56.2969 1083.5,66.2969 L1083.5,92.2969 C1083.5,102.2969 1065.5,102.2969 1065.5,102.2969 C1065.5,102.2969 1047.5,102.2969 1047.5,92.2969 L1047.5,66.2969 " fill="#E2E2F0" style="stroke:#181818;stroke-width:1.5;"/><path d="M1047.5,66.2969 C1047.5,76.2969 1065.5,76.2969 1065.5,76.2969 C1065.5,76.2969 1083.5,76.2969 1083.5,66.2969 " fill="none" style="stroke:#181818;stroke-width:1.5;"/><text fill="#000000" font-family="sans-serif" font-size="14" lengthAdjust="spacing" textLength="24" x="1050.5" y="1416.1201">OCI</text><path d="M1047.5,1429.4219 C1047.5,1419.4219 1065.5,1419.4219 1065.5,1419.4219 C1065.5,1419.4219 1083.5,1419.4219 1083.5,1429.4219 L1083.5,1455.4219 C1083.5,1465.4219 1065.5,1465.4219 1065.5,1465.4219 C1065.5,1465.4219 1047.5,1465.4219 1047.5,1455.4219 L1047.5,1429.4219 " fill="#E2E2F0" style="stroke:#181818;stroke-width:1.5;"/><path d="M1047.5,1429.4219 C1047.5,1439.4219 1065.5,1439.4219 1065.5,1439.4219 C1065.5,1439.4219 1083.5,1439.4219 1083.5,1429.4219 " fill="none" style="stroke:#181818;stroke-width:1.5;"/><text fill="#000000" font-family="sans-serif" font-size="14" lengthAdjust="spacing" textLength="106" x="1093.5" y="115.292">Kubernetes API</text><path d="M1131.5,66.2969 C1131.5,56.2969 1149.5,56.2969 1149.5,56.2969 C1149.5,56.2969 1167.5,56.2969 1167.5,66.2969 L1167.5,92.2969 C1167.5,102.2969 1149.5,102.2969 1149.5,102.2969 C1149.5,102.2969 1131.5,102.2969 1131.5,92.2969 L1131.5,66.2969 " fill="#E2E2F0" style="stroke:#181818;stroke-width:1.5;"/><path d="M1131.5,66.2969 C1131.5,76.2969 1149.5,76.2969 1149.5,76.2969 C1149.5,76.2969 1167.5,76.2969 1167.5,66.2969 " fill="none" style="stroke:#181818;stroke-width:1.5;"/><text fill="#000000" font-family="sans-serif" font-size="14" lengthAdjust="spacing" textLength="106" x="1093.5" y="1416.1201">Kubernetes API</text><path d="M1131.5,1429.4219 C1131.5,1419.4219 1149.5,1419.4219 1149.5,1419.4219 C1149.5,1419.4219 1167.5,1419.4219 1167.5,1429.4219 L1167.5,1455.4219 C1167.5,1465.4219 1149.5,1465.4219 1149.5,1465.4219 C1149.5,1465.4219 1131.5,1465.4219 1131.5,1455.4219 L1131.5,1429.4219 " fill="#E2E2F0" style="stroke:#181818;stroke-width:1.5;"/><path d="M1131.5,1429.4219 C1131.5,1439.4219 1149.5,1439.4219 1149.5,1439.4219 C1149.5,1439.4219 1167.5,1439.4219 1167.5,1429.4219 " fill="none" style="stroke:#181818;stroke-width:1.5;"/><polygon fill="#334155" points="350.5,145.7266,360.5,149.7266,350.5,153.7266,354.5,149.7266" style="stroke:#334155;stroke-width:1.0;"/><line style="stroke:#334155;stroke-width:1.0;" x1="76.5" x2="356.5" y1="149.7266" y2="149.7266"/><text fill="#000000" font-family="sans-serif" font-size="13" font-weight="bold" lengthAdjust="spacing" textLength="9" x="83.5" y="144.6606">1</text><text fill="#000000" font-family="sans-serif" font-size="13" lengthAdjust="spacing" textLength="239" x="96.5" y="144.6606">reconcile desired spec and live status</text><polygon fill="#334155" points="1137.5,174.8594,1147.5,178.8594,1137.5,182.8594,1141.5,178.8594" style="stroke:#334155;stroke-width:1.0;"/><line style="stroke:#334155;stroke-width:1.0;" x1="362.5" x2="1143.5" y1="178.8594" y2="178.8594"/><text fill="#000000" font-family="sans-serif" font-size="13" font-weight="bold" lengthAdjust="spacing" textLength="9" x="369.5" y="173.7935">2</text><text fill="#000000" font-family="sans-serif" font-size="13" lengthAdjust="spacing" textLength="212" x="382.5" y="173.7935">read CR status and finalizer state</text><path d="M268.5,193.8594 L438.5,193.8594 L438.5,200.9922 L428.5,210.9922 L268.5,210.9922 L268.5,193.8594 " fill="#F8FAFC" style="stroke:#475569;stroke-width:1.5;"/><rect fill="none" height="314.9375" style="stroke:#475569;stroke-width:1.5;" width="967" x="268.5" y="193.8594"/><text fill="#000000" font-family="sans-serif" font-size="13" font-weight="bold" lengthAdjust="spacing" textLength="125" x="283.5" y="206.9263">Lookup and bind</text><path d="M278.5,217.9922 L342.5,217.9922 L342.5,225.125 L332.5,235.125 L278.5,235.125 L278.5,217.9922 " fill="#F8FAFC" style="stroke:#475569;stroke-width:1.5;"/><rect fill="none" height="283.8047" style="stroke:#475569;stroke-width:1.5;" width="947" x="278.5" y="217.9922"/><text fill="#000000" font-family="sans-serif" font-size="13" font-weight="bold" lengthAdjust="spacing" textLength="19" x="293.5" y="231.0591">alt</text><text fill="#000000" font-family="sans-serif" font-size="11" font-weight="bold" lengthAdjust="spacing" textLength="256" x="357.5" y="230.2026">[tracked or explicit OCID already exists]</text><polygon fill="#334155" points="1053.5,252.2578,1063.5,256.2578,1053.5,260.2578,1057.5,256.2578" style="stroke:#334155;stroke-width:1.0;"/><line style="stroke:#334155;stroke-width:1.0;" x1="362.5" x2="1059.5" y1="256.2578" y2="256.2578"/><text fill="#000000" font-family="sans-serif" font-size="13" font-weight="bold" lengthAdjust="spacing" textLength="9" x="369.5" y="251.1919">3</text><text fill="#000000" font-family="sans-serif" font-size="13" lengthAdjust="spacing" textLength="278" x="382.5" y="251.1919">get the current resource by known identifier</text><line style="stroke:#475569;stroke-width:1.0;stroke-dasharray:2.0,2.0;" x1="278.5" x2="1225.5" y1="265.2578" y2="265.2578"/><text fill="#000000" font-family="sans-serif" font-size="11" font-weight="bold" lengthAdjust="spacing" textLength="145" x="283.5" y="275.4683">[no OCID is bound yet]</text><polygon fill="#334155" points="1053.5,296.1953,1063.5,300.1953,1053.5,304.1953,1057.5,300.1953" style="stroke:#334155;stroke-width:1.0;"/><line style="stroke:#334155;stroke-width:1.0;" x1="362.5" x2="1059.5" y1="300.1953" y2="300.1953"/><text fill="#000000" font-family="sans-serif" font-size="13" font-weight="bold" lengthAdjust="spacing" textLength="9" x="369.5" y="295.1294">4</text><text fill="#000000" font-family="sans-serif" font-size="13" lengthAdjust="spacing" textLength="193" x="382.5" y="295.1294">list resources by display name</text><path d="M288.5,315.1953 L365.5,315.1953 L365.5,322.3281 L355.5,332.3281 L288.5,332.3281 L288.5,315.1953 " fill="#F8FAFC" style="stroke:#475569;stroke-width:1.5;"/><rect fill="none" height="46.2656" style="stroke:#475569;stroke-width:1.5;" width="805" x="288.5" y="315.1953"/><text fill="#000000" font-family="sans-serif" font-size="13" font-weight="bold" lengthAdjust="spacing" textLength="32" x="303.5" y="328.2622">loop</text><text fill="#000000" font-family="sans-serif" font-size="11" font-weight="bold" lengthAdjust="spacing" textLength="263" x="380.5" y="327.4058">[later pages until a match or exhaustion]</text><polygon fill="#334155" points="1053.5,349.4609,1063.5,353.4609,1053.5,357.4609,1057.5,353.4609" style="stroke:#334155;stroke-width:1.0;"/><line style="stroke:#334155;stroke-width:1.0;" x1="362.5" x2="1059.5" y1="353.4609" y2="353.4609"/><text fill="#000000" font-family="sans-serif" font-size="13" font-weight="bold" lengthAdjust="spacing" textLength="9" x="369.5" y="348.395">5</text><text fill="#000000" font-family="sans-serif" font-size="13" lengthAdjust="spacing" textLength="147" x="382.5" y="348.395">fetch the next list page</text><path d="M288.5,375.4609 L352.5,375.4609 L352.5,382.5938 L342.5,392.5938 L288.5,392.5938 L288.5,375.4609 " fill="#F8FAFC" style="stroke:#475569;stroke-width:1.5;"/><rect fill="none" height="119.3359" style="stroke:#475569;stroke-width:1.5;" width="927" x="288.5" y="375.4609"/><text fill="#000000" font-family="sans-serif" font-size="13" font-weight="bold" lengthAdjust="spacing" textLength="19" x="303.5" y="388.5278">alt</text><text fill="#000000" font-family="sans-serif" font-size="11" font-weight="bold" lengthAdjust="spacing" textLength="162" x="367.5" y="387.6714">[existing resource found]</text><polygon fill="#334155" points="1137.5,409.7266,1147.5,413.7266,1137.5,417.7266,1141.5,413.7266" style="stroke:#334155;stroke-width:1.0;"/><line style="stroke:#334155;stroke-width:1.0;" x1="362.5" x2="1143.5" y1="413.7266" y2="413.7266"/><text fill="#000000" font-family="sans-serif" font-size="13" font-weight="bold" lengthAdjust="spacing" textLength="9" x="369.5" y="408.6606">6</text><text fill="#000000" font-family="sans-serif" font-size="13" lengthAdjust="spacing" textLength="221" x="382.5" y="408.6606">persist the resolved OCID in status</text><line style="stroke:#475569;stroke-width:1.0;stroke-dasharray:2.0,2.0;" x1="288.5" x2="1215.5" y1="422.7266" y2="422.7266"/><text fill="#000000" font-family="sans-serif" font-size="11" font-weight="bold" lengthAdjust="spacing" textLength="182" x="293.5" y="432.937">[no existing resource found]</text><polygon fill="#334155" points="1053.5,453.6641,1063.5,457.6641,1053.5,461.6641,1057.5,457.6641" style="stroke:#334155;stroke-width:1.0;"/><line style="stroke:#334155;stroke-width:1.0;" x1="362.5" x2="1059.5" y1="457.6641" y2="457.6641"/><text fill="#000000" font-family="sans-serif" font-size="13" font-weight="bold" lengthAdjust="spacing" textLength="9" x="369.5" y="452.5981">7</text><text fill="#000000" font-family="sans-serif" font-size="13" lengthAdjust="spacing" textLength="152" x="382.5" y="452.5981">create the OCI resource</text><polygon fill="#334155" points="1137.5,482.7969,1147.5,486.7969,1137.5,490.7969,1141.5,486.7969" style="stroke:#334155;stroke-width:1.0;"/><line style="stroke:#334155;stroke-width:1.0;" x1="362.5" x2="1143.5" y1="486.7969" y2="486.7969"/><text fill="#000000" font-family="sans-serif" font-size="13" font-weight="bold" lengthAdjust="spacing" textLength="9" x="369.5" y="481.731">8</text><text fill="#000000" font-family="sans-serif" font-size="13" lengthAdjust="spacing" textLength="216" x="382.5" y="481.731">persist the created OCID in status</text><path d="M10,522.7969 L74,522.7969 L74,529.9297 L64,539.9297 L10,539.9297 L10,522.7969 " fill="#F8FAFC" style="stroke:#475569;stroke-width:1.5;"/><rect fill="none" height="708.1328" style="stroke:#475569;stroke-width:1.5;" width="1215.5" x="10" y="522.7969"/><text fill="#000000" font-family="sans-serif" font-size="13" font-weight="bold" lengthAdjust="spacing" textLength="19" x="25" y="535.8638">alt</text><text fill="#000000" font-family="sans-serif" font-size="11" font-weight="bold" lengthAdjust="spacing" textLength="120" x="89" y="535.0073">[delete requested]</text><path d="M288.5,546.9297 L381.5,546.9297 L381.5,554.0625 L371.5,564.0625 L288.5,564.0625 L288.5,546.9297 " fill="#F8FAFC" style="stroke:#475569;stroke-width:1.5;"/><rect fill="none" height="104.5313" style="stroke:#475569;stroke-width:1.5;" width="927" x="288.5" y="546.9297"/><text fill="#000000" font-family="sans-serif" font-size="13" font-weight="bold" lengthAdjust="spacing" textLength="48" x="303.5" y="559.9966">Delete</text><polygon fill="#334155" points="1053.5,581.1953,1063.5,585.1953,1053.5,589.1953,1057.5,585.1953" style="stroke:#334155;stroke-width:1.0;"/><line style="stroke:#334155;stroke-width:1.0;" x1="362.5" x2="1059.5" y1="585.1953" y2="585.1953"/><text fill="#000000" font-family="sans-serif" font-size="13" font-weight="bold" lengthAdjust="spacing" textLength="9" x="369.5" y="580.1294">9</text><text fill="#000000" font-family="sans-serif" font-size="13" lengthAdjust="spacing" textLength="114" x="382.5" y="580.1294">submit OCI delete</text><polygon fill="#334155" points="1053.5,610.3281,1063.5,614.3281,1053.5,618.3281,1057.5,614.3281" style="stroke:#334155;stroke-width:1.0;"/><line style="stroke:#334155;stroke-width:1.0;" x1="362.5" x2="1059.5" y1="614.3281" y2="614.3281"/><text fill="#000000" font-family="sans-serif" font-size="13" font-weight="bold" lengthAdjust="spacing" textLength="18" x="369.5" y="609.2622">10</text><text fill="#000000" font-family="sans-serif" font-size="13" lengthAdjust="spacing" textLength="551" x="391.5" y="609.2622">Confirm deletion with follow-up GetSubnet calls until the resource is gone or not found.</text><polygon fill="#334155" points="1137.5,639.4609,1147.5,643.4609,1137.5,647.4609,1141.5,643.4609" style="stroke:#334155;stroke-width:1.0;"/><line style="stroke:#334155;stroke-width:1.0;" x1="362.5" x2="1143.5" y1="643.4609" y2="643.4609"/><text fill="#000000" font-family="sans-serif" font-size="13" font-weight="bold" lengthAdjust="spacing" textLength="18" x="369.5" y="638.395">11</text><text fill="#000000" font-family="sans-serif" font-size="13" lengthAdjust="spacing" textLength="289" x="391.5" y="638.395">remove the finalizer after delete confirmation</text><line style="stroke:#475569;stroke-width:1.0;stroke-dasharray:2.0,2.0;" x1="10" x2="1225.5" y1="659.4609" y2="659.4609"/><text fill="#000000" font-family="sans-serif" font-size="11" font-weight="bold" lengthAdjust="spacing" textLength="147" x="15" y="669.6714">[OCI state is retryable]</text><polygon fill="#334155" points="87.5,690.3984,77.5,694.3984,87.5,698.3984,83.5,694.3984" style="stroke:#334155;stroke-width:1.0;"/><line style="stroke:#334155;stroke-width:1.0;stroke-dasharray:2.0,2.0;" x1="81.5" x2="361.5" y1="694.3984" y2="694.3984"/><text fill="#000000" font-family="sans-serif" font-size="13" font-weight="bold" lengthAdjust="spacing" textLength="18" x="93.5" y="689.3325">12</text><text fill="#000000" font-family="sans-serif" font-size="13" lengthAdjust="spacing" textLength="110" x="115.5" y="689.3325">requeue required</text><line style="stroke:#475569;stroke-width:1.0;stroke-dasharray:2.0,2.0;" x1="10" x2="1225.5" y1="703.3984" y2="703.3984"/><text fill="#000000" font-family="sans-serif" font-size="11" font-weight="bold" lengthAdjust="spacing" textLength="200" x="15" y="713.6089">[OCI state is failed or terminal]</text><polygon fill="#334155" points="87.5,734.3359,77.5,738.3359,87.5,742.3359,83.5,738.3359" style="stroke:#334155;stroke-width:1.0;"/><line style="stroke:#334155;stroke-width:1.0;stroke-dasharray:2.0,2.0;" x1="81.5" x2="361.5" y1="738.3359" y2="738.3359"/><text fill="#000000" font-family="sans-serif" font-size="13" font-weight="bold" lengthAdjust="spacing" textLength="18" x="93.5" y="733.27">13</text><text fill="#000000" font-family="sans-serif" font-size="13" lengthAdjust="spacing" textLength="240" x="115.5" y="733.27">unsuccessful terminal reconcile result</text><line style="stroke:#475569;stroke-width:1.0;stroke-dasharray:2.0,2.0;" x1="10" x2="1225.5" y1="747.3359" y2="747.3359"/><text fill="#000000" font-family="sans-serif" font-size="11" font-weight="bold" lengthAdjust="spacing" textLength="203" x="15" y="757.5464">[OCI state is active and usable]</text><path d="M20,768.1406 L167,768.1406 L167,775.2734 L157,785.2734 L20,785.2734 L20,768.1406 " fill="#F8FAFC" style="stroke:#475569;stroke-width:1.5;"/><rect fill="none" height="426.6563" style="stroke:#475569;stroke-width:1.5;" width="1094" x="20" y="768.1406"/><text fill="#000000" font-family="sans-serif" font-size="13" font-weight="bold" lengthAdjust="spacing" textLength="102" x="35" y="781.2075">Drift handling</text><path d="M324,790.2734 L324,981.2734 L1104,981.2734 L1104,800.2734 L1094,790.2734 L324,790.2734 " fill="#FEFFDD" style="stroke:#181818;stroke-width:0.5;"/><path d="M1094,790.2734 L1094,800.2734 L1104,800.2734 L1094,790.2734 " fill="#FEFFDD" style="stroke:#181818;stroke-width:0.5;"/><text fill="#000000" font-family="sans-serif" font-size="13" lengthAdjust="spacing" textLength="171" x="330" y="807.3403">Supported update surface:</text><text fill="#000000" font-family="sans-serif" font-size="13" lengthAdjust="spacing" textLength="94" x="330" y="822.4731">- display name</text><text fill="#000000" font-family="sans-serif" font-size="13" lengthAdjust="spacing" textLength="96" x="330" y="837.606">- freeform tags</text><text fill="#000000" font-family="sans-serif" font-size="13" lengthAdjust="spacing" textLength="88" x="330" y="852.7388">- defined tags</text><text fill="#000000" font-family="sans-serif" font-size="13" lengthAdjust="spacing" textLength="66" x="330" y="867.8716">- cidrBlock</text><text fill="#000000" font-family="sans-serif" font-size="13" lengthAdjust="spacing" textLength="88" x="330" y="883.0044">- routeTableId</text><text fill="#000000" font-family="sans-serif" font-size="13" lengthAdjust="spacing" textLength="99" x="330" y="898.1372">- securityListIds</text><text fill="#000000" font-family="sans-serif" font-size="13" lengthAdjust="spacing" textLength="139" x="330" y="913.27">Reject before mutate:</text><text fill="#000000" font-family="sans-serif" font-size="13" lengthAdjust="spacing" textLength="154" x="330" y="928.4028">- availabilityDomain drift</text><text fill="#000000" font-family="sans-serif" font-size="13" lengthAdjust="spacing" textLength="95" x="330" y="943.5356">- dnsLabel drift</text><text fill="#000000" font-family="sans-serif" font-size="13" lengthAdjust="spacing" textLength="179" x="330" y="958.6685">- prohibitPublicIpOnVnic drift</text><text fill="#000000" font-family="sans-serif" font-size="13" lengthAdjust="spacing" textLength="71" x="330" y="973.8013">- vcnId drift</text><path d="M30,993.8672 L100,993.8672 L100,1001 L90,1011 L30,1011 L30,993.8672 " fill="#F8FAFC" style="stroke:#475569;stroke-width:1.5;"/><rect fill="none" height="46.2656" style="stroke:#475569;stroke-width:1.5;" width="406.5" x="30" y="993.8672"/><text fill="#000000" font-family="sans-serif" font-size="13" font-weight="bold" lengthAdjust="spacing" textLength="25" x="45" y="1006.9341">opt</text><text fill="#000000" font-family="sans-serif" font-size="11" font-weight="bold" lengthAdjust="spacing" textLength="286" x="115" y="1006.0776">[unsupported or immutable drift is detected]</text><polygon fill="#334155" points="87.5,1028.1328,77.5,1032.1328,87.5,1036.1328,83.5,1032.1328" style="stroke:#334155;stroke-width:1.0;"/><line style="stroke:#334155;stroke-width:1.0;stroke-dasharray:2.0,2.0;" x1="81.5" x2="361.5" y1="1032.1328" y2="1032.1328"/><text fill="#000000" font-family="sans-serif" font-size="13" font-weight="bold" lengthAdjust="spacing" textLength="18" x="93.5" y="1027.0669">14</text><text fill="#000000" font-family="sans-serif" font-size="13" lengthAdjust="spacing" textLength="169" x="115.5" y="1027.0669">reject before OCI mutation</text><polygon fill="#334155" points="1053.5,1064.2656,1063.5,1068.2656,1053.5,1072.2656,1057.5,1068.2656" style="stroke:#334155;stroke-width:1.0;"/><line style="stroke:#334155;stroke-width:1.0;" x1="362.5" x2="1059.5" y1="1068.2656" y2="1068.2656"/><text fill="#000000" font-family="sans-serif" font-size="13" font-weight="bold" lengthAdjust="spacing" textLength="18" x="369.5" y="1063.1997">15</text><text fill="#000000" font-family="sans-serif" font-size="13" lengthAdjust="spacing" textLength="439" x="391.5" y="1063.1997">Reuse the tracked OCID from status or spec before any fresh lookup.</text><polygon fill="#334155" points="1053.5,1093.3984,1063.5,1097.3984,1053.5,1101.3984,1057.5,1097.3984" style="stroke:#334155;stroke-width:1.0;"/><line style="stroke:#334155;stroke-width:1.0;" x1="362.5" x2="1059.5" y1="1097.3984" y2="1097.3984"/><text fill="#000000" font-family="sans-serif" font-size="13" font-weight="bold" lengthAdjust="spacing" textLength="18" x="369.5" y="1092.3325">16</text><text fill="#000000" font-family="sans-serif" font-size="13" lengthAdjust="spacing" textLength="443" x="391.5" y="1092.3325">Treat securityListIds as an order-insensitive set while diffing live state.</text><polygon fill="#334155" points="1053.5,1122.5313,1063.5,1126.5313,1053.5,1130.5313,1057.5,1126.5313" style="stroke:#334155;stroke-width:1.0;"/><line style="stroke:#334155;stroke-width:1.0;" x1="362.5" x2="1059.5" y1="1126.5313" y2="1126.5313"/><text fill="#000000" font-family="sans-serif" font-size="13" font-weight="bold" lengthAdjust="spacing" textLength="18" x="369.5" y="1121.4653">17</text><text fill="#000000" font-family="sans-serif" font-size="13" lengthAdjust="spacing" textLength="657" x="391.5" y="1121.4653">Move the Subnet compartment before calling the mutable update path when compartment drift exists.</text><path d="M288.5,1141.5313 L358.5,1141.5313 L358.5,1148.6641 L348.5,1158.6641 L288.5,1158.6641 L288.5,1141.5313 " fill="#F8FAFC" style="stroke:#475569;stroke-width:1.5;"/><rect fill="none" height="46.2656" style="stroke:#475569;stroke-width:1.5;" width="805" x="288.5" y="1141.5313"/><text fill="#000000" font-family="sans-serif" font-size="13" font-weight="bold" lengthAdjust="spacing" textLength="25" x="303.5" y="1154.5981">opt</text><text fill="#000000" font-family="sans-serif" font-size="11" font-weight="bold" lengthAdjust="spacing" textLength="258" x="373.5" y="1153.7417">[supported drift or collection diff exists]</text><polygon fill="#334155" points="1053.5,1175.7969,1063.5,1179.7969,1053.5,1183.7969,1057.5,1179.7969" style="stroke:#334155;stroke-width:1.0;"/><line style="stroke:#334155;stroke-width:1.0;" x1="362.5" x2="1059.5" y1="1179.7969" y2="1179.7969"/><text fill="#000000" font-family="sans-serif" font-size="13" font-weight="bold" lengthAdjust="spacing" textLength="18" x="369.5" y="1174.731">18</text><text fill="#000000" font-family="sans-serif" font-size="13" lengthAdjust="spacing" textLength="277" x="391.5" y="1174.731">apply the supported in-place mutation path</text><polygon fill="#334155" points="87.5,1218.9297,77.5,1222.9297,87.5,1226.9297,83.5,1222.9297" style="stroke:#334155;stroke-width:1.0;"/><line style="stroke:#334155;stroke-width:1.0;stroke-dasharray:2.0,2.0;" x1="81.5" x2="361.5" y1="1222.9297" y2="1222.9297"/><text fill="#000000" font-family="sans-serif" font-size="13" font-weight="bold" lengthAdjust="spacing" textLength="18" x="93.5" y="1217.8638">19</text><text fill="#000000" font-family="sans-serif" font-size="13" lengthAdjust="spacing" textLength="169" x="115.5" y="1217.8638">successful active reconcile</text><path d="M51,1242.9297 L51,1388.9297 L1089,1388.9297 L1089,1252.9297 L1079,1242.9297 L51,1242.9297 " fill="#FEFFDD" style="stroke:#181818;stroke-width:0.5;"/><path d="M1079,1242.9297 L1079,1252.9297 L1089,1252.9297 L1079,1242.9297 " fill="#FEFFDD" style="stroke:#181818;stroke-width:0.5;"/><text fill="#000000" font-family="sans-serif" font-size="13" lengthAdjust="spacing" textLength="105" x="57" y="1259.9966">Boundary notes:</text><text fill="#000000" font-family="sans-serif" font-size="13" lengthAdjust="spacing" textLength="427" x="57" y="1275.1294">- The current formal notes remain lifecycle-centric even though the</text><text fill="#000000" font-family="sans-serif" font-size="13" lengthAdjust="spacing" textLength="423" x="73" y="1290.2622">implementation now reconciles CIDR, route table, security list, tag,</text><text fill="#000000" font-family="sans-serif" font-size="13" lengthAdjust="spacing" textLength="149" x="73" y="1305.395">and compartment drift.</text><text fill="#000000" font-family="sans-serif" font-size="13" lengthAdjust="spacing" textLength="108" x="57" y="1320.5278">Sequence notes:</text><text fill="#000000" font-family="sans-serif" font-size="13" lengthAdjust="spacing" textLength="441" x="57" y="1335.6606">- Paginated name lookup is only used when no status or spec OCID is</text><text fill="#000000" font-family="sans-serif" font-size="13" lengthAdjust="spacing" textLength="95" x="73" y="1350.7935">already bound.</text><text fill="#000000" font-family="sans-serif" font-size="13" lengthAdjust="spacing" textLength="166" x="57" y="1365.9263">Controller-local invariants:</text><text fill="#000000" font-family="sans-serif" font-size="13" lengthAdjust="spacing" textLength="229" x="57" y="1381.0591">- StatusPresentUsesStatusInvariant</text><!--SRC=[bLPPRnit47xVNp5mNoqZRU8SVYZW8mw4E8rXkttdScSbrbnooqEAKlI_TuRa7fQFj08imUIStynymw22HlXwleJRM1iCS8FI6gdey1R_YcWaLY86Qs9NewlylJAzSA83lnQDtIgpWbPeZxERCo7lLyv6qvnRRHtyT9a-CubJv-osNBv-_URdu-FPPOEjY3hSuRTmgjNAT6W2Q6p3t7a93Vwk0Aw52qggNfZmsFNxozFBypqXwnfqHU3Dk-FZjnz8u4grUAKCFhZzyERqzTdx-UqpkG5yejF-QTFvwjdGJcMmxj7rnrUNlrn-7A_dXbzTldlxzcFrJoNu2WxEhGdEQetk08I7wT-gdxA6Wrjq6qMOVH56h8fiEIj7LIE2g8L7EA2EI0BqEplz7Aa9g4lGm-br5lZytbVLv18Ml-uPFG4tjbI3NZbimFSeGPW6jDeW-212zDL3DJP4jbbRD71-KwIILgkCqEex2V4XLXKZryELjVVqmnArCWrX9tI0u0XQyab8uRTU4no1ixgWIpQzerFbWoTfWCSXaEG9h6WkmXf1HkUu6nrw6nr1MU_WtjYj0TNGkMeLOGY0D0zWRFQYFDHSLjXXUCc7fY16mvujDyhtMkp0Y0wJfhQs1qq9E-X9rqCadne4T2B8TKvmBQ8FofgayAop5bc1Kp8qPjatcqnQcA3Bu2LiUCZ7b5jEvbdhgM8zEiyMsJxhwGt1dy4mGx6JeuBJ_tMIKf1Kl8391xFNeFhV8yi6dWuiEUTl_giOY0OrjJsv8UBnf4RtkUakqiLBbVMnxdBF5Iil2TCajSfrMPBg25iLreI7rdQx87UVC1IYbaBheGK6f1Dur74hQv3xmTYGiJogNa35OMSt6SffiaJBVLRIbZagKJeh8SF5uvpI2B9JXy7jHAqvltrFv6hYY9CCOynmCY4yOQqLH1XfQYcEZiFwiTbeV9GqFRwDUbIRqGz1H9lb2MT4f4n4p1pHbnHAUPrg0wpfHbE79XH_iwH4WBczS0wPAqlxnRwtZhihzWtxyD6rGk99kLyy7cu-R1rYQwdwGQpy98fK5JBru52gnfrfA-_74metu1q7lsp6Gu_4MIhihgZhbysWVeD_eWnGipE4BZ8CKsXYGz2BMcdIkx2TeDbe68Kf8EElH8rwxxXtTgrg5QvZJIoxxB-QFuoIUq8RQPRDx8nQYRiqOs3xa6euW4V5Lns7L_FkI9MWOZNKaJAFu5DD_QZLvhborLE-0qKEPFVCEDvWz7aoXZMIwA9rjXiM4WMPrbdn8CoEw-ZNJDUqZevUCd_77BHV9Dwgma3Q-0jbF1glKdjwclhjEkrHrRPCcEFwn1VTV1d6Uw0Es_7B8BsiIjZC9coHfGR4I-_sWXXekqRpG2-N8-_Eex5wK-toFO4ZkH0oSHc7FL-tpmOi-bxlKYoJGMKMD34In_gbmFRu-eVjC2E8ClGZFMIodwPxKYkJVSPCAjmkDQpdWLd0tUnPmADBV9DkcLHvSZGz7ELEQbn84d4q3xWX9CFQnbNQm0K8rVKQ6TYS6Zqgfi3eIRUyk3dC4mwfDeTZqwJbVSZaS5XCCOizgjHHWgQyccVnNuiLaIJZoqnKUfQdp1gg03L_aqjFQtgltylhPd1Q7bFri6qcz1P4KmIBCXlX5Br4Y-VRPEwQHeM2_DsZpmVBGQmQgU5V]--></g></svg>