<?xml version="1.0" encoding="UTF-8" standalone="no"?><svg xmlns="http://www.w3.org/2000/svg" xmlns:xlink="http://www.w3.org/1999/xlink" contentStyleType="text/css" height="530px" preserveAspectRatio="none" style="width:2358px;height:530px;background:#FFFFFF;" version="1.1" viewBox="0 0 2358 530" width="2358px" zoomAndPan="magnify"><defs/><g><text fill="#000000" font-family="sans-serif" font-size="14" font-weight="bold" lengthAdjust="spacing" textLength="285" x="1029.5" y="22.9951">OCI Subnet Reconcile State Machine</text><ellipse cx="16" cy="370.7969" fill="#222222" rx="10" ry="10" style="stroke:none;stroke-width:1.0;"/><g id="Observe"><rect fill="#F8FAFC" height="50.2656" rx="6" ry="6" style="stroke:#475569;stroke-width:0.5;" width="329" x="86" y="345.7969"/><line style="stroke:#475569;stroke-width:0.5;" x1="86" x2="415" y1="372.0938" y2="372.0938"/><text fill="#0F172A" font-family="sans-serif" font-size="14" lengthAdjust="spacing" textLength="58" x="221.5" y="363.792">Observe</text><text fill="#0F172A" font-family="sans-serif" font-size="12" lengthAdjust="spacing" textLength="309" x="91" y="388.2324">read spec, status, delete intent, and OCI lifecycle</text></g><rect fill="#F8FAFC" height="40" rx="6" ry="6" style="stroke:#475569;stroke-width:0.5;" width="122" x="475" y="350.7969"/><text fill="#0F172A" font-family="sans-serif" font-size="14" lengthAdjust="spacing" textLength="112" x="480" y="375.6436">ResolveByName</text><rect fill="#F8FAFC" height="40" rx="6" ry="6" style="stroke:#475569;stroke-width:0.5;" width="130" x="657" y="350.7969"/><text fill="#0F172A" font-family="sans-serif" font-size="14" lengthAdjust="spacing" textLength="120" x="662" y="375.6436">PaginatedLookup</text><rect fill="#F8FAFC" height="40" rx="6" ry="6" style="stroke:#475569;stroke-width:0.5;" width="111" x="847" y="259.7969"/><text fill="#0F172A" font-family="sans-serif" font-size="14" lengthAdjust="spacing" textLength="101" x="852" y="284.6436">EvaluateReady</text><rect fill="#F8FAFC" height="40" rx="6" ry="6" style="stroke:#475569;stroke-width:0.5;" width="75" x="1262" y="350.7969"/><text fill="#0F172A" font-family="sans-serif" font-size="14" lengthAdjust="spacing" textLength="65" x="1267" y="375.6436">Retryable</text><rect fill="#F8FAFC" height="40" rx="6" ry="6" style="stroke:#475569;stroke-width:0.5;" width="50" x="1409.5" y="436.7969"/><text fill="#0F172A" font-family="sans-serif" font-size="14" lengthAdjust="spacing" textLength="40" x="1414.5" y="461.6436">Failed</text><rect fill="#F8FAFC" height="40" rx="6" ry="6" style="stroke:#475569;stroke-width:0.5;" width="173" x="1018" y="184.7969"/><text fill="#0F172A" font-family="sans-serif" font-size="14" lengthAdjust="spacing" textLength="163" x="1023" y="209.6436">RejectUnsupportedDrift</text><rect fill="#F8FAFC" height="40" rx="6" ry="6" style="stroke:#475569;stroke-width:0.5;" width="53" x="1408" y="221.7969"/><text fill="#0F172A" font-family="sans-serif" font-size="14" lengthAdjust="spacing" textLength="43" x="1413" y="246.6436">Ready</text><rect fill="#F8FAFC" height="40" rx="6" ry="6" style="stroke:#475569;stroke-width:0.5;" width="142" x="1033.5" y="259.7969"/><text fill="#0F172A" font-family="sans-serif" font-size="14" lengthAdjust="spacing" textLength="132" x="1038.5" y="284.6436">MoveCompartment</text><rect fill="#F8FAFC" height="40" rx="6" ry="6" style="stroke:#475569;stroke-width:0.5;" width="97" x="1251" y="257.7969"/><text fill="#0F172A" font-family="sans-serif" font-size="14" lengthAdjust="spacing" textLength="87" x="1256" y="282.6436">ApplyUpdate</text><rect fill="#F8FAFC" height="40" rx="6" ry="6" style="stroke:#475569;stroke-width:0.5;" width="113" x="1657" y="391.7969"/><text fill="#0F172A" font-family="sans-serif" font-size="14" lengthAdjust="spacing" textLength="103" x="1662" y="416.6436">DeletePending</text><rect fill="#F8FAFC" height="40" rx="6" ry="6" style="stroke:#475569;stroke-width:0.5;" width="65" x="2126" y="338.7969"/><text fill="#0F172A" font-family="sans-serif" font-size="14" lengthAdjust="spacing" textLength="55" x="2131" y="363.6436">Deleted</text><g id="elem_GMN34"><path d="M1521,49.2969 L1521,231.1269 L1461.25,235.1269 L1521,239.1269 L1521,349.9531 A6,6 0 0 0 1527,355.9531 L1900,355.9531 A6,6 0 0 0 1906,349.9531 L1906,53.2969 L1896,43.2969 L1527,43.2969 A6,6 0 0 0 1521,49.2969 " fill="#FFF7ED" style="stroke:#181818;stroke-width:0.5;"/><path d="M1896,43.2969 L1896,50.2969 A3,3 0 0 0 1899,53.2969 L1906,53.2969 L1896,43.2969 " fill="#FFF7ED" style="stroke:#181818;stroke-width:0.5;"/><text fill="#0F172A" font-family="sans-serif" font-size="13" lengthAdjust="spacing" textLength="69" x="1527" y="60.3638">Archetype:</text><text fill="#0F172A" font-family="sans-serif" font-size="13" lengthAdjust="spacing" textLength="207" x="1527" y="75.4966">- resolved-drift-delete-paginated</text><text fill="#0F172A" font-family="sans-serif" font-size="13" lengthAdjust="spacing" textLength="102" x="1527" y="90.6294">Update surface:</text><text fill="#0F172A" font-family="sans-serif" font-size="13" lengthAdjust="spacing" textLength="94" x="1527" y="105.7622">- display name</text><text fill="#0F172A" font-family="sans-serif" font-size="13" lengthAdjust="spacing" textLength="96" x="1527" y="120.895">- freeform tags</text><text fill="#0F172A" font-family="sans-serif" font-size="13" lengthAdjust="spacing" textLength="88" x="1527" y="136.0278">- defined tags</text><text fill="#0F172A" font-family="sans-serif" font-size="13" lengthAdjust="spacing" textLength="66" x="1527" y="151.1606">- cidrBlock</text><text fill="#0F172A" font-family="sans-serif" font-size="13" lengthAdjust="spacing" textLength="88" x="1527" y="166.2935">- routeTableId</text><text fill="#0F172A" font-family="sans-serif" font-size="13" lengthAdjust="spacing" textLength="99" x="1527" y="181.4263">- securityListIds</text><text fill="#0F172A" font-family="sans-serif" font-size="13" lengthAdjust="spacing" textLength="139" x="1527" y="196.5591">Reject before mutate:</text><text fill="#0F172A" font-family="sans-serif" font-size="13" lengthAdjust="spacing" textLength="154" x="1527" y="211.6919">- availabilityDomain drift</text><text fill="#0F172A" font-family="sans-serif" font-size="13" lengthAdjust="spacing" textLength="95" x="1527" y="226.8247">- dnsLabel drift</text><text fill="#0F172A" font-family="sans-serif" font-size="13" lengthAdjust="spacing" textLength="179" x="1527" y="241.9575">- prohibitPublicIpOnVnic drift</text><text fill="#0F172A" font-family="sans-serif" font-size="13" lengthAdjust="spacing" textLength="71" x="1527" y="257.0903">- vcnId drift</text><text fill="#0F172A" font-family="sans-serif" font-size="13" lengthAdjust="spacing" textLength="105" x="1527" y="272.2231">Boundary notes:</text><text fill="#0F172A" font-family="sans-serif" font-size="13" lengthAdjust="spacing" textLength="353" x="1527" y="287.356">- The current formal notes remain lifecycle-centric even</text><text fill="#0F172A" font-family="sans-serif" font-size="13" lengthAdjust="spacing" textLength="348" x="1543" y="302.4888">though the implementation now reconciles CIDR, route</text><text fill="#0F172A" font-family="sans-serif" font-size="13" lengthAdjust="spacing" textLength="298" x="1543" y="317.6216">table, security list, tag, and compartment drift.</text><text fill="#0F172A" font-family="sans-serif" font-size="13" lengthAdjust="spacing" textLength="166" x="1527" y="332.7544">Controller-local invariants:</text><text fill="#0F172A" font-family="sans-serif" font-size="13" lengthAdjust="spacing" textLength="229" x="1527" y="347.8872">- StatusPresentUsesStatusInvariant</text></g><g id="elem_GMN37"><path d="M1966,420.2969 L1966,419.0469 L1770.31,423.0469 L1966,427.0469 L1966,509.0938 A6,6 0 0 0 1972,515.0938 L2345,515.0938 A6,6 0 0 0 2351,509.0938 L2351,424.2969 L2341,414.2969 L1972,414.2969 A6,6 0 0 0 1966,420.2969 " fill="#FFF7ED" style="stroke:#181818;stroke-width:0.5;"/><path d="M2341,414.2969 L2341,421.2969 A3,3 0 0 0 2344,424.2969 L2351,424.2969 L2341,414.2969 " fill="#FFF7ED" style="stroke:#181818;stroke-width:0.5;"/><text fill="#0F172A" font-family="sans-serif" font-size="13" lengthAdjust="spacing" textLength="90" x="1972" y="431.3638">Delete states:</text><text fill="#0F172A" font-family="sans-serif" font-size="13" lengthAdjust="spacing" textLength="102" x="1972" y="446.4966">- DeletePending</text><text fill="#0F172A" font-family="sans-serif" font-size="13" lengthAdjust="spacing" textLength="59" x="1972" y="461.6294">- Deleted</text><text fill="#0F172A" font-family="sans-serif" font-size="13" lengthAdjust="spacing" textLength="103" x="1972" y="476.7622">Delete workflow:</text><text fill="#0F172A" font-family="sans-serif" font-size="13" lengthAdjust="spacing" textLength="364" x="1972" y="491.895">- Confirm deletion with follow-up GetSubnet calls until the</text><text fill="#0F172A" font-family="sans-serif" font-size="13" lengthAdjust="spacing" textLength="192" x="1988" y="507.0278">resource is gone or not found.</text></g><!--link *start to Observe--><g id="link_*start_Observe"><path d="M26.08,370.7969 C26.08,370.7969 80.84,370.7969 80.84,370.7969 " fill="none" id="*start-to-Observe" style="stroke:#181818;stroke-width:1.0;"/><polygon fill="#181818" points="85.84,370.7969,76.84,366.7969,80.84,370.7969,76.84,374.7969,85.84,370.7969" style="stroke:#181818;stroke-width:1.0;"/></g><!--link Observe to ResolveByName--><g id="link_Observe_ResolveByName"><path d="M415.34,370.7969 C415.34,370.7969 469.86,370.7969 469.86,370.7969 " fill="none" id="Observe-to-ResolveByName" style="stroke:#181818;stroke-width:1.0;"/><polygon fill="#181818" points="474.86,370.7969,465.86,366.7969,469.86,370.7969,465.86,374.7969,474.86,370.7969" style="stroke:#181818;stroke-width:1.0;"/><text fill="#000000" font-family="sans-serif" font-size="13" lengthAdjust="spacing" textLength="163" x="443.6" y="383.8638">status/spec OCID missing</text></g><!--link ResolveByName to PaginatedLookup--><g id="link_ResolveByName_PaginatedLookup"><path d="M597.16,370.7969 C597.16,370.7969 651.96,370.7969 651.96,370.7969 " fill="none" id="ResolveByName-to-PaginatedLookup" style="stroke:#181818;stroke-width:1.0;"/><polygon fill="#181818" points="656.96,370.7969,647.96,366.7969,651.96,370.7969,647.96,374.7969,656.96,370.7969" style="stroke:#181818;stroke-width:1.0;"/><text fill="#000000" font-family="sans-serif" font-size="13" lengthAdjust="spacing" textLength="219" x="625.56" y="383.8638">continue searching later list pages</text></g><!--link PaginatedLookup to EvaluateReady--><g id="link_PaginatedLookup_EvaluateReady"><path d="M787.09,360.7969 C838.98,360.7969 903,360.7969 903,360.7969 C903,360.7969 903,304.8169 903,304.8169 " fill="none" id="PaginatedLookup-to-EvaluateReady" style="stroke:#181818;stroke-width:1.0;"/><polygon fill="#181818" points="903,299.8169,899,308.8169,903,304.8169,907,308.8169,903,299.8169" style="stroke:#181818;stroke-width:1.0;"/><text fill="#000000" font-family="sans-serif" font-size="13" lengthAdjust="spacing" textLength="148" x="874.03" y="356.8638">OCI state in AVAILABLE</text></g><!--link PaginatedLookup to Retryable--><g id="link_PaginatedLookup_Retryable"><path d="M787.12,370.7969 C787.12,370.7969 1256.7,370.7969 1256.7,370.7969 " fill="none" id="PaginatedLookup-to-Retryable" style="stroke:#181818;stroke-width:1.0;"/><polygon fill="#181818" points="1261.7,370.7969,1252.7,366.7969,1256.7,370.7969,1252.7,374.7969,1261.7,370.7969" style="stroke:#181818;stroke-width:1.0;"/><text fill="#000000" font-family="sans-serif" font-size="13" lengthAdjust="spacing" textLength="246" x="1022.91" y="383.8638">OCI state in PROVISIONING, UPDATING</text></g><!--link PaginatedLookup to Failed--><g id="link_PaginatedLookup_Failed"><path d="M722,390.8169 C722,414.3169 722,450.1269 722,450.1269 C722,450.1269 1404.14,450.1269 1404.14,450.1269 " fill="none" id="PaginatedLookup-to-Failed" style="stroke:#181818;stroke-width:1.0;"/><polygon fill="#181818" points="1409.14,450.1269,1400.14,446.1269,1404.14,450.1269,1400.14,454.1269,1409.14,450.1269" style="stroke:#181818;stroke-width:1.0;"/><text fill="#000000" font-family="sans-serif" font-size="13" lengthAdjust="spacing" textLength="188" x="844.41" y="463.1938">OCI state in FAILED, DELETED</text></g><!--link EvaluateReady to RejectUnsupportedDrift--><g id="link_EvaluateReady_RejectUnsupportedDrift"><path d="M958.11,273.1269 C990.89,273.1269 1026,273.1269 1026,273.1269 C1026,273.1269 1026,229.9269 1026,229.9269 " fill="none" id="EvaluateReady-to-RejectUnsupportedDrift" style="stroke:#181818;stroke-width:1.0;"/><polygon fill="#181818" points="1026,224.9269,1022,233.9269,1026,229.9269,1030,233.9269,1026,224.9269" style="stroke:#181818;stroke-width:1.0;"/><text fill="#000000" font-family="sans-serif" font-size="13" lengthAdjust="spacing" textLength="275" x="737.65" y="269.1938">unsupported or immutable drift is detected</text></g><!--link RejectUnsupportedDrift to Ready--><g id="link_RejectUnsupportedDrift_Ready"><path d="M1184,224.9569 C1184,230.8769 1184,235.7969 1184,235.7969 C1184,235.7969 1402.69,235.7969 1402.69,235.7969 " fill="none" id="RejectUnsupportedDrift-to-Ready" style="stroke:#181818;stroke-width:1.0;"/><polygon fill="#181818" points="1407.69,235.7969,1398.69,231.7969,1402.69,235.7969,1398.69,239.7969,1407.69,235.7969" style="stroke:#181818;stroke-width:1.0;"/><text fill="#000000" font-family="sans-serif" font-size="13" lengthAdjust="spacing" textLength="252" x="1034.92" y="248.8638">wait for the spec or live state to change</text></g><!--link EvaluateReady to MoveCompartment--><g id="link_EvaluateReady_MoveCompartment"><path d="M958.23,286.4669 C958.23,286.4669 1028.4,286.4669 1028.4,286.4669 " fill="none" id="EvaluateReady-to-MoveCompartment" style="stroke:#181818;stroke-width:1.0;"/><polygon fill="#181818" points="1033.4,286.4669,1024.4,282.4669,1028.4,286.4669,1024.4,290.4669,1033.4,286.4669" style="stroke:#181818;stroke-width:1.0;"/><text fill="#000000" font-family="sans-serif" font-size="13" lengthAdjust="spacing" textLength="158" x="834.32" y="299.5338">continue active reconcile</text></g><!--link MoveCompartment to ApplyUpdate--><g id="link_MoveCompartment_ApplyUpdate"><path d="M1175.73,278.7969 C1175.73,278.7969 1245.99,278.7969 1245.99,278.7969 " fill="none" id="MoveCompartment-to-ApplyUpdate" style="stroke:#181818;stroke-width:1.0;"/><polygon fill="#181818" points="1250.99,278.7969,1241.99,274.7969,1245.99,278.7969,1241.99,282.7969,1250.99,278.7969" style="stroke:#181818;stroke-width:1.0;"/><text fill="#000000" font-family="sans-serif" font-size="13" lengthAdjust="spacing" textLength="221" x="1211.86" y="274.8638">continue after compartment move</text></g><!--link ApplyUpdate to Ready--><g id="link_ApplyUpdate_Ready"><path d="M1348.21,285.7969 C1391.17,285.7969 1447,285.7969 1447,285.7969 C1447,285.7969 1447,266.9969 1447,266.9969 " fill="none" id="ApplyUpdate-to-Ready" style="stroke:#181818;stroke-width:1.0;"/><polygon fill="#181818" points="1447,261.9969,1443,270.9969,1447,266.9969,1451,270.9969,1447,261.9969" style="stroke:#181818;stroke-width:1.0;"/><text fill="#000000" font-family="sans-serif" font-size="13" lengthAdjust="spacing" textLength="231" x="1175" y="298.8638">supported mutation path completes</text></g><!--link Ready to Ready--><g id="link_Ready_Ready"><path d="M1407.84,246.7969 C1389.33,246.7969 1368,246.7969 1368,246.7969 C1368,246.7969 1368,273.7969 1368,273.7969 C1368,273.7969 1481,273.7969 1481,273.7969 C1481,273.7969 1481,248.4669 1481,248.4669 C1481,248.4669 1466.01,248.4669 1466.01,248.4669 " fill="none" id="Ready-to-Ready" style="stroke:#181818;stroke-width:1.0;"/><polygon fill="#181818" points="1461.01,248.4669,1470.01,252.4669,1466.01,248.4669,1470.01,244.4669,1461.01,248.4669" style="stroke:#181818;stroke-width:1.0;"/><text fill="#000000" font-family="sans-serif" font-size="13" lengthAdjust="spacing" textLength="170" x="1417.24" y="291.8638">no supported drift remains</text></g><!--link Retryable to Retryable--><g id="link_Retryable_Retryable"><path d="M1261.88,380.7969 C1258.89,380.7969 1257,380.7969 1257,380.7969 C1257,380.7969 1257,402.9969 1257,402.9969 C1257,402.9969 1343,402.9969 1343,402.9969 C1343,402.9969 1343,382.7969 1343,382.7969 C1343,382.7969 1342.31,382.7969 1342.31,382.7969 " fill="none" id="Retryable-to-Retryable" style="stroke:#181818;stroke-width:1.0;"/><polygon fill="#181818" points="1337.31,382.7969,1346.31,386.7969,1342.31,382.7969,1346.31,378.7969,1337.31,382.7969" style="stroke:#181818;stroke-width:1.0;"/><text fill="#000000" font-family="sans-serif" font-size="13" lengthAdjust="spacing" textLength="159" x="1131.91" y="421.0638">OCI remains nonterminal</text></g><!--link Failed to Failed--><g id="link_Failed_Failed"><path d="M1409.34,463.4669 C1398.39,463.4669 1388,463.4669 1388,463.4669 C1388,463.4669 1388,496.0469 1388,496.0469 C1388,496.0469 1501,496.0469 1501,496.0469 C1501,496.0469 1501,456.7969 1501,456.7969 C1501,456.7969 1464.64,456.7969 1464.64,456.7969 " fill="none" id="Failed-to-Failed" style="stroke:#181818;stroke-width:1.0;"/><polygon fill="#181818" points="1459.64,456.7969,1468.64,460.7969,1464.64,456.7969,1468.64,452.7969,1459.64,456.7969" style="stroke:#181818;stroke-width:1.0;"/><text fill="#000000" font-family="sans-serif" font-size="13" lengthAdjust="spacing" textLength="135" x="1314.34" y="514.1138">OCI remains terminal</text></g><!--link Ready to DeletePending--><g id="link_Ready_DeletePending"><path d="M1422,262.1069 C1422,306.8969 1422,410.1969 1422,410.1969 C1422,410.1969 1651.95,410.1969 1651.95,410.1969 " fill="none" id="Ready-to-DeletePending" style="stroke:#181818;stroke-width:1.0;"/><polygon fill="#181818" points="1656.95,410.1969,1647.95,406.1969,1651.95,410.1969,1647.95,414.1969,1656.95,410.1969" style="stroke:#181818;stroke-width:1.0;"/><text fill="#000000" font-family="sans-serif" font-size="13" lengthAdjust="spacing" textLength="109" x="1352.93" y="406.2638">delete requested</text></g><!--link Retryable to DeletePending--><g id="link_Retryable_DeletePending"><path d="M1300,390.8269 C1300,403.4569 1300,417.3969 1300,417.3969 C1300,417.3969 1651.87,417.3969 1651.87,417.3969 " fill="none" id="Retryable-to-DeletePending" style="stroke:#181818;stroke-width:1.0;"/><polygon fill="#181818" points="1656.87,417.3969,1647.87,413.3969,1651.87,417.3969,1647.87,421.3969,1656.87,417.3969" style="stroke:#181818;stroke-width:1.0;"/><text fill="#000000" font-family="sans-serif" font-size="13" lengthAdjust="spacing" textLength="109" x="1352.65" y="430.4638">delete requested</text></g><!--link Failed to DeletePending--><g id="link_Failed_DeletePending"><path d="M1435,436.5869 C1435,430.1169 1435,424.5969 1435,424.5969 C1435,424.5969 1651.81,424.5969 1651.81,424.5969 " fill="none" id="Failed-to-DeletePending" style="stroke:#181818;stroke-width:1.0;"/><polygon fill="#181818" points="1656.81,424.5969,1647.81,420.5969,1651.81,424.5969,1647.81,428.5969,1656.81,424.5969" style="stroke:#181818;stroke-width:1.0;"/><text fill="#000000" font-family="sans-serif" font-size="13" lengthAdjust="spacing" textLength="109" x="1538.41" y="437.6638">delete requested</text></g><!--link DeletePending to Deleted--><g id="link_DeletePending_Deleted"><path d="M1770.38,403.0469 C1890.48,403.0469 2159,403.0469 2159,403.0469 C2159,403.0469 2159,383.8469 2159,383.8469 " fill="none" id="DeletePending-to-Deleted" style="stroke:#181818;stroke-width:1.0;"/><polygon fill="#181818" points="2159,378.8469,2155,387.8469,2159,383.8469,2163,387.8469,2159,378.8469" style="stroke:#181818;stroke-width:1.0;"/><text fill="#000000" font-family="sans-serif" font-size="13" lengthAdjust="spacing" textLength="373" x="1975.29" y="403.3638">OCI deletion is confirmed and the finalizer can be removed</text></g><!--link Deleted to Deleted--><g id="link_Deleted_Deleted"><path d="M2125.96,367.5469 C2092.73,367.5469 2046,367.5469 2046,367.5469 C2046,367.5469 2046,386.7969 2046,386.7969 C2046,386.7969 2271,386.7969 2271,386.7969 C2271,386.7969 2271,358.7969 2271,358.7969 C2271,358.7969 2196.04,358.7969 2196.04,358.7969 " fill="none" id="Deleted-to-Deleted" style="stroke:#181818;stroke-width:1.0;"/><polygon fill="#181818" points="2191.04,358.7969,2200.04,362.7969,2196.04,358.7969,2200.04,354.7969,2191.04,358.7969" style="stroke:#181818;stroke-width:1.0;"/><text fill="#000000" font-family="sans-serif" font-size="13" lengthAdjust="spacing" textLength="100" x="2166.38" y="377.8638">terminal stutter</text></g><!--SRC=[XLPDRnit4BtpLn3eBP3I98thneS2-Wm4ABOWoxu4FL3ax8eLbzoINAbgaV_U6NBNMYigeej4SkRDntipKDJH07-OBFXZixKG-HgairBZvMCK4VWN8NVQ0ZDGH1uTzxhSHQwq1ncrisod5N2ewdZY2eBqkaxNOQzjBRoeUDW9vOxQbhmG9a3lnI1kFDN0dOyxrtlmhh5AEc_1y_SVUWzZ8VTbUfquupp_QPu-FGi5XMXCtC3VSMHqQIkmaLFk_OnIOVyopiVEA_0jriVRcvjVF-7jtDdOthsRlx_zC2BBxoB_DX_D9-nR3zUwQx3ZZpU_lFjq5M8-lvrDhmRynhw- -OCFXx_pXsq0Vm3MVlCxxa4e7cgGWrH94mPOjG6ChMt4SWTSM9KeDRe0UPBcx4s8QmZE761ykXSLuMMGdmcHlAQyqY4WN-or8RckHAajDayjdTitDJgZMAAs3V00mfDIIcxGm6Fi47ajIWZiqekGPWTX6hnROp4dnA5qCo_Qyj7pQB4SZPUpgwvhYFuajWOktLRhX-V5u-BXVd7_US2VLjFH1dzTnPWBLBYw19XZsDbqmAUpvMo3pBnECiV-4tN_P4DJrwXQK5ElSIxkU7E-GZbpNLLDJ3cgPA03SXJH5HJx7umCdxjn53ho0d7Y3XBLX6aq4fXpnJcKEs5Bk9BY5tU0YQjGaZ69lyUHm9553D-DEBkq9VzHNPlJKwqeJj-t85PbpxX2PzQtxbTmxWOrWbO2YY7k4W1fDR1-KxEFTJstt3SFbT2MZ3lEhocWjK80701V8Tk6jGn_HtPd-s9upcEQfcW5Lf6Cxxgfyl1N0o4pry_YX-Qz57ve-zhWxDAbdHoeYwWavAJGli8t6dIII46Lw7-8867vbe29dGvMNG1sjQEQceW7njBgoglT5PaGDi9vJllvZWqHCEq2DKoy37F-mxeRBTPA83I-439vA1rg8qxSulB0O-41KD4LZw8Cz0oOD6RJ7gLMVcoSt5CirqJOK9yN2ey1PEDrF2rneonKQES7gqGuoF9A0SK1-osssg3jr17BMKGKp8Qbs89vkQYzs-cjZgjcQxHSr0_ssMhvydoGTj5Aa8rfOmj_IkizKA0DTXnJyZG4L18sChsrsZgltQ544u-uS02BUvuZMQufTuapJOD0WvIdmxhZUJ03npsy7kHEP4Tgn-2b5scz3gXvUTltvpAb_PPDS1YyCmRy4FkAEMfx45uB6rCHZsdhhv1Nz7aA4FB5eZDYACLKrgKuNYcr5LXUImdtzNDtxfJ8Zyxl2-EEP3h9EZvh-wXnGnIOipiESL5_XjZ-AS7qJS0T6xMXtgMEa28RBu4cedIM_aLGlkYFVBqzf_yV]--></g></svg>