<?xml version="1.0" encoding="UTF-8" standalone="no"?><svg xmlns="http://www.w3.org/2000/svg" xmlns:xlink="http://www.w3.org/1999/xlink" contentStyleType="text/css" height="1124px" preserveAspectRatio="none" style="width:1064px;height:1124px;background:#FFFFFF;" version="1.1" viewBox="0 0 1064 1124" width="1064px" zoomAndPan="magnify"><defs/><g><text fill="#000000" font-family="sans-serif" font-size="14" font-weight="bold" lengthAdjust="spacing" textLength="334" x="366.75" y="27.9951">Data Flow Application Reconcile Sequence</text><rect fill="none" height="254.6719" style="stroke:#475569;stroke-width:1.5;" width="810" x="248.5" y="193.8594"/><rect fill="none" height="223.5391" style="stroke:#475569;stroke-width:1.5;" width="790" x="258.5" y="217.9922"/><rect fill="none" height="119.3359" style="stroke:#475569;stroke-width:1.5;" width="770" x="268.5" y="315.1953"/><rect fill="none" height="453.4063" style="stroke:#475569;stroke-width:1.5;" width="1038.5" x="10" y="462.5313"/><rect fill="none" height="104.5313" style="stroke:#475569;stroke-width:1.5;" width="770" x="268.5" y="486.6641"/><rect fill="none" height="171.9297" style="stroke:#475569;stroke-width:1.5;" width="678.5" x="258.5" y="707.875"/><rect fill="none" height="46.2656" style="stroke:#475569;stroke-width:1.5;" width="648" x="268.5" y="826.5391"/><line style="stroke:#94A3B8;stroke-width:0.5;stroke-dasharray:5.0,5.0;" x1="56" x2="56" y1="118.5938" y2="1043.7344"/><line style="stroke:#94A3B8;stroke-width:0.5;stroke-dasharray:5.0,5.0;" x1="342.5" x2="342.5" y1="118.5938" y2="1043.7344"/><line style="stroke:#94A3B8;stroke-width:0.5;stroke-dasharray:5.0,5.0;" x1="888.5" x2="888.5" y1="118.5938" y2="1043.7344"/><line style="stroke:#94A3B8;stroke-width:0.5;stroke-dasharray:5.0,5.0;" x1="972.5" x2="972.5" y1="118.5938" y2="1043.7344"/><text fill="#000000" font-family="sans-serif" font-size="14" lengthAdjust="spacing" textLength="67" x="20" y="115.292">Controller</text><ellipse cx="56.5" cy="50.7969" fill="#E0F2FE" rx="8" ry="8" style="stroke:#0F766E;stroke-width:0.5;"/><path d="M56.5,58.7969 L56.5,85.7969 M43.5,66.7969 L69.5,66.7969 M56.5,85.7969 L43.5,100.7969 M56.5,85.7969 L69.5,100.7969 " fill="none" style="stroke:#0F766E;stroke-width:0.5;"/><text fill="#000000" font-family="sans-serif" font-size="14" lengthAdjust="spacing" textLength="67" x="20" y="1055.7295">Controller</text><ellipse cx="56.5" cy="1067.5313" fill="#E0F2FE" rx="8" ry="8" style="stroke:#0F766E;stroke-width:0.5;"/><path d="M56.5,1075.5313 L56.5,1102.5313 M43.5,1083.5313 L69.5,1083.5313 M56.5,1102.5313 L43.5,1117.5313 M56.5,1102.5313 L69.5,1117.5313 " fill="none" style="stroke:#0F766E;stroke-width:0.5;"/><rect fill="#F8FAFC" height="30.2969" rx="2.5" ry="2.5" style="stroke:#475569;stroke-width:0.5;" width="128" x="278.5" y="87.2969"/><text fill="#000000" font-family="sans-serif" font-size="14" lengthAdjust="spacing" textLength="114" x="285.5" y="107.292">Service Manager</text><rect fill="#F8FAFC" height="30.2969" rx="2.5" ry="2.5" style="stroke:#475569;stroke-width:0.5;" width="128" x="278.5" y="1042.7344"/><text fill="#000000" font-family="sans-serif" font-size="14" lengthAdjust="spacing" textLength="114" x="285.5" y="1062.7295">Service Manager</text><text fill="#000000" font-family="sans-serif" font-size="14" lengthAdjust="spacing" textLength="24" x="873.5" y="115.292">OCI</text><path d="M870.5,66.2969 C870.5,56.2969 888.5,56.2969 888.5,56.2969 C888.5,56.2969 906.5,56.2969 906.5,66.2969 L906.5,92.2969 C906.5,102.2969 888.5,102.2969 888.5,102.2969 C888.5,102.2969 870.5,102.2969 870.5,92.2969 L870.5,66.2969 " fill="#E2E2F0" style="stroke:#181818;stroke-width:1.5;"/><path d="M870.5,66.2969 C870.5,76.2969 888.5,76.2969 888.5,76.2969 C888.5,76.2969 906.5,76.2969 906.5,66.2969 " fill="none" style="stroke:#181818;stroke-width:1.5;"/><text fill="#000000" font-family="sans-serif" font-size="14" lengthAdjust="spacing" textLength="24" x="873.5" y="1055.7295">OCI</text><path d="M870.5,1069.0313 C870.5,1059.0313 888.5,1059.0313 888.5,1059.0313 C888.5,1059.0313 906.5,1059.0313 906.5,1069.0313 L906.5,1095.0313 C906.5,1105.0313 888.5,1105.0313 888.5,1105.0313 C888.5,1105.0313 870.5,1105.0313 870.5,1095.0313 L870.5,1069.0313 " fill="#E2E2F0" style="stroke:#181818;stroke-width:1.5;"/><path d="M870.5,1069.0313 C870.5,1079.0313 888.5,1079.0313 888.5,1079.0313 C888.5,1079.0313 906.5,1079.0313 906.5,1069.0313 " fill="none" style="stroke:#181818;stroke-width:1.5;"/><text fill="#000000" font-family="sans-serif" font-size="14" lengthAdjust="spacing" textLength="106" x="916.5" y="115.292">Kubernetes API</text><path d="M954.5,66.2969 C954.5,56.2969 972.5,56.2969 972.5,56.2969 C972.5,56.2969 990.5,56.2969 990.5,66.2969 L990.5,92.2969 C990.5,102.2969 972.5,102.2969 972.5,102.2969 C972.5,102.2969 954.5,102.2969 954.5,92.2969 L954.5,66.2969 " fill="#E2E2F0" style="stroke:#181818;stroke-width:1.5;"/><path d="M954.5,66.2969 C954.5,76.2969 972.5,76.2969 972.5,76.2969 C972.5,76.2969 990.5,76.2969 990.5,66.2969 " fill="none" style="stroke:#181818;stroke-width:1.5;"/><text fill="#000000" font-family="sans-serif" font-size="14" lengthAdjust="spacing" textLength="106" x="916.5" y="1055.7295">Kubernetes API</text><path d="M954.5,1069.0313 C954.5,1059.0313 972.5,1059.0313 972.5,1059.0313 C972.5,1059.0313 990.5,1059.0313 990.5,1069.0313 L990.5,1095.0313 C990.5,1105.0313 972.5,1105.0313 972.5,1105.0313 C972.5,1105.0313 954.5,1105.0313 954.5,1095.0313 L954.5,1069.0313 " fill="#E2E2F0" style="stroke:#181818;stroke-width:1.5;"/><path d="M954.5,1069.0313 C954.5,1079.0313 972.5,1079.0313 972.5,1079.0313 C972.5,1079.0313 990.5,1079.0313 990.5,1069.0313 " fill="none" style="stroke:#181818;stroke-width:1.5;"/><polygon fill="#334155" points="330.5,145.7266,340.5,149.7266,330.5,153.7266,334.5,149.7266" style="stroke:#334155;stroke-width:1.0;"/><line style="stroke:#334155;stroke-width:1.0;" x1="56.5" x2="336.5" y1="149.7266" y2="149.7266"/><text fill="#000000" font-family="sans-serif" font-size="13" font-weight="bold" lengthAdjust="spacing" textLength="9" x="63.5" y="144.6606">1</text><text fill="#000000" font-family="sans-serif" font-size="13" lengthAdjust="spacing" textLength="239" x="76.5" y="144.6606">reconcile desired spec and live status</text><polygon fill="#334155" points="960.5,174.8594,970.5,178.8594,960.5,182.8594,964.5,178.8594" style="stroke:#334155;stroke-width:1.0;"/><line style="stroke:#334155;stroke-width:1.0;" x1="342.5" x2="966.5" y1="178.8594" y2="178.8594"/><text fill="#000000" font-family="sans-serif" font-size="13" font-weight="bold" lengthAdjust="spacing" textLength="9" x="349.5" y="173.7935">2</text><text fill="#000000" font-family="sans-serif" font-size="13" lengthAdjust="spacing" textLength="212" x="362.5" y="173.7935">read CR status and finalizer state</text><path d="M248.5,193.8594 L418.5,193.8594 L418.5,200.9922 L408.5,210.9922 L248.5,210.9922 L248.5,193.8594 " fill="#F8FAFC" style="stroke:#475569;stroke-width:1.5;"/><rect fill="none" height="254.6719" style="stroke:#475569;stroke-width:1.5;" width="810" x="248.5" y="193.8594"/><text fill="#000000" font-family="sans-serif" font-size="13" font-weight="bold" lengthAdjust="spacing" textLength="125" x="263.5" y="206.9263">Lookup and bind</text><path d="M258.5,217.9922 L322.5,217.9922 L322.5,225.125 L312.5,235.125 L258.5,235.125 L258.5,217.9922 " fill="#F8FAFC" style="stroke:#475569;stroke-width:1.5;"/><rect fill="none" height="223.5391" style="stroke:#475569;stroke-width:1.5;" width="790" x="258.5" y="217.9922"/><text fill="#000000" font-family="sans-serif" font-size="13" font-weight="bold" lengthAdjust="spacing" textLength="19" x="273.5" y="231.0591">alt</text><text fill="#000000" font-family="sans-serif" font-size="11" font-weight="bold" lengthAdjust="spacing" textLength="256" x="337.5" y="230.2026">[tracked or explicit OCID already exists]</text><polygon fill="#334155" points="876.5,252.2578,886.5,256.2578,876.5,260.2578,880.5,256.2578" style="stroke:#334155;stroke-width:1.0;"/><line style="stroke:#334155;stroke-width:1.0;" x1="342.5" x2="882.5" y1="256.2578" y2="256.2578"/><text fill="#000000" font-family="sans-serif" font-size="13" font-weight="bold" lengthAdjust="spacing" textLength="9" x="349.5" y="251.1919">3</text><text fill="#000000" font-family="sans-serif" font-size="13" lengthAdjust="spacing" textLength="278" x="362.5" y="251.1919">get the current resource by known identifier</text><line style="stroke:#475569;stroke-width:1.0;stroke-dasharray:2.0,2.0;" x1="258.5" x2="1048.5" y1="265.2578" y2="265.2578"/><text fill="#000000" font-family="sans-serif" font-size="11" font-weight="bold" lengthAdjust="spacing" textLength="145" x="263.5" y="275.4683">[no OCID is bound yet]</text><polygon fill="#334155" points="876.5,296.1953,886.5,300.1953,876.5,304.1953,880.5,300.1953" style="stroke:#334155;stroke-width:1.0;"/><line style="stroke:#334155;stroke-width:1.0;" x1="342.5" x2="882.5" y1="300.1953" y2="300.1953"/><text fill="#000000" font-family="sans-serif" font-size="13" font-weight="bold" lengthAdjust="spacing" textLength="9" x="349.5" y="295.1294">4</text><text fill="#000000" font-family="sans-serif" font-size="13" lengthAdjust="spacing" textLength="193" x="362.5" y="295.1294">list resources by display name</text><path d="M268.5,315.1953 L332.5,315.1953 L332.5,322.3281 L322.5,332.3281 L268.5,332.3281 L268.5,315.1953 " fill="#F8FAFC" style="stroke:#475569;stroke-width:1.5;"/><rect fill="none" height="119.3359" style="stroke:#475569;stroke-width:1.5;" width="770" x="268.5" y="315.1953"/><text fill="#000000" font-family="sans-serif" font-size="13" font-weight="bold" lengthAdjust="spacing" textLength="19" x="283.5" y="328.2622">alt</text><text fill="#000000" font-family="sans-serif" font-size="11" font-weight="bold" lengthAdjust="spacing" textLength="162" x="347.5" y="327.4058">[existing resource found]</text><polygon fill="#334155" points="960.5,349.4609,970.5,353.4609,960.5,357.4609,964.5,353.4609" style="stroke:#334155;stroke-width:1.0;"/><line style="stroke:#334155;stroke-width:1.0;" x1="342.5" x2="966.5" y1="353.4609" y2="353.4609"/><text fill="#000000" font-family="sans-serif" font-size="13" font-weight="bold" lengthAdjust="spacing" textLength="9" x="349.5" y="348.395">5</text><text fill="#000000" font-family="sans-serif" font-size="13" lengthAdjust="spacing" textLength="221" x="362.5" y="348.395">persist the resolved OCID in status</text><line style="stroke:#475569;stroke-width:1.0;stroke-dasharray:2.0,2.0;" x1="268.5" x2="1038.5" y1="362.4609" y2="362.4609"/><text fill="#000000" font-family="sans-serif" font-size="11" font-weight="bold" lengthAdjust="spacing" textLength="182" x="273.5" y="372.6714">[no existing resource found]</text><polygon fill="#334155" points="876.5,393.3984,886.5,397.3984,876.5,401.3984,880.5,397.3984" style="stroke:#334155;stroke-width:1.0;"/><line style="stroke:#334155;stroke-width:1.0;" x1="342.5" x2="882.5" y1="397.3984" y2="397.3984"/><text fill="#000000" font-family="sans-serif" font-size="13" font-weight="bold" lengthAdjust="spacing" textLength="9" x="349.5" y="392.3325">6</text><text fill="#000000" font-family="sans-serif" font-size="13" lengthAdjust="spacing" textLength="152" x="362.5" y="392.3325">create the OCI resource</text><polygon fill="#334155" points="960.5,422.5313,970.5,426.5313,960.5,430.5313,964.5,426.5313" style="stroke:#334155;stroke-width:1.0;"/><line style="stroke:#334155;stroke-width:1.0;" x1="342.5" x2="966.5" y1="426.5313" y2="426.5313"/><text fill="#000000" font-family="sans-serif" font-size="13" font-weight="bold" lengthAdjust="spacing" textLength="9" x="349.5" y="421.4653">7</text><text fill="#000000" font-family="sans-serif" font-size="13" lengthAdjust="spacing" textLength="216" x="362.5" y="421.4653">persist the created OCID in status</text><path d="M10,462.5313 L74,462.5313 L74,469.6641 L64,479.6641 L10,479.6641 L10,462.5313 " fill="#F8FAFC" style="stroke:#475569;stroke-width:1.5;"/><rect fill="none" height="453.4063" style="stroke:#475569;stroke-width:1.5;" width="1038.5" x="10" y="462.5313"/><text fill="#000000" font-family="sans-serif" font-size="13" font-weight="bold" lengthAdjust="spacing" textLength="19" x="25" y="475.5981">alt</text><text fill="#000000" font-family="sans-serif" font-size="11" font-weight="bold" lengthAdjust="spacing" textLength="120" x="89" y="474.7417">[delete requested]</text><path d="M268.5,486.6641 L361.5,486.6641 L361.5,493.7969 L351.5,503.7969 L268.5,503.7969 L268.5,486.6641 " fill="#F8FAFC" style="stroke:#475569;stroke-width:1.5;"/><rect fill="none" height="104.5313" style="stroke:#475569;stroke-width:1.5;" width="770" x="268.5" y="486.6641"/><text fill="#000000" font-family="sans-serif" font-size="13" font-weight="bold" lengthAdjust="spacing" textLength="48" x="283.5" y="499.731">Delete</text><polygon fill="#334155" points="876.5,520.9297,886.5,524.9297,876.5,528.9297,880.5,524.9297" style="stroke:#334155;stroke-width:1.0;"/><line style="stroke:#334155;stroke-width:1.0;" x1="342.5" x2="882.5" y1="524.9297" y2="524.9297"/><text fill="#000000" font-family="sans-serif" font-size="13" font-weight="bold" lengthAdjust="spacing" textLength="9" x="349.5" y="519.8638">8</text><text fill="#000000" font-family="sans-serif" font-size="13" lengthAdjust="spacing" textLength="114" x="362.5" y="519.8638">submit OCI delete</text><polygon fill="#334155" points="876.5,550.0625,886.5,554.0625,876.5,558.0625,880.5,554.0625" style="stroke:#334155;stroke-width:1.0;"/><line style="stroke:#334155;stroke-width:1.0;" x1="342.5" x2="882.5" y1="554.0625" y2="554.0625"/><text fill="#000000" font-family="sans-serif" font-size="13" font-weight="bold" lengthAdjust="spacing" textLength="9" x="349.5" y="548.9966">9</text><text fill="#000000" font-family="sans-serif" font-size="13" lengthAdjust="spacing" textLength="509" x="362.5" y="548.9966">Confirm deletion with GetApplication until the resource is DELETED or not found.</text><polygon fill="#334155" points="960.5,579.1953,970.5,583.1953,960.5,587.1953,964.5,583.1953" style="stroke:#334155;stroke-width:1.0;"/><line style="stroke:#334155;stroke-width:1.0;" x1="342.5" x2="966.5" y1="583.1953" y2="583.1953"/><text fill="#000000" font-family="sans-serif" font-size="13" font-weight="bold" lengthAdjust="spacing" textLength="18" x="349.5" y="578.1294">10</text><text fill="#000000" font-family="sans-serif" font-size="13" lengthAdjust="spacing" textLength="289" x="371.5" y="578.1294">remove the finalizer after delete confirmation</text><line style="stroke:#475569;stroke-width:1.0;stroke-dasharray:2.0,2.0;" x1="10" x2="1048.5" y1="599.1953" y2="599.1953"/><text fill="#000000" font-family="sans-serif" font-size="11" font-weight="bold" lengthAdjust="spacing" textLength="147" x="15" y="609.4058">[OCI state is retryable]</text><polygon fill="#334155" points="67.5,630.1328,57.5,634.1328,67.5,638.1328,63.5,634.1328" style="stroke:#334155;stroke-width:1.0;"/><line style="stroke:#334155;stroke-width:1.0;stroke-dasharray:2.0,2.0;" x1="61.5" x2="341.5" y1="634.1328" y2="634.1328"/><text fill="#000000" font-family="sans-serif" font-size="13" font-weight="bold" lengthAdjust="spacing" textLength="18" x="73.5" y="629.0669">11</text><text fill="#000000" font-family="sans-serif" font-size="13" lengthAdjust="spacing" textLength="110" x="95.5" y="629.0669">requeue required</text><line style="stroke:#475569;stroke-width:1.0;stroke-dasharray:2.0,2.0;" x1="10" x2="1048.5" y1="643.1328" y2="643.1328"/><text fill="#000000" font-family="sans-serif" font-size="11" font-weight="bold" lengthAdjust="spacing" textLength="200" x="15" y="653.3433">[OCI state is failed or terminal]</text><polygon fill="#334155" points="67.5,674.0703,57.5,678.0703,67.5,682.0703,63.5,678.0703" style="stroke:#334155;stroke-width:1.0;"/><line style="stroke:#334155;stroke-width:1.0;stroke-dasharray:2.0,2.0;" x1="61.5" x2="341.5" y1="678.0703" y2="678.0703"/><text fill="#000000" font-family="sans-serif" font-size="13" font-weight="bold" lengthAdjust="spacing" textLength="18" x="73.5" y="673.0044">12</text><text fill="#000000" font-family="sans-serif" font-size="13" lengthAdjust="spacing" textLength="240" x="95.5" y="673.0044">unsuccessful terminal reconcile result</text><line style="stroke:#475569;stroke-width:1.0;stroke-dasharray:2.0,2.0;" x1="10" x2="1048.5" y1="687.0703" y2="687.0703"/><text fill="#000000" font-family="sans-serif" font-size="11" font-weight="bold" lengthAdjust="spacing" textLength="203" x="15" y="697.2808">[OCI state is active and usable]</text><path d="M258.5,707.875 L405.5,707.875 L405.5,715.0078 L395.5,725.0078 L258.5,725.0078 L258.5,707.875 " fill="#F8FAFC" style="stroke:#475569;stroke-width:1.5;"/><rect fill="none" height="171.9297" style="stroke:#475569;stroke-width:1.5;" width="678.5" x="258.5" y="707.875"/><text fill="#000000" font-family="sans-serif" font-size="13" font-weight="bold" lengthAdjust="spacing" textLength="102" x="273.5" y="720.9419">Drift handling</text><path d="M304,730.0078 L304,785.0078 L927,785.0078 L927,740.0078 L917,730.0078 L304,730.0078 " fill="#FEFFDD" style="stroke:#181818;stroke-width:0.5;"/><path d="M917,730.0078 L917,740.0078 L927,740.0078 L917,730.0078 " fill="#FEFFDD" style="stroke:#181818;stroke-width:0.5;"/><text fill="#000000" font-family="sans-serif" font-size="13" lengthAdjust="spacing" textLength="171" x="310" y="747.0747">Supported update surface:</text><text fill="#000000" font-family="sans-serif" font-size="13" lengthAdjust="spacing" textLength="441" x="310" y="762.2075">- diff-based update from observable ACTIVE and INACTIVE application</text><text fill="#000000" font-family="sans-serif" font-size="13" lengthAdjust="spacing" textLength="33" x="326" y="777.3403">state</text><polygon fill="#334155" points="876.5,807.5391,886.5,811.5391,876.5,815.5391,880.5,811.5391" style="stroke:#334155;stroke-width:1.0;"/><line style="stroke:#334155;stroke-width:1.0;" x1="342.5" x2="882.5" y1="811.5391" y2="811.5391"/><text fill="#000000" font-family="sans-serif" font-size="13" font-weight="bold" lengthAdjust="spacing" textLength="18" x="349.5" y="806.4731">13</text><text fill="#000000" font-family="sans-serif" font-size="13" lengthAdjust="spacing" textLength="466" x="371.5" y="806.4731">Fail explicit-ID binding when the observed application is already DELETED.</text><path d="M268.5,826.5391 L338.5,826.5391 L338.5,833.6719 L328.5,843.6719 L268.5,843.6719 L268.5,826.5391 " fill="#F8FAFC" style="stroke:#475569;stroke-width:1.5;"/><rect fill="none" height="46.2656" style="stroke:#475569;stroke-width:1.5;" width="648" x="268.5" y="826.5391"/><text fill="#000000" font-family="sans-serif" font-size="13" font-weight="bold" lengthAdjust="spacing" textLength="25" x="283.5" y="839.606">opt</text><text fill="#000000" font-family="sans-serif" font-size="11" font-weight="bold" lengthAdjust="spacing" textLength="258" x="353.5" y="838.7495">[supported drift or collection diff exists]</text><polygon fill="#334155" points="876.5,860.8047,886.5,864.8047,876.5,868.8047,880.5,864.8047" style="stroke:#334155;stroke-width:1.0;"/><line style="stroke:#334155;stroke-width:1.0;" x1="342.5" x2="882.5" y1="864.8047" y2="864.8047"/><text fill="#000000" font-family="sans-serif" font-size="13" font-weight="bold" lengthAdjust="spacing" textLength="18" x="349.5" y="859.7388">14</text><text fill="#000000" font-family="sans-serif" font-size="13" lengthAdjust="spacing" textLength="277" x="371.5" y="859.7388">apply the supported in-place mutation path</text><polygon fill="#334155" points="67.5,903.9375,57.5,907.9375,67.5,911.9375,63.5,907.9375" style="stroke:#334155;stroke-width:1.0;"/><line style="stroke:#334155;stroke-width:1.0;stroke-dasharray:2.0,2.0;" x1="61.5" x2="341.5" y1="907.9375" y2="907.9375"/><text fill="#000000" font-family="sans-serif" font-size="13" font-weight="bold" lengthAdjust="spacing" textLength="18" x="73.5" y="902.8716">15</text><text fill="#000000" font-family="sans-serif" font-size="13" lengthAdjust="spacing" textLength="169" x="95.5" y="902.8716">successful active reconcile</text><path d="M31,927.9375 L31,1027.9375 L912,1027.9375 L912,937.9375 L902,927.9375 L31,927.9375 " fill="#FEFFDD" style="stroke:#181818;stroke-width:0.5;"/><path d="M902,927.9375 L902,937.9375 L912,937.9375 L902,927.9375 " fill="#FEFFDD" style="stroke:#181818;stroke-width:0.5;"/><text fill="#000000" font-family="sans-serif" font-size="13" lengthAdjust="spacing" textLength="105" x="37" y="945.0044">Boundary notes:</text><text fill="#000000" font-family="sans-serif" font-size="13" lengthAdjust="spacing" textLength="445" x="37" y="960.1372">- The formal model intentionally excludes unobservable asynchronous</text><text fill="#000000" font-family="sans-serif" font-size="13" lengthAdjust="spacing" textLength="150" x="53" y="975.27">create-progress states.</text><text fill="#000000" font-family="sans-serif" font-size="13" lengthAdjust="spacing" textLength="108" x="37" y="990.4028">Sequence notes:</text><text fill="#000000" font-family="sans-serif" font-size="13" lengthAdjust="spacing" textLength="451" x="37" y="1005.5356">- INACTIVE is treated as a ready-state outcome rather than a retryable</text><text fill="#000000" font-family="sans-serif" font-size="13" lengthAdjust="spacing" textLength="123" x="53" y="1020.6685">provisioning phase.</text><!--SRC=[bLRRRjj837tNLn3PrpheDfUcULZ0yQK8ccsBDjZtiKJPWuncj7EngrtqtqlEZ2NLSTnT0x6X8OSyF3oaugLN27FX1IoLsS6qRPKiXPT6mnSiZIubsR_Ytm5rYOK8tkZGhD0MxadgLbZHWDk8okoaNaCjbCEHvKwKJsjhWgvcHXaBlotZP-GnjTRiil7YulBtgwkHiS9Q1EKVyPkVAhdM3MeF2ci_JfwXmRy5m6TXlInbAxH_dlfcELtE3foChT1cXyktLrVNxyZXGTRu83N-P7rtERsuknbRNwWDu3sTjiT39zEBqAQbD_QPUV5w-MQvwCtZmA-NRw-l5yNtGh09pcP6UskKGdi6mi7mMBH3rN3s5UrM4cT_2YtMsJUVvQEY8aciX4Cu-pIxZmxqEphz44W46Zqwc7vE3XzkN54CAM7onq7GMx2zf2fqqc85hiKIXAv0oIs2yy87L_nyZGDHRBujAfXzoLxnLYsrKF8VSk93B0fcheK7OvxeXprMKbV4dL0Ul2LgAISnXTzOvz9pLNCoSkYEJgNpZhm1daCWprjO8uNP89J1MbQZHMU29IfN7JnfizCWApgNjIGE0P3c0RH9MQI35RSLElIdSYW2qGTs7BcIhbMY0oqQZ3UvcWYMfwx7K7FqQ3yMErBOedKSdclWUsfBV2HqUiy-Nzy3_xz9OW4biUanvg3d_kf_HvO270SMa_Ct_nLCH8MAT4XfQ1CukaRsf89vD9oYseLLaqIGevno9cdNqZR9anVaJleDl4S_Nfg1cgzwUYDZrFVvuc7nk9YpyhJnYSFpuWGR5XkpJHGE4XUrf-zSRfdGnAnxHhXfN4kS1SvhqTjEh1JNTPY9KWt3Ufle2ub6dimZqMf1anl7Xt0q3ElNOODseIGPkpge_jfe3n1BjEAF9AEDnXk1HpYuN49kgvMrXmrP52apilZHq2KYp1x0USLBAyikjAsnhAhGLfp31LkB4c-pVK9JLjSJtcwzIsrD0sRbA2OZWEdiyVwlHSHq_t7_C3G_H-9FsaPPiDppayfQ4h7zIfgGvdbfyTJjDgYZ2188GZPA5rdAcoiBB6dAj9wgsvTRHRgeQIMtf8mtkTJnjdiH6QVh8e8XeDGJsaOax2Ru1AGLVdCmdRyKnaWMkTMzAD9e3pqThkL-tl7y2Dj5OXrtS0AFF2g61a91OsX62ARdJMn8RufNUwa2lNH8aAE62jVfScEDDc5FHDezazQQDMdJfKwwyrXG_bTZbBMN0VN2vwr5hq8HtrNT9AdP15-QXWeacgWSJzAD7iDiyeSoRgKZlDpuTaCwF2zwyVm0]--></g></svg>