<?xml version="1.0" encoding="UTF-8" standalone="no"?><svg xmlns="http://www.w3.org/2000/svg" xmlns:xlink="http://www.w3.org/1999/xlink" contentStyleType="text/css" height="375px" preserveAspectRatio="none" style="width:1945px;height:375px;background:#FFFFFF;" version="1.1" viewBox="0 0 1945 375" width="1945px" zoomAndPan="magnify"><defs/><g><text fill="#000000" font-family="sans-serif" font-size="14" font-weight="bold" lengthAdjust="spacing" textLength="366" x="782.5" y="22.9951">Data Flow Application Reconcile State Machine</text><ellipse cx="16" cy="229.2969" fill="#222222" rx="10" ry="10" style="stroke:none;stroke-width:1.0;"/><g id="Observe"><rect fill="#F8FAFC" height="50.2656" rx="6" ry="6" style="stroke:#475569;stroke-width:0.5;" width="329" x="86" y="204.2969"/><line style="stroke:#475569;stroke-width:0.5;" x1="86" x2="415" y1="230.5938" y2="230.5938"/><text fill="#0F172A" font-family="sans-serif" font-size="14" lengthAdjust="spacing" textLength="58" x="221.5" y="222.292">Observe</text><text fill="#0F172A" font-family="sans-serif" font-size="12" lengthAdjust="spacing" textLength="309" x="91" y="246.7324">read spec, status, delete intent, and OCI lifecycle</text></g><rect fill="#F8FAFC" height="40" rx="6" ry="6" style="stroke:#475569;stroke-width:0.5;" width="122" x="475" y="209.2969"/><text fill="#0F172A" font-family="sans-serif" font-size="14" lengthAdjust="spacing" textLength="112" x="480" y="234.1436">ResolveByName</text><rect fill="#F8FAFC" height="40" rx="6" ry="6" style="stroke:#475569;stroke-width:0.5;" width="111" x="657" y="126.2969"/><text fill="#0F172A" font-family="sans-serif" font-size="14" lengthAdjust="spacing" textLength="101" x="662" y="151.1436">EvaluateReady</text><rect fill="#F8FAFC" height="40" rx="6" ry="6" style="stroke:#475569;stroke-width:0.5;" width="75" x="839" y="209.2969"/><text fill="#0F172A" font-family="sans-serif" font-size="14" lengthAdjust="spacing" textLength="65" x="844" y="234.1436">Retryable</text><rect fill="#F8FAFC" height="40" rx="6" ry="6" style="stroke:#475569;stroke-width:0.5;" width="50" x="986.5" y="295.2969"/><text fill="#0F172A" font-family="sans-serif" font-size="14" lengthAdjust="spacing" textLength="40" x="991.5" y="320.1436">Failed</text><rect fill="#F8FAFC" height="40" rx="6" ry="6" style="stroke:#475569;stroke-width:0.5;" width="97" x="828" y="116.2969"/><text fill="#0F172A" font-family="sans-serif" font-size="14" lengthAdjust="spacing" textLength="87" x="833" y="141.1436">ApplyUpdate</text><rect fill="#F8FAFC" height="40" rx="6" ry="6" style="stroke:#475569;stroke-width:0.5;" width="53" x="985" y="116.2969"/><text fill="#0F172A" font-family="sans-serif" font-size="14" lengthAdjust="spacing" textLength="43" x="990" y="141.1436">Ready</text><rect fill="#F8FAFC" height="40" rx="6" ry="6" style="stroke:#475569;stroke-width:0.5;" width="113" x="1236" y="224.2969"/><text fill="#0F172A" font-family="sans-serif" font-size="14" lengthAdjust="spacing" textLength="103" x="1241" y="249.1436">DeletePending</text><rect fill="#F8FAFC" height="40" rx="6" ry="6" style="stroke:#475569;stroke-width:0.5;" width="65" x="1710" y="171.2969"/><text fill="#0F172A" font-family="sans-serif" font-size="14" lengthAdjust="spacing" textLength="55" x="1715" y="196.1436">Deleted</text><g id="elem_GMN27"><path d="M1098,49.2969 L1098,125.6269 L1038.19,129.6269 L1098,133.6269 L1098,183.4922 A6,6 0 0 0 1104,189.4922 L1481,189.4922 A6,6 0 0 0 1487,183.4922 L1487,53.2969 L1477,43.2969 L1104,43.2969 A6,6 0 0 0 1098,49.2969 " fill="#FFF7ED" style="stroke:#181818;stroke-width:0.5;"/><path d="M1477,43.2969 L1477,50.2969 A3,3 0 0 0 1480,53.2969 L1487,53.2969 L1477,43.2969 " fill="#FFF7ED" style="stroke:#181818;stroke-width:0.5;"/><text fill="#0F172A" font-family="sans-serif" font-size="13" lengthAdjust="spacing" textLength="69" x="1104" y="60.3638">Archetype:</text><text fill="#0F172A" font-family="sans-serif" font-size="13" lengthAdjust="spacing" textLength="138" x="1104" y="75.4966">- resolved-drift-delete</text><text fill="#0F172A" font-family="sans-serif" font-size="13" lengthAdjust="spacing" textLength="102" x="1104" y="90.6294">Update surface:</text><text fill="#0F172A" font-family="sans-serif" font-size="13" lengthAdjust="spacing" textLength="368" x="1104" y="105.7622">- diff-based update from observable ACTIVE and INACTIVE</text><text fill="#0F172A" font-family="sans-serif" font-size="13" lengthAdjust="spacing" textLength="106" x="1120" y="120.895">application state</text><text fill="#0F172A" font-family="sans-serif" font-size="13" lengthAdjust="spacing" textLength="175" x="1104" y="136.0278">Reject before mutate: none</text><text fill="#0F172A" font-family="sans-serif" font-size="13" lengthAdjust="spacing" textLength="105" x="1104" y="151.1606">Boundary notes:</text><text fill="#0F172A" font-family="sans-serif" font-size="13" lengthAdjust="spacing" textLength="352" x="1104" y="166.2935">- The formal model intentionally excludes unobservable</text><text fill="#0F172A" font-family="sans-serif" font-size="13" lengthAdjust="spacing" textLength="243" x="1120" y="181.4263">asynchronous create-progress states.</text></g><g id="elem_GMN30"><path d="M1547,252.7969 L1547,251.5469 L1349.04,255.5469 L1547,259.5469 L1547,341.5938 A6,6 0 0 0 1553,347.5938 L1932,347.5938 A6,6 0 0 0 1938,341.5938 L1938,256.7969 L1928,246.7969 L1553,246.7969 A6,6 0 0 0 1547,252.7969 " fill="#FFF7ED" style="stroke:#181818;stroke-width:0.5;"/><path d="M1928,246.7969 L1928,253.7969 A3,3 0 0 0 1931,256.7969 L1938,256.7969 L1928,246.7969 " fill="#FFF7ED" style="stroke:#181818;stroke-width:0.5;"/><text fill="#0F172A" font-family="sans-serif" font-size="13" lengthAdjust="spacing" textLength="90" x="1553" y="263.8638">Delete states:</text><text fill="#0F172A" font-family="sans-serif" font-size="13" lengthAdjust="spacing" textLength="102" x="1553" y="278.9966">- DeletePending</text><text fill="#0F172A" font-family="sans-serif" font-size="13" lengthAdjust="spacing" textLength="59" x="1553" y="294.1294">- Deleted</text><text fill="#0F172A" font-family="sans-serif" font-size="13" lengthAdjust="spacing" textLength="103" x="1553" y="309.2622">Delete workflow:</text><text fill="#0F172A" font-family="sans-serif" font-size="13" lengthAdjust="spacing" textLength="370" x="1553" y="324.395">- Confirm deletion with GetApplication until the resource is</text><text fill="#0F172A" font-family="sans-serif" font-size="13" lengthAdjust="spacing" textLength="144" x="1569" y="339.5278">DELETED or not found.</text></g><!--link *start to Observe--><g id="link_*start_Observe"><path d="M26.08,229.2969 C26.08,229.2969 80.84,229.2969 80.84,229.2969 " fill="none" id="*start-to-Observe" style="stroke:#181818;stroke-width:1.0;"/><polygon fill="#181818" points="85.84,229.2969,76.84,225.2969,80.84,229.2969,76.84,233.2969,85.84,229.2969" style="stroke:#181818;stroke-width:1.0;"/></g><!--link Observe to ResolveByName--><g id="link_Observe_ResolveByName"><path d="M415.34,229.2969 C415.34,229.2969 469.86,229.2969 469.86,229.2969 " fill="none" id="Observe-to-ResolveByName" style="stroke:#181818;stroke-width:1.0;"/><polygon fill="#181818" points="474.86,229.2969,465.86,225.2969,469.86,229.2969,465.86,233.2969,474.86,229.2969" style="stroke:#181818;stroke-width:1.0;"/><text fill="#000000" font-family="sans-serif" font-size="13" lengthAdjust="spacing" textLength="163" x="443.6" y="233.8638">status/spec OCID missing</text></g><!--link ResolveByName to EvaluateReady--><g id="link_ResolveByName_EvaluateReady"><path d="M597.41,219.2969 C648.53,219.2969 713,219.2969 713,219.2969 C713,219.2969 713,171.6269 713,171.6269 " fill="none" id="ResolveByName-to-EvaluateReady" style="stroke:#181818;stroke-width:1.0;"/><polygon fill="#181818" points="713,166.6269,709,175.6269,713,171.6269,717,175.6269,713,166.6269" style="stroke:#181818;stroke-width:1.0;"/><text fill="#000000" font-family="sans-serif" font-size="13" lengthAdjust="spacing" textLength="189" x="680.04" y="215.3638">OCI state in ACTIVE, INACTIVE</text></g><!--link ResolveByName to Retryable--><g id="link_ResolveByName_Retryable"><path d="M597.27,229.2969 C597.27,229.2969 833.91,229.2969 833.91,229.2969 " fill="none" id="ResolveByName-to-Retryable" style="stroke:#181818;stroke-width:1.0;"/><polygon fill="#181818" points="838.91,229.2969,829.91,225.2969,833.91,229.2969,829.91,233.2969,838.91,229.2969" style="stroke:#181818;stroke-width:1.0;"/><text fill="#000000" font-family="sans-serif" font-size="13" lengthAdjust="spacing" textLength="110" x="716.59" y="242.3638">OCI state in none</text></g><!--link ResolveByName to Failed--><g id="link_ResolveByName_Failed"><path d="M536,249.3169 C536,272.8169 536,308.6269 536,308.6269 C536,308.6269 981.27,308.6269 981.27,308.6269 " fill="none" id="ResolveByName-to-Failed" style="stroke:#181818;stroke-width:1.0;"/><polygon fill="#181818" points="986.27,308.6269,977.27,304.6269,981.27,308.6269,977.27,312.6269,986.27,308.6269" style="stroke:#181818;stroke-width:1.0;"/><text fill="#000000" font-family="sans-serif" font-size="13" lengthAdjust="spacing" textLength="188" x="539.98" y="321.6938">OCI state in FAILED, DELETED</text></g><!--link EvaluateReady to ApplyUpdate--><g id="link_EvaluateReady_ApplyUpdate"><path d="M768.02,141.2969 C768.02,141.2969 822.9,141.2969 822.9,141.2969 " fill="none" id="EvaluateReady-to-ApplyUpdate" style="stroke:#181818;stroke-width:1.0;"/><polygon fill="#181818" points="827.9,141.2969,818.9,137.2969,822.9,141.2969,818.9,145.2969,827.9,141.2969" style="stroke:#181818;stroke-width:1.0;"/><text fill="#000000" font-family="sans-serif" font-size="13" lengthAdjust="spacing" textLength="158" x="796.46" y="154.3638">continue active reconcile</text></g><!--link ApplyUpdate to Ready--><g id="link_ApplyUpdate_Ready"><path d="M925.24,129.6269 C925.24,129.6269 979.81,129.6269 979.81,129.6269 " fill="none" id="ApplyUpdate-to-Ready" style="stroke:#181818;stroke-width:1.0;"/><polygon fill="#181818" points="984.81,129.6269,975.81,125.6269,979.81,129.6269,975.81,133.6269,984.81,129.6269" style="stroke:#181818;stroke-width:1.0;"/><text fill="#000000" font-family="sans-serif" font-size="13" lengthAdjust="spacing" textLength="231" x="720.52" y="125.6938">supported mutation path completes</text></g><!--link Ready to Ready--><g id="link_Ready_Ready"><path d="M984.84,142.9669 C966.33,142.9669 945,142.9669 945,142.9669 C945,142.9669 945,161.2969 945,161.2969 C945,161.2969 1058,161.2969 1058,161.2969 C1058,161.2969 1058,142.9669 1058,142.9669 C1058,142.9669 1043.01,142.9669 1043.01,142.9669 " fill="none" id="Ready-to-Ready" style="stroke:#181818;stroke-width:1.0;"/><polygon fill="#181818" points="1038.01,142.9669,1047.01,146.9669,1043.01,142.9669,1047.01,138.9669,1038.01,142.9669" style="stroke:#181818;stroke-width:1.0;"/><text fill="#000000" font-family="sans-serif" font-size="13" lengthAdjust="spacing" textLength="170" x="813.08" y="179.3638">no supported drift remains</text></g><!--link Retryable to Retryable--><g id="link_Retryable_Retryable"><path d="M838.88,239.2969 C835.89,239.2969 834,239.2969 834,239.2969 C834,239.2969 834,257.6269 834,257.6269 C834,257.6269 920,257.6269 920,257.6269 C920,257.6269 920,230.5469 920,230.5469 C920,230.5469 919.31,230.5469 919.31,230.5469 " fill="none" id="Retryable-to-Retryable" style="stroke:#181818;stroke-width:1.0;"/><polygon fill="#181818" points="914.31,230.5469,923.31,234.5469,919.31,230.5469,923.31,226.5469,914.31,230.5469" style="stroke:#181818;stroke-width:1.0;"/><text fill="#000000" font-family="sans-serif" font-size="13" lengthAdjust="spacing" textLength="159" x="714.28" y="275.6938">OCI remains nonterminal</text></g><!--link Failed to Failed--><g id="link_Failed_Failed"><path d="M986.34,321.9669 C975.39,321.9669 965,321.9669 965,321.9669 C965,321.9669 965,341.5469 965,341.5469 C965,341.5469 1078,341.5469 1078,341.5469 C1078,341.5469 1078,315.2969 1078,315.2969 C1078,315.2969 1041.64,315.2969 1041.64,315.2969 " fill="none" id="Failed-to-Failed" style="stroke:#181818;stroke-width:1.0;"/><polygon fill="#181818" points="1036.64,315.2969,1045.64,319.2969,1041.64,315.2969,1045.64,311.2969,1036.64,315.2969" style="stroke:#181818;stroke-width:1.0;"/><text fill="#000000" font-family="sans-serif" font-size="13" lengthAdjust="spacing" textLength="135" x="891.34" y="359.6138">OCI remains terminal</text></g><!--link Ready to DeletePending--><g id="link_Ready_DeletePending"><path d="M1004,156.6369 C1004,185.9969 1004,236.7969 1004,236.7969 C1004,236.7969 1230.85,236.7969 1230.85,236.7969 " fill="none" id="Ready-to-DeletePending" style="stroke:#181818;stroke-width:1.0;"/><polygon fill="#181818" points="1235.85,236.7969,1226.85,232.7969,1230.85,236.7969,1226.85,240.7969,1235.85,236.7969" style="stroke:#181818;stroke-width:1.0;"/><text fill="#000000" font-family="sans-serif" font-size="13" lengthAdjust="spacing" textLength="109" x="1078.34" y="249.8638">delete requested</text></g><!--link Retryable to DeletePending--><g id="link_Retryable_DeletePending"><path d="M914.15,243.0469 C914.15,243.0469 1230.96,243.0469 1230.96,243.0469 " fill="none" id="Retryable-to-DeletePending" style="stroke:#181818;stroke-width:1.0;"/><polygon fill="#181818" points="1235.96,243.0469,1226.96,239.0469,1230.96,243.0469,1226.96,247.0469,1235.96,243.0469" style="stroke:#181818;stroke-width:1.0;"/><text fill="#000000" font-family="sans-serif" font-size="13" lengthAdjust="spacing" textLength="109" x="962.56" y="256.1138">delete requested</text></g><!--link Failed to DeletePending--><g id="link_Failed_DeletePending"><path d="M1020,295.0669 C1020,279.6169 1020,260.9669 1020,260.9669 C1020,260.9669 1230.71,260.9669 1230.71,260.9669 " fill="none" id="Failed-to-DeletePending" style="stroke:#181818;stroke-width:1.0;"/><polygon fill="#181818" points="1235.71,260.9669,1226.71,256.9669,1230.71,260.9669,1226.71,264.9669,1235.71,260.9669" style="stroke:#181818;stroke-width:1.0;"/><text fill="#000000" font-family="sans-serif" font-size="13" lengthAdjust="spacing" textLength="109" x="998.3" y="274.0338">delete requested</text></g><!--link DeletePending to Deleted--><g id="link_DeletePending_Deleted"><path d="M1349.1,235.5469 C1470.09,235.5469 1743,235.5469 1743,235.5469 C1743,235.5469 1743,216.3469 1743,216.3469 " fill="none" id="DeletePending-to-Deleted" style="stroke:#181818;stroke-width:1.0;"/><polygon fill="#181818" points="1743,211.3469,1739,220.3469,1743,216.3469,1747,220.3469,1743,211.3469" style="stroke:#181818;stroke-width:1.0;"/><text fill="#000000" font-family="sans-serif" font-size="13" lengthAdjust="spacing" textLength="373" x="1556.65" y="231.6138">OCI deletion is confirmed and the finalizer can be removed</text></g><!--link Deleted to Deleted--><g id="link_Deleted_Deleted"><path d="M1709.98,196.7969 C1676.44,196.7969 1629,196.7969 1629,196.7969 C1629,196.7969 1629,217.7969 1629,217.7969 C1629,217.7969 1857,217.7969 1857,217.7969 C1857,217.7969 1857,191.2969 1857,191.2969 C1857,191.2969 1780,191.2969 1780,191.2969 " fill="none" id="Deleted-to-Deleted" style="stroke:#181818;stroke-width:1.0;"/><polygon fill="#181818" points="1775,191.2969,1784,195.2969,1780,191.2969,1784,187.2969,1775,191.2969" style="stroke:#181818;stroke-width:1.0;"/><text fill="#000000" font-family="sans-serif" font-size="13" lengthAdjust="spacing" textLength="100" x="1749.76" y="208.8638">terminal stutter</text></g><!--SRC=[XLLDRzD04BtxLup43INGbfRI793oPHIfK1G25yHXinx7IzUxPdUTrA3-TsPtxSP98pMN99wlDs_UZ9rm4c7678DKwXsCgqeApfpG2fR8jUA2xDySSmYV6I-4maHYxi1fC69JECY4GUxzaq9a25XMhe4CBJUY2e_jlL0LCwm4Mx1CxuJQGCwanPv5KbxNL0ZQk4Bt34RNAkFQA3HmVj4pJ1Y_tmJhL4jju5KQFZsF37DMIxV21pUMOgDAL0uyzZwYqDY_162YJOQcpNLvVNNr_eQUfbgvzjbPUdvzCVQUpof_ICVfD7divLNwLDh9vTMxivkJATBqUZuxMV0n-Vdw5mo77-5kRT5iCMc_OGG6MGQsGZu8dTHsG5rBfDf2EMft04nbS3TT4C4vyeRBVRJFk4IhvHOdpHTM-dmnoLkVqKVDe1JMqhoIGqSVEjyoMHDvIuBGKAWl4jaK2iRJrUB7V02BB_7NYVWbEjEmjSJZMAL9Oi_zKqP2p8wTq_7YTZuRm6n-EryHWOUeV9mNTFEzodp024ZGJgWQWP5aYGJJIJpf-qLyiIzRLnM9aagNjOjxKJ5NKAQoyapRP5-hYr6w5vOPGUjYi6H2UUUkxLCaj5wU0uUc58h9f6ty6GUTxvFZ7iSiQE0hgiplsgZJXC4_DLh2T8JYHVSUX1Tz3nts8Hti4E1P5DPF8nUc99kNgIiGSj-9-4lBpfc2jKzSwkrJskmeOTSx2Q9sz2T9mkB5mwJpE91aR7WHhiie6LB2eAni6EOoZFYJTl2sDZdZmIyJUJvSCqjrwcZCZIv1X-q9r4Lf1-XFEWVwiDu93K8bkd_JYQHsScqmwWX7KUWJVmIOQSB5iBxmojEWJKbTbPhWjQjCsPYK3U03bpMTLwZL7akiQnl52wELhebQEWqEXvNH6-hOHY3sJK9p2QMEcJeOMyjs6-H17Pgx_zrOOAVDVKwl3-ywZKFT3tedQ5q-eUk_McfgI8Q9-tdKXjCssz15kydq8l0uYGdYfmVxFm00]--></g></svg>