<?xml version="1.0" encoding="UTF-8" standalone="no"?><svg xmlns="http://www.w3.org/2000/svg" xmlns:xlink="http://www.w3.org/1999/xlink" contentStyleType="text/css" height="1521px" preserveAspectRatio="none" style="width:1891px;height:1521px;background:#FFFFFF;" version="1.1" viewBox="0 0 1891 1521" width="1891px" zoomAndPan="magnify"><defs/><g><text fill="#000000" font-family="sans-serif" font-size="14" font-weight="bold" lengthAdjust="spacing" textLength="367" x="760.5" y="32.9951">OCI Network Security Group Reconcile Activity</text><ellipse cx="726.5" cy="57.2969" fill="#0F766E" rx="10" ry="10" style="stroke:#222222;stroke-width:1.0;"/><rect fill="none" height="362.1406" style="stroke:#000000;stroke-width:1.5;" width="686" x="404" y="77.2969"/><path d="M537,77.2969 L537,86.5938 L527,96.5938 L404,96.5938 " fill="none" style="stroke:#000000;stroke-width:1.5;"/><text fill="#000000" font-family="sans-serif" font-size="14" lengthAdjust="spacing" textLength="123" x="407" y="91.292">Observe and Bind</text><rect fill="#F8FAFC" height="33.9688" rx="12.5" ry="12.5" style="stroke:#475569;stroke-width:0.5;" width="304" x="574.5" y="113.5938"/><text fill="#0F172A" font-family="sans-serif" font-size="12" lengthAdjust="spacing" textLength="284" x="584.5" y="134.7324">Read CR spec, status OCID, and delete intent</text><rect fill="#F8FAFC" height="33.9688" rx="12.5" ry="12.5" style="stroke:#475569;stroke-width:0.5;" width="460" x="496.5" y="167.5625"/><text fill="#0F172A" font-family="sans-serif" font-size="12" lengthAdjust="spacing" textLength="440" x="506.5" y="188.7012">Keep status-bound OCID authoritative for later update or delete paths</text><polygon fill="#E2E8F0" points="626.5,221.5313,826.5,221.5313,838.5,233.5313,826.5,245.5313,626.5,245.5313,614.5,233.5313,626.5,221.5313" style="stroke:#475569;stroke-width:0.5;"/><text fill="#0F172A" font-family="sans-serif" font-size="11" lengthAdjust="spacing" textLength="200" x="626.5" y="237.3394">"Tracked or explicit OCID present?"</text><text fill="#000000" font-family="sans-serif" font-size="11" lengthAdjust="spacing" textLength="20" x="594.5" y="230.937">yes</text><text fill="#000000" font-family="sans-serif" font-size="11" lengthAdjust="spacing" textLength="14" x="838.5" y="230.937">no</text><rect fill="#F8FAFC" height="33.9688" rx="12.5" ry="12.5" style="stroke:#475569;stroke-width:0.5;" width="272" x="424" y="255.5313"/><text fill="#0F172A" font-family="sans-serif" font-size="12" lengthAdjust="spacing" textLength="252" x="434" y="276.6699">Get the OCI resource by known identifier</text><rect fill="#F8FAFC" height="33.9688" rx="12.5" ry="12.5" style="stroke:#475569;stroke-width:0.5;" width="328" x="729" y="255.5313"/><text fill="#0F172A" font-family="sans-serif" font-size="12" lengthAdjust="spacing" textLength="308" x="739" y="276.6699">Resolve an existing OCI resource by display name</text><rect fill="#F8FAFC" height="33.9688" rx="12.5" ry="12.5" style="stroke:#475569;stroke-width:0.5;" width="345" x="720.5" y="309.5"/><text fill="#0F172A" font-family="sans-serif" font-size="12" lengthAdjust="spacing" textLength="325" x="730.5" y="330.6387">Continue list pagination until a match or exhaustion</text><rect fill="#F8FAFC" height="33.9688" rx="12.5" ry="12.5" style="stroke:#475569;stroke-width:0.5;" width="354" x="716" y="363.4688"/><text fill="#0F172A" font-family="sans-serif" font-size="12" lengthAdjust="spacing" textLength="334" x="726" y="384.6074">Persist the resolved or created OCID back into status</text><polygon fill="#E2E8F0" points="726.5,403.4375,738.5,415.4375,726.5,427.4375,714.5,415.4375,726.5,403.4375" style="stroke:#475569;stroke-width:0.5;"/><path d="M1505,843.8711 L1505,1186.793 L1879,1186.793 L1879,853.8711 L1869,843.8711 L1505,843.8711 " fill="#FEFFDD" style="stroke:#181818;stroke-width:0.5;"/><path d="M1869,843.8711 L1869,853.8711 L1879,853.8711 L1869,843.8711 " fill="#FEFFDD" style="stroke:#181818;stroke-width:0.5;"/><text fill="#000000" font-family="sans-serif" font-size="13" lengthAdjust="spacing" textLength="69" x="1511" y="860.938">Archetype:</text><text fill="#000000" font-family="sans-serif" font-size="13" lengthAdjust="spacing" textLength="207" x="1511" y="876.0708">- resolved-drift-delete-paginated</text><text fill="#000000" font-family="sans-serif" font-size="13" lengthAdjust="spacing" textLength="134" x="1511" y="891.2036">Retryable OCI states:</text><text fill="#000000" font-family="sans-serif" font-size="13" lengthAdjust="spacing" textLength="102" x="1511" y="906.3364">- PROVISIONING</text><text fill="#000000" font-family="sans-serif" font-size="13" lengthAdjust="spacing" textLength="76" x="1511" y="921.4692">- UPDATING</text><text fill="#000000" font-family="sans-serif" font-size="13" lengthAdjust="spacing" textLength="113" x="1511" y="936.6021">Active OCI states:</text><text fill="#000000" font-family="sans-serif" font-size="13" lengthAdjust="spacing" textLength="79" x="1511" y="951.7349">- AVAILABLE</text><text fill="#000000" font-family="sans-serif" font-size="13" lengthAdjust="spacing" textLength="111" x="1511" y="966.8677">Failed OCI states:</text><text fill="#000000" font-family="sans-serif" font-size="13" lengthAdjust="spacing" textLength="53" x="1511" y="982.0005">- FAILED</text><text fill="#000000" font-family="sans-serif" font-size="13" lengthAdjust="spacing" textLength="67" x="1511" y="997.1333">- DELETED</text><text fill="#000000" font-family="sans-serif" font-size="13" lengthAdjust="spacing" textLength="102" x="1511" y="1012.2661">Update surface:</text><text fill="#000000" font-family="sans-serif" font-size="13" lengthAdjust="spacing" textLength="94" x="1511" y="1027.3989">- display name</text><text fill="#000000" font-family="sans-serif" font-size="13" lengthAdjust="spacing" textLength="96" x="1511" y="1042.5317">- freeform tags</text><text fill="#000000" font-family="sans-serif" font-size="13" lengthAdjust="spacing" textLength="88" x="1511" y="1057.6646">- defined tags</text><text fill="#000000" font-family="sans-serif" font-size="13" lengthAdjust="spacing" textLength="139" x="1511" y="1072.7974">Reject before mutate:</text><text fill="#000000" font-family="sans-serif" font-size="13" lengthAdjust="spacing" textLength="71" x="1511" y="1087.9302">- vcnId drift</text><text fill="#000000" font-family="sans-serif" font-size="13" lengthAdjust="spacing" textLength="105" x="1511" y="1103.063">Boundary notes:</text><text fill="#000000" font-family="sans-serif" font-size="13" lengthAdjust="spacing" textLength="353" x="1511" y="1118.1958">- The current formal notes remain lifecycle-centric even</text><text fill="#000000" font-family="sans-serif" font-size="13" lengthAdjust="spacing" textLength="332" x="1527" y="1133.3286">though the implementation now reconciles tags and</text><text fill="#000000" font-family="sans-serif" font-size="13" lengthAdjust="spacing" textLength="139" x="1527" y="1148.4614">compartment moves.</text><text fill="#000000" font-family="sans-serif" font-size="13" lengthAdjust="spacing" textLength="166" x="1511" y="1163.5942">Controller-local invariants:</text><text fill="#000000" font-family="sans-serif" font-size="13" lengthAdjust="spacing" textLength="229" x="1511" y="1178.7271">- StatusPresentUsesStatusInvariant</text><polygon fill="#E2E8F0" points="669.5,459.4375,783.5,459.4375,795.5,471.4375,783.5,483.4375,669.5,483.4375,657.5,471.4375,669.5,459.4375" style="stroke:#475569;stroke-width:0.5;"/><text fill="#0F172A" font-family="sans-serif" font-size="11" lengthAdjust="spacing" textLength="114" x="669.5" y="475.2456">"Delete requested?"</text><text fill="#000000" font-family="sans-serif" font-size="11" lengthAdjust="spacing" textLength="20" x="637.5" y="468.8433">yes</text><text fill="#000000" font-family="sans-serif" font-size="11" lengthAdjust="spacing" textLength="14" x="795.5" y="468.8433">no</text><rect fill="none" height="220.2031" style="stroke:#000000;stroke-width:1.5;" width="679" x="11" y="493.4375"/><path d="M67,493.4375 L67,502.7344 L57,512.7344 L11,512.7344 " fill="none" style="stroke:#000000;stroke-width:1.5;"/><text fill="#000000" font-family="sans-serif" font-size="14" lengthAdjust="spacing" textLength="46" x="14" y="507.4326">Delete</text><rect fill="#F8FAFC" height="33.9688" rx="12.5" ry="12.5" style="stroke:#475569;stroke-width:0.5;" width="327" x="187" y="529.7344"/><text fill="#0F172A" font-family="sans-serif" font-size="12" lengthAdjust="spacing" textLength="307" x="197" y="550.873">Submit OCI delete for OCI Network Security Group</text><rect fill="#F8FAFC" height="33.9688" rx="12.5" ry="12.5" style="stroke:#475569;stroke-width:0.5;" width="659" x="21" y="598.7031"/><text fill="#0F172A" font-family="sans-serif" font-size="12" lengthAdjust="spacing" textLength="639" x="31" y="619.8418">Confirm deletion with follow-up GetNetworkSecurityGroup calls until the resource is gone or not found.</text><rect fill="#F8FAFC" height="33.9688" rx="12.5" ry="12.5" style="stroke:#475569;stroke-width:0.5;" width="338" x="181.5" y="667.6719"/><text fill="#0F172A" font-family="sans-serif" font-size="12" lengthAdjust="spacing" textLength="318" x="191.5" y="688.8105">Remove the finalizer after OCI deletion is confirmed</text><ellipse cx="350.5" cy="759.6406" fill="none" rx="11" ry="11" style="stroke:#222222;stroke-width:1.0;"/><ellipse cx="350.5" cy="759.6406" fill="#222222" rx="6" ry="6" style="stroke:#111111;stroke-width:1.0;"/><rect fill="none" height="416.3594" style="stroke:#000000;stroke-width:1.5;" width="376" x="920.5" y="493.4375"/><path d="M1081.5,493.4375 L1081.5,502.7344 L1071.5,512.7344 L920.5,512.7344 " fill="none" style="stroke:#000000;stroke-width:1.5;"/><text fill="#000000" font-family="sans-serif" font-size="14" lengthAdjust="spacing" textLength="151" x="923.5" y="507.4326">Lifecycle Classification</text><rect fill="#F8FAFC" height="33.9688" rx="12.5" ry="12.5" style="stroke:#475569;stroke-width:0.5;" width="268" x="968.5" y="578.1367"/><text fill="#0F172A" font-family="sans-serif" font-size="12" lengthAdjust="spacing" textLength="248" x="978.5" y="599.2754">Request requeue and keep the finalizer</text><ellipse cx="1102.5" cy="658.1055" fill="none" rx="11" ry="11" style="stroke:#222222;stroke-width:1.0;"/><ellipse cx="1102.5" cy="658.1055" fill="#222222" rx="6" ry="6" style="stroke:#111111;stroke-width:1.0;"/><polygon fill="#E2E8F0" points="1022.5,529.7344,1182.5,529.7344,1194.5,541.7344,1182.5,553.7344,1022.5,553.7344,1010.5,541.7344,1022.5,529.7344" style="stroke:#475569;stroke-width:0.5;"/><text fill="#000000" font-family="sans-serif" font-size="11" lengthAdjust="spacing" textLength="20" x="1106.5" y="563.9448">yes</text><text fill="#0F172A" font-family="sans-serif" font-size="11" lengthAdjust="spacing" textLength="160" x="1022.5" y="545.5425">"OCI state in retryable set?"</text><rect fill="#F8FAFC" height="33.9688" rx="12.5" ry="12.5" style="stroke:#475569;stroke-width:0.5;" width="324" x="940.5" y="774.9102"/><text fill="#0F172A" font-family="sans-serif" font-size="12" lengthAdjust="spacing" textLength="304" x="950.5" y="796.0488">Return an unsuccessful terminal reconcile result</text><ellipse cx="1102.5" cy="848.3945" fill="none" rx="11" ry="11" style="stroke:#222222;stroke-width:1.0;"/><ellipse cx="1102.5" cy="848.3945" fill="#222222" rx="6" ry="6" style="stroke:#111111;stroke-width:1.0;"/><polygon fill="#E2E8F0" points="1032.5,726.5078,1172.5,726.5078,1184.5,738.5078,1172.5,750.5078,1032.5,750.5078,1020.5,738.5078,1032.5,726.5078" style="stroke:#475569;stroke-width:0.5;"/><text fill="#000000" font-family="sans-serif" font-size="11" lengthAdjust="spacing" textLength="20" x="1106.5" y="760.7183">yes</text><text fill="#0F172A" font-family="sans-serif" font-size="11" lengthAdjust="spacing" textLength="140" x="1032.5" y="742.3159">"OCI state in failed set?"</text><rect fill="none" height="558.5117" style="stroke:#000000;stroke-width:1.5;" width="785" x="710" y="944.7969"/><path d="M889,944.7969 L889,954.0938 L879,964.0938 L710,964.0938 " fill="none" style="stroke:#000000;stroke-width:1.5;"/><text fill="#000000" font-family="sans-serif" font-size="14" lengthAdjust="spacing" textLength="169" x="713" y="958.792">Ready and Drift Handling</text><rect fill="#F8FAFC" height="33.9688" rx="12.5" ry="12.5" style="stroke:#475569;stroke-width:0.5;" width="364" x="920.5" y="981.0938"/><text fill="#0F172A" font-family="sans-serif" font-size="12" lengthAdjust="spacing" textLength="344" x="930.5" y="1002.2324">Compare live OCI state with the supported drift surface</text><rect fill="#F8FAFC" height="33.9688" rx="12.5" ry="12.5" style="stroke:#475569;stroke-width:0.5;" width="290" x="957.5" y="1098.4648"/><text fill="#0F172A" font-family="sans-serif" font-size="12" lengthAdjust="spacing" textLength="270" x="967.5" y="1119.6035">Reject the change before any OCI mutation</text><ellipse cx="1102.5" cy="1178.4336" fill="none" rx="11" ry="11" style="stroke:#222222;stroke-width:1.0;"/><ellipse cx="1102.5" cy="1178.4336" fill="#222222" rx="6" ry="6" style="stroke:#111111;stroke-width:1.0;"/><polygon fill="#E2E8F0" points="978,1050.0625,1227,1050.0625,1239,1062.0625,1227,1074.0625,978,1074.0625,966,1062.0625,978,1050.0625" style="stroke:#475569;stroke-width:0.5;"/><text fill="#000000" font-family="sans-serif" font-size="11" lengthAdjust="spacing" textLength="20" x="1106.5" y="1084.2729">yes</text><text fill="#0F172A" font-family="sans-serif" font-size="11" lengthAdjust="spacing" textLength="249" x="978" y="1065.8706">"Unsupported or immutable drift detected?"</text><rect fill="#F8FAFC" height="33.9688" rx="12.5" ry="12.5" style="stroke:#475569;stroke-width:0.5;" width="453" x="876" y="1231.4336"/><text fill="#0F172A" font-family="sans-serif" font-size="12" lengthAdjust="spacing" textLength="433" x="886" y="1252.5723">Reuse the tracked OCID from status or spec before any fresh lookup.</text><rect fill="#F8FAFC" height="33.9688" rx="12.5" ry="12.5" style="stroke:#475569;stroke-width:0.5;" width="765" x="720" y="1285.4023"/><text fill="#0F172A" font-family="sans-serif" font-size="12" lengthAdjust="spacing" textLength="745" x="730" y="1306.541">Move the Network Security Group compartment before calling the mutable update path when compartment drift exists.</text><polygon fill="#E2E8F0" points="1025,1339.3711,1180,1339.3711,1192,1351.3711,1180,1363.3711,1025,1363.3711,1013,1351.3711,1025,1339.3711" style="stroke:#475569;stroke-width:0.5;"/><text fill="#0F172A" font-family="sans-serif" font-size="11" lengthAdjust="spacing" textLength="155" x="1025" y="1355.1792">"Supported drift detected?"</text><text fill="#000000" font-family="sans-serif" font-size="11" lengthAdjust="spacing" textLength="20" x="993" y="1348.7769">yes</text><text fill="#000000" font-family="sans-serif" font-size="11" lengthAdjust="spacing" textLength="14" x="1192" y="1348.7769">no</text><rect fill="#F8FAFC" height="33.9688" rx="12.5" ry="12.5" style="stroke:#475569;stroke-width:0.5;" width="329" x="794.75" y="1373.3711"/><text fill="#0F172A" font-family="sans-serif" font-size="12" lengthAdjust="spacing" textLength="309" x="804.75" y="1394.5098">Apply only the supported in-place update surface</text><rect fill="#F8FAFC" height="33.9688" rx="12.5" ry="12.5" style="stroke:#475569;stroke-width:0.5;" width="204" x="1143.75" y="1373.3711"/><text fill="#0F172A" font-family="sans-serif" font-size="12" lengthAdjust="spacing" textLength="184" x="1153.75" y="1394.5098">Skip the no-op mutation path</text><polygon fill="#E2E8F0" points="1102.5,1413.3398,1114.5,1425.3398,1102.5,1437.3398,1090.5,1425.3398,1102.5,1413.3398" style="stroke:#475569;stroke-width:0.5;"/><rect fill="#F8FAFC" height="33.9688" rx="12.5" ry="12.5" style="stroke:#475569;stroke-width:0.5;" width="287" x="959" y="1457.3398"/><text fill="#0F172A" font-family="sans-serif" font-size="12" lengthAdjust="spacing" textLength="267" x="969" y="1478.4785">Return success for the usable active state</text><line style="stroke:#334155;stroke-width:1.0;" x1="726.5" x2="726.5" y1="147.5625" y2="167.5625"/><polygon fill="#334155" points="722.5,157.5625,726.5,167.5625,730.5,157.5625,726.5,161.5625" style="stroke:#334155;stroke-width:1.0;"/><line style="stroke:#334155;stroke-width:1.0;" x1="893" x2="893" y1="289.5" y2="309.5"/><polygon fill="#334155" points="889,299.5,893,309.5,897,299.5,893,303.5" style="stroke:#334155;stroke-width:1.0;"/><line style="stroke:#334155;stroke-width:1.0;" x1="893" x2="893" y1="343.4688" y2="363.4688"/><polygon fill="#334155" points="889,353.4688,893,363.4688,897,353.4688,893,357.4688" style="stroke:#334155;stroke-width:1.0;"/><line style="stroke:#334155;stroke-width:1.0;" x1="614.5" x2="560" y1="233.5313" y2="233.5313"/><line style="stroke:#334155;stroke-width:1.0;" x1="560" x2="560" y1="233.5313" y2="255.5313"/><polygon fill="#334155" points="556,245.5313,560,255.5313,564,245.5313,560,249.5313" style="stroke:#334155;stroke-width:1.0;"/><line style="stroke:#334155;stroke-width:1.0;" x1="838.5" x2="893" y1="233.5313" y2="233.5313"/><line style="stroke:#334155;stroke-width:1.0;" x1="893" x2="893" y1="233.5313" y2="255.5313"/><polygon fill="#334155" points="889,245.5313,893,255.5313,897,245.5313,893,249.5313" style="stroke:#334155;stroke-width:1.0;"/><line style="stroke:#334155;stroke-width:1.0;" x1="560" x2="560" y1="289.5" y2="415.4375"/><line style="stroke:#334155;stroke-width:1.0;" x1="560" x2="714.5" y1="415.4375" y2="415.4375"/><polygon fill="#334155" points="704.5,411.4375,714.5,415.4375,704.5,419.4375,708.5,415.4375" style="stroke:#334155;stroke-width:1.0;"/><line style="stroke:#334155;stroke-width:1.0;" x1="893" x2="893" y1="397.4375" y2="415.4375"/><line style="stroke:#334155;stroke-width:1.0;" x1="893" x2="738.5" y1="415.4375" y2="415.4375"/><polygon fill="#334155" points="748.5,411.4375,738.5,415.4375,748.5,419.4375,744.5,415.4375" style="stroke:#334155;stroke-width:1.0;"/><line style="stroke:#334155;stroke-width:1.0;" x1="726.5" x2="726.5" y1="201.5313" y2="221.5313"/><polygon fill="#334155" points="722.5,211.5313,726.5,221.5313,730.5,211.5313,726.5,215.5313" style="stroke:#334155;stroke-width:1.0;"/><line style="stroke:#334155;stroke-width:1.0;" x1="726.5" x2="726.5" y1="67.2969" y2="113.5938"/><polygon fill="#334155" points="722.5,103.5938,726.5,113.5938,730.5,103.5938,726.5,107.5938" style="stroke:#334155;stroke-width:1.0;"/><line style="stroke:#334155;stroke-width:1.0;" x1="350.5" x2="350.5" y1="563.7031" y2="598.7031"/><polygon fill="#334155" points="346.5,588.7031,350.5,598.7031,354.5,588.7031,350.5,592.7031" style="stroke:#334155;stroke-width:1.0;"/><line style="stroke:#334155;stroke-width:1.0;" x1="350.5" x2="350.5" y1="632.6719" y2="667.6719"/><polygon fill="#334155" points="346.5,657.6719,350.5,667.6719,354.5,657.6719,350.5,661.6719" style="stroke:#334155;stroke-width:1.0;"/><line style="stroke:#334155;stroke-width:1.0;" x1="350.5" x2="350.5" y1="701.6406" y2="748.6406"/><polygon fill="#334155" points="346.5,738.6406,350.5,748.6406,354.5,738.6406,350.5,742.6406" style="stroke:#334155;stroke-width:1.0;"/><line style="stroke:#334155;stroke-width:1.0;" x1="1102.5" x2="1102.5" y1="612.1055" y2="647.1055"/><polygon fill="#334155" points="1098.5,637.1055,1102.5,647.1055,1106.5,637.1055,1102.5,641.1055" style="stroke:#334155;stroke-width:1.0;"/><line style="stroke:#334155;stroke-width:1.0;" x1="1102.5" x2="1102.5" y1="553.7344" y2="578.1367"/><polygon fill="#334155" points="1098.5,568.1367,1102.5,578.1367,1106.5,568.1367,1102.5,572.1367" style="stroke:#334155;stroke-width:1.0;"/><line style="stroke:#334155;stroke-width:1.0;" x1="1194.5" x2="1246.5" y1="541.7344" y2="541.7344"/><polygon fill="#334155" points="1242.5,610.6211,1246.5,620.6211,1250.5,610.6211,1246.5,614.6211" style="stroke:#334155;stroke-width:1.0;"/><line style="stroke:#334155;stroke-width:1.0;" x1="1246.5" x2="1246.5" y1="541.7344" y2="699.5078"/><line style="stroke:#334155;stroke-width:1.0;" x1="1246.5" x2="1102.5" y1="699.5078" y2="699.5078"/><line style="stroke:#334155;stroke-width:1.0;" x1="1102.5" x2="1102.5" y1="699.5078" y2="726.5078"/><polygon fill="#334155" points="1098.5,716.5078,1102.5,726.5078,1106.5,716.5078,1102.5,720.5078" style="stroke:#334155;stroke-width:1.0;"/><line style="stroke:#334155;stroke-width:1.0;" x1="1102.5" x2="1102.5" y1="808.8789" y2="837.3945"/><polygon fill="#334155" points="1098.5,827.3945,1102.5,837.3945,1106.5,827.3945,1102.5,831.3945" style="stroke:#334155;stroke-width:1.0;"/><line style="stroke:#334155;stroke-width:1.0;" x1="1102.5" x2="1102.5" y1="750.5078" y2="774.9102"/><polygon fill="#334155" points="1098.5,764.9102,1102.5,774.9102,1106.5,764.9102,1102.5,768.9102" style="stroke:#334155;stroke-width:1.0;"/><line style="stroke:#334155;stroke-width:1.0;" x1="1184.5" x2="1274.5" y1="738.5078" y2="738.5078"/><polygon fill="#334155" points="1270.5,807.3945,1274.5,817.3945,1278.5,807.3945,1274.5,811.3945" style="stroke:#334155;stroke-width:1.0;"/><line style="stroke:#334155;stroke-width:1.0;" x1="1274.5" x2="1274.5" y1="738.5078" y2="889.7969"/><line style="stroke:#334155;stroke-width:1.0;" x1="1274.5" x2="1102.5" y1="889.7969" y2="889.7969"/><line style="stroke:#334155;stroke-width:1.0;" x1="1102.5" x2="1102.5" y1="889.7969" y2="981.0938"/><polygon fill="#334155" points="1098.5,971.0938,1102.5,981.0938,1106.5,971.0938,1102.5,975.0938" style="stroke:#334155;stroke-width:1.0;"/><line style="stroke:#334155;stroke-width:1.0;" x1="1102.5" x2="1102.5" y1="1132.4336" y2="1167.4336"/><polygon fill="#334155" points="1098.5,1157.4336,1102.5,1167.4336,1106.5,1157.4336,1102.5,1161.4336" style="stroke:#334155;stroke-width:1.0;"/><line style="stroke:#334155;stroke-width:1.0;" x1="1102.5" x2="1102.5" y1="1074.0625" y2="1098.4648"/><polygon fill="#334155" points="1098.5,1088.4648,1102.5,1098.4648,1106.5,1088.4648,1102.5,1092.4648" style="stroke:#334155;stroke-width:1.0;"/><line style="stroke:#334155;stroke-width:1.0;" x1="1239" x2="1257.5" y1="1062.0625" y2="1062.0625"/><polygon fill="#334155" points="1253.5,1130.9492,1257.5,1140.9492,1261.5,1130.9492,1257.5,1134.9492" style="stroke:#334155;stroke-width:1.0;"/><line style="stroke:#334155;stroke-width:1.0;" x1="1257.5" x2="1257.5" y1="1062.0625" y2="1211.4336"/><line style="stroke:#334155;stroke-width:1.0;" x1="1257.5" x2="1102.5" y1="1211.4336" y2="1211.4336"/><line style="stroke:#334155;stroke-width:1.0;" x1="1102.5" x2="1102.5" y1="1211.4336" y2="1231.4336"/><polygon fill="#334155" points="1098.5,1221.4336,1102.5,1231.4336,1106.5,1221.4336,1102.5,1225.4336" style="stroke:#334155;stroke-width:1.0;"/><line style="stroke:#334155;stroke-width:1.0;" x1="1102.5" x2="1102.5" y1="1015.0625" y2="1050.0625"/><polygon fill="#334155" points="1098.5,1040.0625,1102.5,1050.0625,1106.5,1040.0625,1102.5,1044.0625" style="stroke:#334155;stroke-width:1.0;"/><line style="stroke:#334155;stroke-width:1.0;" x1="1102.5" x2="1102.5" y1="1265.4023" y2="1285.4023"/><polygon fill="#334155" points="1098.5,1275.4023,1102.5,1285.4023,1106.5,1275.4023,1102.5,1279.4023" style="stroke:#334155;stroke-width:1.0;"/><line style="stroke:#334155;stroke-width:1.0;" x1="1013" x2="959.25" y1="1351.3711" y2="1351.3711"/><line style="stroke:#334155;stroke-width:1.0;" x1="959.25" x2="959.25" y1="1351.3711" y2="1373.3711"/><polygon fill="#334155" points="955.25,1363.3711,959.25,1373.3711,963.25,1363.3711,959.25,1367.3711" style="stroke:#334155;stroke-width:1.0;"/><line style="stroke:#334155;stroke-width:1.0;" x1="1192" x2="1245.75" y1="1351.3711" y2="1351.3711"/><line style="stroke:#334155;stroke-width:1.0;" x1="1245.75" x2="1245.75" y1="1351.3711" y2="1373.3711"/><polygon fill="#334155" points="1241.75,1363.3711,1245.75,1373.3711,1249.75,1363.3711,1245.75,1367.3711" style="stroke:#334155;stroke-width:1.0;"/><line style="stroke:#334155;stroke-width:1.0;" x1="959.25" x2="959.25" y1="1407.3398" y2="1425.3398"/><line style="stroke:#334155;stroke-width:1.0;" x1="959.25" x2="1090.5" y1="1425.3398" y2="1425.3398"/><polygon fill="#334155" points="1080.5,1421.3398,1090.5,1425.3398,1080.5,1429.3398,1084.5,1425.3398" style="stroke:#334155;stroke-width:1.0;"/><line style="stroke:#334155;stroke-width:1.0;" x1="1245.75" x2="1245.75" y1="1407.3398" y2="1425.3398"/><line style="stroke:#334155;stroke-width:1.0;" x1="1245.75" x2="1114.5" y1="1425.3398" y2="1425.3398"/><polygon fill="#334155" points="1124.5,1421.3398,1114.5,1425.3398,1124.5,1429.3398,1120.5,1425.3398" style="stroke:#334155;stroke-width:1.0;"/><line style="stroke:#334155;stroke-width:1.0;" x1="1102.5" x2="1102.5" y1="1319.3711" y2="1339.3711"/><polygon fill="#334155" points="1098.5,1329.3711,1102.5,1339.3711,1106.5,1329.3711,1102.5,1333.3711" style="stroke:#334155;stroke-width:1.0;"/><line style="stroke:#334155;stroke-width:1.0;" x1="1102.5" x2="1102.5" y1="1437.3398" y2="1457.3398"/><polygon fill="#334155" points="1098.5,1447.3398,1102.5,1457.3398,1106.5,1447.3398,1102.5,1451.3398" style="stroke:#334155;stroke-width:1.0;"/><line style="stroke:#334155;stroke-width:1.0;" x1="657.5" x2="350.5" y1="471.4375" y2="471.4375"/><line style="stroke:#334155;stroke-width:1.0;" x1="350.5" x2="350.5" y1="471.4375" y2="529.7344"/><polygon fill="#334155" points="346.5,519.7344,350.5,529.7344,354.5,519.7344,350.5,523.7344" style="stroke:#334155;stroke-width:1.0;"/><line style="stroke:#334155;stroke-width:1.0;" x1="795.5" x2="1102.5" y1="471.4375" y2="471.4375"/><line style="stroke:#334155;stroke-width:1.0;" x1="1102.5" x2="1102.5" y1="471.4375" y2="529.7344"/><polygon fill="#334155" points="1098.5,519.7344,1102.5,529.7344,1106.5,519.7344,1102.5,523.7344" style="stroke:#334155;stroke-width:1.0;"/><line style="stroke:#334155;stroke-width:1.0;" x1="1102.5" x2="1102.5" y1="1491.3086" y2="1509.3086"/><line style="stroke:#334155;stroke-width:1.0;" x1="1102.5" x2="726.5" y1="1509.3086" y2="1509.3086"/><line style="stroke:#334155;stroke-width:1.0;" x1="726.5" x2="726.5" y1="427.4375" y2="459.4375"/><polygon fill="#334155" points="722.5,449.4375,726.5,459.4375,730.5,449.4375,726.5,453.4375" style="stroke:#334155;stroke-width:1.0;"/><!--SRC=[VLNRKXiv47sVhr2nBwGgfa8I81iUjWPVigwmGDcGTrdJOskjaMPriUFTohzljwGnus125Q2HkblTfqyVUUaLiFlXbDs1tngxPdCGmKg_Or-i2IsRWJ1QI3GgXPSRF2ZSMkgMMzumj-ALsKgzP3LN3dedDroibnX0LqEZZ6M_JU9FpwAqrcppuOSF7yylBdg75TGyAFy8ttsfv58te3rJKFkU3S_viFyATkI-JvDoCgGJOokmUVVZrSN5vU-uEp7Qvxrta_EhzoNkZIHlZAvUX1g_7t-QlEiP78quzzm-Xxowl1pZvdWVv6foFZeV5JyAHtP5WJLuwQNHxEH-uS1kW75TiHkfgvDOqUSPy8eDPyor8DuoTFF1KQT6RwDb1GeyCAazOdDD3by1scmtM53-qPhnu5S6EyeHBc0r9gEu1yj2M-5_XjyvLClzob4aMRFJaqUBE415v_2zLL98d-Ar5XnU-SV96-PNeDdf3jmRzC8Cle2dlSWdj3B12c2B7LjhizLCLkWcQmcMBW4a33lL9hlEq5n54F0wwJoHwkSmbNIjuZkcUGFNoMs8VPGw05FeWnKifUOHrO3xYd7MS2zMgOWL3uxEiki3M4TEbB1DjyTgXGN49OEtG108OvE1ZPdhIjROoIBYD4hWMVWdW4E_5xZqEfriKtynWtbOD0dLhWNKdTU7yRdcMjec-L3ShVGhT5NAR0SuijY5xD-vfr4MN2cNWUcAZj1AnvP6Hofeup4ISkVikkjBOx0jP5yZjah-YzJXDH5edpVbW354oWigSls1lywRjkZtkGV5hQn1x0Jgob1nvv0M8ZQk0oTYIpSGxaHpJDVR7L-WXuDZx8l9nYQaPeGqKMkQYeFqhxDvJ8yMgQ77RwqvQb_rgojzi9fe6xGBGe1pTK1ymJPq7wRIwIV2ZPBswkN8fmE0QFntiOAHbRLdV-9IuLJisJCq3PeJypTfubBEaGnKhmjjQomnkOe1NB0r5tbmOg5F-ja6Uo-R9lW8S7Aea97Y6ADpuN_ZQRn9hBXUueG2qfT0tyLqADZpk1s56uC4byZbizp4gQkjQJh5myH80VlHQuHonPGnwz1sFFshO-ahxvY8QFduaEHGD0yaC-JLLPv5aQIGRQdclb-29SgJE-lXEFy9wLy3LxQjsZ6ZySzXcwGUeBo9VH873JkKInAFjKoyrcPWsZtQCVNhbpX7bcQ2HfaXr-1YqV4bXSIVDBl9jQYLuL69KHQGm7AvyaLfnGhyheNFnM2lcuDO-22fs23BC5J5R3-pUu8wydkOtN-RpgVtTzExB_Zvz30g7sbPfamEZSjlvVIslBaT5vCqZ8V74pmTZt0n6j-E7t7rT00VcVGV3ln4_X036kRvqj4ne3PWtFYPUPqv4c6DCJP2JtE3YnjII6vt4PUOn2EDGR2MQ4AXSVBZ6IBKS9GHrSdTGA29bOB11dHi3hxEOPb6LZQj0g9QQYM-ci_wuM9w90ZHgyzBKcXtLj1RQF4L03jG1icDXDfmAxdsCSLvdAU7z7e_EN1fOzePKTDZqiN_]--></g></svg>