<?xml version="1.0" encoding="UTF-8" standalone="no"?><svg xmlns="http://www.w3.org/2000/svg" xmlns:xlink="http://www.w3.org/1999/xlink" contentStyleType="text/css" height="1349px" preserveAspectRatio="none" style="width:1346px;height:1349px;background:#FFFFFF;" version="1.1" viewBox="0 0 1346 1349" width="1346px" zoomAndPan="magnify"><defs/><g><text fill="#000000" font-family="sans-serif" font-size="14" font-weight="bold" lengthAdjust="spacing" textLength="388" x="480.75" y="27.9951">OCI Network Security Group Reconcile Sequence</text><rect fill="none" height="314.9375" style="stroke:#475569;stroke-width:1.5;" width="1072" x="268.5" y="193.8594"/><rect fill="none" height="283.8047" style="stroke:#475569;stroke-width:1.5;" width="1052" x="278.5" y="217.9922"/><rect fill="none" height="46.2656" style="stroke:#475569;stroke-width:1.5;" width="910" x="288.5" y="315.1953"/><rect fill="none" height="119.3359" style="stroke:#475569;stroke-width:1.5;" width="1032" x="288.5" y="375.4609"/><rect fill="none" height="588.2031" style="stroke:#475569;stroke-width:1.5;" width="1320.5" x="10" y="522.7969"/><rect fill="none" height="104.5313" style="stroke:#475569;stroke-width:1.5;" width="1032" x="288.5" y="546.9297"/><rect fill="none" height="306.7266" style="stroke:#475569;stroke-width:1.5;" width="1199" x="20" y="768.1406"/><rect fill="none" height="46.2656" style="stroke:#475569;stroke-width:1.5;" width="406.5" x="30" y="903.0703"/><rect fill="none" height="46.2656" style="stroke:#475569;stroke-width:1.5;" width="910" x="288.5" y="1021.6016"/><line style="stroke:#94A3B8;stroke-width:0.5;stroke-dasharray:5.0,5.0;" x1="76" x2="76" y1="118.5938" y2="1269.0625"/><line style="stroke:#94A3B8;stroke-width:0.5;stroke-dasharray:5.0,5.0;" x1="362.5" x2="362.5" y1="118.5938" y2="1269.0625"/><line style="stroke:#94A3B8;stroke-width:0.5;stroke-dasharray:5.0,5.0;" x1="1170.5" x2="1170.5" y1="118.5938" y2="1269.0625"/><line style="stroke:#94A3B8;stroke-width:0.5;stroke-dasharray:5.0,5.0;" x1="1254.5" x2="1254.5" y1="118.5938" y2="1269.0625"/><text fill="#000000" font-family="sans-serif" font-size="14" lengthAdjust="spacing" textLength="67" x="40" y="115.292">Controller</text><ellipse cx="76.5" cy="50.7969" fill="#E0F2FE" rx="8" ry="8" style="stroke:#0F766E;stroke-width:0.5;"/><path d="M76.5,58.7969 L76.5,85.7969 M63.5,66.7969 L89.5,66.7969 M76.5,85.7969 L63.5,100.7969 M76.5,85.7969 L89.5,100.7969 " fill="none" style="stroke:#0F766E;stroke-width:0.5;"/><text fill="#000000" font-family="sans-serif" font-size="14" lengthAdjust="spacing" textLength="67" x="40" y="1281.0576">Controller</text><ellipse cx="76.5" cy="1292.8594" fill="#E0F2FE" rx="8" ry="8" style="stroke:#0F766E;stroke-width:0.5;"/><path d="M76.5,1300.8594 L76.5,1327.8594 M63.5,1308.8594 L89.5,1308.8594 M76.5,1327.8594 L63.5,1342.8594 M76.5,1327.8594 L89.5,1342.8594 " fill="none" style="stroke:#0F766E;stroke-width:0.5;"/><rect fill="#F8FAFC" height="30.2969" rx="2.5" ry="2.5" style="stroke:#475569;stroke-width:0.5;" width="128" x="298.5" y="87.2969"/><text fill="#000000" font-family="sans-serif" font-size="14" lengthAdjust="spacing" textLength="114" x="305.5" y="107.292">Service Manager</text><rect fill="#F8FAFC" height="30.2969" rx="2.5" ry="2.5" style="stroke:#475569;stroke-width:0.5;" width="128" x="298.5" y="1268.0625"/><text fill="#000000" font-family="sans-serif" font-size="14" lengthAdjust="spacing" textLength="114" x="305.5" y="1288.0576">Service Manager</text><text fill="#000000" font-family="sans-serif" font-size="14" lengthAdjust="spacing" textLength="24" x="1155.5" y="115.292">OCI</text><path d="M1152.5,66.2969 C1152.5,56.2969 1170.5,56.2969 1170.5,56.2969 C1170.5,56.2969 1188.5,56.2969 1188.5,66.2969 L1188.5,92.2969 C1188.5,102.2969 1170.5,102.2969 1170.5,102.2969 C1170.5,102.2969 1152.5,102.2969 1152.5,92.2969 L1152.5,66.2969 " fill="#E2E2F0" style="stroke:#181818;stroke-width:1.5;"/><path d="M1152.5,66.2969 C1152.5,76.2969 1170.5,76.2969 1170.5,76.2969 C1170.5,76.2969 1188.5,76.2969 1188.5,66.2969 " fill="none" style="stroke:#181818;stroke-width:1.5;"/><text fill="#000000" font-family="sans-serif" font-size="14" lengthAdjust="spacing" textLength="24" x="1155.5" y="1281.0576">OCI</text><path d="M1152.5,1294.3594 C1152.5,1284.3594 1170.5,1284.3594 1170.5,1284.3594 C1170.5,1284.3594 1188.5,1284.3594 1188.5,1294.3594 L1188.5,1320.3594 C1188.5,1330.3594 1170.5,1330.3594 1170.5,1330.3594 C1170.5,1330.3594 1152.5,1330.3594 1152.5,1320.3594 L1152.5,1294.3594 " fill="#E2E2F0" style="stroke:#181818;stroke-width:1.5;"/><path d="M1152.5,1294.3594 C1152.5,1304.3594 1170.5,1304.3594 1170.5,1304.3594 C1170.5,1304.3594 1188.5,1304.3594 1188.5,1294.3594 " fill="none" style="stroke:#181818;stroke-width:1.5;"/><text fill="#000000" font-family="sans-serif" font-size="14" lengthAdjust="spacing" textLength="106" x="1198.5" y="115.292">Kubernetes API</text><path d="M1236.5,66.2969 C1236.5,56.2969 1254.5,56.2969 1254.5,56.2969 C1254.5,56.2969 1272.5,56.2969 1272.5,66.2969 L1272.5,92.2969 C1272.5,102.2969 1254.5,102.2969 1254.5,102.2969 C1254.5,102.2969 1236.5,102.2969 1236.5,92.2969 L1236.5,66.2969 " fill="#E2E2F0" style="stroke:#181818;stroke-width:1.5;"/><path d="M1236.5,66.2969 C1236.5,76.2969 1254.5,76.2969 1254.5,76.2969 C1254.5,76.2969 1272.5,76.2969 1272.5,66.2969 " fill="none" style="stroke:#181818;stroke-width:1.5;"/><text fill="#000000" font-family="sans-serif" font-size="14" lengthAdjust="spacing" textLength="106" x="1198.5" y="1281.0576">Kubernetes API</text><path d="M1236.5,1294.3594 C1236.5,1284.3594 1254.5,1284.3594 1254.5,1284.3594 C1254.5,1284.3594 1272.5,1284.3594 1272.5,1294.3594 L1272.5,1320.3594 C1272.5,1330.3594 1254.5,1330.3594 1254.5,1330.3594 C1254.5,1330.3594 1236.5,1330.3594 1236.5,1320.3594 L1236.5,1294.3594 " fill="#E2E2F0" style="stroke:#181818;stroke-width:1.5;"/><path d="M1236.5,1294.3594 C1236.5,1304.3594 1254.5,1304.3594 1254.5,1304.3594 C1254.5,1304.3594 1272.5,1304.3594 1272.5,1294.3594 " fill="none" style="stroke:#181818;stroke-width:1.5;"/><polygon fill="#334155" points="350.5,145.7266,360.5,149.7266,350.5,153.7266,354.5,149.7266" style="stroke:#334155;stroke-width:1.0;"/><line style="stroke:#334155;stroke-width:1.0;" x1="76.5" x2="356.5" y1="149.7266" y2="149.7266"/><text fill="#000000" font-family="sans-serif" font-size="13" font-weight="bold" lengthAdjust="spacing" textLength="9" x="83.5" y="144.6606">1</text><text fill="#000000" font-family="sans-serif" font-size="13" lengthAdjust="spacing" textLength="239" x="96.5" y="144.6606">reconcile desired spec and live status</text><polygon fill="#334155" points="1242.5,174.8594,1252.5,178.8594,1242.5,182.8594,1246.5,178.8594" style="stroke:#334155;stroke-width:1.0;"/><line style="stroke:#334155;stroke-width:1.0;" x1="362.5" x2="1248.5" y1="178.8594" y2="178.8594"/><text fill="#000000" font-family="sans-serif" font-size="13" font-weight="bold" lengthAdjust="spacing" textLength="9" x="369.5" y="173.7935">2</text><text fill="#000000" font-family="sans-serif" font-size="13" lengthAdjust="spacing" textLength="212" x="382.5" y="173.7935">read CR status and finalizer state</text><path d="M268.5,193.8594 L438.5,193.8594 L438.5,200.9922 L428.5,210.9922 L268.5,210.9922 L268.5,193.8594 " fill="#F8FAFC" style="stroke:#475569;stroke-width:1.5;"/><rect fill="none" height="314.9375" style="stroke:#475569;stroke-width:1.5;" width="1072" x="268.5" y="193.8594"/><text fill="#000000" font-family="sans-serif" font-size="13" font-weight="bold" lengthAdjust="spacing" textLength="125" x="283.5" y="206.9263">Lookup and bind</text><path d="M278.5,217.9922 L342.5,217.9922 L342.5,225.125 L332.5,235.125 L278.5,235.125 L278.5,217.9922 " fill="#F8FAFC" style="stroke:#475569;stroke-width:1.5;"/><rect fill="none" height="283.8047" style="stroke:#475569;stroke-width:1.5;" width="1052" x="278.5" y="217.9922"/><text fill="#000000" font-family="sans-serif" font-size="13" font-weight="bold" lengthAdjust="spacing" textLength="19" x="293.5" y="231.0591">alt</text><text fill="#000000" font-family="sans-serif" font-size="11" font-weight="bold" lengthAdjust="spacing" textLength="256" x="357.5" y="230.2026">[tracked or explicit OCID already exists]</text><polygon fill="#334155" points="1158.5,252.2578,1168.5,256.2578,1158.5,260.2578,1162.5,256.2578" style="stroke:#334155;stroke-width:1.0;"/><line style="stroke:#334155;stroke-width:1.0;" x1="362.5" x2="1164.5" y1="256.2578" y2="256.2578"/><text fill="#000000" font-family="sans-serif" font-size="13" font-weight="bold" lengthAdjust="spacing" textLength="9" x="369.5" y="251.1919">3</text><text fill="#000000" font-family="sans-serif" font-size="13" lengthAdjust="spacing" textLength="278" x="382.5" y="251.1919">get the current resource by known identifier</text><line style="stroke:#475569;stroke-width:1.0;stroke-dasharray:2.0,2.0;" x1="278.5" x2="1330.5" y1="265.2578" y2="265.2578"/><text fill="#000000" font-family="sans-serif" font-size="11" font-weight="bold" lengthAdjust="spacing" textLength="145" x="283.5" y="275.4683">[no OCID is bound yet]</text><polygon fill="#334155" points="1158.5,296.1953,1168.5,300.1953,1158.5,304.1953,1162.5,300.1953" style="stroke:#334155;stroke-width:1.0;"/><line style="stroke:#334155;stroke-width:1.0;" x1="362.5" x2="1164.5" y1="300.1953" y2="300.1953"/><text fill="#000000" font-family="sans-serif" font-size="13" font-weight="bold" lengthAdjust="spacing" textLength="9" x="369.5" y="295.1294">4</text><text fill="#000000" font-family="sans-serif" font-size="13" lengthAdjust="spacing" textLength="193" x="382.5" y="295.1294">list resources by display name</text><path d="M288.5,315.1953 L365.5,315.1953 L365.5,322.3281 L355.5,332.3281 L288.5,332.3281 L288.5,315.1953 " fill="#F8FAFC" style="stroke:#475569;stroke-width:1.5;"/><rect fill="none" height="46.2656" style="stroke:#475569;stroke-width:1.5;" width="910" x="288.5" y="315.1953"/><text fill="#000000" font-family="sans-serif" font-size="13" font-weight="bold" lengthAdjust="spacing" textLength="32" x="303.5" y="328.2622">loop</text><text fill="#000000" font-family="sans-serif" font-size="11" font-weight="bold" lengthAdjust="spacing" textLength="263" x="380.5" y="327.4058">[later pages until a match or exhaustion]</text><polygon fill="#334155" points="1158.5,349.4609,1168.5,353.4609,1158.5,357.4609,1162.5,353.4609" style="stroke:#334155;stroke-width:1.0;"/><line style="stroke:#334155;stroke-width:1.0;" x1="362.5" x2="1164.5" y1="353.4609" y2="353.4609"/><text fill="#000000" font-family="sans-serif" font-size="13" font-weight="bold" lengthAdjust="spacing" textLength="9" x="369.5" y="348.395">5</text><text fill="#000000" font-family="sans-serif" font-size="13" lengthAdjust="spacing" textLength="147" x="382.5" y="348.395">fetch the next list page</text><path d="M288.5,375.4609 L352.5,375.4609 L352.5,382.5938 L342.5,392.5938 L288.5,392.5938 L288.5,375.4609 " fill="#F8FAFC" style="stroke:#475569;stroke-width:1.5;"/><rect fill="none" height="119.3359" style="stroke:#475569;stroke-width:1.5;" width="1032" x="288.5" y="375.4609"/><text fill="#000000" font-family="sans-serif" font-size="13" font-weight="bold" lengthAdjust="spacing" textLength="19" x="303.5" y="388.5278">alt</text><text fill="#000000" font-family="sans-serif" font-size="11" font-weight="bold" lengthAdjust="spacing" textLength="162" x="367.5" y="387.6714">[existing resource found]</text><polygon fill="#334155" points="1242.5,409.7266,1252.5,413.7266,1242.5,417.7266,1246.5,413.7266" style="stroke:#334155;stroke-width:1.0;"/><line style="stroke:#334155;stroke-width:1.0;" x1="362.5" x2="1248.5" y1="413.7266" y2="413.7266"/><text fill="#000000" font-family="sans-serif" font-size="13" font-weight="bold" lengthAdjust="spacing" textLength="9" x="369.5" y="408.6606">6</text><text fill="#000000" font-family="sans-serif" font-size="13" lengthAdjust="spacing" textLength="221" x="382.5" y="408.6606">persist the resolved OCID in status</text><line style="stroke:#475569;stroke-width:1.0;stroke-dasharray:2.0,2.0;" x1="288.5" x2="1320.5" y1="422.7266" y2="422.7266"/><text fill="#000000" font-family="sans-serif" font-size="11" font-weight="bold" lengthAdjust="spacing" textLength="182" x="293.5" y="432.937">[no existing resource found]</text><polygon fill="#334155" points="1158.5,453.6641,1168.5,457.6641,1158.5,461.6641,1162.5,457.6641" style="stroke:#334155;stroke-width:1.0;"/><line style="stroke:#334155;stroke-width:1.0;" x1="362.5" x2="1164.5" y1="457.6641" y2="457.6641"/><text fill="#000000" font-family="sans-serif" font-size="13" font-weight="bold" lengthAdjust="spacing" textLength="9" x="369.5" y="452.5981">7</text><text fill="#000000" font-family="sans-serif" font-size="13" lengthAdjust="spacing" textLength="152" x="382.5" y="452.5981">create the OCI resource</text><polygon fill="#334155" points="1242.5,482.7969,1252.5,486.7969,1242.5,490.7969,1246.5,486.7969" style="stroke:#334155;stroke-width:1.0;"/><line style="stroke:#334155;stroke-width:1.0;" x1="362.5" x2="1248.5" y1="486.7969" y2="486.7969"/><text fill="#000000" font-family="sans-serif" font-size="13" font-weight="bold" lengthAdjust="spacing" textLength="9" x="369.5" y="481.731">8</text><text fill="#000000" font-family="sans-serif" font-size="13" lengthAdjust="spacing" textLength="216" x="382.5" y="481.731">persist the created OCID in status</text><path d="M10,522.7969 L74,522.7969 L74,529.9297 L64,539.9297 L10,539.9297 L10,522.7969 " fill="#F8FAFC" style="stroke:#475569;stroke-width:1.5;"/><rect fill="none" height="588.2031" style="stroke:#475569;stroke-width:1.5;" width="1320.5" x="10" y="522.7969"/><text fill="#000000" font-family="sans-serif" font-size="13" font-weight="bold" lengthAdjust="spacing" textLength="19" x="25" y="535.8638">alt</text><text fill="#000000" font-family="sans-serif" font-size="11" font-weight="bold" lengthAdjust="spacing" textLength="120" x="89" y="535.0073">[delete requested]</text><path d="M288.5,546.9297 L381.5,546.9297 L381.5,554.0625 L371.5,564.0625 L288.5,564.0625 L288.5,546.9297 " fill="#F8FAFC" style="stroke:#475569;stroke-width:1.5;"/><rect fill="none" height="104.5313" style="stroke:#475569;stroke-width:1.5;" width="1032" x="288.5" y="546.9297"/><text fill="#000000" font-family="sans-serif" font-size="13" font-weight="bold" lengthAdjust="spacing" textLength="48" x="303.5" y="559.9966">Delete</text><polygon fill="#334155" points="1158.5,581.1953,1168.5,585.1953,1158.5,589.1953,1162.5,585.1953" style="stroke:#334155;stroke-width:1.0;"/><line style="stroke:#334155;stroke-width:1.0;" x1="362.5" x2="1164.5" y1="585.1953" y2="585.1953"/><text fill="#000000" font-family="sans-serif" font-size="13" font-weight="bold" lengthAdjust="spacing" textLength="9" x="369.5" y="580.1294">9</text><text fill="#000000" font-family="sans-serif" font-size="13" lengthAdjust="spacing" textLength="114" x="382.5" y="580.1294">submit OCI delete</text><polygon fill="#334155" points="1158.5,610.3281,1168.5,614.3281,1158.5,618.3281,1162.5,614.3281" style="stroke:#334155;stroke-width:1.0;"/><line style="stroke:#334155;stroke-width:1.0;" x1="362.5" x2="1164.5" y1="614.3281" y2="614.3281"/><text fill="#000000" font-family="sans-serif" font-size="13" font-weight="bold" lengthAdjust="spacing" textLength="18" x="369.5" y="609.2622">10</text><text fill="#000000" font-family="sans-serif" font-size="13" lengthAdjust="spacing" textLength="648" x="391.5" y="609.2622">Confirm deletion with follow-up GetNetworkSecurityGroup calls until the resource is gone or not found.</text><polygon fill="#334155" points="1242.5,639.4609,1252.5,643.4609,1242.5,647.4609,1246.5,643.4609" style="stroke:#334155;stroke-width:1.0;"/><line style="stroke:#334155;stroke-width:1.0;" x1="362.5" x2="1248.5" y1="643.4609" y2="643.4609"/><text fill="#000000" font-family="sans-serif" font-size="13" font-weight="bold" lengthAdjust="spacing" textLength="18" x="369.5" y="638.395">11</text><text fill="#000000" font-family="sans-serif" font-size="13" lengthAdjust="spacing" textLength="289" x="391.5" y="638.395">remove the finalizer after delete confirmation</text><line style="stroke:#475569;stroke-width:1.0;stroke-dasharray:2.0,2.0;" x1="10" x2="1330.5" y1="659.4609" y2="659.4609"/><text fill="#000000" font-family="sans-serif" font-size="11" font-weight="bold" lengthAdjust="spacing" textLength="147" x="15" y="669.6714">[OCI state is retryable]</text><polygon fill="#334155" points="87.5,690.3984,77.5,694.3984,87.5,698.3984,83.5,694.3984" style="stroke:#334155;stroke-width:1.0;"/><line style="stroke:#334155;stroke-width:1.0;stroke-dasharray:2.0,2.0;" x1="81.5" x2="361.5" y1="694.3984" y2="694.3984"/><text fill="#000000" font-family="sans-serif" font-size="13" font-weight="bold" lengthAdjust="spacing" textLength="18" x="93.5" y="689.3325">12</text><text fill="#000000" font-family="sans-serif" font-size="13" lengthAdjust="spacing" textLength="110" x="115.5" y="689.3325">requeue required</text><line style="stroke:#475569;stroke-width:1.0;stroke-dasharray:2.0,2.0;" x1="10" x2="1330.5" y1="703.3984" y2="703.3984"/><text fill="#000000" font-family="sans-serif" font-size="11" font-weight="bold" lengthAdjust="spacing" textLength="200" x="15" y="713.6089">[OCI state is failed or terminal]</text><polygon fill="#334155" points="87.5,734.3359,77.5,738.3359,87.5,742.3359,83.5,738.3359" style="stroke:#334155;stroke-width:1.0;"/><line style="stroke:#334155;stroke-width:1.0;stroke-dasharray:2.0,2.0;" x1="81.5" x2="361.5" y1="738.3359" y2="738.3359"/><text fill="#000000" font-family="sans-serif" font-size="13" font-weight="bold" lengthAdjust="spacing" textLength="18" x="93.5" y="733.27">13</text><text fill="#000000" font-family="sans-serif" font-size="13" lengthAdjust="spacing" textLength="240" x="115.5" y="733.27">unsuccessful terminal reconcile result</text><line style="stroke:#475569;stroke-width:1.0;stroke-dasharray:2.0,2.0;" x1="10" x2="1330.5" y1="747.3359" y2="747.3359"/><text fill="#000000" font-family="sans-serif" font-size="11" font-weight="bold" lengthAdjust="spacing" textLength="203" x="15" y="757.5464">[OCI state is active and usable]</text><path d="M20,768.1406 L167,768.1406 L167,775.2734 L157,785.2734 L20,785.2734 L20,768.1406 " fill="#F8FAFC" style="stroke:#475569;stroke-width:1.5;"/><rect fill="none" height="306.7266" style="stroke:#475569;stroke-width:1.5;" width="1199" x="20" y="768.1406"/><text fill="#000000" font-family="sans-serif" font-size="13" font-weight="bold" lengthAdjust="spacing" textLength="102" x="35" y="781.2075">Drift handling</text><path d="M324,790.2734 L324,890.2734 L1209,890.2734 L1209,800.2734 L1199,790.2734 L324,790.2734 " fill="#FEFFDD" style="stroke:#181818;stroke-width:0.5;"/><path d="M1199,790.2734 L1199,800.2734 L1209,800.2734 L1199,790.2734 " fill="#FEFFDD" style="stroke:#181818;stroke-width:0.5;"/><text fill="#000000" font-family="sans-serif" font-size="13" lengthAdjust="spacing" textLength="171" x="330" y="807.3403">Supported update surface:</text><text fill="#000000" font-family="sans-serif" font-size="13" lengthAdjust="spacing" textLength="94" x="330" y="822.4731">- display name</text><text fill="#000000" font-family="sans-serif" font-size="13" lengthAdjust="spacing" textLength="96" x="330" y="837.606">- freeform tags</text><text fill="#000000" font-family="sans-serif" font-size="13" lengthAdjust="spacing" textLength="88" x="330" y="852.7388">- defined tags</text><text fill="#000000" font-family="sans-serif" font-size="13" lengthAdjust="spacing" textLength="139" x="330" y="867.8716">Reject before mutate:</text><text fill="#000000" font-family="sans-serif" font-size="13" lengthAdjust="spacing" textLength="71" x="330" y="883.0044">- vcnId drift</text><path d="M30,903.0703 L100,903.0703 L100,910.2031 L90,920.2031 L30,920.2031 L30,903.0703 " fill="#F8FAFC" style="stroke:#475569;stroke-width:1.5;"/><rect fill="none" height="46.2656" style="stroke:#475569;stroke-width:1.5;" width="406.5" x="30" y="903.0703"/><text fill="#000000" font-family="sans-serif" font-size="13" font-weight="bold" lengthAdjust="spacing" textLength="25" x="45" y="916.1372">opt</text><text fill="#000000" font-family="sans-serif" font-size="11" font-weight="bold" lengthAdjust="spacing" textLength="286" x="115" y="915.2808">[unsupported or immutable drift is detected]</text><polygon fill="#334155" points="87.5,937.3359,77.5,941.3359,87.5,945.3359,83.5,941.3359" style="stroke:#334155;stroke-width:1.0;"/><line style="stroke:#334155;stroke-width:1.0;stroke-dasharray:2.0,2.0;" x1="81.5" x2="361.5" y1="941.3359" y2="941.3359"/><text fill="#000000" font-family="sans-serif" font-size="13" font-weight="bold" lengthAdjust="spacing" textLength="18" x="93.5" y="936.27">14</text><text fill="#000000" font-family="sans-serif" font-size="13" lengthAdjust="spacing" textLength="169" x="115.5" y="936.27">reject before OCI mutation</text><polygon fill="#334155" points="1158.5,973.4688,1168.5,977.4688,1158.5,981.4688,1162.5,977.4688" style="stroke:#334155;stroke-width:1.0;"/><line style="stroke:#334155;stroke-width:1.0;" x1="362.5" x2="1164.5" y1="977.4688" y2="977.4688"/><text fill="#000000" font-family="sans-serif" font-size="13" font-weight="bold" lengthAdjust="spacing" textLength="18" x="369.5" y="972.4028">15</text><text fill="#000000" font-family="sans-serif" font-size="13" lengthAdjust="spacing" textLength="439" x="391.5" y="972.4028">Reuse the tracked OCID from status or spec before any fresh lookup.</text><polygon fill="#334155" points="1158.5,1002.6016,1168.5,1006.6016,1158.5,1010.6016,1162.5,1006.6016" style="stroke:#334155;stroke-width:1.0;"/><line style="stroke:#334155;stroke-width:1.0;" x1="362.5" x2="1164.5" y1="1006.6016" y2="1006.6016"/><text fill="#000000" font-family="sans-serif" font-size="13" font-weight="bold" lengthAdjust="spacing" textLength="18" x="369.5" y="1001.5356">16</text><text fill="#000000" font-family="sans-serif" font-size="13" lengthAdjust="spacing" textLength="762" x="391.5" y="1001.5356">Move the Network Security Group compartment before calling the mutable update path when compartment drift exists.</text><path d="M288.5,1021.6016 L358.5,1021.6016 L358.5,1028.7344 L348.5,1038.7344 L288.5,1038.7344 L288.5,1021.6016 " fill="#F8FAFC" style="stroke:#475569;stroke-width:1.5;"/><rect fill="none" height="46.2656" style="stroke:#475569;stroke-width:1.5;" width="910" x="288.5" y="1021.6016"/><text fill="#000000" font-family="sans-serif" font-size="13" font-weight="bold" lengthAdjust="spacing" textLength="25" x="303.5" y="1034.6685">opt</text><text fill="#000000" font-family="sans-serif" font-size="11" font-weight="bold" lengthAdjust="spacing" textLength="258" x="373.5" y="1033.812">[supported drift or collection diff exists]</text><polygon fill="#334155" points="1158.5,1055.8672,1168.5,1059.8672,1158.5,1063.8672,1162.5,1059.8672" style="stroke:#334155;stroke-width:1.0;"/><line style="stroke:#334155;stroke-width:1.0;" x1="362.5" x2="1164.5" y1="1059.8672" y2="1059.8672"/><text fill="#000000" font-family="sans-serif" font-size="13" font-weight="bold" lengthAdjust="spacing" textLength="18" x="369.5" y="1054.8013">17</text><text fill="#000000" font-family="sans-serif" font-size="13" lengthAdjust="spacing" textLength="277" x="391.5" y="1054.8013">apply the supported in-place mutation path</text><polygon fill="#334155" points="87.5,1099,77.5,1103,87.5,1107,83.5,1103" style="stroke:#334155;stroke-width:1.0;"/><line style="stroke:#334155;stroke-width:1.0;stroke-dasharray:2.0,2.0;" x1="81.5" x2="361.5" y1="1103" y2="1103"/><text fill="#000000" font-family="sans-serif" font-size="13" font-weight="bold" lengthAdjust="spacing" textLength="18" x="93.5" y="1097.9341">18</text><text fill="#000000" font-family="sans-serif" font-size="13" lengthAdjust="spacing" textLength="169" x="115.5" y="1097.9341">successful active reconcile</text><path d="M51,1123 L51,1254 L1194,1254 L1194,1133 L1184,1123 L51,1123 " fill="#FEFFDD" style="stroke:#181818;stroke-width:0.5;"/><path d="M1184,1123 L1184,1133 L1194,1133 L1184,1123 " fill="#FEFFDD" style="stroke:#181818;stroke-width:0.5;"/><text fill="#000000" font-family="sans-serif" font-size="13" lengthAdjust="spacing" textLength="105" x="57" y="1140.0669">Boundary notes:</text><text fill="#000000" font-family="sans-serif" font-size="13" lengthAdjust="spacing" textLength="427" x="57" y="1155.1997">- The current formal notes remain lifecycle-centric even though the</text><text fill="#000000" font-family="sans-serif" font-size="13" lengthAdjust="spacing" textLength="401" x="73" y="1170.3325">implementation now reconciles tags and compartment moves.</text><text fill="#000000" font-family="sans-serif" font-size="13" lengthAdjust="spacing" textLength="108" x="57" y="1185.4653">Sequence notes:</text><text fill="#000000" font-family="sans-serif" font-size="13" lengthAdjust="spacing" textLength="441" x="57" y="1200.5981">- Paginated name lookup is only used when no status or spec OCID is</text><text fill="#000000" font-family="sans-serif" font-size="13" lengthAdjust="spacing" textLength="95" x="73" y="1215.731">already bound.</text><text fill="#000000" font-family="sans-serif" font-size="13" lengthAdjust="spacing" textLength="166" x="57" y="1230.8638">Controller-local invariants:</text><text fill="#000000" font-family="sans-serif" font-size="13" lengthAdjust="spacing" textLength="229" x="57" y="1245.9966">- StatusPresentUsesStatusInvariant</text><!--SRC=[bLRRRXit47tVhnYuhvMHr9SuVWWWErPWn4aDE_q0YZihiUQIMrwag47_lJCaLxkMBASLO0dctC-S6JAee15-lxw5hnZMrZt18yheLDZ09sTZ1myehP6Ab1xnhuX6OYLYi2QsStILVrAc4qwqu9UYjcjb5j08xN4akHBoQK6-J7rjjNNmoonzHXfJv-ow24zEJj-UdOs4DJOYwl0DluUfLWlJeWcWiGdZu2Kr-541t0iNb5ITC64_zCLiEhlUKRAkHbSKJj-TdPs_9uKxrU2TClXC-lvqUd9rCPOUg0qoUY-xpgA3gKrbi6vFVFDczjliPYiUEtupUtT-VbFzKmaMmT6rDS5PhT4TWV0m_5jrGzLmz8XkfGYpByA8HT4jP-MegaKGS-4HZeWXIO5-HwUV8v70O40Fq_kiyFd2LzKG4YOVTfnUWjjIgaQl7DRWEvGWJ0rQhH1y427wwhaPEoBVR2rgk7ueMicgKKPezJSfyI5MrI9HzyxQ9_fXZRaoDM4dT83W25gAIKZXzquJ786h-aX2ThsXK-M39ss0_HH8yn8MI6wM23GeZjdeqDle2Chv1fwCNHjGDPshHX6604Zp0CRcACh3dDiA6molnT2KnDQnPy-ryfqM6p2YnMIfhUr0Ky4EEhBr42cc1W6j27AP2roAw8Eo9XaS3DOW6t19XiOinsQNoGeJT1cyX0qF-RRaXeivw3rrh4FdsIFxPpkz8lWp6APlTWfKSFg_GL89afeNCCNWRTQR_lVCieEN4ql1-Pl_AWQYHasqfp2qU3oPaJoJxcCIlDPP7-TjvbpnyfeoJLAZN9irgO-mLc59U6XjrnCAzmb3MTpztivhMmgjUqBqk2SeYNyBQv3POMp8o1vNhs3aiBMh3EmmPw9XrXKGPCvH59ubdBYLN64QI0xgCBYDc6kkTZSIXHesncK6DMPmUJsyuAqHj3xI35CUBQVrSxVH-2XfbdmJzTPij8m88hfdNWX6QvNN4k-Hw4i9fTbEDG6M9D74ruJYLqj619ZRIUTNtfo5ZB7hh6EknQxc63wwHaYyBFB9_gZpOUCG6qjS26BX1rMahf2hqU43_eaom9or4Th8TGo-LzBSrb1pvZsvcGavZkr2mgbFa01MBNkOyxPErH8WDNLTPjA_H9ozTexJOMHJIlrIwjVBWG5umEWp-_h5dGQqSRRjhm1ACbqW9O8m6yRABtb1qWLm_9hxBpst3pn_f6tvqaoFZkAVHukt4rlrq9H6TeA6Sxr4yymkuvQlbUCjp0F8MKvLI4PCfZ6lLTECRwA31OYkqvkKo-1GcGdHH-8Mw9JOpYhxQTz6qr8cO3ihUGyEL1_C2islUAq8jqdCyao-2NmRtPZCOng-9EKD8sZXQdfJoOtKE96aufG4N16IOMdZ8brE1GZLTXePs5mQtRT3OZxDGHhLSGTuWoNe-pViEAzxiQ1DmBZnk1NICCsj8MI9VNLkATrCEuGh5th9gty_pFkLEg0oqPPOGtrP2QVeyLKYFoPtzyHLIl8FZpuVtFPgrNOs_mK0]--></g></svg>