<?xml version="1.0" encoding="UTF-8" standalone="no"?><svg xmlns="http://www.w3.org/2000/svg" xmlns:xlink="http://www.w3.org/1999/xlink" contentStyleType="text/css" height="452px" preserveAspectRatio="none" style="width:2356px;height:452px;background:#FFFFFF;" version="1.1" viewBox="0 0 2356 452" width="2356px" zoomAndPan="magnify"><defs/><g><text fill="#000000" font-family="sans-serif" font-size="14" font-weight="bold" lengthAdjust="spacing" textLength="420" x="961" y="22.9951">OCI Network Security Group Reconcile State Machine</text><ellipse cx="16" cy="306.2969" fill="#222222" rx="10" ry="10" style="stroke:none;stroke-width:1.0;"/><g id="Observe"><rect fill="#F8FAFC" height="50.2656" rx="6" ry="6" style="stroke:#475569;stroke-width:0.5;" width="329" x="86" y="281.2969"/><line style="stroke:#475569;stroke-width:0.5;" x1="86" x2="415" y1="307.5938" y2="307.5938"/><text fill="#0F172A" font-family="sans-serif" font-size="14" lengthAdjust="spacing" textLength="58" x="221.5" y="299.292">Observe</text><text fill="#0F172A" font-family="sans-serif" font-size="12" lengthAdjust="spacing" textLength="309" x="91" y="323.7324">read spec, status, delete intent, and OCI lifecycle</text></g><rect fill="#F8FAFC" height="40" rx="6" ry="6" style="stroke:#475569;stroke-width:0.5;" width="122" x="475" y="286.2969"/><text fill="#0F172A" font-family="sans-serif" font-size="14" lengthAdjust="spacing" textLength="112" x="480" y="311.1436">ResolveByName</text><rect fill="#F8FAFC" height="40" rx="6" ry="6" style="stroke:#475569;stroke-width:0.5;" width="130" x="657" y="286.2969"/><text fill="#0F172A" font-family="sans-serif" font-size="14" lengthAdjust="spacing" textLength="120" x="662" y="311.1436">PaginatedLookup</text><rect fill="#F8FAFC" height="40" rx="6" ry="6" style="stroke:#475569;stroke-width:0.5;" width="111" x="847" y="195.2969"/><text fill="#0F172A" font-family="sans-serif" font-size="14" lengthAdjust="spacing" textLength="101" x="852" y="220.1436">EvaluateReady</text><rect fill="#F8FAFC" height="40" rx="6" ry="6" style="stroke:#475569;stroke-width:0.5;" width="75" x="1262" y="286.2969"/><text fill="#0F172A" font-family="sans-serif" font-size="14" lengthAdjust="spacing" textLength="65" x="1267" y="311.1436">Retryable</text><rect fill="#F8FAFC" height="40" rx="6" ry="6" style="stroke:#475569;stroke-width:0.5;" width="50" x="1409.5" y="372.2969"/><text fill="#0F172A" font-family="sans-serif" font-size="14" lengthAdjust="spacing" textLength="40" x="1414.5" y="397.1436">Failed</text><rect fill="#F8FAFC" height="40" rx="6" ry="6" style="stroke:#475569;stroke-width:0.5;" width="173" x="1018" y="120.2969"/><text fill="#0F172A" font-family="sans-serif" font-size="14" lengthAdjust="spacing" textLength="163" x="1023" y="145.1436">RejectUnsupportedDrift</text><rect fill="#F8FAFC" height="40" rx="6" ry="6" style="stroke:#475569;stroke-width:0.5;" width="53" x="1408" y="175.2969"/><text fill="#0F172A" font-family="sans-serif" font-size="14" lengthAdjust="spacing" textLength="43" x="1413" y="200.1436">Ready</text><rect fill="#F8FAFC" height="40" rx="6" ry="6" style="stroke:#475569;stroke-width:0.5;" width="142" x="1033.5" y="195.2969"/><text fill="#0F172A" font-family="sans-serif" font-size="14" lengthAdjust="spacing" textLength="132" x="1038.5" y="220.1436">MoveCompartment</text><rect fill="#F8FAFC" height="40" rx="6" ry="6" style="stroke:#475569;stroke-width:0.5;" width="97" x="1251" y="193.2969"/><text fill="#0F172A" font-family="sans-serif" font-size="14" lengthAdjust="spacing" textLength="87" x="1256" y="218.1436">ApplyUpdate</text><rect fill="#F8FAFC" height="40" rx="6" ry="6" style="stroke:#475569;stroke-width:0.5;" width="113" x="1651.5" y="300.2969"/><text fill="#0F172A" font-family="sans-serif" font-size="14" lengthAdjust="spacing" textLength="103" x="1656.5" y="325.1436">DeletePending</text><rect fill="#F8FAFC" height="40" rx="6" ry="6" style="stroke:#475569;stroke-width:0.5;" width="65" x="2119.5" y="247.2969"/><text fill="#0F172A" font-family="sans-serif" font-size="14" lengthAdjust="spacing" textLength="55" x="2124.5" y="272.1436">Deleted</text><g id="elem_GMN34"><path d="M1521,49.2969 L1521,197.9669 L1461.22,201.9669 L1521,205.9669 L1521,259.1563 A6,6 0 0 0 1527,265.1563 L1889,265.1563 A6,6 0 0 0 1895,259.1563 L1895,53.2969 L1885,43.2969 L1527,43.2969 A6,6 0 0 0 1521,49.2969 " fill="#FFF7ED" style="stroke:#181818;stroke-width:0.5;"/><path d="M1885,43.2969 L1885,50.2969 A3,3 0 0 0 1888,53.2969 L1895,53.2969 L1885,43.2969 " fill="#FFF7ED" style="stroke:#181818;stroke-width:0.5;"/><text fill="#0F172A" font-family="sans-serif" font-size="13" lengthAdjust="spacing" textLength="69" x="1527" y="60.3638">Archetype:</text><text fill="#0F172A" font-family="sans-serif" font-size="13" lengthAdjust="spacing" textLength="207" x="1527" y="75.4966">- resolved-drift-delete-paginated</text><text fill="#0F172A" font-family="sans-serif" font-size="13" lengthAdjust="spacing" textLength="102" x="1527" y="90.6294">Update surface:</text><text fill="#0F172A" font-family="sans-serif" font-size="13" lengthAdjust="spacing" textLength="94" x="1527" y="105.7622">- display name</text><text fill="#0F172A" font-family="sans-serif" font-size="13" lengthAdjust="spacing" textLength="96" x="1527" y="120.895">- freeform tags</text><text fill="#0F172A" font-family="sans-serif" font-size="13" lengthAdjust="spacing" textLength="88" x="1527" y="136.0278">- defined tags</text><text fill="#0F172A" font-family="sans-serif" font-size="13" lengthAdjust="spacing" textLength="139" x="1527" y="151.1606">Reject before mutate:</text><text fill="#0F172A" font-family="sans-serif" font-size="13" lengthAdjust="spacing" textLength="71" x="1527" y="166.2935">- vcnId drift</text><text fill="#0F172A" font-family="sans-serif" font-size="13" lengthAdjust="spacing" textLength="105" x="1527" y="181.4263">Boundary notes:</text><text fill="#0F172A" font-family="sans-serif" font-size="13" lengthAdjust="spacing" textLength="353" x="1527" y="196.5591">- The current formal notes remain lifecycle-centric even</text><text fill="#0F172A" font-family="sans-serif" font-size="13" lengthAdjust="spacing" textLength="332" x="1543" y="211.6919">though the implementation now reconciles tags and</text><text fill="#0F172A" font-family="sans-serif" font-size="13" lengthAdjust="spacing" textLength="139" x="1543" y="226.8247">compartment moves.</text><text fill="#0F172A" font-family="sans-serif" font-size="13" lengthAdjust="spacing" textLength="166" x="1527" y="241.9575">Controller-local invariants:</text><text fill="#0F172A" font-family="sans-serif" font-size="13" lengthAdjust="spacing" textLength="229" x="1527" y="257.0903">- StatusPresentUsesStatusInvariant</text></g><g id="elem_GMN37"><path d="M1955,328.7969 L1955,327.5469 L1764.68,331.5469 L1955,335.5469 L1955,417.5938 A6,6 0 0 0 1961,423.5938 L2343,423.5938 A6,6 0 0 0 2349,417.5938 L2349,332.7969 L2339,322.7969 L1961,322.7969 A6,6 0 0 0 1955,328.7969 " fill="#FFF7ED" style="stroke:#181818;stroke-width:0.5;"/><path d="M2339,322.7969 L2339,329.7969 A3,3 0 0 0 2342,332.7969 L2349,332.7969 L2339,322.7969 " fill="#FFF7ED" style="stroke:#181818;stroke-width:0.5;"/><text fill="#0F172A" font-family="sans-serif" font-size="13" lengthAdjust="spacing" textLength="90" x="1961" y="339.8638">Delete states:</text><text fill="#0F172A" font-family="sans-serif" font-size="13" lengthAdjust="spacing" textLength="102" x="1961" y="354.9966">- DeletePending</text><text fill="#0F172A" font-family="sans-serif" font-size="13" lengthAdjust="spacing" textLength="59" x="1961" y="370.1294">- Deleted</text><text fill="#0F172A" font-family="sans-serif" font-size="13" lengthAdjust="spacing" textLength="103" x="1961" y="385.2622">Delete workflow:</text><text fill="#0F172A" font-family="sans-serif" font-size="13" lengthAdjust="spacing" textLength="373" x="1961" y="400.395">- Confirm deletion with follow-up GetNetworkSecurityGroup</text><text fill="#0F172A" font-family="sans-serif" font-size="13" lengthAdjust="spacing" textLength="280" x="1977" y="415.5278">calls until the resource is gone or not found.</text></g><!--link *start to Observe--><g id="link_*start_Observe"><path d="M26.08,306.2969 C26.08,306.2969 80.84,306.2969 80.84,306.2969 " fill="none" id="*start-to-Observe" style="stroke:#181818;stroke-width:1.0;"/><polygon fill="#181818" points="85.84,306.2969,76.84,302.2969,80.84,306.2969,76.84,310.2969,85.84,306.2969" style="stroke:#181818;stroke-width:1.0;"/></g><!--link Observe to ResolveByName--><g id="link_Observe_ResolveByName"><path d="M415.34,306.2969 C415.34,306.2969 469.86,306.2969 469.86,306.2969 " fill="none" id="Observe-to-ResolveByName" style="stroke:#181818;stroke-width:1.0;"/><polygon fill="#181818" points="474.86,306.2969,465.86,302.2969,469.86,306.2969,465.86,310.2969,474.86,306.2969" style="stroke:#181818;stroke-width:1.0;"/><text fill="#000000" font-family="sans-serif" font-size="13" lengthAdjust="spacing" textLength="163" x="443.6" y="319.3638">status/spec OCID missing</text></g><!--link ResolveByName to PaginatedLookup--><g id="link_ResolveByName_PaginatedLookup"><path d="M597.16,306.2969 C597.16,306.2969 651.96,306.2969 651.96,306.2969 " fill="none" id="ResolveByName-to-PaginatedLookup" style="stroke:#181818;stroke-width:1.0;"/><polygon fill="#181818" points="656.96,306.2969,647.96,302.2969,651.96,306.2969,647.96,310.2969,656.96,306.2969" style="stroke:#181818;stroke-width:1.0;"/><text fill="#000000" font-family="sans-serif" font-size="13" lengthAdjust="spacing" textLength="219" x="625.56" y="319.3638">continue searching later list pages</text></g><!--link PaginatedLookup to EvaluateReady--><g id="link_PaginatedLookup_EvaluateReady"><path d="M787.09,296.2969 C838.98,296.2969 903,296.2969 903,296.2969 C903,296.2969 903,240.3169 903,240.3169 " fill="none" id="PaginatedLookup-to-EvaluateReady" style="stroke:#181818;stroke-width:1.0;"/><polygon fill="#181818" points="903,235.3169,899,244.3169,903,240.3169,907,244.3169,903,235.3169" style="stroke:#181818;stroke-width:1.0;"/><text fill="#000000" font-family="sans-serif" font-size="13" lengthAdjust="spacing" textLength="148" x="874.03" y="292.3638">OCI state in AVAILABLE</text></g><!--link PaginatedLookup to Retryable--><g id="link_PaginatedLookup_Retryable"><path d="M787.12,306.2969 C787.12,306.2969 1256.7,306.2969 1256.7,306.2969 " fill="none" id="PaginatedLookup-to-Retryable" style="stroke:#181818;stroke-width:1.0;"/><polygon fill="#181818" points="1261.7,306.2969,1252.7,302.2969,1256.7,306.2969,1252.7,310.2969,1261.7,306.2969" style="stroke:#181818;stroke-width:1.0;"/><text fill="#000000" font-family="sans-serif" font-size="13" lengthAdjust="spacing" textLength="246" x="1022.91" y="319.3638">OCI state in PROVISIONING, UPDATING</text></g><!--link PaginatedLookup to Failed--><g id="link_PaginatedLookup_Failed"><path d="M722,326.3169 C722,349.8169 722,385.6269 722,385.6269 C722,385.6269 1404.14,385.6269 1404.14,385.6269 " fill="none" id="PaginatedLookup-to-Failed" style="stroke:#181818;stroke-width:1.0;"/><polygon fill="#181818" points="1409.14,385.6269,1400.14,381.6269,1404.14,385.6269,1400.14,389.6269,1409.14,385.6269" style="stroke:#181818;stroke-width:1.0;"/><text fill="#000000" font-family="sans-serif" font-size="13" lengthAdjust="spacing" textLength="188" x="844.41" y="398.6938">OCI state in FAILED, DELETED</text></g><!--link EvaluateReady to RejectUnsupportedDrift--><g id="link_EvaluateReady_RejectUnsupportedDrift"><path d="M958.11,208.6269 C990.89,208.6269 1026,208.6269 1026,208.6269 C1026,208.6269 1026,165.4269 1026,165.4269 " fill="none" id="EvaluateReady-to-RejectUnsupportedDrift" style="stroke:#181818;stroke-width:1.0;"/><polygon fill="#181818" points="1026,160.4269,1022,169.4269,1026,165.4269,1030,169.4269,1026,160.4269" style="stroke:#181818;stroke-width:1.0;"/><text fill="#000000" font-family="sans-serif" font-size="13" lengthAdjust="spacing" textLength="275" x="737.65" y="204.6938">unsupported or immutable drift is detected</text></g><!--link RejectUnsupportedDrift to Ready--><g id="link_RejectUnsupportedDrift_Ready"><path d="M1184,160.4969 C1184,173.2369 1184,187.2969 1184,187.2969 C1184,187.2969 1402.69,187.2969 1402.69,187.2969 " fill="none" id="RejectUnsupportedDrift-to-Ready" style="stroke:#181818;stroke-width:1.0;"/><polygon fill="#181818" points="1407.69,187.2969,1398.69,183.2969,1402.69,187.2969,1398.69,191.2969,1407.69,187.2969" style="stroke:#181818;stroke-width:1.0;"/><text fill="#000000" font-family="sans-serif" font-size="13" lengthAdjust="spacing" textLength="252" x="1026.95" y="183.3638">wait for the spec or live state to change</text></g><!--link EvaluateReady to MoveCompartment--><g id="link_EvaluateReady_MoveCompartment"><path d="M958.23,221.9669 C958.23,221.9669 1028.4,221.9669 1028.4,221.9669 " fill="none" id="EvaluateReady-to-MoveCompartment" style="stroke:#181818;stroke-width:1.0;"/><polygon fill="#181818" points="1033.4,221.9669,1024.4,217.9669,1028.4,221.9669,1024.4,225.9669,1033.4,221.9669" style="stroke:#181818;stroke-width:1.0;"/><text fill="#000000" font-family="sans-serif" font-size="13" lengthAdjust="spacing" textLength="158" x="834.32" y="235.0338">continue active reconcile</text></g><!--link MoveCompartment to ApplyUpdate--><g id="link_MoveCompartment_ApplyUpdate"><path d="M1175.73,214.2969 C1175.73,214.2969 1245.99,214.2969 1245.99,214.2969 " fill="none" id="MoveCompartment-to-ApplyUpdate" style="stroke:#181818;stroke-width:1.0;"/><polygon fill="#181818" points="1250.99,214.2969,1241.99,210.2969,1245.99,214.2969,1241.99,218.2969,1250.99,214.2969" style="stroke:#181818;stroke-width:1.0;"/><text fill="#000000" font-family="sans-serif" font-size="13" lengthAdjust="spacing" textLength="221" x="1211.86" y="227.3638">continue after compartment move</text></g><!--link ApplyUpdate to Ready--><g id="link_ApplyUpdate_Ready"><path d="M1348.24,204.2969 C1348.24,204.2969 1402.81,204.2969 1402.81,204.2969 " fill="none" id="ApplyUpdate-to-Ready" style="stroke:#181818;stroke-width:1.0;"/><polygon fill="#181818" points="1407.81,204.2969,1398.81,200.2969,1402.81,204.2969,1398.81,208.2969,1407.81,204.2969" style="stroke:#181818;stroke-width:1.0;"/><text fill="#000000" font-family="sans-serif" font-size="13" lengthAdjust="spacing" textLength="231" x="1143.52" y="200.3638">supported mutation path completes</text></g><!--link Ready to Ready--><g id="link_Ready_Ready"><path d="M1407.84,181.2969 C1389.33,181.2969 1368,181.2969 1368,181.2969 C1368,181.2969 1368,167.7969 1368,167.7969 C1368,167.7969 1481,167.7969 1481,167.7969 C1481,167.7969 1481,188.6269 1481,188.6269 C1481,188.6269 1466.01,188.6269 1466.01,188.6269 " fill="none" id="Ready-to-Ready" style="stroke:#181818;stroke-width:1.0;"/><polygon fill="#181818" points="1461.01,188.6269,1470.01,192.6269,1466.01,188.6269,1470.01,184.6269,1461.01,188.6269" style="stroke:#181818;stroke-width:1.0;"/><text fill="#000000" font-family="sans-serif" font-size="13" lengthAdjust="spacing" textLength="170" x="1239.74" y="158.8638">no supported drift remains</text></g><!--link Retryable to Retryable--><g id="link_Retryable_Retryable"><path d="M1261.88,316.2969 C1258.89,316.2969 1257,316.2969 1257,316.2969 C1257,316.2969 1257,334.2969 1257,334.2969 C1257,334.2969 1343,334.2969 1343,334.2969 C1343,334.2969 1343,306.7969 1343,306.7969 C1343,306.7969 1342.31,306.7969 1342.31,306.7969 " fill="none" id="Retryable-to-Retryable" style="stroke:#181818;stroke-width:1.0;"/><polygon fill="#181818" points="1337.31,306.7969,1346.31,310.7969,1342.31,306.7969,1346.31,302.7969,1337.31,306.7969" style="stroke:#181818;stroke-width:1.0;"/><text fill="#000000" font-family="sans-serif" font-size="13" lengthAdjust="spacing" textLength="159" x="1137.66" y="352.3638">OCI remains nonterminal</text></g><!--link Failed to Failed--><g id="link_Failed_Failed"><path d="M1409.34,398.9669 C1398.39,398.9669 1388,398.9669 1388,398.9669 C1388,398.9669 1388,418.0469 1388,418.0469 C1388,418.0469 1501,418.0469 1501,418.0469 C1501,418.0469 1501,392.2969 1501,392.2969 C1501,392.2969 1464.64,392.2969 1464.64,392.2969 " fill="none" id="Failed-to-Failed" style="stroke:#181818;stroke-width:1.0;"/><polygon fill="#181818" points="1459.64,392.2969,1468.64,396.2969,1464.64,392.2969,1468.64,388.2969,1459.64,392.2969" style="stroke:#181818;stroke-width:1.0;"/><text fill="#000000" font-family="sans-serif" font-size="13" lengthAdjust="spacing" textLength="135" x="1314.34" y="436.1138">OCI remains terminal</text></g><!--link Ready to DeletePending--><g id="link_Ready_DeletePending"><path d="M1427,215.3169 C1427,248.9769 1427,313.2969 1427,313.2969 C1427,313.2969 1646.47,313.2969 1646.47,313.2969 " fill="none" id="Ready-to-DeletePending" style="stroke:#181818;stroke-width:1.0;"/><polygon fill="#181818" points="1651.47,313.2969,1642.47,309.2969,1646.47,313.2969,1642.47,317.2969,1651.47,313.2969" style="stroke:#181818;stroke-width:1.0;"/><text fill="#000000" font-family="sans-serif" font-size="13" lengthAdjust="spacing" textLength="109" x="1377.75" y="309.3638">delete requested</text></g><!--link Retryable to DeletePending--><g id="link_Retryable_DeletePending"><path d="M1337.2,319.7969 C1337.2,319.7969 1646.33,319.7969 1646.33,319.7969 " fill="none" id="Retryable-to-DeletePending" style="stroke:#181818;stroke-width:1.0;"/><polygon fill="#181818" points="1651.33,319.7969,1642.33,315.7969,1646.33,319.7969,1642.33,323.7969,1651.33,319.7969" style="stroke:#181818;stroke-width:1.0;"/><text fill="#000000" font-family="sans-serif" font-size="13" lengthAdjust="spacing" textLength="109" x="1381.77" y="332.8638">delete requested</text></g><!--link Failed to DeletePending--><g id="link_Failed_DeletePending"><path d="M1443,372.1269 C1443,356.4369 1443,337.2969 1443,337.2969 C1443,337.2969 1646.48,337.2969 1646.48,337.2969 " fill="none" id="Failed-to-DeletePending" style="stroke:#181818;stroke-width:1.0;"/><polygon fill="#181818" points="1651.48,337.2969,1642.48,333.2969,1646.48,337.2969,1642.48,341.2969,1651.48,337.2969" style="stroke:#181818;stroke-width:1.0;"/><text fill="#000000" font-family="sans-serif" font-size="13" lengthAdjust="spacing" textLength="109" x="1417.32" y="350.3638">delete requested</text></g><!--link DeletePending to Deleted--><g id="link_DeletePending_Deleted"><path d="M1764.68,311.5469 C1884.38,311.5469 2152,311.5469 2152,311.5469 C2152,311.5469 2152,292.3469 2152,292.3469 " fill="none" id="DeletePending-to-Deleted" style="stroke:#181818;stroke-width:1.0;"/><polygon fill="#181818" points="2152,287.3469,2148,296.3469,2152,292.3469,2156,296.3469,2152,287.3469" style="stroke:#181818;stroke-width:1.0;"/><text fill="#000000" font-family="sans-serif" font-size="13" lengthAdjust="spacing" textLength="373" x="1968.94" y="307.6138">OCI deletion is confirmed and the finalizer can be removed</text></g><!--link Deleted to Deleted--><g id="link_Deleted_Deleted"><path d="M2119.33,273.2969 C2085.65,273.2969 2038,273.2969 2038,273.2969 C2038,273.2969 2038,293.7969 2038,293.7969 C2038,293.7969 2267,293.7969 2267,293.7969 C2267,293.7969 2267,267.2969 2267,267.2969 C2267,267.2969 2189.65,267.2969 2189.65,267.2969 " fill="none" id="Deleted-to-Deleted" style="stroke:#181818;stroke-width:1.0;"/><polygon fill="#181818" points="2184.65,267.2969,2193.65,271.2969,2189.65,267.2969,2193.65,263.2969,2184.65,267.2969" style="stroke:#181818;stroke-width:1.0;"/><text fill="#000000" font-family="sans-serif" font-size="13" lengthAdjust="spacing" textLength="100" x="2159.51" y="284.8638">terminal stutter</text></g><!--SRC=[XLPDRnit4BtpLmpGMo6bIHhNZGu5z6a8S6n1jdCfUg2violMN79BSgMeHVvxPyZTQgseY2_oaZEFR_ZUp6xKqI3SpzTmX_7W_0iye6gzZaUuyQvjO8lAMQKfw27AYF19gfssA0oM4Q83hwjTX49xL54xAtQwGC2w8O02W_AwISlXHTj6Ubb3sCd27RIje9Gcu63746uyDWZEnvqRR10HMoZdBNfuztwmCPFgfKgxSsUSXnzMwMyGKM0fMnCVyKkS6btP6cq4vZvab0hxHm3Cd2_GTrWVhg-kVlb8gojdOxVsTlNk-lsK8xyv-TVLT3KNNmUurbs2dNsu-ldjnuiGgzNrSd7nmA_Yzn__WF7uDxX_3kZtABfVc817MK1eK8rI9MqOKTK6wMnj8vKx0ccB9B7H9QgZCgTiHjnYS6QFi-ETh1alW_p4Y9orW5g7G7g9ru6Skf6LjdHvnQrpBsIM2P1PehOjGa3fsIaL60hmT7Q8qCWAWpZFOgJbNfgMrhPKp95mc6xMHLkOVfwkRwUps-N5r2r6VvJF1i_JDjlxp-k7zVtT-kvc14-RnVIH_hk8iPBayE8SO4N7BXSZM2nlbu-ap6kI-Um_oVTFDhHDGwx5Ok4rzSK4sjCIsHbqNRSnSInIW0waKQHKBCJ_O6JuV1i7gIEKX1DtcAHcJAD9mCoL-b3jfAtm0iLFRezpLvCbOpB_G2D9BKiOlcznSHxB-TEcCSUdfk1pXhabgwe6mJKbYs7qi8BJRV15y4WWCyHT0c2l1Z6yr9nZtI0jtvl7MchBmRtcbnpGHH40DO2lIMqZEeM_4RkF_I_mn6EHkcY3jc0RJ_gkylXNYo4hDsJntV01XU_6lWuufVIqKmBV8Zc9D2crhscF6vqjKd8b-cyMI5fuPc1MfuSjpW3xsibDRQG78TBeogFTbLaGCQL-JlDv8iO4c6P1CKwwZ3F_STEtbkWi45fVIfKo2XqQ8uzWQNZGO-aHoT4rH5a5taOYJMpIOsu98auHc1sJCFRAhZihY1bFJkcFQSm6tdsaokdTvTcC34q5fRrEuzFu6oiAyLe1xj7Il0MwDDTMktHtcWt9XiukjUvmQf2GwF4rfwnpzuStOawMyyuOz6FZ537GTY-zbZOcYWzfjcxezYZdAM382-i-I93WYVIv1A_yqCcOcp_XljxkdtkzWL_ifN473frdjvmSTD3KXoLnTeSnZSCRZDsdGFyba3u4Si7Ic42pBMgJxefTq7g5xCBAMNvpCtj28stUd8hv5m00]--></g></svg>