<?xml version="1.0" encoding="UTF-8" standalone="no"?><svg xmlns="http://www.w3.org/2000/svg" xmlns:xlink="http://www.w3.org/1999/xlink" contentStyleType="text/css" height="1526px" preserveAspectRatio="none" style="width:1679px;height:1526px;background:#FFFFFF;" version="1.1" viewBox="0 0 1679 1526" width="1679px" zoomAndPan="magnify"><defs/><g><text fill="#000000" font-family="sans-serif" font-size="14" font-weight="bold" lengthAdjust="spacing" textLength="209" x="733.5" y="32.9951">OCI VCN Reconcile Activity</text><ellipse cx="609" cy="57.2969" fill="#0F766E" rx="10" ry="10" style="stroke:#222222;stroke-width:1.0;"/><rect fill="none" height="362.1406" style="stroke:#000000;stroke-width:1.5;" width="686" x="286.5" y="77.2969"/><path d="M419.5,77.2969 L419.5,86.5938 L409.5,96.5938 L286.5,96.5938 " fill="none" style="stroke:#000000;stroke-width:1.5;"/><text fill="#000000" font-family="sans-serif" font-size="14" lengthAdjust="spacing" textLength="123" x="289.5" y="91.292">Observe and Bind</text><rect fill="#F8FAFC" height="33.9688" rx="12.5" ry="12.5" style="stroke:#475569;stroke-width:0.5;" width="304" x="457" y="113.5938"/><text fill="#0F172A" font-family="sans-serif" font-size="12" lengthAdjust="spacing" textLength="284" x="467" y="134.7324">Read CR spec, status OCID, and delete intent</text><rect fill="#F8FAFC" height="33.9688" rx="12.5" ry="12.5" style="stroke:#475569;stroke-width:0.5;" width="460" x="379" y="167.5625"/><text fill="#0F172A" font-family="sans-serif" font-size="12" lengthAdjust="spacing" textLength="440" x="389" y="188.7012">Keep status-bound OCID authoritative for later update or delete paths</text><polygon fill="#E2E8F0" points="509,221.5313,709,221.5313,721,233.5313,709,245.5313,509,245.5313,497,233.5313,509,221.5313" style="stroke:#475569;stroke-width:0.5;"/><text fill="#0F172A" font-family="sans-serif" font-size="11" lengthAdjust="spacing" textLength="200" x="509" y="237.3394">"Tracked or explicit OCID present?"</text><text fill="#000000" font-family="sans-serif" font-size="11" lengthAdjust="spacing" textLength="20" x="477" y="230.937">yes</text><text fill="#000000" font-family="sans-serif" font-size="11" lengthAdjust="spacing" textLength="14" x="721" y="230.937">no</text><rect fill="#F8FAFC" height="33.9688" rx="12.5" ry="12.5" style="stroke:#475569;stroke-width:0.5;" width="272" x="306.5" y="255.5313"/><text fill="#0F172A" font-family="sans-serif" font-size="12" lengthAdjust="spacing" textLength="252" x="316.5" y="276.6699">Get the OCI resource by known identifier</text><rect fill="#F8FAFC" height="33.9688" rx="12.5" ry="12.5" style="stroke:#475569;stroke-width:0.5;" width="328" x="611.5" y="255.5313"/><text fill="#0F172A" font-family="sans-serif" font-size="12" lengthAdjust="spacing" textLength="308" x="621.5" y="276.6699">Resolve an existing OCI resource by display name</text><rect fill="#F8FAFC" height="33.9688" rx="12.5" ry="12.5" style="stroke:#475569;stroke-width:0.5;" width="345" x="603" y="309.5"/><text fill="#0F172A" font-family="sans-serif" font-size="12" lengthAdjust="spacing" textLength="325" x="613" y="330.6387">Continue list pagination until a match or exhaustion</text><rect fill="#F8FAFC" height="33.9688" rx="12.5" ry="12.5" style="stroke:#475569;stroke-width:0.5;" width="354" x="598.5" y="363.4688"/><text fill="#0F172A" font-family="sans-serif" font-size="12" lengthAdjust="spacing" textLength="334" x="608.5" y="384.6074">Persist the resolved or created OCID back into status</text><polygon fill="#E2E8F0" points="609,403.4375,621,415.4375,609,427.4375,597,415.4375,609,403.4375" style="stroke:#475569;stroke-width:0.5;"/><path d="M1267,836.3047 L1267,1194.3594 L1667,1194.3594 L1667,846.3047 L1657,836.3047 L1267,836.3047 " fill="#FEFFDD" style="stroke:#181818;stroke-width:0.5;"/><path d="M1657,836.3047 L1657,846.3047 L1667,846.3047 L1657,836.3047 " fill="#FEFFDD" style="stroke:#181818;stroke-width:0.5;"/><text fill="#000000" font-family="sans-serif" font-size="13" lengthAdjust="spacing" textLength="69" x="1273" y="853.3716">Archetype:</text><text fill="#000000" font-family="sans-serif" font-size="13" lengthAdjust="spacing" textLength="207" x="1273" y="868.5044">- resolved-drift-delete-paginated</text><text fill="#000000" font-family="sans-serif" font-size="13" lengthAdjust="spacing" textLength="134" x="1273" y="883.6372">Retryable OCI states:</text><text fill="#000000" font-family="sans-serif" font-size="13" lengthAdjust="spacing" textLength="102" x="1273" y="898.77">- PROVISIONING</text><text fill="#000000" font-family="sans-serif" font-size="13" lengthAdjust="spacing" textLength="76" x="1273" y="913.9028">- UPDATING</text><text fill="#000000" font-family="sans-serif" font-size="13" lengthAdjust="spacing" textLength="113" x="1273" y="929.0356">Active OCI states:</text><text fill="#000000" font-family="sans-serif" font-size="13" lengthAdjust="spacing" textLength="79" x="1273" y="944.1685">- AVAILABLE</text><text fill="#000000" font-family="sans-serif" font-size="13" lengthAdjust="spacing" textLength="111" x="1273" y="959.3013">Failed OCI states:</text><text fill="#000000" font-family="sans-serif" font-size="13" lengthAdjust="spacing" textLength="53" x="1273" y="974.4341">- FAILED</text><text fill="#000000" font-family="sans-serif" font-size="13" lengthAdjust="spacing" textLength="67" x="1273" y="989.5669">- DELETED</text><text fill="#000000" font-family="sans-serif" font-size="13" lengthAdjust="spacing" textLength="102" x="1273" y="1004.6997">Update surface:</text><text fill="#000000" font-family="sans-serif" font-size="13" lengthAdjust="spacing" textLength="94" x="1273" y="1019.8325">- display name</text><text fill="#000000" font-family="sans-serif" font-size="13" lengthAdjust="spacing" textLength="96" x="1273" y="1034.9653">- freeform tags</text><text fill="#000000" font-family="sans-serif" font-size="13" lengthAdjust="spacing" textLength="88" x="1273" y="1050.0981">- defined tags</text><text fill="#000000" font-family="sans-serif" font-size="13" lengthAdjust="spacing" textLength="139" x="1273" y="1065.231">Reject before mutate:</text><text fill="#000000" font-family="sans-serif" font-size="13" lengthAdjust="spacing" textLength="95" x="1273" y="1080.3638">- cidrBlock drift</text><text fill="#000000" font-family="sans-serif" font-size="13" lengthAdjust="spacing" textLength="95" x="1273" y="1095.4966">- dnsLabel drift</text><text fill="#000000" font-family="sans-serif" font-size="13" lengthAdjust="spacing" textLength="105" x="1273" y="1110.6294">Boundary notes:</text><text fill="#000000" font-family="sans-serif" font-size="13" lengthAdjust="spacing" textLength="353" x="1273" y="1125.7622">- The current formal notes keep field-level drift specifics</text><text fill="#000000" font-family="sans-serif" font-size="13" lengthAdjust="spacing" textLength="363" x="1289" y="1140.895">in Go code and property tests even though the controller</text><text fill="#000000" font-family="sans-serif" font-size="13" lengthAdjust="spacing" textLength="296" x="1289" y="1156.0278">now reconciles tags and compartment moves.</text><text fill="#000000" font-family="sans-serif" font-size="13" lengthAdjust="spacing" textLength="166" x="1273" y="1171.1606">Controller-local invariants:</text><text fill="#000000" font-family="sans-serif" font-size="13" lengthAdjust="spacing" textLength="229" x="1273" y="1186.2935">- StatusPresentUsesStatusInvariant</text><polygon fill="#E2E8F0" points="552,459.4375,666,459.4375,678,471.4375,666,483.4375,552,483.4375,540,471.4375,552,459.4375" style="stroke:#475569;stroke-width:0.5;"/><text fill="#0F172A" font-family="sans-serif" font-size="11" lengthAdjust="spacing" textLength="114" x="552" y="475.2456">"Delete requested?"</text><text fill="#000000" font-family="sans-serif" font-size="11" lengthAdjust="spacing" textLength="20" x="520" y="468.8433">yes</text><text fill="#000000" font-family="sans-serif" font-size="11" lengthAdjust="spacing" textLength="14" x="678" y="468.8433">no</text><rect fill="none" height="220.2031" style="stroke:#000000;stroke-width:1.5;" width="563" x="11" y="493.4375"/><path d="M67,493.4375 L67,502.7344 L57,512.7344 L11,512.7344 " fill="none" style="stroke:#000000;stroke-width:1.5;"/><text fill="#000000" font-family="sans-serif" font-size="14" lengthAdjust="spacing" textLength="46" x="14" y="507.4326">Delete</text><rect fill="#F8FAFC" height="33.9688" rx="12.5" ry="12.5" style="stroke:#475569;stroke-width:0.5;" width="205" x="190" y="529.7344"/><text fill="#0F172A" font-family="sans-serif" font-size="12" lengthAdjust="spacing" textLength="185" x="200" y="550.873">Submit OCI delete for OCI VCN</text><rect fill="#F8FAFC" height="33.9688" rx="12.5" ry="12.5" style="stroke:#475569;stroke-width:0.5;" width="543" x="21" y="598.7031"/><text fill="#0F172A" font-family="sans-serif" font-size="12" lengthAdjust="spacing" textLength="523" x="31" y="619.8418">Confirm deletion with follow-up GetVcn calls until the resource is gone or not found.</text><rect fill="#F8FAFC" height="33.9688" rx="12.5" ry="12.5" style="stroke:#475569;stroke-width:0.5;" width="338" x="123.5" y="667.6719"/><text fill="#0F172A" font-family="sans-serif" font-size="12" lengthAdjust="spacing" textLength="318" x="133.5" y="688.8105">Remove the finalizer after OCI deletion is confirmed</text><ellipse cx="292.5" cy="759.6406" fill="none" rx="11" ry="11" style="stroke:#222222;stroke-width:1.0;"/><ellipse cx="292.5" cy="759.6406" fill="#222222" rx="6" ry="6" style="stroke:#111111;stroke-width:1.0;"/><rect fill="none" height="416.3594" style="stroke:#000000;stroke-width:1.5;" width="376" x="743.5" y="493.4375"/><path d="M904.5,493.4375 L904.5,502.7344 L894.5,512.7344 L743.5,512.7344 " fill="none" style="stroke:#000000;stroke-width:1.5;"/><text fill="#000000" font-family="sans-serif" font-size="14" lengthAdjust="spacing" textLength="151" x="746.5" y="507.4326">Lifecycle Classification</text><rect fill="#F8FAFC" height="33.9688" rx="12.5" ry="12.5" style="stroke:#475569;stroke-width:0.5;" width="268" x="791.5" y="578.1367"/><text fill="#0F172A" font-family="sans-serif" font-size="12" lengthAdjust="spacing" textLength="248" x="801.5" y="599.2754">Request requeue and keep the finalizer</text><ellipse cx="925.5" cy="658.1055" fill="none" rx="11" ry="11" style="stroke:#222222;stroke-width:1.0;"/><ellipse cx="925.5" cy="658.1055" fill="#222222" rx="6" ry="6" style="stroke:#111111;stroke-width:1.0;"/><polygon fill="#E2E8F0" points="845.5,529.7344,1005.5,529.7344,1017.5,541.7344,1005.5,553.7344,845.5,553.7344,833.5,541.7344,845.5,529.7344" style="stroke:#475569;stroke-width:0.5;"/><text fill="#000000" font-family="sans-serif" font-size="11" lengthAdjust="spacing" textLength="20" x="929.5" y="563.9448">yes</text><text fill="#0F172A" font-family="sans-serif" font-size="11" lengthAdjust="spacing" textLength="160" x="845.5" y="545.5425">"OCI state in retryable set?"</text><rect fill="#F8FAFC" height="33.9688" rx="12.5" ry="12.5" style="stroke:#475569;stroke-width:0.5;" width="324" x="763.5" y="774.9102"/><text fill="#0F172A" font-family="sans-serif" font-size="12" lengthAdjust="spacing" textLength="304" x="773.5" y="796.0488">Return an unsuccessful terminal reconcile result</text><ellipse cx="925.5" cy="848.3945" fill="none" rx="11" ry="11" style="stroke:#222222;stroke-width:1.0;"/><ellipse cx="925.5" cy="848.3945" fill="#222222" rx="6" ry="6" style="stroke:#111111;stroke-width:1.0;"/><polygon fill="#E2E8F0" points="855.5,726.5078,995.5,726.5078,1007.5,738.5078,995.5,750.5078,855.5,750.5078,843.5,738.5078,855.5,726.5078" style="stroke:#475569;stroke-width:0.5;"/><text fill="#000000" font-family="sans-serif" font-size="11" lengthAdjust="spacing" textLength="20" x="929.5" y="760.7183">yes</text><text fill="#0F172A" font-family="sans-serif" font-size="11" lengthAdjust="spacing" textLength="140" x="855.5" y="742.3159">"OCI state in failed set?"</text><rect fill="none" height="563.4375" style="stroke:#000000;stroke-width:1.5;" width="663" x="594" y="944.7969"/><path d="M773,944.7969 L773,954.0938 L763,964.0938 L594,964.0938 " fill="none" style="stroke:#000000;stroke-width:1.5;"/><text fill="#000000" font-family="sans-serif" font-size="14" lengthAdjust="spacing" textLength="169" x="597" y="958.792">Ready and Drift Handling</text><rect fill="#F8FAFC" height="33.9688" rx="12.5" ry="12.5" style="stroke:#475569;stroke-width:0.5;" width="364" x="743.5" y="981.0938"/><text fill="#0F172A" font-family="sans-serif" font-size="12" lengthAdjust="spacing" textLength="344" x="753.5" y="1002.2324">Compare live OCI state with the supported drift surface</text><rect fill="#F8FAFC" height="33.9688" rx="12.5" ry="12.5" style="stroke:#475569;stroke-width:0.5;" width="290" x="780.5" y="1098.4648"/><text fill="#0F172A" font-family="sans-serif" font-size="12" lengthAdjust="spacing" textLength="270" x="790.5" y="1119.6035">Reject the change before any OCI mutation</text><ellipse cx="925.5" cy="1178.4336" fill="none" rx="11" ry="11" style="stroke:#222222;stroke-width:1.0;"/><ellipse cx="925.5" cy="1178.4336" fill="#222222" rx="6" ry="6" style="stroke:#111111;stroke-width:1.0;"/><polygon fill="#E2E8F0" points="801,1050.0625,1050,1050.0625,1062,1062.0625,1050,1074.0625,801,1074.0625,789,1062.0625,801,1050.0625" style="stroke:#475569;stroke-width:0.5;"/><text fill="#000000" font-family="sans-serif" font-size="11" lengthAdjust="spacing" textLength="20" x="929.5" y="1084.2729">yes</text><text fill="#0F172A" font-family="sans-serif" font-size="11" lengthAdjust="spacing" textLength="249" x="801" y="1065.8706">"Unsupported or immutable drift detected?"</text><rect fill="#F8FAFC" height="33.9688" rx="12.5" ry="12.5" style="stroke:#475569;stroke-width:0.5;" width="453" x="699" y="1236.3594"/><text fill="#0F172A" font-family="sans-serif" font-size="12" lengthAdjust="spacing" textLength="433" x="709" y="1257.498">Reuse the tracked OCID from status or spec before any fresh lookup.</text><rect fill="#F8FAFC" height="33.9688" rx="12.5" ry="12.5" style="stroke:#475569;stroke-width:0.5;" width="643" x="604" y="1290.3281"/><text fill="#0F172A" font-family="sans-serif" font-size="12" lengthAdjust="spacing" textLength="623" x="614" y="1311.4668">Move the VCN compartment before calling the mutable update path when compartment drift exists.</text><polygon fill="#E2E8F0" points="848,1344.2969,1003,1344.2969,1015,1356.2969,1003,1368.2969,848,1368.2969,836,1356.2969,848,1344.2969" style="stroke:#475569;stroke-width:0.5;"/><text fill="#0F172A" font-family="sans-serif" font-size="11" lengthAdjust="spacing" textLength="155" x="848" y="1360.105">"Supported drift detected?"</text><text fill="#000000" font-family="sans-serif" font-size="11" lengthAdjust="spacing" textLength="20" x="816" y="1353.7026">yes</text><text fill="#000000" font-family="sans-serif" font-size="11" lengthAdjust="spacing" textLength="14" x="1015" y="1353.7026">no</text><rect fill="#F8FAFC" height="33.9688" rx="12.5" ry="12.5" style="stroke:#475569;stroke-width:0.5;" width="329" x="617.75" y="1378.2969"/><text fill="#0F172A" font-family="sans-serif" font-size="12" lengthAdjust="spacing" textLength="309" x="627.75" y="1399.4355">Apply only the supported in-place update surface</text><rect fill="#F8FAFC" height="33.9688" rx="12.5" ry="12.5" style="stroke:#475569;stroke-width:0.5;" width="204" x="966.75" y="1378.2969"/><text fill="#0F172A" font-family="sans-serif" font-size="12" lengthAdjust="spacing" textLength="184" x="976.75" y="1399.4355">Skip the no-op mutation path</text><polygon fill="#E2E8F0" points="925.5,1418.2656,937.5,1430.2656,925.5,1442.2656,913.5,1430.2656,925.5,1418.2656" style="stroke:#475569;stroke-width:0.5;"/><rect fill="#F8FAFC" height="33.9688" rx="12.5" ry="12.5" style="stroke:#475569;stroke-width:0.5;" width="287" x="782" y="1462.2656"/><text fill="#0F172A" font-family="sans-serif" font-size="12" lengthAdjust="spacing" textLength="267" x="792" y="1483.4043">Return success for the usable active state</text><line style="stroke:#334155;stroke-width:1.0;" x1="609" x2="609" y1="147.5625" y2="167.5625"/><polygon fill="#334155" points="605,157.5625,609,167.5625,613,157.5625,609,161.5625" style="stroke:#334155;stroke-width:1.0;"/><line style="stroke:#334155;stroke-width:1.0;" x1="775.5" x2="775.5" y1="289.5" y2="309.5"/><polygon fill="#334155" points="771.5,299.5,775.5,309.5,779.5,299.5,775.5,303.5" style="stroke:#334155;stroke-width:1.0;"/><line style="stroke:#334155;stroke-width:1.0;" x1="775.5" x2="775.5" y1="343.4688" y2="363.4688"/><polygon fill="#334155" points="771.5,353.4688,775.5,363.4688,779.5,353.4688,775.5,357.4688" style="stroke:#334155;stroke-width:1.0;"/><line style="stroke:#334155;stroke-width:1.0;" x1="497" x2="442.5" y1="233.5313" y2="233.5313"/><line style="stroke:#334155;stroke-width:1.0;" x1="442.5" x2="442.5" y1="233.5313" y2="255.5313"/><polygon fill="#334155" points="438.5,245.5313,442.5,255.5313,446.5,245.5313,442.5,249.5313" style="stroke:#334155;stroke-width:1.0;"/><line style="stroke:#334155;stroke-width:1.0;" x1="721" x2="775.5" y1="233.5313" y2="233.5313"/><line style="stroke:#334155;stroke-width:1.0;" x1="775.5" x2="775.5" y1="233.5313" y2="255.5313"/><polygon fill="#334155" points="771.5,245.5313,775.5,255.5313,779.5,245.5313,775.5,249.5313" style="stroke:#334155;stroke-width:1.0;"/><line style="stroke:#334155;stroke-width:1.0;" x1="442.5" x2="442.5" y1="289.5" y2="415.4375"/><line style="stroke:#334155;stroke-width:1.0;" x1="442.5" x2="597" y1="415.4375" y2="415.4375"/><polygon fill="#334155" points="587,411.4375,597,415.4375,587,419.4375,591,415.4375" style="stroke:#334155;stroke-width:1.0;"/><line style="stroke:#334155;stroke-width:1.0;" x1="775.5" x2="775.5" y1="397.4375" y2="415.4375"/><line style="stroke:#334155;stroke-width:1.0;" x1="775.5" x2="621" y1="415.4375" y2="415.4375"/><polygon fill="#334155" points="631,411.4375,621,415.4375,631,419.4375,627,415.4375" style="stroke:#334155;stroke-width:1.0;"/><line style="stroke:#334155;stroke-width:1.0;" x1="609" x2="609" y1="201.5313" y2="221.5313"/><polygon fill="#334155" points="605,211.5313,609,221.5313,613,211.5313,609,215.5313" style="stroke:#334155;stroke-width:1.0;"/><line style="stroke:#334155;stroke-width:1.0;" x1="609" x2="609" y1="67.2969" y2="113.5938"/><polygon fill="#334155" points="605,103.5938,609,113.5938,613,103.5938,609,107.5938" style="stroke:#334155;stroke-width:1.0;"/><line style="stroke:#334155;stroke-width:1.0;" x1="292.5" x2="292.5" y1="563.7031" y2="598.7031"/><polygon fill="#334155" points="288.5,588.7031,292.5,598.7031,296.5,588.7031,292.5,592.7031" style="stroke:#334155;stroke-width:1.0;"/><line style="stroke:#334155;stroke-width:1.0;" x1="292.5" x2="292.5" y1="632.6719" y2="667.6719"/><polygon fill="#334155" points="288.5,657.6719,292.5,667.6719,296.5,657.6719,292.5,661.6719" style="stroke:#334155;stroke-width:1.0;"/><line style="stroke:#334155;stroke-width:1.0;" x1="292.5" x2="292.5" y1="701.6406" y2="748.6406"/><polygon fill="#334155" points="288.5,738.6406,292.5,748.6406,296.5,738.6406,292.5,742.6406" style="stroke:#334155;stroke-width:1.0;"/><line style="stroke:#334155;stroke-width:1.0;" x1="925.5" x2="925.5" y1="612.1055" y2="647.1055"/><polygon fill="#334155" points="921.5,637.1055,925.5,647.1055,929.5,637.1055,925.5,641.1055" style="stroke:#334155;stroke-width:1.0;"/><line style="stroke:#334155;stroke-width:1.0;" x1="925.5" x2="925.5" y1="553.7344" y2="578.1367"/><polygon fill="#334155" points="921.5,568.1367,925.5,578.1367,929.5,568.1367,925.5,572.1367" style="stroke:#334155;stroke-width:1.0;"/><line style="stroke:#334155;stroke-width:1.0;" x1="1017.5" x2="1069.5" y1="541.7344" y2="541.7344"/><polygon fill="#334155" points="1065.5,610.6211,1069.5,620.6211,1073.5,610.6211,1069.5,614.6211" style="stroke:#334155;stroke-width:1.0;"/><line style="stroke:#334155;stroke-width:1.0;" x1="1069.5" x2="1069.5" y1="541.7344" y2="699.5078"/><line style="stroke:#334155;stroke-width:1.0;" x1="1069.5" x2="925.5" y1="699.5078" y2="699.5078"/><line style="stroke:#334155;stroke-width:1.0;" x1="925.5" x2="925.5" y1="699.5078" y2="726.5078"/><polygon fill="#334155" points="921.5,716.5078,925.5,726.5078,929.5,716.5078,925.5,720.5078" style="stroke:#334155;stroke-width:1.0;"/><line style="stroke:#334155;stroke-width:1.0;" x1="925.5" x2="925.5" y1="808.8789" y2="837.3945"/><polygon fill="#334155" points="921.5,827.3945,925.5,837.3945,929.5,827.3945,925.5,831.3945" style="stroke:#334155;stroke-width:1.0;"/><line style="stroke:#334155;stroke-width:1.0;" x1="925.5" x2="925.5" y1="750.5078" y2="774.9102"/><polygon fill="#334155" points="921.5,764.9102,925.5,774.9102,929.5,764.9102,925.5,768.9102" style="stroke:#334155;stroke-width:1.0;"/><line style="stroke:#334155;stroke-width:1.0;" x1="1007.5" x2="1097.5" y1="738.5078" y2="738.5078"/><polygon fill="#334155" points="1093.5,807.3945,1097.5,817.3945,1101.5,807.3945,1097.5,811.3945" style="stroke:#334155;stroke-width:1.0;"/><line style="stroke:#334155;stroke-width:1.0;" x1="1097.5" x2="1097.5" y1="738.5078" y2="889.7969"/><line style="stroke:#334155;stroke-width:1.0;" x1="1097.5" x2="925.5" y1="889.7969" y2="889.7969"/><line style="stroke:#334155;stroke-width:1.0;" x1="925.5" x2="925.5" y1="889.7969" y2="981.0938"/><polygon fill="#334155" points="921.5,971.0938,925.5,981.0938,929.5,971.0938,925.5,975.0938" style="stroke:#334155;stroke-width:1.0;"/><line style="stroke:#334155;stroke-width:1.0;" x1="925.5" x2="925.5" y1="1132.4336" y2="1167.4336"/><polygon fill="#334155" points="921.5,1157.4336,925.5,1167.4336,929.5,1157.4336,925.5,1161.4336" style="stroke:#334155;stroke-width:1.0;"/><line style="stroke:#334155;stroke-width:1.0;" x1="925.5" x2="925.5" y1="1074.0625" y2="1098.4648"/><polygon fill="#334155" points="921.5,1088.4648,925.5,1098.4648,929.5,1088.4648,925.5,1092.4648" style="stroke:#334155;stroke-width:1.0;"/><line style="stroke:#334155;stroke-width:1.0;" x1="1062" x2="1080.5" y1="1062.0625" y2="1062.0625"/><polygon fill="#334155" points="1076.5,1130.9492,1080.5,1140.9492,1084.5,1130.9492,1080.5,1134.9492" style="stroke:#334155;stroke-width:1.0;"/><line style="stroke:#334155;stroke-width:1.0;" x1="1080.5" x2="1080.5" y1="1062.0625" y2="1216.3594"/><line style="stroke:#334155;stroke-width:1.0;" x1="1080.5" x2="925.5" y1="1216.3594" y2="1216.3594"/><line style="stroke:#334155;stroke-width:1.0;" x1="925.5" x2="925.5" y1="1216.3594" y2="1236.3594"/><polygon fill="#334155" points="921.5,1226.3594,925.5,1236.3594,929.5,1226.3594,925.5,1230.3594" style="stroke:#334155;stroke-width:1.0;"/><line style="stroke:#334155;stroke-width:1.0;" x1="925.5" x2="925.5" y1="1015.0625" y2="1050.0625"/><polygon fill="#334155" points="921.5,1040.0625,925.5,1050.0625,929.5,1040.0625,925.5,1044.0625" style="stroke:#334155;stroke-width:1.0;"/><line style="stroke:#334155;stroke-width:1.0;" x1="925.5" x2="925.5" y1="1270.3281" y2="1290.3281"/><polygon fill="#334155" points="921.5,1280.3281,925.5,1290.3281,929.5,1280.3281,925.5,1284.3281" style="stroke:#334155;stroke-width:1.0;"/><line style="stroke:#334155;stroke-width:1.0;" x1="836" x2="782.25" y1="1356.2969" y2="1356.2969"/><line style="stroke:#334155;stroke-width:1.0;" x1="782.25" x2="782.25" y1="1356.2969" y2="1378.2969"/><polygon fill="#334155" points="778.25,1368.2969,782.25,1378.2969,786.25,1368.2969,782.25,1372.2969" style="stroke:#334155;stroke-width:1.0;"/><line style="stroke:#334155;stroke-width:1.0;" x1="1015" x2="1068.75" y1="1356.2969" y2="1356.2969"/><line style="stroke:#334155;stroke-width:1.0;" x1="1068.75" x2="1068.75" y1="1356.2969" y2="1378.2969"/><polygon fill="#334155" points="1064.75,1368.2969,1068.75,1378.2969,1072.75,1368.2969,1068.75,1372.2969" style="stroke:#334155;stroke-width:1.0;"/><line style="stroke:#334155;stroke-width:1.0;" x1="782.25" x2="782.25" y1="1412.2656" y2="1430.2656"/><line style="stroke:#334155;stroke-width:1.0;" x1="782.25" x2="913.5" y1="1430.2656" y2="1430.2656"/><polygon fill="#334155" points="903.5,1426.2656,913.5,1430.2656,903.5,1434.2656,907.5,1430.2656" style="stroke:#334155;stroke-width:1.0;"/><line style="stroke:#334155;stroke-width:1.0;" x1="1068.75" x2="1068.75" y1="1412.2656" y2="1430.2656"/><line style="stroke:#334155;stroke-width:1.0;" x1="1068.75" x2="937.5" y1="1430.2656" y2="1430.2656"/><polygon fill="#334155" points="947.5,1426.2656,937.5,1430.2656,947.5,1434.2656,943.5,1430.2656" style="stroke:#334155;stroke-width:1.0;"/><line style="stroke:#334155;stroke-width:1.0;" x1="925.5" x2="925.5" y1="1324.2969" y2="1344.2969"/><polygon fill="#334155" points="921.5,1334.2969,925.5,1344.2969,929.5,1334.2969,925.5,1338.2969" style="stroke:#334155;stroke-width:1.0;"/><line style="stroke:#334155;stroke-width:1.0;" x1="925.5" x2="925.5" y1="1442.2656" y2="1462.2656"/><polygon fill="#334155" points="921.5,1452.2656,925.5,1462.2656,929.5,1452.2656,925.5,1456.2656" style="stroke:#334155;stroke-width:1.0;"/><line style="stroke:#334155;stroke-width:1.0;" x1="540" x2="292.5" y1="471.4375" y2="471.4375"/><line style="stroke:#334155;stroke-width:1.0;" x1="292.5" x2="292.5" y1="471.4375" y2="529.7344"/><polygon fill="#334155" points="288.5,519.7344,292.5,529.7344,296.5,519.7344,292.5,523.7344" style="stroke:#334155;stroke-width:1.0;"/><line style="stroke:#334155;stroke-width:1.0;" x1="678" x2="925.5" y1="471.4375" y2="471.4375"/><line style="stroke:#334155;stroke-width:1.0;" x1="925.5" x2="925.5" y1="471.4375" y2="529.7344"/><polygon fill="#334155" points="921.5,519.7344,925.5,529.7344,929.5,519.7344,925.5,523.7344" style="stroke:#334155;stroke-width:1.0;"/><line style="stroke:#334155;stroke-width:1.0;" x1="925.5" x2="925.5" y1="1496.2344" y2="1514.2344"/><line style="stroke:#334155;stroke-width:1.0;" x1="925.5" x2="609" y1="1514.2344" y2="1514.2344"/><line style="stroke:#334155;stroke-width:1.0;" x1="609" x2="609" y1="427.4375" y2="459.4375"/><polygon fill="#334155" points="605,449.4375,609,459.4375,613,449.4375,609,453.4375" style="stroke:#334155;stroke-width:1.0;"/><!--SRC=[VLRRSjis47tdLs3S5sScyiH9RAVnGuVMnTNKjJtovHq2bn8g461niQ9syk_TNL0o5QlnJ6mIsElPiuU9EXeGTyEfU1xUYXaePvN6ar95_QBZfWWhRLlfPIF2KbPkhUr2rD84wDrSIRLQU9TiDNJ6UV7BX7zw5gNtRjrTVlhq-VJih7TPGIsJYO_mBPP6Bsm3DWe3TUpPoAuUyMyX3kJxCYadGxfnlWBVdNw-E3ix_nLF9yx6xkp3vFJYOubd8oqRPwiteSOVnryc7te61oC-HEbVGrwSdu_nSBmBSZ4v7PsEYkz58BkYm1wYZjfPSNGt3-1VG4XRYIjjgoFkwEiCP2M6Cn5QKEy5kiKKQ2oZzsnPWO48Gjk8s5oImny0RMStc5FzR2raYaldDPvhJ59ZCKP6y2Ar5VuL-Dw5QcLS1egaQt5yzEWH1wZe7hwrHYiTSxpMGy2Klnsz4t49LXnl8Bn3BwpW6YATCNdGoYMlGCmtOcNTsWfTePkkDNXA0aWOSMnTvpf3SyCWO3eT8f7gnp2L3gsH6s5b0vVPROXpr3Q1CEY37IoqbOngmdCZf6XaLClSn5AcG7UTwptuG4vKiC_PkLlb0N7fm9iZ28Inwu3bocsbQvnamJYDCdWU_auGqEyDBhr9PziyNwpW8SsRZEfs13ITRlDU6worRx811Ldhk4GxOznwa5g1a3yhAvGq9dHDRnjYs7GG2sTvpDP5T4HUd5nkCMySGaxsDU9cz3z82raJENOrKKgCeN8PK97hT_mNeckB_WnxRTxe6jH6eMOCZGm1HwvuADl66JVAG9WIXR7Sw3ToZXu13Z6BYsM0Cz0fRykA6BzN_cLdpkNHGnxMuQorH5shVfOo9c-9aic6f1I4K2V45tn3-R2KhJOYt2XN_viSkR874AtsXZiOULr7yJi-6cJyZXb3rw0viVebRrEkcMTF_ORKjiuJIoiE49AlfUgMWXjzigysE7lTD2aomDcXGhQfGspj6lyBRpcJMagxmEq3f2Q1lk5oADZhAXs46uEaaCaLEodXZQgzQxPgXeMHklMZrmZbKXZdLgdTylJFBKlfWwGOciXVXCwFo4zwGIRRDZjr8qqJQsgmxvSnO9q99ptG7dw0zUSebMrhDi9P_BK_4sq7g5DgLyJUTFPrZrHWfJE9hHkuTWSjbtxv5bIcPCT6rWjoJO6RvayYPBBaHSskHMsSP4b53K2swiKo5gLNIuYR5huMWvq03hZnGPQZGQUdK1MptOBks1Z8xtvszpnzcDxTJc-lyVNfVbG-qcEPAzatBf_BwKrvTJCk9ddpzgydU3iUuSDeV3D-nAUdFVZ8fFy5m5Sa2p6W4L4k0bq32W76vTUEn1r765QEeNJbhun3NUTUoSs66pa7qnrSaKPAls6mkB97MeJaFN67yk7kyrqM8FoYcMfWu6KRWKbDgXSojQouTiY_AejMwrqB7l_VWW5Y4EXcSOOkBV9gewH4Z_8Edftno_cgCu4xuoXzEfEAXvDYkFCSO7jOexOlqcjf8pVnm3jtdx_UJm52FfXkZOWht5Rn7m00]--></g></svg>