<?xml version="1.0" encoding="UTF-8" standalone="no"?><svg xmlns="http://www.w3.org/2000/svg" xmlns:xlink="http://www.w3.org/1999/xlink" contentStyleType="text/css" height="454px" preserveAspectRatio="none" style="width:2362px;height:454px;background:#FFFFFF;" version="1.1" viewBox="0 0 2362 454" width="2362px" zoomAndPan="magnify"><defs/><g><text fill="#000000" font-family="sans-serif" font-size="14" font-weight="bold" lengthAdjust="spacing" textLength="262" x="1043.02" y="22.9951">OCI VCN Reconcile State Machine</text><ellipse cx="16" cy="296.7969" fill="#222222" rx="10" ry="10" style="stroke:none;stroke-width:1.0;"/><g id="Observe"><rect fill="#F8FAFC" height="50.2656" rx="6" ry="6" style="stroke:#475569;stroke-width:0.5;" width="329" x="86" y="271.7969"/><line style="stroke:#475569;stroke-width:0.5;" x1="86" x2="415" y1="298.0938" y2="298.0938"/><text fill="#0F172A" font-family="sans-serif" font-size="14" lengthAdjust="spacing" textLength="58" x="221.5" y="289.792">Observe</text><text fill="#0F172A" font-family="sans-serif" font-size="12" lengthAdjust="spacing" textLength="309" x="91" y="314.2324">read spec, status, delete intent, and OCI lifecycle</text></g><rect fill="#F8FAFC" height="40" rx="6" ry="6" style="stroke:#475569;stroke-width:0.5;" width="122" x="475" y="276.7969"/><text fill="#0F172A" font-family="sans-serif" font-size="14" lengthAdjust="spacing" textLength="112" x="480" y="301.6436">ResolveByName</text><rect fill="#F8FAFC" height="40" rx="6" ry="6" style="stroke:#475569;stroke-width:0.5;" width="130" x="657" y="276.7969"/><text fill="#0F172A" font-family="sans-serif" font-size="14" lengthAdjust="spacing" textLength="120" x="662" y="301.6436">PaginatedLookup</text><rect fill="#F8FAFC" height="40" rx="6" ry="6" style="stroke:#475569;stroke-width:0.5;" width="111" x="847" y="185.7969"/><text fill="#0F172A" font-family="sans-serif" font-size="14" lengthAdjust="spacing" textLength="101" x="852" y="210.6436">EvaluateReady</text><rect fill="#F8FAFC" height="40" rx="6" ry="6" style="stroke:#475569;stroke-width:0.5;" width="75" x="1262" y="276.7969"/><text fill="#0F172A" font-family="sans-serif" font-size="14" lengthAdjust="spacing" textLength="65" x="1267" y="301.6436">Retryable</text><rect fill="#F8FAFC" height="40" rx="6" ry="6" style="stroke:#475569;stroke-width:0.5;" width="50" x="1409.5" y="360.7969"/><text fill="#0F172A" font-family="sans-serif" font-size="14" lengthAdjust="spacing" textLength="40" x="1414.5" y="385.6436">Failed</text><rect fill="#F8FAFC" height="40" rx="6" ry="6" style="stroke:#475569;stroke-width:0.5;" width="173" x="1018" y="110.7969"/><text fill="#0F172A" font-family="sans-serif" font-size="14" lengthAdjust="spacing" textLength="163" x="1023" y="135.6436">RejectUnsupportedDrift</text><rect fill="#F8FAFC" height="40" rx="6" ry="6" style="stroke:#475569;stroke-width:0.5;" width="53" x="1408" y="162.7969"/><text fill="#0F172A" font-family="sans-serif" font-size="14" lengthAdjust="spacing" textLength="43" x="1413" y="187.6436">Ready</text><rect fill="#F8FAFC" height="40" rx="6" ry="6" style="stroke:#475569;stroke-width:0.5;" width="142" x="1033.5" y="185.7969"/><text fill="#0F172A" font-family="sans-serif" font-size="14" lengthAdjust="spacing" textLength="132" x="1038.5" y="210.6436">MoveCompartment</text><rect fill="#F8FAFC" height="40" rx="6" ry="6" style="stroke:#475569;stroke-width:0.5;" width="97" x="1251" y="183.7969"/><text fill="#0F172A" font-family="sans-serif" font-size="14" lengthAdjust="spacing" textLength="87" x="1256" y="208.6436">ApplyUpdate</text><rect fill="#F8FAFC" height="40" rx="6" ry="6" style="stroke:#475569;stroke-width:0.5;" width="113" x="1664.5" y="315.7969"/><text fill="#0F172A" font-family="sans-serif" font-size="14" lengthAdjust="spacing" textLength="103" x="1669.5" y="340.6436">DeletePending</text><rect fill="#F8FAFC" height="40" rx="6" ry="6" style="stroke:#475569;stroke-width:0.5;" width="65" x="2130" y="262.7969"/><text fill="#0F172A" font-family="sans-serif" font-size="14" lengthAdjust="spacing" textLength="55" x="2135" y="287.6436">Deleted</text><g id="elem_GMN34"><path d="M1521,49.2969 L1521,185.4669 L1461.2,189.4669 L1521,193.4669 L1521,274.2891 A6,6 0 0 0 1527,280.2891 L1915,280.2891 A6,6 0 0 0 1921,274.2891 L1921,53.2969 L1911,43.2969 L1527,43.2969 A6,6 0 0 0 1521,49.2969 " fill="#FFF7ED" style="stroke:#181818;stroke-width:0.5;"/><path d="M1911,43.2969 L1911,50.2969 A3,3 0 0 0 1914,53.2969 L1921,53.2969 L1911,43.2969 " fill="#FFF7ED" style="stroke:#181818;stroke-width:0.5;"/><text fill="#0F172A" font-family="sans-serif" font-size="13" lengthAdjust="spacing" textLength="69" x="1527" y="60.3638">Archetype:</text><text fill="#0F172A" font-family="sans-serif" font-size="13" lengthAdjust="spacing" textLength="207" x="1527" y="75.4966">- resolved-drift-delete-paginated</text><text fill="#0F172A" font-family="sans-serif" font-size="13" lengthAdjust="spacing" textLength="102" x="1527" y="90.6294">Update surface:</text><text fill="#0F172A" font-family="sans-serif" font-size="13" lengthAdjust="spacing" textLength="94" x="1527" y="105.7622">- display name</text><text fill="#0F172A" font-family="sans-serif" font-size="13" lengthAdjust="spacing" textLength="96" x="1527" y="120.895">- freeform tags</text><text fill="#0F172A" font-family="sans-serif" font-size="13" lengthAdjust="spacing" textLength="88" x="1527" y="136.0278">- defined tags</text><text fill="#0F172A" font-family="sans-serif" font-size="13" lengthAdjust="spacing" textLength="139" x="1527" y="151.1606">Reject before mutate:</text><text fill="#0F172A" font-family="sans-serif" font-size="13" lengthAdjust="spacing" textLength="95" x="1527" y="166.2935">- cidrBlock drift</text><text fill="#0F172A" font-family="sans-serif" font-size="13" lengthAdjust="spacing" textLength="95" x="1527" y="181.4263">- dnsLabel drift</text><text fill="#0F172A" font-family="sans-serif" font-size="13" lengthAdjust="spacing" textLength="105" x="1527" y="196.5591">Boundary notes:</text><text fill="#0F172A" font-family="sans-serif" font-size="13" lengthAdjust="spacing" textLength="353" x="1527" y="211.6919">- The current formal notes keep field-level drift specifics</text><text fill="#0F172A" font-family="sans-serif" font-size="13" lengthAdjust="spacing" textLength="363" x="1543" y="226.8247">in Go code and property tests even though the controller</text><text fill="#0F172A" font-family="sans-serif" font-size="13" lengthAdjust="spacing" textLength="296" x="1543" y="241.9575">now reconciles tags and compartment moves.</text><text fill="#0F172A" font-family="sans-serif" font-size="13" lengthAdjust="spacing" textLength="166" x="1527" y="257.0903">Controller-local invariants:</text><text fill="#0F172A" font-family="sans-serif" font-size="13" lengthAdjust="spacing" textLength="229" x="1527" y="272.2231">- StatusPresentUsesStatusInvariant</text></g><g id="elem_GMN37"><path d="M1981,344.2969 L1981,343.0469 L1777.81,347.0469 L1981,351.0469 L1981,433.0938 A6,6 0 0 0 1987,439.0938 L2338,439.0938 A6,6 0 0 0 2344,433.0938 L2344,348.2969 L2334,338.2969 L1987,338.2969 A6,6 0 0 0 1981,344.2969 " fill="#FFF7ED" style="stroke:#181818;stroke-width:0.5;"/><path d="M2334,338.2969 L2334,345.2969 A3,3 0 0 0 2337,348.2969 L2344,348.2969 L2334,338.2969 " fill="#FFF7ED" style="stroke:#181818;stroke-width:0.5;"/><text fill="#0F172A" font-family="sans-serif" font-size="13" lengthAdjust="spacing" textLength="90" x="1987" y="355.3638">Delete states:</text><text fill="#0F172A" font-family="sans-serif" font-size="13" lengthAdjust="spacing" textLength="102" x="1987" y="370.4966">- DeletePending</text><text fill="#0F172A" font-family="sans-serif" font-size="13" lengthAdjust="spacing" textLength="59" x="1987" y="385.6294">- Deleted</text><text fill="#0F172A" font-family="sans-serif" font-size="13" lengthAdjust="spacing" textLength="103" x="1987" y="400.7622">Delete workflow:</text><text fill="#0F172A" font-family="sans-serif" font-size="13" lengthAdjust="spacing" textLength="342" x="1987" y="415.895">- Confirm deletion with follow-up GetVcn calls until the</text><text fill="#0F172A" font-family="sans-serif" font-size="13" lengthAdjust="spacing" textLength="192" x="2003" y="431.0278">resource is gone or not found.</text></g><!--link *start to Observe--><g id="link_*start_Observe"><path d="M26.08,296.7969 C26.08,296.7969 80.84,296.7969 80.84,296.7969 " fill="none" id="*start-to-Observe" style="stroke:#181818;stroke-width:1.0;"/><polygon fill="#181818" points="85.84,296.7969,76.84,292.7969,80.84,296.7969,76.84,300.7969,85.84,296.7969" style="stroke:#181818;stroke-width:1.0;"/></g><!--link Observe to ResolveByName--><g id="link_Observe_ResolveByName"><path d="M415.34,296.7969 C415.34,296.7969 469.86,296.7969 469.86,296.7969 " fill="none" id="Observe-to-ResolveByName" style="stroke:#181818;stroke-width:1.0;"/><polygon fill="#181818" points="474.86,296.7969,465.86,292.7969,469.86,296.7969,465.86,300.7969,474.86,296.7969" style="stroke:#181818;stroke-width:1.0;"/><text fill="#000000" font-family="sans-serif" font-size="13" lengthAdjust="spacing" textLength="163" x="443.6" y="309.8638">status/spec OCID missing</text></g><!--link ResolveByName to PaginatedLookup--><g id="link_ResolveByName_PaginatedLookup"><path d="M597.16,296.7969 C597.16,296.7969 651.96,296.7969 651.96,296.7969 " fill="none" id="ResolveByName-to-PaginatedLookup" style="stroke:#181818;stroke-width:1.0;"/><polygon fill="#181818" points="656.96,296.7969,647.96,292.7969,651.96,296.7969,647.96,300.7969,656.96,296.7969" style="stroke:#181818;stroke-width:1.0;"/><text fill="#000000" font-family="sans-serif" font-size="13" lengthAdjust="spacing" textLength="219" x="625.56" y="309.8638">continue searching later list pages</text></g><!--link PaginatedLookup to EvaluateReady--><g id="link_PaginatedLookup_EvaluateReady"><path d="M787.09,286.7969 C838.98,286.7969 903,286.7969 903,286.7969 C903,286.7969 903,230.8169 903,230.8169 " fill="none" id="PaginatedLookup-to-EvaluateReady" style="stroke:#181818;stroke-width:1.0;"/><polygon fill="#181818" points="903,225.8169,899,234.8169,903,230.8169,907,234.8169,903,225.8169" style="stroke:#181818;stroke-width:1.0;"/><text fill="#000000" font-family="sans-serif" font-size="13" lengthAdjust="spacing" textLength="148" x="874.03" y="282.8638">OCI state in AVAILABLE</text></g><!--link PaginatedLookup to Retryable--><g id="link_PaginatedLookup_Retryable"><path d="M787.12,296.7969 C787.12,296.7969 1256.7,296.7969 1256.7,296.7969 " fill="none" id="PaginatedLookup-to-Retryable" style="stroke:#181818;stroke-width:1.0;"/><polygon fill="#181818" points="1261.7,296.7969,1252.7,292.7969,1256.7,296.7969,1252.7,300.7969,1261.7,296.7969" style="stroke:#181818;stroke-width:1.0;"/><text fill="#000000" font-family="sans-serif" font-size="13" lengthAdjust="spacing" textLength="246" x="1022.91" y="309.8638">OCI state in PROVISIONING, UPDATING</text></g><!--link PaginatedLookup to Failed--><g id="link_PaginatedLookup_Failed"><path d="M722,317.1169 C722,340.0269 722,374.1269 722,374.1269 C722,374.1269 1404.14,374.1269 1404.14,374.1269 " fill="none" id="PaginatedLookup-to-Failed" style="stroke:#181818;stroke-width:1.0;"/><polygon fill="#181818" points="1409.14,374.1269,1400.14,370.1269,1404.14,374.1269,1400.14,378.1269,1409.14,374.1269" style="stroke:#181818;stroke-width:1.0;"/><text fill="#000000" font-family="sans-serif" font-size="13" lengthAdjust="spacing" textLength="188" x="845.56" y="387.1938">OCI state in FAILED, DELETED</text></g><!--link EvaluateReady to RejectUnsupportedDrift--><g id="link_EvaluateReady_RejectUnsupportedDrift"><path d="M958.11,199.1269 C990.89,199.1269 1026,199.1269 1026,199.1269 C1026,199.1269 1026,155.9269 1026,155.9269 " fill="none" id="EvaluateReady-to-RejectUnsupportedDrift" style="stroke:#181818;stroke-width:1.0;"/><polygon fill="#181818" points="1026,150.9269,1022,159.9269,1026,155.9269,1030,159.9269,1026,150.9269" style="stroke:#181818;stroke-width:1.0;"/><text fill="#000000" font-family="sans-serif" font-size="13" lengthAdjust="spacing" textLength="275" x="737.65" y="195.1938">unsupported or immutable drift is detected</text></g><!--link RejectUnsupportedDrift to Ready--><g id="link_RejectUnsupportedDrift_Ready"><path d="M1184,150.8369 C1184,163.2369 1184,176.7969 1184,176.7969 C1184,176.7969 1402.69,176.7969 1402.69,176.7969 " fill="none" id="RejectUnsupportedDrift-to-Ready" style="stroke:#181818;stroke-width:1.0;"/><polygon fill="#181818" points="1407.69,176.7969,1398.69,172.7969,1402.69,176.7969,1398.69,180.7969,1407.69,176.7969" style="stroke:#181818;stroke-width:1.0;"/><text fill="#000000" font-family="sans-serif" font-size="13" lengthAdjust="spacing" textLength="252" x="1027.37" y="172.8638">wait for the spec or live state to change</text></g><!--link EvaluateReady to MoveCompartment--><g id="link_EvaluateReady_MoveCompartment"><path d="M958.23,212.4669 C958.23,212.4669 1028.4,212.4669 1028.4,212.4669 " fill="none" id="EvaluateReady-to-MoveCompartment" style="stroke:#181818;stroke-width:1.0;"/><polygon fill="#181818" points="1033.4,212.4669,1024.4,208.4669,1028.4,212.4669,1024.4,216.4669,1033.4,212.4669" style="stroke:#181818;stroke-width:1.0;"/><text fill="#000000" font-family="sans-serif" font-size="13" lengthAdjust="spacing" textLength="158" x="834.32" y="225.5338">continue active reconcile</text></g><!--link MoveCompartment to ApplyUpdate--><g id="link_MoveCompartment_ApplyUpdate"><path d="M1175.73,204.7969 C1175.73,204.7969 1245.99,204.7969 1245.99,204.7969 " fill="none" id="MoveCompartment-to-ApplyUpdate" style="stroke:#181818;stroke-width:1.0;"/><polygon fill="#181818" points="1250.99,204.7969,1241.99,200.7969,1245.99,204.7969,1241.99,208.7969,1250.99,204.7969" style="stroke:#181818;stroke-width:1.0;"/><text fill="#000000" font-family="sans-serif" font-size="13" lengthAdjust="spacing" textLength="221" x="1211.86" y="217.8638">continue after compartment move</text></g><!--link ApplyUpdate to Ready--><g id="link_ApplyUpdate_Ready"><path d="M1348.24,193.2969 C1348.24,193.2969 1402.81,193.2969 1402.81,193.2969 " fill="none" id="ApplyUpdate-to-Ready" style="stroke:#181818;stroke-width:1.0;"/><polygon fill="#181818" points="1407.81,193.2969,1398.81,189.2969,1402.81,193.2969,1398.81,197.2969,1407.81,193.2969" style="stroke:#181818;stroke-width:1.0;"/><text fill="#000000" font-family="sans-serif" font-size="13" lengthAdjust="spacing" textLength="231" x="1143.52" y="189.3638">supported mutation path completes</text></g><!--link Ready to Ready--><g id="link_Ready_Ready"><path d="M1407.84,169.7969 C1389.33,169.7969 1368,169.7969 1368,169.7969 C1368,169.7969 1368,156.7969 1368,156.7969 C1368,156.7969 1481,156.7969 1481,156.7969 C1481,156.7969 1481,176.1269 1481,176.1269 C1481,176.1269 1466.01,176.1269 1466.01,176.1269 " fill="none" id="Ready-to-Ready" style="stroke:#181818;stroke-width:1.0;"/><polygon fill="#181818" points="1461.01,176.1269,1470.01,180.1269,1466.01,176.1269,1470.01,172.1269,1461.01,176.1269" style="stroke:#181818;stroke-width:1.0;"/><text fill="#000000" font-family="sans-serif" font-size="13" lengthAdjust="spacing" textLength="170" x="1239.24" y="147.8638">no supported drift remains</text></g><!--link Retryable to Retryable--><g id="link_Retryable_Retryable"><path d="M1261.88,306.7969 C1258.89,306.7969 1257,306.7969 1257,306.7969 C1257,306.7969 1257,328.5969 1257,328.5969 C1257,328.5969 1343,328.5969 1343,328.5969 C1343,328.5969 1343,307.1269 1343,307.1269 C1343,307.1269 1342.31,307.1269 1342.31,307.1269 " fill="none" id="Retryable-to-Retryable" style="stroke:#181818;stroke-width:1.0;"/><polygon fill="#181818" points="1337.31,307.1269,1346.31,311.1269,1342.31,307.1269,1346.31,303.1269,1337.31,307.1269" style="stroke:#181818;stroke-width:1.0;"/><text fill="#000000" font-family="sans-serif" font-size="13" lengthAdjust="spacing" textLength="159" x="1132.74" y="346.6638">OCI remains nonterminal</text></g><!--link Failed to Failed--><g id="link_Failed_Failed"><path d="M1409.34,387.4669 C1398.39,387.4669 1388,387.4669 1388,387.4669 C1388,387.4669 1388,420.0469 1388,420.0469 C1388,420.0469 1501,420.0469 1501,420.0469 C1501,420.0469 1501,380.7969 1501,380.7969 C1501,380.7969 1464.64,380.7969 1464.64,380.7969 " fill="none" id="Failed-to-Failed" style="stroke:#181818;stroke-width:1.0;"/><polygon fill="#181818" points="1459.64,380.7969,1468.64,384.7969,1464.64,380.7969,1468.64,376.7969,1459.64,380.7969" style="stroke:#181818;stroke-width:1.0;"/><text fill="#000000" font-family="sans-serif" font-size="13" lengthAdjust="spacing" textLength="135" x="1314.34" y="438.1138">OCI remains terminal</text></g><!--link Ready to DeletePending--><g id="link_Ready_DeletePending"><path d="M1427,203.0569 C1427,244.5669 1427,335.3969 1427,335.3969 C1427,335.3969 1659.31,335.3969 1659.31,335.3969 " fill="none" id="Ready-to-DeletePending" style="stroke:#181818;stroke-width:1.0;"/><polygon fill="#181818" points="1664.31,335.3969,1655.31,331.3969,1659.31,335.3969,1655.31,339.3969,1664.31,335.3969" style="stroke:#181818;stroke-width:1.0;"/><text fill="#000000" font-family="sans-serif" font-size="13" lengthAdjust="spacing" textLength="109" x="1366.99" y="331.4638">delete requested</text></g><!--link Retryable to DeletePending--><g id="link_Retryable_DeletePending"><path d="M1300,316.8469 C1300,329.0069 1300,342.1969 1300,342.1969 C1300,342.1969 1659.22,342.1969 1659.22,342.1969 " fill="none" id="Retryable-to-DeletePending" style="stroke:#181818;stroke-width:1.0;"/><polygon fill="#181818" points="1664.22,342.1969,1655.22,338.1969,1659.22,342.1969,1655.22,346.1969,1664.22,342.1969" style="stroke:#181818;stroke-width:1.0;"/><text fill="#000000" font-family="sans-serif" font-size="13" lengthAdjust="spacing" textLength="109" x="1356.93" y="355.2638">delete requested</text></g><!--link Failed to DeletePending--><g id="link_Failed_DeletePending"><path d="M1443,360.4769 C1443,354.2469 1443,348.9969 1443,348.9969 C1443,348.9969 1659.41,348.9969 1659.41,348.9969 " fill="none" id="Failed-to-DeletePending" style="stroke:#181818;stroke-width:1.0;"/><polygon fill="#181818" points="1664.41,348.9969,1655.41,344.9969,1659.41,348.9969,1655.41,352.9969,1664.41,348.9969" style="stroke:#181818;stroke-width:1.0;"/><text fill="#000000" font-family="sans-serif" font-size="13" lengthAdjust="spacing" textLength="109" x="1546.46" y="362.0638">delete requested</text></g><!--link DeletePending to Deleted--><g id="link_DeletePending_Deleted"><path d="M1777.88,327.0469 C1897.26,327.0469 2163,327.0469 2163,327.0469 C2163,327.0469 2163,307.8469 2163,307.8469 " fill="none" id="DeletePending-to-Deleted" style="stroke:#181818;stroke-width:1.0;"/><polygon fill="#181818" points="2163,302.8469,2159,311.8469,2163,307.8469,2167,311.8469,2163,302.8469" style="stroke:#181818;stroke-width:1.0;"/><text fill="#000000" font-family="sans-serif" font-size="13" lengthAdjust="spacing" textLength="373" x="1981.04" y="327.3638">OCI deletion is confirmed and the finalizer can be removed</text></g><!--link Deleted to Deleted--><g id="link_Deleted_Deleted"><path d="M2129.97,291.5469 C2098.65,291.5469 2056,291.5469 2056,291.5469 C2056,291.5469 2056,311.4669 2056,311.4669 C2056,311.4669 2270,311.4669 2270,311.4669 C2270,311.4669 2270,282.7969 2270,282.7969 C2270,282.7969 2200.05,282.7969 2200.05,282.7969 " fill="none" id="Deleted-to-Deleted" style="stroke:#181818;stroke-width:1.0;"/><polygon fill="#181818" points="2195.05,282.7969,2204.05,286.7969,2200.05,282.7969,2204.05,278.7969,2195.05,282.7969" style="stroke:#181818;stroke-width:1.0;"/><text fill="#000000" font-family="sans-serif" font-size="13" lengthAdjust="spacing" textLength="100" x="2171.37" y="302.5338">terminal stutter</text></g><!--SRC=[XLLDZnit3BthLn3eBR3J9CrscpqKyEV2m6RNy7vSWXwq4cUiMYDD9OrTjyX_Bwdnn6F7HNBPZCJtHF8zqiaaY_0mMS3Bv1vMgBnJXauUaqm8dwLQ6uV2Of4WUGYcN2VG9g1AnZknDXe1gphjGMDKmTJvE6wCgsMG5SIrr7vdN0c5j15xDvPuqxv6y26jVUyY-CPfvOF30Ey_z2x6KctAV3lnrWVuQPx_zI8q5hAnwGd_JYDhIbUXIy2vzpFAXVqh0CO-Q0m7he_NLrU_VgBJkNVfSFPk_lxwmuWZltlvj_beFX5VUxpENw8TVxpwvTsdYnJp-VLiUl71h-BBcpzWEFmT7buZXYsAmr-uWO1IGwnH3N8bJHnGrHRfRUCIbJi0wNJMqve2rLxP8vePLnYztU9uVoyhvcj9VcP6HasXCZ6INk8qaA5BMHf7pTDttc-Qci1abcHSWn1H1dPA2PO20hqT4zIon2ZEKSmqsqhRqDcAYjaJ3wVRwc8SZ5v6YxlH-6vs4Rh25FRorU8vRBbwU5ayBXxk5_Ut0tXUJaTFzB-B77D93jVd17DwTZOTm7HsDtiYPKwJRD_-atp_x69Jr-HQrDDWQ2vke3aUaPt1L5MJSeuw1vX86YM2eXR_mz7IjztOIPEW89wqnYmrSrf30hQvqXogjNGbNaZniz_Yn5TaoPJDtzD8qiWIH-X6N9p7CdvKrtR_N6j-fuyjM5NL2wu8BFhH_GgEtU16y4eWCwHr9c2lHj5lQejnlWTh-nQmaiPnSAVv9GSSeeY01Y1KfBOL1uM_4xkB_HPup6EQfsY9JhEDRxgf2lXNWx5Lhf_53yDxAVmmzZJW2EdIpW3k8Zc9D2bCgEYE1vqjKd0bvXyMI3fuPM9MfwFLPuHTxUIc9j6747brjQlT5wqWOaJpdFVpZHWIOTu5UfXr6RRv3-jkjCJ10h49XLGPeKsihTo3e-L1dqL094TNa6GP-HefQSecVxOZGObJ1BQEoHpAw32sNcrQEp3CnJlvYlPmCEPrAiC-xzx8a2TgXsf2O8VoUrHbleCDOasDGgk75hSTGvukKnWLQGy3Bu5RcYrFlsdSsphu6WFzj151Ya0mH_tsJRdERUVX2DvQwY23dTyTPolcoZBB-T34jsBo3JcayYX7uxOo6EbIBk8nh-GbDPqmpn5ZUx3eWWJv99Trhjo9ZGxgjpiZyvvUTz-TJM3dmwQmViUXazPaH-Fj38rlGJdxtP2sw2sc5-N8RzP6sdx9M6v9xWDxfGaAsQkbT_pxpiaIcCHwUypzFm00]--></g></svg>