<?xml version="1.0" encoding="UTF-8" standalone="no"?><svg xmlns="http://www.w3.org/2000/svg" xmlns:xlink="http://www.w3.org/1999/xlink" contentStyleType="text/css" height="1640px" preserveAspectRatio="none" style="width:1908px;height:1640px;background:#FFFFFF;" version="1.1" viewBox="0 0 1908 1640" width="1908px" zoomAndPan="magnify"><defs/><g><text fill="#000000" font-family="sans-serif" font-size="14" font-weight="bold" lengthAdjust="spacing" textLength="331" x="787" y="32.9951">Autonomous Databases Reconcile Activity</text><ellipse cx="755.5" cy="57.2969" fill="#0F766E" rx="10" ry="10" style="stroke:#222222;stroke-width:1.0;"/><rect fill="none" height="254.2031" style="stroke:#000000;stroke-width:1.5;" width="686" x="433" y="77.2969"/><path d="M566,77.2969 L566,86.5938 L556,96.5938 L433,96.5938 " fill="none" style="stroke:#000000;stroke-width:1.5;"/><text fill="#000000" font-family="sans-serif" font-size="14" lengthAdjust="spacing" textLength="123" x="436" y="91.292">Observe and Bind</text><rect fill="#F8FAFC" height="33.9688" rx="12.5" ry="12.5" style="stroke:#475569;stroke-width:0.5;" width="304" x="603.5" y="113.5938"/><text fill="#0F172A" font-family="sans-serif" font-size="12" lengthAdjust="spacing" textLength="284" x="613.5" y="134.7324">Read CR spec, status OCID, and delete intent</text><polygon fill="#E2E8F0" points="655.5,167.5625,855.5,167.5625,867.5,179.5625,855.5,191.5625,655.5,191.5625,643.5,179.5625,655.5,167.5625" style="stroke:#475569;stroke-width:0.5;"/><text fill="#0F172A" font-family="sans-serif" font-size="11" lengthAdjust="spacing" textLength="200" x="655.5" y="183.3706">"Tracked or explicit OCID present?"</text><text fill="#000000" font-family="sans-serif" font-size="11" lengthAdjust="spacing" textLength="20" x="623.5" y="176.9683">yes</text><text fill="#000000" font-family="sans-serif" font-size="11" lengthAdjust="spacing" textLength="14" x="867.5" y="176.9683">no</text><rect fill="#F8FAFC" height="33.9688" rx="12.5" ry="12.5" style="stroke:#475569;stroke-width:0.5;" width="272" x="453" y="201.5625"/><text fill="#0F172A" font-family="sans-serif" font-size="12" lengthAdjust="spacing" textLength="252" x="463" y="222.7012">Get the OCI resource by known identifier</text><rect fill="#F8FAFC" height="33.9688" rx="12.5" ry="12.5" style="stroke:#475569;stroke-width:0.5;" width="328" x="758" y="201.5625"/><text fill="#0F172A" font-family="sans-serif" font-size="12" lengthAdjust="spacing" textLength="308" x="768" y="222.7012">Resolve an existing OCI resource by display name</text><rect fill="#F8FAFC" height="33.9688" rx="12.5" ry="12.5" style="stroke:#475569;stroke-width:0.5;" width="354" x="745" y="255.5313"/><text fill="#0F172A" font-family="sans-serif" font-size="12" lengthAdjust="spacing" textLength="334" x="755" y="276.6699">Persist the resolved or created OCID back into status</text><polygon fill="#E2E8F0" points="755.5,295.5,767.5,307.5,755.5,319.5,743.5,307.5,755.5,295.5" style="stroke:#475569;stroke-width:0.5;"/><path d="M1511,725.0234 L1511,1294.9375 L1896,1294.9375 L1896,735.0234 L1886,725.0234 L1511,725.0234 " fill="#FEFFDD" style="stroke:#181818;stroke-width:0.5;"/><path d="M1886,725.0234 L1886,735.0234 L1896,735.0234 L1886,725.0234 " fill="#FEFFDD" style="stroke:#181818;stroke-width:0.5;"/><text fill="#000000" font-family="sans-serif" font-size="13" lengthAdjust="spacing" textLength="69" x="1517" y="742.0903">Archetype:</text><text fill="#000000" font-family="sans-serif" font-size="13" lengthAdjust="spacing" textLength="183" x="1517" y="757.2231">- resolved-drift-delete-secret</text><text fill="#000000" font-family="sans-serif" font-size="13" lengthAdjust="spacing" textLength="134" x="1517" y="772.356">Retryable OCI states:</text><text fill="#000000" font-family="sans-serif" font-size="13" lengthAdjust="spacing" textLength="102" x="1517" y="787.4888">- PROVISIONING</text><text fill="#000000" font-family="sans-serif" font-size="13" lengthAdjust="spacing" textLength="76" x="1517" y="802.6216">- UPDATING</text><text fill="#000000" font-family="sans-serif" font-size="13" lengthAdjust="spacing" textLength="72" x="1517" y="817.7544">- STARTING</text><text fill="#000000" font-family="sans-serif" font-size="13" lengthAdjust="spacing" textLength="74" x="1517" y="832.8872">- STOPPING</text><text fill="#000000" font-family="sans-serif" font-size="13" lengthAdjust="spacing" textLength="200" x="1517" y="848.02">- MAINTENANCE_IN_PROGRESS</text><text fill="#000000" font-family="sans-serif" font-size="13" lengthAdjust="spacing" textLength="88" x="1517" y="863.1528">- RESTARTING</text><text fill="#000000" font-family="sans-serif" font-size="13" lengthAdjust="spacing" textLength="148" x="1517" y="878.2856">- SCALE_IN_PROGRESS</text><text fill="#000000" font-family="sans-serif" font-size="13" lengthAdjust="spacing" textLength="159" x="1517" y="893.4185">- BACKUP_IN_PROGRESS</text><text fill="#000000" font-family="sans-serif" font-size="13" lengthAdjust="spacing" textLength="164" x="1517" y="908.5513">- RESTORE_IN_PROGRESS</text><text fill="#000000" font-family="sans-serif" font-size="13" lengthAdjust="spacing" textLength="113" x="1517" y="923.6841">Active OCI states:</text><text fill="#000000" font-family="sans-serif" font-size="13" lengthAdjust="spacing" textLength="79" x="1517" y="938.8169">- AVAILABLE</text><text fill="#000000" font-family="sans-serif" font-size="13" lengthAdjust="spacing" textLength="209" x="1517" y="953.9497">- AVAILABLE_NEEDS_ATTENTION</text><text fill="#000000" font-family="sans-serif" font-size="13" lengthAdjust="spacing" textLength="111" x="1517" y="969.0825">Failed OCI states:</text><text fill="#000000" font-family="sans-serif" font-size="13" lengthAdjust="spacing" textLength="53" x="1517" y="984.2153">- FAILED</text><text fill="#000000" font-family="sans-serif" font-size="13" lengthAdjust="spacing" textLength="99" x="1517" y="999.3481">- UNAVAILABLE</text><text fill="#000000" font-family="sans-serif" font-size="13" lengthAdjust="spacing" textLength="95" x="1517" y="1014.481">- TERMINATING</text><text fill="#000000" font-family="sans-serif" font-size="13" lengthAdjust="spacing" textLength="90" x="1517" y="1029.6138">- TERMINATED</text><text fill="#000000" font-family="sans-serif" font-size="13" lengthAdjust="spacing" textLength="118" x="1517" y="1044.7466">- RESTORE_FAILED</text><text fill="#000000" font-family="sans-serif" font-size="13" lengthAdjust="spacing" textLength="102" x="1517" y="1059.8794">- INACCESSIBLE</text><text fill="#000000" font-family="sans-serif" font-size="13" lengthAdjust="spacing" textLength="102" x="1517" y="1075.0122">Update surface:</text><text fill="#000000" font-family="sans-serif" font-size="13" lengthAdjust="spacing" textLength="108" x="1517" y="1090.145">- compartmentId</text><text fill="#000000" font-family="sans-serif" font-size="13" lengthAdjust="spacing" textLength="104" x="1517" y="1105.2778">- computeModel</text><text fill="#000000" font-family="sans-serif" font-size="13" lengthAdjust="spacing" textLength="104" x="1517" y="1120.4106">- computeCount</text><text fill="#000000" font-family="sans-serif" font-size="13" lengthAdjust="spacing" textLength="191" x="1517" y="1135.5435">- presence-sensitive booleans</text><text fill="#000000" font-family="sans-serif" font-size="13" lengthAdjust="spacing" textLength="96" x="1517" y="1150.6763">- freeform tags</text><text fill="#000000" font-family="sans-serif" font-size="13" lengthAdjust="spacing" textLength="88" x="1517" y="1165.8091">- defined tags</text><text fill="#000000" font-family="sans-serif" font-size="13" lengthAdjust="spacing" textLength="278" x="1517" y="1180.9419">- adminPassword supplied through a Secret</text><text fill="#000000" font-family="sans-serif" font-size="13" lengthAdjust="spacing" textLength="139" x="1517" y="1196.0747">Reject before mutate:</text><text fill="#000000" font-family="sans-serif" font-size="13" lengthAdjust="spacing" textLength="93" x="1517" y="1211.2075">- dbName drift</text><text fill="#000000" font-family="sans-serif" font-size="13" lengthAdjust="spacing" textLength="105" x="1517" y="1226.3403">Boundary notes:</text><text fill="#000000" font-family="sans-serif" font-size="13" lengthAdjust="spacing" textLength="351" x="1517" y="1241.4731">- Wallet Secret cleanup is ownership-filtered and legacy</text><text fill="#000000" font-family="sans-serif" font-size="13" lengthAdjust="spacing" textLength="247" x="1533" y="1256.606">unowned wallet Secrets are preserved.</text><text fill="#000000" font-family="sans-serif" font-size="13" lengthAdjust="spacing" textLength="364" x="1517" y="1271.7388">- The formal secret-delete profile is stronger than current</text><text fill="#000000" font-family="sans-serif" font-size="13" lengthAdjust="spacing" textLength="297" x="1533" y="1286.8716">code because wallet cleanup is still best-effort.</text><polygon fill="#E2E8F0" points="698.5,351.5,812.5,351.5,824.5,363.5,812.5,375.5,698.5,375.5,686.5,363.5,698.5,351.5" style="stroke:#475569;stroke-width:0.5;"/><text fill="#0F172A" font-family="sans-serif" font-size="11" lengthAdjust="spacing" textLength="114" x="698.5" y="367.3081">"Delete requested?"</text><text fill="#000000" font-family="sans-serif" font-size="11" lengthAdjust="spacing" textLength="20" x="666.5" y="360.9058">yes</text><text fill="#000000" font-family="sans-serif" font-size="11" lengthAdjust="spacing" textLength="14" x="824.5" y="360.9058">no</text><rect fill="none" height="417.2734" style="stroke:#000000;stroke-width:1.5;" width="763" x="11" y="385.5"/><path d="M67,385.5 L67,394.7969 L57,404.7969 L11,404.7969 " fill="none" style="stroke:#000000;stroke-width:1.5;"/><text fill="#000000" font-family="sans-serif" font-size="14" lengthAdjust="spacing" textLength="46" x="14" y="399.4951">Delete</text><rect fill="#F8FAFC" height="33.9688" rx="12.5" ry="12.5" style="stroke:#475569;stroke-width:0.5;" width="307" x="226.25" y="421.7969"/><text fill="#0F172A" font-family="sans-serif" font-size="12" lengthAdjust="spacing" textLength="287" x="236.25" y="442.9355">Submit OCI delete for Autonomous Databases</text><rect fill="#F8FAFC" height="33.9688" rx="12.5" ry="12.5" style="stroke:#475569;stroke-width:0.5;" width="702" x="28.75" y="490.7656"/><text fill="#0F172A" font-family="sans-serif" font-size="12" lengthAdjust="spacing" textLength="682" x="38.75" y="511.9043">Record the returned delete work-request ID for operator visibility without using it as the confirmation source.</text><rect fill="#F8FAFC" height="33.9688" rx="12.5" ry="12.5" style="stroke:#475569;stroke-width:0.5;" width="516" x="121.75" y="559.7344"/><text fill="#0F172A" font-family="sans-serif" font-size="12" lengthAdjust="spacing" textLength="496" x="131.75" y="580.873">Confirm deletion with GetAutonomousDatabase until the resource is not found.</text><rect fill="#F8FAFC" height="33.9688" rx="12.5" ry="12.5" style="stroke:#475569;stroke-width:0.5;" width="351" x="204.25" y="615.8359"/><text fill="#0F172A" font-family="sans-serif" font-size="12" lengthAdjust="spacing" textLength="331" x="214.25" y="636.9746">Only delete Secrets that are owned by this controller</text><polygon fill="#E2E8F0" points="278.75,684.8047,480.75,684.8047,492.75,696.8047,480.75,708.8047,278.75,708.8047,266.75,696.8047,278.75,684.8047" style="stroke:#475569;stroke-width:0.5;"/><text fill="#0F172A" font-family="sans-serif" font-size="11" lengthAdjust="spacing" textLength="202" x="278.75" y="700.6128">"Owned Secret cleanup succeeds?"</text><text fill="#000000" font-family="sans-serif" font-size="11" lengthAdjust="spacing" textLength="20" x="246.75" y="694.2104">yes</text><text fill="#000000" font-family="sans-serif" font-size="11" lengthAdjust="spacing" textLength="14" x="492.75" y="694.2104">no</text><rect fill="#F8FAFC" height="33.9688" rx="12.5" ry="12.5" style="stroke:#475569;stroke-width:0.5;" width="338" x="23" y="718.8047"/><text fill="#0F172A" font-family="sans-serif" font-size="12" lengthAdjust="spacing" textLength="318" x="33" y="739.9434">Remove the finalizer after OCI deletion is confirmed</text><rect fill="#F8FAFC" height="33.9688" rx="12.5" ry="12.5" style="stroke:#475569;stroke-width:0.5;" width="373" x="381" y="718.8047"/><text fill="#0F172A" font-family="sans-serif" font-size="12" lengthAdjust="spacing" textLength="353" x="391" y="739.9434">Stay blocked until Secret cleanup succeeds or is absent</text><polygon fill="#E2E8F0" points="379.75,758.7734,391.75,770.7734,379.75,782.7734,367.75,770.7734,379.75,758.7734" style="stroke:#475569;stroke-width:0.5;"/><ellipse cx="379.75" cy="848.7734" fill="none" rx="11" ry="11" style="stroke:#222222;stroke-width:1.0;"/><ellipse cx="379.75" cy="848.7734" fill="#222222" rx="6" ry="6" style="stroke:#111111;stroke-width:1.0;"/><rect fill="none" height="417.9766" style="stroke:#000000;stroke-width:1.5;" width="376" x="949.25" y="385.5"/><path d="M1110.25,385.5 L1110.25,394.7969 L1100.25,404.7969 L949.25,404.7969 " fill="none" style="stroke:#000000;stroke-width:1.5;"/><text fill="#000000" font-family="sans-serif" font-size="14" lengthAdjust="spacing" textLength="151" x="952.25" y="399.4951">Lifecycle Classification</text><rect fill="#F8FAFC" height="33.9688" rx="12.5" ry="12.5" style="stroke:#475569;stroke-width:0.5;" width="268" x="997.25" y="470.1992"/><text fill="#0F172A" font-family="sans-serif" font-size="12" lengthAdjust="spacing" textLength="248" x="1007.25" y="491.3379">Request requeue and keep the finalizer</text><ellipse cx="1131.25" cy="550.168" fill="none" rx="11" ry="11" style="stroke:#222222;stroke-width:1.0;"/><ellipse cx="1131.25" cy="550.168" fill="#222222" rx="6" ry="6" style="stroke:#111111;stroke-width:1.0;"/><polygon fill="#E2E8F0" points="1051.25,421.7969,1211.25,421.7969,1223.25,433.7969,1211.25,445.7969,1051.25,445.7969,1039.25,433.7969,1051.25,421.7969" style="stroke:#475569;stroke-width:0.5;"/><text fill="#000000" font-family="sans-serif" font-size="11" lengthAdjust="spacing" textLength="20" x="1135.25" y="456.0073">yes</text><text fill="#0F172A" font-family="sans-serif" font-size="11" lengthAdjust="spacing" textLength="160" x="1051.25" y="437.605">"OCI state in retryable set?"</text><rect fill="#F8FAFC" height="33.9688" rx="12.5" ry="12.5" style="stroke:#475569;stroke-width:0.5;" width="324" x="969.25" y="662.1055"/><text fill="#0F172A" font-family="sans-serif" font-size="12" lengthAdjust="spacing" textLength="304" x="979.25" y="683.2441">Return an unsuccessful terminal reconcile result</text><ellipse cx="1131.25" cy="742.0742" fill="none" rx="11" ry="11" style="stroke:#222222;stroke-width:1.0;"/><ellipse cx="1131.25" cy="742.0742" fill="#222222" rx="6" ry="6" style="stroke:#111111;stroke-width:1.0;"/><polygon fill="#E2E8F0" points="1061.25,613.7031,1201.25,613.7031,1213.25,625.7031,1201.25,637.7031,1061.25,637.7031,1049.25,625.7031,1061.25,613.7031" style="stroke:#475569;stroke-width:0.5;"/><text fill="#000000" font-family="sans-serif" font-size="11" lengthAdjust="spacing" textLength="20" x="1135.25" y="647.9136">yes</text><text fill="#0F172A" font-family="sans-serif" font-size="11" lengthAdjust="spacing" textLength="140" x="1061.25" y="629.5112">"OCI state in failed set?"</text><rect fill="none" height="783.8516" style="stroke:#000000;stroke-width:1.5;" width="707" x="794" y="838.4766"/><path d="M973,838.4766 L973,847.7734 L963,857.7734 L794,857.7734 " fill="none" style="stroke:#000000;stroke-width:1.5;"/><text fill="#000000" font-family="sans-serif" font-size="14" lengthAdjust="spacing" textLength="169" x="797" y="852.4717">Ready and Drift Handling</text><rect fill="#F8FAFC" height="33.9688" rx="12.5" ry="12.5" style="stroke:#475569;stroke-width:0.5;" width="364" x="949.25" y="874.7734"/><text fill="#0F172A" font-family="sans-serif" font-size="12" lengthAdjust="spacing" textLength="344" x="959.25" y="895.9121">Compare live OCI state with the supported drift surface</text><rect fill="#F8FAFC" height="33.9688" rx="12.5" ry="12.5" style="stroke:#475569;stroke-width:0.5;" width="290" x="986.25" y="992.1445"/><text fill="#0F172A" font-family="sans-serif" font-size="12" lengthAdjust="spacing" textLength="270" x="996.25" y="1013.2832">Reject the change before any OCI mutation</text><ellipse cx="1131.25" cy="1072.1133" fill="none" rx="11" ry="11" style="stroke:#222222;stroke-width:1.0;"/><ellipse cx="1131.25" cy="1072.1133" fill="#222222" rx="6" ry="6" style="stroke:#111111;stroke-width:1.0;"/><polygon fill="#E2E8F0" points="1006.75,943.7422,1255.75,943.7422,1267.75,955.7422,1255.75,967.7422,1006.75,967.7422,994.75,955.7422,1006.75,943.7422" style="stroke:#475569;stroke-width:0.5;"/><text fill="#000000" font-family="sans-serif" font-size="11" lengthAdjust="spacing" textLength="20" x="1135.25" y="977.9526">yes</text><text fill="#0F172A" font-family="sans-serif" font-size="11" lengthAdjust="spacing" textLength="249" x="1006.75" y="959.5503">"Unsupported or immutable drift detected?"</text><rect fill="#F8FAFC" height="33.9688" rx="12.5" ry="12.5" style="stroke:#475569;stroke-width:0.5;" width="303" x="979.75" y="1148.5156"/><text fill="#0F172A" font-family="sans-serif" font-size="12" lengthAdjust="spacing" textLength="283" x="989.75" y="1169.6543">Reject dbName drift before any OCI mutation.</text><rect fill="#F8FAFC" height="33.9688" rx="12.5" ry="12.5" style="stroke:#475569;stroke-width:0.5;" width="510" x="876.25" y="1217.4844"/><text fill="#0F172A" font-family="sans-serif" font-size="12" lengthAdjust="spacing" textLength="490" x="886.25" y="1238.623">Move the autonomous database compartment before other mutable updates.</text><rect fill="#F8FAFC" height="33.9688" rx="12.5" ry="12.5" style="stroke:#475569;stroke-width:0.5;" width="503" x="879.75" y="1286.4531"/><text fill="#0F172A" font-family="sans-serif" font-size="12" lengthAdjust="spacing" textLength="483" x="889.75" y="1307.5918">Inject the admin-password Secret only when password rotation is configured.</text><rect fill="#F8FAFC" height="33.9688" rx="12.5" ry="12.5" style="stroke:#475569;stroke-width:0.5;" width="587" x="837.75" y="1340.4219"/><text fill="#0F172A" font-family="sans-serif" font-size="12" lengthAdjust="spacing" textLength="567" x="847.75" y="1361.5605">Generate a wallet Secret only when wallet generation is configured for a usable database.</text><polygon fill="#E2E8F0" points="1053.75,1394.3906,1208.75,1394.3906,1220.75,1406.3906,1208.75,1418.3906,1053.75,1418.3906,1041.75,1406.3906,1053.75,1394.3906" style="stroke:#475569;stroke-width:0.5;"/><text fill="#0F172A" font-family="sans-serif" font-size="11" lengthAdjust="spacing" textLength="155" x="1053.75" y="1410.1987">"Supported drift detected?"</text><text fill="#000000" font-family="sans-serif" font-size="11" lengthAdjust="spacing" textLength="20" x="1021.75" y="1403.7964">yes</text><text fill="#000000" font-family="sans-serif" font-size="11" lengthAdjust="spacing" textLength="14" x="1220.75" y="1403.7964">no</text><rect fill="#F8FAFC" height="33.9688" rx="12.5" ry="12.5" style="stroke:#475569;stroke-width:0.5;" width="329" x="823.5" y="1428.3906"/><text fill="#0F172A" font-family="sans-serif" font-size="12" lengthAdjust="spacing" textLength="309" x="833.5" y="1449.5293">Apply only the supported in-place update surface</text><rect fill="#F8FAFC" height="33.9688" rx="12.5" ry="12.5" style="stroke:#475569;stroke-width:0.5;" width="204" x="1172.5" y="1428.3906"/><text fill="#0F172A" font-family="sans-serif" font-size="12" lengthAdjust="spacing" textLength="184" x="1182.5" y="1449.5293">Skip the no-op mutation path</text><polygon fill="#E2E8F0" points="1131.25,1468.3594,1143.25,1480.3594,1131.25,1492.3594,1119.25,1480.3594,1131.25,1468.3594" style="stroke:#475569;stroke-width:0.5;"/><polygon fill="#E2E8F0" points="1060.75,1512.3594,1201.75,1512.3594,1213.75,1524.3594,1201.75,1536.3594,1060.75,1536.3594,1048.75,1524.3594,1060.75,1512.3594" style="stroke:#475569;stroke-width:0.5;"/><text fill="#0F172A" font-family="sans-serif" font-size="11" lengthAdjust="spacing" textLength="141" x="1060.75" y="1528.1675">"Secret sync succeeds?"</text><text fill="#000000" font-family="sans-serif" font-size="11" lengthAdjust="spacing" textLength="20" x="1028.75" y="1521.7651">yes</text><text fill="#000000" font-family="sans-serif" font-size="11" lengthAdjust="spacing" textLength="14" x="1213.75" y="1521.7651">no</text><rect fill="#F8FAFC" height="33.9688" rx="12.5" ry="12.5" style="stroke:#475569;stroke-width:0.5;" width="287" x="814" y="1546.3594"/><text fill="#0F172A" font-family="sans-serif" font-size="12" lengthAdjust="spacing" textLength="267" x="824" y="1567.498">Return success for the usable active state</text><rect fill="#F8FAFC" height="33.9688" rx="12.5" ry="12.5" style="stroke:#475569;stroke-width:0.5;" width="368" x="1121" y="1546.3594"/><text fill="#0F172A" font-family="sans-serif" font-size="12" lengthAdjust="spacing" textLength="348" x="1131" y="1567.498">Block successful completion until Secret sync succeeds</text><polygon fill="#E2E8F0" points="1131.25,1586.3281,1143.25,1598.3281,1131.25,1610.3281,1119.25,1598.3281,1131.25,1586.3281" style="stroke:#475569;stroke-width:0.5;"/><line style="stroke:#334155;stroke-width:1.0;" x1="922" x2="922" y1="235.5313" y2="255.5313"/><polygon fill="#334155" points="918,245.5313,922,255.5313,926,245.5313,922,249.5313" style="stroke:#334155;stroke-width:1.0;"/><line style="stroke:#334155;stroke-width:1.0;" x1="643.5" x2="589" y1="179.5625" y2="179.5625"/><line style="stroke:#334155;stroke-width:1.0;" x1="589" x2="589" y1="179.5625" y2="201.5625"/><polygon fill="#334155" points="585,191.5625,589,201.5625,593,191.5625,589,195.5625" style="stroke:#334155;stroke-width:1.0;"/><line style="stroke:#334155;stroke-width:1.0;" x1="867.5" x2="922" y1="179.5625" y2="179.5625"/><line style="stroke:#334155;stroke-width:1.0;" x1="922" x2="922" y1="179.5625" y2="201.5625"/><polygon fill="#334155" points="918,191.5625,922,201.5625,926,191.5625,922,195.5625" style="stroke:#334155;stroke-width:1.0;"/><line style="stroke:#334155;stroke-width:1.0;" x1="589" x2="589" y1="235.5313" y2="307.5"/><line style="stroke:#334155;stroke-width:1.0;" x1="589" x2="743.5" y1="307.5" y2="307.5"/><polygon fill="#334155" points="733.5,303.5,743.5,307.5,733.5,311.5,737.5,307.5" style="stroke:#334155;stroke-width:1.0;"/><line style="stroke:#334155;stroke-width:1.0;" x1="922" x2="922" y1="289.5" y2="307.5"/><line style="stroke:#334155;stroke-width:1.0;" x1="922" x2="767.5" y1="307.5" y2="307.5"/><polygon fill="#334155" points="777.5,303.5,767.5,307.5,777.5,311.5,773.5,307.5" style="stroke:#334155;stroke-width:1.0;"/><line style="stroke:#334155;stroke-width:1.0;" x1="755.5" x2="755.5" y1="147.5625" y2="167.5625"/><polygon fill="#334155" points="751.5,157.5625,755.5,167.5625,759.5,157.5625,755.5,161.5625" style="stroke:#334155;stroke-width:1.0;"/><line style="stroke:#334155;stroke-width:1.0;" x1="755.5" x2="755.5" y1="67.2969" y2="113.5938"/><polygon fill="#334155" points="751.5,103.5938,755.5,113.5938,759.5,103.5938,755.5,107.5938" style="stroke:#334155;stroke-width:1.0;"/><line style="stroke:#334155;stroke-width:1.0;" x1="379.75" x2="379.75" y1="455.7656" y2="490.7656"/><polygon fill="#334155" points="375.75,480.7656,379.75,490.7656,383.75,480.7656,379.75,484.7656" style="stroke:#334155;stroke-width:1.0;"/><line style="stroke:#334155;stroke-width:1.0;" x1="379.75" x2="379.75" y1="524.7344" y2="559.7344"/><polygon fill="#334155" points="375.75,549.7344,379.75,559.7344,383.75,549.7344,379.75,553.7344" style="stroke:#334155;stroke-width:1.0;"/><line style="stroke:#334155;stroke-width:1.0;" x1="379.75" x2="379.75" y1="593.7031" y2="615.8359"/><polygon fill="#334155" points="375.75,605.8359,379.75,615.8359,383.75,605.8359,379.75,609.8359" style="stroke:#334155;stroke-width:1.0;"/><line style="stroke:#334155;stroke-width:1.0;" x1="266.75" x2="192" y1="696.8047" y2="696.8047"/><line style="stroke:#334155;stroke-width:1.0;" x1="192" x2="192" y1="696.8047" y2="718.8047"/><polygon fill="#334155" points="188,708.8047,192,718.8047,196,708.8047,192,712.8047" style="stroke:#334155;stroke-width:1.0;"/><line style="stroke:#334155;stroke-width:1.0;" x1="492.75" x2="567.5" y1="696.8047" y2="696.8047"/><line style="stroke:#334155;stroke-width:1.0;" x1="567.5" x2="567.5" y1="696.8047" y2="718.8047"/><polygon fill="#334155" points="563.5,708.8047,567.5,718.8047,571.5,708.8047,567.5,712.8047" style="stroke:#334155;stroke-width:1.0;"/><line style="stroke:#334155;stroke-width:1.0;" x1="192" x2="192" y1="752.7734" y2="770.7734"/><line style="stroke:#334155;stroke-width:1.0;" x1="192" x2="367.75" y1="770.7734" y2="770.7734"/><polygon fill="#334155" points="357.75,766.7734,367.75,770.7734,357.75,774.7734,361.75,770.7734" style="stroke:#334155;stroke-width:1.0;"/><line style="stroke:#334155;stroke-width:1.0;" x1="567.5" x2="567.5" y1="752.7734" y2="770.7734"/><line style="stroke:#334155;stroke-width:1.0;" x1="567.5" x2="391.75" y1="770.7734" y2="770.7734"/><polygon fill="#334155" points="401.75,766.7734,391.75,770.7734,401.75,774.7734,397.75,770.7734" style="stroke:#334155;stroke-width:1.0;"/><line style="stroke:#334155;stroke-width:1.0;" x1="379.75" x2="379.75" y1="649.8047" y2="684.8047"/><polygon fill="#334155" points="375.75,674.8047,379.75,684.8047,383.75,674.8047,379.75,678.8047" style="stroke:#334155;stroke-width:1.0;"/><line style="stroke:#334155;stroke-width:1.0;" x1="379.75" x2="379.75" y1="782.7734" y2="837.7734"/><polygon fill="#334155" points="375.75,827.7734,379.75,837.7734,383.75,827.7734,379.75,831.7734" style="stroke:#334155;stroke-width:1.0;"/><line style="stroke:#334155;stroke-width:1.0;" x1="1131.25" x2="1131.25" y1="504.168" y2="539.168"/><polygon fill="#334155" points="1127.25,529.168,1131.25,539.168,1135.25,529.168,1131.25,533.168" style="stroke:#334155;stroke-width:1.0;"/><line style="stroke:#334155;stroke-width:1.0;" x1="1131.25" x2="1131.25" y1="445.7969" y2="470.1992"/><polygon fill="#334155" points="1127.25,460.1992,1131.25,470.1992,1135.25,460.1992,1131.25,464.1992" style="stroke:#334155;stroke-width:1.0;"/><line style="stroke:#334155;stroke-width:1.0;" x1="1223.25" x2="1275.25" y1="433.7969" y2="433.7969"/><polygon fill="#334155" points="1271.25,502.6836,1275.25,512.6836,1279.25,502.6836,1275.25,506.6836" style="stroke:#334155;stroke-width:1.0;"/><line style="stroke:#334155;stroke-width:1.0;" x1="1275.25" x2="1275.25" y1="433.7969" y2="591.5703"/><line style="stroke:#334155;stroke-width:1.0;" x1="1275.25" x2="1131.25" y1="591.5703" y2="591.5703"/><line style="stroke:#334155;stroke-width:1.0;" x1="1131.25" x2="1131.25" y1="591.5703" y2="613.7031"/><polygon fill="#334155" points="1127.25,603.7031,1131.25,613.7031,1135.25,603.7031,1131.25,607.7031" style="stroke:#334155;stroke-width:1.0;"/><line style="stroke:#334155;stroke-width:1.0;" x1="1131.25" x2="1131.25" y1="696.0742" y2="731.0742"/><polygon fill="#334155" points="1127.25,721.0742,1131.25,731.0742,1135.25,721.0742,1131.25,725.0742" style="stroke:#334155;stroke-width:1.0;"/><line style="stroke:#334155;stroke-width:1.0;" x1="1131.25" x2="1131.25" y1="637.7031" y2="662.1055"/><polygon fill="#334155" points="1127.25,652.1055,1131.25,662.1055,1135.25,652.1055,1131.25,656.1055" style="stroke:#334155;stroke-width:1.0;"/><line style="stroke:#334155;stroke-width:1.0;" x1="1213.25" x2="1303.25" y1="625.7031" y2="625.7031"/><polygon fill="#334155" points="1299.25,694.5898,1303.25,704.5898,1307.25,694.5898,1303.25,698.5898" style="stroke:#334155;stroke-width:1.0;"/><line style="stroke:#334155;stroke-width:1.0;" x1="1303.25" x2="1303.25" y1="625.7031" y2="783.4766"/><line style="stroke:#334155;stroke-width:1.0;" x1="1303.25" x2="1131.25" y1="783.4766" y2="783.4766"/><line style="stroke:#334155;stroke-width:1.0;" x1="1131.25" x2="1131.25" y1="783.4766" y2="874.7734"/><polygon fill="#334155" points="1127.25,864.7734,1131.25,874.7734,1135.25,864.7734,1131.25,868.7734" style="stroke:#334155;stroke-width:1.0;"/><line style="stroke:#334155;stroke-width:1.0;" x1="1131.25" x2="1131.25" y1="1026.1133" y2="1061.1133"/><polygon fill="#334155" points="1127.25,1051.1133,1131.25,1061.1133,1135.25,1051.1133,1131.25,1055.1133" style="stroke:#334155;stroke-width:1.0;"/><line style="stroke:#334155;stroke-width:1.0;" x1="1131.25" x2="1131.25" y1="967.7422" y2="992.1445"/><polygon fill="#334155" points="1127.25,982.1445,1131.25,992.1445,1135.25,982.1445,1131.25,986.1445" style="stroke:#334155;stroke-width:1.0;"/><line style="stroke:#334155;stroke-width:1.0;" x1="1267.75" x2="1286.25" y1="955.7422" y2="955.7422"/><polygon fill="#334155" points="1282.25,1024.6289,1286.25,1034.6289,1290.25,1024.6289,1286.25,1028.6289" style="stroke:#334155;stroke-width:1.0;"/><line style="stroke:#334155;stroke-width:1.0;" x1="1286.25" x2="1286.25" y1="955.7422" y2="1113.5156"/><line style="stroke:#334155;stroke-width:1.0;" x1="1286.25" x2="1131.25" y1="1113.5156" y2="1113.5156"/><line style="stroke:#334155;stroke-width:1.0;" x1="1131.25" x2="1131.25" y1="1113.5156" y2="1148.5156"/><polygon fill="#334155" points="1127.25,1138.5156,1131.25,1148.5156,1135.25,1138.5156,1131.25,1142.5156" style="stroke:#334155;stroke-width:1.0;"/><line style="stroke:#334155;stroke-width:1.0;" x1="1131.25" x2="1131.25" y1="908.7422" y2="943.7422"/><polygon fill="#334155" points="1127.25,933.7422,1131.25,943.7422,1135.25,933.7422,1131.25,937.7422" style="stroke:#334155;stroke-width:1.0;"/><line style="stroke:#334155;stroke-width:1.0;" x1="1131.25" x2="1131.25" y1="1182.4844" y2="1217.4844"/><polygon fill="#334155" points="1127.25,1207.4844,1131.25,1217.4844,1135.25,1207.4844,1131.25,1211.4844" style="stroke:#334155;stroke-width:1.0;"/><line style="stroke:#334155;stroke-width:1.0;" x1="1131.25" x2="1131.25" y1="1251.4531" y2="1286.4531"/><polygon fill="#334155" points="1127.25,1276.4531,1131.25,1286.4531,1135.25,1276.4531,1131.25,1280.4531" style="stroke:#334155;stroke-width:1.0;"/><line style="stroke:#334155;stroke-width:1.0;" x1="1131.25" x2="1131.25" y1="1320.4219" y2="1340.4219"/><polygon fill="#334155" points="1127.25,1330.4219,1131.25,1340.4219,1135.25,1330.4219,1131.25,1334.4219" style="stroke:#334155;stroke-width:1.0;"/><line style="stroke:#334155;stroke-width:1.0;" x1="1041.75" x2="988" y1="1406.3906" y2="1406.3906"/><line style="stroke:#334155;stroke-width:1.0;" x1="988" x2="988" y1="1406.3906" y2="1428.3906"/><polygon fill="#334155" points="984,1418.3906,988,1428.3906,992,1418.3906,988,1422.3906" style="stroke:#334155;stroke-width:1.0;"/><line style="stroke:#334155;stroke-width:1.0;" x1="1220.75" x2="1274.5" y1="1406.3906" y2="1406.3906"/><line style="stroke:#334155;stroke-width:1.0;" x1="1274.5" x2="1274.5" y1="1406.3906" y2="1428.3906"/><polygon fill="#334155" points="1270.5,1418.3906,1274.5,1428.3906,1278.5,1418.3906,1274.5,1422.3906" style="stroke:#334155;stroke-width:1.0;"/><line style="stroke:#334155;stroke-width:1.0;" x1="988" x2="988" y1="1462.3594" y2="1480.3594"/><line style="stroke:#334155;stroke-width:1.0;" x1="988" x2="1119.25" y1="1480.3594" y2="1480.3594"/><polygon fill="#334155" points="1109.25,1476.3594,1119.25,1480.3594,1109.25,1484.3594,1113.25,1480.3594" style="stroke:#334155;stroke-width:1.0;"/><line style="stroke:#334155;stroke-width:1.0;" x1="1274.5" x2="1274.5" y1="1462.3594" y2="1480.3594"/><line style="stroke:#334155;stroke-width:1.0;" x1="1274.5" x2="1143.25" y1="1480.3594" y2="1480.3594"/><polygon fill="#334155" points="1153.25,1476.3594,1143.25,1480.3594,1153.25,1484.3594,1149.25,1480.3594" style="stroke:#334155;stroke-width:1.0;"/><line style="stroke:#334155;stroke-width:1.0;" x1="1131.25" x2="1131.25" y1="1374.3906" y2="1394.3906"/><polygon fill="#334155" points="1127.25,1384.3906,1131.25,1394.3906,1135.25,1384.3906,1131.25,1388.3906" style="stroke:#334155;stroke-width:1.0;"/><line style="stroke:#334155;stroke-width:1.0;" x1="1048.75" x2="957.5" y1="1524.3594" y2="1524.3594"/><line style="stroke:#334155;stroke-width:1.0;" x1="957.5" x2="957.5" y1="1524.3594" y2="1546.3594"/><polygon fill="#334155" points="953.5,1536.3594,957.5,1546.3594,961.5,1536.3594,957.5,1540.3594" style="stroke:#334155;stroke-width:1.0;"/><line style="stroke:#334155;stroke-width:1.0;" x1="1213.75" x2="1305" y1="1524.3594" y2="1524.3594"/><line style="stroke:#334155;stroke-width:1.0;" x1="1305" x2="1305" y1="1524.3594" y2="1546.3594"/><polygon fill="#334155" points="1301,1536.3594,1305,1546.3594,1309,1536.3594,1305,1540.3594" style="stroke:#334155;stroke-width:1.0;"/><line style="stroke:#334155;stroke-width:1.0;" x1="957.5" x2="957.5" y1="1580.3281" y2="1598.3281"/><line style="stroke:#334155;stroke-width:1.0;" x1="957.5" x2="1119.25" y1="1598.3281" y2="1598.3281"/><polygon fill="#334155" points="1109.25,1594.3281,1119.25,1598.3281,1109.25,1602.3281,1113.25,1598.3281" style="stroke:#334155;stroke-width:1.0;"/><line style="stroke:#334155;stroke-width:1.0;" x1="1305" x2="1305" y1="1580.3281" y2="1598.3281"/><line style="stroke:#334155;stroke-width:1.0;" x1="1305" x2="1143.25" y1="1598.3281" y2="1598.3281"/><polygon fill="#334155" points="1153.25,1594.3281,1143.25,1598.3281,1153.25,1602.3281,1149.25,1598.3281" style="stroke:#334155;stroke-width:1.0;"/><line style="stroke:#334155;stroke-width:1.0;" x1="1131.25" x2="1131.25" y1="1492.3594" y2="1512.3594"/><polygon fill="#334155" points="1127.25,1502.3594,1131.25,1512.3594,1135.25,1502.3594,1131.25,1506.3594" style="stroke:#334155;stroke-width:1.0;"/><line style="stroke:#334155;stroke-width:1.0;" x1="686.5" x2="379.75" y1="363.5" y2="363.5"/><line style="stroke:#334155;stroke-width:1.0;" x1="379.75" x2="379.75" y1="363.5" y2="421.7969"/><polygon fill="#334155" points="375.75,411.7969,379.75,421.7969,383.75,411.7969,379.75,415.7969" style="stroke:#334155;stroke-width:1.0;"/><line style="stroke:#334155;stroke-width:1.0;" x1="824.5" x2="1131.25" y1="363.5" y2="363.5"/><line style="stroke:#334155;stroke-width:1.0;" x1="1131.25" x2="1131.25" y1="363.5" y2="421.7969"/><polygon fill="#334155" points="1127.25,411.7969,1131.25,421.7969,1135.25,411.7969,1131.25,415.7969" style="stroke:#334155;stroke-width:1.0;"/><line style="stroke:#334155;stroke-width:1.0;" x1="1131.25" x2="1131.25" y1="1610.3281" y2="1628.3281"/><line style="stroke:#334155;stroke-width:1.0;" x1="1131.25" x2="755.5" y1="1628.3281" y2="1628.3281"/><line style="stroke:#334155;stroke-width:1.0;" x1="755.5" x2="755.5" y1="319.5" y2="351.5"/><polygon fill="#334155" points="751.5,341.5,755.5,351.5,759.5,341.5,755.5,345.5" style="stroke:#334155;stroke-width:1.0;"/><!--SRC=[XLRVRzis47xNNq5aBorG1qtRD5tpC2YodHbBRCDskiU0baus5uhKI2gkD_H_tnr9ANBYT06IaEBz-ExkkoETS19OsZYjTAKRouRSyJMtODa2SgroGSUv4u_2xHFx85JD3Q-OtV92xuJQi99B2xsJAvu_R8nkL95fgGtxPUn_UXAfCNeN3pz-_7HsVjuxBA3aZNGh-EvIAJQg0kMOXDBrP7Z4m_vDs15_NyRfEACJRGemyUkdY_Fppx_Yrx5MBdvxFpwx-93Yjw7WbLR52rEZ3wClu_SzWQCMbuwR9vCNdp-FyEEeCt8nFXkU3PCVYIMv9C4Od712AtOoMrimZy2uAjYLKCM9Z-Zh0dZ1iWMpDUJl6AevBCmicmpVUSa293XWGZdCpIKgY9AzELaPH0y5GvVmlPOY5yxhiDg0HS7VJjuojmN5tkp1laKjT7GDZhwH74CftPWSs7hF7fJUAIOAL1Eb04DE0ClCtYWTLHSeBZrqT2Ui8oeyDrC8Mqk-PufNS1dKvc0iIdkl9fZma7C3tE7I8rvZ91IUZh5xzweG9IOnyS4EGmeC_Ds0HRqNmVMI76H3QX71ibbN8JLj8alqVwm3Bjj8SonxHEmQew0hmKwRXq44mH0uMT8r6EvmyIYiM0j9FDq9jzMDOusbDA5tRhqzRB1Ic8fxe25lfz5h5ew29pec6mmBzeIq1SeQB9FiKkgpBonJsY4W97DhSgRalaM-1Cou8nGSqHXWM72C2ulcjgYBm9pHKeRIHuRDl4ZGPBa4hfgQsIRF0GfxX5u-TvL6aX2qKYWknJzW62yT_kqAGC45bnGm5C7Z8TseRWwPj9RQapn4_0eKuXCQv6iR-wDb3sC_yDSwNITzypskt8WIyZqQP9darYBvSr-SbZqX3uYSY4ajI9GmUxv63GlkjIG4WdYYDA7R7m3gmxHSHd4Fhu_vcDUIurmkVkQIY4hDsIYV5clB1Ya2fY9_2AMTxSWO7BUlEiU6EqWGZQQzZs1eHEdOxxYKIEgklJ9TrSGdAHx3N0cOFNifNjlKjJRKweKtO1jJyXnwDBjJJp9KoQfgd4zmK2YGllcnbe-1_uMdeRcsN6rm3W5s9ILzx-6GCGhb9-bkZHJhAGwkwFOLCsrltROqvq-3f6ZxC_SvSVugYtOqoXhMHjRKA0ksDJPHNH2ym88DQkJYZePGPBocJjvHyDs9qG5GrqgRna3N-jUWQ2gXFRRZsDRkfQNuVHCaNrZoiutZ10kbYA6TzkgsV5RPdnSghMlqxDqVqeB2bSY8c9H3WhoS2WyYz97I0rrtPS6ykEtbiJQASTkzolztTlaUYktZuoT7CGF-3GA1tQzWkw9XnNhjHpo80-zWW1s0UJwmmYeffUR-aiMnZbqhDbkNf2RVWjlNy3KPTBVfm6T_4ERym7eFoQARKbrBMbAQBsRV9il9R3gPNkFsRZvCLs6vNAMBRZcRpyFoDfrCLwDfEir6zvFfFQfVBqRB9PxWlvv6bjuy5xXAip_kvaUqPej3qJHazX1e-YsTtAHNDwF- -duw6WsNz-aA8QqmY6GSnkAXwXYbHqEARjgtiXejRYVJDjnsvmLRL9qcdcGPOfkGwjq1Byb3hxydHTmt3cur5k5fc-5Tx70RtcCvrKPPuMDTQqrtcCNJqW1DY8evlg4zleS5NRjnw-V1l6rwwXefw7IBpzRD5XjqsHRSZv0uRNnRUAZzcPPSqUk0cxtdbC_LdmV3eRrOSH3Gyy3OhQW7fP1uZQ1FkWGaR7Y-zunjL7X27CmNwzyMFc9yvnQdbEcjVt5LU0i5SaQgefGkwKP2RnOV7pYxgU7m2iiROp2rtakEESMeSjvWiqLNFPZu3fKIpwqRG8bUt2drZuyl-Gy0]--></g></svg>