<?xml version="1.0" encoding="UTF-8" standalone="no"?><svg xmlns="http://www.w3.org/2000/svg" xmlns:xlink="http://www.w3.org/1999/xlink" contentStyleType="text/css" height="1645px" preserveAspectRatio="none" style="width:1284px;height:1645px;background:#FFFFFF;" version="1.1" viewBox="0 0 1284 1645" width="1284px" zoomAndPan="magnify"><defs/><g><text fill="#000000" font-family="sans-serif" font-size="14" font-weight="bold" lengthAdjust="spacing" textLength="352" x="465.25" y="27.9951">Autonomous Databases Reconcile Sequence</text><rect fill="none" height="254.6719" style="stroke:#475569;stroke-width:1.5;" width="914" x="268.5" y="193.8594"/><rect fill="none" height="223.5391" style="stroke:#475569;stroke-width:1.5;" width="894" x="278.5" y="217.9922"/><rect fill="none" height="119.3359" style="stroke:#475569;stroke-width:1.5;" width="874" x="288.5" y="315.1953"/><rect fill="none" height="958.8672" style="stroke:#475569;stroke-width:1.5;" width="1172.5" x="10" y="462.5313"/><rect fill="none" height="267" style="stroke:#475569;stroke-width:1.5;" width="1152.5" x="20" y="486.6641"/><rect fill="none" height="90.2031" style="stroke:#475569;stroke-width:1.5;" width="1132.5" x="30" y="656.4609"/><rect fill="none" height="514.9219" style="stroke:#475569;stroke-width:1.5;" width="1142.5" x="20" y="870.3438"/><rect fill="none" height="46.2656" style="stroke:#475569;stroke-width:1.5;" width="406.5" x="30" y="1065.8047"/><rect fill="none" height="46.2656" style="stroke:#475569;stroke-width:1.5;" width="718" x="288.5" y="1242.6016"/><rect fill="none" height="46.2656" style="stroke:#475569;stroke-width:1.5;" width="406.5" x="30" y="1332"/><line style="stroke:#94A3B8;stroke-width:0.5;stroke-dasharray:5.0,5.0;" x1="76" x2="76" y1="118.5938" y2="1564.3281"/><line style="stroke:#94A3B8;stroke-width:0.5;stroke-dasharray:5.0,5.0;" x1="362.5" x2="362.5" y1="118.5938" y2="1564.3281"/><line style="stroke:#94A3B8;stroke-width:0.5;stroke-dasharray:5.0,5.0;" x1="978.5" x2="978.5" y1="118.5938" y2="1564.3281"/><line style="stroke:#94A3B8;stroke-width:0.5;stroke-dasharray:5.0,5.0;" x1="1096.5" x2="1096.5" y1="118.5938" y2="1564.3281"/><line style="stroke:#94A3B8;stroke-width:0.5;stroke-dasharray:5.0,5.0;" x1="1220.5" x2="1220.5" y1="118.5938" y2="1564.3281"/><text fill="#000000" font-family="sans-serif" font-size="14" lengthAdjust="spacing" textLength="67" x="40" y="115.292">Controller</text><ellipse cx="76.5" cy="50.7969" fill="#E0F2FE" rx="8" ry="8" style="stroke:#0F766E;stroke-width:0.5;"/><path d="M76.5,58.7969 L76.5,85.7969 M63.5,66.7969 L89.5,66.7969 M76.5,85.7969 L63.5,100.7969 M76.5,85.7969 L89.5,100.7969 " fill="none" style="stroke:#0F766E;stroke-width:0.5;"/><text fill="#000000" font-family="sans-serif" font-size="14" lengthAdjust="spacing" textLength="67" x="40" y="1576.3232">Controller</text><ellipse cx="76.5" cy="1588.125" fill="#E0F2FE" rx="8" ry="8" style="stroke:#0F766E;stroke-width:0.5;"/><path d="M76.5,1596.125 L76.5,1623.125 M63.5,1604.125 L89.5,1604.125 M76.5,1623.125 L63.5,1638.125 M76.5,1623.125 L89.5,1638.125 " fill="none" style="stroke:#0F766E;stroke-width:0.5;"/><rect fill="#F8FAFC" height="30.2969" rx="2.5" ry="2.5" style="stroke:#475569;stroke-width:0.5;" width="128" x="298.5" y="87.2969"/><text fill="#000000" font-family="sans-serif" font-size="14" lengthAdjust="spacing" textLength="114" x="305.5" y="107.292">Service Manager</text><rect fill="#F8FAFC" height="30.2969" rx="2.5" ry="2.5" style="stroke:#475569;stroke-width:0.5;" width="128" x="298.5" y="1563.3281"/><text fill="#000000" font-family="sans-serif" font-size="14" lengthAdjust="spacing" textLength="114" x="305.5" y="1583.3232">Service Manager</text><text fill="#000000" font-family="sans-serif" font-size="14" lengthAdjust="spacing" textLength="24" x="963.5" y="115.292">OCI</text><path d="M960.5,66.2969 C960.5,56.2969 978.5,56.2969 978.5,56.2969 C978.5,56.2969 996.5,56.2969 996.5,66.2969 L996.5,92.2969 C996.5,102.2969 978.5,102.2969 978.5,102.2969 C978.5,102.2969 960.5,102.2969 960.5,92.2969 L960.5,66.2969 " fill="#E2E2F0" style="stroke:#181818;stroke-width:1.5;"/><path d="M960.5,66.2969 C960.5,76.2969 978.5,76.2969 978.5,76.2969 C978.5,76.2969 996.5,76.2969 996.5,66.2969 " fill="none" style="stroke:#181818;stroke-width:1.5;"/><text fill="#000000" font-family="sans-serif" font-size="14" lengthAdjust="spacing" textLength="24" x="963.5" y="1576.3232">OCI</text><path d="M960.5,1589.625 C960.5,1579.625 978.5,1579.625 978.5,1579.625 C978.5,1579.625 996.5,1579.625 996.5,1589.625 L996.5,1615.625 C996.5,1625.625 978.5,1625.625 978.5,1625.625 C978.5,1625.625 960.5,1625.625 960.5,1615.625 L960.5,1589.625 " fill="#E2E2F0" style="stroke:#181818;stroke-width:1.5;"/><path d="M960.5,1589.625 C960.5,1599.625 978.5,1599.625 978.5,1599.625 C978.5,1599.625 996.5,1599.625 996.5,1589.625 " fill="none" style="stroke:#181818;stroke-width:1.5;"/><text fill="#000000" font-family="sans-serif" font-size="14" lengthAdjust="spacing" textLength="106" x="1040.5" y="115.292">Kubernetes API</text><path d="M1078.5,66.2969 C1078.5,56.2969 1096.5,56.2969 1096.5,56.2969 C1096.5,56.2969 1114.5,56.2969 1114.5,66.2969 L1114.5,92.2969 C1114.5,102.2969 1096.5,102.2969 1096.5,102.2969 C1096.5,102.2969 1078.5,102.2969 1078.5,92.2969 L1078.5,66.2969 " fill="#E2E2F0" style="stroke:#181818;stroke-width:1.5;"/><path d="M1078.5,66.2969 C1078.5,76.2969 1096.5,76.2969 1096.5,76.2969 C1096.5,76.2969 1114.5,76.2969 1114.5,66.2969 " fill="none" style="stroke:#181818;stroke-width:1.5;"/><text fill="#000000" font-family="sans-serif" font-size="14" lengthAdjust="spacing" textLength="106" x="1040.5" y="1576.3232">Kubernetes API</text><path d="M1078.5,1589.625 C1078.5,1579.625 1096.5,1579.625 1096.5,1579.625 C1096.5,1579.625 1114.5,1579.625 1114.5,1589.625 L1114.5,1615.625 C1114.5,1625.625 1096.5,1625.625 1096.5,1625.625 C1096.5,1625.625 1078.5,1625.625 1078.5,1615.625 L1078.5,1589.625 " fill="#E2E2F0" style="stroke:#181818;stroke-width:1.5;"/><path d="M1078.5,1589.625 C1078.5,1599.625 1096.5,1599.625 1096.5,1599.625 C1096.5,1599.625 1114.5,1599.625 1114.5,1589.625 " fill="none" style="stroke:#181818;stroke-width:1.5;"/><rect fill="#E2E2F0" height="30.2969" style="stroke:#181818;stroke-width:0.5;" width="112" x="1166.5" y="83.2969"/><rect fill="#E2E2F0" height="30.2969" style="stroke:#181818;stroke-width:0.5;" width="112" x="1162.5" y="87.2969"/><text fill="#000000" font-family="sans-serif" font-size="14" lengthAdjust="spacing" textLength="98" x="1169.5" y="107.292">Work Request</text><rect fill="#E2E2F0" height="30.2969" style="stroke:#181818;stroke-width:0.5;" width="112" x="1166.5" y="1563.3281"/><rect fill="#E2E2F0" height="30.2969" style="stroke:#181818;stroke-width:0.5;" width="112" x="1162.5" y="1567.3281"/><text fill="#000000" font-family="sans-serif" font-size="14" lengthAdjust="spacing" textLength="98" x="1169.5" y="1587.3232">Work Request</text><polygon fill="#334155" points="350.5,145.7266,360.5,149.7266,350.5,153.7266,354.5,149.7266" style="stroke:#334155;stroke-width:1.0;"/><line style="stroke:#334155;stroke-width:1.0;" x1="76.5" x2="356.5" y1="149.7266" y2="149.7266"/><text fill="#000000" font-family="sans-serif" font-size="13" font-weight="bold" lengthAdjust="spacing" textLength="9" x="83.5" y="144.6606">1</text><text fill="#000000" font-family="sans-serif" font-size="13" lengthAdjust="spacing" textLength="239" x="96.5" y="144.6606">reconcile desired spec and live status</text><polygon fill="#334155" points="1084.5,174.8594,1094.5,178.8594,1084.5,182.8594,1088.5,178.8594" style="stroke:#334155;stroke-width:1.0;"/><line style="stroke:#334155;stroke-width:1.0;" x1="362.5" x2="1090.5" y1="178.8594" y2="178.8594"/><text fill="#000000" font-family="sans-serif" font-size="13" font-weight="bold" lengthAdjust="spacing" textLength="9" x="369.5" y="173.7935">2</text><text fill="#000000" font-family="sans-serif" font-size="13" lengthAdjust="spacing" textLength="212" x="382.5" y="173.7935">read CR status and finalizer state</text><path d="M268.5,193.8594 L438.5,193.8594 L438.5,200.9922 L428.5,210.9922 L268.5,210.9922 L268.5,193.8594 " fill="#F8FAFC" style="stroke:#475569;stroke-width:1.5;"/><rect fill="none" height="254.6719" style="stroke:#475569;stroke-width:1.5;" width="914" x="268.5" y="193.8594"/><text fill="#000000" font-family="sans-serif" font-size="13" font-weight="bold" lengthAdjust="spacing" textLength="125" x="283.5" y="206.9263">Lookup and bind</text><path d="M278.5,217.9922 L342.5,217.9922 L342.5,225.125 L332.5,235.125 L278.5,235.125 L278.5,217.9922 " fill="#F8FAFC" style="stroke:#475569;stroke-width:1.5;"/><rect fill="none" height="223.5391" style="stroke:#475569;stroke-width:1.5;" width="894" x="278.5" y="217.9922"/><text fill="#000000" font-family="sans-serif" font-size="13" font-weight="bold" lengthAdjust="spacing" textLength="19" x="293.5" y="231.0591">alt</text><text fill="#000000" font-family="sans-serif" font-size="11" font-weight="bold" lengthAdjust="spacing" textLength="256" x="357.5" y="230.2026">[tracked or explicit OCID already exists]</text><polygon fill="#334155" points="966.5,252.2578,976.5,256.2578,966.5,260.2578,970.5,256.2578" style="stroke:#334155;stroke-width:1.0;"/><line style="stroke:#334155;stroke-width:1.0;" x1="362.5" x2="972.5" y1="256.2578" y2="256.2578"/><text fill="#000000" font-family="sans-serif" font-size="13" font-weight="bold" lengthAdjust="spacing" textLength="9" x="369.5" y="251.1919">3</text><text fill="#000000" font-family="sans-serif" font-size="13" lengthAdjust="spacing" textLength="278" x="382.5" y="251.1919">get the current resource by known identifier</text><line style="stroke:#475569;stroke-width:1.0;stroke-dasharray:2.0,2.0;" x1="278.5" x2="1172.5" y1="265.2578" y2="265.2578"/><text fill="#000000" font-family="sans-serif" font-size="11" font-weight="bold" lengthAdjust="spacing" textLength="145" x="283.5" y="275.4683">[no OCID is bound yet]</text><polygon fill="#334155" points="966.5,296.1953,976.5,300.1953,966.5,304.1953,970.5,300.1953" style="stroke:#334155;stroke-width:1.0;"/><line style="stroke:#334155;stroke-width:1.0;" x1="362.5" x2="972.5" y1="300.1953" y2="300.1953"/><text fill="#000000" font-family="sans-serif" font-size="13" font-weight="bold" lengthAdjust="spacing" textLength="9" x="369.5" y="295.1294">4</text><text fill="#000000" font-family="sans-serif" font-size="13" lengthAdjust="spacing" textLength="193" x="382.5" y="295.1294">list resources by display name</text><path d="M288.5,315.1953 L352.5,315.1953 L352.5,322.3281 L342.5,332.3281 L288.5,332.3281 L288.5,315.1953 " fill="#F8FAFC" style="stroke:#475569;stroke-width:1.5;"/><rect fill="none" height="119.3359" style="stroke:#475569;stroke-width:1.5;" width="874" x="288.5" y="315.1953"/><text fill="#000000" font-family="sans-serif" font-size="13" font-weight="bold" lengthAdjust="spacing" textLength="19" x="303.5" y="328.2622">alt</text><text fill="#000000" font-family="sans-serif" font-size="11" font-weight="bold" lengthAdjust="spacing" textLength="162" x="367.5" y="327.4058">[existing resource found]</text><polygon fill="#334155" points="1084.5,349.4609,1094.5,353.4609,1084.5,357.4609,1088.5,353.4609" style="stroke:#334155;stroke-width:1.0;"/><line style="stroke:#334155;stroke-width:1.0;" x1="362.5" x2="1090.5" y1="353.4609" y2="353.4609"/><text fill="#000000" font-family="sans-serif" font-size="13" font-weight="bold" lengthAdjust="spacing" textLength="9" x="369.5" y="348.395">5</text><text fill="#000000" font-family="sans-serif" font-size="13" lengthAdjust="spacing" textLength="221" x="382.5" y="348.395">persist the resolved OCID in status</text><line style="stroke:#475569;stroke-width:1.0;stroke-dasharray:2.0,2.0;" x1="288.5" x2="1162.5" y1="362.4609" y2="362.4609"/><text fill="#000000" font-family="sans-serif" font-size="11" font-weight="bold" lengthAdjust="spacing" textLength="182" x="293.5" y="372.6714">[no existing resource found]</text><polygon fill="#334155" points="966.5,393.3984,976.5,397.3984,966.5,401.3984,970.5,397.3984" style="stroke:#334155;stroke-width:1.0;"/><line style="stroke:#334155;stroke-width:1.0;" x1="362.5" x2="972.5" y1="397.3984" y2="397.3984"/><text fill="#000000" font-family="sans-serif" font-size="13" font-weight="bold" lengthAdjust="spacing" textLength="9" x="369.5" y="392.3325">6</text><text fill="#000000" font-family="sans-serif" font-size="13" lengthAdjust="spacing" textLength="152" x="382.5" y="392.3325">create the OCI resource</text><polygon fill="#334155" points="1084.5,422.5313,1094.5,426.5313,1084.5,430.5313,1088.5,426.5313" style="stroke:#334155;stroke-width:1.0;"/><line style="stroke:#334155;stroke-width:1.0;" x1="362.5" x2="1090.5" y1="426.5313" y2="426.5313"/><text fill="#000000" font-family="sans-serif" font-size="13" font-weight="bold" lengthAdjust="spacing" textLength="9" x="369.5" y="421.4653">7</text><text fill="#000000" font-family="sans-serif" font-size="13" lengthAdjust="spacing" textLength="216" x="382.5" y="421.4653">persist the created OCID in status</text><path d="M10,462.5313 L74,462.5313 L74,469.6641 L64,479.6641 L10,479.6641 L10,462.5313 " fill="#F8FAFC" style="stroke:#475569;stroke-width:1.5;"/><rect fill="none" height="958.8672" style="stroke:#475569;stroke-width:1.5;" width="1172.5" x="10" y="462.5313"/><text fill="#000000" font-family="sans-serif" font-size="13" font-weight="bold" lengthAdjust="spacing" textLength="19" x="25" y="475.5981">alt</text><text fill="#000000" font-family="sans-serif" font-size="11" font-weight="bold" lengthAdjust="spacing" textLength="120" x="89" y="474.7417">[delete requested]</text><path d="M20,486.6641 L113,486.6641 L113,493.7969 L103,503.7969 L20,503.7969 L20,486.6641 " fill="#F8FAFC" style="stroke:#475569;stroke-width:1.5;"/><rect fill="none" height="267" style="stroke:#475569;stroke-width:1.5;" width="1152.5" x="20" y="486.6641"/><text fill="#000000" font-family="sans-serif" font-size="13" font-weight="bold" lengthAdjust="spacing" textLength="48" x="35" y="499.731">Delete</text><polygon fill="#334155" points="966.5,520.9297,976.5,524.9297,966.5,528.9297,970.5,524.9297" style="stroke:#334155;stroke-width:1.0;"/><line style="stroke:#334155;stroke-width:1.0;" x1="362.5" x2="972.5" y1="524.9297" y2="524.9297"/><text fill="#000000" font-family="sans-serif" font-size="13" font-weight="bold" lengthAdjust="spacing" textLength="9" x="369.5" y="519.8638">8</text><text fill="#000000" font-family="sans-serif" font-size="13" lengthAdjust="spacing" textLength="114" x="382.5" y="519.8638">submit OCI delete</text><polygon fill="#334155" points="373.5,550.0625,363.5,554.0625,373.5,558.0625,369.5,554.0625" style="stroke:#334155;stroke-width:1.0;"/><line style="stroke:#334155;stroke-width:1.0;stroke-dasharray:2.0,2.0;" x1="367.5" x2="977.5" y1="554.0625" y2="554.0625"/><text fill="#000000" font-family="sans-serif" font-size="13" font-weight="bold" lengthAdjust="spacing" textLength="9" x="379.5" y="548.9966">9</text><text fill="#000000" font-family="sans-serif" font-size="13" lengthAdjust="spacing" textLength="199" x="392.5" y="548.9966">return a delete work-request ID</text><polygon fill="#334155" points="1084.5,579.1953,1094.5,583.1953,1084.5,587.1953,1088.5,583.1953" style="stroke:#334155;stroke-width:1.0;"/><line style="stroke:#334155;stroke-width:1.0;" x1="362.5" x2="1090.5" y1="583.1953" y2="583.1953"/><text fill="#000000" font-family="sans-serif" font-size="13" font-weight="bold" lengthAdjust="spacing" textLength="18" x="369.5" y="578.1294">10</text><text fill="#000000" font-family="sans-serif" font-size="13" lengthAdjust="spacing" textLength="318" x="391.5" y="578.1294">record delete progress while retaining the finalizer</text><polygon fill="#334155" points="1084.5,608.3281,1094.5,612.3281,1084.5,616.3281,1088.5,612.3281" style="stroke:#334155;stroke-width:1.0;"/><line style="stroke:#334155;stroke-width:1.0;" x1="362.5" x2="1090.5" y1="612.3281" y2="612.3281"/><text fill="#000000" font-family="sans-serif" font-size="13" font-weight="bold" lengthAdjust="spacing" textLength="18" x="369.5" y="607.2622">11</text><text fill="#000000" font-family="sans-serif" font-size="13" lengthAdjust="spacing" textLength="688" x="391.5" y="607.2622">Record the returned delete work-request ID for operator visibility without using it as the confirmation source.</text><polygon fill="#334155" points="966.5,637.4609,976.5,641.4609,966.5,645.4609,970.5,641.4609" style="stroke:#334155;stroke-width:1.0;"/><line style="stroke:#334155;stroke-width:1.0;" x1="362.5" x2="972.5" y1="641.4609" y2="641.4609"/><text fill="#000000" font-family="sans-serif" font-size="13" font-weight="bold" lengthAdjust="spacing" textLength="18" x="369.5" y="636.395">12</text><text fill="#000000" font-family="sans-serif" font-size="13" lengthAdjust="spacing" textLength="504" x="391.5" y="636.395">Confirm deletion with GetAutonomousDatabase until the resource is not found.</text><path d="M30,656.4609 L94,656.4609 L94,663.5938 L84,673.5938 L30,673.5938 L30,656.4609 " fill="#F8FAFC" style="stroke:#475569;stroke-width:1.5;"/><rect fill="none" height="90.2031" style="stroke:#475569;stroke-width:1.5;" width="1132.5" x="30" y="656.4609"/><text fill="#000000" font-family="sans-serif" font-size="13" font-weight="bold" lengthAdjust="spacing" textLength="19" x="45" y="669.5278">alt</text><text fill="#000000" font-family="sans-serif" font-size="11" font-weight="bold" lengthAdjust="spacing" textLength="217" x="109" y="668.6714">[owned Secret cleanup succeeds]</text><polygon fill="#334155" points="1084.5,690.7266,1094.5,694.7266,1084.5,698.7266,1088.5,694.7266" style="stroke:#334155;stroke-width:1.0;"/><line style="stroke:#334155;stroke-width:1.0;" x1="362.5" x2="1090.5" y1="694.7266" y2="694.7266"/><text fill="#000000" font-family="sans-serif" font-size="13" font-weight="bold" lengthAdjust="spacing" textLength="18" x="369.5" y="689.6606">13</text><text fill="#000000" font-family="sans-serif" font-size="13" lengthAdjust="spacing" textLength="127" x="391.5" y="689.6606">remove the finalizer</text><line style="stroke:#475569;stroke-width:1.0;stroke-dasharray:2.0,2.0;" x1="30" x2="1162.5" y1="703.7266" y2="703.7266"/><text fill="#000000" font-family="sans-serif" font-size="11" font-weight="bold" lengthAdjust="spacing" textLength="138" x="35" y="713.937">[Secret cleanup fails]</text><polygon fill="#334155" points="87.5,734.6641,77.5,738.6641,87.5,742.6641,83.5,738.6641" style="stroke:#334155;stroke-width:1.0;"/><line style="stroke:#334155;stroke-width:1.0;stroke-dasharray:2.0,2.0;" x1="81.5" x2="361.5" y1="738.6641" y2="738.6641"/><text fill="#000000" font-family="sans-serif" font-size="13" font-weight="bold" lengthAdjust="spacing" textLength="18" x="93.5" y="733.5981">14</text><text fill="#000000" font-family="sans-serif" font-size="13" lengthAdjust="spacing" textLength="177" x="115.5" y="733.5981">retain the finalizer and retry</text><line style="stroke:#475569;stroke-width:1.0;stroke-dasharray:2.0,2.0;" x1="10" x2="1182.5" y1="761.6641" y2="761.6641"/><text fill="#000000" font-family="sans-serif" font-size="11" font-weight="bold" lengthAdjust="spacing" textLength="147" x="15" y="771.8745">[OCI state is retryable]</text><polygon fill="#334155" points="87.5,792.6016,77.5,796.6016,87.5,800.6016,83.5,796.6016" style="stroke:#334155;stroke-width:1.0;"/><line style="stroke:#334155;stroke-width:1.0;stroke-dasharray:2.0,2.0;" x1="81.5" x2="361.5" y1="796.6016" y2="796.6016"/><text fill="#000000" font-family="sans-serif" font-size="13" font-weight="bold" lengthAdjust="spacing" textLength="18" x="93.5" y="791.5356">15</text><text fill="#000000" font-family="sans-serif" font-size="13" lengthAdjust="spacing" textLength="110" x="115.5" y="791.5356">requeue required</text><line style="stroke:#475569;stroke-width:1.0;stroke-dasharray:2.0,2.0;" x1="10" x2="1182.5" y1="805.6016" y2="805.6016"/><text fill="#000000" font-family="sans-serif" font-size="11" font-weight="bold" lengthAdjust="spacing" textLength="200" x="15" y="815.812">[OCI state is failed or terminal]</text><polygon fill="#334155" points="87.5,836.5391,77.5,840.5391,87.5,844.5391,83.5,840.5391" style="stroke:#334155;stroke-width:1.0;"/><line style="stroke:#334155;stroke-width:1.0;stroke-dasharray:2.0,2.0;" x1="81.5" x2="361.5" y1="840.5391" y2="840.5391"/><text fill="#000000" font-family="sans-serif" font-size="13" font-weight="bold" lengthAdjust="spacing" textLength="18" x="93.5" y="835.4731">16</text><text fill="#000000" font-family="sans-serif" font-size="13" lengthAdjust="spacing" textLength="240" x="115.5" y="835.4731">unsuccessful terminal reconcile result</text><line style="stroke:#475569;stroke-width:1.0;stroke-dasharray:2.0,2.0;" x1="10" x2="1182.5" y1="849.5391" y2="849.5391"/><text fill="#000000" font-family="sans-serif" font-size="11" font-weight="bold" lengthAdjust="spacing" textLength="203" x="15" y="859.7495">[OCI state is active and usable]</text><path d="M20,870.3438 L167,870.3438 L167,877.4766 L157,887.4766 L20,887.4766 L20,870.3438 " fill="#F8FAFC" style="stroke:#475569;stroke-width:1.5;"/><rect fill="none" height="514.9219" style="stroke:#475569;stroke-width:1.5;" width="1142.5" x="20" y="870.3438"/><text fill="#000000" font-family="sans-serif" font-size="13" font-weight="bold" lengthAdjust="spacing" textLength="102" x="35" y="883.4106">Drift handling</text><path d="M324,892.4766 L324,1053.4766 L1017,1053.4766 L1017,902.4766 L1007,892.4766 L324,892.4766 " fill="#FEFFDD" style="stroke:#181818;stroke-width:0.5;"/><path d="M1007,892.4766 L1007,902.4766 L1017,902.4766 L1007,892.4766 " fill="#FEFFDD" style="stroke:#181818;stroke-width:0.5;"/><text fill="#000000" font-family="sans-serif" font-size="13" lengthAdjust="spacing" textLength="171" x="330" y="909.5435">Supported update surface:</text><text fill="#000000" font-family="sans-serif" font-size="13" lengthAdjust="spacing" textLength="108" x="330" y="924.6763">- compartmentId</text><text fill="#000000" font-family="sans-serif" font-size="13" lengthAdjust="spacing" textLength="104" x="330" y="939.8091">- computeModel</text><text fill="#000000" font-family="sans-serif" font-size="13" lengthAdjust="spacing" textLength="104" x="330" y="954.9419">- computeCount</text><text fill="#000000" font-family="sans-serif" font-size="13" lengthAdjust="spacing" textLength="191" x="330" y="970.0747">- presence-sensitive booleans</text><text fill="#000000" font-family="sans-serif" font-size="13" lengthAdjust="spacing" textLength="96" x="330" y="985.2075">- freeform tags</text><text fill="#000000" font-family="sans-serif" font-size="13" lengthAdjust="spacing" textLength="88" x="330" y="1000.3403">- defined tags</text><text fill="#000000" font-family="sans-serif" font-size="13" lengthAdjust="spacing" textLength="278" x="330" y="1015.4731">- adminPassword supplied through a Secret</text><text fill="#000000" font-family="sans-serif" font-size="13" lengthAdjust="spacing" textLength="139" x="330" y="1030.606">Reject before mutate:</text><text fill="#000000" font-family="sans-serif" font-size="13" lengthAdjust="spacing" textLength="93" x="330" y="1045.7388">- dbName drift</text><path d="M30,1065.8047 L100,1065.8047 L100,1072.9375 L90,1082.9375 L30,1082.9375 L30,1065.8047 " fill="#F8FAFC" style="stroke:#475569;stroke-width:1.5;"/><rect fill="none" height="46.2656" style="stroke:#475569;stroke-width:1.5;" width="406.5" x="30" y="1065.8047"/><text fill="#000000" font-family="sans-serif" font-size="13" font-weight="bold" lengthAdjust="spacing" textLength="25" x="45" y="1078.8716">opt</text><text fill="#000000" font-family="sans-serif" font-size="11" font-weight="bold" lengthAdjust="spacing" textLength="286" x="115" y="1078.0151">[unsupported or immutable drift is detected]</text><polygon fill="#334155" points="87.5,1100.0703,77.5,1104.0703,87.5,1108.0703,83.5,1104.0703" style="stroke:#334155;stroke-width:1.0;"/><line style="stroke:#334155;stroke-width:1.0;stroke-dasharray:2.0,2.0;" x1="81.5" x2="361.5" y1="1104.0703" y2="1104.0703"/><text fill="#000000" font-family="sans-serif" font-size="13" font-weight="bold" lengthAdjust="spacing" textLength="18" x="93.5" y="1099.0044">17</text><text fill="#000000" font-family="sans-serif" font-size="13" lengthAdjust="spacing" textLength="169" x="115.5" y="1099.0044">reject before OCI mutation</text><polygon fill="#334155" points="966.5,1136.2031,976.5,1140.2031,966.5,1144.2031,970.5,1140.2031" style="stroke:#334155;stroke-width:1.0;"/><line style="stroke:#334155;stroke-width:1.0;" x1="362.5" x2="972.5" y1="1140.2031" y2="1140.2031"/><text fill="#000000" font-family="sans-serif" font-size="13" font-weight="bold" lengthAdjust="spacing" textLength="18" x="369.5" y="1135.1372">18</text><text fill="#000000" font-family="sans-serif" font-size="13" lengthAdjust="spacing" textLength="291" x="391.5" y="1135.1372">Reject dbName drift before any OCI mutation.</text><polygon fill="#334155" points="966.5,1165.3359,976.5,1169.3359,966.5,1173.3359,970.5,1169.3359" style="stroke:#334155;stroke-width:1.0;"/><line style="stroke:#334155;stroke-width:1.0;" x1="362.5" x2="972.5" y1="1169.3359" y2="1169.3359"/><text fill="#000000" font-family="sans-serif" font-size="13" font-weight="bold" lengthAdjust="spacing" textLength="18" x="369.5" y="1164.27">19</text><text fill="#000000" font-family="sans-serif" font-size="13" lengthAdjust="spacing" textLength="500" x="391.5" y="1164.27">Move the autonomous database compartment before other mutable updates.</text><polygon fill="#334155" points="966.5,1194.4688,976.5,1198.4688,966.5,1202.4688,970.5,1198.4688" style="stroke:#334155;stroke-width:1.0;"/><line style="stroke:#334155;stroke-width:1.0;" x1="362.5" x2="972.5" y1="1198.4688" y2="1198.4688"/><text fill="#000000" font-family="sans-serif" font-size="13" font-weight="bold" lengthAdjust="spacing" textLength="18" x="369.5" y="1193.4028">20</text><text fill="#000000" font-family="sans-serif" font-size="13" lengthAdjust="spacing" textLength="488" x="391.5" y="1193.4028">Inject the admin-password Secret only when password rotation is configured.</text><polygon fill="#334155" points="966.5,1223.6016,976.5,1227.6016,966.5,1231.6016,970.5,1227.6016" style="stroke:#334155;stroke-width:1.0;"/><line style="stroke:#334155;stroke-width:1.0;" x1="362.5" x2="972.5" y1="1227.6016" y2="1227.6016"/><text fill="#000000" font-family="sans-serif" font-size="13" font-weight="bold" lengthAdjust="spacing" textLength="18" x="369.5" y="1222.5356">21</text><text fill="#000000" font-family="sans-serif" font-size="13" lengthAdjust="spacing" textLength="570" x="391.5" y="1222.5356">Generate a wallet Secret only when wallet generation is configured for a usable database.</text><path d="M288.5,1242.6016 L358.5,1242.6016 L358.5,1249.7344 L348.5,1259.7344 L288.5,1259.7344 L288.5,1242.6016 " fill="#F8FAFC" style="stroke:#475569;stroke-width:1.5;"/><rect fill="none" height="46.2656" style="stroke:#475569;stroke-width:1.5;" width="718" x="288.5" y="1242.6016"/><text fill="#000000" font-family="sans-serif" font-size="13" font-weight="bold" lengthAdjust="spacing" textLength="25" x="303.5" y="1255.6685">opt</text><text fill="#000000" font-family="sans-serif" font-size="11" font-weight="bold" lengthAdjust="spacing" textLength="258" x="373.5" y="1254.812">[supported drift or collection diff exists]</text><polygon fill="#334155" points="966.5,1276.8672,976.5,1280.8672,966.5,1284.8672,970.5,1280.8672" style="stroke:#334155;stroke-width:1.0;"/><line style="stroke:#334155;stroke-width:1.0;" x1="362.5" x2="972.5" y1="1280.8672" y2="1280.8672"/><text fill="#000000" font-family="sans-serif" font-size="13" font-weight="bold" lengthAdjust="spacing" textLength="18" x="369.5" y="1275.8013">22</text><text fill="#000000" font-family="sans-serif" font-size="13" lengthAdjust="spacing" textLength="277" x="391.5" y="1275.8013">apply the supported in-place mutation path</text><polygon fill="#334155" points="1084.5,1313,1094.5,1317,1084.5,1321,1088.5,1317" style="stroke:#334155;stroke-width:1.0;"/><line style="stroke:#334155;stroke-width:1.0;" x1="362.5" x2="1090.5" y1="1317" y2="1317"/><text fill="#000000" font-family="sans-serif" font-size="13" font-weight="bold" lengthAdjust="spacing" textLength="18" x="369.5" y="1311.9341">23</text><text fill="#000000" font-family="sans-serif" font-size="13" lengthAdjust="spacing" textLength="351" x="391.5" y="1311.9341">upsert the owned Secret for the usable active resource</text><path d="M30,1332 L94,1332 L94,1339.1328 L84,1349.1328 L30,1349.1328 L30,1332 " fill="#F8FAFC" style="stroke:#475569;stroke-width:1.5;"/><rect fill="none" height="46.2656" style="stroke:#475569;stroke-width:1.5;" width="406.5" x="30" y="1332"/><text fill="#000000" font-family="sans-serif" font-size="13" font-weight="bold" lengthAdjust="spacing" textLength="19" x="45" y="1345.0669">alt</text><text fill="#000000" font-family="sans-serif" font-size="11" font-weight="bold" lengthAdjust="spacing" textLength="116" x="109" y="1344.2104">[Secret sync fails]</text><polygon fill="#334155" points="87.5,1366.2656,77.5,1370.2656,87.5,1374.2656,83.5,1370.2656" style="stroke:#334155;stroke-width:1.0;"/><line style="stroke:#334155;stroke-width:1.0;stroke-dasharray:2.0,2.0;" x1="81.5" x2="361.5" y1="1370.2656" y2="1370.2656"/><text fill="#000000" font-family="sans-serif" font-size="13" font-weight="bold" lengthAdjust="spacing" textLength="18" x="93.5" y="1365.1997">24</text><text fill="#000000" font-family="sans-serif" font-size="13" lengthAdjust="spacing" textLength="150" x="115.5" y="1365.1997">block success and retry</text><polygon fill="#334155" points="87.5,1409.3984,77.5,1413.3984,87.5,1417.3984,83.5,1413.3984" style="stroke:#334155;stroke-width:1.0;"/><line style="stroke:#334155;stroke-width:1.0;stroke-dasharray:2.0,2.0;" x1="81.5" x2="361.5" y1="1413.3984" y2="1413.3984"/><text fill="#000000" font-family="sans-serif" font-size="13" font-weight="bold" lengthAdjust="spacing" textLength="18" x="93.5" y="1408.3325">25</text><text fill="#000000" font-family="sans-serif" font-size="13" lengthAdjust="spacing" textLength="169" x="115.5" y="1408.3325">successful active reconcile</text><path d="M51,1433.3984 L51,1548.3984 L1002,1548.3984 L1002,1443.3984 L992,1433.3984 L51,1433.3984 " fill="#FEFFDD" style="stroke:#181818;stroke-width:0.5;"/><path d="M992,1433.3984 L992,1443.3984 L1002,1443.3984 L992,1433.3984 " fill="#FEFFDD" style="stroke:#181818;stroke-width:0.5;"/><text fill="#000000" font-family="sans-serif" font-size="13" lengthAdjust="spacing" textLength="105" x="57" y="1450.4653">Boundary notes:</text><text fill="#000000" font-family="sans-serif" font-size="13" lengthAdjust="spacing" textLength="452" x="57" y="1465.5981">- Wallet Secret cleanup is ownership-filtered and legacy unowned wallet</text><text fill="#000000" font-family="sans-serif" font-size="13" lengthAdjust="spacing" textLength="146" x="73" y="1480.731">Secrets are preserved.</text><text fill="#000000" font-family="sans-serif" font-size="13" lengthAdjust="spacing" textLength="457" x="57" y="1495.8638">- The formal secret-delete profile is stronger than current code because</text><text fill="#000000" font-family="sans-serif" font-size="13" lengthAdjust="spacing" textLength="204" x="73" y="1510.9966">wallet cleanup is still best-effort.</text><text fill="#000000" font-family="sans-serif" font-size="13" lengthAdjust="spacing" textLength="108" x="57" y="1526.1294">Sequence notes:</text><text fill="#000000" font-family="sans-serif" font-size="13" lengthAdjust="spacing" textLength="503" x="57" y="1541.2622">- AVAILABLE_NEEDS_ATTENTION is a usable active state alongside AVAILABLE.</text><!--SRC=[bLTRJriv47u_lsB4lcvGTmijvM6b4092fRG2j7sid7Fc95uS-wmlfDdL_lUTiNqk2KbeaI2AFPxBDzzyDbvwXJ0EtcYpDC71fV1Y9XmwkCVIw5BIzWF-7L2NM0Ys2yiPsi8zITq8AvRW5g8oAwddK0lbSB1p8SgdkJL1LnEZZ8LVhkBFm69ihLdbpRTlJtuxFHriLbYBeFmZVlTZ9UTwYTg3mjeFW-VKuDy2u8kmNfQo4Tg_37rsDRwQR1aPMw7D1YVlJq_VVI23MrdZhTIuiVlXPFpsucoukwSsW6jQRNQxJbjxKnkNtjWNszCtLxzVJRljeUCtL-_VlPiM_nM2j-1eOhItHYcqHo0Sz5-BfgyQZXxGFal2x9FGOfvjyrfUAgfC0pZwFBc91lGvMFqOY0GQFV5a_2KPV3npHSdHIY-DTd3qrTWdOX4roFbemGlvUr7qoS7eZwtmvs0xybNefCKAN8Cb25s1aiy8pWiVNB5vZ1rH5dnQL32vprRnL2srKF8VCk95B0h6k85ROvxeWorcKbU4ib0UlAKcK4p25BytYe3pNFybRRBhDQrAvnrP0xnCWIpFOOxaPe5G1ckPjnQT2PP0dwtXIPkL1bdHkgmbeGs0D3cWJOeY7SoO0B16VoY6eYGwnuuzLz8rIgn1YoN6arnDJ9RdiykXPkznVvVl2663rh5xhe7FgMV28sMdM_JvU9lupmQ91PI4fiSOWxvtHtyyi-HWTs8nEF_btuA1g50HOobCf23oVcB1PTmu1BKBisKYGVOIZVdhQ2TxVR0QH1jnHSGVvR1mSraSg8w9RwlsO6FDd51ni5hmB91V8JMZpCLtb3xaxpxvIstahB3QanKrp88XT0LhoRDqSYQLz6jOIRymmKDm79bGe56Eu1jTIxiKFEwGEdTy2CD9ia_X-GmxXclq_VNJtZuGQ3HKHxx89veARNoYrN57RfeagkW1YGaUIeL2KpzTA4l4oXqcaiMbUSOTK4PERxciXLJx_973NitESvSs_KQ5eGsxtYOdns8UHLdY8gELc2ccsAkHg7aXCPf5SeStpZifcKUxv7HUTnjq1D2vEgZks42IgILqB-y8HjSGYpFN6bmk8K-ObRM71Uqe8b74uCxG8Mg0tKhdLxvfCj2XQOpb0GzDnJ5SiBKeyJplZuY3IxxQ-6bmKssi1e-V355jUt52_F7TOaEryFjXH7-TZDdFZE6UkywcjeWq6qlmOjwlqkj4ClKs5aL5M7qHpgruw1obhoJRB0Y4-O848R4gsz_ZNtHPmeoz8om3mzYNLitkICMXOkHQql049EanZOzzQW6Y1iibkvYfV8ORKj6SbqdfVeYumtouip4d6jK1QVUETwvcc7RhIkZrXhk3Cl6f7KhHlqgxXyUWtwrpGxOMsj8JKTp123SwPXfZSCD6JTknFFH6AvAz1MheTgn9gJEgKVZcWGRkO9Xhr2oc50HMWX3sBztdzNcoVE4-IhB8izI1SDmHe6z_Wfki-nSOFGRgUlXIsPke89gk8nozGqP5qQXrFICe_E8L7aHP3Or3cz3T46UkXHTpDLahDkvy5lHixTQw_1dHdIbJFa7MhRrg-wgRWV1r2MRPI- -8NhNwOrcnBlXc4dOTXzJn88_WwqRZsyk4cipGMBUGpQYMYZIMS8gFMvoBSasJdQ1B_EWGO2TKdCMaM_OvCN04ZtpNa4IHJBjeDUeV43LBDaLqbAtccZt9SFSkBKaZQP9A4Lpxxiga72HBBpkboChv4TOKnnz79FE_NeDont-ERsx75xVJRtVJwUN3j_7Zu_JkyURpNRmTjbgVhWsXA2j7Z-7-y77HITt_]--></g></svg>