<?xml version="1.0" encoding="UTF-8" standalone="no"?><svg xmlns="http://www.w3.org/2000/svg" xmlns:xlink="http://www.w3.org/1999/xlink" contentStyleType="text/css" height="521px" preserveAspectRatio="none" style="width:2939px;height:521px;background:#FFFFFF;" version="1.1" viewBox="0 0 2939 521" width="2939px" zoomAndPan="magnify"><defs/><g><text fill="#000000" font-family="sans-serif" font-size="14" font-weight="bold" lengthAdjust="spacing" textLength="384" x="1270.68" y="22.9951">Autonomous Databases Reconcile State Machine</text><ellipse cx="16" cy="357.7969" fill="#222222" rx="10" ry="10" style="stroke:none;stroke-width:1.0;"/><g id="Observe"><rect fill="#F8FAFC" height="50.2656" rx="6" ry="6" style="stroke:#475569;stroke-width:0.5;" width="329" x="86" y="332.7969"/><line style="stroke:#475569;stroke-width:0.5;" x1="86" x2="415" y1="359.0938" y2="359.0938"/><text fill="#0F172A" font-family="sans-serif" font-size="14" lengthAdjust="spacing" textLength="58" x="221.5" y="350.792">Observe</text><text fill="#0F172A" font-family="sans-serif" font-size="12" lengthAdjust="spacing" textLength="309" x="91" y="375.2324">read spec, status, delete intent, and OCI lifecycle</text></g><rect fill="#F8FAFC" height="40" rx="6" ry="6" style="stroke:#475569;stroke-width:0.5;" width="122" x="475" y="337.7969"/><text fill="#0F172A" font-family="sans-serif" font-size="14" lengthAdjust="spacing" textLength="112" x="480" y="362.6436">ResolveByName</text><rect fill="#F8FAFC" height="40" rx="6" ry="6" style="stroke:#475569;stroke-width:0.5;" width="111" x="657" y="244.7969"/><text fill="#0F172A" font-family="sans-serif" font-size="14" lengthAdjust="spacing" textLength="101" x="662" y="269.6436">EvaluateReady</text><rect fill="#F8FAFC" height="40" rx="6" ry="6" style="stroke:#475569;stroke-width:0.5;" width="75" x="1072" y="337.7969"/><text fill="#0F172A" font-family="sans-serif" font-size="14" lengthAdjust="spacing" textLength="65" x="1077" y="362.6436">Retryable</text><rect fill="#F8FAFC" height="40" rx="6" ry="6" style="stroke:#475569;stroke-width:0.5;" width="50" x="1237" y="423.7969"/><text fill="#0F172A" font-family="sans-serif" font-size="14" lengthAdjust="spacing" textLength="40" x="1242" y="448.6436">Failed</text><rect fill="#F8FAFC" height="40" rx="6" ry="6" style="stroke:#475569;stroke-width:0.5;" width="173" x="828" y="169.7969"/><text fill="#0F172A" font-family="sans-serif" font-size="14" lengthAdjust="spacing" textLength="163" x="833" y="194.6436">RejectUnsupportedDrift</text><rect fill="#F8FAFC" height="40" rx="6" ry="6" style="stroke:#475569;stroke-width:0.5;" width="53" x="1395" y="169.7969"/><text fill="#0F172A" font-family="sans-serif" font-size="14" lengthAdjust="spacing" textLength="43" x="1400" y="194.6436">Ready</text><rect fill="#F8FAFC" height="40" rx="6" ry="6" style="stroke:#475569;stroke-width:0.5;" width="142" x="843.5" y="244.7969"/><text fill="#0F172A" font-family="sans-serif" font-size="14" lengthAdjust="spacing" textLength="132" x="848.5" y="269.6436">MoveCompartment</text><rect fill="#F8FAFC" height="40" rx="6" ry="6" style="stroke:#475569;stroke-width:0.5;" width="97" x="1061" y="244.7969"/><text fill="#0F172A" font-family="sans-serif" font-size="14" lengthAdjust="spacing" textLength="87" x="1066" y="269.6436">ApplyUpdate</text><rect fill="#F8FAFC" height="40" rx="6" ry="6" style="stroke:#475569;stroke-width:0.5;" width="88" x="1218" y="244.7969"/><text fill="#0F172A" font-family="sans-serif" font-size="14" lengthAdjust="spacing" textLength="78" x="1223" y="269.6436">SyncSecret</text><rect fill="#F8FAFC" height="40" rx="6" ry="6" style="stroke:#475569;stroke-width:0.5;" width="111" x="1366" y="244.7969"/><text fill="#0F172A" font-family="sans-serif" font-size="14" lengthAdjust="spacing" textLength="101" x="1371" y="269.6436">SecretBlocked</text><rect fill="#F8FAFC" height="40" rx="6" ry="6" style="stroke:#475569;stroke-width:0.5;" width="113" x="1673" y="345.7969"/><text fill="#0F172A" font-family="sans-serif" font-size="14" lengthAdjust="spacing" textLength="103" x="1678" y="370.6436">DeletePending</text><rect fill="#F8FAFC" height="40" rx="6" ry="6" style="stroke:#475569;stroke-width:0.5;" width="218" x="2068.5" y="277.7969"/><text fill="#0F172A" font-family="sans-serif" font-size="14" lengthAdjust="spacing" textLength="208" x="2073.5" y="302.6436">DeleteWorkRequestRecorded</text><rect fill="#F8FAFC" height="40" rx="6" ry="6" style="stroke:#475569;stroke-width:0.5;" width="169" x="2433" y="277.7969"/><text fill="#0F172A" font-family="sans-serif" font-size="14" lengthAdjust="spacing" textLength="159" x="2438" y="302.6436">DeleteCleanupBlocked</text><rect fill="#F8FAFC" height="40" rx="6" ry="6" style="stroke:#475569;stroke-width:0.5;" width="65" x="2662" y="277.7969"/><text fill="#0F172A" font-family="sans-serif" font-size="14" lengthAdjust="spacing" textLength="55" x="2667" y="302.6436">Deleted</text><g id="elem_GMN41"><path d="M1537,49.2969 L1537,185.7969 L1448.03,189.7969 L1537,193.7969 L1537,304.5547 A6,6 0 0 0 1543,310.5547 L1916,310.5547 A6,6 0 0 0 1922,304.5547 L1922,53.2969 L1912,43.2969 L1543,43.2969 A6,6 0 0 0 1537,49.2969 " fill="#FFF7ED" style="stroke:#181818;stroke-width:0.5;"/><path d="M1912,43.2969 L1912,50.2969 A3,3 0 0 0 1915,53.2969 L1922,53.2969 L1912,43.2969 " fill="#FFF7ED" style="stroke:#181818;stroke-width:0.5;"/><text fill="#0F172A" font-family="sans-serif" font-size="13" lengthAdjust="spacing" textLength="69" x="1543" y="60.3638">Archetype:</text><text fill="#0F172A" font-family="sans-serif" font-size="13" lengthAdjust="spacing" textLength="183" x="1543" y="75.4966">- resolved-drift-delete-secret</text><text fill="#0F172A" font-family="sans-serif" font-size="13" lengthAdjust="spacing" textLength="102" x="1543" y="90.6294">Update surface:</text><text fill="#0F172A" font-family="sans-serif" font-size="13" lengthAdjust="spacing" textLength="108" x="1543" y="105.7622">- compartmentId</text><text fill="#0F172A" font-family="sans-serif" font-size="13" lengthAdjust="spacing" textLength="104" x="1543" y="120.895">- computeModel</text><text fill="#0F172A" font-family="sans-serif" font-size="13" lengthAdjust="spacing" textLength="104" x="1543" y="136.0278">- computeCount</text><text fill="#0F172A" font-family="sans-serif" font-size="13" lengthAdjust="spacing" textLength="191" x="1543" y="151.1606">- presence-sensitive booleans</text><text fill="#0F172A" font-family="sans-serif" font-size="13" lengthAdjust="spacing" textLength="96" x="1543" y="166.2935">- freeform tags</text><text fill="#0F172A" font-family="sans-serif" font-size="13" lengthAdjust="spacing" textLength="88" x="1543" y="181.4263">- defined tags</text><text fill="#0F172A" font-family="sans-serif" font-size="13" lengthAdjust="spacing" textLength="278" x="1543" y="196.5591">- adminPassword supplied through a Secret</text><text fill="#0F172A" font-family="sans-serif" font-size="13" lengthAdjust="spacing" textLength="139" x="1543" y="211.6919">Reject before mutate:</text><text fill="#0F172A" font-family="sans-serif" font-size="13" lengthAdjust="spacing" textLength="93" x="1543" y="226.8247">- dbName drift</text><text fill="#0F172A" font-family="sans-serif" font-size="13" lengthAdjust="spacing" textLength="105" x="1543" y="241.9575">Boundary notes:</text><text fill="#0F172A" font-family="sans-serif" font-size="13" lengthAdjust="spacing" textLength="351" x="1543" y="257.0903">- Wallet Secret cleanup is ownership-filtered and legacy</text><text fill="#0F172A" font-family="sans-serif" font-size="13" lengthAdjust="spacing" textLength="247" x="1559" y="272.2231">unowned wallet Secrets are preserved.</text><text fill="#0F172A" font-family="sans-serif" font-size="13" lengthAdjust="spacing" textLength="364" x="1543" y="287.356">- The formal secret-delete profile is stronger than current</text><text fill="#0F172A" font-family="sans-serif" font-size="13" lengthAdjust="spacing" textLength="297" x="1559" y="302.4888">code because wallet cleanup is still best-effort.</text></g><g id="elem_GMN44"><path d="M1982,359.2969 L1982,365.5469 L1786.24,369.5469 L1982,373.5469 L1982,508.625 A6,6 0 0 0 1988,514.625 L2367,514.625 A6,6 0 0 0 2373,508.625 L2373,363.2969 L2363,353.2969 L1988,353.2969 A6,6 0 0 0 1982,359.2969 " fill="#FFF7ED" style="stroke:#181818;stroke-width:0.5;"/><path d="M2363,353.2969 L2363,360.2969 A3,3 0 0 0 2366,363.2969 L2373,363.2969 L2363,353.2969 " fill="#FFF7ED" style="stroke:#181818;stroke-width:0.5;"/><text fill="#0F172A" font-family="sans-serif" font-size="13" lengthAdjust="spacing" textLength="90" x="1988" y="370.3638">Delete states:</text><text fill="#0F172A" font-family="sans-serif" font-size="13" lengthAdjust="spacing" textLength="102" x="1988" y="385.4966">- DeletePending</text><text fill="#0F172A" font-family="sans-serif" font-size="13" lengthAdjust="spacing" textLength="194" x="1988" y="400.6294">- DeleteWorkRequestRecorded</text><text fill="#0F172A" font-family="sans-serif" font-size="13" lengthAdjust="spacing" textLength="153" x="1988" y="415.7622">- DeleteCleanupBlocked</text><text fill="#0F172A" font-family="sans-serif" font-size="13" lengthAdjust="spacing" textLength="59" x="1988" y="430.895">- Deleted</text><text fill="#0F172A" font-family="sans-serif" font-size="13" lengthAdjust="spacing" textLength="103" x="1988" y="446.0278">Delete workflow:</text><text fill="#0F172A" font-family="sans-serif" font-size="13" lengthAdjust="spacing" textLength="365" x="1988" y="461.1606">- Record the returned delete work-request ID for operator</text><text fill="#0F172A" font-family="sans-serif" font-size="13" lengthAdjust="spacing" textLength="328" x="2004" y="476.2935">visibility without using it as the confirmation source.</text><text fill="#0F172A" font-family="sans-serif" font-size="13" lengthAdjust="spacing" textLength="370" x="1988" y="491.4263">- Confirm deletion with GetAutonomousDatabase until the</text><text fill="#0F172A" font-family="sans-serif" font-size="13" lengthAdjust="spacing" textLength="139" x="2004" y="506.5591">resource is not found.</text></g><!--link *start to Observe--><g id="link_*start_Observe"><path d="M26.08,357.7969 C26.08,357.7969 80.84,357.7969 80.84,357.7969 " fill="none" id="*start-to-Observe" style="stroke:#181818;stroke-width:1.0;"/><polygon fill="#181818" points="85.84,357.7969,76.84,353.7969,80.84,357.7969,76.84,361.7969,85.84,357.7969" style="stroke:#181818;stroke-width:1.0;"/></g><!--link Observe to ResolveByName--><g id="link_Observe_ResolveByName"><path d="M415.34,357.7969 C415.34,357.7969 469.86,357.7969 469.86,357.7969 " fill="none" id="Observe-to-ResolveByName" style="stroke:#181818;stroke-width:1.0;"/><polygon fill="#181818" points="474.86,357.7969,465.86,353.7969,469.86,357.7969,465.86,361.7969,474.86,357.7969" style="stroke:#181818;stroke-width:1.0;"/><text fill="#000000" font-family="sans-serif" font-size="13" lengthAdjust="spacing" textLength="163" x="443.6" y="370.8638">status/spec OCID missing</text></g><!--link ResolveByName to EvaluateReady--><g id="link_ResolveByName_EvaluateReady"><path d="M597.41,357.7969 C648.53,357.7969 713,357.7969 713,357.7969 C713,357.7969 713,289.9769 713,289.9769 " fill="none" id="ResolveByName-to-EvaluateReady" style="stroke:#181818;stroke-width:1.0;"/><polygon fill="#181818" points="713,284.9769,709,293.9769,713,289.9769,717,293.9769,713,284.9769" style="stroke:#181818;stroke-width:1.0;"/><text fill="#000000" font-family="sans-serif" font-size="13" lengthAdjust="spacing" textLength="356" x="690.11" y="353.8638">OCI state in AVAILABLE, AVAILABLE_NEEDS_ATTENTION</text></g><!--link ResolveByName to Retryable--><g id="link_ResolveByName_Retryable"><path d="M597.1,367.7969 C597.1,367.7969 1066.75,367.7969 1066.75,367.7969 " fill="none" id="ResolveByName-to-Retryable" style="stroke:#181818;stroke-width:1.0;"/><polygon fill="#181818" points="1071.75,367.7969,1062.75,363.7969,1066.75,367.7969,1062.75,371.7969,1071.75,367.7969" style="stroke:#181818;stroke-width:1.0;"/><text fill="#000000" font-family="sans-serif" font-size="13" lengthAdjust="spacing" textLength="1144" x="832.93" y="380.8638">OCI state in PROVISIONING, UPDATING, STARTING, STOPPING, MAINTENANCE_IN_PROGRESS, RESTARTING, SCALE_IN_PROGRESS, BACKUP_IN_PROGRESS, RESTORE_IN_PROGRESS</text></g><!--link ResolveByName to Failed--><g id="link_ResolveByName_Failed"><path d="M536,377.9069 C536,405.1569 536,450.4669 536,450.4669 C536,450.4669 1231.59,450.4669 1231.59,450.4669 " fill="none" id="ResolveByName-to-Failed" style="stroke:#181818;stroke-width:1.0;"/><polygon fill="#181818" points="1236.59,450.4669,1227.59,446.4669,1231.59,450.4669,1227.59,454.4669,1236.59,450.4669" style="stroke:#181818;stroke-width:1.0;"/><text fill="#000000" font-family="sans-serif" font-size="13" lengthAdjust="spacing" textLength="621" x="225.51" y="463.5338">OCI state in FAILED, UNAVAILABLE, TERMINATING, TERMINATED, RESTORE_FAILED, INACCESSIBLE</text></g><!--link EvaluateReady to RejectUnsupportedDrift--><g id="link_EvaluateReady_RejectUnsupportedDrift"><path d="M768.11,258.1269 C800.89,258.1269 836,258.1269 836,258.1269 C836,258.1269 836,214.9269 836,214.9269 " fill="none" id="EvaluateReady-to-RejectUnsupportedDrift" style="stroke:#181818;stroke-width:1.0;"/><polygon fill="#181818" points="836,209.9269,832,218.9269,836,214.9269,840,218.9269,836,209.9269" style="stroke:#181818;stroke-width:1.0;"/><text fill="#000000" font-family="sans-serif" font-size="13" lengthAdjust="spacing" textLength="275" x="547.65" y="254.1938">unsupported or immutable drift is detected</text></g><!--link RejectUnsupportedDrift to Ready--><g id="link_RejectUnsupportedDrift_Ready"><path d="M1001.08,179.7969 C1001.08,179.7969 1389.85,179.7969 1389.85,179.7969 " fill="none" id="RejectUnsupportedDrift-to-Ready" style="stroke:#181818;stroke-width:1.0;"/><polygon fill="#181818" points="1394.85,179.7969,1385.85,175.7969,1389.85,179.7969,1385.85,183.7969,1394.85,179.7969" style="stroke:#181818;stroke-width:1.0;"/><text fill="#000000" font-family="sans-serif" font-size="13" lengthAdjust="spacing" textLength="252" x="1196.46" y="175.8638">wait for the spec or live state to change</text></g><!--link EvaluateReady to MoveCompartment--><g id="link_EvaluateReady_MoveCompartment"><path d="M768.23,271.4669 C768.23,271.4669 838.4,271.4669 838.4,271.4669 " fill="none" id="EvaluateReady-to-MoveCompartment" style="stroke:#181818;stroke-width:1.0;"/><polygon fill="#181818" points="843.4,271.4669,834.4,267.4669,838.4,271.4669,834.4,275.4669,843.4,271.4669" style="stroke:#181818;stroke-width:1.0;"/><text fill="#000000" font-family="sans-serif" font-size="13" lengthAdjust="spacing" textLength="158" x="644.32" y="284.5338">continue active reconcile</text></g><!--link MoveCompartment to ApplyUpdate--><g id="link_MoveCompartment_ApplyUpdate"><path d="M985.73,264.7969 C985.73,264.7969 1055.99,264.7969 1055.99,264.7969 " fill="none" id="MoveCompartment-to-ApplyUpdate" style="stroke:#181818;stroke-width:1.0;"/><polygon fill="#181818" points="1060.99,264.7969,1051.99,260.7969,1055.99,264.7969,1051.99,268.7969,1060.99,264.7969" style="stroke:#181818;stroke-width:1.0;"/><text fill="#000000" font-family="sans-serif" font-size="13" lengthAdjust="spacing" textLength="221" x="1021.86" y="277.8638">continue after compartment move</text></g><!--link ApplyUpdate to SyncSecret--><g id="link_ApplyUpdate_SyncSecret"><path d="M1158.17,264.7969 C1158.17,264.7969 1212.92,264.7969 1212.92,264.7969 " fill="none" id="ApplyUpdate-to-SyncSecret" style="stroke:#181818;stroke-width:1.0;"/><polygon fill="#181818" points="1217.92,264.7969,1208.92,260.7969,1212.92,264.7969,1208.92,268.7969,1217.92,264.7969" style="stroke:#181818;stroke-width:1.0;"/><text fill="#000000" font-family="sans-serif" font-size="13" lengthAdjust="spacing" textLength="231" x="1186.55" y="260.8638">supported mutation path completes</text></g><!--link SyncSecret to SecretBlocked--><g id="link_SyncSecret_SecretBlocked"><path d="M1306.01,271.4669 C1306.01,271.4669 1360.94,271.4669 1360.94,271.4669 " fill="none" id="SyncSecret-to-SecretBlocked" style="stroke:#181818;stroke-width:1.0;"/><polygon fill="#181818" points="1365.94,271.4669,1356.94,267.4669,1360.94,271.4669,1356.94,275.4669,1365.94,271.4669" style="stroke:#181818;stroke-width:1.0;"/><text fill="#000000" font-family="sans-serif" font-size="13" lengthAdjust="spacing" textLength="105" x="1334.48" y="284.5338">Secret write fails</text></g><!--link SecretBlocked to SyncSecret--><g id="link_SecretBlocked_SyncSecret"><path d="M1365.71,258.1269 C1365.71,258.1269 1311.2,258.1269 1311.2,258.1269 " fill="none" id="SecretBlocked-to-SyncSecret" style="stroke:#181818;stroke-width:1.0;"/><polygon fill="#181818" points="1306.2,258.1269,1315.2,262.1269,1311.2,258.1269,1315.2,254.1269,1306.2,258.1269" style="stroke:#181818;stroke-width:1.0;"/><text fill="#000000" font-family="sans-serif" font-size="13" lengthAdjust="spacing" textLength="109" x="1228.46" y="254.1938">retry Secret sync</text></g><!--link SyncSecret to Ready--><g id="link_SyncSecret_Ready"><path d="M1262,244.6969 C1262,222.4869 1262,189.7969 1262,189.7969 C1262,189.7969 1389.8,189.7969 1389.8,189.7969 " fill="none" id="SyncSecret-to-Ready" style="stroke:#181818;stroke-width:1.0;"/><polygon fill="#181818" points="1394.8,189.7969,1385.8,185.7969,1389.8,189.7969,1385.8,193.7969,1394.8,189.7969" style="stroke:#181818;stroke-width:1.0;"/><text fill="#000000" font-family="sans-serif" font-size="13" lengthAdjust="spacing" textLength="176" x="1121.45" y="202.8638">Secret side effects succeed</text></g><!--link Ready to Ready--><g id="link_Ready_Ready"><path d="M1394.71,199.7969 C1387.18,199.7969 1381,199.7969 1381,199.7969 C1381,199.7969 1381,227.2969 1381,227.2969 C1381,227.2969 1463,227.2969 1463,227.2969 C1463,227.2969 1463,179.7969 1463,179.7969 C1463,179.7969 1453.02,179.7969 1453.02,179.7969 " fill="none" id="Ready-to-Ready" style="stroke:#181818;stroke-width:1.0;"/><polygon fill="#181818" points="1448.02,179.7969,1457.02,183.7969,1453.02,179.7969,1457.02,175.7969,1448.02,179.7969" style="stroke:#181818;stroke-width:1.0;"/><text fill="#000000" font-family="sans-serif" font-size="13" lengthAdjust="spacing" textLength="170" x="1254.14" y="218.3638">no supported drift remains</text></g><!--link Retryable to Retryable--><g id="link_Retryable_Retryable"><path d="M1071.88,347.7969 C1068.89,347.7969 1067,347.7969 1067,347.7969 C1067,347.7969 1067,322.7969 1067,322.7969 C1067,322.7969 1153,322.7969 1153,322.7969 C1153,322.7969 1153,341.7969 1153,341.7969 C1153,341.7969 1152.31,341.7969 1152.31,341.7969 " fill="none" id="Retryable-to-Retryable" style="stroke:#181818;stroke-width:1.0;"/><polygon fill="#181818" points="1147.31,341.7969,1156.31,345.7969,1152.31,341.7969,1156.31,337.7969,1147.31,341.7969" style="stroke:#181818;stroke-width:1.0;"/><text fill="#000000" font-family="sans-serif" font-size="13" lengthAdjust="spacing" textLength="159" x="939.91" y="313.8638">OCI remains nonterminal</text></g><!--link Failed to Failed--><g id="link_Failed_Failed"><path d="M1236.93,437.1269 C1231.84,437.1269 1228,437.1269 1228,437.1269 C1228,437.1269 1228,404.7969 1228,404.7969 C1228,404.7969 1297,404.7969 1297,404.7969 C1297,404.7969 1297,443.7969 1297,443.7969 C1297,443.7969 1292.06,443.7969 1292.06,443.7969 " fill="none" id="Failed-to-Failed" style="stroke:#181818;stroke-width:1.0;"/><polygon fill="#181818" points="1287.06,443.7969,1296.06,447.7969,1292.06,443.7969,1296.06,439.7969,1287.06,443.7969" style="stroke:#181818;stroke-width:1.0;"/><text fill="#000000" font-family="sans-serif" font-size="13" lengthAdjust="spacing" textLength="135" x="1269.83" y="409.3638">OCI remains terminal</text></g><!--link Ready to DeletePending--><g id="link_Ready_DeletePending"><path d="M1448.08,199.7969 C1473.18,199.7969 1507,199.7969 1507,199.7969 C1507,199.7969 1507,353.7969 1507,353.7969 C1507,353.7969 1667.78,353.7969 1667.78,353.7969 " fill="none" id="Ready-to-DeletePending" style="stroke:#181818;stroke-width:1.0;"/><polygon fill="#181818" points="1672.78,353.7969,1663.78,349.7969,1667.78,353.7969,1663.78,357.7969,1672.78,353.7969" style="stroke:#181818;stroke-width:1.0;"/><text fill="#000000" font-family="sans-serif" font-size="13" lengthAdjust="spacing" textLength="109" x="1397" y="340.7938">delete requested</text></g><!--link Retryable to DeletePending--><g id="link_Retryable_DeletePending"><path d="M1147.35,361.7969 C1147.35,361.7969 1667.75,361.7969 1667.75,361.7969 " fill="none" id="Retryable-to-DeletePending" style="stroke:#181818;stroke-width:1.0;"/><polygon fill="#181818" points="1672.75,361.7969,1663.75,357.7969,1667.75,361.7969,1663.75,365.7969,1672.75,361.7969" style="stroke:#181818;stroke-width:1.0;"/><text fill="#000000" font-family="sans-serif" font-size="13" lengthAdjust="spacing" textLength="109" x="1297.55" y="357.8638">delete requested</text></g><!--link Failed to DeletePending--><g id="link_Failed_DeletePending"><path d="M1262,423.5769 C1262,401.6669 1262,369.7969 1262,369.7969 C1262,369.7969 1667.64,369.7969 1667.64,369.7969 " fill="none" id="Failed-to-DeletePending" style="stroke:#181818;stroke-width:1.0;"/><polygon fill="#181818" points="1672.64,369.7969,1663.64,365.7969,1667.64,369.7969,1663.64,373.7969,1672.64,369.7969" style="stroke:#181818;stroke-width:1.0;"/><text fill="#000000" font-family="sans-serif" font-size="13" lengthAdjust="spacing" textLength="109" x="1438.93" y="365.8638">delete requested</text></g><!--link DeletePending to DeleteWorkRequestRecorded--><g id="link_DeletePending_DeleteWorkRequestRecorded"><path d="M1730,345.6369 C1730,331.1069 1730,314.0469 1730,314.0469 C1730,314.0469 2063.32,314.0469 2063.32,314.0469 " fill="none" id="DeletePending-to-DeleteWorkRequestRecorded" style="stroke:#181818;stroke-width:1.0;"/><polygon fill="#181818" points="2068.32,314.0469,2059.32,310.0469,2063.32,314.0469,2059.32,318.0469,2068.32,314.0469" style="stroke:#181818;stroke-width:1.0;"/><text fill="#000000" font-family="sans-serif" font-size="13" lengthAdjust="spacing" textLength="271" x="1608.86" y="327.1138">record the returned work-request identifier</text></g><!--link DeleteWorkRequestRecorded to DeleteCleanupBlocked--><g id="link_DeleteWorkRequestRecorded_DeleteCleanupBlocked"><path d="M2286.95,297.7969 C2286.95,297.7969 2427.79,297.7969 2427.79,297.7969 " fill="none" id="DeleteWorkRequestRecorded-to-DeleteCleanupBlocked" style="stroke:#181818;stroke-width:1.0;"/><polygon fill="#181818" points="2432.79,297.7969,2423.79,293.7969,2427.79,297.7969,2423.79,301.7969,2432.79,297.7969" style="stroke:#181818;stroke-width:1.0;"/><text fill="#000000" font-family="sans-serif" font-size="13" lengthAdjust="spacing" textLength="274" x="2358.37" y="310.8638">owned Secret cleanup fails after OCI delete</text></g><!--link DeleteCleanupBlocked to Deleted--><g id="link_DeleteCleanupBlocked_Deleted"><path d="M2602.11,291.1269 C2602.11,291.1269 2656.62,291.1269 2656.62,291.1269 " fill="none" id="DeleteCleanupBlocked-to-Deleted" style="stroke:#181818;stroke-width:1.0;"/><polygon fill="#181818" points="2661.62,291.1269,2652.62,287.1269,2656.62,291.1269,2652.62,295.1269,2661.62,291.1269" style="stroke:#181818;stroke-width:1.0;"/><text fill="#000000" font-family="sans-serif" font-size="13" lengthAdjust="spacing" textLength="301" x="2630.36" y="287.1938">retry Secret cleanup until completion is allowed</text></g><!--link Deleted to Deleted--><g id="link_Deleted_Deleted"><path d="M2661.79,304.4669 C2646.66,304.4669 2632,304.4669 2632,304.4669 C2632,304.4669 2632,327.7969 2632,327.7969 C2632,327.7969 2745,327.7969 2745,327.7969 C2745,327.7969 2745,297.7969 2745,297.7969 C2745,297.7969 2732.05,297.7969 2732.05,297.7969 " fill="none" id="Deleted-to-Deleted" style="stroke:#181818;stroke-width:1.0;"/><polygon fill="#181818" points="2727.05,297.7969,2736.05,301.7969,2732.05,297.7969,2736.05,293.7969,2727.05,297.7969" style="stroke:#181818;stroke-width:1.0;"/><text fill="#000000" font-family="sans-serif" font-size="13" lengthAdjust="spacing" textLength="100" x="2577.41" y="345.8638">terminal stutter</text></g><!--SRC=[XLPDR-Cs4BthLn3ehOYtkzjDqysXWFmL64qSmtPs3qKHqDJ8PaEHAad5QnJxt_j8IP7iEDWS74apysRuvejUUaKihRpHfZ2LOsFk-OOxScn9mcWX8LvvxedTSR6JcX95kMVUC2ktEyyoQKbuQNIoananAaf_O1avOMKPFxidgKjkUS7SZcTcB_MMvLmvwaaKSFsX96QitvcUm9fAPy9OJPPz-DWJ3BbusaRfo2XZsK_J-DVJo2ZdbV9h-kPJ9RUw8ErPYBqVKJpOVmbZGsCpiWtMfwlBozy-u-lKQDzyUp_zSFKn3PglFFy-JQUZv7iFLvjpiCDFbx- -_tmMOZgzcepFEloU_FNptsmm-8FTRnpPPqgQ_-oQMU8PSoM9YtYIobtWr8hWMsgFurumhZDsFvg1u9p4GQZEEY0koHdrJCF3d1S1hmRv9I06gp4hf7F8LtAi64mdprnL86-940um3KvgDgLcwPTqTfiERoSNtUFZV38PhnxJzNeoNy_kvsSmb-JjWMyKdU8jblTVPYiOpUOt5-nXCKxNyMcrJfVjq_rY4P_kqjaSBjBvQF8ucp_2z6OvMQqk67uxzL5wUo8UfgC_7nQlJUwNHufdmfvoz4Xs6lCKvvwC4UsynyPwihoRpPlesvUWrNfghV1zD8Ax6SoIOwvhflv1qpreLvKbMeQoiPLeocjMTP_GIqmMHUKZerbKa0u5uc5AMV86HWrV9tNFfMSvSFoEOfq5J2LHFVKnCGJ4ZkijdGdnpZpJo1Je1nyxxvfXcdYfAs8Sym8OjfqloQbki4_BKXqUoYpuwTlc7gD0z9GB62TzxM2zEcYn8c4fEEue2Mo4eSHAxdSH9NIBIthgqJe-3fKHJp6nZMXl9U1pf1iMHoglNDfGogsTW-JKHKjngn9dPuuczGxn2a4nGrs-QsrjUeUfKsgfu5Axf6kUSwtKQ040Wy4MKdELD7NxgeHRtHV5Bevnd2uBqbcOujVjjB7qRqMkBgf-53zKxuNmGzrZXSxagx5ForehR2pCsomc83p6mWM_5HP8nlRG73I038IZf799DdaRf_CoKiHrLNOrOVO1iacVgALrRJGr6gYi3v6SXUYmizE2QU4gHAZQCWrbY_xbIfdz2nsdC6tEqA2LnqkIn5LKhsgJruMKf5RiuhwzJWRm70TQDeZrDAX37hWOITAqbAjipaLKxxNUB6lUAqzt1eRTwmZBpUEr13ff4V2qax7jDyQ4upb8Sqk4yL8mpxVX7IjR1bQRLvxXB0lkt3waCXI-aa6wm-hSxXXlw6ec6Ti4BAfxF8QQRUACZkTAXc7TSd0S2751_1LKWkmJpa5nIArrEraESgb08do6FQfeoyK1IveXCNNwztq8v0RkuucnOBDtSB56-OK3XeH4dOPUQ9aytApWpNbhC4B3aEMQYSfQK1kz272AKmbUEMfTzS9qA0u5kVC3J0xCX7S9cYEUxpJjHxtJb4uzmoCJn-B1sutr8ZkkvPVFRLd6LijHg05zUQOLiqxjfIDntmYxnfHakJSsKl0idTn89N6dt4jS3IlFgd0ZOLXCt4LCh8PSWkBO8CvKLb2WVbH_hZq5KR1dD-IxksvxrMtw363HPsY8W18u1eq82fNJu_P_]--></g></svg>