<?xml version="1.0" encoding="UTF-8" standalone="no"?><svg xmlns="http://www.w3.org/2000/svg" xmlns:xlink="http://www.w3.org/1999/xlink" contentStyleType="text/css" height="843px" preserveAspectRatio="none" style="width:589px;height:843px;background:#FFFFFF;" version="1.1" viewBox="0 0 589 843" width="589px" zoomAndPan="magnify"><defs/><g><text fill="#000000" font-family="sans-serif" font-size="14" font-weight="bold" lengthAdjust="spacing" textLength="344" x="112.585" y="22.9951">Autonomous Databases Controller Contract</text><ellipse cx="263.67" cy="201.2969" fill="#222222" rx="10" ry="10" style="stroke:none;stroke-width:1.0;"/><g id="LookupOrCreate"><rect fill="#F1F1F1" height="50" rx="12.5" ry="12.5" style="stroke:#181818;stroke-width:0.5;" width="133" x="197.17" y="419.2969"/><line style="stroke:#181818;stroke-width:0.5;" x1="197.17" x2="330.17" y1="445.5938" y2="445.5938"/><text fill="#000000" font-family="sans-serif" font-size="14" lengthAdjust="spacing" textLength="113" x="207.17" y="437.292">LookupOrCreate</text></g><g id="Provisioning"><rect fill="#F1F1F1" height="50" rx="12.5" ry="12.5" style="stroke:#181818;stroke-width:0.5;" width="103" x="58.17" y="546.2969"/><line style="stroke:#181818;stroke-width:0.5;" x1="58.17" x2="161.17" y1="572.5938" y2="572.5938"/><text fill="#000000" font-family="sans-serif" font-size="14" lengthAdjust="spacing" textLength="83" x="68.17" y="564.292">Provisioning</text></g><g id="Active"><rect fill="#F1F1F1" height="50" rx="12.5" ry="12.5" style="stroke:#181818;stroke-width:0.5;" width="61" x="281.17" y="546.2969"/><line style="stroke:#181818;stroke-width:0.5;" x1="281.17" x2="342.17" y1="572.5938" y2="572.5938"/><text fill="#000000" font-family="sans-serif" font-size="14" lengthAdjust="spacing" textLength="41" x="291.17" y="564.292">Active</text></g><g id="Failed"><rect fill="#F1F1F1" height="50" rx="12.5" ry="12.5" style="stroke:#181818;stroke-width:0.5;" width="60" x="454.67" y="626.2969"/><line style="stroke:#181818;stroke-width:0.5;" x1="454.67" x2="514.67" y1="652.5938" y2="652.5938"/><text fill="#000000" font-family="sans-serif" font-size="14" lengthAdjust="spacing" textLength="40" x="464.67" y="644.292">Failed</text></g><g id="WalletSecret"><rect fill="#F1F1F1" height="50" rx="12.5" ry="12.5" style="stroke:#181818;stroke-width:0.5;" width="106" x="197.67" y="706.2969"/><line style="stroke:#181818;stroke-width:0.5;" x1="197.67" x2="303.67" y1="732.5938" y2="732.5938"/><text fill="#000000" font-family="sans-serif" font-size="14" lengthAdjust="spacing" textLength="86" x="207.67" y="724.292">WalletSecret</text></g><ellipse cx="373.67" cy="827.2969" fill="none" rx="10" ry="10" style="stroke:#222222;stroke-width:1.0;"/><ellipse cx="374.17" cy="827.7969" fill="#222222" rx="6" ry="6" style="stroke:none;stroke-width:1.0;"/><path d="M321.67,44.2969 L563.67,44.2969 A12.5,12.5 0 0 1 576.17,56.7969 L576.17,70.5938 L309.17,70.5938 L309.17,56.7969 A12.5,12.5 0 0 1 321.67,44.2969 " fill="#F1F1F1" style="stroke:#F1F1F1;stroke-width:1.0;"/><rect fill="none" height="314.2969" rx="12.5" ry="12.5" style="stroke:#181818;stroke-width:0.5;" width="267" x="309.17" y="44.2969"/><line style="stroke:#181818;stroke-width:0.5;" x1="309.17" x2="576.17" y1="70.5938" y2="70.5938"/><text fill="#000000" font-family="sans-serif" font-size="14" lengthAdjust="spacing" textLength="58" x="413.67" y="62.292">Deleting</text><ellipse cx="351.17" cy="91.5938" fill="#222222" rx="10" ry="10" style="stroke:none;stroke-width:1.0;"/><g id="Deleting.Exists"><rect fill="#F1F1F1" height="50" rx="12.5" ry="12.5" style="stroke:#181818;stroke-width:0.5;" width="60" x="321.17" y="138.5938"/><line style="stroke:#181818;stroke-width:0.5;" x1="321.17" x2="381.17" y1="164.8906" y2="164.8906"/><text fill="#000000" font-family="sans-serif" font-size="14" lengthAdjust="spacing" textLength="40" x="331.17" y="156.5889">Exists</text></g><g id="Deleting.Gone"><rect fill="#F1F1F1" height="50" rx="12.5" ry="12.5" style="stroke:#181818;stroke-width:0.5;" width="58" x="322.17" y="241.5938"/><line style="stroke:#181818;stroke-width:0.5;" x1="322.17" x2="380.17" y1="267.8906" y2="267.8906"/><text fill="#000000" font-family="sans-serif" font-size="14" lengthAdjust="spacing" textLength="38" x="332.17" y="259.5889">Gone</text></g><ellipse cx="351.17" cy="338.5938" fill="none" rx="10" ry="10" style="stroke:#222222;stroke-width:1.0;"/><ellipse cx="351.67" cy="339.0938" fill="#222222" rx="6" ry="6" style="stroke:none;stroke-width:1.0;"/><!--link *start*Deleting to Exists--><g id="link_*start*Deleting_Exists"><path d="M351.17,101.7438 C351.17,109.7838 351.17,121.9238 351.17,133.2438 " fill="none" id="*start*Deleting-to-Exists" style="stroke:#181818;stroke-width:1.0;"/><polygon fill="#181818" points="351.17,138.3738,355.17,129.3738,351.17,133.3738,347.17,129.3738,351.17,138.3738" style="stroke:#181818;stroke-width:1.0;"/></g><!--link Exists to Exists--><g id="link_Exists_Exists"><path d="M381.64,155.7238 C391.42,155.8038 399.17,158.4238 399.17,163.5938 C399.17,167.7938 394.05,170.3138 386.89,171.1538 " fill="none" id="Exists-to-Exists" style="stroke:#181818;stroke-width:1.0;"/><polygon fill="#181818" points="381.64,171.4638,390.864,174.916,386.631,171.1634,390.3835,166.9304,381.64,171.4638" style="stroke:#181818;stroke-width:1.0;"/><text fill="#000000" font-family="sans-serif" font-size="13" lengthAdjust="spacing" textLength="156" x="405.17" y="160.6606">delete request accepted</text><text fill="#000000" font-family="sans-serif" font-size="13" lengthAdjust="spacing" textLength="124" x="421.17" y="175.7935">resource still visible</text></g><!--link Exists to Gone--><g id="link_Exists_Gone"><path d="M351.17,188.7838 C351.17,202.9238 351.17,220.8738 351.17,235.8738 " fill="none" id="Exists-to-Gone" style="stroke:#181818;stroke-width:1.0;"/><polygon fill="#181818" points="351.17,241.2538,355.17,232.2538,351.17,236.2538,347.17,232.2538,351.17,241.2538" style="stroke:#181818;stroke-width:1.0;"/><text fill="#000000" font-family="sans-serif" font-size="13" lengthAdjust="spacing" textLength="99" x="352.17" y="219.6606">get returns 404</text></g><!--link Gone to *end*Deleting--><g id="link_Gone_*end*Deleting"><path d="M351.17,291.6838 C351.17,302.1638 351.17,314.0938 351.17,323.1638 " fill="none" id="Gone-to-*end*Deleting" style="stroke:#181818;stroke-width:1.0;"/><polygon fill="#181818" points="351.17,328.4038,355.17,319.4038,351.17,323.4038,347.17,319.4038,351.17,328.4038" style="stroke:#181818;stroke-width:1.0;"/></g><!--link *start to LookupOrCreate--><g id="link_*start_LookupOrCreate"><path d="M263.67,211.4469 C263.67,244.5969 263.67,359.2969 263.67,413.9269 " fill="none" id="*start-to-LookupOrCreate" style="stroke:#181818;stroke-width:1.0;"/><polygon fill="#181818" points="263.67,419.0269,267.67,410.0269,263.67,414.0269,259.67,410.0269,263.67,419.0269" style="stroke:#181818;stroke-width:1.0;"/></g><!--link LookupOrCreate to Provisioning--><g id="link_LookupOrCreate_Provisioning"><path d="M197.08,450.9469 C133.19,457.9169 43.31,472.2969 21.67,499.2969 C6,518.8469 27.83,536.5469 53.65,549.3869 " fill="none" id="LookupOrCreate-to-Provisioning" style="stroke:#181818;stroke-width:1.0;"/><polygon fill="#181818" points="58.17,551.5669,51.822,544.0367,53.6725,549.3824,48.3268,551.2328,58.17,551.5669" style="stroke:#181818;stroke-width:1.0;"/><text fill="#000000" font-family="sans-serif" font-size="13" lengthAdjust="spacing" textLength="150" x="22.67" y="512.3638">lifecycle in retryable set</text></g><!--link Provisioning to LookupOrCreate--><g id="link_Provisioning_LookupOrCreate"><path d="M140.23,546.2269 C151.98,536.9269 165.49,526.1669 177.67,516.2969 C195.29,502.0369 214.78,485.9669 230.74,472.7269 " fill="none" id="Provisioning-to-LookupOrCreate" style="stroke:#181818;stroke-width:1.0;"/><polygon fill="#181818" points="234.72,469.4269,225.2336,472.0741,230.8649,472.6109,230.328,478.2422,234.72,469.4269" style="stroke:#181818;stroke-width:1.0;"/><text fill="#000000" font-family="sans-serif" font-size="13" lengthAdjust="spacing" textLength="53" x="197.67" y="512.3638">requeue</text></g><!--link LookupOrCreate to Active--><g id="link_LookupOrCreate_Active"><path d="M272.93,469.3969 C280.83,489.9769 292.21,519.6269 300.6,541.4569 " fill="none" id="LookupOrCreate-to-Active" style="stroke:#181818;stroke-width:1.0;"/><polygon fill="#181818" points="302.44,546.2669,302.9627,536.4319,300.6547,541.5965,295.4901,539.2884,302.44,546.2669" style="stroke:#181818;stroke-width:1.0;"/><text fill="#000000" font-family="sans-serif" font-size="13" lengthAdjust="spacing" textLength="131" x="291.67" y="512.3638">lifecycle in active set</text></g><!--link LookupOrCreate to Failed--><g id="link_LookupOrCreate_Failed"><path d="M330.31,452.5069 C364.51,459.4069 404.56,472.8969 431.67,499.2969 C465.21,531.9569 477.56,587.0369 482.08,620.8769 " fill="none" id="LookupOrCreate-to-Failed" style="stroke:#181818;stroke-width:1.0;"/><polygon fill="#181818" points="482.74,626.1169,485.5761,616.6852,482.111,621.1566,477.6396,617.6915,482.74,626.1169" style="stroke:#181818;stroke-width:1.0;"/><text fill="#000000" font-family="sans-serif" font-size="13" lengthAdjust="spacing" textLength="127" x="446.67" y="512.3638">lifecycle in failed set</text></g><!--link Active to WalletSecret--><g id="link_Active_WalletSecret"><path d="M281.14,593.4069 C270.82,602.2669 260.47,613.5069 254.67,626.2969 C244.04,649.7569 244.01,679.3469 246.07,700.9569 " fill="none" id="Active-to-WalletSecret" style="stroke:#181818;stroke-width:1.0;"/><polygon fill="#181818" points="246.6,705.9969,249.6289,696.6253,246.0729,701.0247,241.6735,697.4687,246.6,705.9969" style="stroke:#181818;stroke-width:1.0;"/><text fill="#000000" font-family="sans-serif" font-size="13" lengthAdjust="spacing" textLength="91" x="255.67" y="655.8638">wallet enabled</text></g><!--link Active to *end--><g id="link_Active_*end"><path d="M333.8,596.4469 C340.66,605.2469 347.5,615.6469 351.67,626.2969 C364.97,660.2369 371.21,771.7969 373.06,811.8369 " fill="none" id="Active-to-*end" style="stroke:#181818;stroke-width:1.0;"/><polygon fill="#181818" points="373.3,817.2069,376.8836,808.0331,373.071,812.2121,368.892,808.3995,373.3,817.2069" style="stroke:#181818;stroke-width:1.0;"/><text fill="#000000" font-family="sans-serif" font-size="13" lengthAdjust="spacing" textLength="56" x="371.67" y="735.8638">no wallet</text></g><!--link WalletSecret to *end--><g id="link_WalletSecret_*end"><path d="M282.35,756.5069 C308.33,776.3669 343.69,803.3869 361.84,817.2569 " fill="none" id="WalletSecret-to-*end" style="stroke:#181818;stroke-width:1.0;"/><polygon fill="#181818" points="366.07,820.4869,361.339,811.8487,362.0942,817.4549,356.4879,818.2101,366.07,820.4869" style="stroke:#181818;stroke-width:1.0;"/></g><!--link Failed to *end--><g id="link_Failed_*end"><path d="M476.87,676.6169 C469.23,698.4969 456.33,730.9869 439.67,756.2969 C423.86,780.3169 399.46,803.6969 385.18,816.4269 " fill="none" id="Failed-to-*end" style="stroke:#181818;stroke-width:1.0;"/><polygon fill="#181818" points="381.09,820.0269,390.4917,817.0929,384.8467,816.7273,385.2124,811.0823,381.09,820.0269" style="stroke:#181818;stroke-width:1.0;"/></g><!--SRC=[TP2zJaCn38NtF8Ldf4eCdJeWLIsm887KeGCmfBbk5P76nNOA5UBTSUwFr5jWivrpuiz7eoQ4UL7AjASYiFJgDrvGO45PcL92xaeVrBddgrUOJ6xWWUYj71vvmUWLtRXj5KzCnoYHSimxc46AMmodOCjY1aRbazzO8wX_cUT1un4lRRwR_kEvyp5XS-dPTjFgSIEatrUObV6zO47Nxw-QjRS8T8N1e4tnqRQ0kU8tvy8QpGmozH8tClO2rqCEhHEjYvTeoWhrvG26Y6y_ewZOe2lEPhQcgGxiU4KjcO07nUObCmeL3fQInfIWtckWur_kATTZTyPbR8MpmFHwQfhsOM3xTZy0]--></g></svg>