<?xml version="1.0" encoding="UTF-8" standalone="no"?><svg xmlns="http://www.w3.org/2000/svg" xmlns:xlink="http://www.w3.org/1999/xlink" contentStyleType="text/css" height="1566px" preserveAspectRatio="none" style="width:1940px;height:1566px;background:#FFFFFF;" version="1.1" viewBox="0 0 1940 1566" width="1940px" zoomAndPan="magnify"><defs/><g><text fill="#000000" font-family="sans-serif" font-size="14" font-weight="bold" lengthAdjust="spacing" textLength="304" x="816.875" y="32.9951">Postgres DB System Reconcile Activity</text><ellipse cx="761.375" cy="57.2969" fill="#0F766E" rx="10" ry="10" style="stroke:#222222;stroke-width:1.0;"/><rect fill="none" height="254.2031" style="stroke:#000000;stroke-width:1.5;" width="686" x="438.875" y="77.2969"/><path d="M571.875,77.2969 L571.875,86.5938 L561.875,96.5938 L438.875,96.5938 " fill="none" style="stroke:#000000;stroke-width:1.5;"/><text fill="#000000" font-family="sans-serif" font-size="14" lengthAdjust="spacing" textLength="123" x="441.875" y="91.292">Observe and Bind</text><rect fill="#F8FAFC" height="33.9688" rx="12.5" ry="12.5" style="stroke:#475569;stroke-width:0.5;" width="304" x="609.375" y="113.5938"/><text fill="#0F172A" font-family="sans-serif" font-size="12" lengthAdjust="spacing" textLength="284" x="619.375" y="134.7324">Read CR spec, status OCID, and delete intent</text><polygon fill="#E2E8F0" points="661.375,167.5625,861.375,167.5625,873.375,179.5625,861.375,191.5625,661.375,191.5625,649.375,179.5625,661.375,167.5625" style="stroke:#475569;stroke-width:0.5;"/><text fill="#0F172A" font-family="sans-serif" font-size="11" lengthAdjust="spacing" textLength="200" x="661.375" y="183.3706">"Tracked or explicit OCID present?"</text><text fill="#000000" font-family="sans-serif" font-size="11" lengthAdjust="spacing" textLength="20" x="629.375" y="176.9683">yes</text><text fill="#000000" font-family="sans-serif" font-size="11" lengthAdjust="spacing" textLength="14" x="873.375" y="176.9683">no</text><rect fill="#F8FAFC" height="33.9688" rx="12.5" ry="12.5" style="stroke:#475569;stroke-width:0.5;" width="272" x="458.875" y="201.5625"/><text fill="#0F172A" font-family="sans-serif" font-size="12" lengthAdjust="spacing" textLength="252" x="468.875" y="222.7012">Get the OCI resource by known identifier</text><rect fill="#F8FAFC" height="33.9688" rx="12.5" ry="12.5" style="stroke:#475569;stroke-width:0.5;" width="328" x="763.875" y="201.5625"/><text fill="#0F172A" font-family="sans-serif" font-size="12" lengthAdjust="spacing" textLength="308" x="773.875" y="222.7012">Resolve an existing OCI resource by display name</text><rect fill="#F8FAFC" height="33.9688" rx="12.5" ry="12.5" style="stroke:#475569;stroke-width:0.5;" width="354" x="750.875" y="255.5313"/><text fill="#0F172A" font-family="sans-serif" font-size="12" lengthAdjust="spacing" textLength="334" x="760.875" y="276.6699">Persist the resolved or created OCID back into status</text><polygon fill="#E2E8F0" points="761.375,295.5,773.375,307.5,761.375,319.5,749.375,307.5,761.375,295.5" style="stroke:#475569;stroke-width:0.5;"/><path d="M1522.75,758.6367 L1522.75,1192.3555 L1928.75,1192.3555 L1928.75,768.6367 L1918.75,758.6367 L1522.75,758.6367 " fill="#FEFFDD" style="stroke:#181818;stroke-width:0.5;"/><path d="M1918.75,758.6367 L1918.75,768.6367 L1928.75,768.6367 L1918.75,758.6367 " fill="#FEFFDD" style="stroke:#181818;stroke-width:0.5;"/><text fill="#000000" font-family="sans-serif" font-size="13" lengthAdjust="spacing" textLength="69" x="1528.75" y="775.7036">Archetype:</text><text fill="#000000" font-family="sans-serif" font-size="13" lengthAdjust="spacing" textLength="183" x="1528.75" y="790.8364">- resolved-drift-delete-secret</text><text fill="#000000" font-family="sans-serif" font-size="13" lengthAdjust="spacing" textLength="134" x="1528.75" y="805.9692">Retryable OCI states:</text><text fill="#000000" font-family="sans-serif" font-size="13" lengthAdjust="spacing" textLength="73" x="1528.75" y="821.1021">- CREATING</text><text fill="#000000" font-family="sans-serif" font-size="13" lengthAdjust="spacing" textLength="76" x="1528.75" y="836.2349">- UPDATING</text><text fill="#000000" font-family="sans-serif" font-size="13" lengthAdjust="spacing" textLength="113" x="1528.75" y="851.3677">Active OCI states:</text><text fill="#000000" font-family="sans-serif" font-size="13" lengthAdjust="spacing" textLength="54" x="1528.75" y="866.5005">- ACTIVE</text><text fill="#000000" font-family="sans-serif" font-size="13" lengthAdjust="spacing" textLength="111" x="1528.75" y="881.6333">Failed OCI states:</text><text fill="#000000" font-family="sans-serif" font-size="13" lengthAdjust="spacing" textLength="53" x="1528.75" y="896.7661">- FAILED</text><text fill="#000000" font-family="sans-serif" font-size="13" lengthAdjust="spacing" textLength="67" x="1528.75" y="911.8989">- DELETED</text><text fill="#000000" font-family="sans-serif" font-size="13" lengthAdjust="spacing" textLength="102" x="1528.75" y="927.0317">Update surface:</text><text fill="#000000" font-family="sans-serif" font-size="13" lengthAdjust="spacing" textLength="92" x="1528.75" y="942.1646">- displayName</text><text fill="#000000" font-family="sans-serif" font-size="13" lengthAdjust="spacing" textLength="79" x="1528.75" y="957.2974">- description</text><text fill="#000000" font-family="sans-serif" font-size="13" lengthAdjust="spacing" textLength="96" x="1528.75" y="972.4302">- freeform tags</text><text fill="#000000" font-family="sans-serif" font-size="13" lengthAdjust="spacing" textLength="88" x="1528.75" y="987.563">- defined tags</text><text fill="#000000" font-family="sans-serif" font-size="13" lengthAdjust="spacing" textLength="139" x="1528.75" y="1002.6958">Reject before mutate:</text><text fill="#000000" font-family="sans-serif" font-size="13" lengthAdjust="spacing" textLength="102" x="1528.75" y="1017.8286">- dbVersion drift</text><text fill="#000000" font-family="sans-serif" font-size="13" lengthAdjust="spacing" textLength="77" x="1528.75" y="1032.9614">- shape drift</text><text fill="#000000" font-family="sans-serif" font-size="13" lengthAdjust="spacing" textLength="93" x="1528.75" y="1048.0942">- subnetId drift</text><text fill="#000000" font-family="sans-serif" font-size="13" lengthAdjust="spacing" textLength="117" x="1528.75" y="1063.2271">- storageType drift</text><text fill="#000000" font-family="sans-serif" font-size="13" lengthAdjust="spacing" textLength="130" x="1528.75" y="1078.3599">- instanceCount drift</text><text fill="#000000" font-family="sans-serif" font-size="13" lengthAdjust="spacing" textLength="163" x="1528.75" y="1093.4927">- instanceOcpuCount drift</text><text fill="#000000" font-family="sans-serif" font-size="13" lengthAdjust="spacing" textLength="181" x="1528.75" y="1108.6255">- instanceMemoryInGBs drift</text><text fill="#000000" font-family="sans-serif" font-size="13" lengthAdjust="spacing" textLength="145" x="1528.75" y="1123.7583">- admin credential drift</text><text fill="#000000" font-family="sans-serif" font-size="13" lengthAdjust="spacing" textLength="105" x="1528.75" y="1138.8911">Boundary notes:</text><text fill="#000000" font-family="sans-serif" font-size="13" lengthAdjust="spacing" textLength="369" x="1528.75" y="1154.0239">- Managed and name-resolved reconciles currently do not</text><text fill="#000000" font-family="sans-serif" font-size="13" lengthAdjust="spacing" textLength="369" x="1544.75" y="1169.1567">enter UpdatePostgresDbSystem, so mutable updates are</text><text fill="#000000" font-family="sans-serif" font-size="13" lengthAdjust="spacing" textLength="160" x="1544.75" y="1184.2896">effectively bound-ID only.</text><polygon fill="#E2E8F0" points="704.375,351.5,818.375,351.5,830.375,363.5,818.375,375.5,704.375,375.5,692.375,363.5,704.375,351.5" style="stroke:#475569;stroke-width:0.5;"/><text fill="#0F172A" font-family="sans-serif" font-size="11" lengthAdjust="spacing" textLength="114" x="704.375" y="367.3081">"Delete requested?"</text><text fill="#000000" font-family="sans-serif" font-size="11" lengthAdjust="spacing" textLength="20" x="672.375" y="360.9058">yes</text><text fill="#000000" font-family="sans-serif" font-size="11" lengthAdjust="spacing" textLength="14" x="830.375" y="360.9058">no</text><rect fill="none" height="348.3047" style="stroke:#000000;stroke-width:1.5;" width="763" x="11" y="385.5"/><path d="M67,385.5 L67,394.7969 L57,404.7969 L11,404.7969 " fill="none" style="stroke:#000000;stroke-width:1.5;"/><text fill="#000000" font-family="sans-serif" font-size="14" lengthAdjust="spacing" textLength="46" x="14" y="399.4951">Delete</text><rect fill="#F8FAFC" height="33.9688" rx="12.5" ry="12.5" style="stroke:#475569;stroke-width:0.5;" width="282" x="238.75" y="421.7969"/><text fill="#0F172A" font-family="sans-serif" font-size="12" lengthAdjust="spacing" textLength="262" x="248.75" y="442.9355">Submit OCI delete for Postgres DB System</text><rect fill="#F8FAFC" height="33.9688" rx="12.5" ry="12.5" style="stroke:#475569;stroke-width:0.5;" width="438" x="160.75" y="490.7656"/><text fill="#0F172A" font-family="sans-serif" font-size="12" lengthAdjust="spacing" textLength="418" x="170.75" y="511.9043">Confirm deletion with GetDbSystem until the resource is not found.</text><rect fill="#F8FAFC" height="33.9688" rx="12.5" ry="12.5" style="stroke:#475569;stroke-width:0.5;" width="364" x="197.75" y="559.7344"/><text fill="#0F172A" font-family="sans-serif" font-size="12" lengthAdjust="spacing" textLength="344" x="207.75" y="580.873">Delete the owned Secret after OCI delete confirmation.</text><polygon fill="#E2E8F0" points="278.75,615.8359,480.75,615.8359,492.75,627.8359,480.75,639.8359,278.75,639.8359,266.75,627.8359,278.75,615.8359" style="stroke:#475569;stroke-width:0.5;"/><text fill="#0F172A" font-family="sans-serif" font-size="11" lengthAdjust="spacing" textLength="202" x="278.75" y="631.644">"Owned Secret cleanup succeeds?"</text><text fill="#000000" font-family="sans-serif" font-size="11" lengthAdjust="spacing" textLength="20" x="246.75" y="625.2417">yes</text><text fill="#000000" font-family="sans-serif" font-size="11" lengthAdjust="spacing" textLength="14" x="492.75" y="625.2417">no</text><rect fill="#F8FAFC" height="33.9688" rx="12.5" ry="12.5" style="stroke:#475569;stroke-width:0.5;" width="338" x="23" y="649.8359"/><text fill="#0F172A" font-family="sans-serif" font-size="12" lengthAdjust="spacing" textLength="318" x="33" y="670.9746">Remove the finalizer after OCI deletion is confirmed</text><rect fill="#F8FAFC" height="33.9688" rx="12.5" ry="12.5" style="stroke:#475569;stroke-width:0.5;" width="373" x="381" y="649.8359"/><text fill="#0F172A" font-family="sans-serif" font-size="12" lengthAdjust="spacing" textLength="353" x="391" y="670.9746">Stay blocked until Secret cleanup succeeds or is absent</text><polygon fill="#E2E8F0" points="379.75,689.8047,391.75,701.8047,379.75,713.8047,367.75,701.8047,379.75,689.8047" style="stroke:#475569;stroke-width:0.5;"/><ellipse cx="379.75" cy="779.8047" fill="none" rx="11" ry="11" style="stroke:#222222;stroke-width:1.0;"/><ellipse cx="379.75" cy="779.8047" fill="#222222" rx="6" ry="6" style="stroke:#111111;stroke-width:1.0;"/><rect fill="none" height="417.9766" style="stroke:#000000;stroke-width:1.5;" width="376" x="961" y="385.5"/><path d="M1122,385.5 L1122,394.7969 L1112,404.7969 L961,404.7969 " fill="none" style="stroke:#000000;stroke-width:1.5;"/><text fill="#000000" font-family="sans-serif" font-size="14" lengthAdjust="spacing" textLength="151" x="964" y="399.4951">Lifecycle Classification</text><rect fill="#F8FAFC" height="33.9688" rx="12.5" ry="12.5" style="stroke:#475569;stroke-width:0.5;" width="268" x="1009" y="470.1992"/><text fill="#0F172A" font-family="sans-serif" font-size="12" lengthAdjust="spacing" textLength="248" x="1019" y="491.3379">Request requeue and keep the finalizer</text><ellipse cx="1143" cy="550.168" fill="none" rx="11" ry="11" style="stroke:#222222;stroke-width:1.0;"/><ellipse cx="1143" cy="550.168" fill="#222222" rx="6" ry="6" style="stroke:#111111;stroke-width:1.0;"/><polygon fill="#E2E8F0" points="1063,421.7969,1223,421.7969,1235,433.7969,1223,445.7969,1063,445.7969,1051,433.7969,1063,421.7969" style="stroke:#475569;stroke-width:0.5;"/><text fill="#000000" font-family="sans-serif" font-size="11" lengthAdjust="spacing" textLength="20" x="1147" y="456.0073">yes</text><text fill="#0F172A" font-family="sans-serif" font-size="11" lengthAdjust="spacing" textLength="160" x="1063" y="437.605">"OCI state in retryable set?"</text><rect fill="#F8FAFC" height="33.9688" rx="12.5" ry="12.5" style="stroke:#475569;stroke-width:0.5;" width="324" x="981" y="662.1055"/><text fill="#0F172A" font-family="sans-serif" font-size="12" lengthAdjust="spacing" textLength="304" x="991" y="683.2441">Return an unsuccessful terminal reconcile result</text><ellipse cx="1143" cy="742.0742" fill="none" rx="11" ry="11" style="stroke:#222222;stroke-width:1.0;"/><ellipse cx="1143" cy="742.0742" fill="#222222" rx="6" ry="6" style="stroke:#111111;stroke-width:1.0;"/><polygon fill="#E2E8F0" points="1073,613.7031,1213,613.7031,1225,625.7031,1213,637.7031,1073,637.7031,1061,625.7031,1073,613.7031" style="stroke:#475569;stroke-width:0.5;"/><text fill="#000000" font-family="sans-serif" font-size="11" lengthAdjust="spacing" textLength="20" x="1147" y="647.9136">yes</text><text fill="#0F172A" font-family="sans-serif" font-size="11" lengthAdjust="spacing" textLength="140" x="1073" y="629.5112">"OCI state in failed set?"</text><rect fill="none" height="709.7539" style="stroke:#000000;stroke-width:1.5;" width="718.75" x="794" y="838.4766"/><path d="M973,838.4766 L973,847.7734 L963,857.7734 L794,857.7734 " fill="none" style="stroke:#000000;stroke-width:1.5;"/><text fill="#000000" font-family="sans-serif" font-size="14" lengthAdjust="spacing" textLength="169" x="797" y="852.4717">Ready and Drift Handling</text><rect fill="#F8FAFC" height="33.9688" rx="12.5" ry="12.5" style="stroke:#475569;stroke-width:0.5;" width="364" x="961" y="874.7734"/><text fill="#0F172A" font-family="sans-serif" font-size="12" lengthAdjust="spacing" textLength="344" x="971" y="895.9121">Compare live OCI state with the supported drift surface</text><rect fill="#F8FAFC" height="33.9688" rx="12.5" ry="12.5" style="stroke:#475569;stroke-width:0.5;" width="290" x="998" y="992.1445"/><text fill="#0F172A" font-family="sans-serif" font-size="12" lengthAdjust="spacing" textLength="270" x="1008" y="1013.2832">Reject the change before any OCI mutation</text><ellipse cx="1143" cy="1072.1133" fill="none" rx="11" ry="11" style="stroke:#222222;stroke-width:1.0;"/><ellipse cx="1143" cy="1072.1133" fill="#222222" rx="6" ry="6" style="stroke:#111111;stroke-width:1.0;"/><polygon fill="#E2E8F0" points="1018.5,943.7422,1267.5,943.7422,1279.5,955.7422,1267.5,967.7422,1018.5,967.7422,1006.5,955.7422,1018.5,943.7422" style="stroke:#475569;stroke-width:0.5;"/><text fill="#000000" font-family="sans-serif" font-size="11" lengthAdjust="spacing" textLength="20" x="1147" y="977.9526">yes</text><text fill="#0F172A" font-family="sans-serif" font-size="11" lengthAdjust="spacing" textLength="249" x="1018.5" y="959.5503">"Unsupported or immutable drift detected?"</text><rect fill="#F8FAFC" height="33.9688" rx="12.5" ry="12.5" style="stroke:#475569;stroke-width:0.5;" width="356" x="965" y="1148.5156"/><text fill="#0F172A" font-family="sans-serif" font-size="12" lengthAdjust="spacing" textLength="336" x="975" y="1169.6543">Validate immutable fields before any mutable update.</text><rect fill="#F8FAFC" height="33.9688" rx="12.5" ry="12.5" style="stroke:#475569;stroke-width:0.5;" width="678" x="804" y="1212.3555"/><text fill="#0F172A" font-family="sans-serif" font-size="12" lengthAdjust="spacing" textLength="658" x="814" y="1233.4941">Move the PostgreSQL DB system compartment before supported updates when compartment drift exists.</text><rect fill="#F8FAFC" height="33.9688" rx="12.5" ry="12.5" style="stroke:#475569;stroke-width:0.5;" width="654" x="816" y="1266.3242"/><text fill="#0F172A" font-family="sans-serif" font-size="12" lengthAdjust="spacing" textLength="634" x="826" y="1287.4629">Publish the primary endpoint and port through the connection Secret after a usable active reconcile.</text><polygon fill="#E2E8F0" points="1065.5,1320.293,1220.5,1320.293,1232.5,1332.293,1220.5,1344.293,1065.5,1344.293,1053.5,1332.293,1065.5,1320.293" style="stroke:#475569;stroke-width:0.5;"/><text fill="#0F172A" font-family="sans-serif" font-size="11" lengthAdjust="spacing" textLength="155" x="1065.5" y="1336.1011">"Supported drift detected?"</text><text fill="#000000" font-family="sans-serif" font-size="11" lengthAdjust="spacing" textLength="20" x="1033.5" y="1329.6987">yes</text><text fill="#000000" font-family="sans-serif" font-size="11" lengthAdjust="spacing" textLength="14" x="1232.5" y="1329.6987">no</text><rect fill="#F8FAFC" height="33.9688" rx="12.5" ry="12.5" style="stroke:#475569;stroke-width:0.5;" width="329" x="835.25" y="1354.293"/><text fill="#0F172A" font-family="sans-serif" font-size="12" lengthAdjust="spacing" textLength="309" x="845.25" y="1375.4316">Apply only the supported in-place update surface</text><rect fill="#F8FAFC" height="33.9688" rx="12.5" ry="12.5" style="stroke:#475569;stroke-width:0.5;" width="204" x="1184.25" y="1354.293"/><text fill="#0F172A" font-family="sans-serif" font-size="12" lengthAdjust="spacing" textLength="184" x="1194.25" y="1375.4316">Skip the no-op mutation path</text><polygon fill="#E2E8F0" points="1143,1394.2617,1155,1406.2617,1143,1418.2617,1131,1406.2617,1143,1394.2617" style="stroke:#475569;stroke-width:0.5;"/><polygon fill="#E2E8F0" points="1072.5,1438.2617,1213.5,1438.2617,1225.5,1450.2617,1213.5,1462.2617,1072.5,1462.2617,1060.5,1450.2617,1072.5,1438.2617" style="stroke:#475569;stroke-width:0.5;"/><text fill="#0F172A" font-family="sans-serif" font-size="11" lengthAdjust="spacing" textLength="141" x="1072.5" y="1454.0698">"Secret sync succeeds?"</text><text fill="#000000" font-family="sans-serif" font-size="11" lengthAdjust="spacing" textLength="20" x="1040.5" y="1447.6675">yes</text><text fill="#000000" font-family="sans-serif" font-size="11" lengthAdjust="spacing" textLength="14" x="1225.5" y="1447.6675">no</text><rect fill="#F8FAFC" height="33.9688" rx="12.5" ry="12.5" style="stroke:#475569;stroke-width:0.5;" width="287" x="825.75" y="1472.2617"/><text fill="#0F172A" font-family="sans-serif" font-size="12" lengthAdjust="spacing" textLength="267" x="835.75" y="1493.4004">Return success for the usable active state</text><rect fill="#F8FAFC" height="33.9688" rx="12.5" ry="12.5" style="stroke:#475569;stroke-width:0.5;" width="368" x="1132.75" y="1472.2617"/><text fill="#0F172A" font-family="sans-serif" font-size="12" lengthAdjust="spacing" textLength="348" x="1142.75" y="1493.4004">Block successful completion until Secret sync succeeds</text><polygon fill="#E2E8F0" points="1143,1512.2305,1155,1524.2305,1143,1536.2305,1131,1524.2305,1143,1512.2305" style="stroke:#475569;stroke-width:0.5;"/><line style="stroke:#334155;stroke-width:1.0;" x1="927.875" x2="927.875" y1="235.5313" y2="255.5313"/><polygon fill="#334155" points="923.875,245.5313,927.875,255.5313,931.875,245.5313,927.875,249.5313" style="stroke:#334155;stroke-width:1.0;"/><line style="stroke:#334155;stroke-width:1.0;" x1="649.375" x2="594.875" y1="179.5625" y2="179.5625"/><line style="stroke:#334155;stroke-width:1.0;" x1="594.875" x2="594.875" y1="179.5625" y2="201.5625"/><polygon fill="#334155" points="590.875,191.5625,594.875,201.5625,598.875,191.5625,594.875,195.5625" style="stroke:#334155;stroke-width:1.0;"/><line style="stroke:#334155;stroke-width:1.0;" x1="873.375" x2="927.875" y1="179.5625" y2="179.5625"/><line style="stroke:#334155;stroke-width:1.0;" x1="927.875" x2="927.875" y1="179.5625" y2="201.5625"/><polygon fill="#334155" points="923.875,191.5625,927.875,201.5625,931.875,191.5625,927.875,195.5625" style="stroke:#334155;stroke-width:1.0;"/><line style="stroke:#334155;stroke-width:1.0;" x1="594.875" x2="594.875" y1="235.5313" y2="307.5"/><line style="stroke:#334155;stroke-width:1.0;" x1="594.875" x2="749.375" y1="307.5" y2="307.5"/><polygon fill="#334155" points="739.375,303.5,749.375,307.5,739.375,311.5,743.375,307.5" style="stroke:#334155;stroke-width:1.0;"/><line style="stroke:#334155;stroke-width:1.0;" x1="927.875" x2="927.875" y1="289.5" y2="307.5"/><line style="stroke:#334155;stroke-width:1.0;" x1="927.875" x2="773.375" y1="307.5" y2="307.5"/><polygon fill="#334155" points="783.375,303.5,773.375,307.5,783.375,311.5,779.375,307.5" style="stroke:#334155;stroke-width:1.0;"/><line style="stroke:#334155;stroke-width:1.0;" x1="761.375" x2="761.375" y1="147.5625" y2="167.5625"/><polygon fill="#334155" points="757.375,157.5625,761.375,167.5625,765.375,157.5625,761.375,161.5625" style="stroke:#334155;stroke-width:1.0;"/><line style="stroke:#334155;stroke-width:1.0;" x1="761.375" x2="761.375" y1="67.2969" y2="113.5938"/><polygon fill="#334155" points="757.375,103.5938,761.375,113.5938,765.375,103.5938,761.375,107.5938" style="stroke:#334155;stroke-width:1.0;"/><line style="stroke:#334155;stroke-width:1.0;" x1="379.75" x2="379.75" y1="455.7656" y2="490.7656"/><polygon fill="#334155" points="375.75,480.7656,379.75,490.7656,383.75,480.7656,379.75,484.7656" style="stroke:#334155;stroke-width:1.0;"/><line style="stroke:#334155;stroke-width:1.0;" x1="379.75" x2="379.75" y1="524.7344" y2="559.7344"/><polygon fill="#334155" points="375.75,549.7344,379.75,559.7344,383.75,549.7344,379.75,553.7344" style="stroke:#334155;stroke-width:1.0;"/><line style="stroke:#334155;stroke-width:1.0;" x1="266.75" x2="192" y1="627.8359" y2="627.8359"/><line style="stroke:#334155;stroke-width:1.0;" x1="192" x2="192" y1="627.8359" y2="649.8359"/><polygon fill="#334155" points="188,639.8359,192,649.8359,196,639.8359,192,643.8359" style="stroke:#334155;stroke-width:1.0;"/><line style="stroke:#334155;stroke-width:1.0;" x1="492.75" x2="567.5" y1="627.8359" y2="627.8359"/><line style="stroke:#334155;stroke-width:1.0;" x1="567.5" x2="567.5" y1="627.8359" y2="649.8359"/><polygon fill="#334155" points="563.5,639.8359,567.5,649.8359,571.5,639.8359,567.5,643.8359" style="stroke:#334155;stroke-width:1.0;"/><line style="stroke:#334155;stroke-width:1.0;" x1="192" x2="192" y1="683.8047" y2="701.8047"/><line style="stroke:#334155;stroke-width:1.0;" x1="192" x2="367.75" y1="701.8047" y2="701.8047"/><polygon fill="#334155" points="357.75,697.8047,367.75,701.8047,357.75,705.8047,361.75,701.8047" style="stroke:#334155;stroke-width:1.0;"/><line style="stroke:#334155;stroke-width:1.0;" x1="567.5" x2="567.5" y1="683.8047" y2="701.8047"/><line style="stroke:#334155;stroke-width:1.0;" x1="567.5" x2="391.75" y1="701.8047" y2="701.8047"/><polygon fill="#334155" points="401.75,697.8047,391.75,701.8047,401.75,705.8047,397.75,701.8047" style="stroke:#334155;stroke-width:1.0;"/><line style="stroke:#334155;stroke-width:1.0;" x1="379.75" x2="379.75" y1="593.7031" y2="615.8359"/><polygon fill="#334155" points="375.75,605.8359,379.75,615.8359,383.75,605.8359,379.75,609.8359" style="stroke:#334155;stroke-width:1.0;"/><line style="stroke:#334155;stroke-width:1.0;" x1="379.75" x2="379.75" y1="713.8047" y2="768.8047"/><polygon fill="#334155" points="375.75,758.8047,379.75,768.8047,383.75,758.8047,379.75,762.8047" style="stroke:#334155;stroke-width:1.0;"/><line style="stroke:#334155;stroke-width:1.0;" x1="1143" x2="1143" y1="504.168" y2="539.168"/><polygon fill="#334155" points="1139,529.168,1143,539.168,1147,529.168,1143,533.168" style="stroke:#334155;stroke-width:1.0;"/><line style="stroke:#334155;stroke-width:1.0;" x1="1143" x2="1143" y1="445.7969" y2="470.1992"/><polygon fill="#334155" points="1139,460.1992,1143,470.1992,1147,460.1992,1143,464.1992" style="stroke:#334155;stroke-width:1.0;"/><line style="stroke:#334155;stroke-width:1.0;" x1="1235" x2="1287" y1="433.7969" y2="433.7969"/><polygon fill="#334155" points="1283,502.6836,1287,512.6836,1291,502.6836,1287,506.6836" style="stroke:#334155;stroke-width:1.0;"/><line style="stroke:#334155;stroke-width:1.0;" x1="1287" x2="1287" y1="433.7969" y2="591.5703"/><line style="stroke:#334155;stroke-width:1.0;" x1="1287" x2="1143" y1="591.5703" y2="591.5703"/><line style="stroke:#334155;stroke-width:1.0;" x1="1143" x2="1143" y1="591.5703" y2="613.7031"/><polygon fill="#334155" points="1139,603.7031,1143,613.7031,1147,603.7031,1143,607.7031" style="stroke:#334155;stroke-width:1.0;"/><line style="stroke:#334155;stroke-width:1.0;" x1="1143" x2="1143" y1="696.0742" y2="731.0742"/><polygon fill="#334155" points="1139,721.0742,1143,731.0742,1147,721.0742,1143,725.0742" style="stroke:#334155;stroke-width:1.0;"/><line style="stroke:#334155;stroke-width:1.0;" x1="1143" x2="1143" y1="637.7031" y2="662.1055"/><polygon fill="#334155" points="1139,652.1055,1143,662.1055,1147,652.1055,1143,656.1055" style="stroke:#334155;stroke-width:1.0;"/><line style="stroke:#334155;stroke-width:1.0;" x1="1225" x2="1315" y1="625.7031" y2="625.7031"/><polygon fill="#334155" points="1311,694.5898,1315,704.5898,1319,694.5898,1315,698.5898" style="stroke:#334155;stroke-width:1.0;"/><line style="stroke:#334155;stroke-width:1.0;" x1="1315" x2="1315" y1="625.7031" y2="783.4766"/><line style="stroke:#334155;stroke-width:1.0;" x1="1315" x2="1143" y1="783.4766" y2="783.4766"/><line style="stroke:#334155;stroke-width:1.0;" x1="1143" x2="1143" y1="783.4766" y2="874.7734"/><polygon fill="#334155" points="1139,864.7734,1143,874.7734,1147,864.7734,1143,868.7734" style="stroke:#334155;stroke-width:1.0;"/><line style="stroke:#334155;stroke-width:1.0;" x1="1143" x2="1143" y1="1026.1133" y2="1061.1133"/><polygon fill="#334155" points="1139,1051.1133,1143,1061.1133,1147,1051.1133,1143,1055.1133" style="stroke:#334155;stroke-width:1.0;"/><line style="stroke:#334155;stroke-width:1.0;" x1="1143" x2="1143" y1="967.7422" y2="992.1445"/><polygon fill="#334155" points="1139,982.1445,1143,992.1445,1147,982.1445,1143,986.1445" style="stroke:#334155;stroke-width:1.0;"/><line style="stroke:#334155;stroke-width:1.0;" x1="1279.5" x2="1298" y1="955.7422" y2="955.7422"/><polygon fill="#334155" points="1294,1024.6289,1298,1034.6289,1302,1024.6289,1298,1028.6289" style="stroke:#334155;stroke-width:1.0;"/><line style="stroke:#334155;stroke-width:1.0;" x1="1298" x2="1298" y1="955.7422" y2="1113.5156"/><line style="stroke:#334155;stroke-width:1.0;" x1="1298" x2="1143" y1="1113.5156" y2="1113.5156"/><line style="stroke:#334155;stroke-width:1.0;" x1="1143" x2="1143" y1="1113.5156" y2="1148.5156"/><polygon fill="#334155" points="1139,1138.5156,1143,1148.5156,1147,1138.5156,1143,1142.5156" style="stroke:#334155;stroke-width:1.0;"/><line style="stroke:#334155;stroke-width:1.0;" x1="1143" x2="1143" y1="908.7422" y2="943.7422"/><polygon fill="#334155" points="1139,933.7422,1143,943.7422,1147,933.7422,1143,937.7422" style="stroke:#334155;stroke-width:1.0;"/><line style="stroke:#334155;stroke-width:1.0;" x1="1143" x2="1143" y1="1182.4844" y2="1212.3555"/><polygon fill="#334155" points="1139,1202.3555,1143,1212.3555,1147,1202.3555,1143,1206.3555" style="stroke:#334155;stroke-width:1.0;"/><line style="stroke:#334155;stroke-width:1.0;" x1="1143" x2="1143" y1="1246.3242" y2="1266.3242"/><polygon fill="#334155" points="1139,1256.3242,1143,1266.3242,1147,1256.3242,1143,1260.3242" style="stroke:#334155;stroke-width:1.0;"/><line style="stroke:#334155;stroke-width:1.0;" x1="1053.5" x2="999.75" y1="1332.293" y2="1332.293"/><line style="stroke:#334155;stroke-width:1.0;" x1="999.75" x2="999.75" y1="1332.293" y2="1354.293"/><polygon fill="#334155" points="995.75,1344.293,999.75,1354.293,1003.75,1344.293,999.75,1348.293" style="stroke:#334155;stroke-width:1.0;"/><line style="stroke:#334155;stroke-width:1.0;" x1="1232.5" x2="1286.25" y1="1332.293" y2="1332.293"/><line style="stroke:#334155;stroke-width:1.0;" x1="1286.25" x2="1286.25" y1="1332.293" y2="1354.293"/><polygon fill="#334155" points="1282.25,1344.293,1286.25,1354.293,1290.25,1344.293,1286.25,1348.293" style="stroke:#334155;stroke-width:1.0;"/><line style="stroke:#334155;stroke-width:1.0;" x1="999.75" x2="999.75" y1="1388.2617" y2="1406.2617"/><line style="stroke:#334155;stroke-width:1.0;" x1="999.75" x2="1131" y1="1406.2617" y2="1406.2617"/><polygon fill="#334155" points="1121,1402.2617,1131,1406.2617,1121,1410.2617,1125,1406.2617" style="stroke:#334155;stroke-width:1.0;"/><line style="stroke:#334155;stroke-width:1.0;" x1="1286.25" x2="1286.25" y1="1388.2617" y2="1406.2617"/><line style="stroke:#334155;stroke-width:1.0;" x1="1286.25" x2="1155" y1="1406.2617" y2="1406.2617"/><polygon fill="#334155" points="1165,1402.2617,1155,1406.2617,1165,1410.2617,1161,1406.2617" style="stroke:#334155;stroke-width:1.0;"/><line style="stroke:#334155;stroke-width:1.0;" x1="1143" x2="1143" y1="1300.293" y2="1320.293"/><polygon fill="#334155" points="1139,1310.293,1143,1320.293,1147,1310.293,1143,1314.293" style="stroke:#334155;stroke-width:1.0;"/><line style="stroke:#334155;stroke-width:1.0;" x1="1060.5" x2="969.25" y1="1450.2617" y2="1450.2617"/><line style="stroke:#334155;stroke-width:1.0;" x1="969.25" x2="969.25" y1="1450.2617" y2="1472.2617"/><polygon fill="#334155" points="965.25,1462.2617,969.25,1472.2617,973.25,1462.2617,969.25,1466.2617" style="stroke:#334155;stroke-width:1.0;"/><line style="stroke:#334155;stroke-width:1.0;" x1="1225.5" x2="1316.75" y1="1450.2617" y2="1450.2617"/><line style="stroke:#334155;stroke-width:1.0;" x1="1316.75" x2="1316.75" y1="1450.2617" y2="1472.2617"/><polygon fill="#334155" points="1312.75,1462.2617,1316.75,1472.2617,1320.75,1462.2617,1316.75,1466.2617" style="stroke:#334155;stroke-width:1.0;"/><line style="stroke:#334155;stroke-width:1.0;" x1="969.25" x2="969.25" y1="1506.2305" y2="1524.2305"/><line style="stroke:#334155;stroke-width:1.0;" x1="969.25" x2="1131" y1="1524.2305" y2="1524.2305"/><polygon fill="#334155" points="1121,1520.2305,1131,1524.2305,1121,1528.2305,1125,1524.2305" style="stroke:#334155;stroke-width:1.0;"/><line style="stroke:#334155;stroke-width:1.0;" x1="1316.75" x2="1316.75" y1="1506.2305" y2="1524.2305"/><line style="stroke:#334155;stroke-width:1.0;" x1="1316.75" x2="1155" y1="1524.2305" y2="1524.2305"/><polygon fill="#334155" points="1165,1520.2305,1155,1524.2305,1165,1528.2305,1161,1524.2305" style="stroke:#334155;stroke-width:1.0;"/><line style="stroke:#334155;stroke-width:1.0;" x1="1143" x2="1143" y1="1418.2617" y2="1438.2617"/><polygon fill="#334155" points="1139,1428.2617,1143,1438.2617,1147,1428.2617,1143,1432.2617" style="stroke:#334155;stroke-width:1.0;"/><line style="stroke:#334155;stroke-width:1.0;" x1="692.375" x2="379.75" y1="363.5" y2="363.5"/><line style="stroke:#334155;stroke-width:1.0;" x1="379.75" x2="379.75" y1="363.5" y2="421.7969"/><polygon fill="#334155" points="375.75,411.7969,379.75,421.7969,383.75,411.7969,379.75,415.7969" style="stroke:#334155;stroke-width:1.0;"/><line style="stroke:#334155;stroke-width:1.0;" x1="830.375" x2="1143" y1="363.5" y2="363.5"/><line style="stroke:#334155;stroke-width:1.0;" x1="1143" x2="1143" y1="363.5" y2="421.7969"/><polygon fill="#334155" points="1139,411.7969,1143,421.7969,1147,411.7969,1143,415.7969" style="stroke:#334155;stroke-width:1.0;"/><line style="stroke:#334155;stroke-width:1.0;" x1="1143" x2="1143" y1="1536.2305" y2="1554.2305"/><line style="stroke:#334155;stroke-width:1.0;" x1="1143" x2="761.375" y1="1554.2305" y2="1554.2305"/><line style="stroke:#334155;stroke-width:1.0;" x1="761.375" x2="761.375" y1="319.5" y2="351.5"/><polygon fill="#334155" points="757.375,341.5,761.375,351.5,765.375,341.5,761.375,345.5" style="stroke:#334155;stroke-width:1.0;"/><!--SRC=[XLPjKziu4FxkNw7Xlj2PfbFQ0ZtuS9FNNcQWS4dWkooj4nssv9Dag7lJ_twxafBO43XcmiZIlZwxpqfU-HBOhN5-RS6noOWjM-UXOWiGHWk5XqFXrQFoRUOUbAwvvHLp6oxDaz9hLl3IGUTanCN3sff6ox4fZMM_pS9VHs9ehNbAXvy_VpavFUqSIYXuK_eL_F33Kgrr1Tgp4WhVaU4f7lPlnWxu-peRpiPqOgm4ctQ_d9-UdlsEkpEZVThxE3iv_pJ4lOdYbT7oXQdff-dNsSUEm46BIy_jtkJvsTaKDwSx8-Upayd99FkLEPBBCip1Aw-CPaStkGFx28nhoKPAowEGqSK2k6JZ1NCrYFSCrNpZsCruFdaV92MKu84fxH6RIrHG1Ji-MbcC7YH3b_2ZBfLGFkYm6ikAWdySlMD-0veTj-3UeHOw-WQUzaYEePHfh02Mj-n1coVDb4GrLIYmv0ImpEnOcwIwGF4oX8xkbFFK2i_DIENgahTCymekezejM8VImQkD9aB8mWBtk0mHvvW9fMTIxi6zbgf04BEGx2H2OE6V1h1PvOlaEY17sGWjHh1iyYf2imMoGFyl-py5F3QwKBQAicJlIVaDG-0cUU99Wo2LkuH2xienRJmQnbRwa0oba4aEmSLKbu19UyOB3xORZeWUENbBoY7dcwwMA87hfcQk4G90kWFL3KMgp6FqMIZDI_KJNJrpI3bXlCahoEYnNss2pMCXyzA47eifln8AbHCDyjobzjmMZx5V-7FUr5dNVATKLwe0qQ91DYwvSzXx8i2mBLx40IEdlY068EJUjZn73GV-DH12ayHcQIBP7W3gFYoNIJo4rutvaDU2urYKRxdqZTN4ZKO7M9mh6kmHi1Nvmr2senLR1gVTgywntti0qMHeGmOJgmhF_iHbYTJRTVVOL2WEh5IFaTOnvj2qbAzhwjfOOfeC1bnZ2owWqsPtUYz3bQognWU0euB45XM769SI_njFWoUnuNgDOm2GNWHw6y8XOvJA6t1Vt6D5P41wvnk7K8cTrJ6sFMbg4jsIx7hRxedFox-kYD4kCbK4S7ouKfAfVQxHa6DFb5HNCkOTXfpR-hbjybAv26bjLSLjIndK1gTMA0yPnLEyJDPH2Wkk4HggOe_ud3Kk918kDTYtHfVwosTLUxi8mxekMsOq_kkNNEa1pcEn1QrV_9UCVr2H8zeCJBsh7BQZtrmUeaZAoxLQ_EzS2ln8r0W3c1praGYT-qfi8nf4h4CjAbWQPhtXr0lc-J2Agwme3G_t5yviB81QRtmsj683lgtX8XliBgf1G7yGv_J01G_POZU1TdHpf3HUJ8Uh-VTlkBoxdSJbC6RM5noEL_FxQJQBCwL_DXlEhwOJN4ocLzCLhkvwbIEHTCb-npkMli09gse20hyA2zJc5VDyxS8fpZjq4ZuJLnCHGdcZmVoUBcb4CgIBE_ZOgs7_rUGQ_5pkDxonV0shjYEaD2QX1Opn2lGlTcz4tHm-kSORoxPp_MtaTcTSujIa5q9uZ-3uZ0SZkbs9U5IsWDOrrnY730IaDyTWzyBOiGelkiPQj8Faa8PKKqyG5oEuswV0zeB75vXvDcxmThCG5Oi2Gb7HNau13V3zGjJxGDqLGil-0m00]--></g></svg>