<?xml version="1.0" encoding="UTF-8" standalone="no"?><svg xmlns="http://www.w3.org/2000/svg" xmlns:xlink="http://www.w3.org/1999/xlink" contentStyleType="text/css" height="561px" preserveAspectRatio="none" style="width:443px;height:561px;background:#FFFFFF;" version="1.1" viewBox="0 0 443 561" width="443px" zoomAndPan="magnify"><defs/><g><text fill="#000000" font-family="sans-serif" font-size="14" font-weight="bold" lengthAdjust="spacing" textLength="283" x="73.25" y="22.9951">PostgresDbSystem Formal Lifecycle</text><ellipse cx="230.5" cy="53.2969" fill="#222222" rx="10" ry="10" style="stroke:none;stroke-width:1.0;"/><g id="Observed"><rect fill="#F1F1F1" height="50" rx="12.5" ry="12.5" style="stroke:#181818;stroke-width:0.5;" width="87" x="187" y="124.2969"/><line style="stroke:#181818;stroke-width:0.5;" x1="187" x2="274" y1="150.5938" y2="150.5938"/><text fill="#000000" font-family="sans-serif" font-size="14" lengthAdjust="spacing" textLength="67" x="197" y="142.292">Observed</text></g><g id="Retryable"><rect fill="#F1F1F1" height="50" rx="12.5" ry="12.5" style="stroke:#181818;stroke-width:0.5;" width="85" x="7" y="251.2969"/><line style="stroke:#181818;stroke-width:0.5;" x1="7" x2="92" y1="277.5938" y2="277.5938"/><text fill="#000000" font-family="sans-serif" font-size="14" lengthAdjust="spacing" textLength="65" x="17" y="269.292">Retryable</text></g><g id="Active"><rect fill="#F1F1F1" height="50" rx="12.5" ry="12.5" style="stroke:#181818;stroke-width:0.5;" width="61" x="185" y="251.2969"/><line style="stroke:#181818;stroke-width:0.5;" x1="185" x2="246" y1="277.5938" y2="277.5938"/><text fill="#000000" font-family="sans-serif" font-size="14" lengthAdjust="spacing" textLength="41" x="195" y="269.292">Active</text></g><g id="Failed"><rect fill="#F1F1F1" height="50" rx="12.5" ry="12.5" style="stroke:#181818;stroke-width:0.5;" width="60" x="312.5" y="251.2969"/><line style="stroke:#181818;stroke-width:0.5;" x1="312.5" x2="372.5" y1="277.5938" y2="277.5938"/><text fill="#000000" font-family="sans-serif" font-size="14" lengthAdjust="spacing" textLength="40" x="322.5" y="269.292">Failed</text></g><g id="DeletePending"><rect fill="#F1F1F1" height="50" rx="12.5" ry="12.5" style="stroke:#181818;stroke-width:0.5;" width="123" x="139" y="378.2969"/><line style="stroke:#181818;stroke-width:0.5;" x1="139" x2="262" y1="404.5938" y2="404.5938"/><text fill="#000000" font-family="sans-serif" font-size="14" lengthAdjust="spacing" textLength="103" x="149" y="396.292">DeletePending</text></g><g id="Deleted"><rect fill="#F1F1F1" height="50" rx="12.5" ry="12.5" style="stroke:#181818;stroke-width:0.5;" width="75" x="163" y="505.2969"/><line style="stroke:#181818;stroke-width:0.5;" x1="163" x2="238" y1="531.5938" y2="531.5938"/><text fill="#000000" font-family="sans-serif" font-size="14" lengthAdjust="spacing" textLength="55" x="173" y="523.292">Deleted</text></g><!--link *start to Observed--><g id="link_*start_Observed"><path d="M230.5,63.3069 C230.5,75.9969 230.5,99.7069 230.5,118.8669 " fill="none" id="*start-to-Observed" style="stroke:#181818;stroke-width:1.0;"/><polygon fill="#181818" points="230.5,124.1369,234.5,115.1369,230.5,119.1369,226.5,115.1369,230.5,124.1369" style="stroke:#181818;stroke-width:1.0;"/></g><!--link Observed to Retryable--><g id="link_Observed_Retryable"><path d="M186.67,154.8169 C151.68,160.6369 103.69,173.9469 73.5,204.2969 C62.47,215.3869 56.5,231.7269 53.28,245.9269 " fill="none" id="Observed-to-Retryable" style="stroke:#181818;stroke-width:1.0;"/><polygon fill="#181818" points="52.21,251.0569,57.9736,243.0706,53.2372,246.1635,50.1442,241.4271,52.21,251.0569" style="stroke:#181818;stroke-width:1.0;"/><text fill="#000000" font-family="sans-serif" font-size="13" lengthAdjust="spacing" textLength="139" x="74.5" y="217.3638">CREATING, UPDATING</text></g><!--link Observed to Active--><g id="link_Observed_Active"><path d="M227.61,174.3969 C225.15,194.8869 221.61,224.3769 218.99,246.1769 " fill="none" id="Observed-to-Active" style="stroke:#181818;stroke-width:1.0;"/><polygon fill="#181818" points="218.38,251.2669,223.4296,242.811,218.9791,246.3029,215.4872,241.8524,218.38,251.2669" style="stroke:#181818;stroke-width:1.0;"/><text fill="#000000" font-family="sans-serif" font-size="13" lengthAdjust="spacing" textLength="45" x="225.5" y="217.3638">ACTIVE</text></g><!--link Observed to Failed--><g id="link_Observed_Failed"><path d="M252.51,174.4369 C260.97,183.7469 270.71,194.4969 279.5,204.2969 C292.17,218.4169 306.18,234.1869 317.76,247.2769 " fill="none" id="Observed-to-Failed" style="stroke:#181818;stroke-width:1.0;"/><polygon fill="#181818" points="321.28,251.2469,318.3259,241.8515,317.9724,247.4973,312.3266,247.1437,321.28,251.2469" style="stroke:#181818;stroke-width:1.0;"/><text fill="#000000" font-family="sans-serif" font-size="13" lengthAdjust="spacing" textLength="110" x="294.5" y="217.3638">FAILED, DELETED</text></g><!--link Active to DeletePending--><g id="link_Active_DeletePending"><path d="M205.64,301.3369 C202.36,310.5469 199.13,321.2469 197.5,331.2969 C195.28,344.9469 195.58,360.2669 196.62,373.1669 " fill="none" id="Active-to-DeletePending" style="stroke:#181818;stroke-width:1.0;"/><polygon fill="#181818" points="197.07,378.1669,200.258,368.8483,196.6276,373.1865,192.2894,369.5561,197.07,378.1669" style="stroke:#181818;stroke-width:1.0;"/><text fill="#000000" font-family="sans-serif" font-size="13" lengthAdjust="spacing" textLength="109" x="198.5" y="344.3638">delete requested</text></g><!--link Retryable to DeletePending--><g id="link_Retryable_DeletePending"><path d="M54.13,301.5869 C58.09,316.6569 65.19,335.5069 77.5,348.2969 C92.85,364.2369 113.72,375.7869 133.91,383.9969 " fill="none" id="Retryable-to-DeletePending" style="stroke:#181818;stroke-width:1.0;"/><polygon fill="#181818" points="138.75,385.9069,131.8606,378.8687,134.1027,384.0623,128.9092,386.3044,138.75,385.9069" style="stroke:#181818;stroke-width:1.0;"/><text fill="#000000" font-family="sans-serif" font-size="13" lengthAdjust="spacing" textLength="109" x="78.5" y="344.3638">delete requested</text></g><!--link Failed to DeletePending--><g id="link_Failed_DeletePending"><path d="M336.98,301.4569 C332.5,316.4669 324.86,335.3069 312.5,348.2969 C299.85,361.5869 283.25,372.0069 266.72,379.9969 " fill="none" id="Failed-to-DeletePending" style="stroke:#181818;stroke-width:1.0;"/><polygon fill="#181818" points="262.06,382.1869,271.9067,381.9785,266.5851,380.06,268.5036,374.7384,262.06,382.1869" style="stroke:#181818;stroke-width:1.0;"/><text fill="#000000" font-family="sans-serif" font-size="13" lengthAdjust="spacing" textLength="109" x="326.5" y="344.3638">delete requested</text></g><!--link DeletePending to Deleted--><g id="link_DeletePending_Deleted"><path d="M200.5,428.3969 C200.5,448.8869 200.5,478.3769 200.5,500.1769 " fill="none" id="DeletePending-to-Deleted" style="stroke:#181818;stroke-width:1.0;"/><polygon fill="#181818" points="200.5,505.2669,204.5,496.2669,200.5,500.2669,196.5,496.2669,200.5,505.2669" style="stroke:#181818;stroke-width:1.0;"/><text fill="#000000" font-family="sans-serif" font-size="13" lengthAdjust="spacing" textLength="188" x="201.5" y="471.3638">finalizer removed after delete</text></g><!--SRC=[ZO_1Ze8m48RlVOev6tm13oR45aD2bBYi5xE7GWVJf42s7KdmwRT0LzERj_-V-MRc7z9a4Ch1qTsYu_NNv0Wxo0RRIGE5Rh6P6eECtJO_iDtkuLmxj2CgzY-MwWN9JhBsgtPmk8Yqoa_71BvBlgYOJHlIumocXog_YhYPIMsyt46MveNW2N1HY4fm5gPcXgD1mX9xfVkxHzNYmUBl0trwnTvfFiB3pO_O67YFp95RtKkZdsWztmtpHx8bxzObZ3cIVjShNF3hOy6iKOA9RaKrzGS0]--></g></svg>