<?xml version="1.0" encoding="UTF-8" standalone="no"?><svg xmlns="http://www.w3.org/2000/svg" xmlns:xlink="http://www.w3.org/1999/xlink" contentStyleType="text/css" height="1603px" preserveAspectRatio="none" style="width:1262px;height:1603px;background:#FFFFFF;" version="1.1" viewBox="0 0 1262 1603" width="1262px" zoomAndPan="magnify"><defs/><g><text fill="#000000" font-family="sans-serif" font-size="14" font-weight="bold" lengthAdjust="spacing" textLength="325" x="469.75" y="27.9951">Postgres DB System Reconcile Sequence</text><rect fill="none" height="254.6719" style="stroke:#475569;stroke-width:1.5;" width="987" x="268.5" y="193.8594"/><rect fill="none" height="223.5391" style="stroke:#475569;stroke-width:1.5;" width="967" x="278.5" y="217.9922"/><rect fill="none" height="119.3359" style="stroke:#475569;stroke-width:1.5;" width="947" x="288.5" y="315.1953"/><rect fill="none" height="932" style="stroke:#475569;stroke-width:1.5;" width="1245.5" x="10" y="462.5313"/><rect fill="none" height="208.7344" style="stroke:#475569;stroke-width:1.5;" width="1225.5" x="20" y="486.6641"/><rect fill="none" height="90.2031" style="stroke:#475569;stroke-width:1.5;" width="1205.5" x="30" y="598.1953"/><rect fill="none" height="546.3203" style="stroke:#475569;stroke-width:1.5;" width="1215.5" x="20" y="812.0781"/><rect fill="none" height="46.2656" style="stroke:#475569;stroke-width:1.5;" width="406.5" x="30" y="1068.0703"/><rect fill="none" height="46.2656" style="stroke:#475569;stroke-width:1.5;" width="825" x="288.5" y="1215.7344"/><rect fill="none" height="46.2656" style="stroke:#475569;stroke-width:1.5;" width="406.5" x="30" y="1305.1328"/><line style="stroke:#94A3B8;stroke-width:0.5;stroke-dasharray:5.0,5.0;" x1="76" x2="76" y1="118.5938" y2="1522.3281"/><line style="stroke:#94A3B8;stroke-width:0.5;stroke-dasharray:5.0,5.0;" x1="362.5" x2="362.5" y1="118.5938" y2="1522.3281"/><line style="stroke:#94A3B8;stroke-width:0.5;stroke-dasharray:5.0,5.0;" x1="1085.5" x2="1085.5" y1="118.5938" y2="1522.3281"/><line style="stroke:#94A3B8;stroke-width:0.5;stroke-dasharray:5.0,5.0;" x1="1169.5" x2="1169.5" y1="118.5938" y2="1522.3281"/><text fill="#000000" font-family="sans-serif" font-size="14" lengthAdjust="spacing" textLength="67" x="40" y="115.292">Controller</text><ellipse cx="76.5" cy="50.7969" fill="#E0F2FE" rx="8" ry="8" style="stroke:#0F766E;stroke-width:0.5;"/><path d="M76.5,58.7969 L76.5,85.7969 M63.5,66.7969 L89.5,66.7969 M76.5,85.7969 L63.5,100.7969 M76.5,85.7969 L89.5,100.7969 " fill="none" style="stroke:#0F766E;stroke-width:0.5;"/><text fill="#000000" font-family="sans-serif" font-size="14" lengthAdjust="spacing" textLength="67" x="40" y="1534.3232">Controller</text><ellipse cx="76.5" cy="1546.125" fill="#E0F2FE" rx="8" ry="8" style="stroke:#0F766E;stroke-width:0.5;"/><path d="M76.5,1554.125 L76.5,1581.125 M63.5,1562.125 L89.5,1562.125 M76.5,1581.125 L63.5,1596.125 M76.5,1581.125 L89.5,1596.125 " fill="none" style="stroke:#0F766E;stroke-width:0.5;"/><rect fill="#F8FAFC" height="30.2969" rx="2.5" ry="2.5" style="stroke:#475569;stroke-width:0.5;" width="128" x="298.5" y="87.2969"/><text fill="#000000" font-family="sans-serif" font-size="14" lengthAdjust="spacing" textLength="114" x="305.5" y="107.292">Service Manager</text><rect fill="#F8FAFC" height="30.2969" rx="2.5" ry="2.5" style="stroke:#475569;stroke-width:0.5;" width="128" x="298.5" y="1521.3281"/><text fill="#000000" font-family="sans-serif" font-size="14" lengthAdjust="spacing" textLength="114" x="305.5" y="1541.3232">Service Manager</text><text fill="#000000" font-family="sans-serif" font-size="14" lengthAdjust="spacing" textLength="24" x="1070.5" y="115.292">OCI</text><path d="M1067.5,66.2969 C1067.5,56.2969 1085.5,56.2969 1085.5,56.2969 C1085.5,56.2969 1103.5,56.2969 1103.5,66.2969 L1103.5,92.2969 C1103.5,102.2969 1085.5,102.2969 1085.5,102.2969 C1085.5,102.2969 1067.5,102.2969 1067.5,92.2969 L1067.5,66.2969 " fill="#E2E2F0" style="stroke:#181818;stroke-width:1.5;"/><path d="M1067.5,66.2969 C1067.5,76.2969 1085.5,76.2969 1085.5,76.2969 C1085.5,76.2969 1103.5,76.2969 1103.5,66.2969 " fill="none" style="stroke:#181818;stroke-width:1.5;"/><text fill="#000000" font-family="sans-serif" font-size="14" lengthAdjust="spacing" textLength="24" x="1070.5" y="1534.3232">OCI</text><path d="M1067.5,1547.625 C1067.5,1537.625 1085.5,1537.625 1085.5,1537.625 C1085.5,1537.625 1103.5,1537.625 1103.5,1547.625 L1103.5,1573.625 C1103.5,1583.625 1085.5,1583.625 1085.5,1583.625 C1085.5,1583.625 1067.5,1583.625 1067.5,1573.625 L1067.5,1547.625 " fill="#E2E2F0" style="stroke:#181818;stroke-width:1.5;"/><path d="M1067.5,1547.625 C1067.5,1557.625 1085.5,1557.625 1085.5,1557.625 C1085.5,1557.625 1103.5,1557.625 1103.5,1547.625 " fill="none" style="stroke:#181818;stroke-width:1.5;"/><text fill="#000000" font-family="sans-serif" font-size="14" lengthAdjust="spacing" textLength="106" x="1113.5" y="115.292">Kubernetes API</text><path d="M1151.5,66.2969 C1151.5,56.2969 1169.5,56.2969 1169.5,56.2969 C1169.5,56.2969 1187.5,56.2969 1187.5,66.2969 L1187.5,92.2969 C1187.5,102.2969 1169.5,102.2969 1169.5,102.2969 C1169.5,102.2969 1151.5,102.2969 1151.5,92.2969 L1151.5,66.2969 " fill="#E2E2F0" style="stroke:#181818;stroke-width:1.5;"/><path d="M1151.5,66.2969 C1151.5,76.2969 1169.5,76.2969 1169.5,76.2969 C1169.5,76.2969 1187.5,76.2969 1187.5,66.2969 " fill="none" style="stroke:#181818;stroke-width:1.5;"/><text fill="#000000" font-family="sans-serif" font-size="14" lengthAdjust="spacing" textLength="106" x="1113.5" y="1534.3232">Kubernetes API</text><path d="M1151.5,1547.625 C1151.5,1537.625 1169.5,1537.625 1169.5,1537.625 C1169.5,1537.625 1187.5,1537.625 1187.5,1547.625 L1187.5,1573.625 C1187.5,1583.625 1169.5,1583.625 1169.5,1583.625 C1169.5,1583.625 1151.5,1583.625 1151.5,1573.625 L1151.5,1547.625 " fill="#E2E2F0" style="stroke:#181818;stroke-width:1.5;"/><path d="M1151.5,1547.625 C1151.5,1557.625 1169.5,1557.625 1169.5,1557.625 C1169.5,1557.625 1187.5,1557.625 1187.5,1547.625 " fill="none" style="stroke:#181818;stroke-width:1.5;"/><polygon fill="#334155" points="350.5,145.7266,360.5,149.7266,350.5,153.7266,354.5,149.7266" style="stroke:#334155;stroke-width:1.0;"/><line style="stroke:#334155;stroke-width:1.0;" x1="76.5" x2="356.5" y1="149.7266" y2="149.7266"/><text fill="#000000" font-family="sans-serif" font-size="13" font-weight="bold" lengthAdjust="spacing" textLength="9" x="83.5" y="144.6606">1</text><text fill="#000000" font-family="sans-serif" font-size="13" lengthAdjust="spacing" textLength="239" x="96.5" y="144.6606">reconcile desired spec and live status</text><polygon fill="#334155" points="1157.5,174.8594,1167.5,178.8594,1157.5,182.8594,1161.5,178.8594" style="stroke:#334155;stroke-width:1.0;"/><line style="stroke:#334155;stroke-width:1.0;" x1="362.5" x2="1163.5" y1="178.8594" y2="178.8594"/><text fill="#000000" font-family="sans-serif" font-size="13" font-weight="bold" lengthAdjust="spacing" textLength="9" x="369.5" y="173.7935">2</text><text fill="#000000" font-family="sans-serif" font-size="13" lengthAdjust="spacing" textLength="212" x="382.5" y="173.7935">read CR status and finalizer state</text><path d="M268.5,193.8594 L438.5,193.8594 L438.5,200.9922 L428.5,210.9922 L268.5,210.9922 L268.5,193.8594 " fill="#F8FAFC" style="stroke:#475569;stroke-width:1.5;"/><rect fill="none" height="254.6719" style="stroke:#475569;stroke-width:1.5;" width="987" x="268.5" y="193.8594"/><text fill="#000000" font-family="sans-serif" font-size="13" font-weight="bold" lengthAdjust="spacing" textLength="125" x="283.5" y="206.9263">Lookup and bind</text><path d="M278.5,217.9922 L342.5,217.9922 L342.5,225.125 L332.5,235.125 L278.5,235.125 L278.5,217.9922 " fill="#F8FAFC" style="stroke:#475569;stroke-width:1.5;"/><rect fill="none" height="223.5391" style="stroke:#475569;stroke-width:1.5;" width="967" x="278.5" y="217.9922"/><text fill="#000000" font-family="sans-serif" font-size="13" font-weight="bold" lengthAdjust="spacing" textLength="19" x="293.5" y="231.0591">alt</text><text fill="#000000" font-family="sans-serif" font-size="11" font-weight="bold" lengthAdjust="spacing" textLength="256" x="357.5" y="230.2026">[tracked or explicit OCID already exists]</text><polygon fill="#334155" points="1073.5,252.2578,1083.5,256.2578,1073.5,260.2578,1077.5,256.2578" style="stroke:#334155;stroke-width:1.0;"/><line style="stroke:#334155;stroke-width:1.0;" x1="362.5" x2="1079.5" y1="256.2578" y2="256.2578"/><text fill="#000000" font-family="sans-serif" font-size="13" font-weight="bold" lengthAdjust="spacing" textLength="9" x="369.5" y="251.1919">3</text><text fill="#000000" font-family="sans-serif" font-size="13" lengthAdjust="spacing" textLength="278" x="382.5" y="251.1919">get the current resource by known identifier</text><line style="stroke:#475569;stroke-width:1.0;stroke-dasharray:2.0,2.0;" x1="278.5" x2="1245.5" y1="265.2578" y2="265.2578"/><text fill="#000000" font-family="sans-serif" font-size="11" font-weight="bold" lengthAdjust="spacing" textLength="145" x="283.5" y="275.4683">[no OCID is bound yet]</text><polygon fill="#334155" points="1073.5,296.1953,1083.5,300.1953,1073.5,304.1953,1077.5,300.1953" style="stroke:#334155;stroke-width:1.0;"/><line style="stroke:#334155;stroke-width:1.0;" x1="362.5" x2="1079.5" y1="300.1953" y2="300.1953"/><text fill="#000000" font-family="sans-serif" font-size="13" font-weight="bold" lengthAdjust="spacing" textLength="9" x="369.5" y="295.1294">4</text><text fill="#000000" font-family="sans-serif" font-size="13" lengthAdjust="spacing" textLength="193" x="382.5" y="295.1294">list resources by display name</text><path d="M288.5,315.1953 L352.5,315.1953 L352.5,322.3281 L342.5,332.3281 L288.5,332.3281 L288.5,315.1953 " fill="#F8FAFC" style="stroke:#475569;stroke-width:1.5;"/><rect fill="none" height="119.3359" style="stroke:#475569;stroke-width:1.5;" width="947" x="288.5" y="315.1953"/><text fill="#000000" font-family="sans-serif" font-size="13" font-weight="bold" lengthAdjust="spacing" textLength="19" x="303.5" y="328.2622">alt</text><text fill="#000000" font-family="sans-serif" font-size="11" font-weight="bold" lengthAdjust="spacing" textLength="162" x="367.5" y="327.4058">[existing resource found]</text><polygon fill="#334155" points="1157.5,349.4609,1167.5,353.4609,1157.5,357.4609,1161.5,353.4609" style="stroke:#334155;stroke-width:1.0;"/><line style="stroke:#334155;stroke-width:1.0;" x1="362.5" x2="1163.5" y1="353.4609" y2="353.4609"/><text fill="#000000" font-family="sans-serif" font-size="13" font-weight="bold" lengthAdjust="spacing" textLength="9" x="369.5" y="348.395">5</text><text fill="#000000" font-family="sans-serif" font-size="13" lengthAdjust="spacing" textLength="221" x="382.5" y="348.395">persist the resolved OCID in status</text><line style="stroke:#475569;stroke-width:1.0;stroke-dasharray:2.0,2.0;" x1="288.5" x2="1235.5" y1="362.4609" y2="362.4609"/><text fill="#000000" font-family="sans-serif" font-size="11" font-weight="bold" lengthAdjust="spacing" textLength="182" x="293.5" y="372.6714">[no existing resource found]</text><polygon fill="#334155" points="1073.5,393.3984,1083.5,397.3984,1073.5,401.3984,1077.5,397.3984" style="stroke:#334155;stroke-width:1.0;"/><line style="stroke:#334155;stroke-width:1.0;" x1="362.5" x2="1079.5" y1="397.3984" y2="397.3984"/><text fill="#000000" font-family="sans-serif" font-size="13" font-weight="bold" lengthAdjust="spacing" textLength="9" x="369.5" y="392.3325">6</text><text fill="#000000" font-family="sans-serif" font-size="13" lengthAdjust="spacing" textLength="152" x="382.5" y="392.3325">create the OCI resource</text><polygon fill="#334155" points="1157.5,422.5313,1167.5,426.5313,1157.5,430.5313,1161.5,426.5313" style="stroke:#334155;stroke-width:1.0;"/><line style="stroke:#334155;stroke-width:1.0;" x1="362.5" x2="1163.5" y1="426.5313" y2="426.5313"/><text fill="#000000" font-family="sans-serif" font-size="13" font-weight="bold" lengthAdjust="spacing" textLength="9" x="369.5" y="421.4653">7</text><text fill="#000000" font-family="sans-serif" font-size="13" lengthAdjust="spacing" textLength="216" x="382.5" y="421.4653">persist the created OCID in status</text><path d="M10,462.5313 L74,462.5313 L74,469.6641 L64,479.6641 L10,479.6641 L10,462.5313 " fill="#F8FAFC" style="stroke:#475569;stroke-width:1.5;"/><rect fill="none" height="932" style="stroke:#475569;stroke-width:1.5;" width="1245.5" x="10" y="462.5313"/><text fill="#000000" font-family="sans-serif" font-size="13" font-weight="bold" lengthAdjust="spacing" textLength="19" x="25" y="475.5981">alt</text><text fill="#000000" font-family="sans-serif" font-size="11" font-weight="bold" lengthAdjust="spacing" textLength="120" x="89" y="474.7417">[delete requested]</text><path d="M20,486.6641 L113,486.6641 L113,493.7969 L103,503.7969 L20,503.7969 L20,486.6641 " fill="#F8FAFC" style="stroke:#475569;stroke-width:1.5;"/><rect fill="none" height="208.7344" style="stroke:#475569;stroke-width:1.5;" width="1225.5" x="20" y="486.6641"/><text fill="#000000" font-family="sans-serif" font-size="13" font-weight="bold" lengthAdjust="spacing" textLength="48" x="35" y="499.731">Delete</text><polygon fill="#334155" points="1073.5,520.9297,1083.5,524.9297,1073.5,528.9297,1077.5,524.9297" style="stroke:#334155;stroke-width:1.0;"/><line style="stroke:#334155;stroke-width:1.0;" x1="362.5" x2="1079.5" y1="524.9297" y2="524.9297"/><text fill="#000000" font-family="sans-serif" font-size="13" font-weight="bold" lengthAdjust="spacing" textLength="9" x="369.5" y="519.8638">8</text><text fill="#000000" font-family="sans-serif" font-size="13" lengthAdjust="spacing" textLength="114" x="382.5" y="519.8638">submit OCI delete</text><polygon fill="#334155" points="1073.5,550.0625,1083.5,554.0625,1073.5,558.0625,1077.5,554.0625" style="stroke:#334155;stroke-width:1.0;"/><line style="stroke:#334155;stroke-width:1.0;" x1="362.5" x2="1079.5" y1="554.0625" y2="554.0625"/><text fill="#000000" font-family="sans-serif" font-size="13" font-weight="bold" lengthAdjust="spacing" textLength="9" x="369.5" y="548.9966">9</text><text fill="#000000" font-family="sans-serif" font-size="13" lengthAdjust="spacing" textLength="427" x="382.5" y="548.9966">Confirm deletion with GetDbSystem until the resource is not found.</text><polygon fill="#334155" points="1157.5,579.1953,1167.5,583.1953,1157.5,587.1953,1161.5,583.1953" style="stroke:#334155;stroke-width:1.0;"/><line style="stroke:#334155;stroke-width:1.0;" x1="362.5" x2="1163.5" y1="583.1953" y2="583.1953"/><text fill="#000000" font-family="sans-serif" font-size="13" font-weight="bold" lengthAdjust="spacing" textLength="18" x="369.5" y="578.1294">10</text><text fill="#000000" font-family="sans-serif" font-size="13" lengthAdjust="spacing" textLength="350" x="391.5" y="578.1294">Delete the owned Secret after OCI delete confirmation.</text><path d="M30,598.1953 L94,598.1953 L94,605.3281 L84,615.3281 L30,615.3281 L30,598.1953 " fill="#F8FAFC" style="stroke:#475569;stroke-width:1.5;"/><rect fill="none" height="90.2031" style="stroke:#475569;stroke-width:1.5;" width="1205.5" x="30" y="598.1953"/><text fill="#000000" font-family="sans-serif" font-size="13" font-weight="bold" lengthAdjust="spacing" textLength="19" x="45" y="611.2622">alt</text><text fill="#000000" font-family="sans-serif" font-size="11" font-weight="bold" lengthAdjust="spacing" textLength="217" x="109" y="610.4058">[owned Secret cleanup succeeds]</text><polygon fill="#334155" points="1157.5,632.4609,1167.5,636.4609,1157.5,640.4609,1161.5,636.4609" style="stroke:#334155;stroke-width:1.0;"/><line style="stroke:#334155;stroke-width:1.0;" x1="362.5" x2="1163.5" y1="636.4609" y2="636.4609"/><text fill="#000000" font-family="sans-serif" font-size="13" font-weight="bold" lengthAdjust="spacing" textLength="18" x="369.5" y="631.395">11</text><text fill="#000000" font-family="sans-serif" font-size="13" lengthAdjust="spacing" textLength="127" x="391.5" y="631.395">remove the finalizer</text><line style="stroke:#475569;stroke-width:1.0;stroke-dasharray:2.0,2.0;" x1="30" x2="1235.5" y1="645.4609" y2="645.4609"/><text fill="#000000" font-family="sans-serif" font-size="11" font-weight="bold" lengthAdjust="spacing" textLength="138" x="35" y="655.6714">[Secret cleanup fails]</text><polygon fill="#334155" points="87.5,676.3984,77.5,680.3984,87.5,684.3984,83.5,680.3984" style="stroke:#334155;stroke-width:1.0;"/><line style="stroke:#334155;stroke-width:1.0;stroke-dasharray:2.0,2.0;" x1="81.5" x2="361.5" y1="680.3984" y2="680.3984"/><text fill="#000000" font-family="sans-serif" font-size="13" font-weight="bold" lengthAdjust="spacing" textLength="18" x="93.5" y="675.3325">12</text><text fill="#000000" font-family="sans-serif" font-size="13" lengthAdjust="spacing" textLength="177" x="115.5" y="675.3325">retain the finalizer and retry</text><line style="stroke:#475569;stroke-width:1.0;stroke-dasharray:2.0,2.0;" x1="10" x2="1255.5" y1="703.3984" y2="703.3984"/><text fill="#000000" font-family="sans-serif" font-size="11" font-weight="bold" lengthAdjust="spacing" textLength="147" x="15" y="713.6089">[OCI state is retryable]</text><polygon fill="#334155" points="87.5,734.3359,77.5,738.3359,87.5,742.3359,83.5,738.3359" style="stroke:#334155;stroke-width:1.0;"/><line style="stroke:#334155;stroke-width:1.0;stroke-dasharray:2.0,2.0;" x1="81.5" x2="361.5" y1="738.3359" y2="738.3359"/><text fill="#000000" font-family="sans-serif" font-size="13" font-weight="bold" lengthAdjust="spacing" textLength="18" x="93.5" y="733.27">13</text><text fill="#000000" font-family="sans-serif" font-size="13" lengthAdjust="spacing" textLength="110" x="115.5" y="733.27">requeue required</text><line style="stroke:#475569;stroke-width:1.0;stroke-dasharray:2.0,2.0;" x1="10" x2="1255.5" y1="747.3359" y2="747.3359"/><text fill="#000000" font-family="sans-serif" font-size="11" font-weight="bold" lengthAdjust="spacing" textLength="200" x="15" y="757.5464">[OCI state is failed or terminal]</text><polygon fill="#334155" points="87.5,778.2734,77.5,782.2734,87.5,786.2734,83.5,782.2734" style="stroke:#334155;stroke-width:1.0;"/><line style="stroke:#334155;stroke-width:1.0;stroke-dasharray:2.0,2.0;" x1="81.5" x2="361.5" y1="782.2734" y2="782.2734"/><text fill="#000000" font-family="sans-serif" font-size="13" font-weight="bold" lengthAdjust="spacing" textLength="18" x="93.5" y="777.2075">14</text><text fill="#000000" font-family="sans-serif" font-size="13" lengthAdjust="spacing" textLength="240" x="115.5" y="777.2075">unsuccessful terminal reconcile result</text><line style="stroke:#475569;stroke-width:1.0;stroke-dasharray:2.0,2.0;" x1="10" x2="1255.5" y1="791.2734" y2="791.2734"/><text fill="#000000" font-family="sans-serif" font-size="11" font-weight="bold" lengthAdjust="spacing" textLength="203" x="15" y="801.4839">[OCI state is active and usable]</text><path d="M20,812.0781 L167,812.0781 L167,819.2109 L157,829.2109 L20,829.2109 L20,812.0781 " fill="#F8FAFC" style="stroke:#475569;stroke-width:1.5;"/><rect fill="none" height="546.3203" style="stroke:#475569;stroke-width:1.5;" width="1215.5" x="20" y="812.0781"/><text fill="#000000" font-family="sans-serif" font-size="13" font-weight="bold" lengthAdjust="spacing" textLength="102" x="35" y="825.145">Drift handling</text><path d="M324,834.2109 L324,1055.2109 L1124,1055.2109 L1124,844.2109 L1114,834.2109 L324,834.2109 " fill="#FEFFDD" style="stroke:#181818;stroke-width:0.5;"/><path d="M1114,834.2109 L1114,844.2109 L1124,844.2109 L1114,834.2109 " fill="#FEFFDD" style="stroke:#181818;stroke-width:0.5;"/><text fill="#000000" font-family="sans-serif" font-size="13" lengthAdjust="spacing" textLength="171" x="330" y="851.2778">Supported update surface:</text><text fill="#000000" font-family="sans-serif" font-size="13" lengthAdjust="spacing" textLength="92" x="330" y="866.4106">- displayName</text><text fill="#000000" font-family="sans-serif" font-size="13" lengthAdjust="spacing" textLength="79" x="330" y="881.5435">- description</text><text fill="#000000" font-family="sans-serif" font-size="13" lengthAdjust="spacing" textLength="96" x="330" y="896.6763">- freeform tags</text><text fill="#000000" font-family="sans-serif" font-size="13" lengthAdjust="spacing" textLength="88" x="330" y="911.8091">- defined tags</text><text fill="#000000" font-family="sans-serif" font-size="13" lengthAdjust="spacing" textLength="139" x="330" y="926.9419">Reject before mutate:</text><text fill="#000000" font-family="sans-serif" font-size="13" lengthAdjust="spacing" textLength="102" x="330" y="942.0747">- dbVersion drift</text><text fill="#000000" font-family="sans-serif" font-size="13" lengthAdjust="spacing" textLength="77" x="330" y="957.2075">- shape drift</text><text fill="#000000" font-family="sans-serif" font-size="13" lengthAdjust="spacing" textLength="93" x="330" y="972.3403">- subnetId drift</text><text fill="#000000" font-family="sans-serif" font-size="13" lengthAdjust="spacing" textLength="117" x="330" y="987.4731">- storageType drift</text><text fill="#000000" font-family="sans-serif" font-size="13" lengthAdjust="spacing" textLength="130" x="330" y="1002.606">- instanceCount drift</text><text fill="#000000" font-family="sans-serif" font-size="13" lengthAdjust="spacing" textLength="163" x="330" y="1017.7388">- instanceOcpuCount drift</text><text fill="#000000" font-family="sans-serif" font-size="13" lengthAdjust="spacing" textLength="181" x="330" y="1032.8716">- instanceMemoryInGBs drift</text><text fill="#000000" font-family="sans-serif" font-size="13" lengthAdjust="spacing" textLength="145" x="330" y="1048.0044">- admin credential drift</text><path d="M30,1068.0703 L100,1068.0703 L100,1075.2031 L90,1085.2031 L30,1085.2031 L30,1068.0703 " fill="#F8FAFC" style="stroke:#475569;stroke-width:1.5;"/><rect fill="none" height="46.2656" style="stroke:#475569;stroke-width:1.5;" width="406.5" x="30" y="1068.0703"/><text fill="#000000" font-family="sans-serif" font-size="13" font-weight="bold" lengthAdjust="spacing" textLength="25" x="45" y="1081.1372">opt</text><text fill="#000000" font-family="sans-serif" font-size="11" font-weight="bold" lengthAdjust="spacing" textLength="286" x="115" y="1080.2808">[unsupported or immutable drift is detected]</text><polygon fill="#334155" points="87.5,1102.3359,77.5,1106.3359,87.5,1110.3359,83.5,1106.3359" style="stroke:#334155;stroke-width:1.0;"/><line style="stroke:#334155;stroke-width:1.0;stroke-dasharray:2.0,2.0;" x1="81.5" x2="361.5" y1="1106.3359" y2="1106.3359"/><text fill="#000000" font-family="sans-serif" font-size="13" font-weight="bold" lengthAdjust="spacing" textLength="18" x="93.5" y="1101.27">15</text><text fill="#000000" font-family="sans-serif" font-size="13" lengthAdjust="spacing" textLength="169" x="115.5" y="1101.27">reject before OCI mutation</text><polygon fill="#334155" points="1073.5,1138.4688,1083.5,1142.4688,1073.5,1146.4688,1077.5,1142.4688" style="stroke:#334155;stroke-width:1.0;"/><line style="stroke:#334155;stroke-width:1.0;" x1="362.5" x2="1079.5" y1="1142.4688" y2="1142.4688"/><text fill="#000000" font-family="sans-serif" font-size="13" font-weight="bold" lengthAdjust="spacing" textLength="18" x="369.5" y="1137.4028">16</text><text fill="#000000" font-family="sans-serif" font-size="13" lengthAdjust="spacing" textLength="344" x="391.5" y="1137.4028">Validate immutable fields before any mutable update.</text><polygon fill="#334155" points="1073.5,1167.6016,1083.5,1171.6016,1073.5,1175.6016,1077.5,1171.6016" style="stroke:#334155;stroke-width:1.0;"/><line style="stroke:#334155;stroke-width:1.0;" x1="362.5" x2="1079.5" y1="1171.6016" y2="1171.6016"/><text fill="#000000" font-family="sans-serif" font-size="13" font-weight="bold" lengthAdjust="spacing" textLength="18" x="369.5" y="1166.5356">17</text><text fill="#000000" font-family="sans-serif" font-size="13" lengthAdjust="spacing" textLength="677" x="391.5" y="1166.5356">Move the PostgreSQL DB system compartment before supported updates when compartment drift exists.</text><polygon fill="#334155" points="1073.5,1196.7344,1083.5,1200.7344,1073.5,1204.7344,1077.5,1200.7344" style="stroke:#334155;stroke-width:1.0;"/><line style="stroke:#334155;stroke-width:1.0;" x1="362.5" x2="1079.5" y1="1200.7344" y2="1200.7344"/><text fill="#000000" font-family="sans-serif" font-size="13" font-weight="bold" lengthAdjust="spacing" textLength="18" x="369.5" y="1195.6685">18</text><text fill="#000000" font-family="sans-serif" font-size="13" lengthAdjust="spacing" textLength="639" x="391.5" y="1195.6685">Publish the primary endpoint and port through the connection Secret after a usable active reconcile.</text><path d="M288.5,1215.7344 L358.5,1215.7344 L358.5,1222.8672 L348.5,1232.8672 L288.5,1232.8672 L288.5,1215.7344 " fill="#F8FAFC" style="stroke:#475569;stroke-width:1.5;"/><rect fill="none" height="46.2656" style="stroke:#475569;stroke-width:1.5;" width="825" x="288.5" y="1215.7344"/><text fill="#000000" font-family="sans-serif" font-size="13" font-weight="bold" lengthAdjust="spacing" textLength="25" x="303.5" y="1228.8013">opt</text><text fill="#000000" font-family="sans-serif" font-size="11" font-weight="bold" lengthAdjust="spacing" textLength="258" x="373.5" y="1227.9448">[supported drift or collection diff exists]</text><polygon fill="#334155" points="1073.5,1250,1083.5,1254,1073.5,1258,1077.5,1254" style="stroke:#334155;stroke-width:1.0;"/><line style="stroke:#334155;stroke-width:1.0;" x1="362.5" x2="1079.5" y1="1254" y2="1254"/><text fill="#000000" font-family="sans-serif" font-size="13" font-weight="bold" lengthAdjust="spacing" textLength="18" x="369.5" y="1248.9341">19</text><text fill="#000000" font-family="sans-serif" font-size="13" lengthAdjust="spacing" textLength="277" x="391.5" y="1248.9341">apply the supported in-place mutation path</text><polygon fill="#334155" points="1157.5,1286.1328,1167.5,1290.1328,1157.5,1294.1328,1161.5,1290.1328" style="stroke:#334155;stroke-width:1.0;"/><line style="stroke:#334155;stroke-width:1.0;" x1="362.5" x2="1163.5" y1="1290.1328" y2="1290.1328"/><text fill="#000000" font-family="sans-serif" font-size="13" font-weight="bold" lengthAdjust="spacing" textLength="18" x="369.5" y="1285.0669">20</text><text fill="#000000" font-family="sans-serif" font-size="13" lengthAdjust="spacing" textLength="351" x="391.5" y="1285.0669">upsert the owned Secret for the usable active resource</text><path d="M30,1305.1328 L94,1305.1328 L94,1312.2656 L84,1322.2656 L30,1322.2656 L30,1305.1328 " fill="#F8FAFC" style="stroke:#475569;stroke-width:1.5;"/><rect fill="none" height="46.2656" style="stroke:#475569;stroke-width:1.5;" width="406.5" x="30" y="1305.1328"/><text fill="#000000" font-family="sans-serif" font-size="13" font-weight="bold" lengthAdjust="spacing" textLength="19" x="45" y="1318.1997">alt</text><text fill="#000000" font-family="sans-serif" font-size="11" font-weight="bold" lengthAdjust="spacing" textLength="116" x="109" y="1317.3433">[Secret sync fails]</text><polygon fill="#334155" points="87.5,1339.3984,77.5,1343.3984,87.5,1347.3984,83.5,1343.3984" style="stroke:#334155;stroke-width:1.0;"/><line style="stroke:#334155;stroke-width:1.0;stroke-dasharray:2.0,2.0;" x1="81.5" x2="361.5" y1="1343.3984" y2="1343.3984"/><text fill="#000000" font-family="sans-serif" font-size="13" font-weight="bold" lengthAdjust="spacing" textLength="18" x="93.5" y="1338.3325">21</text><text fill="#000000" font-family="sans-serif" font-size="13" lengthAdjust="spacing" textLength="150" x="115.5" y="1338.3325">block success and retry</text><polygon fill="#334155" points="87.5,1382.5313,77.5,1386.5313,87.5,1390.5313,83.5,1386.5313" style="stroke:#334155;stroke-width:1.0;"/><line style="stroke:#334155;stroke-width:1.0;stroke-dasharray:2.0,2.0;" x1="81.5" x2="361.5" y1="1386.5313" y2="1386.5313"/><text fill="#000000" font-family="sans-serif" font-size="13" font-weight="bold" lengthAdjust="spacing" textLength="18" x="93.5" y="1381.4653">22</text><text fill="#000000" font-family="sans-serif" font-size="13" lengthAdjust="spacing" textLength="169" x="115.5" y="1381.4653">successful active reconcile</text><path d="M51,1406.5313 L51,1506.5313 L1109,1506.5313 L1109,1416.5313 L1099,1406.5313 L51,1406.5313 " fill="#FEFFDD" style="stroke:#181818;stroke-width:0.5;"/><path d="M1099,1406.5313 L1099,1416.5313 L1109,1416.5313 L1099,1406.5313 " fill="#FEFFDD" style="stroke:#181818;stroke-width:0.5;"/><text fill="#000000" font-family="sans-serif" font-size="13" lengthAdjust="spacing" textLength="105" x="57" y="1423.5981">Boundary notes:</text><text fill="#000000" font-family="sans-serif" font-size="13" lengthAdjust="spacing" textLength="407" x="57" y="1438.731">- Managed and name-resolved reconciles currently do not enter</text><text fill="#000000" font-family="sans-serif" font-size="13" lengthAdjust="spacing" textLength="461" x="73" y="1453.8638">UpdatePostgresDbSystem, so mutable updates are effectively bound-ID</text><text fill="#000000" font-family="sans-serif" font-size="13" lengthAdjust="spacing" textLength="30" x="73" y="1468.9966">only.</text><text fill="#000000" font-family="sans-serif" font-size="13" lengthAdjust="spacing" textLength="108" x="57" y="1484.1294">Sequence notes:</text><text fill="#000000" font-family="sans-serif" font-size="13" lengthAdjust="spacing" textLength="419" x="57" y="1499.2622">- Secret generation publishes the primary endpoint and port view.</text><!--SRC=[bLTjK-Cs4FxkNx53lruor_9o71yw4m9Xc8Cx2jVxBjlhH4MMN4c6SplzxzsLPCS99Dmn0vbeLy_kFliclFGAuSuulxJeuE8S7ZhdiOPxB8mk90aVyEyMTO6PQBtHRPsZpToZr8smeWQt4gLvbde9bL0EHv9pKJmkhMbrEJVAMFXb4Nv66ZDhpNCI7XuU_NfyF1AMM8bM-Q_utS-KNEeQjGU5bHyRJwx1lnd0dR1U5h8HshyqVRgOBUPRIiQMQ9F2qOVZuvEFf70ZAxoH6ZUa7uzcX-UdO-cEs02kwBHv7JgAThesAxonByINxnU_BIu7yHZu_UB3oSbbzbycM0G7SwEzDKgXFG3XOFqrQzPHmy43sYT9dDqABPP9DvsbewmKNkJ28HnycLy71VeSdNvggGWqUggOsLrK-7Jgicnj4YQ_Ru6UWHrAgaGdBPRW6Yn0w1AKV49mNlZMPPlN68Ym-ROeONwVjCAjIcgXv3-an8UOPSnS0pV6FD87Q-HIbyITK1wy9Mh99Z65tnj5T7YEweA43DtHgNJUaJR0InT8ymoMI30hXAArbgkHEiQqbgZCEtZKvbc3BEbSLf8u143g1z0cMf4ESauhTEZtsL3an03i6BcKhb6Y0org33Svck0iTztWGyNeGVuQTg2mGUiOdcFWU-g9-8ZUwPvzljux_hD6GW05iUansA3lmzKVzom2lEvOCCv_-JTZ8afKL8TaXYO13IwMnogu289zLBishsCH99HzobJQbRHrr9H6mxFqAxX2Vv6dYTbIvjN0RQ2BagwDZwnDiptnHsV3PIeZ2lu1YGOFelAajVOGYkY6O1UcGpLit2aK2aq4kBOe44ktdtcBjNcAbeTsMXV15cGbfDg5Hu3hzcTSBoXv6xYX9KbWk-riiYsEClGnqnQqHAuu9szQejItiGHugho2ndx7rYSwQtRdRTXM1mATgrerN1lDC4eohQTNZD4qvcd6iROkXP1AqihAmueaYhegSF3Pq2LAWDrovnqFt4HqspJ6SaUqJSasN6ihKU1Paa_w2V6v7n3X35rXPSDrCfnL5h4oLCHUBDr8an94wAF3U_mB2myvQoFKBOSsCfT_utQb7YWveE6SdW8DRf-rEUs9wtBxc1OMXVcrUt51QYAILlgSUiRla7qfcdQV_9PgsdRN-khSRMc8ajB84oRCQShdManroCqQ6JID3mNGCq-L8slc8LV9OSvqIHrPn9dpGnqn9fLB9X3R9mZJODqnVxvH2uNih_sWDQDArmCAtK4lYOKotOTtstTzUliz_773hpyNPrbXQdupX3TNmdTRPUZWUOLwGpCI4_VeNkDtRKvxRXNiDrRMmdOSVsCaeN3Zi2MIKjSienPrdIRskEWsHgD8FTPttT2Vqo6FQyUZVvJBWbCIqKfPLUFLlzDdqJIg2xwi0QMUKECLE6GI6k5NRwGpZDssSMZzou5VyOoYm-seHakK1txITfqkVcOevyeKZv3csivf_2RCQ31kqnuNytgghQ-bYNREkv3ppRtcUAXCqakq30xnAsSoF4u6NDS_kYW7fGbRbRwaLGNmPoZ9_j-OVYM_0sUsUeAYfbh6giBWEA65Lzda-Y8X6QswQQ0W_MinyZEnlaIDDgKx5ZB1xY_b9udFqsmOCVy3]--></g></svg>