<?xml version="1.0" encoding="UTF-8" standalone="no"?><svg xmlns="http://www.w3.org/2000/svg" xmlns:xlink="http://www.w3.org/1999/xlink" contentStyleType="text/css" height="544px" preserveAspectRatio="none" style="width:2673px;height:544px;background:#FFFFFF;" version="1.1" viewBox="0 0 2673 544" width="2673px" zoomAndPan="magnify"><defs/><g><text fill="#000000" font-family="sans-serif" font-size="14" font-weight="bold" lengthAdjust="spacing" textLength="357" x="1151.435" y="22.9951">Postgres DB System Reconcile State Machine</text><ellipse cx="16" cy="391.7969" fill="#222222" rx="10" ry="10" style="stroke:none;stroke-width:1.0;"/><g id="Observe"><rect fill="#F8FAFC" height="50.2656" rx="6" ry="6" style="stroke:#475569;stroke-width:0.5;" width="329" x="86" y="366.7969"/><line style="stroke:#475569;stroke-width:0.5;" x1="86" x2="415" y1="393.0938" y2="393.0938"/><text fill="#0F172A" font-family="sans-serif" font-size="14" lengthAdjust="spacing" textLength="58" x="221.5" y="384.792">Observe</text><text fill="#0F172A" font-family="sans-serif" font-size="12" lengthAdjust="spacing" textLength="309" x="91" y="409.2324">read spec, status, delete intent, and OCI lifecycle</text></g><rect fill="#F8FAFC" height="40" rx="6" ry="6" style="stroke:#475569;stroke-width:0.5;" width="122" x="475" y="371.7969"/><text fill="#0F172A" font-family="sans-serif" font-size="14" lengthAdjust="spacing" textLength="112" x="480" y="396.6436">ResolveByName</text><rect fill="#F8FAFC" height="40" rx="6" ry="6" style="stroke:#475569;stroke-width:0.5;" width="111" x="657" y="278.7969"/><text fill="#0F172A" font-family="sans-serif" font-size="14" lengthAdjust="spacing" textLength="101" x="662" y="303.6436">EvaluateReady</text><rect fill="#F8FAFC" height="40" rx="6" ry="6" style="stroke:#475569;stroke-width:0.5;" width="75" x="1072" y="371.7969"/><text fill="#0F172A" font-family="sans-serif" font-size="14" lengthAdjust="spacing" textLength="65" x="1077" y="396.6436">Retryable</text><rect fill="#F8FAFC" height="40" rx="6" ry="6" style="stroke:#475569;stroke-width:0.5;" width="50" x="1237" y="457.7969"/><text fill="#0F172A" font-family="sans-serif" font-size="14" lengthAdjust="spacing" textLength="40" x="1242" y="482.6436">Failed</text><rect fill="#F8FAFC" height="40" rx="6" ry="6" style="stroke:#475569;stroke-width:0.5;" width="173" x="828" y="203.7969"/><text fill="#0F172A" font-family="sans-serif" font-size="14" lengthAdjust="spacing" textLength="163" x="833" y="228.6436">RejectUnsupportedDrift</text><rect fill="#F8FAFC" height="40" rx="6" ry="6" style="stroke:#475569;stroke-width:0.5;" width="53" x="1395" y="203.7969"/><text fill="#0F172A" font-family="sans-serif" font-size="14" lengthAdjust="spacing" textLength="43" x="1400" y="228.6436">Ready</text><rect fill="#F8FAFC" height="40" rx="6" ry="6" style="stroke:#475569;stroke-width:0.5;" width="142" x="843.5" y="278.7969"/><text fill="#0F172A" font-family="sans-serif" font-size="14" lengthAdjust="spacing" textLength="132" x="848.5" y="303.6436">MoveCompartment</text><rect fill="#F8FAFC" height="40" rx="6" ry="6" style="stroke:#475569;stroke-width:0.5;" width="97" x="1061" y="278.7969"/><text fill="#0F172A" font-family="sans-serif" font-size="14" lengthAdjust="spacing" textLength="87" x="1066" y="303.6436">ApplyUpdate</text><rect fill="#F8FAFC" height="40" rx="6" ry="6" style="stroke:#475569;stroke-width:0.5;" width="88" x="1218" y="278.7969"/><text fill="#0F172A" font-family="sans-serif" font-size="14" lengthAdjust="spacing" textLength="78" x="1223" y="303.6436">SyncSecret</text><rect fill="#F8FAFC" height="40" rx="6" ry="6" style="stroke:#475569;stroke-width:0.5;" width="111" x="1366" y="278.7969"/><text fill="#0F172A" font-family="sans-serif" font-size="14" lengthAdjust="spacing" textLength="101" x="1371" y="303.6436">SecretBlocked</text><rect fill="#F8FAFC" height="40" rx="6" ry="6" style="stroke:#475569;stroke-width:0.5;" width="113" x="1683.5" y="391.7969"/><text fill="#0F172A" font-family="sans-serif" font-size="14" lengthAdjust="spacing" textLength="103" x="1688.5" y="416.6436">DeletePending</text><rect fill="#F8FAFC" height="40" rx="6" ry="6" style="stroke:#475569;stroke-width:0.5;" width="169" x="2112.5" y="330.7969"/><text fill="#0F172A" font-family="sans-serif" font-size="14" lengthAdjust="spacing" textLength="159" x="2117.5" y="355.6436">DeleteCleanupBlocked</text><rect fill="#F8FAFC" height="40" rx="6" ry="6" style="stroke:#475569;stroke-width:0.5;" width="65" x="2451" y="330.7969"/><text fill="#0F172A" font-family="sans-serif" font-size="14" lengthAdjust="spacing" textLength="55" x="2456" y="355.6436">Deleted</text><g id="elem_GMN39"><path d="M1537,49.2969 L1537,219.7969 L1448.11,223.7969 L1537,227.7969 L1537,349.9531 A6,6 0 0 0 1543,355.9531 L1937,355.9531 A6,6 0 0 0 1943,349.9531 L1943,53.2969 L1933,43.2969 L1543,43.2969 A6,6 0 0 0 1537,49.2969 " fill="#FFF7ED" style="stroke:#181818;stroke-width:0.5;"/><path d="M1933,43.2969 L1933,50.2969 A3,3 0 0 0 1936,53.2969 L1943,53.2969 L1933,43.2969 " fill="#FFF7ED" style="stroke:#181818;stroke-width:0.5;"/><text fill="#0F172A" font-family="sans-serif" font-size="13" lengthAdjust="spacing" textLength="69" x="1543" y="60.3638">Archetype:</text><text fill="#0F172A" font-family="sans-serif" font-size="13" lengthAdjust="spacing" textLength="183" x="1543" y="75.4966">- resolved-drift-delete-secret</text><text fill="#0F172A" font-family="sans-serif" font-size="13" lengthAdjust="spacing" textLength="102" x="1543" y="90.6294">Update surface:</text><text fill="#0F172A" font-family="sans-serif" font-size="13" lengthAdjust="spacing" textLength="92" x="1543" y="105.7622">- displayName</text><text fill="#0F172A" font-family="sans-serif" font-size="13" lengthAdjust="spacing" textLength="79" x="1543" y="120.895">- description</text><text fill="#0F172A" font-family="sans-serif" font-size="13" lengthAdjust="spacing" textLength="96" x="1543" y="136.0278">- freeform tags</text><text fill="#0F172A" font-family="sans-serif" font-size="13" lengthAdjust="spacing" textLength="88" x="1543" y="151.1606">- defined tags</text><text fill="#0F172A" font-family="sans-serif" font-size="13" lengthAdjust="spacing" textLength="139" x="1543" y="166.2935">Reject before mutate:</text><text fill="#0F172A" font-family="sans-serif" font-size="13" lengthAdjust="spacing" textLength="102" x="1543" y="181.4263">- dbVersion drift</text><text fill="#0F172A" font-family="sans-serif" font-size="13" lengthAdjust="spacing" textLength="77" x="1543" y="196.5591">- shape drift</text><text fill="#0F172A" font-family="sans-serif" font-size="13" lengthAdjust="spacing" textLength="93" x="1543" y="211.6919">- subnetId drift</text><text fill="#0F172A" font-family="sans-serif" font-size="13" lengthAdjust="spacing" textLength="117" x="1543" y="226.8247">- storageType drift</text><text fill="#0F172A" font-family="sans-serif" font-size="13" lengthAdjust="spacing" textLength="130" x="1543" y="241.9575">- instanceCount drift</text><text fill="#0F172A" font-family="sans-serif" font-size="13" lengthAdjust="spacing" textLength="163" x="1543" y="257.0903">- instanceOcpuCount drift</text><text fill="#0F172A" font-family="sans-serif" font-size="13" lengthAdjust="spacing" textLength="181" x="1543" y="272.2231">- instanceMemoryInGBs drift</text><text fill="#0F172A" font-family="sans-serif" font-size="13" lengthAdjust="spacing" textLength="145" x="1543" y="287.356">- admin credential drift</text><text fill="#0F172A" font-family="sans-serif" font-size="13" lengthAdjust="spacing" textLength="105" x="1543" y="302.4888">Boundary notes:</text><text fill="#0F172A" font-family="sans-serif" font-size="13" lengthAdjust="spacing" textLength="369" x="1543" y="317.6216">- Managed and name-resolved reconciles currently do not</text><text fill="#0F172A" font-family="sans-serif" font-size="13" lengthAdjust="spacing" textLength="369" x="1559" y="332.7544">enter UpdatePostgresDbSystem, so mutable updates are</text><text fill="#0F172A" font-family="sans-serif" font-size="13" lengthAdjust="spacing" textLength="160" x="1559" y="347.8872">effectively bound-ID only.</text></g><g id="elem_GMN42"><path d="M2003,412.2969 L2003,415.0469 L1796.96,419.0469 L2003,423.0469 L2003,531.3594 A6,6 0 0 0 2009,537.3594 L2385,537.3594 A6,6 0 0 0 2391,531.3594 L2391,416.2969 L2381,406.2969 L2009,406.2969 A6,6 0 0 0 2003,412.2969 " fill="#FFF7ED" style="stroke:#181818;stroke-width:0.5;"/><path d="M2381,406.2969 L2381,413.2969 A3,3 0 0 0 2384,416.2969 L2391,416.2969 L2381,406.2969 " fill="#FFF7ED" style="stroke:#181818;stroke-width:0.5;"/><text fill="#0F172A" font-family="sans-serif" font-size="13" lengthAdjust="spacing" textLength="90" x="2009" y="423.3638">Delete states:</text><text fill="#0F172A" font-family="sans-serif" font-size="13" lengthAdjust="spacing" textLength="102" x="2009" y="438.4966">- DeletePending</text><text fill="#0F172A" font-family="sans-serif" font-size="13" lengthAdjust="spacing" textLength="153" x="2009" y="453.6294">- DeleteCleanupBlocked</text><text fill="#0F172A" font-family="sans-serif" font-size="13" lengthAdjust="spacing" textLength="59" x="2009" y="468.7622">- Deleted</text><text fill="#0F172A" font-family="sans-serif" font-size="13" lengthAdjust="spacing" textLength="103" x="2009" y="483.895">Delete workflow:</text><text fill="#0F172A" font-family="sans-serif" font-size="13" lengthAdjust="spacing" textLength="367" x="2009" y="499.0278">- Confirm deletion with GetDbSystem until the resource is</text><text fill="#0F172A" font-family="sans-serif" font-size="13" lengthAdjust="spacing" textLength="65" x="2025" y="514.1606">not found.</text><text fill="#0F172A" font-family="sans-serif" font-size="13" lengthAdjust="spacing" textLength="359" x="2009" y="529.2935">- Delete the owned Secret after OCI delete confirmation.</text></g><!--link *start to Observe--><g id="link_*start_Observe"><path d="M26.08,391.7969 C26.08,391.7969 80.84,391.7969 80.84,391.7969 " fill="none" id="*start-to-Observe" style="stroke:#181818;stroke-width:1.0;"/><polygon fill="#181818" points="85.84,391.7969,76.84,387.7969,80.84,391.7969,76.84,395.7969,85.84,391.7969" style="stroke:#181818;stroke-width:1.0;"/></g><!--link Observe to ResolveByName--><g id="link_Observe_ResolveByName"><path d="M415.34,391.7969 C415.34,391.7969 469.86,391.7969 469.86,391.7969 " fill="none" id="Observe-to-ResolveByName" style="stroke:#181818;stroke-width:1.0;"/><polygon fill="#181818" points="474.86,391.7969,465.86,387.7969,469.86,391.7969,465.86,395.7969,474.86,391.7969" style="stroke:#181818;stroke-width:1.0;"/><text fill="#000000" font-family="sans-serif" font-size="13" lengthAdjust="spacing" textLength="163" x="443.6" y="404.8638">status/spec OCID missing</text></g><!--link ResolveByName to EvaluateReady--><g id="link_ResolveByName_EvaluateReady"><path d="M597.41,391.7969 C648.53,391.7969 713,391.7969 713,391.7969 C713,391.7969 713,323.9769 713,323.9769 " fill="none" id="ResolveByName-to-EvaluateReady" style="stroke:#181818;stroke-width:1.0;"/><polygon fill="#181818" points="713,318.9769,709,327.9769,713,323.9769,717,327.9769,713,318.9769" style="stroke:#181818;stroke-width:1.0;"/><text fill="#000000" font-family="sans-serif" font-size="13" lengthAdjust="spacing" textLength="123" x="690.11" y="404.8638">OCI state in ACTIVE</text></g><!--link ResolveByName to Retryable--><g id="link_ResolveByName_Retryable"><path d="M597.1,401.7969 C597.1,401.7969 1066.75,401.7969 1066.75,401.7969 " fill="none" id="ResolveByName-to-Retryable" style="stroke:#181818;stroke-width:1.0;"/><polygon fill="#181818" points="1071.75,401.7969,1062.75,397.7969,1066.75,401.7969,1062.75,405.7969,1071.75,401.7969" style="stroke:#181818;stroke-width:1.0;"/><text fill="#000000" font-family="sans-serif" font-size="13" lengthAdjust="spacing" textLength="217" x="832.93" y="414.8638">OCI state in CREATING, UPDATING</text></g><!--link ResolveByName to Failed--><g id="link_ResolveByName_Failed"><path d="M536,411.9069 C536,439.1569 536,484.4669 536,484.4669 C536,484.4669 1231.59,484.4669 1231.59,484.4669 " fill="none" id="ResolveByName-to-Failed" style="stroke:#181818;stroke-width:1.0;"/><polygon fill="#181818" points="1236.59,484.4669,1227.59,480.4669,1231.59,484.4669,1227.59,488.4669,1236.59,484.4669" style="stroke:#181818;stroke-width:1.0;"/><text fill="#000000" font-family="sans-serif" font-size="13" lengthAdjust="spacing" textLength="188" x="658.51" y="497.5338">OCI state in FAILED, DELETED</text></g><!--link EvaluateReady to RejectUnsupportedDrift--><g id="link_EvaluateReady_RejectUnsupportedDrift"><path d="M768.11,292.1269 C800.89,292.1269 836,292.1269 836,292.1269 C836,292.1269 836,248.9269 836,248.9269 " fill="none" id="EvaluateReady-to-RejectUnsupportedDrift" style="stroke:#181818;stroke-width:1.0;"/><polygon fill="#181818" points="836,243.9269,832,252.9269,836,248.9269,840,252.9269,836,243.9269" style="stroke:#181818;stroke-width:1.0;"/><text fill="#000000" font-family="sans-serif" font-size="13" lengthAdjust="spacing" textLength="275" x="547.65" y="288.1938">unsupported or immutable drift is detected</text></g><!--link RejectUnsupportedDrift to Ready--><g id="link_RejectUnsupportedDrift_Ready"><path d="M1001.08,213.7969 C1001.08,213.7969 1389.85,213.7969 1389.85,213.7969 " fill="none" id="RejectUnsupportedDrift-to-Ready" style="stroke:#181818;stroke-width:1.0;"/><polygon fill="#181818" points="1394.85,213.7969,1385.85,209.7969,1389.85,213.7969,1385.85,217.7969,1394.85,213.7969" style="stroke:#181818;stroke-width:1.0;"/><text fill="#000000" font-family="sans-serif" font-size="13" lengthAdjust="spacing" textLength="252" x="1196.46" y="209.8638">wait for the spec or live state to change</text></g><!--link EvaluateReady to MoveCompartment--><g id="link_EvaluateReady_MoveCompartment"><path d="M768.23,305.4669 C768.23,305.4669 838.4,305.4669 838.4,305.4669 " fill="none" id="EvaluateReady-to-MoveCompartment" style="stroke:#181818;stroke-width:1.0;"/><polygon fill="#181818" points="843.4,305.4669,834.4,301.4669,838.4,305.4669,834.4,309.4669,843.4,305.4669" style="stroke:#181818;stroke-width:1.0;"/><text fill="#000000" font-family="sans-serif" font-size="13" lengthAdjust="spacing" textLength="158" x="644.32" y="318.5338">continue active reconcile</text></g><!--link MoveCompartment to ApplyUpdate--><g id="link_MoveCompartment_ApplyUpdate"><path d="M985.73,298.7969 C985.73,298.7969 1055.99,298.7969 1055.99,298.7969 " fill="none" id="MoveCompartment-to-ApplyUpdate" style="stroke:#181818;stroke-width:1.0;"/><polygon fill="#181818" points="1060.99,298.7969,1051.99,294.7969,1055.99,298.7969,1051.99,302.7969,1060.99,298.7969" style="stroke:#181818;stroke-width:1.0;"/><text fill="#000000" font-family="sans-serif" font-size="13" lengthAdjust="spacing" textLength="221" x="1021.86" y="311.8638">continue after compartment move</text></g><!--link ApplyUpdate to SyncSecret--><g id="link_ApplyUpdate_SyncSecret"><path d="M1158.17,298.7969 C1158.17,298.7969 1212.92,298.7969 1212.92,298.7969 " fill="none" id="ApplyUpdate-to-SyncSecret" style="stroke:#181818;stroke-width:1.0;"/><polygon fill="#181818" points="1217.92,298.7969,1208.92,294.7969,1212.92,298.7969,1208.92,302.7969,1217.92,298.7969" style="stroke:#181818;stroke-width:1.0;"/><text fill="#000000" font-family="sans-serif" font-size="13" lengthAdjust="spacing" textLength="231" x="1186.55" y="294.8638">supported mutation path completes</text></g><!--link SyncSecret to SecretBlocked--><g id="link_SyncSecret_SecretBlocked"><path d="M1306.01,305.4669 C1306.01,305.4669 1360.94,305.4669 1360.94,305.4669 " fill="none" id="SyncSecret-to-SecretBlocked" style="stroke:#181818;stroke-width:1.0;"/><polygon fill="#181818" points="1365.94,305.4669,1356.94,301.4669,1360.94,305.4669,1356.94,309.4669,1365.94,305.4669" style="stroke:#181818;stroke-width:1.0;"/><text fill="#000000" font-family="sans-serif" font-size="13" lengthAdjust="spacing" textLength="105" x="1334.48" y="318.5338">Secret write fails</text></g><!--link SecretBlocked to SyncSecret--><g id="link_SecretBlocked_SyncSecret"><path d="M1365.71,292.1269 C1365.71,292.1269 1311.2,292.1269 1311.2,292.1269 " fill="none" id="SecretBlocked-to-SyncSecret" style="stroke:#181818;stroke-width:1.0;"/><polygon fill="#181818" points="1306.2,292.1269,1315.2,296.1269,1311.2,292.1269,1315.2,288.1269,1306.2,292.1269" style="stroke:#181818;stroke-width:1.0;"/><text fill="#000000" font-family="sans-serif" font-size="13" lengthAdjust="spacing" textLength="109" x="1228.46" y="288.1938">retry Secret sync</text></g><!--link SyncSecret to Ready--><g id="link_SyncSecret_Ready"><path d="M1262,278.6969 C1262,256.4869 1262,223.7969 1262,223.7969 C1262,223.7969 1389.8,223.7969 1389.8,223.7969 " fill="none" id="SyncSecret-to-Ready" style="stroke:#181818;stroke-width:1.0;"/><polygon fill="#181818" points="1394.8,223.7969,1385.8,219.7969,1389.8,223.7969,1385.8,227.7969,1394.8,223.7969" style="stroke:#181818;stroke-width:1.0;"/><text fill="#000000" font-family="sans-serif" font-size="13" lengthAdjust="spacing" textLength="176" x="1121.45" y="236.8638">Secret side effects succeed</text></g><!--link Ready to Ready--><g id="link_Ready_Ready"><path d="M1394.71,233.7969 C1387.18,233.7969 1381,233.7969 1381,233.7969 C1381,233.7969 1381,261.2969 1381,261.2969 C1381,261.2969 1463,261.2969 1463,261.2969 C1463,261.2969 1463,213.7969 1463,213.7969 C1463,213.7969 1453.02,213.7969 1453.02,213.7969 " fill="none" id="Ready-to-Ready" style="stroke:#181818;stroke-width:1.0;"/><polygon fill="#181818" points="1448.02,213.7969,1457.02,217.7969,1453.02,213.7969,1457.02,209.7969,1448.02,213.7969" style="stroke:#181818;stroke-width:1.0;"/><text fill="#000000" font-family="sans-serif" font-size="13" lengthAdjust="spacing" textLength="170" x="1254.14" y="252.3638">no supported drift remains</text></g><!--link Retryable to Retryable--><g id="link_Retryable_Retryable"><path d="M1071.88,381.7969 C1068.89,381.7969 1067,381.7969 1067,381.7969 C1067,381.7969 1067,359.7969 1067,359.7969 C1067,359.7969 1153,359.7969 1153,359.7969 C1153,359.7969 1153,378.4669 1153,378.4669 C1153,378.4669 1152.31,378.4669 1152.31,378.4669 " fill="none" id="Retryable-to-Retryable" style="stroke:#181818;stroke-width:1.0;"/><polygon fill="#181818" points="1147.31,378.4669,1156.31,382.4669,1152.31,378.4669,1156.31,374.4669,1147.31,378.4669" style="stroke:#181818;stroke-width:1.0;"/><text fill="#000000" font-family="sans-serif" font-size="13" lengthAdjust="spacing" textLength="159" x="941.24" y="350.8638">OCI remains nonterminal</text></g><!--link Failed to Failed--><g id="link_Failed_Failed"><path d="M1236.93,471.1269 C1231.84,471.1269 1228,471.1269 1228,471.1269 C1228,471.1269 1228,444.7969 1228,444.7969 C1228,444.7969 1297,444.7969 1297,444.7969 C1297,444.7969 1297,477.7969 1297,477.7969 C1297,477.7969 1292.06,477.7969 1292.06,477.7969 " fill="none" id="Failed-to-Failed" style="stroke:#181818;stroke-width:1.0;"/><polygon fill="#181818" points="1287.06,477.7969,1296.06,481.7969,1292.06,477.7969,1296.06,473.7969,1287.06,477.7969" style="stroke:#181818;stroke-width:1.0;"/><text fill="#000000" font-family="sans-serif" font-size="13" lengthAdjust="spacing" textLength="135" x="1122.83" y="435.8638">OCI remains terminal</text></g><!--link Ready to DeletePending--><g id="link_Ready_DeletePending"><path d="M1448.08,233.7969 C1473.18,233.7969 1507,233.7969 1507,233.7969 C1507,233.7969 1507,398.4669 1507,398.4669 C1507,398.4669 1678.3,398.4669 1678.3,398.4669 " fill="none" id="Ready-to-DeletePending" style="stroke:#181818;stroke-width:1.0;"/><polygon fill="#181818" points="1683.3,398.4669,1674.3,394.4669,1678.3,398.4669,1674.3,402.4669,1683.3,398.4669" style="stroke:#181818;stroke-width:1.0;"/><text fill="#000000" font-family="sans-serif" font-size="13" lengthAdjust="spacing" textLength="109" x="1397" y="385.3938">delete requested</text></g><!--link Retryable to DeletePending--><g id="link_Retryable_DeletePending"><path d="M1147.05,405.1269 C1147.05,405.1269 1678.47,405.1269 1678.47,405.1269 " fill="none" id="Retryable-to-DeletePending" style="stroke:#181818;stroke-width:1.0;"/><polygon fill="#181818" points="1683.47,405.1269,1674.47,401.1269,1678.47,405.1269,1674.47,409.1269,1683.47,405.1269" style="stroke:#181818;stroke-width:1.0;"/><text fill="#000000" font-family="sans-serif" font-size="13" lengthAdjust="spacing" textLength="109" x="1302.76" y="418.1938">delete requested</text></g><!--link Failed to DeletePending--><g id="link_Failed_DeletePending"><path d="M1262,457.5669 C1262,442.4169 1262,424.2969 1262,424.2969 C1262,424.2969 1678.29,424.2969 1678.29,424.2969 " fill="none" id="Failed-to-DeletePending" style="stroke:#181818;stroke-width:1.0;"/><polygon fill="#181818" points="1683.29,424.2969,1674.29,420.2969,1678.29,424.2969,1674.29,428.2969,1683.29,424.2969" style="stroke:#181818;stroke-width:1.0;"/><text fill="#000000" font-family="sans-serif" font-size="13" lengthAdjust="spacing" textLength="109" x="1343.51" y="437.3638">delete requested</text></g><!--link DeletePending to DeleteCleanupBlocked--><g id="link_DeletePending_DeleteCleanupBlocked"><path d="M1740,391.7869 C1740,378.4269 1740,363.2969 1740,363.2969 C1740,363.2969 2107.38,363.2969 2107.38,363.2969 " fill="none" id="DeletePending-to-DeleteCleanupBlocked" style="stroke:#181818;stroke-width:1.0;"/><polygon fill="#181818" points="2112.38,363.2969,2103.38,359.2969,2107.38,363.2969,2103.38,367.2969,2112.38,363.2969" style="stroke:#181818;stroke-width:1.0;"/><text fill="#000000" font-family="sans-serif" font-size="13" lengthAdjust="spacing" textLength="274" x="1634.44" y="376.3638">owned Secret cleanup fails after OCI delete</text></g><!--link DeleteCleanupBlocked to Deleted--><g id="link_DeleteCleanupBlocked_Deleted"><path d="M2281.8,344.1269 C2281.8,344.1269 2445.94,344.1269 2445.94,344.1269 " fill="none" id="DeleteCleanupBlocked-to-Deleted" style="stroke:#181818;stroke-width:1.0;"/><polygon fill="#181818" points="2450.94,344.1269,2441.94,340.1269,2445.94,344.1269,2441.94,348.1269,2450.94,344.1269" style="stroke:#181818;stroke-width:1.0;"/><text fill="#000000" font-family="sans-serif" font-size="13" lengthAdjust="spacing" textLength="301" x="2364.87" y="340.1938">retry Secret cleanup until completion is allowed</text></g><!--link Deleted to Deleted--><g id="link_Deleted_Deleted"><path d="M2450.79,357.4669 C2435.66,357.4669 2421,357.4669 2421,357.4669 C2421,357.4669 2421,385.1269 2421,385.1269 C2421,385.1269 2534,385.1269 2534,385.1269 C2534,385.1269 2534,350.7969 2534,350.7969 C2534,350.7969 2521.05,350.7969 2521.05,350.7969 " fill="none" id="Deleted-to-Deleted" style="stroke:#181818;stroke-width:1.0;"/><polygon fill="#181818" points="2516.05,350.7969,2525.05,354.7969,2521.05,350.7969,2525.05,346.7969,2516.05,350.7969" style="stroke:#181818;stroke-width:1.0;"/><text fill="#000000" font-family="sans-serif" font-size="13" lengthAdjust="spacing" textLength="100" x="2478.41" y="403.1938">terminal stutter</text></g><!--SRC=[XLPBRnit4BxlhnYWjq2R9cbSDpeKqDCG4CU6BESIz42Hin9hBhabkLOMHVvxX-IkToLl4LzaSMQ-UNqp8o-zGhWtpXyiEbZEuQ5n7alO8ZUQIn8-UEOHRXa_IesPmiA3Ds3buUX1I8lSIwEpenG8M5Q-0O6EMrd5P_SaTSKiAy4TcJ0dgGzGCELm8564wviAmLX_D0E1DRKMt5YD5jv_60ZcZ3yTedHXbB7moph-3JG45gnMVeVV_Kp9WovHUmYn3oEAYVsR0SoD5MXRh8_NLrU_VwBNjT6-VNktVd_zOHOqNtd-OprRBx8V0rnjnc3d7wz-U_Tf56AzlbujHnt-oBwz-Glo_4-uspkqpvYrdp05Yqo0gv1FOYQrcr3M2ictr9xIdG3J0kuM6ofmWRpXghSEY5jqHZtZlFd2oe2NG7uDYC5g2QLqZlgLdIi6qzKpKpKLRqiXD6GQdAHgIWspnMxpTJLYjKLl6xPNU6cnsAvckysNcmaytY_ZVoFMQqPa59UcwzdcysevWUNgysf7HJoFB7dzcoZwg5rTLKGm54ihYS9JgFidOXx8ignzZ4v41Uced9vCKMJ_Wv7WKmbEJ7ee2CSVCNObO2f9jKwnqiZm8zC770dnrZpZmfJ47XzvEWMQFIzrZS1ekWZ3TjEONUe6-rbLgUQn4i7FqBRmD3Xye5oISJRK3jOFZUOFo2q6ntr9GZN224F5_36Y16wvRA0UhUE_SsNuK-nEApfPIV05zOmipbHUkRI15fsT8ycbYwx4dKhSD0LHsZkAbtEC7UhxdRIr6IIJMcgnP5Axh2VY62rRBGAWCRAbr4nbBVbUyR3JVL7iurZ6MRn7BSBEctQpQV6V6bqYrJ2AdweFGlYfxhb2Rx9Go7HTzTqo9qsVRM5vagQkjUm9IIRuR1IYnnQNhUpWQgAZwWWK24MJnPGofvT0Bs6wQjBer9w-P5bSgUdac2ArE9jPVentOvhbv3dk2v77JkSfvDp5IBAMxAws1UDHNKXNAHQNI_WsE5Wv51QH1ha4pmukIWiPgXI_faq0-w21QKOIuFuhMXUoYm7G2zsx2ljlzPwEt4Rq3zvOTi1TCr0Y9dccESqtrUpLwnslwd79BPR6DXjzCtSlCYQeX43f2nfyIRLCWdcuEuoQ52hgGkItJ5CS8XuBJVN8krBsIyS1hwqb74N7tGHJEbO06EO3Kd6xNn3BVVhzG3V9GBTGwwX2NRUO3EFmqbuZl7q8AAThOxHgtcOOeg3GBbj-nkYMDccpnYJEnVaetL-UEzh1oTYdWeWO41P65zAMYUoXZoT9Q-y6VPTHo-EmtaE5Qilf0BcO3uLAgv_oUFlY8-gTJTVbF8Kz7Jp69Jj8_3y0]--></g></svg>