<?xml version="1.0" encoding="UTF-8" standalone="no"?><svg xmlns="http://www.w3.org/2000/svg" xmlns:xlink="http://www.w3.org/1999/xlink" contentStyleType="text/css" height="1572px" preserveAspectRatio="none" style="width:1917px;height:1572px;background:#FFFFFF;" version="1.1" viewBox="0 0 1917 1572" width="1917px" zoomAndPan="magnify"><defs/><g><text fill="#000000" font-family="sans-serif" font-size="14" font-weight="bold" lengthAdjust="spacing" textLength="286" x="814.125" y="32.9951">MySQL DB System Reconcile Activity</text><ellipse cx="759.75" cy="57.2969" fill="#0F766E" rx="10" ry="10" style="stroke:#222222;stroke-width:1.0;"/><rect fill="none" height="254.2031" style="stroke:#000000;stroke-width:1.5;" width="686" x="437.25" y="77.2969"/><path d="M570.25,77.2969 L570.25,86.5938 L560.25,96.5938 L437.25,96.5938 " fill="none" style="stroke:#000000;stroke-width:1.5;"/><text fill="#000000" font-family="sans-serif" font-size="14" lengthAdjust="spacing" textLength="123" x="440.25" y="91.292">Observe and Bind</text><rect fill="#F8FAFC" height="33.9688" rx="12.5" ry="12.5" style="stroke:#475569;stroke-width:0.5;" width="304" x="607.75" y="113.5938"/><text fill="#0F172A" font-family="sans-serif" font-size="12" lengthAdjust="spacing" textLength="284" x="617.75" y="134.7324">Read CR spec, status OCID, and delete intent</text><polygon fill="#E2E8F0" points="659.75,167.5625,859.75,167.5625,871.75,179.5625,859.75,191.5625,659.75,191.5625,647.75,179.5625,659.75,167.5625" style="stroke:#475569;stroke-width:0.5;"/><text fill="#0F172A" font-family="sans-serif" font-size="11" lengthAdjust="spacing" textLength="200" x="659.75" y="183.3706">"Tracked or explicit OCID present?"</text><text fill="#000000" font-family="sans-serif" font-size="11" lengthAdjust="spacing" textLength="20" x="627.75" y="176.9683">yes</text><text fill="#000000" font-family="sans-serif" font-size="11" lengthAdjust="spacing" textLength="14" x="871.75" y="176.9683">no</text><rect fill="#F8FAFC" height="33.9688" rx="12.5" ry="12.5" style="stroke:#475569;stroke-width:0.5;" width="272" x="457.25" y="201.5625"/><text fill="#0F172A" font-family="sans-serif" font-size="12" lengthAdjust="spacing" textLength="252" x="467.25" y="222.7012">Get the OCI resource by known identifier</text><rect fill="#F8FAFC" height="33.9688" rx="12.5" ry="12.5" style="stroke:#475569;stroke-width:0.5;" width="328" x="762.25" y="201.5625"/><text fill="#0F172A" font-family="sans-serif" font-size="12" lengthAdjust="spacing" textLength="308" x="772.25" y="222.7012">Resolve an existing OCI resource by display name</text><rect fill="#F8FAFC" height="33.9688" rx="12.5" ry="12.5" style="stroke:#475569;stroke-width:0.5;" width="354" x="749.25" y="255.5313"/><text fill="#0F172A" font-family="sans-serif" font-size="12" lengthAdjust="spacing" textLength="334" x="759.25" y="276.6699">Persist the resolved or created OCID back into status</text><polygon fill="#E2E8F0" points="759.75,295.5,771.75,307.5,759.75,319.5,747.75,307.5,759.75,295.5" style="stroke:#475569;stroke-width:0.5;"/><path d="M1515.25,698.1055 L1515.25,1252.8867 L1905.25,1252.8867 L1905.25,708.1055 L1895.25,698.1055 L1515.25,698.1055 " fill="#FEFFDD" style="stroke:#181818;stroke-width:0.5;"/><path d="M1895.25,698.1055 L1895.25,708.1055 L1905.25,708.1055 L1895.25,698.1055 " fill="#FEFFDD" style="stroke:#181818;stroke-width:0.5;"/><text fill="#000000" font-family="sans-serif" font-size="13" lengthAdjust="spacing" textLength="69" x="1521.25" y="715.1724">Archetype:</text><text fill="#000000" font-family="sans-serif" font-size="13" lengthAdjust="spacing" textLength="183" x="1521.25" y="730.3052">- resolved-drift-delete-secret</text><text fill="#000000" font-family="sans-serif" font-size="13" lengthAdjust="spacing" textLength="134" x="1521.25" y="745.438">Retryable OCI states:</text><text fill="#000000" font-family="sans-serif" font-size="13" lengthAdjust="spacing" textLength="73" x="1521.25" y="760.5708">- CREATING</text><text fill="#000000" font-family="sans-serif" font-size="13" lengthAdjust="spacing" textLength="76" x="1521.25" y="775.7036">- UPDATING</text><text fill="#000000" font-family="sans-serif" font-size="13" lengthAdjust="spacing" textLength="67" x="1521.25" y="790.8364">- INACTIVE</text><text fill="#000000" font-family="sans-serif" font-size="13" lengthAdjust="spacing" textLength="171" x="1521.25" y="805.9692">- TRANSIENT_READ_ERROR</text><text fill="#000000" font-family="sans-serif" font-size="13" lengthAdjust="spacing" textLength="113" x="1521.25" y="821.1021">Active OCI states:</text><text fill="#000000" font-family="sans-serif" font-size="13" lengthAdjust="spacing" textLength="54" x="1521.25" y="836.2349">- ACTIVE</text><text fill="#000000" font-family="sans-serif" font-size="13" lengthAdjust="spacing" textLength="111" x="1521.25" y="851.3677">Failed OCI states:</text><text fill="#000000" font-family="sans-serif" font-size="13" lengthAdjust="spacing" textLength="53" x="1521.25" y="866.5005">- FAILED</text><text fill="#000000" font-family="sans-serif" font-size="13" lengthAdjust="spacing" textLength="72" x="1521.25" y="881.6333">- DELETING</text><text fill="#000000" font-family="sans-serif" font-size="13" lengthAdjust="spacing" textLength="67" x="1521.25" y="896.7661">- DELETED</text><text fill="#000000" font-family="sans-serif" font-size="13" lengthAdjust="spacing" textLength="102" x="1521.25" y="911.8989">Update surface:</text><text fill="#000000" font-family="sans-serif" font-size="13" lengthAdjust="spacing" textLength="92" x="1521.25" y="927.0317">- displayName</text><text fill="#000000" font-family="sans-serif" font-size="13" lengthAdjust="spacing" textLength="79" x="1521.25" y="942.1646">- description</text><text fill="#000000" font-family="sans-serif" font-size="13" lengthAdjust="spacing" textLength="92" x="1521.25" y="957.2974">- configuration</text><text fill="#000000" font-family="sans-serif" font-size="13" lengthAdjust="spacing" textLength="48" x="1521.25" y="972.4302">- shape</text><text fill="#000000" font-family="sans-serif" font-size="13" lengthAdjust="spacing" textLength="138" x="1521.25" y="987.563">- data storage growth</text><text fill="#000000" font-family="sans-serif" font-size="13" lengthAdjust="spacing" textLength="108" x="1521.25" y="1002.6958">- hostnameLabel</text><text fill="#000000" font-family="sans-serif" font-size="13" lengthAdjust="spacing" textLength="106" x="1521.25" y="1017.8286">- high availability</text><text fill="#000000" font-family="sans-serif" font-size="13" lengthAdjust="spacing" textLength="95" x="1521.25" y="1032.9614">- backup policy</text><text fill="#000000" font-family="sans-serif" font-size="13" lengthAdjust="spacing" textLength="142" x="1521.25" y="1048.0942">- maintenance window</text><text fill="#000000" font-family="sans-serif" font-size="13" lengthAdjust="spacing" textLength="96" x="1521.25" y="1063.2271">- freeform tags</text><text fill="#000000" font-family="sans-serif" font-size="13" lengthAdjust="spacing" textLength="88" x="1521.25" y="1078.3599">- defined tags</text><text fill="#000000" font-family="sans-serif" font-size="13" lengthAdjust="spacing" textLength="139" x="1521.25" y="1093.4927">Reject before mutate:</text><text fill="#000000" font-family="sans-serif" font-size="13" lengthAdjust="spacing" textLength="295" x="1521.25" y="1108.6255">- compartmentId drift in the current code path</text><text fill="#000000" font-family="sans-serif" font-size="13" lengthAdjust="spacing" textLength="234" x="1521.25" y="1123.7583">- immutable network-placement drift</text><text fill="#000000" font-family="sans-serif" font-size="13" lengthAdjust="spacing" textLength="219" x="1521.25" y="1138.8911">- immutable admin-credential drift</text><text fill="#000000" font-family="sans-serif" font-size="13" lengthAdjust="spacing" textLength="221" x="1521.25" y="1154.0239">- immutable source or version drift</text><text fill="#000000" font-family="sans-serif" font-size="13" lengthAdjust="spacing" textLength="105" x="1521.25" y="1169.1567">Boundary notes:</text><text fill="#000000" font-family="sans-serif" font-size="13" lengthAdjust="spacing" textLength="369" x="1521.25" y="1184.2896">- Managed and name-resolved reconciles currently do not</text><text fill="#000000" font-family="sans-serif" font-size="13" lengthAdjust="spacing" textLength="302" x="1537.25" y="1199.4224">enter the update path, so mutable updates are</text><text fill="#000000" font-family="sans-serif" font-size="13" lengthAdjust="spacing" textLength="160" x="1537.25" y="1214.5552">effectively bound-ID only.</text><text fill="#000000" font-family="sans-serif" font-size="13" lengthAdjust="spacing" textLength="364" x="1521.25" y="1229.688">- The formal secret-delete profile is stronger than current</text><text fill="#000000" font-family="sans-serif" font-size="13" lengthAdjust="spacing" textLength="303" x="1537.25" y="1244.8208">code because Secret cleanup is still best-effort.</text><polygon fill="#E2E8F0" points="702.75,351.5,816.75,351.5,828.75,363.5,816.75,375.5,702.75,375.5,690.75,363.5,702.75,351.5" style="stroke:#475569;stroke-width:0.5;"/><text fill="#0F172A" font-family="sans-serif" font-size="11" lengthAdjust="spacing" textLength="114" x="702.75" y="367.3081">"Delete requested?"</text><text fill="#000000" font-family="sans-serif" font-size="11" lengthAdjust="spacing" textLength="20" x="670.75" y="360.9058">yes</text><text fill="#000000" font-family="sans-serif" font-size="11" lengthAdjust="spacing" textLength="14" x="828.75" y="360.9058">no</text><rect fill="none" height="417.2734" style="stroke:#000000;stroke-width:1.5;" width="767.25" x="11" y="385.5"/><path d="M67,385.5 L67,394.7969 L57,404.7969 L11,404.7969 " fill="none" style="stroke:#000000;stroke-width:1.5;"/><text fill="#000000" font-family="sans-serif" font-size="14" lengthAdjust="spacing" textLength="46" x="14" y="399.4951">Delete</text><rect fill="#F8FAFC" height="33.9688" rx="12.5" ry="12.5" style="stroke:#475569;stroke-width:0.5;" width="265" x="251.5" y="421.7969"/><text fill="#0F172A" font-family="sans-serif" font-size="12" lengthAdjust="spacing" textLength="245" x="261.5" y="442.9355">Submit OCI delete for MySQL DB System</text><rect fill="#F8FAFC" height="33.9688" rx="12.5" ry="12.5" style="stroke:#475569;stroke-width:0.5;" width="509" x="129.5" y="490.7656"/><text fill="#0F172A" font-family="sans-serif" font-size="12" lengthAdjust="spacing" textLength="489" x="139.5" y="511.9043">Look for an existing delete work request before submitting a duplicate delete.</text><rect fill="#F8FAFC" height="33.9688" rx="12.5" ry="12.5" style="stroke:#475569;stroke-width:0.5;" width="722" x="23" y="559.7344"/><text fill="#0F172A" font-family="sans-serif" font-size="12" lengthAdjust="spacing" textLength="702" x="33" y="580.873">Wait for the matching DB system delete work request to succeed, or treat GetDbSystem not-found as complete.</text><rect fill="#F8FAFC" height="33.9688" rx="12.5" ry="12.5" style="stroke:#475569;stroke-width:0.5;" width="386" x="191" y="615.8359"/><text fill="#0F172A" font-family="sans-serif" font-size="12" lengthAdjust="spacing" textLength="366" x="201" y="636.9746">Attempt Secret cleanup only after OCI delete confirmation.</text><polygon fill="#E2E8F0" points="283,684.8047,485,684.8047,497,696.8047,485,708.8047,283,708.8047,271,696.8047,283,684.8047" style="stroke:#475569;stroke-width:0.5;"/><text fill="#0F172A" font-family="sans-serif" font-size="11" lengthAdjust="spacing" textLength="202" x="283" y="700.6128">"Owned Secret cleanup succeeds?"</text><text fill="#000000" font-family="sans-serif" font-size="11" lengthAdjust="spacing" textLength="20" x="251" y="694.2104">yes</text><text fill="#000000" font-family="sans-serif" font-size="11" lengthAdjust="spacing" textLength="14" x="497" y="694.2104">no</text><rect fill="#F8FAFC" height="33.9688" rx="12.5" ry="12.5" style="stroke:#475569;stroke-width:0.5;" width="338" x="27.25" y="718.8047"/><text fill="#0F172A" font-family="sans-serif" font-size="12" lengthAdjust="spacing" textLength="318" x="37.25" y="739.9434">Remove the finalizer after OCI deletion is confirmed</text><rect fill="#F8FAFC" height="33.9688" rx="12.5" ry="12.5" style="stroke:#475569;stroke-width:0.5;" width="373" x="385.25" y="718.8047"/><text fill="#0F172A" font-family="sans-serif" font-size="12" lengthAdjust="spacing" textLength="353" x="395.25" y="739.9434">Stay blocked until Secret cleanup succeeds or is absent</text><polygon fill="#E2E8F0" points="384,758.7734,396,770.7734,384,782.7734,372,770.7734,384,758.7734" style="stroke:#475569;stroke-width:0.5;"/><ellipse cx="384" cy="848.7734" fill="none" rx="11" ry="11" style="stroke:#222222;stroke-width:1.0;"/><ellipse cx="384" cy="848.7734" fill="#222222" rx="6" ry="6" style="stroke:#111111;stroke-width:1.0;"/><rect fill="none" height="417.9766" style="stroke:#000000;stroke-width:1.5;" width="376" x="953.5" y="385.5"/><path d="M1114.5,385.5 L1114.5,394.7969 L1104.5,404.7969 L953.5,404.7969 " fill="none" style="stroke:#000000;stroke-width:1.5;"/><text fill="#000000" font-family="sans-serif" font-size="14" lengthAdjust="spacing" textLength="151" x="956.5" y="399.4951">Lifecycle Classification</text><rect fill="#F8FAFC" height="33.9688" rx="12.5" ry="12.5" style="stroke:#475569;stroke-width:0.5;" width="268" x="1001.5" y="470.1992"/><text fill="#0F172A" font-family="sans-serif" font-size="12" lengthAdjust="spacing" textLength="248" x="1011.5" y="491.3379">Request requeue and keep the finalizer</text><ellipse cx="1135.5" cy="550.168" fill="none" rx="11" ry="11" style="stroke:#222222;stroke-width:1.0;"/><ellipse cx="1135.5" cy="550.168" fill="#222222" rx="6" ry="6" style="stroke:#111111;stroke-width:1.0;"/><polygon fill="#E2E8F0" points="1055.5,421.7969,1215.5,421.7969,1227.5,433.7969,1215.5,445.7969,1055.5,445.7969,1043.5,433.7969,1055.5,421.7969" style="stroke:#475569;stroke-width:0.5;"/><text fill="#000000" font-family="sans-serif" font-size="11" lengthAdjust="spacing" textLength="20" x="1139.5" y="456.0073">yes</text><text fill="#0F172A" font-family="sans-serif" font-size="11" lengthAdjust="spacing" textLength="160" x="1055.5" y="437.605">"OCI state in retryable set?"</text><rect fill="#F8FAFC" height="33.9688" rx="12.5" ry="12.5" style="stroke:#475569;stroke-width:0.5;" width="324" x="973.5" y="662.1055"/><text fill="#0F172A" font-family="sans-serif" font-size="12" lengthAdjust="spacing" textLength="304" x="983.5" y="683.2441">Return an unsuccessful terminal reconcile result</text><ellipse cx="1135.5" cy="742.0742" fill="none" rx="11" ry="11" style="stroke:#222222;stroke-width:1.0;"/><ellipse cx="1135.5" cy="742.0742" fill="#222222" rx="6" ry="6" style="stroke:#111111;stroke-width:1.0;"/><polygon fill="#E2E8F0" points="1065.5,613.7031,1205.5,613.7031,1217.5,625.7031,1205.5,637.7031,1065.5,637.7031,1053.5,625.7031,1065.5,613.7031" style="stroke:#475569;stroke-width:0.5;"/><text fill="#000000" font-family="sans-serif" font-size="11" lengthAdjust="spacing" textLength="20" x="1139.5" y="647.9136">yes</text><text fill="#0F172A" font-family="sans-serif" font-size="11" lengthAdjust="spacing" textLength="140" x="1065.5" y="629.5112">"OCI state in failed set?"</text><rect fill="none" height="716.3164" style="stroke:#000000;stroke-width:1.5;" width="707" x="798.25" y="838.4766"/><path d="M977.25,838.4766 L977.25,847.7734 L967.25,857.7734 L798.25,857.7734 " fill="none" style="stroke:#000000;stroke-width:1.5;"/><text fill="#000000" font-family="sans-serif" font-size="14" lengthAdjust="spacing" textLength="169" x="801.25" y="852.4717">Ready and Drift Handling</text><rect fill="#F8FAFC" height="33.9688" rx="12.5" ry="12.5" style="stroke:#475569;stroke-width:0.5;" width="364" x="953.5" y="874.7734"/><text fill="#0F172A" font-family="sans-serif" font-size="12" lengthAdjust="spacing" textLength="344" x="963.5" y="895.9121">Compare live OCI state with the supported drift surface</text><rect fill="#F8FAFC" height="33.9688" rx="12.5" ry="12.5" style="stroke:#475569;stroke-width:0.5;" width="290" x="990.5" y="992.1445"/><text fill="#0F172A" font-family="sans-serif" font-size="12" lengthAdjust="spacing" textLength="270" x="1000.5" y="1013.2832">Reject the change before any OCI mutation</text><ellipse cx="1135.5" cy="1072.1133" fill="none" rx="11" ry="11" style="stroke:#222222;stroke-width:1.0;"/><ellipse cx="1135.5" cy="1072.1133" fill="#222222" rx="6" ry="6" style="stroke:#111111;stroke-width:1.0;"/><polygon fill="#E2E8F0" points="1011,943.7422,1260,943.7422,1272,955.7422,1260,967.7422,1011,967.7422,999,955.7422,1011,943.7422" style="stroke:#475569;stroke-width:0.5;"/><text fill="#000000" font-family="sans-serif" font-size="11" lengthAdjust="spacing" textLength="20" x="1139.5" y="977.9526">yes</text><text fill="#0F172A" font-family="sans-serif" font-size="11" lengthAdjust="spacing" textLength="249" x="1011" y="959.5503">"Unsupported or immutable drift detected?"</text><rect fill="#F8FAFC" height="33.9688" rx="12.5" ry="12.5" style="stroke:#475569;stroke-width:0.5;" width="385" x="943" y="1148.5156"/><text fill="#0F172A" font-family="sans-serif" font-size="12" lengthAdjust="spacing" textLength="365" x="953" y="1169.6543">Treat transient OCI read failures as retryable and requeue</text><rect fill="#F8FAFC" height="33.9688" rx="12.5" ry="12.5" style="stroke:#475569;stroke-width:0.5;" width="519" x="876" y="1217.4844"/><text fill="#0F172A" font-family="sans-serif" font-size="12" lengthAdjust="spacing" textLength="499" x="886" y="1238.623">Turn transient 429 and 5xx OCI read failures into controller-managed requeues.</text><rect fill="#F8FAFC" height="33.9688" rx="12.5" ry="12.5" style="stroke:#475569;stroke-width:0.5;" width="356" x="957.5" y="1272.8867"/><text fill="#0F172A" font-family="sans-serif" font-size="12" lengthAdjust="spacing" textLength="336" x="967.5" y="1294.0254">Validate immutable fields before any mutable update.</text><polygon fill="#E2E8F0" points="1058,1326.8555,1213,1326.8555,1225,1338.8555,1213,1350.8555,1058,1350.8555,1046,1338.8555,1058,1326.8555" style="stroke:#475569;stroke-width:0.5;"/><text fill="#0F172A" font-family="sans-serif" font-size="11" lengthAdjust="spacing" textLength="155" x="1058" y="1342.6636">"Supported drift detected?"</text><text fill="#000000" font-family="sans-serif" font-size="11" lengthAdjust="spacing" textLength="20" x="1026" y="1336.2612">yes</text><text fill="#000000" font-family="sans-serif" font-size="11" lengthAdjust="spacing" textLength="14" x="1225" y="1336.2612">no</text><rect fill="#F8FAFC" height="33.9688" rx="12.5" ry="12.5" style="stroke:#475569;stroke-width:0.5;" width="329" x="827.75" y="1360.8555"/><text fill="#0F172A" font-family="sans-serif" font-size="12" lengthAdjust="spacing" textLength="309" x="837.75" y="1381.9941">Apply only the supported in-place update surface</text><rect fill="#F8FAFC" height="33.9688" rx="12.5" ry="12.5" style="stroke:#475569;stroke-width:0.5;" width="204" x="1176.75" y="1360.8555"/><text fill="#0F172A" font-family="sans-serif" font-size="12" lengthAdjust="spacing" textLength="184" x="1186.75" y="1381.9941">Skip the no-op mutation path</text><polygon fill="#E2E8F0" points="1135.5,1400.8242,1147.5,1412.8242,1135.5,1424.8242,1123.5,1412.8242,1135.5,1400.8242" style="stroke:#475569;stroke-width:0.5;"/><polygon fill="#E2E8F0" points="1065,1444.8242,1206,1444.8242,1218,1456.8242,1206,1468.8242,1065,1468.8242,1053,1456.8242,1065,1444.8242" style="stroke:#475569;stroke-width:0.5;"/><text fill="#0F172A" font-family="sans-serif" font-size="11" lengthAdjust="spacing" textLength="141" x="1065" y="1460.6323">"Secret sync succeeds?"</text><text fill="#000000" font-family="sans-serif" font-size="11" lengthAdjust="spacing" textLength="20" x="1033" y="1454.23">yes</text><text fill="#000000" font-family="sans-serif" font-size="11" lengthAdjust="spacing" textLength="14" x="1218" y="1454.23">no</text><rect fill="#F8FAFC" height="33.9688" rx="12.5" ry="12.5" style="stroke:#475569;stroke-width:0.5;" width="287" x="818.25" y="1478.8242"/><text fill="#0F172A" font-family="sans-serif" font-size="12" lengthAdjust="spacing" textLength="267" x="828.25" y="1499.9629">Return success for the usable active state</text><rect fill="#F8FAFC" height="33.9688" rx="12.5" ry="12.5" style="stroke:#475569;stroke-width:0.5;" width="368" x="1125.25" y="1478.8242"/><text fill="#0F172A" font-family="sans-serif" font-size="12" lengthAdjust="spacing" textLength="348" x="1135.25" y="1499.9629">Block successful completion until Secret sync succeeds</text><polygon fill="#E2E8F0" points="1135.5,1518.793,1147.5,1530.793,1135.5,1542.793,1123.5,1530.793,1135.5,1518.793" style="stroke:#475569;stroke-width:0.5;"/><line style="stroke:#334155;stroke-width:1.0;" x1="926.25" x2="926.25" y1="235.5313" y2="255.5313"/><polygon fill="#334155" points="922.25,245.5313,926.25,255.5313,930.25,245.5313,926.25,249.5313" style="stroke:#334155;stroke-width:1.0;"/><line style="stroke:#334155;stroke-width:1.0;" x1="647.75" x2="593.25" y1="179.5625" y2="179.5625"/><line style="stroke:#334155;stroke-width:1.0;" x1="593.25" x2="593.25" y1="179.5625" y2="201.5625"/><polygon fill="#334155" points="589.25,191.5625,593.25,201.5625,597.25,191.5625,593.25,195.5625" style="stroke:#334155;stroke-width:1.0;"/><line style="stroke:#334155;stroke-width:1.0;" x1="871.75" x2="926.25" y1="179.5625" y2="179.5625"/><line style="stroke:#334155;stroke-width:1.0;" x1="926.25" x2="926.25" y1="179.5625" y2="201.5625"/><polygon fill="#334155" points="922.25,191.5625,926.25,201.5625,930.25,191.5625,926.25,195.5625" style="stroke:#334155;stroke-width:1.0;"/><line style="stroke:#334155;stroke-width:1.0;" x1="593.25" x2="593.25" y1="235.5313" y2="307.5"/><line style="stroke:#334155;stroke-width:1.0;" x1="593.25" x2="747.75" y1="307.5" y2="307.5"/><polygon fill="#334155" points="737.75,303.5,747.75,307.5,737.75,311.5,741.75,307.5" style="stroke:#334155;stroke-width:1.0;"/><line style="stroke:#334155;stroke-width:1.0;" x1="926.25" x2="926.25" y1="289.5" y2="307.5"/><line style="stroke:#334155;stroke-width:1.0;" x1="926.25" x2="771.75" y1="307.5" y2="307.5"/><polygon fill="#334155" points="781.75,303.5,771.75,307.5,781.75,311.5,777.75,307.5" style="stroke:#334155;stroke-width:1.0;"/><line style="stroke:#334155;stroke-width:1.0;" x1="759.75" x2="759.75" y1="147.5625" y2="167.5625"/><polygon fill="#334155" points="755.75,157.5625,759.75,167.5625,763.75,157.5625,759.75,161.5625" style="stroke:#334155;stroke-width:1.0;"/><line style="stroke:#334155;stroke-width:1.0;" x1="759.75" x2="759.75" y1="67.2969" y2="113.5938"/><polygon fill="#334155" points="755.75,103.5938,759.75,113.5938,763.75,103.5938,759.75,107.5938" style="stroke:#334155;stroke-width:1.0;"/><line style="stroke:#334155;stroke-width:1.0;" x1="384" x2="384" y1="455.7656" y2="490.7656"/><polygon fill="#334155" points="380,480.7656,384,490.7656,388,480.7656,384,484.7656" style="stroke:#334155;stroke-width:1.0;"/><line style="stroke:#334155;stroke-width:1.0;" x1="384" x2="384" y1="524.7344" y2="559.7344"/><polygon fill="#334155" points="380,549.7344,384,559.7344,388,549.7344,384,553.7344" style="stroke:#334155;stroke-width:1.0;"/><line style="stroke:#334155;stroke-width:1.0;" x1="384" x2="384" y1="593.7031" y2="615.8359"/><polygon fill="#334155" points="380,605.8359,384,615.8359,388,605.8359,384,609.8359" style="stroke:#334155;stroke-width:1.0;"/><line style="stroke:#334155;stroke-width:1.0;" x1="271" x2="196.25" y1="696.8047" y2="696.8047"/><line style="stroke:#334155;stroke-width:1.0;" x1="196.25" x2="196.25" y1="696.8047" y2="718.8047"/><polygon fill="#334155" points="192.25,708.8047,196.25,718.8047,200.25,708.8047,196.25,712.8047" style="stroke:#334155;stroke-width:1.0;"/><line style="stroke:#334155;stroke-width:1.0;" x1="497" x2="571.75" y1="696.8047" y2="696.8047"/><line style="stroke:#334155;stroke-width:1.0;" x1="571.75" x2="571.75" y1="696.8047" y2="718.8047"/><polygon fill="#334155" points="567.75,708.8047,571.75,718.8047,575.75,708.8047,571.75,712.8047" style="stroke:#334155;stroke-width:1.0;"/><line style="stroke:#334155;stroke-width:1.0;" x1="196.25" x2="196.25" y1="752.7734" y2="770.7734"/><line style="stroke:#334155;stroke-width:1.0;" x1="196.25" x2="372" y1="770.7734" y2="770.7734"/><polygon fill="#334155" points="362,766.7734,372,770.7734,362,774.7734,366,770.7734" style="stroke:#334155;stroke-width:1.0;"/><line style="stroke:#334155;stroke-width:1.0;" x1="571.75" x2="571.75" y1="752.7734" y2="770.7734"/><line style="stroke:#334155;stroke-width:1.0;" x1="571.75" x2="396" y1="770.7734" y2="770.7734"/><polygon fill="#334155" points="406,766.7734,396,770.7734,406,774.7734,402,770.7734" style="stroke:#334155;stroke-width:1.0;"/><line style="stroke:#334155;stroke-width:1.0;" x1="384" x2="384" y1="649.8047" y2="684.8047"/><polygon fill="#334155" points="380,674.8047,384,684.8047,388,674.8047,384,678.8047" style="stroke:#334155;stroke-width:1.0;"/><line style="stroke:#334155;stroke-width:1.0;" x1="384" x2="384" y1="782.7734" y2="837.7734"/><polygon fill="#334155" points="380,827.7734,384,837.7734,388,827.7734,384,831.7734" style="stroke:#334155;stroke-width:1.0;"/><line style="stroke:#334155;stroke-width:1.0;" x1="1135.5" x2="1135.5" y1="504.168" y2="539.168"/><polygon fill="#334155" points="1131.5,529.168,1135.5,539.168,1139.5,529.168,1135.5,533.168" style="stroke:#334155;stroke-width:1.0;"/><line style="stroke:#334155;stroke-width:1.0;" x1="1135.5" x2="1135.5" y1="445.7969" y2="470.1992"/><polygon fill="#334155" points="1131.5,460.1992,1135.5,470.1992,1139.5,460.1992,1135.5,464.1992" style="stroke:#334155;stroke-width:1.0;"/><line style="stroke:#334155;stroke-width:1.0;" x1="1227.5" x2="1279.5" y1="433.7969" y2="433.7969"/><polygon fill="#334155" points="1275.5,502.6836,1279.5,512.6836,1283.5,502.6836,1279.5,506.6836" style="stroke:#334155;stroke-width:1.0;"/><line style="stroke:#334155;stroke-width:1.0;" x1="1279.5" x2="1279.5" y1="433.7969" y2="591.5703"/><line style="stroke:#334155;stroke-width:1.0;" x1="1279.5" x2="1135.5" y1="591.5703" y2="591.5703"/><line style="stroke:#334155;stroke-width:1.0;" x1="1135.5" x2="1135.5" y1="591.5703" y2="613.7031"/><polygon fill="#334155" points="1131.5,603.7031,1135.5,613.7031,1139.5,603.7031,1135.5,607.7031" style="stroke:#334155;stroke-width:1.0;"/><line style="stroke:#334155;stroke-width:1.0;" x1="1135.5" x2="1135.5" y1="696.0742" y2="731.0742"/><polygon fill="#334155" points="1131.5,721.0742,1135.5,731.0742,1139.5,721.0742,1135.5,725.0742" style="stroke:#334155;stroke-width:1.0;"/><line style="stroke:#334155;stroke-width:1.0;" x1="1135.5" x2="1135.5" y1="637.7031" y2="662.1055"/><polygon fill="#334155" points="1131.5,652.1055,1135.5,662.1055,1139.5,652.1055,1135.5,656.1055" style="stroke:#334155;stroke-width:1.0;"/><line style="stroke:#334155;stroke-width:1.0;" x1="1217.5" x2="1307.5" y1="625.7031" y2="625.7031"/><polygon fill="#334155" points="1303.5,694.5898,1307.5,704.5898,1311.5,694.5898,1307.5,698.5898" style="stroke:#334155;stroke-width:1.0;"/><line style="stroke:#334155;stroke-width:1.0;" x1="1307.5" x2="1307.5" y1="625.7031" y2="783.4766"/><line style="stroke:#334155;stroke-width:1.0;" x1="1307.5" x2="1135.5" y1="783.4766" y2="783.4766"/><line style="stroke:#334155;stroke-width:1.0;" x1="1135.5" x2="1135.5" y1="783.4766" y2="874.7734"/><polygon fill="#334155" points="1131.5,864.7734,1135.5,874.7734,1139.5,864.7734,1135.5,868.7734" style="stroke:#334155;stroke-width:1.0;"/><line style="stroke:#334155;stroke-width:1.0;" x1="1135.5" x2="1135.5" y1="1026.1133" y2="1061.1133"/><polygon fill="#334155" points="1131.5,1051.1133,1135.5,1061.1133,1139.5,1051.1133,1135.5,1055.1133" style="stroke:#334155;stroke-width:1.0;"/><line style="stroke:#334155;stroke-width:1.0;" x1="1135.5" x2="1135.5" y1="967.7422" y2="992.1445"/><polygon fill="#334155" points="1131.5,982.1445,1135.5,992.1445,1139.5,982.1445,1135.5,986.1445" style="stroke:#334155;stroke-width:1.0;"/><line style="stroke:#334155;stroke-width:1.0;" x1="1272" x2="1290.5" y1="955.7422" y2="955.7422"/><polygon fill="#334155" points="1286.5,1024.6289,1290.5,1034.6289,1294.5,1024.6289,1290.5,1028.6289" style="stroke:#334155;stroke-width:1.0;"/><line style="stroke:#334155;stroke-width:1.0;" x1="1290.5" x2="1290.5" y1="955.7422" y2="1113.5156"/><line style="stroke:#334155;stroke-width:1.0;" x1="1290.5" x2="1135.5" y1="1113.5156" y2="1113.5156"/><line style="stroke:#334155;stroke-width:1.0;" x1="1135.5" x2="1135.5" y1="1113.5156" y2="1148.5156"/><polygon fill="#334155" points="1131.5,1138.5156,1135.5,1148.5156,1139.5,1138.5156,1135.5,1142.5156" style="stroke:#334155;stroke-width:1.0;"/><line style="stroke:#334155;stroke-width:1.0;" x1="1135.5" x2="1135.5" y1="908.7422" y2="943.7422"/><polygon fill="#334155" points="1131.5,933.7422,1135.5,943.7422,1139.5,933.7422,1135.5,937.7422" style="stroke:#334155;stroke-width:1.0;"/><line style="stroke:#334155;stroke-width:1.0;" x1="1135.5" x2="1135.5" y1="1182.4844" y2="1217.4844"/><polygon fill="#334155" points="1131.5,1207.4844,1135.5,1217.4844,1139.5,1207.4844,1135.5,1211.4844" style="stroke:#334155;stroke-width:1.0;"/><line style="stroke:#334155;stroke-width:1.0;" x1="1135.5" x2="1135.5" y1="1251.4531" y2="1272.8867"/><polygon fill="#334155" points="1131.5,1262.8867,1135.5,1272.8867,1139.5,1262.8867,1135.5,1266.8867" style="stroke:#334155;stroke-width:1.0;"/><line style="stroke:#334155;stroke-width:1.0;" x1="1046" x2="992.25" y1="1338.8555" y2="1338.8555"/><line style="stroke:#334155;stroke-width:1.0;" x1="992.25" x2="992.25" y1="1338.8555" y2="1360.8555"/><polygon fill="#334155" points="988.25,1350.8555,992.25,1360.8555,996.25,1350.8555,992.25,1354.8555" style="stroke:#334155;stroke-width:1.0;"/><line style="stroke:#334155;stroke-width:1.0;" x1="1225" x2="1278.75" y1="1338.8555" y2="1338.8555"/><line style="stroke:#334155;stroke-width:1.0;" x1="1278.75" x2="1278.75" y1="1338.8555" y2="1360.8555"/><polygon fill="#334155" points="1274.75,1350.8555,1278.75,1360.8555,1282.75,1350.8555,1278.75,1354.8555" style="stroke:#334155;stroke-width:1.0;"/><line style="stroke:#334155;stroke-width:1.0;" x1="992.25" x2="992.25" y1="1394.8242" y2="1412.8242"/><line style="stroke:#334155;stroke-width:1.0;" x1="992.25" x2="1123.5" y1="1412.8242" y2="1412.8242"/><polygon fill="#334155" points="1113.5,1408.8242,1123.5,1412.8242,1113.5,1416.8242,1117.5,1412.8242" style="stroke:#334155;stroke-width:1.0;"/><line style="stroke:#334155;stroke-width:1.0;" x1="1278.75" x2="1278.75" y1="1394.8242" y2="1412.8242"/><line style="stroke:#334155;stroke-width:1.0;" x1="1278.75" x2="1147.5" y1="1412.8242" y2="1412.8242"/><polygon fill="#334155" points="1157.5,1408.8242,1147.5,1412.8242,1157.5,1416.8242,1153.5,1412.8242" style="stroke:#334155;stroke-width:1.0;"/><line style="stroke:#334155;stroke-width:1.0;" x1="1135.5" x2="1135.5" y1="1306.8555" y2="1326.8555"/><polygon fill="#334155" points="1131.5,1316.8555,1135.5,1326.8555,1139.5,1316.8555,1135.5,1320.8555" style="stroke:#334155;stroke-width:1.0;"/><line style="stroke:#334155;stroke-width:1.0;" x1="1053" x2="961.75" y1="1456.8242" y2="1456.8242"/><line style="stroke:#334155;stroke-width:1.0;" x1="961.75" x2="961.75" y1="1456.8242" y2="1478.8242"/><polygon fill="#334155" points="957.75,1468.8242,961.75,1478.8242,965.75,1468.8242,961.75,1472.8242" style="stroke:#334155;stroke-width:1.0;"/><line style="stroke:#334155;stroke-width:1.0;" x1="1218" x2="1309.25" y1="1456.8242" y2="1456.8242"/><line style="stroke:#334155;stroke-width:1.0;" x1="1309.25" x2="1309.25" y1="1456.8242" y2="1478.8242"/><polygon fill="#334155" points="1305.25,1468.8242,1309.25,1478.8242,1313.25,1468.8242,1309.25,1472.8242" style="stroke:#334155;stroke-width:1.0;"/><line style="stroke:#334155;stroke-width:1.0;" x1="961.75" x2="961.75" y1="1512.793" y2="1530.793"/><line style="stroke:#334155;stroke-width:1.0;" x1="961.75" x2="1123.5" y1="1530.793" y2="1530.793"/><polygon fill="#334155" points="1113.5,1526.793,1123.5,1530.793,1113.5,1534.793,1117.5,1530.793" style="stroke:#334155;stroke-width:1.0;"/><line style="stroke:#334155;stroke-width:1.0;" x1="1309.25" x2="1309.25" y1="1512.793" y2="1530.793"/><line style="stroke:#334155;stroke-width:1.0;" x1="1309.25" x2="1147.5" y1="1530.793" y2="1530.793"/><polygon fill="#334155" points="1157.5,1526.793,1147.5,1530.793,1157.5,1534.793,1153.5,1530.793" style="stroke:#334155;stroke-width:1.0;"/><line style="stroke:#334155;stroke-width:1.0;" x1="1135.5" x2="1135.5" y1="1424.8242" y2="1444.8242"/><polygon fill="#334155" points="1131.5,1434.8242,1135.5,1444.8242,1139.5,1434.8242,1135.5,1438.8242" style="stroke:#334155;stroke-width:1.0;"/><line style="stroke:#334155;stroke-width:1.0;" x1="690.75" x2="384" y1="363.5" y2="363.5"/><line style="stroke:#334155;stroke-width:1.0;" x1="384" x2="384" y1="363.5" y2="421.7969"/><polygon fill="#334155" points="380,411.7969,384,421.7969,388,411.7969,384,415.7969" style="stroke:#334155;stroke-width:1.0;"/><line style="stroke:#334155;stroke-width:1.0;" x1="828.75" x2="1135.5" y1="363.5" y2="363.5"/><line style="stroke:#334155;stroke-width:1.0;" x1="1135.5" x2="1135.5" y1="363.5" y2="421.7969"/><polygon fill="#334155" points="1131.5,411.7969,1135.5,421.7969,1139.5,411.7969,1135.5,415.7969" style="stroke:#334155;stroke-width:1.0;"/><line style="stroke:#334155;stroke-width:1.0;" x1="1135.5" x2="1135.5" y1="1542.793" y2="1560.793"/><line style="stroke:#334155;stroke-width:1.0;" x1="1135.5" x2="759.75" y1="1560.793" y2="1560.793"/><line style="stroke:#334155;stroke-width:1.0;" x1="759.75" x2="759.75" y1="319.5" y2="351.5"/><polygon fill="#334155" points="755.75,341.5,759.75,351.5,763.75,341.5,759.75,345.5" style="stroke:#334155;stroke-width:1.0;"/><!--SRC=[XLRRRXit47tNLn3kIm94GPp4SH8_5B8kgG77JcKbVGoetLc9zIwv9RcMbIB_tZEpbBoIvTI0WHKvdCkPCuUC9fQaFgzl_hnKetDrimwHAZMbpDdCO6UGHNDduheNResjjTUL2akTkvMn2rNeCb1dvrndjmll6fiFNUcy-cqYVnsBWVTkbJRVl7bxV7BIsSofq4qPPtGV1wLPs8fiL2KLiMEZKpxgtvuw4E_zP30PyexpEVcq-lRqvEJT1wnEd8rfxTNa-FJr06iZeojdyqUkng_7xoUlEWO7FTv4xHzSdhvxDyRYUElaT78yEXxrVlO2s_Lwg26QQ9nLHzVpGFwEbBQvEZSsFvAAFav9vseuLQ6cx8N2iTW4TJsy6BqGovnAYgICZS3c30TCePuTpJoofrmX9DtNfSbCb3EgzXHW-FlHSnMNPDMpDONdE8L0doZo6jifMBd6PwJcQtLhtSega-EOAGnv3a9eitfcNJewXNafgIES2P6fiEycDw4kzLfPNT5PU-mB-G1hYUfR5v9ovab7V4h6SrJ2vRbKkuItkIa0Oa-A7RKGUFgd8P0rVrHS1-JMjeKM6Tmqywg5PWDaWVXxv4_PNZftAzlTAjEfbVEtcmJKd615AeXliT8gRxWBg2gTU9cS_gKHdfqo1fMEsPBj4JgqStV8FqFHP1bH_eBHYeoMGlT6ypIiriL-mSnLEgZCLNKtuY32f8xgXW1pL5b9sZQrShPSArr4ybqqCFI5ySWBu2K70ldrog8_UovIKk40kOGZbGD5kCx2M5sQ7mYr5v1RPC8cAkLjn5soSTSYU3GldL2y0ItBfr9XVE1GpqEQZWrtbFg9_n1TtUkwxp3bqXIKhU5G3KiT0gYV2GmRxhGu87Ec9GyW-XFzMizn8b1y2eIsXTBAfftrMw9w5vQpP2xfTNC-5BNGKENyLo5ZuosJjh42ImX5KohWNd4yfB9HTemWnFR9u1Yt7O1OcDPImSYR8ge_y5c2lTlX6e9v6eDGchjMLTgSLoOkfTxGrBNpFEYvE0YDBtH67PfzjGystCcgQg80t1x8GT7iqC2dml_6haJAbjekQ3EOsgub7NR6fVm2xeyp6QxejGs6BvzMrQ3837i3n7Z47XhFQAJUfd6RCVWFvz- -_Y169_Vt1to9pA4TqRko9D-ljDKBsheCcnd-1fxaqlyj8b3c4dplbBZPQMesxKxlpHxmlyPnKDUG1j67tQuPsuUYPvi8k_rxFBItfgMvTNrNRy47e-Box13BqqY7jSt-Lrg4uedTMpbjGjiJVY1GIxudSZjdBL6TwKYYoVdjwCjECljwqdxrYj9fKNt8C8RAB9QnD_3PakAwfe-z_lQgwmlw_LPg-q4YzAPRBcqd9l2XuNGyc5rSVSBdro-ZpUV5rM0uk_WsnkTiEhYwkHXVpRx3SlHzF9rUJtk3jlPTL-d8f1MEtRt9uE9oFCB7Q7mvJa7a4ujVTzhCrkbElyALphyePDxKZ1f-YOWl6g_JRpmIQx7IKVEeUJ1RuO6rYakiBbs8_3Aur7Cg-JTWK_eEAUgvAVcvsPUN0BIzThX9-NUbvTMZRSQYOl44nMBXYKUWKb4lWYG5MKMPyZD9GXeIeQ3KaObIHNvUNco60j8gqj5upuERkPo4gp1_c3fBaQ_cTWxaTIg7Tsnq3g7jexdoWeBYFZP9hoJmzewVH61TQtFEbxZsQw6IzETpKWJM4CQhltqtRNKyR7B6mEQEZoQUybKhSz7saOl1WzBj2GKKpLDxei0DoFo1epbdqiTpZ7NW9TDjAM-b2lMqp4qynWlJ5NoRuDeDq37eBaV5zPEo4jU2vfmotM0Iz-vkEMZA4liXzf44rEOb3vUWqFiF]--></g></svg>