<?xml version="1.0" encoding="UTF-8" standalone="no"?><svg xmlns="http://www.w3.org/2000/svg" xmlns:xlink="http://www.w3.org/1999/xlink" contentStyleType="text/css" height="561px" preserveAspectRatio="none" style="width:461px;height:561px;background:#FFFFFF;" version="1.1" viewBox="0 0 461 561" width="461px" zoomAndPan="magnify"><defs/><g><text fill="#000000" font-family="sans-serif" font-size="14" font-weight="bold" lengthAdjust="spacing" textLength="258" x="94.75" y="22.9951">MySqlDbSystem Formal Lifecycle</text><ellipse cx="280.5" cy="53.2969" fill="#222222" rx="10" ry="10" style="stroke:none;stroke-width:1.0;"/><g id="Observed"><rect fill="#F1F1F1" height="50" rx="12.5" ry="12.5" style="stroke:#181818;stroke-width:0.5;" width="87" x="237" y="124.2969"/><line style="stroke:#181818;stroke-width:0.5;" x1="237" x2="324" y1="150.5938" y2="150.5938"/><text fill="#000000" font-family="sans-serif" font-size="14" lengthAdjust="spacing" textLength="67" x="247" y="142.292">Observed</text></g><g id="Retryable"><rect fill="#F1F1F1" height="50" rx="12.5" ry="12.5" style="stroke:#181818;stroke-width:0.5;" width="85" x="7" y="251.2969"/><line style="stroke:#181818;stroke-width:0.5;" x1="7" x2="92" y1="277.5938" y2="277.5938"/><text fill="#000000" font-family="sans-serif" font-size="14" lengthAdjust="spacing" textLength="65" x="17" y="269.292">Retryable</text></g><g id="Active"><rect fill="#F1F1F1" height="50" rx="12.5" ry="12.5" style="stroke:#181818;stroke-width:0.5;" width="61" x="213" y="251.2969"/><line style="stroke:#181818;stroke-width:0.5;" x1="213" x2="274" y1="277.5938" y2="277.5938"/><text fill="#000000" font-family="sans-serif" font-size="14" lengthAdjust="spacing" textLength="41" x="223" y="269.292">Active</text></g><g id="Failed"><rect fill="#F1F1F1" height="50" rx="12.5" ry="12.5" style="stroke:#181818;stroke-width:0.5;" width="60" x="337.5" y="251.2969"/><line style="stroke:#181818;stroke-width:0.5;" x1="337.5" x2="397.5" y1="277.5938" y2="277.5938"/><text fill="#000000" font-family="sans-serif" font-size="14" lengthAdjust="spacing" textLength="40" x="347.5" y="269.292">Failed</text></g><g id="DeletePending"><rect fill="#F1F1F1" height="50" rx="12.5" ry="12.5" style="stroke:#181818;stroke-width:0.5;" width="123" x="155" y="378.2969"/><line style="stroke:#181818;stroke-width:0.5;" x1="155" x2="278" y1="404.5938" y2="404.5938"/><text fill="#000000" font-family="sans-serif" font-size="14" lengthAdjust="spacing" textLength="103" x="165" y="396.292">DeletePending</text></g><g id="Deleted"><rect fill="#F1F1F1" height="50" rx="12.5" ry="12.5" style="stroke:#181818;stroke-width:0.5;" width="75" x="179" y="505.2969"/><line style="stroke:#181818;stroke-width:0.5;" x1="179" x2="254" y1="531.5938" y2="531.5938"/><text fill="#000000" font-family="sans-serif" font-size="14" lengthAdjust="spacing" textLength="55" x="189" y="523.292">Deleted</text></g><!--link *start to Observed--><g id="link_*start_Observed"><path d="M280.5,63.3069 C280.5,75.9969 280.5,99.7069 280.5,118.8669 " fill="none" id="*start-to-Observed" style="stroke:#181818;stroke-width:1.0;"/><polygon fill="#181818" points="280.5,124.1369,284.5,115.1369,280.5,119.1369,276.5,115.1369,280.5,124.1369" style="stroke:#181818;stroke-width:1.0;"/></g><!--link Observed to Retryable--><g id="link_Observed_Retryable"><path d="M236.87,153.9569 C175.62,160.0969 68.97,174.8269 45.5,204.2969 C36.32,215.8269 36.57,232.0369 39.45,246.0569 " fill="none" id="Observed-to-Retryable" style="stroke:#181818;stroke-width:1.0;"/><polygon fill="#181818" points="40.62,251.1069,42.5125,241.4415,39.5051,246.2328,34.7139,243.2254,40.62,251.1069" style="stroke:#181818;stroke-width:1.0;"/><text fill="#000000" font-family="sans-serif" font-size="13" lengthAdjust="spacing" textLength="205" x="46.5" y="217.3638">CREATING, UPDATING, INACTIVE</text></g><!--link Observed to Active--><g id="link_Observed_Active"><path d="M273.37,174.3969 C267.27,194.9769 258.5,224.6269 252.04,246.4569 " fill="none" id="Observed-to-Active" style="stroke:#181818;stroke-width:1.0;"/><polygon fill="#181818" points="250.61,251.2669,257.0111,243.7818,252.0363,246.4746,249.3435,241.4998,250.61,251.2669" style="stroke:#181818;stroke-width:1.0;"/><text fill="#000000" font-family="sans-serif" font-size="13" lengthAdjust="spacing" textLength="45" x="265.5" y="217.3638">ACTIVE</text></g><!--link Observed to Failed--><g id="link_Observed_Failed"><path d="M298.13,174.3769 C304.88,183.6769 312.61,194.4369 319.5,204.2969 C329.23,218.2169 339.82,233.8269 348.57,246.8669 " fill="none" id="Observed-to-Failed" style="stroke:#181818;stroke-width:1.0;"/><polygon fill="#181818" points="351.46,251.1769,349.7805,241.4723,348.6799,247.021,343.1311,245.9205,351.46,251.1769" style="stroke:#181818;stroke-width:1.0;"/><text fill="#000000" font-family="sans-serif" font-size="13" lengthAdjust="spacing" textLength="110" x="331.5" y="217.3638">FAILED, DELETED</text></g><!--link Active to DeletePending--><g id="link_Active_DeletePending"><path d="M226.65,301.4469 C221.36,310.4069 216.19,320.9169 213.5,331.2969 C210,344.7969 210.18,360.2069 211.46,373.2169 " fill="none" id="Active-to-DeletePending" style="stroke:#181818;stroke-width:1.0;"/><polygon fill="#181818" points="212.03,378.2669,215.0028,368.8774,211.4731,373.298,207.0525,369.7684,212.03,378.2669" style="stroke:#181818;stroke-width:1.0;"/><text fill="#000000" font-family="sans-serif" font-size="13" lengthAdjust="spacing" textLength="109" x="214.5" y="344.3638">delete requested</text></g><!--link Retryable to DeletePending--><g id="link_Retryable_DeletePending"><path d="M59.42,301.3069 C66.7,316.4469 77.85,335.4869 92.5,348.2969 C109.03,362.7469 130.02,373.8469 150.02,382.1169 " fill="none" id="Retryable-to-DeletePending" style="stroke:#181818;stroke-width:1.0;"/><polygon fill="#181818" points="154.81,384.0469,147.9656,376.9649,150.1746,382.1727,144.9668,384.3817,154.81,384.0469" style="stroke:#181818;stroke-width:1.0;"/><text fill="#000000" font-family="sans-serif" font-size="13" lengthAdjust="spacing" textLength="109" x="93.5" y="344.3638">delete requested</text></g><!--link Failed to DeletePending--><g id="link_Failed_DeletePending"><path d="M358.69,301.4669 C352.22,316.4869 342.17,335.3269 328.5,348.2969 C315.4,360.7169 298.9,370.7869 282.63,378.7169 " fill="none" id="Failed-to-DeletePending" style="stroke:#181818;stroke-width:1.0;"/><polygon fill="#181818" points="278.05,380.8969,287.8951,380.6256,282.5614,378.7411,284.4459,373.4074,278.05,380.8969" style="stroke:#181818;stroke-width:1.0;"/><text fill="#000000" font-family="sans-serif" font-size="13" lengthAdjust="spacing" textLength="109" x="344.5" y="344.3638">delete requested</text></g><!--link DeletePending to Deleted--><g id="link_DeletePending_Deleted"><path d="M216.5,428.3969 C216.5,448.8869 216.5,478.3769 216.5,500.1769 " fill="none" id="DeletePending-to-Deleted" style="stroke:#181818;stroke-width:1.0;"/><polygon fill="#181818" points="216.5,505.2669,220.5,496.2669,216.5,500.2669,212.5,496.2669,216.5,505.2669" style="stroke:#181818;stroke-width:1.0;"/><text fill="#000000" font-family="sans-serif" font-size="13" lengthAdjust="spacing" textLength="188" x="217.5" y="471.3638">finalizer removed after delete</text></g><!--SRC=[ZKz13e8m4Bpt5Nis-W4E9eGMGu9e5BqO3uKkfac1KAe9lju2LKBYWTlCxipkZ9568UoxSwDeTkvQWoM4jIwvWbWMc7UvGa9kgpjiDbiuP2tg5mho1SFqX4PtFBDtF0XEp4-ZPBU6ov4w52L-a4PNDdVvkP6ltl9l6NAfBFGWzAEOqJLG5hEKKU9SlOQYGeD7h8Ii7bOg1WuQcoVQ7e9CkHR9tSz5shbWilIH2rbn9T-ehRwi-qQyC9QDHmXf3RUtVk4S7uivCaPnPFPhDXCV]--></g></svg>