<?xml version="1.0" encoding="UTF-8" standalone="no"?><svg xmlns="http://www.w3.org/2000/svg" xmlns:xlink="http://www.w3.org/1999/xlink" contentStyleType="text/css" height="1782px" preserveAspectRatio="none" style="width:1241px;height:1782px;background:#FFFFFF;" version="1.1" viewBox="0 0 1241 1782" width="1241px" zoomAndPan="magnify"><defs/><g><text fill="#000000" font-family="sans-serif" font-size="14" font-weight="bold" lengthAdjust="spacing" textLength="307" x="468.25" y="27.9951">MySQL DB System Reconcile Sequence</text><rect fill="none" height="254.6719" style="stroke:#475569;stroke-width:1.5;" width="816" x="298.5" y="193.8594"/><rect fill="none" height="223.5391" style="stroke:#475569;stroke-width:1.5;" width="796" x="308.5" y="217.9922"/><rect fill="none" height="119.3359" style="stroke:#475569;stroke-width:1.5;" width="776" x="318.5" y="315.1953"/><rect fill="none" height="1095.9297" style="stroke:#475569;stroke-width:1.5;" width="1224.5" x="10" y="462.5313"/><rect fill="none" height="296.1328" style="stroke:#475569;stroke-width:1.5;" width="1204.5" x="20" y="486.6641"/><rect fill="none" height="90.2031" style="stroke:#475569;stroke-width:1.5;" width="1064.5" x="30" y="685.5938"/><rect fill="none" height="622.8516" style="stroke:#475569;stroke-width:1.5;" width="1074.5" x="20" y="899.4766"/><rect fill="none" height="46.2656" style="stroke:#475569;stroke-width:1.5;" width="436.5" x="30" y="1200.8672"/><rect fill="none" height="46.2656" style="stroke:#475569;stroke-width:1.5;" width="436.5" x="30" y="1261.1328"/><rect fill="none" height="46.2656" style="stroke:#475569;stroke-width:1.5;" width="654" x="318.5" y="1379.6641"/><rect fill="none" height="46.2656" style="stroke:#475569;stroke-width:1.5;" width="436.5" x="30" y="1469.0625"/><line style="stroke:#94A3B8;stroke-width:0.5;stroke-dasharray:5.0,5.0;" x1="76" x2="76" y1="118.5938" y2="1701.3906"/><line style="stroke:#94A3B8;stroke-width:0.5;stroke-dasharray:5.0,5.0;" x1="392.5" x2="392.5" y1="118.5938" y2="1701.3906"/><line style="stroke:#94A3B8;stroke-width:0.5;stroke-dasharray:5.0,5.0;" x1="944.5" x2="944.5" y1="118.5938" y2="1701.3906"/><line style="stroke:#94A3B8;stroke-width:0.5;stroke-dasharray:5.0,5.0;" x1="1028.5" x2="1028.5" y1="118.5938" y2="1701.3906"/><line style="stroke:#94A3B8;stroke-width:0.5;stroke-dasharray:5.0,5.0;" x1="1156.5" x2="1156.5" y1="118.5938" y2="1701.3906"/><text fill="#000000" font-family="sans-serif" font-size="14" lengthAdjust="spacing" textLength="67" x="40" y="115.292">Controller</text><ellipse cx="76.5" cy="50.7969" fill="#E0F2FE" rx="8" ry="8" style="stroke:#0F766E;stroke-width:0.5;"/><path d="M76.5,58.7969 L76.5,85.7969 M63.5,66.7969 L89.5,66.7969 M76.5,85.7969 L63.5,100.7969 M76.5,85.7969 L89.5,100.7969 " fill="none" style="stroke:#0F766E;stroke-width:0.5;"/><text fill="#000000" font-family="sans-serif" font-size="14" lengthAdjust="spacing" textLength="67" x="40" y="1713.3857">Controller</text><ellipse cx="76.5" cy="1725.1875" fill="#E0F2FE" rx="8" ry="8" style="stroke:#0F766E;stroke-width:0.5;"/><path d="M76.5,1733.1875 L76.5,1760.1875 M63.5,1741.1875 L89.5,1741.1875 M76.5,1760.1875 L63.5,1775.1875 M76.5,1760.1875 L89.5,1775.1875 " fill="none" style="stroke:#0F766E;stroke-width:0.5;"/><rect fill="#F8FAFC" height="30.2969" rx="2.5" ry="2.5" style="stroke:#475569;stroke-width:0.5;" width="128" x="328.5" y="87.2969"/><text fill="#000000" font-family="sans-serif" font-size="14" lengthAdjust="spacing" textLength="114" x="335.5" y="107.292">Service Manager</text><rect fill="#F8FAFC" height="30.2969" rx="2.5" ry="2.5" style="stroke:#475569;stroke-width:0.5;" width="128" x="328.5" y="1700.3906"/><text fill="#000000" font-family="sans-serif" font-size="14" lengthAdjust="spacing" textLength="114" x="335.5" y="1720.3857">Service Manager</text><text fill="#000000" font-family="sans-serif" font-size="14" lengthAdjust="spacing" textLength="24" x="929.5" y="115.292">OCI</text><path d="M926.5,66.2969 C926.5,56.2969 944.5,56.2969 944.5,56.2969 C944.5,56.2969 962.5,56.2969 962.5,66.2969 L962.5,92.2969 C962.5,102.2969 944.5,102.2969 944.5,102.2969 C944.5,102.2969 926.5,102.2969 926.5,92.2969 L926.5,66.2969 " fill="#E2E2F0" style="stroke:#181818;stroke-width:1.5;"/><path d="M926.5,66.2969 C926.5,76.2969 944.5,76.2969 944.5,76.2969 C944.5,76.2969 962.5,76.2969 962.5,66.2969 " fill="none" style="stroke:#181818;stroke-width:1.5;"/><text fill="#000000" font-family="sans-serif" font-size="14" lengthAdjust="spacing" textLength="24" x="929.5" y="1713.3857">OCI</text><path d="M926.5,1726.6875 C926.5,1716.6875 944.5,1716.6875 944.5,1716.6875 C944.5,1716.6875 962.5,1716.6875 962.5,1726.6875 L962.5,1752.6875 C962.5,1762.6875 944.5,1762.6875 944.5,1762.6875 C944.5,1762.6875 926.5,1762.6875 926.5,1752.6875 L926.5,1726.6875 " fill="#E2E2F0" style="stroke:#181818;stroke-width:1.5;"/><path d="M926.5,1726.6875 C926.5,1736.6875 944.5,1736.6875 944.5,1736.6875 C944.5,1736.6875 962.5,1736.6875 962.5,1726.6875 " fill="none" style="stroke:#181818;stroke-width:1.5;"/><text fill="#000000" font-family="sans-serif" font-size="14" lengthAdjust="spacing" textLength="106" x="972.5" y="115.292">Kubernetes API</text><path d="M1010.5,66.2969 C1010.5,56.2969 1028.5,56.2969 1028.5,56.2969 C1028.5,56.2969 1046.5,56.2969 1046.5,66.2969 L1046.5,92.2969 C1046.5,102.2969 1028.5,102.2969 1028.5,102.2969 C1028.5,102.2969 1010.5,102.2969 1010.5,92.2969 L1010.5,66.2969 " fill="#E2E2F0" style="stroke:#181818;stroke-width:1.5;"/><path d="M1010.5,66.2969 C1010.5,76.2969 1028.5,76.2969 1028.5,76.2969 C1028.5,76.2969 1046.5,76.2969 1046.5,66.2969 " fill="none" style="stroke:#181818;stroke-width:1.5;"/><text fill="#000000" font-family="sans-serif" font-size="14" lengthAdjust="spacing" textLength="106" x="972.5" y="1713.3857">Kubernetes API</text><path d="M1010.5,1726.6875 C1010.5,1716.6875 1028.5,1716.6875 1028.5,1716.6875 C1028.5,1716.6875 1046.5,1716.6875 1046.5,1726.6875 L1046.5,1752.6875 C1046.5,1762.6875 1028.5,1762.6875 1028.5,1762.6875 C1028.5,1762.6875 1010.5,1762.6875 1010.5,1752.6875 L1010.5,1726.6875 " fill="#E2E2F0" style="stroke:#181818;stroke-width:1.5;"/><path d="M1010.5,1726.6875 C1010.5,1736.6875 1028.5,1736.6875 1028.5,1736.6875 C1028.5,1736.6875 1046.5,1736.6875 1046.5,1726.6875 " fill="none" style="stroke:#181818;stroke-width:1.5;"/><rect fill="#E2E2F0" height="30.2969" style="stroke:#181818;stroke-width:0.5;" width="112" x="1102.5" y="83.2969"/><rect fill="#E2E2F0" height="30.2969" style="stroke:#181818;stroke-width:0.5;" width="112" x="1098.5" y="87.2969"/><text fill="#000000" font-family="sans-serif" font-size="14" lengthAdjust="spacing" textLength="98" x="1105.5" y="107.292">Work Request</text><rect fill="#E2E2F0" height="30.2969" style="stroke:#181818;stroke-width:0.5;" width="112" x="1102.5" y="1700.3906"/><rect fill="#E2E2F0" height="30.2969" style="stroke:#181818;stroke-width:0.5;" width="112" x="1098.5" y="1704.3906"/><text fill="#000000" font-family="sans-serif" font-size="14" lengthAdjust="spacing" textLength="98" x="1105.5" y="1724.3857">Work Request</text><polygon fill="#334155" points="380.5,145.7266,390.5,149.7266,380.5,153.7266,384.5,149.7266" style="stroke:#334155;stroke-width:1.0;"/><line style="stroke:#334155;stroke-width:1.0;" x1="76.5" x2="386.5" y1="149.7266" y2="149.7266"/><text fill="#000000" font-family="sans-serif" font-size="13" font-weight="bold" lengthAdjust="spacing" textLength="9" x="83.5" y="144.6606">1</text><text fill="#000000" font-family="sans-serif" font-size="13" lengthAdjust="spacing" textLength="239" x="96.5" y="144.6606">reconcile desired spec and live status</text><polygon fill="#334155" points="1016.5,174.8594,1026.5,178.8594,1016.5,182.8594,1020.5,178.8594" style="stroke:#334155;stroke-width:1.0;"/><line style="stroke:#334155;stroke-width:1.0;" x1="392.5" x2="1022.5" y1="178.8594" y2="178.8594"/><text fill="#000000" font-family="sans-serif" font-size="13" font-weight="bold" lengthAdjust="spacing" textLength="9" x="399.5" y="173.7935">2</text><text fill="#000000" font-family="sans-serif" font-size="13" lengthAdjust="spacing" textLength="212" x="412.5" y="173.7935">read CR status and finalizer state</text><path d="M298.5,193.8594 L468.5,193.8594 L468.5,200.9922 L458.5,210.9922 L298.5,210.9922 L298.5,193.8594 " fill="#F8FAFC" style="stroke:#475569;stroke-width:1.5;"/><rect fill="none" height="254.6719" style="stroke:#475569;stroke-width:1.5;" width="816" x="298.5" y="193.8594"/><text fill="#000000" font-family="sans-serif" font-size="13" font-weight="bold" lengthAdjust="spacing" textLength="125" x="313.5" y="206.9263">Lookup and bind</text><path d="M308.5,217.9922 L372.5,217.9922 L372.5,225.125 L362.5,235.125 L308.5,235.125 L308.5,217.9922 " fill="#F8FAFC" style="stroke:#475569;stroke-width:1.5;"/><rect fill="none" height="223.5391" style="stroke:#475569;stroke-width:1.5;" width="796" x="308.5" y="217.9922"/><text fill="#000000" font-family="sans-serif" font-size="13" font-weight="bold" lengthAdjust="spacing" textLength="19" x="323.5" y="231.0591">alt</text><text fill="#000000" font-family="sans-serif" font-size="11" font-weight="bold" lengthAdjust="spacing" textLength="256" x="387.5" y="230.2026">[tracked or explicit OCID already exists]</text><polygon fill="#334155" points="932.5,252.2578,942.5,256.2578,932.5,260.2578,936.5,256.2578" style="stroke:#334155;stroke-width:1.0;"/><line style="stroke:#334155;stroke-width:1.0;" x1="392.5" x2="938.5" y1="256.2578" y2="256.2578"/><text fill="#000000" font-family="sans-serif" font-size="13" font-weight="bold" lengthAdjust="spacing" textLength="9" x="399.5" y="251.1919">3</text><text fill="#000000" font-family="sans-serif" font-size="13" lengthAdjust="spacing" textLength="278" x="412.5" y="251.1919">get the current resource by known identifier</text><line style="stroke:#475569;stroke-width:1.0;stroke-dasharray:2.0,2.0;" x1="308.5" x2="1104.5" y1="265.2578" y2="265.2578"/><text fill="#000000" font-family="sans-serif" font-size="11" font-weight="bold" lengthAdjust="spacing" textLength="145" x="313.5" y="275.4683">[no OCID is bound yet]</text><polygon fill="#334155" points="932.5,296.1953,942.5,300.1953,932.5,304.1953,936.5,300.1953" style="stroke:#334155;stroke-width:1.0;"/><line style="stroke:#334155;stroke-width:1.0;" x1="392.5" x2="938.5" y1="300.1953" y2="300.1953"/><text fill="#000000" font-family="sans-serif" font-size="13" font-weight="bold" lengthAdjust="spacing" textLength="9" x="399.5" y="295.1294">4</text><text fill="#000000" font-family="sans-serif" font-size="13" lengthAdjust="spacing" textLength="193" x="412.5" y="295.1294">list resources by display name</text><path d="M318.5,315.1953 L382.5,315.1953 L382.5,322.3281 L372.5,332.3281 L318.5,332.3281 L318.5,315.1953 " fill="#F8FAFC" style="stroke:#475569;stroke-width:1.5;"/><rect fill="none" height="119.3359" style="stroke:#475569;stroke-width:1.5;" width="776" x="318.5" y="315.1953"/><text fill="#000000" font-family="sans-serif" font-size="13" font-weight="bold" lengthAdjust="spacing" textLength="19" x="333.5" y="328.2622">alt</text><text fill="#000000" font-family="sans-serif" font-size="11" font-weight="bold" lengthAdjust="spacing" textLength="162" x="397.5" y="327.4058">[existing resource found]</text><polygon fill="#334155" points="1016.5,349.4609,1026.5,353.4609,1016.5,357.4609,1020.5,353.4609" style="stroke:#334155;stroke-width:1.0;"/><line style="stroke:#334155;stroke-width:1.0;" x1="392.5" x2="1022.5" y1="353.4609" y2="353.4609"/><text fill="#000000" font-family="sans-serif" font-size="13" font-weight="bold" lengthAdjust="spacing" textLength="9" x="399.5" y="348.395">5</text><text fill="#000000" font-family="sans-serif" font-size="13" lengthAdjust="spacing" textLength="221" x="412.5" y="348.395">persist the resolved OCID in status</text><line style="stroke:#475569;stroke-width:1.0;stroke-dasharray:2.0,2.0;" x1="318.5" x2="1094.5" y1="362.4609" y2="362.4609"/><text fill="#000000" font-family="sans-serif" font-size="11" font-weight="bold" lengthAdjust="spacing" textLength="182" x="323.5" y="372.6714">[no existing resource found]</text><polygon fill="#334155" points="932.5,393.3984,942.5,397.3984,932.5,401.3984,936.5,397.3984" style="stroke:#334155;stroke-width:1.0;"/><line style="stroke:#334155;stroke-width:1.0;" x1="392.5" x2="938.5" y1="397.3984" y2="397.3984"/><text fill="#000000" font-family="sans-serif" font-size="13" font-weight="bold" lengthAdjust="spacing" textLength="9" x="399.5" y="392.3325">6</text><text fill="#000000" font-family="sans-serif" font-size="13" lengthAdjust="spacing" textLength="152" x="412.5" y="392.3325">create the OCI resource</text><polygon fill="#334155" points="1016.5,422.5313,1026.5,426.5313,1016.5,430.5313,1020.5,426.5313" style="stroke:#334155;stroke-width:1.0;"/><line style="stroke:#334155;stroke-width:1.0;" x1="392.5" x2="1022.5" y1="426.5313" y2="426.5313"/><text fill="#000000" font-family="sans-serif" font-size="13" font-weight="bold" lengthAdjust="spacing" textLength="9" x="399.5" y="421.4653">7</text><text fill="#000000" font-family="sans-serif" font-size="13" lengthAdjust="spacing" textLength="216" x="412.5" y="421.4653">persist the created OCID in status</text><path d="M10,462.5313 L74,462.5313 L74,469.6641 L64,479.6641 L10,479.6641 L10,462.5313 " fill="#F8FAFC" style="stroke:#475569;stroke-width:1.5;"/><rect fill="none" height="1095.9297" style="stroke:#475569;stroke-width:1.5;" width="1224.5" x="10" y="462.5313"/><text fill="#000000" font-family="sans-serif" font-size="13" font-weight="bold" lengthAdjust="spacing" textLength="19" x="25" y="475.5981">alt</text><text fill="#000000" font-family="sans-serif" font-size="11" font-weight="bold" lengthAdjust="spacing" textLength="120" x="89" y="474.7417">[delete requested]</text><path d="M20,486.6641 L113,486.6641 L113,493.7969 L103,503.7969 L20,503.7969 L20,486.6641 " fill="#F8FAFC" style="stroke:#475569;stroke-width:1.5;"/><rect fill="none" height="296.1328" style="stroke:#475569;stroke-width:1.5;" width="1204.5" x="20" y="486.6641"/><text fill="#000000" font-family="sans-serif" font-size="13" font-weight="bold" lengthAdjust="spacing" textLength="48" x="35" y="499.731">Delete</text><polygon fill="#334155" points="932.5,520.9297,942.5,524.9297,932.5,528.9297,936.5,524.9297" style="stroke:#334155;stroke-width:1.0;"/><line style="stroke:#334155;stroke-width:1.0;" x1="392.5" x2="938.5" y1="524.9297" y2="524.9297"/><text fill="#000000" font-family="sans-serif" font-size="13" font-weight="bold" lengthAdjust="spacing" textLength="9" x="399.5" y="519.8638">8</text><text fill="#000000" font-family="sans-serif" font-size="13" lengthAdjust="spacing" textLength="114" x="412.5" y="519.8638">submit OCI delete</text><polygon fill="#334155" points="403.5,550.0625,393.5,554.0625,403.5,558.0625,399.5,554.0625" style="stroke:#334155;stroke-width:1.0;"/><line style="stroke:#334155;stroke-width:1.0;stroke-dasharray:2.0,2.0;" x1="397.5" x2="943.5" y1="554.0625" y2="554.0625"/><text fill="#000000" font-family="sans-serif" font-size="13" font-weight="bold" lengthAdjust="spacing" textLength="9" x="409.5" y="548.9966">9</text><text fill="#000000" font-family="sans-serif" font-size="13" lengthAdjust="spacing" textLength="199" x="422.5" y="548.9966">return a delete work-request ID</text><polygon fill="#334155" points="1144.5,579.1953,1154.5,583.1953,1144.5,587.1953,1148.5,583.1953" style="stroke:#334155;stroke-width:1.0;"/><line style="stroke:#334155;stroke-width:1.0;" x1="392.5" x2="1150.5" y1="583.1953" y2="583.1953"/><text fill="#000000" font-family="sans-serif" font-size="13" font-weight="bold" lengthAdjust="spacing" textLength="18" x="399.5" y="578.1294">10</text><text fill="#000000" font-family="sans-serif" font-size="13" lengthAdjust="spacing" textLength="339" x="421.5" y="578.1294">wait for the matching delete work request to succeed</text><polygon fill="#334155" points="1144.5,608.3281,1154.5,612.3281,1144.5,616.3281,1148.5,612.3281" style="stroke:#334155;stroke-width:1.0;"/><line style="stroke:#334155;stroke-width:1.0;" x1="392.5" x2="1150.5" y1="612.3281" y2="612.3281"/><text fill="#000000" font-family="sans-serif" font-size="13" font-weight="bold" lengthAdjust="spacing" textLength="18" x="399.5" y="607.2622">11</text><text fill="#000000" font-family="sans-serif" font-size="13" lengthAdjust="spacing" textLength="493" x="421.5" y="607.2622">Look for an existing delete work request before submitting a duplicate delete.</text><polygon fill="#334155" points="1144.5,637.4609,1154.5,641.4609,1144.5,645.4609,1148.5,641.4609" style="stroke:#334155;stroke-width:1.0;"/><line style="stroke:#334155;stroke-width:1.0;" x1="392.5" x2="1150.5" y1="641.4609" y2="641.4609"/><text fill="#000000" font-family="sans-serif" font-size="13" font-weight="bold" lengthAdjust="spacing" textLength="18" x="399.5" y="636.395">12</text><text fill="#000000" font-family="sans-serif" font-size="13" lengthAdjust="spacing" textLength="718" x="421.5" y="636.395">Wait for the matching DB system delete work request to succeed, or treat GetDbSystem not-found as complete.</text><polygon fill="#334155" points="1016.5,666.5938,1026.5,670.5938,1016.5,674.5938,1020.5,670.5938" style="stroke:#334155;stroke-width:1.0;"/><line style="stroke:#334155;stroke-width:1.0;" x1="392.5" x2="1022.5" y1="670.5938" y2="670.5938"/><text fill="#000000" font-family="sans-serif" font-size="13" font-weight="bold" lengthAdjust="spacing" textLength="18" x="399.5" y="665.5278">13</text><text fill="#000000" font-family="sans-serif" font-size="13" lengthAdjust="spacing" textLength="375" x="421.5" y="665.5278">Attempt Secret cleanup only after OCI delete confirmation.</text><path d="M30,685.5938 L94,685.5938 L94,692.7266 L84,702.7266 L30,702.7266 L30,685.5938 " fill="#F8FAFC" style="stroke:#475569;stroke-width:1.5;"/><rect fill="none" height="90.2031" style="stroke:#475569;stroke-width:1.5;" width="1064.5" x="30" y="685.5938"/><text fill="#000000" font-family="sans-serif" font-size="13" font-weight="bold" lengthAdjust="spacing" textLength="19" x="45" y="698.6606">alt</text><text fill="#000000" font-family="sans-serif" font-size="11" font-weight="bold" lengthAdjust="spacing" textLength="217" x="109" y="697.8042">[owned Secret cleanup succeeds]</text><polygon fill="#334155" points="1016.5,719.8594,1026.5,723.8594,1016.5,727.8594,1020.5,723.8594" style="stroke:#334155;stroke-width:1.0;"/><line style="stroke:#334155;stroke-width:1.0;" x1="392.5" x2="1022.5" y1="723.8594" y2="723.8594"/><text fill="#000000" font-family="sans-serif" font-size="13" font-weight="bold" lengthAdjust="spacing" textLength="18" x="399.5" y="718.7935">14</text><text fill="#000000" font-family="sans-serif" font-size="13" lengthAdjust="spacing" textLength="127" x="421.5" y="718.7935">remove the finalizer</text><line style="stroke:#475569;stroke-width:1.0;stroke-dasharray:2.0,2.0;" x1="30" x2="1094.5" y1="732.8594" y2="732.8594"/><text fill="#000000" font-family="sans-serif" font-size="11" font-weight="bold" lengthAdjust="spacing" textLength="138" x="35" y="743.0698">[Secret cleanup fails]</text><polygon fill="#334155" points="87.5,763.7969,77.5,767.7969,87.5,771.7969,83.5,767.7969" style="stroke:#334155;stroke-width:1.0;"/><line style="stroke:#334155;stroke-width:1.0;stroke-dasharray:2.0,2.0;" x1="81.5" x2="391.5" y1="767.7969" y2="767.7969"/><text fill="#000000" font-family="sans-serif" font-size="13" font-weight="bold" lengthAdjust="spacing" textLength="18" x="93.5" y="762.731">15</text><text fill="#000000" font-family="sans-serif" font-size="13" lengthAdjust="spacing" textLength="177" x="115.5" y="762.731">retain the finalizer and retry</text><line style="stroke:#475569;stroke-width:1.0;stroke-dasharray:2.0,2.0;" x1="10" x2="1234.5" y1="790.7969" y2="790.7969"/><text fill="#000000" font-family="sans-serif" font-size="11" font-weight="bold" lengthAdjust="spacing" textLength="147" x="15" y="801.0073">[OCI state is retryable]</text><polygon fill="#334155" points="87.5,821.7344,77.5,825.7344,87.5,829.7344,83.5,825.7344" style="stroke:#334155;stroke-width:1.0;"/><line style="stroke:#334155;stroke-width:1.0;stroke-dasharray:2.0,2.0;" x1="81.5" x2="391.5" y1="825.7344" y2="825.7344"/><text fill="#000000" font-family="sans-serif" font-size="13" font-weight="bold" lengthAdjust="spacing" textLength="18" x="93.5" y="820.6685">16</text><text fill="#000000" font-family="sans-serif" font-size="13" lengthAdjust="spacing" textLength="110" x="115.5" y="820.6685">requeue required</text><line style="stroke:#475569;stroke-width:1.0;stroke-dasharray:2.0,2.0;" x1="10" x2="1234.5" y1="834.7344" y2="834.7344"/><text fill="#000000" font-family="sans-serif" font-size="11" font-weight="bold" lengthAdjust="spacing" textLength="200" x="15" y="844.9448">[OCI state is failed or terminal]</text><polygon fill="#334155" points="87.5,865.6719,77.5,869.6719,87.5,873.6719,83.5,869.6719" style="stroke:#334155;stroke-width:1.0;"/><line style="stroke:#334155;stroke-width:1.0;stroke-dasharray:2.0,2.0;" x1="81.5" x2="391.5" y1="869.6719" y2="869.6719"/><text fill="#000000" font-family="sans-serif" font-size="13" font-weight="bold" lengthAdjust="spacing" textLength="18" x="93.5" y="864.606">17</text><text fill="#000000" font-family="sans-serif" font-size="13" lengthAdjust="spacing" textLength="240" x="115.5" y="864.606">unsuccessful terminal reconcile result</text><line style="stroke:#475569;stroke-width:1.0;stroke-dasharray:2.0,2.0;" x1="10" x2="1234.5" y1="878.6719" y2="878.6719"/><text fill="#000000" font-family="sans-serif" font-size="11" font-weight="bold" lengthAdjust="spacing" textLength="203" x="15" y="888.8823">[OCI state is active and usable]</text><path d="M20,899.4766 L167,899.4766 L167,906.6094 L157,916.6094 L20,916.6094 L20,899.4766 " fill="#F8FAFC" style="stroke:#475569;stroke-width:1.5;"/><rect fill="none" height="622.8516" style="stroke:#475569;stroke-width:1.5;" width="1074.5" x="20" y="899.4766"/><text fill="#000000" font-family="sans-serif" font-size="13" font-weight="bold" lengthAdjust="spacing" textLength="102" x="35" y="912.5435">Drift handling</text><path d="M354,921.6094 L354,1188.6094 L983,1188.6094 L983,931.6094 L973,921.6094 L354,921.6094 " fill="#FEFFDD" style="stroke:#181818;stroke-width:0.5;"/><path d="M973,921.6094 L973,931.6094 L983,931.6094 L973,921.6094 " fill="#FEFFDD" style="stroke:#181818;stroke-width:0.5;"/><text fill="#000000" font-family="sans-serif" font-size="13" lengthAdjust="spacing" textLength="171" x="360" y="938.6763">Supported update surface:</text><text fill="#000000" font-family="sans-serif" font-size="13" lengthAdjust="spacing" textLength="92" x="360" y="953.8091">- displayName</text><text fill="#000000" font-family="sans-serif" font-size="13" lengthAdjust="spacing" textLength="79" x="360" y="968.9419">- description</text><text fill="#000000" font-family="sans-serif" font-size="13" lengthAdjust="spacing" textLength="92" x="360" y="984.0747">- configuration</text><text fill="#000000" font-family="sans-serif" font-size="13" lengthAdjust="spacing" textLength="48" x="360" y="999.2075">- shape</text><text fill="#000000" font-family="sans-serif" font-size="13" lengthAdjust="spacing" textLength="138" x="360" y="1014.3403">- data storage growth</text><text fill="#000000" font-family="sans-serif" font-size="13" lengthAdjust="spacing" textLength="108" x="360" y="1029.4731">- hostnameLabel</text><text fill="#000000" font-family="sans-serif" font-size="13" lengthAdjust="spacing" textLength="106" x="360" y="1044.606">- high availability</text><text fill="#000000" font-family="sans-serif" font-size="13" lengthAdjust="spacing" textLength="95" x="360" y="1059.7388">- backup policy</text><text fill="#000000" font-family="sans-serif" font-size="13" lengthAdjust="spacing" textLength="142" x="360" y="1074.8716">- maintenance window</text><text fill="#000000" font-family="sans-serif" font-size="13" lengthAdjust="spacing" textLength="96" x="360" y="1090.0044">- freeform tags</text><text fill="#000000" font-family="sans-serif" font-size="13" lengthAdjust="spacing" textLength="88" x="360" y="1105.1372">- defined tags</text><text fill="#000000" font-family="sans-serif" font-size="13" lengthAdjust="spacing" textLength="139" x="360" y="1120.27">Reject before mutate:</text><text fill="#000000" font-family="sans-serif" font-size="13" lengthAdjust="spacing" textLength="295" x="360" y="1135.4028">- compartmentId drift in the current code path</text><text fill="#000000" font-family="sans-serif" font-size="13" lengthAdjust="spacing" textLength="234" x="360" y="1150.5356">- immutable network-placement drift</text><text fill="#000000" font-family="sans-serif" font-size="13" lengthAdjust="spacing" textLength="219" x="360" y="1165.6685">- immutable admin-credential drift</text><text fill="#000000" font-family="sans-serif" font-size="13" lengthAdjust="spacing" textLength="221" x="360" y="1180.8013">- immutable source or version drift</text><path d="M30,1200.8672 L100,1200.8672 L100,1208 L90,1218 L30,1218 L30,1200.8672 " fill="#F8FAFC" style="stroke:#475569;stroke-width:1.5;"/><rect fill="none" height="46.2656" style="stroke:#475569;stroke-width:1.5;" width="436.5" x="30" y="1200.8672"/><text fill="#000000" font-family="sans-serif" font-size="13" font-weight="bold" lengthAdjust="spacing" textLength="25" x="45" y="1213.9341">opt</text><text fill="#000000" font-family="sans-serif" font-size="11" font-weight="bold" lengthAdjust="spacing" textLength="286" x="115" y="1213.0776">[unsupported or immutable drift is detected]</text><polygon fill="#334155" points="87.5,1235.1328,77.5,1239.1328,87.5,1243.1328,83.5,1239.1328" style="stroke:#334155;stroke-width:1.0;"/><line style="stroke:#334155;stroke-width:1.0;stroke-dasharray:2.0,2.0;" x1="81.5" x2="391.5" y1="1239.1328" y2="1239.1328"/><text fill="#000000" font-family="sans-serif" font-size="13" font-weight="bold" lengthAdjust="spacing" textLength="18" x="93.5" y="1234.0669">18</text><text fill="#000000" font-family="sans-serif" font-size="13" lengthAdjust="spacing" textLength="169" x="115.5" y="1234.0669">reject before OCI mutation</text><path d="M30,1261.1328 L100,1261.1328 L100,1268.2656 L90,1278.2656 L30,1278.2656 L30,1261.1328 " fill="#F8FAFC" style="stroke:#475569;stroke-width:1.5;"/><rect fill="none" height="46.2656" style="stroke:#475569;stroke-width:1.5;" width="436.5" x="30" y="1261.1328"/><text fill="#000000" font-family="sans-serif" font-size="13" font-weight="bold" lengthAdjust="spacing" textLength="25" x="45" y="1274.1997">opt</text><text fill="#000000" font-family="sans-serif" font-size="11" font-weight="bold" lengthAdjust="spacing" textLength="220" x="115" y="1273.3433">[transient OCI read failure occurs]</text><polygon fill="#334155" points="87.5,1295.3984,77.5,1299.3984,87.5,1303.3984,83.5,1299.3984" style="stroke:#334155;stroke-width:1.0;"/><line style="stroke:#334155;stroke-width:1.0;stroke-dasharray:2.0,2.0;" x1="81.5" x2="391.5" y1="1299.3984" y2="1299.3984"/><text fill="#000000" font-family="sans-serif" font-size="13" font-weight="bold" lengthAdjust="spacing" textLength="18" x="93.5" y="1294.3325">19</text><text fill="#000000" font-family="sans-serif" font-size="13" lengthAdjust="spacing" textLength="270" x="115.5" y="1294.3325">requeue instead of surfacing a hard failure</text><polygon fill="#334155" points="932.5,1331.5313,942.5,1335.5313,932.5,1339.5313,936.5,1335.5313" style="stroke:#334155;stroke-width:1.0;"/><line style="stroke:#334155;stroke-width:1.0;" x1="392.5" x2="938.5" y1="1335.5313" y2="1335.5313"/><text fill="#000000" font-family="sans-serif" font-size="13" font-weight="bold" lengthAdjust="spacing" textLength="18" x="399.5" y="1330.4653">20</text><text fill="#000000" font-family="sans-serif" font-size="13" lengthAdjust="spacing" textLength="506" x="421.5" y="1330.4653">Turn transient 429 and 5xx OCI read failures into controller-managed requeues.</text><polygon fill="#334155" points="932.5,1360.6641,942.5,1364.6641,932.5,1368.6641,936.5,1364.6641" style="stroke:#334155;stroke-width:1.0;"/><line style="stroke:#334155;stroke-width:1.0;" x1="392.5" x2="938.5" y1="1364.6641" y2="1364.6641"/><text fill="#000000" font-family="sans-serif" font-size="13" font-weight="bold" lengthAdjust="spacing" textLength="18" x="399.5" y="1359.5981">21</text><text fill="#000000" font-family="sans-serif" font-size="13" lengthAdjust="spacing" textLength="344" x="421.5" y="1359.5981">Validate immutable fields before any mutable update.</text><path d="M318.5,1379.6641 L388.5,1379.6641 L388.5,1386.7969 L378.5,1396.7969 L318.5,1396.7969 L318.5,1379.6641 " fill="#F8FAFC" style="stroke:#475569;stroke-width:1.5;"/><rect fill="none" height="46.2656" style="stroke:#475569;stroke-width:1.5;" width="654" x="318.5" y="1379.6641"/><text fill="#000000" font-family="sans-serif" font-size="13" font-weight="bold" lengthAdjust="spacing" textLength="25" x="333.5" y="1392.731">opt</text><text fill="#000000" font-family="sans-serif" font-size="11" font-weight="bold" lengthAdjust="spacing" textLength="258" x="403.5" y="1391.8745">[supported drift or collection diff exists]</text><polygon fill="#334155" points="932.5,1413.9297,942.5,1417.9297,932.5,1421.9297,936.5,1417.9297" style="stroke:#334155;stroke-width:1.0;"/><line style="stroke:#334155;stroke-width:1.0;" x1="392.5" x2="938.5" y1="1417.9297" y2="1417.9297"/><text fill="#000000" font-family="sans-serif" font-size="13" font-weight="bold" lengthAdjust="spacing" textLength="18" x="399.5" y="1412.8638">22</text><text fill="#000000" font-family="sans-serif" font-size="13" lengthAdjust="spacing" textLength="277" x="421.5" y="1412.8638">apply the supported in-place mutation path</text><polygon fill="#334155" points="1016.5,1450.0625,1026.5,1454.0625,1016.5,1458.0625,1020.5,1454.0625" style="stroke:#334155;stroke-width:1.0;"/><line style="stroke:#334155;stroke-width:1.0;" x1="392.5" x2="1022.5" y1="1454.0625" y2="1454.0625"/><text fill="#000000" font-family="sans-serif" font-size="13" font-weight="bold" lengthAdjust="spacing" textLength="18" x="399.5" y="1448.9966">23</text><text fill="#000000" font-family="sans-serif" font-size="13" lengthAdjust="spacing" textLength="351" x="421.5" y="1448.9966">upsert the owned Secret for the usable active resource</text><path d="M30,1469.0625 L94,1469.0625 L94,1476.1953 L84,1486.1953 L30,1486.1953 L30,1469.0625 " fill="#F8FAFC" style="stroke:#475569;stroke-width:1.5;"/><rect fill="none" height="46.2656" style="stroke:#475569;stroke-width:1.5;" width="436.5" x="30" y="1469.0625"/><text fill="#000000" font-family="sans-serif" font-size="13" font-weight="bold" lengthAdjust="spacing" textLength="19" x="45" y="1482.1294">alt</text><text fill="#000000" font-family="sans-serif" font-size="11" font-weight="bold" lengthAdjust="spacing" textLength="116" x="109" y="1481.2729">[Secret sync fails]</text><polygon fill="#334155" points="87.5,1503.3281,77.5,1507.3281,87.5,1511.3281,83.5,1507.3281" style="stroke:#334155;stroke-width:1.0;"/><line style="stroke:#334155;stroke-width:1.0;stroke-dasharray:2.0,2.0;" x1="81.5" x2="391.5" y1="1507.3281" y2="1507.3281"/><text fill="#000000" font-family="sans-serif" font-size="13" font-weight="bold" lengthAdjust="spacing" textLength="18" x="93.5" y="1502.2622">24</text><text fill="#000000" font-family="sans-serif" font-size="13" lengthAdjust="spacing" textLength="150" x="115.5" y="1502.2622">block success and retry</text><polygon fill="#334155" points="87.5,1546.4609,77.5,1550.4609,87.5,1554.4609,83.5,1550.4609" style="stroke:#334155;stroke-width:1.0;"/><line style="stroke:#334155;stroke-width:1.0;stroke-dasharray:2.0,2.0;" x1="81.5" x2="391.5" y1="1550.4609" y2="1550.4609"/><text fill="#000000" font-family="sans-serif" font-size="13" font-weight="bold" lengthAdjust="spacing" textLength="18" x="93.5" y="1545.395">25</text><text fill="#000000" font-family="sans-serif" font-size="13" lengthAdjust="spacing" textLength="169" x="115.5" y="1545.395">successful active reconcile</text><path d="M51,1570.4609 L51,1685.4609 L968,1685.4609 L968,1580.4609 L958,1570.4609 L51,1570.4609 " fill="#FEFFDD" style="stroke:#181818;stroke-width:0.5;"/><path d="M958,1570.4609 L958,1580.4609 L968,1580.4609 L958,1570.4609 " fill="#FEFFDD" style="stroke:#181818;stroke-width:0.5;"/><text fill="#000000" font-family="sans-serif" font-size="13" lengthAdjust="spacing" textLength="105" x="57" y="1587.5278">Boundary notes:</text><text fill="#000000" font-family="sans-serif" font-size="13" lengthAdjust="spacing" textLength="481" x="57" y="1602.6606">- Managed and name-resolved reconciles currently do not enter the update</text><text fill="#000000" font-family="sans-serif" font-size="13" lengthAdjust="spacing" textLength="354" x="73" y="1617.7935">path, so mutable updates are effectively bound-ID only.</text><text fill="#000000" font-family="sans-serif" font-size="13" lengthAdjust="spacing" textLength="457" x="57" y="1632.9263">- The formal secret-delete profile is stronger than current code because</text><text fill="#000000" font-family="sans-serif" font-size="13" lengthAdjust="spacing" textLength="210" x="73" y="1648.0591">Secret cleanup is still best-effort.</text><text fill="#000000" font-family="sans-serif" font-size="13" lengthAdjust="spacing" textLength="108" x="57" y="1663.1919">Sequence notes:</text><text fill="#000000" font-family="sans-serif" font-size="13" lengthAdjust="spacing" textLength="464" x="57" y="1678.3247">- INACTIVE and TRANSIENT_READ_ERROR behave as retryable outcomes.</text><!--SRC=[bLVRRXit47tNLmpSryX8apWNFnIGRu4Hnqbb8taCgDrPYVKkkIMvjjMY_zupNEv5jkGu1cn1dE7SUERCEEXGCdrUN_rvGIT7TBNsWIkQSsPDfY6vuhyRDXbFL1EiQQe5kuc_qQPMJbNaLogtTzeigL2bvv7aI6KtIsSRan_RqZhwxIp-Z3Hcpjcx97pz-itl1mSZOSw5QifmpVTXLkgbgTW4Aha8O-SfDFftGlHLkQ0pNIiJ7hj-VpOxEtwWP5tEBYcyUNTmyFO352vqmHVQy8RqmvlPwwFtO-cEt8W-uhJURheLxGnjbWNh7ebFNvwzEZljnMF3By_UlNrxElbleaH4UyVM16VBajqUAK_3rqazP4rxL-nkDMhsMHcrJBhfB1rDSXNKGdcclI_7vr41dwFJJmr0O3YmfzdNLk7JUp_9n5iMj3MUzhvRTmCKuO5yY1foaBvF9aDmDFtZWVj3SZtuSlRQSKw-veoKoQdKjqm-gD3uoUOrCOGevBRAwNYUjEAjGXjLwd-W98SycKYDQxgmzWOVeh7G9aULLHaeE3m2VAAcV5-NA5oG_4yW5DDhd6eVFBI97eS0pKDQCioicBB6ES6jOsyRXw8lrdHZx9qXdUDS5nhL9c9q3XdRUj6U5W80MdDuoaU987h3NYpdsjUbMfDH5SURaaqCLlgpZw4Gwr6-pNOiOStEYtd9GUwLjwX76vtfgY_Nky1_rKbC84Cr0qSV-DvVVNvahO7jWKNdybT-9rA8d4iW5cuY15daBGfEek2fKljcKRKWI5QYidoTRaLlQ9mXrNcy0_2doIsTd-nmD6gFGxfJS5S0W99cfKAsakAEx7LfKB28BikOy-VO5S17kyeCRxRDx8AXnIdng8Lq6ca6URBsnlvpF7xVcWdcZ6_dpDCvlP0c3FBCz973oI8D9sF3D09CU2MpLVrKE14siu1xTO0Oe0cKbQmCdjwQSasg2D0S7XSMJQ4TWWMJxVUDXAu5rXuOI77wfq7hkBAtBT9x9Xhwvu79GkbobpqO79Wp8aq1znjs8vj1uDOF6q5yIPQH0eLcefPQb0Bddth2qpHjzmWXRx4cSRUiYN9M4ixFpJOc5j3xeYdxQoFw1oTW1zZY32DF1e7aslYKGkfcfuj0AqXA82tMuDBY4Xx0FGZdXKorLEYchgqJCcdgN7punXKguyCadtRaUjbnQpnZdpbT2qxwimYUPUFKnYdMf7fq3vCKkLY7A2Jikx3gPIlhWn3uXLfmEPpgvOhKBKgi5hhKOTrB5XXMIBkswCtXj08k0Xibon6sCwnelQXmBCrTKL1BFqe524BweyCv_uLftb51rKZj3qTvLh9Mo5fsdbCUgvwms4szpEPCjHebfoinW-SYR0-H5r7JZEDk5qriqLGvK355YyI92NZiKaoJ1m2ybI5XpKWJ3I2iqJw11H48yhednut1Iih4eo81wNF-t5OS5qkm6WlMOO3JC1JNs2-Crv9oE_QmhKZlDBXdCzJksStVjgGsu4JOi4K2RSlMA-LwkniXx9XnrpApXj3UlFeGk-lW_lvHc1u-mT5P7yoqYiRoBYQ__vIdRo2gs6D3qR47bRdlggVCcZf9suxxVV66LsiV2cyth9reqg8OhsSxOr1r3UONi0u6WRA8nlxb1kpkhbtazwRsxDgTP6DAT7ElfQYEj3OM7PaiITklJVOhxByeRNP3YK1tqlvFpOmOk0ymyM-xF0tqELnBr7aaGrYvTUmjB-GmJVzNv34W8R9flq3sTdr74NY3tCfbX2f3E1OhldWgWRp02tJs0pmWNU24Yu9Zn30JL-Ofza0PwVina6iPYo0wK8QF5Pwc-LuxMyXqGPDxv6EMqJDMeWtYMd2c6Z-ienj3EbxLPGaj7wO8113QZxLE_v6E2d9-EJk-Flzs6YjoFPzTNfsVNbx_c9_EJdwSpkTVvZ2oKZBDHYEPR1D0iT9AFNVz3m00]--></g></svg>