<?xml version="1.0" encoding="UTF-8" standalone="no"?><svg xmlns="http://www.w3.org/2000/svg" xmlns:xlink="http://www.w3.org/1999/xlink" contentStyleType="text/css" height="843px" preserveAspectRatio="none" style="width:643px;height:843px;background:#FFFFFF;" version="1.1" viewBox="0 0 643 843" width="643px" zoomAndPan="magnify"><defs/><g><text fill="#000000" font-family="sans-serif" font-size="14" font-weight="bold" lengthAdjust="spacing" textLength="299" x="162.085" y="22.9951">MySQL DB System Controller Contract</text><ellipse cx="333.67" cy="201.2969" fill="#222222" rx="10" ry="10" style="stroke:none;stroke-width:1.0;"/><g id="LookupOrCreate"><rect fill="#F1F1F1" height="50" rx="12.5" ry="12.5" style="stroke:#181818;stroke-width:0.5;" width="133" x="267.17" y="419.2969"/><line style="stroke:#181818;stroke-width:0.5;" x1="267.17" x2="400.17" y1="445.5938" y2="445.5938"/><text fill="#000000" font-family="sans-serif" font-size="14" lengthAdjust="spacing" textLength="113" x="277.17" y="437.292">LookupOrCreate</text></g><g id="Provisioning"><rect fill="#F1F1F1" height="50" rx="12.5" ry="12.5" style="stroke:#181818;stroke-width:0.5;" width="103" x="94.17" y="546.2969"/><line style="stroke:#181818;stroke-width:0.5;" x1="94.17" x2="197.17" y1="572.5938" y2="572.5938"/><text fill="#000000" font-family="sans-serif" font-size="14" lengthAdjust="spacing" textLength="83" x="104.17" y="564.292">Provisioning</text></g><g id="Active"><rect fill="#F1F1F1" height="50" rx="12.5" ry="12.5" style="stroke:#181818;stroke-width:0.5;" width="61" x="345.17" y="546.2969"/><line style="stroke:#181818;stroke-width:0.5;" x1="345.17" x2="406.17" y1="572.5938" y2="572.5938"/><text fill="#000000" font-family="sans-serif" font-size="14" lengthAdjust="spacing" textLength="41" x="355.17" y="564.292">Active</text></g><g id="Failed"><rect fill="#F1F1F1" height="50" rx="12.5" ry="12.5" style="stroke:#181818;stroke-width:0.5;" width="60" x="442.67" y="626.2969"/><line style="stroke:#181818;stroke-width:0.5;" x1="442.67" x2="502.67" y1="652.5938" y2="652.5938"/><text fill="#000000" font-family="sans-serif" font-size="14" lengthAdjust="spacing" textLength="40" x="452.67" y="644.292">Failed</text></g><g id="SecretWritten"><rect fill="#F1F1F1" height="50" rx="12.5" ry="12.5" style="stroke:#181818;stroke-width:0.5;" width="114" x="306.67" y="706.2969"/><line style="stroke:#181818;stroke-width:0.5;" x1="306.67" x2="420.67" y1="732.5938" y2="732.5938"/><text fill="#000000" font-family="sans-serif" font-size="14" lengthAdjust="spacing" textLength="94" x="316.67" y="724.292">SecretWritten</text></g><ellipse cx="418.67" cy="827.2969" fill="none" rx="10" ry="10" style="stroke:#222222;stroke-width:1.0;"/><ellipse cx="419.17" cy="827.7969" fill="#222222" rx="6" ry="6" style="stroke:none;stroke-width:1.0;"/><path d="M391.67,44.2969 L617.67,44.2969 A12.5,12.5 0 0 1 630.17,56.7969 L630.17,70.5938 L379.17,70.5938 L379.17,56.7969 A12.5,12.5 0 0 1 391.67,44.2969 " fill="#F1F1F1" style="stroke:#F1F1F1;stroke-width:1.0;"/><rect fill="none" height="314.2969" rx="12.5" ry="12.5" style="stroke:#181818;stroke-width:0.5;" width="251" x="379.17" y="44.2969"/><line style="stroke:#181818;stroke-width:0.5;" x1="379.17" x2="630.17" y1="70.5938" y2="70.5938"/><text fill="#000000" font-family="sans-serif" font-size="14" lengthAdjust="spacing" textLength="58" x="475.67" y="62.292">Deleting</text><ellipse cx="421.17" cy="91.5938" fill="#222222" rx="10" ry="10" style="stroke:none;stroke-width:1.0;"/><g id="Deleting.Exists"><rect fill="#F1F1F1" height="50" rx="12.5" ry="12.5" style="stroke:#181818;stroke-width:0.5;" width="60" x="391.17" y="138.5938"/><line style="stroke:#181818;stroke-width:0.5;" x1="391.17" x2="451.17" y1="164.8906" y2="164.8906"/><text fill="#000000" font-family="sans-serif" font-size="14" lengthAdjust="spacing" textLength="40" x="401.17" y="156.5889">Exists</text></g><g id="Deleting.Gone"><rect fill="#F1F1F1" height="50" rx="12.5" ry="12.5" style="stroke:#181818;stroke-width:0.5;" width="58" x="392.17" y="241.5938"/><line style="stroke:#181818;stroke-width:0.5;" x1="392.17" x2="450.17" y1="267.8906" y2="267.8906"/><text fill="#000000" font-family="sans-serif" font-size="14" lengthAdjust="spacing" textLength="38" x="402.17" y="259.5889">Gone</text></g><ellipse cx="421.17" cy="338.5938" fill="none" rx="10" ry="10" style="stroke:#222222;stroke-width:1.0;"/><ellipse cx="421.67" cy="339.0938" fill="#222222" rx="6" ry="6" style="stroke:none;stroke-width:1.0;"/><!--link *start*Deleting to Exists--><g id="link_*start*Deleting_Exists"><path d="M421.17,101.7438 C421.17,109.7838 421.17,121.9238 421.17,133.2438 " fill="none" id="*start*Deleting-to-Exists" style="stroke:#181818;stroke-width:1.0;"/><polygon fill="#181818" points="421.17,138.3738,425.17,129.3738,421.17,133.3738,417.17,129.3738,421.17,138.3738" style="stroke:#181818;stroke-width:1.0;"/></g><!--link Exists to Exists--><g id="link_Exists_Exists"><path d="M451.64,155.7238 C461.42,155.8038 469.17,158.4238 469.17,163.5938 C469.17,167.7938 464.05,170.3138 456.89,171.1538 " fill="none" id="Exists-to-Exists" style="stroke:#181818;stroke-width:1.0;"/><polygon fill="#181818" points="451.64,171.4638,460.864,174.916,456.631,171.1634,460.3835,166.9304,451.64,171.4638" style="stroke:#181818;stroke-width:1.0;"/><text fill="#000000" font-family="sans-serif" font-size="13" lengthAdjust="spacing" textLength="109" x="490.67" y="160.6606">delete submitted</text><text fill="#000000" font-family="sans-serif" font-size="13" lengthAdjust="spacing" textLength="140" x="475.17" y="175.7935">resource still returned</text></g><!--link Exists to Gone--><g id="link_Exists_Gone"><path d="M421.17,188.7838 C421.17,202.9238 421.17,220.8738 421.17,235.8738 " fill="none" id="Exists-to-Gone" style="stroke:#181818;stroke-width:1.0;"/><polygon fill="#181818" points="421.17,241.2538,425.17,232.2538,421.17,236.2538,417.17,232.2538,421.17,241.2538" style="stroke:#181818;stroke-width:1.0;"/><text fill="#000000" font-family="sans-serif" font-size="13" lengthAdjust="spacing" textLength="99" x="422.17" y="219.6606">get returns 404</text></g><!--link Gone to *end*Deleting--><g id="link_Gone_*end*Deleting"><path d="M421.17,291.6838 C421.17,302.1638 421.17,314.0938 421.17,323.1638 " fill="none" id="Gone-to-*end*Deleting" style="stroke:#181818;stroke-width:1.0;"/><polygon fill="#181818" points="421.17,328.4038,425.17,319.4038,421.17,323.4038,417.17,319.4038,421.17,328.4038" style="stroke:#181818;stroke-width:1.0;"/></g><!--link *start to LookupOrCreate--><g id="link_*start_LookupOrCreate"><path d="M333.67,211.4469 C333.67,244.5969 333.67,359.2969 333.67,413.9269 " fill="none" id="*start-to-LookupOrCreate" style="stroke:#181818;stroke-width:1.0;"/><polygon fill="#181818" points="333.67,419.0269,337.67,410.0269,333.67,414.0269,329.67,410.0269,333.67,419.0269" style="stroke:#181818;stroke-width:1.0;"/></g><!--link LookupOrCreate to Provisioning--><g id="link_LookupOrCreate_Provisioning"><path d="M267,447.4369 C186.59,451.5969 58.47,463.7569 28.67,499.2969 C6,526.3269 48.98,545.8869 89.08,557.5469 " fill="none" id="LookupOrCreate-to-Provisioning" style="stroke:#181818;stroke-width:1.0;"/><polygon fill="#181818" points="93.95,558.9269,86.3902,552.6142,89.1413,557.557,84.1985,560.3081,93.95,558.9269" style="stroke:#181818;stroke-width:1.0;"/><text fill="#000000" font-family="sans-serif" font-size="13" lengthAdjust="spacing" textLength="213" x="29.67" y="512.3638">CREATING / UPDATING / INACTIVE</text></g><!--link Provisioning to LookupOrCreate--><g id="link_Provisioning_LookupOrCreate"><path d="M196.12,546.1669 C212.94,537.4569 231.5,527.0869 247.67,516.2969 C267.11,503.3169 287.35,486.7869 303.31,472.9369 " fill="none" id="Provisioning-to-LookupOrCreate" style="stroke:#181818;stroke-width:1.0;"/><polygon fill="#181818" points="307.27,469.4769,297.8565,472.3729,303.5,472.7613,303.1116,478.4048,307.27,469.4769" style="stroke:#181818;stroke-width:1.0;"/><text fill="#000000" font-family="sans-serif" font-size="13" lengthAdjust="spacing" textLength="53" x="271.67" y="512.3638">requeue</text></g><!--link LookupOrCreate to Active--><g id="link_LookupOrCreate_Active"><path d="M341.76,469.3969 C348.68,489.9769 358.64,519.6269 365.98,541.4569 " fill="none" id="LookupOrCreate-to-Active" style="stroke:#181818;stroke-width:1.0;"/><polygon fill="#181818" points="367.59,546.2669,368.5298,536.463,366.0046,541.5249,360.9426,538.9996,367.59,546.2669" style="stroke:#181818;stroke-width:1.0;"/><text fill="#000000" font-family="sans-serif" font-size="13" lengthAdjust="spacing" textLength="45" x="358.67" y="512.3638">ACTIVE</text></g><!--link LookupOrCreate to Failed--><g id="link_LookupOrCreate_Failed"><path d="M378.87,469.5169 C391.07,477.7069 403.43,487.7469 412.67,499.2969 C441.94,535.8869 458.48,588.5669 466.5,621.0569 " fill="none" id="LookupOrCreate-to-Failed" style="stroke:#181818;stroke-width:1.0;"/><polygon fill="#181818" points="467.71,626.0869,469.4884,616.3999,466.5377,621.2262,461.7114,618.2755,467.71,626.0869" style="stroke:#181818;stroke-width:1.0;"/><text fill="#000000" font-family="sans-serif" font-size="13" lengthAdjust="spacing" textLength="150" x="424.67" y="512.3638">FAILED or terminal fault</text></g><!--link Active to SecretWritten--><g id="link_Active_SecretWritten"><path d="M373.82,596.6369 C371.68,624.7869 368.16,671.0969 365.88,701.1469 " fill="none" id="Active-to-SecretWritten" style="stroke:#181818;stroke-width:1.0;"/><polygon fill="#181818" points="365.5,706.1869,370.1823,697.5222,365.8857,701.2018,362.2061,696.9052,365.5,706.1869" style="stroke:#181818;stroke-width:1.0;"/></g><!--link SecretWritten to *end--><g id="link_SecretWritten_*end"><path d="M377.83,756.5069 C388.47,774.6869 402.62,798.8669 411.16,813.4769 " fill="none" id="SecretWritten-to-*end" style="stroke:#181818;stroke-width:1.0;"/><polygon fill="#181818" points="413.83,818.0369,412.7301,808.2496,411.3018,813.7232,405.8282,812.2948,413.83,818.0369" style="stroke:#181818;stroke-width:1.0;"/></g><!--link Failed to *end--><g id="link_Failed_*end"><path d="M465.16,676.4869 C453.7,713.4169 432.21,782.6469 423.02,812.2669 " fill="none" id="Failed-to-*end" style="stroke:#181818;stroke-width:1.0;"/><polygon fill="#181818" points="421.45,817.3269,427.9448,809.923,422.9365,812.553,420.3065,807.5446,421.45,817.3269" style="stroke:#181818;stroke-width:1.0;"/></g><!--SRC=[TL11JiD03BplAtn6gk3G4mUaaAHLf50AAN207a9YgXMRNV1wAoh4t_6cYKG4t3pZ6S_8hDaWN1sgcnAoIwWEdh63r5acPmpISQmRLkhnP0kpsGMKphs6jsjA2Mj6DOMzOarkhxrsLjiTd4DwcoUROhM4KxXRP-DOh99qKzpdVnr86jPx5El_aaMj3ROYMIH5cMVW21YfqxOsy5878uKdDNut5o_XUy20QiYBcWeRGduWpOnMJL2_bo-e8Nk4odCybw51Zb6V2c1yLlwXFNiXZiCFJkBRw43muRcB0UsJ9VGkK2CSQsEa7mUos4xzIsTZ-Hto8F0mFvkBfb-ChRxKDm00]--></g></svg>