<?xml version="1.0" encoding="UTF-8" standalone="no"?><svg xmlns="http://www.w3.org/2000/svg" xmlns:xlink="http://www.w3.org/1999/xlink" contentStyleType="text/css" height="652px" preserveAspectRatio="none" style="width:2801px;height:652px;background:#FFFFFF;" version="1.1" viewBox="0 0 2801 652" width="2801px" zoomAndPan="magnify"><defs/><g><text fill="#000000" font-family="sans-serif" font-size="14" font-weight="bold" lengthAdjust="spacing" textLength="339" x="1224.18" y="22.9951">MySQL DB System Reconcile State Machine</text><ellipse cx="16" cy="431.2969" fill="#222222" rx="10" ry="10" style="stroke:none;stroke-width:1.0;"/><g id="Observe"><rect fill="#F8FAFC" height="50.2656" rx="6" ry="6" style="stroke:#475569;stroke-width:0.5;" width="329" x="86" y="406.2969"/><line style="stroke:#475569;stroke-width:0.5;" x1="86" x2="415" y1="432.5938" y2="432.5938"/><text fill="#0F172A" font-family="sans-serif" font-size="14" lengthAdjust="spacing" textLength="58" x="221.5" y="424.292">Observe</text><text fill="#0F172A" font-family="sans-serif" font-size="12" lengthAdjust="spacing" textLength="309" x="91" y="448.7324">read spec, status, delete intent, and OCI lifecycle</text></g><rect fill="#F8FAFC" height="40" rx="6" ry="6" style="stroke:#475569;stroke-width:0.5;" width="122" x="475" y="411.2969"/><text fill="#0F172A" font-family="sans-serif" font-size="14" lengthAdjust="spacing" textLength="112" x="480" y="436.1436">ResolveByName</text><rect fill="#F8FAFC" height="40" rx="6" ry="6" style="stroke:#475569;stroke-width:0.5;" width="111" x="657" y="336.2969"/><text fill="#0F172A" font-family="sans-serif" font-size="14" lengthAdjust="spacing" textLength="101" x="662" y="361.1436">EvaluateReady</text><rect fill="#F8FAFC" height="40" rx="6" ry="6" style="stroke:#475569;stroke-width:0.5;" width="75" x="1067.5" y="429.2969"/><text fill="#0F172A" font-family="sans-serif" font-size="14" lengthAdjust="spacing" textLength="65" x="1072.5" y="454.1436">Retryable</text><rect fill="#F8FAFC" height="40" rx="6" ry="6" style="stroke:#475569;stroke-width:0.5;" width="50" x="687.5" y="502.2969"/><text fill="#0F172A" font-family="sans-serif" font-size="14" lengthAdjust="spacing" textLength="40" x="692.5" y="527.1436">Failed</text><rect fill="#F8FAFC" height="40" rx="6" ry="6" style="stroke:#475569;stroke-width:0.5;" width="173" x="828" y="261.2969"/><text fill="#0F172A" font-family="sans-serif" font-size="14" lengthAdjust="spacing" textLength="163" x="833" y="286.1436">RejectUnsupportedDrift</text><rect fill="#F8FAFC" height="40" rx="6" ry="6" style="stroke:#475569;stroke-width:0.5;" width="53" x="1238" y="261.2969"/><text fill="#0F172A" font-family="sans-serif" font-size="14" lengthAdjust="spacing" textLength="43" x="1243" y="286.1436">Ready</text><rect fill="#F8FAFC" height="40" rx="6" ry="6" style="stroke:#475569;stroke-width:0.5;" width="97" x="866" y="336.2969"/><text fill="#0F172A" font-family="sans-serif" font-size="14" lengthAdjust="spacing" textLength="87" x="871" y="361.1436">ApplyUpdate</text><rect fill="#F8FAFC" height="40" rx="6" ry="6" style="stroke:#475569;stroke-width:0.5;" width="88" x="1061" y="336.2969"/><text fill="#0F172A" font-family="sans-serif" font-size="14" lengthAdjust="spacing" textLength="78" x="1066" y="361.1436">SyncSecret</text><rect fill="#F8FAFC" height="40" rx="6" ry="6" style="stroke:#475569;stroke-width:0.5;" width="111" x="1209" y="336.2969"/><text fill="#0F172A" font-family="sans-serif" font-size="14" lengthAdjust="spacing" textLength="101" x="1214" y="361.1436">SecretBlocked</text><rect fill="#F8FAFC" height="40" rx="6" ry="6" style="stroke:#475569;stroke-width:0.5;" width="113" x="1518.5" y="466.2969"/><text fill="#0F172A" font-family="sans-serif" font-size="14" lengthAdjust="spacing" textLength="103" x="1523.5" y="491.1436">DeletePending</text><rect fill="#F8FAFC" height="40" rx="6" ry="6" style="stroke:#475569;stroke-width:0.5;" width="207" x="1929" y="394.2969"/><text fill="#0F172A" font-family="sans-serif" font-size="14" lengthAdjust="spacing" textLength="197" x="1934" y="419.1436">DeleteWorkRequestPending</text><rect fill="#F8FAFC" height="40" rx="6" ry="6" style="stroke:#475569;stroke-width:0.5;" width="169" x="2295" y="394.2969"/><text fill="#0F172A" font-family="sans-serif" font-size="14" lengthAdjust="spacing" textLength="159" x="2300" y="419.1436">DeleteCleanupBlocked</text><rect fill="#F8FAFC" height="40" rx="6" ry="6" style="stroke:#475569;stroke-width:0.5;" width="65" x="2524" y="394.2969"/><text fill="#0F172A" font-family="sans-serif" font-size="14" lengthAdjust="spacing" textLength="55" x="2529" y="419.1436">Deleted</text><g id="elem_GMN39"><path d="M1380,49.2969 L1380,277.2969 L1291.24,281.2969 L1380,285.2969 L1380,425.6172 A6,6 0 0 0 1386,431.6172 L1764,431.6172 A6,6 0 0 0 1770,425.6172 L1770,53.2969 L1760,43.2969 L1386,43.2969 A6,6 0 0 0 1380,49.2969 " fill="#FFF7ED" style="stroke:#181818;stroke-width:0.5;"/><path d="M1760,43.2969 L1760,50.2969 A3,3 0 0 0 1763,53.2969 L1770,53.2969 L1760,43.2969 " fill="#FFF7ED" style="stroke:#181818;stroke-width:0.5;"/><text fill="#0F172A" font-family="sans-serif" font-size="13" lengthAdjust="spacing" textLength="69" x="1386" y="60.3638">Archetype:</text><text fill="#0F172A" font-family="sans-serif" font-size="13" lengthAdjust="spacing" textLength="183" x="1386" y="75.4966">- resolved-drift-delete-secret</text><text fill="#0F172A" font-family="sans-serif" font-size="13" lengthAdjust="spacing" textLength="102" x="1386" y="90.6294">Update surface:</text><text fill="#0F172A" font-family="sans-serif" font-size="13" lengthAdjust="spacing" textLength="92" x="1386" y="105.7622">- displayName</text><text fill="#0F172A" font-family="sans-serif" font-size="13" lengthAdjust="spacing" textLength="79" x="1386" y="120.895">- description</text><text fill="#0F172A" font-family="sans-serif" font-size="13" lengthAdjust="spacing" textLength="92" x="1386" y="136.0278">- configuration</text><text fill="#0F172A" font-family="sans-serif" font-size="13" lengthAdjust="spacing" textLength="48" x="1386" y="151.1606">- shape</text><text fill="#0F172A" font-family="sans-serif" font-size="13" lengthAdjust="spacing" textLength="138" x="1386" y="166.2935">- data storage growth</text><text fill="#0F172A" font-family="sans-serif" font-size="13" lengthAdjust="spacing" textLength="108" x="1386" y="181.4263">- hostnameLabel</text><text fill="#0F172A" font-family="sans-serif" font-size="13" lengthAdjust="spacing" textLength="106" x="1386" y="196.5591">- high availability</text><text fill="#0F172A" font-family="sans-serif" font-size="13" lengthAdjust="spacing" textLength="95" x="1386" y="211.6919">- backup policy</text><text fill="#0F172A" font-family="sans-serif" font-size="13" lengthAdjust="spacing" textLength="142" x="1386" y="226.8247">- maintenance window</text><text fill="#0F172A" font-family="sans-serif" font-size="13" lengthAdjust="spacing" textLength="96" x="1386" y="241.9575">- freeform tags</text><text fill="#0F172A" font-family="sans-serif" font-size="13" lengthAdjust="spacing" textLength="88" x="1386" y="257.0903">- defined tags</text><text fill="#0F172A" font-family="sans-serif" font-size="13" lengthAdjust="spacing" textLength="139" x="1386" y="272.2231">Reject before mutate:</text><text fill="#0F172A" font-family="sans-serif" font-size="13" lengthAdjust="spacing" textLength="295" x="1386" y="287.356">- compartmentId drift in the current code path</text><text fill="#0F172A" font-family="sans-serif" font-size="13" lengthAdjust="spacing" textLength="234" x="1386" y="302.4888">- immutable network-placement drift</text><text fill="#0F172A" font-family="sans-serif" font-size="13" lengthAdjust="spacing" textLength="219" x="1386" y="317.6216">- immutable admin-credential drift</text><text fill="#0F172A" font-family="sans-serif" font-size="13" lengthAdjust="spacing" textLength="221" x="1386" y="332.7544">- immutable source or version drift</text><text fill="#0F172A" font-family="sans-serif" font-size="13" lengthAdjust="spacing" textLength="105" x="1386" y="347.8872">Boundary notes:</text><text fill="#0F172A" font-family="sans-serif" font-size="13" lengthAdjust="spacing" textLength="369" x="1386" y="363.02">- Managed and name-resolved reconciles currently do not</text><text fill="#0F172A" font-family="sans-serif" font-size="13" lengthAdjust="spacing" textLength="302" x="1402" y="378.1528">enter the update path, so mutable updates are</text><text fill="#0F172A" font-family="sans-serif" font-size="13" lengthAdjust="spacing" textLength="160" x="1402" y="393.2856">effectively bound-ID only.</text><text fill="#0F172A" font-family="sans-serif" font-size="13" lengthAdjust="spacing" textLength="364" x="1386" y="408.4185">- The formal secret-delete profile is stronger than current</text><text fill="#0F172A" font-family="sans-serif" font-size="13" lengthAdjust="spacing" textLength="303" x="1402" y="423.5513">code because Secret cleanup is still best-effort.</text></g><g id="elem_GMN42"><path d="M1830,475.2969 L1830,489.9669 L1631.56,493.9669 L1830,497.9669 L1830,639.7578 A6,6 0 0 0 1836,645.7578 L2229,645.7578 A6,6 0 0 0 2235,639.7578 L2235,479.2969 L2225,469.2969 L1836,469.2969 A6,6 0 0 0 1830,475.2969 " fill="#FFF7ED" style="stroke:#181818;stroke-width:0.5;"/><path d="M2225,469.2969 L2225,476.2969 A3,3 0 0 0 2228,479.2969 L2235,479.2969 L2225,469.2969 " fill="#FFF7ED" style="stroke:#181818;stroke-width:0.5;"/><text fill="#0F172A" font-family="sans-serif" font-size="13" lengthAdjust="spacing" textLength="90" x="1836" y="486.3638">Delete states:</text><text fill="#0F172A" font-family="sans-serif" font-size="13" lengthAdjust="spacing" textLength="102" x="1836" y="501.4966">- DeletePending</text><text fill="#0F172A" font-family="sans-serif" font-size="13" lengthAdjust="spacing" textLength="185" x="1836" y="516.6294">- DeleteWorkRequestPending</text><text fill="#0F172A" font-family="sans-serif" font-size="13" lengthAdjust="spacing" textLength="153" x="1836" y="531.7622">- DeleteCleanupBlocked</text><text fill="#0F172A" font-family="sans-serif" font-size="13" lengthAdjust="spacing" textLength="59" x="1836" y="546.895">- Deleted</text><text fill="#0F172A" font-family="sans-serif" font-size="13" lengthAdjust="spacing" textLength="103" x="1836" y="562.0278">Delete workflow:</text><text fill="#0F172A" font-family="sans-serif" font-size="13" lengthAdjust="spacing" textLength="380" x="1836" y="577.1606">- Look for an existing delete work request before submitting</text><text fill="#0F172A" font-family="sans-serif" font-size="13" lengthAdjust="spacing" textLength="118" x="1852" y="592.2935">a duplicate delete.</text><text fill="#0F172A" font-family="sans-serif" font-size="13" lengthAdjust="spacing" textLength="367" x="1836" y="607.4263">- Wait for the matching DB system delete work request to</text><text fill="#0F172A" font-family="sans-serif" font-size="13" lengthAdjust="spacing" textLength="356" x="1852" y="622.5591">succeed, or treat GetDbSystem not-found as complete.</text><text fill="#0F172A" font-family="sans-serif" font-size="13" lengthAdjust="spacing" textLength="384" x="1836" y="637.6919">- Attempt Secret cleanup only after OCI delete confirmation.</text></g><!--link *start to Observe--><g id="link_*start_Observe"><path d="M26.08,431.2969 C26.08,431.2969 80.84,431.2969 80.84,431.2969 " fill="none" id="*start-to-Observe" style="stroke:#181818;stroke-width:1.0;"/><polygon fill="#181818" points="85.84,431.2969,76.84,427.2969,80.84,431.2969,76.84,435.2969,85.84,431.2969" style="stroke:#181818;stroke-width:1.0;"/></g><!--link Observe to ResolveByName--><g id="link_Observe_ResolveByName"><path d="M415.34,431.2969 C415.34,431.2969 469.86,431.2969 469.86,431.2969 " fill="none" id="Observe-to-ResolveByName" style="stroke:#181818;stroke-width:1.0;"/><polygon fill="#181818" points="474.86,431.2969,465.86,427.2969,469.86,431.2969,465.86,435.2969,474.86,431.2969" style="stroke:#181818;stroke-width:1.0;"/><text fill="#000000" font-family="sans-serif" font-size="13" lengthAdjust="spacing" textLength="163" x="443.6" y="444.3638">status/spec OCID missing</text></g><!--link ResolveByName to EvaluateReady--><g id="link_ResolveByName_EvaluateReady"><path d="M597.36,423.2969 C631.83,423.2969 668,423.2969 668,423.2969 C668,423.2969 668,381.3969 668,381.3969 " fill="none" id="ResolveByName-to-EvaluateReady" style="stroke:#181818;stroke-width:1.0;"/><polygon fill="#181818" points="668,376.3969,664,385.3969,668,381.3969,672,385.3969,668,376.3969" style="stroke:#181818;stroke-width:1.0;"/><text fill="#000000" font-family="sans-serif" font-size="13" lengthAdjust="spacing" textLength="123" x="654.63" y="436.3638">OCI state in ACTIVE</text></g><!--link ResolveByName to Retryable--><g id="link_ResolveByName_Retryable"><path d="M597.16,440.2969 C597.16,440.2969 1062.28,440.2969 1062.28,440.2969 " fill="none" id="ResolveByName-to-Retryable" style="stroke:#181818;stroke-width:1.0;"/><polygon fill="#181818" points="1067.28,440.2969,1058.28,436.2969,1062.28,440.2969,1058.28,444.2969,1067.28,440.2969" style="stroke:#181818;stroke-width:1.0;"/><text fill="#000000" font-family="sans-serif" font-size="13" lengthAdjust="spacing" textLength="453" x="830.72" y="436.3638">OCI state in CREATING, UPDATING, INACTIVE, TRANSIENT_READ_ERROR</text></g><!--link ResolveByName to Failed--><g id="link_ResolveByName_Failed"><path d="M597.09,445.7969 C650.98,445.7969 721,445.7969 721,445.7969 C721,445.7969 721,497.1969 721,497.1969 " fill="none" id="ResolveByName-to-Failed" style="stroke:#181818;stroke-width:1.0;"/><polygon fill="#181818" points="721,502.1969,725,493.1969,721,497.1969,717,493.1969,721,502.1969" style="stroke:#181818;stroke-width:1.0;"/><text fill="#000000" font-family="sans-serif" font-size="13" lengthAdjust="spacing" textLength="259" x="685.74" y="458.8638">OCI state in FAILED, DELETING, DELETED</text></g><!--link EvaluateReady to RejectUnsupportedDrift--><g id="link_EvaluateReady_RejectUnsupportedDrift"><path d="M768.37,349.6269 C805.33,349.6269 847,349.6269 847,349.6269 C847,349.6269 847,306.4269 847,306.4269 " fill="none" id="EvaluateReady-to-RejectUnsupportedDrift" style="stroke:#181818;stroke-width:1.0;"/><polygon fill="#181818" points="847,301.4269,843,310.4269,847,306.4269,851,310.4269,847,301.4269" style="stroke:#181818;stroke-width:1.0;"/><text fill="#000000" font-family="sans-serif" font-size="13" lengthAdjust="spacing" textLength="275" x="553.29" y="345.6938">unsupported or immutable drift is detected</text></g><!--link RejectUnsupportedDrift to Ready--><g id="link_RejectUnsupportedDrift_Ready"><path d="M1001.02,271.2969 C1001.02,271.2969 1232.91,271.2969 1232.91,271.2969 " fill="none" id="RejectUnsupportedDrift-to-Ready" style="stroke:#181818;stroke-width:1.0;"/><polygon fill="#181818" points="1237.91,271.2969,1228.91,267.2969,1232.91,271.2969,1228.91,275.2969,1237.91,271.2969" style="stroke:#181818;stroke-width:1.0;"/><text fill="#000000" font-family="sans-serif" font-size="13" lengthAdjust="spacing" textLength="252" x="1117.96" y="267.3638">wait for the spec or live state to change</text></g><!--link EvaluateReady to ApplyUpdate--><g id="link_EvaluateReady_ApplyUpdate"><path d="M768.23,362.9669 C768.23,362.9669 860.82,362.9669 860.82,362.9669 " fill="none" id="EvaluateReady-to-ApplyUpdate" style="stroke:#181818;stroke-width:1.0;"/><polygon fill="#181818" points="865.82,362.9669,856.82,358.9669,860.82,362.9669,856.82,366.9669,865.82,362.9669" style="stroke:#181818;stroke-width:1.0;"/><text fill="#000000" font-family="sans-serif" font-size="13" lengthAdjust="spacing" textLength="158" x="815.53" y="376.0338">continue active reconcile</text></g><!--link ApplyUpdate to SyncSecret--><g id="link_ApplyUpdate_SyncSecret"><path d="M963.06,356.2969 C963.06,356.2969 1055.76,356.2969 1055.76,356.2969 " fill="none" id="ApplyUpdate-to-SyncSecret" style="stroke:#181818;stroke-width:1.0;"/><polygon fill="#181818" points="1060.76,356.2969,1051.76,352.2969,1055.76,356.2969,1051.76,360.2969,1060.76,356.2969" style="stroke:#181818;stroke-width:1.0;"/><text fill="#000000" font-family="sans-serif" font-size="13" lengthAdjust="spacing" textLength="231" x="777.41" y="352.3638">supported mutation path completes</text></g><!--link SyncSecret to SecretBlocked--><g id="link_SyncSecret_SecretBlocked"><path d="M1149.01,362.9669 C1149.01,362.9669 1203.94,362.9669 1203.94,362.9669 " fill="none" id="SyncSecret-to-SecretBlocked" style="stroke:#181818;stroke-width:1.0;"/><polygon fill="#181818" points="1208.94,362.9669,1199.94,358.9669,1203.94,362.9669,1199.94,366.9669,1208.94,362.9669" style="stroke:#181818;stroke-width:1.0;"/><text fill="#000000" font-family="sans-serif" font-size="13" lengthAdjust="spacing" textLength="105" x="1177.48" y="376.0338">Secret write fails</text></g><!--link SecretBlocked to SyncSecret--><g id="link_SecretBlocked_SyncSecret"><path d="M1208.71,349.6269 C1208.71,349.6269 1154.2,349.6269 1154.2,349.6269 " fill="none" id="SecretBlocked-to-SyncSecret" style="stroke:#181818;stroke-width:1.0;"/><polygon fill="#181818" points="1149.2,349.6269,1158.2,353.6269,1154.2,349.6269,1158.2,345.6269,1149.2,349.6269" style="stroke:#181818;stroke-width:1.0;"/><text fill="#000000" font-family="sans-serif" font-size="13" lengthAdjust="spacing" textLength="109" x="1071.46" y="345.6938">retry Secret sync</text></g><!--link SyncSecret to Ready--><g id="link_SyncSecret_Ready"><path d="M1105,336.1969 C1105,313.9869 1105,281.2969 1105,281.2969 C1105,281.2969 1232.8,281.2969 1232.8,281.2969 " fill="none" id="SyncSecret-to-Ready" style="stroke:#181818;stroke-width:1.0;"/><polygon fill="#181818" points="1237.8,281.2969,1228.8,277.2969,1232.8,281.2969,1228.8,285.2969,1237.8,281.2969" style="stroke:#181818;stroke-width:1.0;"/><text fill="#000000" font-family="sans-serif" font-size="13" lengthAdjust="spacing" textLength="176" x="1142.45" y="285.8638">Secret side effects succeed</text></g><!--link Ready to Ready--><g id="link_Ready_Ready"><path d="M1237.71,291.2969 C1230.18,291.2969 1224,291.2969 1224,291.2969 C1224,291.2969 1224,318.7969 1224,318.7969 C1224,318.7969 1306,318.7969 1306,318.7969 C1306,318.7969 1306,271.2969 1306,271.2969 C1306,271.2969 1296.02,271.2969 1296.02,271.2969 " fill="none" id="Ready-to-Ready" style="stroke:#181818;stroke-width:1.0;"/><polygon fill="#181818" points="1291.02,271.2969,1300.02,275.2969,1296.02,271.2969,1300.02,267.2969,1291.02,271.2969" style="stroke:#181818;stroke-width:1.0;"/><text fill="#000000" font-family="sans-serif" font-size="13" lengthAdjust="spacing" textLength="170" x="1097.14" y="309.8638">no supported drift remains</text></g><!--link Retryable to Retryable--><g id="link_Retryable_Retryable"><path d="M1067.13,434.7969 C1048.93,434.7969 1031,434.7969 1031,434.7969 C1031,434.7969 1031,417.2969 1031,417.2969 C1031,417.2969 1179,417.2969 1179,417.2969 C1179,417.2969 1179,444.9669 1179,444.9669 C1179,444.9669 1147.87,444.9669 1147.87,444.9669 " fill="none" id="Retryable-to-Retryable" style="stroke:#181818;stroke-width:1.0;"/><polygon fill="#181818" points="1142.87,444.9669,1151.87,448.9669,1147.87,444.9669,1151.87,440.9669,1142.87,444.9669" style="stroke:#181818;stroke-width:1.0;"/><text fill="#000000" font-family="sans-serif" font-size="13" lengthAdjust="spacing" textLength="159" x="942.58" y="408.3638">OCI remains nonterminal</text></g><!--link Failed to Failed--><g id="link_Failed_Failed"><path d="M687.43,522.2969 C682.08,522.2969 678,522.2969 678,522.2969 C678,522.2969 678,475.8969 678,475.8969 C678,475.8969 753,475.8969 753,475.8969 C753,475.8969 753,524.2969 753,524.2969 C753,524.2969 742.92,524.2969 742.92,524.2969 " fill="none" id="Failed-to-Failed" style="stroke:#181818;stroke-width:1.0;"/><polygon fill="#181818" points="737.92,524.2969,746.92,528.2969,742.92,524.2969,746.92,520.2969,737.92,524.2969" style="stroke:#181818;stroke-width:1.0;"/><text fill="#000000" font-family="sans-serif" font-size="13" lengthAdjust="spacing" textLength="135" x="575.83" y="493.9638">OCI remains terminal</text></g><!--link Ready to DeletePending--><g id="link_Ready_DeletePending"><path d="M1291.08,291.2969 C1316.18,291.2969 1350,291.2969 1350,291.2969 C1350,291.2969 1350,482.4969 1350,482.4969 C1350,482.4969 1513.22,482.4969 1513.22,482.4969 " fill="none" id="Ready-to-DeletePending" style="stroke:#181818;stroke-width:1.0;"/><polygon fill="#181818" points="1518.22,482.4969,1509.22,478.4969,1513.22,482.4969,1509.22,486.4969,1518.22,482.4969" style="stroke:#181818;stroke-width:1.0;"/><text fill="#000000" font-family="sans-serif" font-size="13" lengthAdjust="spacing" textLength="109" x="1351" y="452.1138">delete requested</text></g><!--link Retryable to DeletePending--><g id="link_Retryable_DeletePending"><path d="M1105,469.6669 C1105,479.4569 1105,489.0969 1105,489.0969 C1105,489.0969 1513.31,489.0969 1513.31,489.0969 " fill="none" id="Retryable-to-DeletePending" style="stroke:#181818;stroke-width:1.0;"/><polygon fill="#181818" points="1518.31,489.0969,1509.31,485.0969,1513.31,489.0969,1509.31,493.0969,1518.31,489.0969" style="stroke:#181818;stroke-width:1.0;"/><text fill="#000000" font-family="sans-serif" font-size="13" lengthAdjust="spacing" textLength="109" x="1189.44" y="502.1638">delete requested</text></g><!--link Failed to DeletePending--><g id="link_Failed_DeletePending"><path d="M705,502.1369 C705,498.4269 705,495.6969 705,495.6969 C705,495.6969 1513.25,495.6969 1513.25,495.6969 " fill="none" id="Failed-to-DeletePending" style="stroke:#181818;stroke-width:1.0;"/><polygon fill="#181818" points="1518.25,495.6969,1509.25,491.6969,1513.25,495.6969,1509.25,499.6969,1518.25,495.6969" style="stroke:#181818;stroke-width:1.0;"/><text fill="#000000" font-family="sans-serif" font-size="13" lengthAdjust="spacing" textLength="109" x="995.91" y="508.7638">delete requested</text></g><!--link DeletePending to DeleteWorkRequestPending--><g id="link_DeletePending_DeleteWorkRequestPending"><path d="M1631.78,481.6269 C1698.43,481.6269 1800,481.6269 1800,481.6269 C1800,481.6269 1800,412.7969 1800,412.7969 C1800,412.7969 1923.83,412.7969 1923.83,412.7969 " fill="none" id="DeletePending-to-DeleteWorkRequestPending" style="stroke:#181818;stroke-width:1.0;"/><polygon fill="#181818" points="1928.83,412.7969,1919.83,408.7969,1923.83,412.7969,1919.83,416.7969,1928.83,412.7969" style="stroke:#181818;stroke-width:1.0;"/><text fill="#000000" font-family="sans-serif" font-size="13" lengthAdjust="spacing" textLength="265" x="1801" y="465.4738">wait for the matching delete work request</text></g><!--link DeleteWorkRequestPending to DeleteCleanupBlocked--><g id="link_DeleteWorkRequestPending_DeleteCleanupBlocked"><path d="M2136.14,414.2969 C2136.14,414.2969 2289.75,414.2969 2289.75,414.2969 " fill="none" id="DeleteWorkRequestPending-to-DeleteCleanupBlocked" style="stroke:#181818;stroke-width:1.0;"/><polygon fill="#181818" points="2294.75,414.2969,2285.75,410.2969,2289.75,414.2969,2285.75,418.2969,2294.75,414.2969" style="stroke:#181818;stroke-width:1.0;"/><text fill="#000000" font-family="sans-serif" font-size="13" lengthAdjust="spacing" textLength="274" x="2213.95" y="427.3638">owned Secret cleanup fails after OCI delete</text></g><!--link DeleteCleanupBlocked to Deleted--><g id="link_DeleteCleanupBlocked_Deleted"><path d="M2464.11,407.6269 C2464.11,407.6269 2518.62,407.6269 2518.62,407.6269 " fill="none" id="DeleteCleanupBlocked-to-Deleted" style="stroke:#181818;stroke-width:1.0;"/><polygon fill="#181818" points="2523.62,407.6269,2514.62,403.6269,2518.62,407.6269,2514.62,411.6269,2523.62,407.6269" style="stroke:#181818;stroke-width:1.0;"/><text fill="#000000" font-family="sans-serif" font-size="13" lengthAdjust="spacing" textLength="301" x="2492.36" y="403.6938">retry Secret cleanup until completion is allowed</text></g><!--link Deleted to Deleted--><g id="link_Deleted_Deleted"><path d="M2523.79,420.9669 C2508.66,420.9669 2494,420.9669 2494,420.9669 C2494,420.9669 2494,455.6269 2494,455.6269 C2494,455.6269 2607,455.6269 2607,455.6269 C2607,455.6269 2607,414.2969 2607,414.2969 C2607,414.2969 2594.05,414.2969 2594.05,414.2969 " fill="none" id="Deleted-to-Deleted" style="stroke:#181818;stroke-width:1.0;"/><polygon fill="#181818" points="2589.05,414.2969,2598.05,418.2969,2594.05,414.2969,2598.05,410.2969,2589.05,414.2969" style="stroke:#181818;stroke-width:1.0;"/><text fill="#000000" font-family="sans-serif" font-size="13" lengthAdjust="spacing" textLength="100" x="2439.41" y="473.6938">terminal stutter</text></g><!--SRC=[XLRVRzis47xNNt70tWQhQxjcMVCmm8xjma2QTBQpFWn3GLCdcmj5QYGLroZwl- -Eb2BPST2ynEBTVRmVtzqngA0HFXvMVzx0T0AhWmzOmHAbDLAHP1L48BcGEsKmqrW621QSsku25CgX3CgQRASA1ApgS802lNIgZiV-GPbQE561tud2xfNPGYcqnu544suur0ZMXPqT29njJ26jC-ZWpTk1O2BampPAhwss3dwQnx-1He6bQ7HOuzSmrcfhAZG1sFUXHp6mRnd0nBe2NOlrxlBYuhVtT3gt9hHdh-TlBj-EMVFPpR_Fn_FhxFi0rzXpi9Dt5x- -VdyMOZw_d4tFNlWz-_ldVo3F_u2xZKVtY5dx7wx0eIZ0roX7CPB6ZoXgZNItCe727O4m1TnTBoZ19Sg3rBqr8oxHM_s8ayEjg1WlWVp2Y6mrXKfvJ_NAZXNPTFOeT4F9Mv8B1pBbIr8sbO7nzNhnr-oCrHA3EuYDnbEBw-Lil5xSVXZ1_QTf-sjnct16i5wERrUBsUtw2wbDlyoMoxlb6VIv8B8Mfz3pyU9cDXt1T7OpIy3n5wNxE8Ratxz4vdlZcxecAc8nTOh8VWLDVqGS1LLLJOXn5551UKfy85CiiXSm4dnArbwe02NXX1t6-Z6cLbILv3Krbzm9iyKpBexhMX_kwuBrhe0wD2ZJ80ZgGR9tNSzcGpssMnsCNA5qoE7qmN0StAPGYx0ZkAfc_lXie1wjuy-9jl8XPhWLxPqY-9BoJXP7Ai-kT5pwpiwJvFIABZcTIfmc9T4sUF9NIeovxIkLj8qT19EAuR0IolYi9zivwhLQ142juYfbXCvQ0ZtZKgVxfDZxCOtzzWbDmNFjgki_X_yrw1CTXbxyK7tWmWzrZnLway_MFIoJLczznBbA19xbsmvpJnOTSFOYI7_3jKPXchhdWzqR-j-MJYPfuWM8aj8MqvWkoyv2zDZ5ALawk8QehZkACcMfwuJMTl-KYbEOhbxKLasWZooBWpajBbic4cLZ9tTn-rnbETqSfqgHHoxboUNSHq-ojfryuqeXetgXVAr5747yDLXxEVTcgRQD4-qthRywQeaWo2Fhn1Q1ri0-xEXqPtqm17CZDgZvcvm4yKWf51kbLJZGsORs1YMYjbf9_cPMqfmNHb89bQ7bIeUbGwGwLn34raUdIiN5YPzfEC66DJ0rVuo3iofSu1svwFg8PYTpHJREyUgKbXgIfmIfz_EFzZQJ9wSiI8mhDXeVwOY2gf1J1WkIAoh7SnLl6oTv_SCZEi_5JJeJNfA2kC25y-pfHs4eRqNSR9ollAjOF_jyvxEcbuXbKzgi0CYD7aDgKXqv6DgS5ZelqZcnoc6oYEE7vYe1RTYJd7QYDVhmYXnP4n3dcUaLwT6I1MfdItur4JrzS9R6EDygJETLX8xPtA0KZSTJeaT3fJN9VSZ92PfkhpBaW2aBfoG-cW9j8wGz4lDrBCvV715FekF6V3hkUYpEYfAwZi5lh7s8GuMYmw-Al3u_Kph2-MPJgS1QCGa2YgOcBdCnaXKdzlFPIKNlKf_UfUVmWus0xPuOCP42lOu2VC0mtRGFMifRNd8PGVYdLSStZcauqBlrj0vSwMVZAxKrbPsxUb2L_m40]--></g></svg>