<?xml version="1.0" encoding="UTF-8" standalone="no"?><svg xmlns="http://www.w3.org/2000/svg" xmlns:xlink="http://www.w3.org/1999/xlink" contentStyleType="text/css" height="1500px" preserveAspectRatio="none" style="width:1884px;height:1500px;background:#FFFFFF;" version="1.1" viewBox="0 0 1884 1500" width="1884px" zoomAndPan="magnify"><defs/><g><text fill="#000000" font-family="sans-serif" font-size="14" font-weight="bold" lengthAdjust="spacing" textLength="243" x="819" y="32.9951">API Gateway Reconcile Activity</text><ellipse cx="720.625" cy="57.2969" fill="#0F766E" rx="10" ry="10" style="stroke:#222222;stroke-width:1.0;"/><rect fill="none" height="254.2031" style="stroke:#000000;stroke-width:1.5;" width="686" x="398.125" y="77.2969"/><path d="M531.125,77.2969 L531.125,86.5938 L521.125,96.5938 L398.125,96.5938 " fill="none" style="stroke:#000000;stroke-width:1.5;"/><text fill="#000000" font-family="sans-serif" font-size="14" lengthAdjust="spacing" textLength="123" x="401.125" y="91.292">Observe and Bind</text><rect fill="#F8FAFC" height="33.9688" rx="12.5" ry="12.5" style="stroke:#475569;stroke-width:0.5;" width="304" x="568.625" y="113.5938"/><text fill="#0F172A" font-family="sans-serif" font-size="12" lengthAdjust="spacing" textLength="284" x="578.625" y="134.7324">Read CR spec, status OCID, and delete intent</text><polygon fill="#E2E8F0" points="620.625,167.5625,820.625,167.5625,832.625,179.5625,820.625,191.5625,620.625,191.5625,608.625,179.5625,620.625,167.5625" style="stroke:#475569;stroke-width:0.5;"/><text fill="#0F172A" font-family="sans-serif" font-size="11" lengthAdjust="spacing" textLength="200" x="620.625" y="183.3706">"Tracked or explicit OCID present?"</text><text fill="#000000" font-family="sans-serif" font-size="11" lengthAdjust="spacing" textLength="20" x="588.625" y="176.9683">yes</text><text fill="#000000" font-family="sans-serif" font-size="11" lengthAdjust="spacing" textLength="14" x="832.625" y="176.9683">no</text><rect fill="#F8FAFC" height="33.9688" rx="12.5" ry="12.5" style="stroke:#475569;stroke-width:0.5;" width="272" x="418.125" y="201.5625"/><text fill="#0F172A" font-family="sans-serif" font-size="12" lengthAdjust="spacing" textLength="252" x="428.125" y="222.7012">Get the OCI resource by known identifier</text><rect fill="#F8FAFC" height="33.9688" rx="12.5" ry="12.5" style="stroke:#475569;stroke-width:0.5;" width="328" x="723.125" y="201.5625"/><text fill="#0F172A" font-family="sans-serif" font-size="12" lengthAdjust="spacing" textLength="308" x="733.125" y="222.7012">Resolve an existing OCI resource by display name</text><rect fill="#F8FAFC" height="33.9688" rx="12.5" ry="12.5" style="stroke:#475569;stroke-width:0.5;" width="354" x="710.125" y="255.5313"/><text fill="#0F172A" font-family="sans-serif" font-size="12" lengthAdjust="spacing" textLength="334" x="720.125" y="276.6699">Persist the resolved or created OCID back into status</text><polygon fill="#E2E8F0" points="720.625,295.5,732.625,307.5,720.625,319.5,708.625,307.5,720.625,295.5" style="stroke:#475569;stroke-width:0.5;"/><path d="M1456,745.2344 L1456,1133.5547 L1872,1133.5547 L1872,755.2344 L1862,745.2344 L1456,745.2344 " fill="#FEFFDD" style="stroke:#181818;stroke-width:0.5;"/><path d="M1862,745.2344 L1862,755.2344 L1872,755.2344 L1862,745.2344 " fill="#FEFFDD" style="stroke:#181818;stroke-width:0.5;"/><text fill="#000000" font-family="sans-serif" font-size="13" lengthAdjust="spacing" textLength="69" x="1462" y="762.3013">Archetype:</text><text fill="#000000" font-family="sans-serif" font-size="13" lengthAdjust="spacing" textLength="213" x="1462" y="777.4341">- resolved-drift-delete-secretwrite</text><text fill="#000000" font-family="sans-serif" font-size="13" lengthAdjust="spacing" textLength="134" x="1462" y="792.5669">Retryable OCI states:</text><text fill="#000000" font-family="sans-serif" font-size="13" lengthAdjust="spacing" textLength="73" x="1462" y="807.6997">- CREATING</text><text fill="#000000" font-family="sans-serif" font-size="13" lengthAdjust="spacing" textLength="76" x="1462" y="822.8325">- UPDATING</text><text fill="#000000" font-family="sans-serif" font-size="13" lengthAdjust="spacing" textLength="113" x="1462" y="837.9653">Active OCI states:</text><text fill="#000000" font-family="sans-serif" font-size="13" lengthAdjust="spacing" textLength="54" x="1462" y="853.0981">- ACTIVE</text><text fill="#000000" font-family="sans-serif" font-size="13" lengthAdjust="spacing" textLength="111" x="1462" y="868.231">Failed OCI states:</text><text fill="#000000" font-family="sans-serif" font-size="13" lengthAdjust="spacing" textLength="53" x="1462" y="883.3638">- FAILED</text><text fill="#000000" font-family="sans-serif" font-size="13" lengthAdjust="spacing" textLength="67" x="1462" y="898.4966">- DELETED</text><text fill="#000000" font-family="sans-serif" font-size="13" lengthAdjust="spacing" textLength="102" x="1462" y="913.6294">Update surface:</text><text fill="#000000" font-family="sans-serif" font-size="13" lengthAdjust="spacing" textLength="94" x="1462" y="928.7622">- display name</text><text fill="#000000" font-family="sans-serif" font-size="13" lengthAdjust="spacing" textLength="170" x="1462" y="943.895">- NetworkSecurityGroupIds</text><text fill="#000000" font-family="sans-serif" font-size="13" lengthAdjust="spacing" textLength="85" x="1462" y="959.0278">- CertificateId</text><text fill="#000000" font-family="sans-serif" font-size="13" lengthAdjust="spacing" textLength="96" x="1462" y="974.1606">- freeform tags</text><text fill="#000000" font-family="sans-serif" font-size="13" lengthAdjust="spacing" textLength="88" x="1462" y="989.2935">- defined tags</text><text fill="#000000" font-family="sans-serif" font-size="13" lengthAdjust="spacing" textLength="139" x="1462" y="1004.4263">Reject before mutate:</text><text fill="#000000" font-family="sans-serif" font-size="13" lengthAdjust="spacing" textLength="124" x="1462" y="1019.5591">- endpointType drift</text><text fill="#000000" font-family="sans-serif" font-size="13" lengthAdjust="spacing" textLength="93" x="1462" y="1034.6919">- subnetId drift</text><text fill="#000000" font-family="sans-serif" font-size="13" lengthAdjust="spacing" textLength="105" x="1462" y="1049.8247">Boundary notes:</text><text fill="#000000" font-family="sans-serif" font-size="13" lengthAdjust="spacing" textLength="395" x="1462" y="1064.9575">- Endpoint-topology drift remains outside the modeled update</text><text fill="#000000" font-family="sans-serif" font-size="13" lengthAdjust="spacing" textLength="51" x="1478" y="1080.0903">surface.</text><text fill="#000000" font-family="sans-serif" font-size="13" lengthAdjust="spacing" textLength="364" x="1462" y="1095.2231">- Code and tests treat OCI DELETING as requeueing even</text><text fill="#000000" font-family="sans-serif" font-size="13" lengthAdjust="spacing" textLength="366" x="1478" y="1110.356">though spec.cfg only names CREATING and UPDATING as</text><text fill="#000000" font-family="sans-serif" font-size="13" lengthAdjust="spacing" textLength="61" x="1478" y="1125.4888">retryable.</text><polygon fill="#E2E8F0" points="663.625,351.5,777.625,351.5,789.625,363.5,777.625,375.5,663.625,375.5,651.625,363.5,663.625,351.5" style="stroke:#475569;stroke-width:0.5;"/><text fill="#0F172A" font-family="sans-serif" font-size="11" lengthAdjust="spacing" textLength="114" x="663.625" y="367.3081">"Delete requested?"</text><text fill="#000000" font-family="sans-serif" font-size="11" lengthAdjust="spacing" textLength="20" x="631.625" y="360.9058">yes</text><text fill="#000000" font-family="sans-serif" font-size="11" lengthAdjust="spacing" textLength="14" x="789.625" y="360.9058">no</text><rect fill="none" height="220.2031" style="stroke:#000000;stroke-width:1.5;" width="708" x="11" y="385.5"/><path d="M67,385.5 L67,394.7969 L57,404.7969 L11,404.7969 " fill="none" style="stroke:#000000;stroke-width:1.5;"/><text fill="#000000" font-family="sans-serif" font-size="14" lengthAdjust="spacing" textLength="46" x="14" y="399.4951">Delete</text><rect fill="#F8FAFC" height="33.9688" rx="12.5" ry="12.5" style="stroke:#475569;stroke-width:0.5;" width="232" x="249" y="421.7969"/><text fill="#0F172A" font-family="sans-serif" font-size="12" lengthAdjust="spacing" textLength="212" x="259" y="442.9355">Submit OCI delete for API Gateway</text><rect fill="#F8FAFC" height="33.9688" rx="12.5" ry="12.5" style="stroke:#475569;stroke-width:0.5;" width="688" x="21" y="490.7656"/><text fill="#0F172A" font-family="sans-serif" font-size="12" lengthAdjust="spacing" textLength="668" x="31" y="511.9043">Confirm deletion with follow-up GetGateway calls until the lifecycle is DELETED or the resource is not found.</text><rect fill="#F8FAFC" height="33.9688" rx="12.5" ry="12.5" style="stroke:#475569;stroke-width:0.5;" width="338" x="196" y="559.7344"/><text fill="#0F172A" font-family="sans-serif" font-size="12" lengthAdjust="spacing" textLength="318" x="206" y="580.873">Remove the finalizer after OCI deletion is confirmed</text><ellipse cx="365" cy="651.7031" fill="none" rx="11" ry="11" style="stroke:#222222;stroke-width:1.0;"/><ellipse cx="365" cy="651.7031" fill="#222222" rx="6" ry="6" style="stroke:#111111;stroke-width:1.0;"/><rect fill="none" height="416.3594" style="stroke:#000000;stroke-width:1.5;" width="376" x="894.25" y="385.5"/><path d="M1055.25,385.5 L1055.25,394.7969 L1045.25,404.7969 L894.25,404.7969 " fill="none" style="stroke:#000000;stroke-width:1.5;"/><text fill="#000000" font-family="sans-serif" font-size="14" lengthAdjust="spacing" textLength="151" x="897.25" y="399.4951">Lifecycle Classification</text><rect fill="#F8FAFC" height="33.9688" rx="12.5" ry="12.5" style="stroke:#475569;stroke-width:0.5;" width="268" x="942.25" y="470.1992"/><text fill="#0F172A" font-family="sans-serif" font-size="12" lengthAdjust="spacing" textLength="248" x="952.25" y="491.3379">Request requeue and keep the finalizer</text><ellipse cx="1076.25" cy="550.168" fill="none" rx="11" ry="11" style="stroke:#222222;stroke-width:1.0;"/><ellipse cx="1076.25" cy="550.168" fill="#222222" rx="6" ry="6" style="stroke:#111111;stroke-width:1.0;"/><polygon fill="#E2E8F0" points="996.25,421.7969,1156.25,421.7969,1168.25,433.7969,1156.25,445.7969,996.25,445.7969,984.25,433.7969,996.25,421.7969" style="stroke:#475569;stroke-width:0.5;"/><text fill="#000000" font-family="sans-serif" font-size="11" lengthAdjust="spacing" textLength="20" x="1080.25" y="456.0073">yes</text><text fill="#0F172A" font-family="sans-serif" font-size="11" lengthAdjust="spacing" textLength="160" x="996.25" y="437.605">"OCI state in retryable set?"</text><rect fill="#F8FAFC" height="33.9688" rx="12.5" ry="12.5" style="stroke:#475569;stroke-width:0.5;" width="324" x="914.25" y="666.9727"/><text fill="#0F172A" font-family="sans-serif" font-size="12" lengthAdjust="spacing" textLength="304" x="924.25" y="688.1113">Return an unsuccessful terminal reconcile result</text><ellipse cx="1076.25" cy="740.457" fill="none" rx="11" ry="11" style="stroke:#222222;stroke-width:1.0;"/><ellipse cx="1076.25" cy="740.457" fill="#222222" rx="6" ry="6" style="stroke:#111111;stroke-width:1.0;"/><polygon fill="#E2E8F0" points="1006.25,618.5703,1146.25,618.5703,1158.25,630.5703,1146.25,642.5703,1006.25,642.5703,994.25,630.5703,1006.25,618.5703" style="stroke:#475569;stroke-width:0.5;"/><text fill="#000000" font-family="sans-serif" font-size="11" lengthAdjust="spacing" textLength="20" x="1080.25" y="652.7808">yes</text><text fill="#0F172A" font-family="sans-serif" font-size="11" lengthAdjust="spacing" textLength="140" x="1006.25" y="634.3784">"OCI state in failed set?"</text><rect fill="none" height="645.9141" style="stroke:#000000;stroke-width:1.5;" width="707" x="739" y="836.8594"/><path d="M918,836.8594 L918,846.1563 L908,856.1563 L739,856.1563 " fill="none" style="stroke:#000000;stroke-width:1.5;"/><text fill="#000000" font-family="sans-serif" font-size="14" lengthAdjust="spacing" textLength="169" x="742" y="850.8545">Ready and Drift Handling</text><rect fill="#F8FAFC" height="33.9688" rx="12.5" ry="12.5" style="stroke:#475569;stroke-width:0.5;" width="364" x="894.25" y="873.1563"/><text fill="#0F172A" font-family="sans-serif" font-size="12" lengthAdjust="spacing" textLength="344" x="904.25" y="894.2949">Compare live OCI state with the supported drift surface</text><rect fill="#F8FAFC" height="33.9688" rx="12.5" ry="12.5" style="stroke:#475569;stroke-width:0.5;" width="290" x="931.25" y="990.5273"/><text fill="#0F172A" font-family="sans-serif" font-size="12" lengthAdjust="spacing" textLength="270" x="941.25" y="1011.666">Reject the change before any OCI mutation</text><ellipse cx="1076.25" cy="1070.4961" fill="none" rx="11" ry="11" style="stroke:#222222;stroke-width:1.0;"/><ellipse cx="1076.25" cy="1070.4961" fill="#222222" rx="6" ry="6" style="stroke:#111111;stroke-width:1.0;"/><polygon fill="#E2E8F0" points="951.75,942.125,1200.75,942.125,1212.75,954.125,1200.75,966.125,951.75,966.125,939.75,954.125,951.75,942.125" style="stroke:#475569;stroke-width:0.5;"/><text fill="#000000" font-family="sans-serif" font-size="11" lengthAdjust="spacing" textLength="20" x="1080.25" y="976.3354">yes</text><text fill="#0F172A" font-family="sans-serif" font-size="11" lengthAdjust="spacing" textLength="249" x="951.75" y="957.9331">"Unsupported or immutable drift detected?"</text><rect fill="#F8FAFC" height="33.9688" rx="12.5" ry="12.5" style="stroke:#475569;stroke-width:0.5;" width="496" x="828.25" y="1146.8984"/><text fill="#0F172A" font-family="sans-serif" font-size="12" lengthAdjust="spacing" textLength="476" x="838.25" y="1168.0371">Move the gateway compartment before reconciling supported gateway drift.</text><rect fill="#F8FAFC" height="33.9688" rx="12.5" ry="12.5" style="stroke:#475569;stroke-width:0.5;" width="445" x="853.75" y="1200.8672"/><text fill="#0F172A" font-family="sans-serif" font-size="12" lengthAdjust="spacing" textLength="425" x="863.75" y="1222.0059">Write the connection Secret only after the gateway reaches ACTIVE.</text><polygon fill="#E2E8F0" points="998.75,1254.8359,1153.75,1254.8359,1165.75,1266.8359,1153.75,1278.8359,998.75,1278.8359,986.75,1266.8359,998.75,1254.8359" style="stroke:#475569;stroke-width:0.5;"/><text fill="#0F172A" font-family="sans-serif" font-size="11" lengthAdjust="spacing" textLength="155" x="998.75" y="1270.644">"Supported drift detected?"</text><text fill="#000000" font-family="sans-serif" font-size="11" lengthAdjust="spacing" textLength="20" x="966.75" y="1264.2417">yes</text><text fill="#000000" font-family="sans-serif" font-size="11" lengthAdjust="spacing" textLength="14" x="1165.75" y="1264.2417">no</text><rect fill="#F8FAFC" height="33.9688" rx="12.5" ry="12.5" style="stroke:#475569;stroke-width:0.5;" width="329" x="768.5" y="1288.8359"/><text fill="#0F172A" font-family="sans-serif" font-size="12" lengthAdjust="spacing" textLength="309" x="778.5" y="1309.9746">Apply only the supported in-place update surface</text><rect fill="#F8FAFC" height="33.9688" rx="12.5" ry="12.5" style="stroke:#475569;stroke-width:0.5;" width="204" x="1117.5" y="1288.8359"/><text fill="#0F172A" font-family="sans-serif" font-size="12" lengthAdjust="spacing" textLength="184" x="1127.5" y="1309.9746">Skip the no-op mutation path</text><polygon fill="#E2E8F0" points="1076.25,1328.8047,1088.25,1340.8047,1076.25,1352.8047,1064.25,1340.8047,1076.25,1328.8047" style="stroke:#475569;stroke-width:0.5;"/><polygon fill="#E2E8F0" points="1005.75,1372.8047,1146.75,1372.8047,1158.75,1384.8047,1146.75,1396.8047,1005.75,1396.8047,993.75,1384.8047,1005.75,1372.8047" style="stroke:#475569;stroke-width:0.5;"/><text fill="#0F172A" font-family="sans-serif" font-size="11" lengthAdjust="spacing" textLength="141" x="1005.75" y="1388.6128">"Secret sync succeeds?"</text><text fill="#000000" font-family="sans-serif" font-size="11" lengthAdjust="spacing" textLength="20" x="973.75" y="1382.2104">yes</text><text fill="#000000" font-family="sans-serif" font-size="11" lengthAdjust="spacing" textLength="14" x="1158.75" y="1382.2104">no</text><rect fill="#F8FAFC" height="33.9688" rx="12.5" ry="12.5" style="stroke:#475569;stroke-width:0.5;" width="287" x="759" y="1406.8047"/><text fill="#0F172A" font-family="sans-serif" font-size="12" lengthAdjust="spacing" textLength="267" x="769" y="1427.9434">Return success for the usable active state</text><rect fill="#F8FAFC" height="33.9688" rx="12.5" ry="12.5" style="stroke:#475569;stroke-width:0.5;" width="368" x="1066" y="1406.8047"/><text fill="#0F172A" font-family="sans-serif" font-size="12" lengthAdjust="spacing" textLength="348" x="1076" y="1427.9434">Block successful completion until Secret sync succeeds</text><polygon fill="#E2E8F0" points="1076.25,1446.7734,1088.25,1458.7734,1076.25,1470.7734,1064.25,1458.7734,1076.25,1446.7734" style="stroke:#475569;stroke-width:0.5;"/><line style="stroke:#334155;stroke-width:1.0;" x1="887.125" x2="887.125" y1="235.5313" y2="255.5313"/><polygon fill="#334155" points="883.125,245.5313,887.125,255.5313,891.125,245.5313,887.125,249.5313" style="stroke:#334155;stroke-width:1.0;"/><line style="stroke:#334155;stroke-width:1.0;" x1="608.625" x2="554.125" y1="179.5625" y2="179.5625"/><line style="stroke:#334155;stroke-width:1.0;" x1="554.125" x2="554.125" y1="179.5625" y2="201.5625"/><polygon fill="#334155" points="550.125,191.5625,554.125,201.5625,558.125,191.5625,554.125,195.5625" style="stroke:#334155;stroke-width:1.0;"/><line style="stroke:#334155;stroke-width:1.0;" x1="832.625" x2="887.125" y1="179.5625" y2="179.5625"/><line style="stroke:#334155;stroke-width:1.0;" x1="887.125" x2="887.125" y1="179.5625" y2="201.5625"/><polygon fill="#334155" points="883.125,191.5625,887.125,201.5625,891.125,191.5625,887.125,195.5625" style="stroke:#334155;stroke-width:1.0;"/><line style="stroke:#334155;stroke-width:1.0;" x1="554.125" x2="554.125" y1="235.5313" y2="307.5"/><line style="stroke:#334155;stroke-width:1.0;" x1="554.125" x2="708.625" y1="307.5" y2="307.5"/><polygon fill="#334155" points="698.625,303.5,708.625,307.5,698.625,311.5,702.625,307.5" style="stroke:#334155;stroke-width:1.0;"/><line style="stroke:#334155;stroke-width:1.0;" x1="887.125" x2="887.125" y1="289.5" y2="307.5"/><line style="stroke:#334155;stroke-width:1.0;" x1="887.125" x2="732.625" y1="307.5" y2="307.5"/><polygon fill="#334155" points="742.625,303.5,732.625,307.5,742.625,311.5,738.625,307.5" style="stroke:#334155;stroke-width:1.0;"/><line style="stroke:#334155;stroke-width:1.0;" x1="720.625" x2="720.625" y1="147.5625" y2="167.5625"/><polygon fill="#334155" points="716.625,157.5625,720.625,167.5625,724.625,157.5625,720.625,161.5625" style="stroke:#334155;stroke-width:1.0;"/><line style="stroke:#334155;stroke-width:1.0;" x1="720.625" x2="720.625" y1="67.2969" y2="113.5938"/><polygon fill="#334155" points="716.625,103.5938,720.625,113.5938,724.625,103.5938,720.625,107.5938" style="stroke:#334155;stroke-width:1.0;"/><line style="stroke:#334155;stroke-width:1.0;" x1="365" x2="365" y1="455.7656" y2="490.7656"/><polygon fill="#334155" points="361,480.7656,365,490.7656,369,480.7656,365,484.7656" style="stroke:#334155;stroke-width:1.0;"/><line style="stroke:#334155;stroke-width:1.0;" x1="365" x2="365" y1="524.7344" y2="559.7344"/><polygon fill="#334155" points="361,549.7344,365,559.7344,369,549.7344,365,553.7344" style="stroke:#334155;stroke-width:1.0;"/><line style="stroke:#334155;stroke-width:1.0;" x1="365" x2="365" y1="593.7031" y2="640.7031"/><polygon fill="#334155" points="361,630.7031,365,640.7031,369,630.7031,365,634.7031" style="stroke:#334155;stroke-width:1.0;"/><line style="stroke:#334155;stroke-width:1.0;" x1="1076.25" x2="1076.25" y1="504.168" y2="539.168"/><polygon fill="#334155" points="1072.25,529.168,1076.25,539.168,1080.25,529.168,1076.25,533.168" style="stroke:#334155;stroke-width:1.0;"/><line style="stroke:#334155;stroke-width:1.0;" x1="1076.25" x2="1076.25" y1="445.7969" y2="470.1992"/><polygon fill="#334155" points="1072.25,460.1992,1076.25,470.1992,1080.25,460.1992,1076.25,464.1992" style="stroke:#334155;stroke-width:1.0;"/><line style="stroke:#334155;stroke-width:1.0;" x1="1168.25" x2="1220.25" y1="433.7969" y2="433.7969"/><polygon fill="#334155" points="1216.25,502.6836,1220.25,512.6836,1224.25,502.6836,1220.25,506.6836" style="stroke:#334155;stroke-width:1.0;"/><line style="stroke:#334155;stroke-width:1.0;" x1="1220.25" x2="1220.25" y1="433.7969" y2="591.5703"/><line style="stroke:#334155;stroke-width:1.0;" x1="1220.25" x2="1076.25" y1="591.5703" y2="591.5703"/><line style="stroke:#334155;stroke-width:1.0;" x1="1076.25" x2="1076.25" y1="591.5703" y2="618.5703"/><polygon fill="#334155" points="1072.25,608.5703,1076.25,618.5703,1080.25,608.5703,1076.25,612.5703" style="stroke:#334155;stroke-width:1.0;"/><line style="stroke:#334155;stroke-width:1.0;" x1="1076.25" x2="1076.25" y1="700.9414" y2="729.457"/><polygon fill="#334155" points="1072.25,719.457,1076.25,729.457,1080.25,719.457,1076.25,723.457" style="stroke:#334155;stroke-width:1.0;"/><line style="stroke:#334155;stroke-width:1.0;" x1="1076.25" x2="1076.25" y1="642.5703" y2="666.9727"/><polygon fill="#334155" points="1072.25,656.9727,1076.25,666.9727,1080.25,656.9727,1076.25,660.9727" style="stroke:#334155;stroke-width:1.0;"/><line style="stroke:#334155;stroke-width:1.0;" x1="1158.25" x2="1248.25" y1="630.5703" y2="630.5703"/><polygon fill="#334155" points="1244.25,699.457,1248.25,709.457,1252.25,699.457,1248.25,703.457" style="stroke:#334155;stroke-width:1.0;"/><line style="stroke:#334155;stroke-width:1.0;" x1="1248.25" x2="1248.25" y1="630.5703" y2="781.8594"/><line style="stroke:#334155;stroke-width:1.0;" x1="1248.25" x2="1076.25" y1="781.8594" y2="781.8594"/><line style="stroke:#334155;stroke-width:1.0;" x1="1076.25" x2="1076.25" y1="781.8594" y2="873.1563"/><polygon fill="#334155" points="1072.25,863.1563,1076.25,873.1563,1080.25,863.1563,1076.25,867.1563" style="stroke:#334155;stroke-width:1.0;"/><line style="stroke:#334155;stroke-width:1.0;" x1="1076.25" x2="1076.25" y1="1024.4961" y2="1059.4961"/><polygon fill="#334155" points="1072.25,1049.4961,1076.25,1059.4961,1080.25,1049.4961,1076.25,1053.4961" style="stroke:#334155;stroke-width:1.0;"/><line style="stroke:#334155;stroke-width:1.0;" x1="1076.25" x2="1076.25" y1="966.125" y2="990.5273"/><polygon fill="#334155" points="1072.25,980.5273,1076.25,990.5273,1080.25,980.5273,1076.25,984.5273" style="stroke:#334155;stroke-width:1.0;"/><line style="stroke:#334155;stroke-width:1.0;" x1="1212.75" x2="1231.25" y1="954.125" y2="954.125"/><polygon fill="#334155" points="1227.25,1023.0117,1231.25,1033.0117,1235.25,1023.0117,1231.25,1027.0117" style="stroke:#334155;stroke-width:1.0;"/><line style="stroke:#334155;stroke-width:1.0;" x1="1231.25" x2="1231.25" y1="954.125" y2="1111.8984"/><line style="stroke:#334155;stroke-width:1.0;" x1="1231.25" x2="1076.25" y1="1111.8984" y2="1111.8984"/><line style="stroke:#334155;stroke-width:1.0;" x1="1076.25" x2="1076.25" y1="1111.8984" y2="1146.8984"/><polygon fill="#334155" points="1072.25,1136.8984,1076.25,1146.8984,1080.25,1136.8984,1076.25,1140.8984" style="stroke:#334155;stroke-width:1.0;"/><line style="stroke:#334155;stroke-width:1.0;" x1="1076.25" x2="1076.25" y1="907.125" y2="942.125"/><polygon fill="#334155" points="1072.25,932.125,1076.25,942.125,1080.25,932.125,1076.25,936.125" style="stroke:#334155;stroke-width:1.0;"/><line style="stroke:#334155;stroke-width:1.0;" x1="1076.25" x2="1076.25" y1="1180.8672" y2="1200.8672"/><polygon fill="#334155" points="1072.25,1190.8672,1076.25,1200.8672,1080.25,1190.8672,1076.25,1194.8672" style="stroke:#334155;stroke-width:1.0;"/><line style="stroke:#334155;stroke-width:1.0;" x1="986.75" x2="933" y1="1266.8359" y2="1266.8359"/><line style="stroke:#334155;stroke-width:1.0;" x1="933" x2="933" y1="1266.8359" y2="1288.8359"/><polygon fill="#334155" points="929,1278.8359,933,1288.8359,937,1278.8359,933,1282.8359" style="stroke:#334155;stroke-width:1.0;"/><line style="stroke:#334155;stroke-width:1.0;" x1="1165.75" x2="1219.5" y1="1266.8359" y2="1266.8359"/><line style="stroke:#334155;stroke-width:1.0;" x1="1219.5" x2="1219.5" y1="1266.8359" y2="1288.8359"/><polygon fill="#334155" points="1215.5,1278.8359,1219.5,1288.8359,1223.5,1278.8359,1219.5,1282.8359" style="stroke:#334155;stroke-width:1.0;"/><line style="stroke:#334155;stroke-width:1.0;" x1="933" x2="933" y1="1322.8047" y2="1340.8047"/><line style="stroke:#334155;stroke-width:1.0;" x1="933" x2="1064.25" y1="1340.8047" y2="1340.8047"/><polygon fill="#334155" points="1054.25,1336.8047,1064.25,1340.8047,1054.25,1344.8047,1058.25,1340.8047" style="stroke:#334155;stroke-width:1.0;"/><line style="stroke:#334155;stroke-width:1.0;" x1="1219.5" x2="1219.5" y1="1322.8047" y2="1340.8047"/><line style="stroke:#334155;stroke-width:1.0;" x1="1219.5" x2="1088.25" y1="1340.8047" y2="1340.8047"/><polygon fill="#334155" points="1098.25,1336.8047,1088.25,1340.8047,1098.25,1344.8047,1094.25,1340.8047" style="stroke:#334155;stroke-width:1.0;"/><line style="stroke:#334155;stroke-width:1.0;" x1="1076.25" x2="1076.25" y1="1234.8359" y2="1254.8359"/><polygon fill="#334155" points="1072.25,1244.8359,1076.25,1254.8359,1080.25,1244.8359,1076.25,1248.8359" style="stroke:#334155;stroke-width:1.0;"/><line style="stroke:#334155;stroke-width:1.0;" x1="993.75" x2="902.5" y1="1384.8047" y2="1384.8047"/><line style="stroke:#334155;stroke-width:1.0;" x1="902.5" x2="902.5" y1="1384.8047" y2="1406.8047"/><polygon fill="#334155" points="898.5,1396.8047,902.5,1406.8047,906.5,1396.8047,902.5,1400.8047" style="stroke:#334155;stroke-width:1.0;"/><line style="stroke:#334155;stroke-width:1.0;" x1="1158.75" x2="1250" y1="1384.8047" y2="1384.8047"/><line style="stroke:#334155;stroke-width:1.0;" x1="1250" x2="1250" y1="1384.8047" y2="1406.8047"/><polygon fill="#334155" points="1246,1396.8047,1250,1406.8047,1254,1396.8047,1250,1400.8047" style="stroke:#334155;stroke-width:1.0;"/><line style="stroke:#334155;stroke-width:1.0;" x1="902.5" x2="902.5" y1="1440.7734" y2="1458.7734"/><line style="stroke:#334155;stroke-width:1.0;" x1="902.5" x2="1064.25" y1="1458.7734" y2="1458.7734"/><polygon fill="#334155" points="1054.25,1454.7734,1064.25,1458.7734,1054.25,1462.7734,1058.25,1458.7734" style="stroke:#334155;stroke-width:1.0;"/><line style="stroke:#334155;stroke-width:1.0;" x1="1250" x2="1250" y1="1440.7734" y2="1458.7734"/><line style="stroke:#334155;stroke-width:1.0;" x1="1250" x2="1088.25" y1="1458.7734" y2="1458.7734"/><polygon fill="#334155" points="1098.25,1454.7734,1088.25,1458.7734,1098.25,1462.7734,1094.25,1458.7734" style="stroke:#334155;stroke-width:1.0;"/><line style="stroke:#334155;stroke-width:1.0;" x1="1076.25" x2="1076.25" y1="1352.8047" y2="1372.8047"/><polygon fill="#334155" points="1072.25,1362.8047,1076.25,1372.8047,1080.25,1362.8047,1076.25,1366.8047" style="stroke:#334155;stroke-width:1.0;"/><line style="stroke:#334155;stroke-width:1.0;" x1="651.625" x2="365" y1="363.5" y2="363.5"/><line style="stroke:#334155;stroke-width:1.0;" x1="365" x2="365" y1="363.5" y2="421.7969"/><polygon fill="#334155" points="361,411.7969,365,421.7969,369,411.7969,365,415.7969" style="stroke:#334155;stroke-width:1.0;"/><line style="stroke:#334155;stroke-width:1.0;" x1="789.625" x2="1076.25" y1="363.5" y2="363.5"/><line style="stroke:#334155;stroke-width:1.0;" x1="1076.25" x2="1076.25" y1="363.5" y2="421.7969"/><polygon fill="#334155" points="1072.25,411.7969,1076.25,421.7969,1080.25,411.7969,1076.25,415.7969" style="stroke:#334155;stroke-width:1.0;"/><line style="stroke:#334155;stroke-width:1.0;" x1="1076.25" x2="1076.25" y1="1470.7734" y2="1488.7734"/><line style="stroke:#334155;stroke-width:1.0;" x1="1076.25" x2="720.625" y1="1488.7734" y2="1488.7734"/><line style="stroke:#334155;stroke-width:1.0;" x1="720.625" x2="720.625" y1="319.5" y2="351.5"/><polygon fill="#334155" points="716.625,341.5,720.625,351.5,724.625,341.5,720.625,345.5" style="stroke:#334155;stroke-width:1.0;"/><!--SRC=[VLRRRjiu47tNLn3fImhKGTCsIHi_B1nViWQoRU0uky-qEBAvbaWjISNLBlhlEpEa73br4y21JCxbp9ap8mSTIX2Z-xcubG5siXKBoAt9DPtcGJ_fq6P-gqqjdQo4tqXbTzgiHI5B3xsR6vblryusHerjQPruC-E_diN8ERjBbny_VZg_kEXTAYXaKuObV0-ZKgzD1IQ84ehGiv49Z_Wl4qVoVPwDPcEwiKw1IwUVhYukBh_WwSoQaCxUpywlFepmRA9bPOtwATJqm_Jpx7tFu6Z4Xo3TSyYhoyif7axtGQvcvvFpIVOZysINPLX3q45R8qw-hJou9n3IA76ZZJhXYguN89KOBuIl8Nydq2qqNdmRpoVls5912G64DW6v6QA3BiJfoT8XUb02KyBtkjIv3kmZQWSU3NyxUIl21emuRS6_HIzCT0k1piXEe9LjN0vYrOgjiJiZj48tNMXmb0ImpUBKsEIwGFEIeMCwxGD9uMKOfNrTefACh60OtUx1URJch2w6OCYv0vITYeXNM0cLPrFjdDueNI296HSxYHGu-AS1Ztu_5TSZETf6QX71GxEg8ZKTaGNcxma_8HrRKsXNHICAjDDXWxPbQNU3fXR8NJSfkInBBneag-J2Ibr0tkOuETgBoVHkkfnEgCYkQEO7humD613bTZRiIAqiSafsXJQorF-24x88-7-Fbw2WRnxXWIBN7_ZnmTPPlqaz2kxsWCQbz1vxcakwwKXXJYa3yKtAGfZ1jNA57XwEIOV1Clcn2KqKyHQWFeG_JEOCZnvY8uzdBIIk6_LQoj0uGvfhZ6_o7Bml6kGSN4Nv44gtif1ct2A_J8uwEY289gxb2YPE5q7yZeybIdglch6jq9nQ-nJ79M9cJL2zlgbhwqZ1YWFunXKoJwhdGX_DimrgGLTL4vZWwA1GYVan9QV2_yPRpfHlf5dZU07AbaXl6Gu5er9UeVlwZqvRwqwtN5JW5PlYTGpIE3_ZxHmOQYVMlvmECHww68H7J3u0Jd8GrfHj4cu_8GvvlW4lHkFb_C_fMO-TXnVylKx7gAunFYSv95-R0MuSdAwcLjIVWpOSRZ1Q1LiTrMhimDPx3b4OOJCy9jPKdMzDBbX_eFohIaqYvHL3YHhFBUSN64GD_GBRJMbn2VP4JirAunytpJ4mmnSgZqzPKLh96net3lPOhpSX6pbiHMXhkCu6-rKyOFO7SJ4EF6VOKP-pnNuXxDNloNEyc8wMyw-t-FXuFucFerZUeM7iUJQB8tvuDnlDxwOJV4ZBCdiyQ1-PzDyb-FKhuh9kYnmq2A-znRTsFLUU084BSS71NE7tmW59kn91hkaUVs1eWmZuQvgh97uM06T3tcgBRw0byXCLYOU-MHa8yoJHx8OsjtGjayfbJ9FN08SFt_thD338RYMryS8smUDBbPLGMI9P9Q5osrArPrG4tl8wmiZ1Yq1lH-QC2KAEXVJTugM-mXCOZX4sjbbl-9V3MLwiuumGPtxVAOxRzGhZiDz-tv-HPhYax7y0]--></g></svg>