<?xml version="1.0" encoding="UTF-8" standalone="no"?><svg xmlns="http://www.w3.org/2000/svg" xmlns:xlink="http://www.w3.org/1999/xlink" contentStyleType="text/css" height="1394px" preserveAspectRatio="none" style="width:1254px;height:1394px;background:#FFFFFF;" version="1.1" viewBox="0 0 1254 1394" width="1254px" zoomAndPan="magnify"><defs/><g><text fill="#000000" font-family="sans-serif" font-size="14" font-weight="bold" lengthAdjust="spacing" textLength="264" x="496.75" y="27.9951">API Gateway Reconcile Sequence</text><rect fill="none" height="254.6719" style="stroke:#475569;stroke-width:1.5;" width="980" x="268.5" y="193.8594"/><rect fill="none" height="223.5391" style="stroke:#475569;stroke-width:1.5;" width="960" x="278.5" y="217.9922"/><rect fill="none" height="119.3359" style="stroke:#475569;stroke-width:1.5;" width="940" x="288.5" y="315.1953"/><rect fill="none" height="723" style="stroke:#475569;stroke-width:1.5;" width="1228.5" x="10" y="462.5313"/><rect fill="none" height="104.5313" style="stroke:#475569;stroke-width:1.5;" width="940" x="288.5" y="486.6641"/><rect fill="none" height="441.5234" style="stroke:#475569;stroke-width:1.5;" width="1208.5" x="20" y="707.875"/><rect fill="none" height="46.2656" style="stroke:#475569;stroke-width:1.5;" width="406.5" x="30" y="888.2031"/><rect fill="none" height="46.2656" style="stroke:#475569;stroke-width:1.5;" width="818" x="288.5" y="1006.7344"/><rect fill="none" height="46.2656" style="stroke:#475569;stroke-width:1.5;" width="406.5" x="30" y="1096.1328"/><line style="stroke:#94A3B8;stroke-width:0.5;stroke-dasharray:5.0,5.0;" x1="76" x2="76" y1="118.5938" y2="1313.3281"/><line style="stroke:#94A3B8;stroke-width:0.5;stroke-dasharray:5.0,5.0;" x1="362.5" x2="362.5" y1="118.5938" y2="1313.3281"/><line style="stroke:#94A3B8;stroke-width:0.5;stroke-dasharray:5.0,5.0;" x1="1078.5" x2="1078.5" y1="118.5938" y2="1313.3281"/><line style="stroke:#94A3B8;stroke-width:0.5;stroke-dasharray:5.0,5.0;" x1="1162.5" x2="1162.5" y1="118.5938" y2="1313.3281"/><text fill="#000000" font-family="sans-serif" font-size="14" lengthAdjust="spacing" textLength="67" x="40" y="115.292">Controller</text><ellipse cx="76.5" cy="50.7969" fill="#E0F2FE" rx="8" ry="8" style="stroke:#0F766E;stroke-width:0.5;"/><path d="M76.5,58.7969 L76.5,85.7969 M63.5,66.7969 L89.5,66.7969 M76.5,85.7969 L63.5,100.7969 M76.5,85.7969 L89.5,100.7969 " fill="none" style="stroke:#0F766E;stroke-width:0.5;"/><text fill="#000000" font-family="sans-serif" font-size="14" lengthAdjust="spacing" textLength="67" x="40" y="1325.3232">Controller</text><ellipse cx="76.5" cy="1337.125" fill="#E0F2FE" rx="8" ry="8" style="stroke:#0F766E;stroke-width:0.5;"/><path d="M76.5,1345.125 L76.5,1372.125 M63.5,1353.125 L89.5,1353.125 M76.5,1372.125 L63.5,1387.125 M76.5,1372.125 L89.5,1387.125 " fill="none" style="stroke:#0F766E;stroke-width:0.5;"/><rect fill="#F8FAFC" height="30.2969" rx="2.5" ry="2.5" style="stroke:#475569;stroke-width:0.5;" width="128" x="298.5" y="87.2969"/><text fill="#000000" font-family="sans-serif" font-size="14" lengthAdjust="spacing" textLength="114" x="305.5" y="107.292">Service Manager</text><rect fill="#F8FAFC" height="30.2969" rx="2.5" ry="2.5" style="stroke:#475569;stroke-width:0.5;" width="128" x="298.5" y="1312.3281"/><text fill="#000000" font-family="sans-serif" font-size="14" lengthAdjust="spacing" textLength="114" x="305.5" y="1332.3232">Service Manager</text><text fill="#000000" font-family="sans-serif" font-size="14" lengthAdjust="spacing" textLength="24" x="1063.5" y="115.292">OCI</text><path d="M1060.5,66.2969 C1060.5,56.2969 1078.5,56.2969 1078.5,56.2969 C1078.5,56.2969 1096.5,56.2969 1096.5,66.2969 L1096.5,92.2969 C1096.5,102.2969 1078.5,102.2969 1078.5,102.2969 C1078.5,102.2969 1060.5,102.2969 1060.5,92.2969 L1060.5,66.2969 " fill="#E2E2F0" style="stroke:#181818;stroke-width:1.5;"/><path d="M1060.5,66.2969 C1060.5,76.2969 1078.5,76.2969 1078.5,76.2969 C1078.5,76.2969 1096.5,76.2969 1096.5,66.2969 " fill="none" style="stroke:#181818;stroke-width:1.5;"/><text fill="#000000" font-family="sans-serif" font-size="14" lengthAdjust="spacing" textLength="24" x="1063.5" y="1325.3232">OCI</text><path d="M1060.5,1338.625 C1060.5,1328.625 1078.5,1328.625 1078.5,1328.625 C1078.5,1328.625 1096.5,1328.625 1096.5,1338.625 L1096.5,1364.625 C1096.5,1374.625 1078.5,1374.625 1078.5,1374.625 C1078.5,1374.625 1060.5,1374.625 1060.5,1364.625 L1060.5,1338.625 " fill="#E2E2F0" style="stroke:#181818;stroke-width:1.5;"/><path d="M1060.5,1338.625 C1060.5,1348.625 1078.5,1348.625 1078.5,1348.625 C1078.5,1348.625 1096.5,1348.625 1096.5,1338.625 " fill="none" style="stroke:#181818;stroke-width:1.5;"/><text fill="#000000" font-family="sans-serif" font-size="14" lengthAdjust="spacing" textLength="106" x="1106.5" y="115.292">Kubernetes API</text><path d="M1144.5,66.2969 C1144.5,56.2969 1162.5,56.2969 1162.5,56.2969 C1162.5,56.2969 1180.5,56.2969 1180.5,66.2969 L1180.5,92.2969 C1180.5,102.2969 1162.5,102.2969 1162.5,102.2969 C1162.5,102.2969 1144.5,102.2969 1144.5,92.2969 L1144.5,66.2969 " fill="#E2E2F0" style="stroke:#181818;stroke-width:1.5;"/><path d="M1144.5,66.2969 C1144.5,76.2969 1162.5,76.2969 1162.5,76.2969 C1162.5,76.2969 1180.5,76.2969 1180.5,66.2969 " fill="none" style="stroke:#181818;stroke-width:1.5;"/><text fill="#000000" font-family="sans-serif" font-size="14" lengthAdjust="spacing" textLength="106" x="1106.5" y="1325.3232">Kubernetes API</text><path d="M1144.5,1338.625 C1144.5,1328.625 1162.5,1328.625 1162.5,1328.625 C1162.5,1328.625 1180.5,1328.625 1180.5,1338.625 L1180.5,1364.625 C1180.5,1374.625 1162.5,1374.625 1162.5,1374.625 C1162.5,1374.625 1144.5,1374.625 1144.5,1364.625 L1144.5,1338.625 " fill="#E2E2F0" style="stroke:#181818;stroke-width:1.5;"/><path d="M1144.5,1338.625 C1144.5,1348.625 1162.5,1348.625 1162.5,1348.625 C1162.5,1348.625 1180.5,1348.625 1180.5,1338.625 " fill="none" style="stroke:#181818;stroke-width:1.5;"/><polygon fill="#334155" points="350.5,145.7266,360.5,149.7266,350.5,153.7266,354.5,149.7266" style="stroke:#334155;stroke-width:1.0;"/><line style="stroke:#334155;stroke-width:1.0;" x1="76.5" x2="356.5" y1="149.7266" y2="149.7266"/><text fill="#000000" font-family="sans-serif" font-size="13" font-weight="bold" lengthAdjust="spacing" textLength="9" x="83.5" y="144.6606">1</text><text fill="#000000" font-family="sans-serif" font-size="13" lengthAdjust="spacing" textLength="239" x="96.5" y="144.6606">reconcile desired spec and live status</text><polygon fill="#334155" points="1150.5,174.8594,1160.5,178.8594,1150.5,182.8594,1154.5,178.8594" style="stroke:#334155;stroke-width:1.0;"/><line style="stroke:#334155;stroke-width:1.0;" x1="362.5" x2="1156.5" y1="178.8594" y2="178.8594"/><text fill="#000000" font-family="sans-serif" font-size="13" font-weight="bold" lengthAdjust="spacing" textLength="9" x="369.5" y="173.7935">2</text><text fill="#000000" font-family="sans-serif" font-size="13" lengthAdjust="spacing" textLength="212" x="382.5" y="173.7935">read CR status and finalizer state</text><path d="M268.5,193.8594 L438.5,193.8594 L438.5,200.9922 L428.5,210.9922 L268.5,210.9922 L268.5,193.8594 " fill="#F8FAFC" style="stroke:#475569;stroke-width:1.5;"/><rect fill="none" height="254.6719" style="stroke:#475569;stroke-width:1.5;" width="980" x="268.5" y="193.8594"/><text fill="#000000" font-family="sans-serif" font-size="13" font-weight="bold" lengthAdjust="spacing" textLength="125" x="283.5" y="206.9263">Lookup and bind</text><path d="M278.5,217.9922 L342.5,217.9922 L342.5,225.125 L332.5,235.125 L278.5,235.125 L278.5,217.9922 " fill="#F8FAFC" style="stroke:#475569;stroke-width:1.5;"/><rect fill="none" height="223.5391" style="stroke:#475569;stroke-width:1.5;" width="960" x="278.5" y="217.9922"/><text fill="#000000" font-family="sans-serif" font-size="13" font-weight="bold" lengthAdjust="spacing" textLength="19" x="293.5" y="231.0591">alt</text><text fill="#000000" font-family="sans-serif" font-size="11" font-weight="bold" lengthAdjust="spacing" textLength="256" x="357.5" y="230.2026">[tracked or explicit OCID already exists]</text><polygon fill="#334155" points="1066.5,252.2578,1076.5,256.2578,1066.5,260.2578,1070.5,256.2578" style="stroke:#334155;stroke-width:1.0;"/><line style="stroke:#334155;stroke-width:1.0;" x1="362.5" x2="1072.5" y1="256.2578" y2="256.2578"/><text fill="#000000" font-family="sans-serif" font-size="13" font-weight="bold" lengthAdjust="spacing" textLength="9" x="369.5" y="251.1919">3</text><text fill="#000000" font-family="sans-serif" font-size="13" lengthAdjust="spacing" textLength="278" x="382.5" y="251.1919">get the current resource by known identifier</text><line style="stroke:#475569;stroke-width:1.0;stroke-dasharray:2.0,2.0;" x1="278.5" x2="1238.5" y1="265.2578" y2="265.2578"/><text fill="#000000" font-family="sans-serif" font-size="11" font-weight="bold" lengthAdjust="spacing" textLength="145" x="283.5" y="275.4683">[no OCID is bound yet]</text><polygon fill="#334155" points="1066.5,296.1953,1076.5,300.1953,1066.5,304.1953,1070.5,300.1953" style="stroke:#334155;stroke-width:1.0;"/><line style="stroke:#334155;stroke-width:1.0;" x1="362.5" x2="1072.5" y1="300.1953" y2="300.1953"/><text fill="#000000" font-family="sans-serif" font-size="13" font-weight="bold" lengthAdjust="spacing" textLength="9" x="369.5" y="295.1294">4</text><text fill="#000000" font-family="sans-serif" font-size="13" lengthAdjust="spacing" textLength="193" x="382.5" y="295.1294">list resources by display name</text><path d="M288.5,315.1953 L352.5,315.1953 L352.5,322.3281 L342.5,332.3281 L288.5,332.3281 L288.5,315.1953 " fill="#F8FAFC" style="stroke:#475569;stroke-width:1.5;"/><rect fill="none" height="119.3359" style="stroke:#475569;stroke-width:1.5;" width="940" x="288.5" y="315.1953"/><text fill="#000000" font-family="sans-serif" font-size="13" font-weight="bold" lengthAdjust="spacing" textLength="19" x="303.5" y="328.2622">alt</text><text fill="#000000" font-family="sans-serif" font-size="11" font-weight="bold" lengthAdjust="spacing" textLength="162" x="367.5" y="327.4058">[existing resource found]</text><polygon fill="#334155" points="1150.5,349.4609,1160.5,353.4609,1150.5,357.4609,1154.5,353.4609" style="stroke:#334155;stroke-width:1.0;"/><line style="stroke:#334155;stroke-width:1.0;" x1="362.5" x2="1156.5" y1="353.4609" y2="353.4609"/><text fill="#000000" font-family="sans-serif" font-size="13" font-weight="bold" lengthAdjust="spacing" textLength="9" x="369.5" y="348.395">5</text><text fill="#000000" font-family="sans-serif" font-size="13" lengthAdjust="spacing" textLength="221" x="382.5" y="348.395">persist the resolved OCID in status</text><line style="stroke:#475569;stroke-width:1.0;stroke-dasharray:2.0,2.0;" x1="288.5" x2="1228.5" y1="362.4609" y2="362.4609"/><text fill="#000000" font-family="sans-serif" font-size="11" font-weight="bold" lengthAdjust="spacing" textLength="182" x="293.5" y="372.6714">[no existing resource found]</text><polygon fill="#334155" points="1066.5,393.3984,1076.5,397.3984,1066.5,401.3984,1070.5,397.3984" style="stroke:#334155;stroke-width:1.0;"/><line style="stroke:#334155;stroke-width:1.0;" x1="362.5" x2="1072.5" y1="397.3984" y2="397.3984"/><text fill="#000000" font-family="sans-serif" font-size="13" font-weight="bold" lengthAdjust="spacing" textLength="9" x="369.5" y="392.3325">6</text><text fill="#000000" font-family="sans-serif" font-size="13" lengthAdjust="spacing" textLength="152" x="382.5" y="392.3325">create the OCI resource</text><polygon fill="#334155" points="1150.5,422.5313,1160.5,426.5313,1150.5,430.5313,1154.5,426.5313" style="stroke:#334155;stroke-width:1.0;"/><line style="stroke:#334155;stroke-width:1.0;" x1="362.5" x2="1156.5" y1="426.5313" y2="426.5313"/><text fill="#000000" font-family="sans-serif" font-size="13" font-weight="bold" lengthAdjust="spacing" textLength="9" x="369.5" y="421.4653">7</text><text fill="#000000" font-family="sans-serif" font-size="13" lengthAdjust="spacing" textLength="216" x="382.5" y="421.4653">persist the created OCID in status</text><path d="M10,462.5313 L74,462.5313 L74,469.6641 L64,479.6641 L10,479.6641 L10,462.5313 " fill="#F8FAFC" style="stroke:#475569;stroke-width:1.5;"/><rect fill="none" height="723" style="stroke:#475569;stroke-width:1.5;" width="1228.5" x="10" y="462.5313"/><text fill="#000000" font-family="sans-serif" font-size="13" font-weight="bold" lengthAdjust="spacing" textLength="19" x="25" y="475.5981">alt</text><text fill="#000000" font-family="sans-serif" font-size="11" font-weight="bold" lengthAdjust="spacing" textLength="120" x="89" y="474.7417">[delete requested]</text><path d="M288.5,486.6641 L381.5,486.6641 L381.5,493.7969 L371.5,503.7969 L288.5,503.7969 L288.5,486.6641 " fill="#F8FAFC" style="stroke:#475569;stroke-width:1.5;"/><rect fill="none" height="104.5313" style="stroke:#475569;stroke-width:1.5;" width="940" x="288.5" y="486.6641"/><text fill="#000000" font-family="sans-serif" font-size="13" font-weight="bold" lengthAdjust="spacing" textLength="48" x="303.5" y="499.731">Delete</text><polygon fill="#334155" points="1066.5,520.9297,1076.5,524.9297,1066.5,528.9297,1070.5,524.9297" style="stroke:#334155;stroke-width:1.0;"/><line style="stroke:#334155;stroke-width:1.0;" x1="362.5" x2="1072.5" y1="524.9297" y2="524.9297"/><text fill="#000000" font-family="sans-serif" font-size="13" font-weight="bold" lengthAdjust="spacing" textLength="9" x="369.5" y="519.8638">8</text><text fill="#000000" font-family="sans-serif" font-size="13" lengthAdjust="spacing" textLength="114" x="382.5" y="519.8638">submit OCI delete</text><polygon fill="#334155" points="1066.5,550.0625,1076.5,554.0625,1066.5,558.0625,1070.5,554.0625" style="stroke:#334155;stroke-width:1.0;"/><line style="stroke:#334155;stroke-width:1.0;" x1="362.5" x2="1072.5" y1="554.0625" y2="554.0625"/><text fill="#000000" font-family="sans-serif" font-size="13" font-weight="bold" lengthAdjust="spacing" textLength="9" x="369.5" y="548.9966">9</text><text fill="#000000" font-family="sans-serif" font-size="13" lengthAdjust="spacing" textLength="679" x="382.5" y="548.9966">Confirm deletion with follow-up GetGateway calls until the lifecycle is DELETED or the resource is not found.</text><polygon fill="#334155" points="1150.5,579.1953,1160.5,583.1953,1150.5,587.1953,1154.5,583.1953" style="stroke:#334155;stroke-width:1.0;"/><line style="stroke:#334155;stroke-width:1.0;" x1="362.5" x2="1156.5" y1="583.1953" y2="583.1953"/><text fill="#000000" font-family="sans-serif" font-size="13" font-weight="bold" lengthAdjust="spacing" textLength="18" x="369.5" y="578.1294">10</text><text fill="#000000" font-family="sans-serif" font-size="13" lengthAdjust="spacing" textLength="289" x="391.5" y="578.1294">remove the finalizer after delete confirmation</text><line style="stroke:#475569;stroke-width:1.0;stroke-dasharray:2.0,2.0;" x1="10" x2="1238.5" y1="599.1953" y2="599.1953"/><text fill="#000000" font-family="sans-serif" font-size="11" font-weight="bold" lengthAdjust="spacing" textLength="147" x="15" y="609.4058">[OCI state is retryable]</text><polygon fill="#334155" points="87.5,630.1328,77.5,634.1328,87.5,638.1328,83.5,634.1328" style="stroke:#334155;stroke-width:1.0;"/><line style="stroke:#334155;stroke-width:1.0;stroke-dasharray:2.0,2.0;" x1="81.5" x2="361.5" y1="634.1328" y2="634.1328"/><text fill="#000000" font-family="sans-serif" font-size="13" font-weight="bold" lengthAdjust="spacing" textLength="18" x="93.5" y="629.0669">11</text><text fill="#000000" font-family="sans-serif" font-size="13" lengthAdjust="spacing" textLength="110" x="115.5" y="629.0669">requeue required</text><line style="stroke:#475569;stroke-width:1.0;stroke-dasharray:2.0,2.0;" x1="10" x2="1238.5" y1="643.1328" y2="643.1328"/><text fill="#000000" font-family="sans-serif" font-size="11" font-weight="bold" lengthAdjust="spacing" textLength="200" x="15" y="653.3433">[OCI state is failed or terminal]</text><polygon fill="#334155" points="87.5,674.0703,77.5,678.0703,87.5,682.0703,83.5,678.0703" style="stroke:#334155;stroke-width:1.0;"/><line style="stroke:#334155;stroke-width:1.0;stroke-dasharray:2.0,2.0;" x1="81.5" x2="361.5" y1="678.0703" y2="678.0703"/><text fill="#000000" font-family="sans-serif" font-size="13" font-weight="bold" lengthAdjust="spacing" textLength="18" x="93.5" y="673.0044">12</text><text fill="#000000" font-family="sans-serif" font-size="13" lengthAdjust="spacing" textLength="240" x="115.5" y="673.0044">unsuccessful terminal reconcile result</text><line style="stroke:#475569;stroke-width:1.0;stroke-dasharray:2.0,2.0;" x1="10" x2="1238.5" y1="687.0703" y2="687.0703"/><text fill="#000000" font-family="sans-serif" font-size="11" font-weight="bold" lengthAdjust="spacing" textLength="203" x="15" y="697.2808">[OCI state is active and usable]</text><path d="M20,707.875 L167,707.875 L167,715.0078 L157,725.0078 L20,725.0078 L20,707.875 " fill="#F8FAFC" style="stroke:#475569;stroke-width:1.5;"/><rect fill="none" height="441.5234" style="stroke:#475569;stroke-width:1.5;" width="1208.5" x="20" y="707.875"/><text fill="#000000" font-family="sans-serif" font-size="13" font-weight="bold" lengthAdjust="spacing" textLength="102" x="35" y="720.9419">Drift handling</text><path d="M324,730.0078 L324,876.0078 L1117,876.0078 L1117,740.0078 L1107,730.0078 L324,730.0078 " fill="#FEFFDD" style="stroke:#181818;stroke-width:0.5;"/><path d="M1107,730.0078 L1107,740.0078 L1117,740.0078 L1107,730.0078 " fill="#FEFFDD" style="stroke:#181818;stroke-width:0.5;"/><text fill="#000000" font-family="sans-serif" font-size="13" lengthAdjust="spacing" textLength="171" x="330" y="747.0747">Supported update surface:</text><text fill="#000000" font-family="sans-serif" font-size="13" lengthAdjust="spacing" textLength="94" x="330" y="762.2075">- display name</text><text fill="#000000" font-family="sans-serif" font-size="13" lengthAdjust="spacing" textLength="170" x="330" y="777.3403">- NetworkSecurityGroupIds</text><text fill="#000000" font-family="sans-serif" font-size="13" lengthAdjust="spacing" textLength="85" x="330" y="792.4731">- CertificateId</text><text fill="#000000" font-family="sans-serif" font-size="13" lengthAdjust="spacing" textLength="96" x="330" y="807.606">- freeform tags</text><text fill="#000000" font-family="sans-serif" font-size="13" lengthAdjust="spacing" textLength="88" x="330" y="822.7388">- defined tags</text><text fill="#000000" font-family="sans-serif" font-size="13" lengthAdjust="spacing" textLength="139" x="330" y="837.8716">Reject before mutate:</text><text fill="#000000" font-family="sans-serif" font-size="13" lengthAdjust="spacing" textLength="124" x="330" y="853.0044">- endpointType drift</text><text fill="#000000" font-family="sans-serif" font-size="13" lengthAdjust="spacing" textLength="93" x="330" y="868.1372">- subnetId drift</text><path d="M30,888.2031 L100,888.2031 L100,895.3359 L90,905.3359 L30,905.3359 L30,888.2031 " fill="#F8FAFC" style="stroke:#475569;stroke-width:1.5;"/><rect fill="none" height="46.2656" style="stroke:#475569;stroke-width:1.5;" width="406.5" x="30" y="888.2031"/><text fill="#000000" font-family="sans-serif" font-size="13" font-weight="bold" lengthAdjust="spacing" textLength="25" x="45" y="901.27">opt</text><text fill="#000000" font-family="sans-serif" font-size="11" font-weight="bold" lengthAdjust="spacing" textLength="286" x="115" y="900.4136">[unsupported or immutable drift is detected]</text><polygon fill="#334155" points="87.5,922.4688,77.5,926.4688,87.5,930.4688,83.5,926.4688" style="stroke:#334155;stroke-width:1.0;"/><line style="stroke:#334155;stroke-width:1.0;stroke-dasharray:2.0,2.0;" x1="81.5" x2="361.5" y1="926.4688" y2="926.4688"/><text fill="#000000" font-family="sans-serif" font-size="13" font-weight="bold" lengthAdjust="spacing" textLength="18" x="93.5" y="921.4028">13</text><text fill="#000000" font-family="sans-serif" font-size="13" lengthAdjust="spacing" textLength="169" x="115.5" y="921.4028">reject before OCI mutation</text><polygon fill="#334155" points="1066.5,958.6016,1076.5,962.6016,1066.5,966.6016,1070.5,962.6016" style="stroke:#334155;stroke-width:1.0;"/><line style="stroke:#334155;stroke-width:1.0;" x1="362.5" x2="1072.5" y1="962.6016" y2="962.6016"/><text fill="#000000" font-family="sans-serif" font-size="13" font-weight="bold" lengthAdjust="spacing" textLength="18" x="369.5" y="957.5356">14</text><text fill="#000000" font-family="sans-serif" font-size="13" lengthAdjust="spacing" textLength="484" x="391.5" y="957.5356">Move the gateway compartment before reconciling supported gateway drift.</text><polygon fill="#334155" points="1066.5,987.7344,1076.5,991.7344,1066.5,995.7344,1070.5,991.7344" style="stroke:#334155;stroke-width:1.0;"/><line style="stroke:#334155;stroke-width:1.0;" x1="362.5" x2="1072.5" y1="991.7344" y2="991.7344"/><text fill="#000000" font-family="sans-serif" font-size="13" font-weight="bold" lengthAdjust="spacing" textLength="18" x="369.5" y="986.6685">15</text><text fill="#000000" font-family="sans-serif" font-size="13" lengthAdjust="spacing" textLength="431" x="391.5" y="986.6685">Write the connection Secret only after the gateway reaches ACTIVE.</text><path d="M288.5,1006.7344 L358.5,1006.7344 L358.5,1013.8672 L348.5,1023.8672 L288.5,1023.8672 L288.5,1006.7344 " fill="#F8FAFC" style="stroke:#475569;stroke-width:1.5;"/><rect fill="none" height="46.2656" style="stroke:#475569;stroke-width:1.5;" width="818" x="288.5" y="1006.7344"/><text fill="#000000" font-family="sans-serif" font-size="13" font-weight="bold" lengthAdjust="spacing" textLength="25" x="303.5" y="1019.8013">opt</text><text fill="#000000" font-family="sans-serif" font-size="11" font-weight="bold" lengthAdjust="spacing" textLength="258" x="373.5" y="1018.9448">[supported drift or collection diff exists]</text><polygon fill="#334155" points="1066.5,1041,1076.5,1045,1066.5,1049,1070.5,1045" style="stroke:#334155;stroke-width:1.0;"/><line style="stroke:#334155;stroke-width:1.0;" x1="362.5" x2="1072.5" y1="1045" y2="1045"/><text fill="#000000" font-family="sans-serif" font-size="13" font-weight="bold" lengthAdjust="spacing" textLength="18" x="369.5" y="1039.9341">16</text><text fill="#000000" font-family="sans-serif" font-size="13" lengthAdjust="spacing" textLength="277" x="391.5" y="1039.9341">apply the supported in-place mutation path</text><polygon fill="#334155" points="1150.5,1077.1328,1160.5,1081.1328,1150.5,1085.1328,1154.5,1081.1328" style="stroke:#334155;stroke-width:1.0;"/><line style="stroke:#334155;stroke-width:1.0;" x1="362.5" x2="1156.5" y1="1081.1328" y2="1081.1328"/><text fill="#000000" font-family="sans-serif" font-size="13" font-weight="bold" lengthAdjust="spacing" textLength="18" x="369.5" y="1076.0669">17</text><text fill="#000000" font-family="sans-serif" font-size="13" lengthAdjust="spacing" textLength="351" x="391.5" y="1076.0669">upsert the owned Secret for the usable active resource</text><path d="M30,1096.1328 L94,1096.1328 L94,1103.2656 L84,1113.2656 L30,1113.2656 L30,1096.1328 " fill="#F8FAFC" style="stroke:#475569;stroke-width:1.5;"/><rect fill="none" height="46.2656" style="stroke:#475569;stroke-width:1.5;" width="406.5" x="30" y="1096.1328"/><text fill="#000000" font-family="sans-serif" font-size="13" font-weight="bold" lengthAdjust="spacing" textLength="19" x="45" y="1109.1997">alt</text><text fill="#000000" font-family="sans-serif" font-size="11" font-weight="bold" lengthAdjust="spacing" textLength="116" x="109" y="1108.3433">[Secret sync fails]</text><polygon fill="#334155" points="87.5,1130.3984,77.5,1134.3984,87.5,1138.3984,83.5,1134.3984" style="stroke:#334155;stroke-width:1.0;"/><line style="stroke:#334155;stroke-width:1.0;stroke-dasharray:2.0,2.0;" x1="81.5" x2="361.5" y1="1134.3984" y2="1134.3984"/><text fill="#000000" font-family="sans-serif" font-size="13" font-weight="bold" lengthAdjust="spacing" textLength="18" x="93.5" y="1129.3325">18</text><text fill="#000000" font-family="sans-serif" font-size="13" lengthAdjust="spacing" textLength="150" x="115.5" y="1129.3325">block success and retry</text><polygon fill="#334155" points="87.5,1173.5313,77.5,1177.5313,87.5,1181.5313,83.5,1177.5313" style="stroke:#334155;stroke-width:1.0;"/><line style="stroke:#334155;stroke-width:1.0;stroke-dasharray:2.0,2.0;" x1="81.5" x2="361.5" y1="1177.5313" y2="1177.5313"/><text fill="#000000" font-family="sans-serif" font-size="13" font-weight="bold" lengthAdjust="spacing" textLength="18" x="93.5" y="1172.4653">19</text><text fill="#000000" font-family="sans-serif" font-size="13" lengthAdjust="spacing" textLength="169" x="115.5" y="1172.4653">successful active reconcile</text><path d="M51,1197.5313 L51,1297.5313 L1102,1297.5313 L1102,1207.5313 L1092,1197.5313 L51,1197.5313 " fill="#FEFFDD" style="stroke:#181818;stroke-width:0.5;"/><path d="M1092,1197.5313 L1092,1207.5313 L1102,1207.5313 L1092,1197.5313 " fill="#FEFFDD" style="stroke:#181818;stroke-width:0.5;"/><text fill="#000000" font-family="sans-serif" font-size="13" lengthAdjust="spacing" textLength="105" x="57" y="1214.5981">Boundary notes:</text><text fill="#000000" font-family="sans-serif" font-size="13" lengthAdjust="spacing" textLength="450" x="57" y="1229.731">- Endpoint-topology drift remains outside the modeled update surface.</text><text fill="#000000" font-family="sans-serif" font-size="13" lengthAdjust="spacing" textLength="470" x="57" y="1244.8638">- Code and tests treat OCI DELETING as requeueing even though spec.cfg</text><text fill="#000000" font-family="sans-serif" font-size="13" lengthAdjust="spacing" textLength="325" x="73" y="1259.9966">only names CREATING and UPDATING as retryable.</text><text fill="#000000" font-family="sans-serif" font-size="13" lengthAdjust="spacing" textLength="108" x="57" y="1275.1294">Sequence notes:</text><text fill="#000000" font-family="sans-serif" font-size="13" lengthAdjust="spacing" textLength="334" x="57" y="1290.2622">- There is no Secret-delete branch for this controller.</text><!--SRC=[bLRRRXit47tVhnYuhvMGrfSuVYWWov8Xn74DsqsUAUwin8fBRack5RNeltU6oxrObkqqG6oOCpmpF3npk445ZJ2vMy2r2BWLExX7QOrKjFg0VzLe96QY3jRKvH9TvZVALCA94lnQv7Qhp0eAeJqE8fT2RbRErYQVMcqT_3IF_mOP4-ViDWMFZqz-EJqT17CiHAt38tuF4wrMfaGJG6CHXiLJQ_1F1d0dN51ILSA4bwNFvvFvT2_9kXnTIZZvU7fwzeaIRbI1DyhWi-YdaydnvVam-ihP0AvfjJeCtOHURMqYWtKlmhCFyr_diouy1Fum_tXsDil-pGI7u6XgJN1MQtH783pqVsPLVseuUa3tf8YpByA8LSfDQsafoqKGI-4HZdwVBc82_HwiVgv910O3UjPCJFXyxhEiBmcZt_P0By1raihHAuSv-0eb29E3Lay8FeXG- -pvDWOYRDujSfZUfwougr16QFKt9V4YPXapLy6DjHlwnHbBPNBYJkW0mH6rL9EOmk-L9Ze2d-gAWWozerNbWwTiW9SjKEO5h91WrWYoTexLwD3RsX6LonriZDqQK3cjgq8HXm18ym36DbMKXoLVA-mml5L3KnCTi6VaNFbAqqGQKMBSoQU9pVBKTJqKZ1xZXx0ZXHKwp_1y1jwdduYFfZlJii_RsyR_Rv5u04bi1emrwEzkwuztrW0SRYmMvv_yFsCYSjIaGof3Jk1f6yKR5Lp5m5jK-tfPDY98A6ybaxGBvSecKra3MnNMn8VMTZkYSjSOMkkKGciFDGb1nmDfCWsvawHx4i7Lx6RsEBjY6RRN49cbaB6X8NYSlK6Lmz8-DVps-XT5e9-92zcqAhZDbYw-KJve71GkvZ2udLXgFlH-9IhLJ_95mstTSCnZUm2j43JMSRQeZvBRUX-sDhwMf75VrBhRDZ09eeRy_q0niZks2vxlsgSZf3jtgWYmfeWcsKOMRorj8iBSNZi_iwCbJTPLPHrBhgvohk5hLmY95oa-UZc2l7YBOMlTvW793bJOHNTVvBwBJz6n5KX2NEJTQk4G2qj22cBLvz9ZHwzAFboynpzH1bXoDa9Py-dxZkXIAwjCUDnLPATyx2v4iYPhNkI3PSfcTJMzsof4xjj3qwMfal6NEa4noJafIJRpT4YCBoGoR9PlApRS2B2TsrTdwqihw5KxGRRa9oi- -GcprGNRKTzxko6sFNwhnZUwewO8uHXgbcUOxexc0ApHkpH2mox8X-IQdxZfu-BhRDoHrvTls2829VFGOEQgA8PloQiTYQgYibom1rHcH4AJsD47bGZhTpYCjb1NdlGMuUWX8gXqjY8PJJCfxUmySsMsqPJjTqR6OVO_TkzBRUK6qXp7YOo-icVMxy8CZA1hCDb0u_Jz5FVRqWHVicCAjui2zpmX8vYbwHW5Mz6tqYe9XBrJAEF1ri7JKns9AItRvlxiZoFEb6BnL8GSF7r2qCiKrHrTV75xpLy-oHvPcFY4Xa1jlLh7RvknB5Q9oAWnzW_wCBkVJPhDXFp7tTMaHqgUF8wKfM_RmRaUr-ZIKv5kR9GyV-c4aUjqsvGWEvh6MJVz_m40]--></g></svg>