<?xml version="1.0" encoding="UTF-8" standalone="no"?><svg xmlns="http://www.w3.org/2000/svg" xmlns:xlink="http://www.w3.org/1999/xlink" contentStyleType="text/css" height="476px" preserveAspectRatio="none" style="width:2414px;height:476px;background:#FFFFFF;" version="1.1" viewBox="0 0 2414 476" width="2414px" zoomAndPan="magnify"><defs/><g><text fill="#000000" font-family="sans-serif" font-size="14" font-weight="bold" lengthAdjust="spacing" textLength="296" x="1052" y="22.9951">API Gateway Reconcile State Machine</text><ellipse cx="16" cy="357.7969" fill="#222222" rx="10" ry="10" style="stroke:none;stroke-width:1.0;"/><g id="Observe"><rect fill="#F8FAFC" height="50.2656" rx="6" ry="6" style="stroke:#475569;stroke-width:0.5;" width="329" x="86" y="332.7969"/><line style="stroke:#475569;stroke-width:0.5;" x1="86" x2="415" y1="359.0938" y2="359.0938"/><text fill="#0F172A" font-family="sans-serif" font-size="14" lengthAdjust="spacing" textLength="58" x="221.5" y="350.792">Observe</text><text fill="#0F172A" font-family="sans-serif" font-size="12" lengthAdjust="spacing" textLength="309" x="91" y="375.2324">read spec, status, delete intent, and OCI lifecycle</text></g><rect fill="#F8FAFC" height="40" rx="6" ry="6" style="stroke:#475569;stroke-width:0.5;" width="122" x="475" y="337.7969"/><text fill="#0F172A" font-family="sans-serif" font-size="14" lengthAdjust="spacing" textLength="112" x="480" y="362.6436">ResolveByName</text><rect fill="#F8FAFC" height="40" rx="6" ry="6" style="stroke:#475569;stroke-width:0.5;" width="111" x="657" y="244.7969"/><text fill="#0F172A" font-family="sans-serif" font-size="14" lengthAdjust="spacing" textLength="101" x="662" y="269.6436">EvaluateReady</text><rect fill="#F8FAFC" height="40" rx="6" ry="6" style="stroke:#475569;stroke-width:0.5;" width="75" x="1072" y="337.7969"/><text fill="#0F172A" font-family="sans-serif" font-size="14" lengthAdjust="spacing" textLength="65" x="1077" y="362.6436">Retryable</text><rect fill="#F8FAFC" height="40" rx="6" ry="6" style="stroke:#475569;stroke-width:0.5;" width="50" x="1237" y="423.7969"/><text fill="#0F172A" font-family="sans-serif" font-size="14" lengthAdjust="spacing" textLength="40" x="1242" y="448.6436">Failed</text><rect fill="#F8FAFC" height="40" rx="6" ry="6" style="stroke:#475569;stroke-width:0.5;" width="173" x="828" y="169.7969"/><text fill="#0F172A" font-family="sans-serif" font-size="14" lengthAdjust="spacing" textLength="163" x="833" y="194.6436">RejectUnsupportedDrift</text><rect fill="#F8FAFC" height="40" rx="6" ry="6" style="stroke:#475569;stroke-width:0.5;" width="53" x="1395" y="169.7969"/><text fill="#0F172A" font-family="sans-serif" font-size="14" lengthAdjust="spacing" textLength="43" x="1400" y="194.6436">Ready</text><rect fill="#F8FAFC" height="40" rx="6" ry="6" style="stroke:#475569;stroke-width:0.5;" width="142" x="843.5" y="244.7969"/><text fill="#0F172A" font-family="sans-serif" font-size="14" lengthAdjust="spacing" textLength="132" x="848.5" y="269.6436">MoveCompartment</text><rect fill="#F8FAFC" height="40" rx="6" ry="6" style="stroke:#475569;stroke-width:0.5;" width="97" x="1061" y="244.7969"/><text fill="#0F172A" font-family="sans-serif" font-size="14" lengthAdjust="spacing" textLength="87" x="1066" y="269.6436">ApplyUpdate</text><rect fill="#F8FAFC" height="40" rx="6" ry="6" style="stroke:#475569;stroke-width:0.5;" width="88" x="1218" y="244.7969"/><text fill="#0F172A" font-family="sans-serif" font-size="14" lengthAdjust="spacing" textLength="78" x="1223" y="269.6436">SyncSecret</text><rect fill="#F8FAFC" height="40" rx="6" ry="6" style="stroke:#475569;stroke-width:0.5;" width="111" x="1366" y="244.7969"/><text fill="#0F172A" font-family="sans-serif" font-size="14" lengthAdjust="spacing" textLength="101" x="1371" y="269.6436">SecretBlocked</text><rect fill="#F8FAFC" height="40" rx="6" ry="6" style="stroke:#475569;stroke-width:0.5;" width="113" x="1688.5" y="345.7969"/><text fill="#0F172A" font-family="sans-serif" font-size="14" lengthAdjust="spacing" textLength="103" x="1693.5" y="370.6436">DeletePending</text><rect fill="#F8FAFC" height="40" rx="6" ry="6" style="stroke:#475569;stroke-width:0.5;" width="65" x="2177.5" y="292.7969"/><text fill="#0F172A" font-family="sans-serif" font-size="14" lengthAdjust="spacing" textLength="55" x="2182.5" y="317.6436">Deleted</text><g id="elem_GMN37"><path d="M1537,49.2969 L1537,185.7969 L1448.25,189.7969 L1537,193.7969 L1537,304.5547 A6,6 0 0 0 1543,310.5547 L1947,310.5547 A6,6 0 0 0 1953,304.5547 L1953,53.2969 L1943,43.2969 L1543,43.2969 A6,6 0 0 0 1537,49.2969 " fill="#FFF7ED" style="stroke:#181818;stroke-width:0.5;"/><path d="M1943,43.2969 L1943,50.2969 A3,3 0 0 0 1946,53.2969 L1953,53.2969 L1943,43.2969 " fill="#FFF7ED" style="stroke:#181818;stroke-width:0.5;"/><text fill="#0F172A" font-family="sans-serif" font-size="13" lengthAdjust="spacing" textLength="69" x="1543" y="60.3638">Archetype:</text><text fill="#0F172A" font-family="sans-serif" font-size="13" lengthAdjust="spacing" textLength="213" x="1543" y="75.4966">- resolved-drift-delete-secretwrite</text><text fill="#0F172A" font-family="sans-serif" font-size="13" lengthAdjust="spacing" textLength="102" x="1543" y="90.6294">Update surface:</text><text fill="#0F172A" font-family="sans-serif" font-size="13" lengthAdjust="spacing" textLength="94" x="1543" y="105.7622">- display name</text><text fill="#0F172A" font-family="sans-serif" font-size="13" lengthAdjust="spacing" textLength="170" x="1543" y="120.895">- NetworkSecurityGroupIds</text><text fill="#0F172A" font-family="sans-serif" font-size="13" lengthAdjust="spacing" textLength="85" x="1543" y="136.0278">- CertificateId</text><text fill="#0F172A" font-family="sans-serif" font-size="13" lengthAdjust="spacing" textLength="96" x="1543" y="151.1606">- freeform tags</text><text fill="#0F172A" font-family="sans-serif" font-size="13" lengthAdjust="spacing" textLength="88" x="1543" y="166.2935">- defined tags</text><text fill="#0F172A" font-family="sans-serif" font-size="13" lengthAdjust="spacing" textLength="139" x="1543" y="181.4263">Reject before mutate:</text><text fill="#0F172A" font-family="sans-serif" font-size="13" lengthAdjust="spacing" textLength="124" x="1543" y="196.5591">- endpointType drift</text><text fill="#0F172A" font-family="sans-serif" font-size="13" lengthAdjust="spacing" textLength="93" x="1543" y="211.6919">- subnetId drift</text><text fill="#0F172A" font-family="sans-serif" font-size="13" lengthAdjust="spacing" textLength="105" x="1543" y="226.8247">Boundary notes:</text><text fill="#0F172A" font-family="sans-serif" font-size="13" lengthAdjust="spacing" textLength="395" x="1543" y="241.9575">- Endpoint-topology drift remains outside the modeled update</text><text fill="#0F172A" font-family="sans-serif" font-size="13" lengthAdjust="spacing" textLength="51" x="1559" y="257.0903">surface.</text><text fill="#0F172A" font-family="sans-serif" font-size="13" lengthAdjust="spacing" textLength="364" x="1543" y="272.2231">- Code and tests treat OCI DELETING as requeueing even</text><text fill="#0F172A" font-family="sans-serif" font-size="13" lengthAdjust="spacing" textLength="366" x="1559" y="287.356">though spec.cfg only names CREATING and UPDATING as</text><text fill="#0F172A" font-family="sans-serif" font-size="13" lengthAdjust="spacing" textLength="61" x="1559" y="302.4888">retryable.</text></g><g id="elem_GMN40"><path d="M2013,374.2969 L2013,373.0469 L1801.55,377.0469 L2013,381.0469 L2013,463.0938 A6,6 0 0 0 2019,469.0938 L2401,469.0938 A6,6 0 0 0 2407,463.0938 L2407,378.2969 L2397,368.2969 L2019,368.2969 A6,6 0 0 0 2013,374.2969 " fill="#FFF7ED" style="stroke:#181818;stroke-width:0.5;"/><path d="M2397,368.2969 L2397,375.2969 A3,3 0 0 0 2400,378.2969 L2407,378.2969 L2397,368.2969 " fill="#FFF7ED" style="stroke:#181818;stroke-width:0.5;"/><text fill="#0F172A" font-family="sans-serif" font-size="13" lengthAdjust="spacing" textLength="90" x="2019" y="385.3638">Delete states:</text><text fill="#0F172A" font-family="sans-serif" font-size="13" lengthAdjust="spacing" textLength="102" x="2019" y="400.4966">- DeletePending</text><text fill="#0F172A" font-family="sans-serif" font-size="13" lengthAdjust="spacing" textLength="59" x="2019" y="415.6294">- Deleted</text><text fill="#0F172A" font-family="sans-serif" font-size="13" lengthAdjust="spacing" textLength="103" x="2019" y="430.7622">Delete workflow:</text><text fill="#0F172A" font-family="sans-serif" font-size="13" lengthAdjust="spacing" textLength="373" x="2019" y="445.895">- Confirm deletion with follow-up GetGateway calls until the</text><text fill="#0F172A" font-family="sans-serif" font-size="13" lengthAdjust="spacing" textLength="311" x="2035" y="461.0278">lifecycle is DELETED or the resource is not found.</text></g><!--link *start to Observe--><g id="link_*start_Observe"><path d="M26.08,357.7969 C26.08,357.7969 80.84,357.7969 80.84,357.7969 " fill="none" id="*start-to-Observe" style="stroke:#181818;stroke-width:1.0;"/><polygon fill="#181818" points="85.84,357.7969,76.84,353.7969,80.84,357.7969,76.84,361.7969,85.84,357.7969" style="stroke:#181818;stroke-width:1.0;"/></g><!--link Observe to ResolveByName--><g id="link_Observe_ResolveByName"><path d="M415.34,357.7969 C415.34,357.7969 469.86,357.7969 469.86,357.7969 " fill="none" id="Observe-to-ResolveByName" style="stroke:#181818;stroke-width:1.0;"/><polygon fill="#181818" points="474.86,357.7969,465.86,353.7969,469.86,357.7969,465.86,361.7969,474.86,357.7969" style="stroke:#181818;stroke-width:1.0;"/><text fill="#000000" font-family="sans-serif" font-size="13" lengthAdjust="spacing" textLength="163" x="443.6" y="370.8638">status/spec OCID missing</text></g><!--link ResolveByName to EvaluateReady--><g id="link_ResolveByName_EvaluateReady"><path d="M597.41,357.7969 C648.53,357.7969 713,357.7969 713,357.7969 C713,357.7969 713,289.9769 713,289.9769 " fill="none" id="ResolveByName-to-EvaluateReady" style="stroke:#181818;stroke-width:1.0;"/><polygon fill="#181818" points="713,284.9769,709,293.9769,713,289.9769,717,293.9769,713,284.9769" style="stroke:#181818;stroke-width:1.0;"/><text fill="#000000" font-family="sans-serif" font-size="13" lengthAdjust="spacing" textLength="123" x="690.11" y="370.8638">OCI state in ACTIVE</text></g><!--link ResolveByName to Retryable--><g id="link_ResolveByName_Retryable"><path d="M597.1,367.7969 C597.1,367.7969 1066.75,367.7969 1066.75,367.7969 " fill="none" id="ResolveByName-to-Retryable" style="stroke:#181818;stroke-width:1.0;"/><polygon fill="#181818" points="1071.75,367.7969,1062.75,363.7969,1066.75,367.7969,1062.75,371.7969,1071.75,367.7969" style="stroke:#181818;stroke-width:1.0;"/><text fill="#000000" font-family="sans-serif" font-size="13" lengthAdjust="spacing" textLength="217" x="832.93" y="380.8638">OCI state in CREATING, UPDATING</text></g><!--link ResolveByName to Failed--><g id="link_ResolveByName_Failed"><path d="M536,377.9069 C536,405.1569 536,450.4669 536,450.4669 C536,450.4669 1231.59,450.4669 1231.59,450.4669 " fill="none" id="ResolveByName-to-Failed" style="stroke:#181818;stroke-width:1.0;"/><polygon fill="#181818" points="1236.59,450.4669,1227.59,446.4669,1231.59,450.4669,1227.59,454.4669,1236.59,450.4669" style="stroke:#181818;stroke-width:1.0;"/><text fill="#000000" font-family="sans-serif" font-size="13" lengthAdjust="spacing" textLength="188" x="658.51" y="463.5338">OCI state in FAILED, DELETED</text></g><!--link EvaluateReady to RejectUnsupportedDrift--><g id="link_EvaluateReady_RejectUnsupportedDrift"><path d="M768.11,258.1269 C800.89,258.1269 836,258.1269 836,258.1269 C836,258.1269 836,214.9269 836,214.9269 " fill="none" id="EvaluateReady-to-RejectUnsupportedDrift" style="stroke:#181818;stroke-width:1.0;"/><polygon fill="#181818" points="836,209.9269,832,218.9269,836,214.9269,840,218.9269,836,209.9269" style="stroke:#181818;stroke-width:1.0;"/><text fill="#000000" font-family="sans-serif" font-size="13" lengthAdjust="spacing" textLength="275" x="547.65" y="254.1938">unsupported or immutable drift is detected</text></g><!--link RejectUnsupportedDrift to Ready--><g id="link_RejectUnsupportedDrift_Ready"><path d="M1001.08,179.7969 C1001.08,179.7969 1389.85,179.7969 1389.85,179.7969 " fill="none" id="RejectUnsupportedDrift-to-Ready" style="stroke:#181818;stroke-width:1.0;"/><polygon fill="#181818" points="1394.85,179.7969,1385.85,175.7969,1389.85,179.7969,1385.85,183.7969,1394.85,179.7969" style="stroke:#181818;stroke-width:1.0;"/><text fill="#000000" font-family="sans-serif" font-size="13" lengthAdjust="spacing" textLength="252" x="1196.46" y="175.8638">wait for the spec or live state to change</text></g><!--link EvaluateReady to MoveCompartment--><g id="link_EvaluateReady_MoveCompartment"><path d="M768.23,271.4669 C768.23,271.4669 838.4,271.4669 838.4,271.4669 " fill="none" id="EvaluateReady-to-MoveCompartment" style="stroke:#181818;stroke-width:1.0;"/><polygon fill="#181818" points="843.4,271.4669,834.4,267.4669,838.4,271.4669,834.4,275.4669,843.4,271.4669" style="stroke:#181818;stroke-width:1.0;"/><text fill="#000000" font-family="sans-serif" font-size="13" lengthAdjust="spacing" textLength="158" x="644.32" y="284.5338">continue active reconcile</text></g><!--link MoveCompartment to ApplyUpdate--><g id="link_MoveCompartment_ApplyUpdate"><path d="M985.73,264.7969 C985.73,264.7969 1055.99,264.7969 1055.99,264.7969 " fill="none" id="MoveCompartment-to-ApplyUpdate" style="stroke:#181818;stroke-width:1.0;"/><polygon fill="#181818" points="1060.99,264.7969,1051.99,260.7969,1055.99,264.7969,1051.99,268.7969,1060.99,264.7969" style="stroke:#181818;stroke-width:1.0;"/><text fill="#000000" font-family="sans-serif" font-size="13" lengthAdjust="spacing" textLength="221" x="1021.86" y="277.8638">continue after compartment move</text></g><!--link ApplyUpdate to SyncSecret--><g id="link_ApplyUpdate_SyncSecret"><path d="M1158.17,264.7969 C1158.17,264.7969 1212.92,264.7969 1212.92,264.7969 " fill="none" id="ApplyUpdate-to-SyncSecret" style="stroke:#181818;stroke-width:1.0;"/><polygon fill="#181818" points="1217.92,264.7969,1208.92,260.7969,1212.92,264.7969,1208.92,268.7969,1217.92,264.7969" style="stroke:#181818;stroke-width:1.0;"/><text fill="#000000" font-family="sans-serif" font-size="13" lengthAdjust="spacing" textLength="231" x="1186.55" y="260.8638">supported mutation path completes</text></g><!--link SyncSecret to SecretBlocked--><g id="link_SyncSecret_SecretBlocked"><path d="M1306.01,271.4669 C1306.01,271.4669 1360.94,271.4669 1360.94,271.4669 " fill="none" id="SyncSecret-to-SecretBlocked" style="stroke:#181818;stroke-width:1.0;"/><polygon fill="#181818" points="1365.94,271.4669,1356.94,267.4669,1360.94,271.4669,1356.94,275.4669,1365.94,271.4669" style="stroke:#181818;stroke-width:1.0;"/><text fill="#000000" font-family="sans-serif" font-size="13" lengthAdjust="spacing" textLength="105" x="1334.48" y="284.5338">Secret write fails</text></g><!--link SecretBlocked to SyncSecret--><g id="link_SecretBlocked_SyncSecret"><path d="M1365.71,258.1269 C1365.71,258.1269 1311.2,258.1269 1311.2,258.1269 " fill="none" id="SecretBlocked-to-SyncSecret" style="stroke:#181818;stroke-width:1.0;"/><polygon fill="#181818" points="1306.2,258.1269,1315.2,262.1269,1311.2,258.1269,1315.2,254.1269,1306.2,258.1269" style="stroke:#181818;stroke-width:1.0;"/><text fill="#000000" font-family="sans-serif" font-size="13" lengthAdjust="spacing" textLength="109" x="1228.46" y="254.1938">retry Secret sync</text></g><!--link SyncSecret to Ready--><g id="link_SyncSecret_Ready"><path d="M1262,244.6969 C1262,222.4869 1262,189.7969 1262,189.7969 C1262,189.7969 1389.8,189.7969 1389.8,189.7969 " fill="none" id="SyncSecret-to-Ready" style="stroke:#181818;stroke-width:1.0;"/><polygon fill="#181818" points="1394.8,189.7969,1385.8,185.7969,1389.8,189.7969,1385.8,193.7969,1394.8,189.7969" style="stroke:#181818;stroke-width:1.0;"/><text fill="#000000" font-family="sans-serif" font-size="13" lengthAdjust="spacing" textLength="176" x="1121.45" y="202.8638">Secret side effects succeed</text></g><!--link Ready to Ready--><g id="link_Ready_Ready"><path d="M1394.71,199.7969 C1387.18,199.7969 1381,199.7969 1381,199.7969 C1381,199.7969 1381,227.2969 1381,227.2969 C1381,227.2969 1463,227.2969 1463,227.2969 C1463,227.2969 1463,179.7969 1463,179.7969 C1463,179.7969 1453.02,179.7969 1453.02,179.7969 " fill="none" id="Ready-to-Ready" style="stroke:#181818;stroke-width:1.0;"/><polygon fill="#181818" points="1448.02,179.7969,1457.02,183.7969,1453.02,179.7969,1457.02,175.7969,1448.02,179.7969" style="stroke:#181818;stroke-width:1.0;"/><text fill="#000000" font-family="sans-serif" font-size="13" lengthAdjust="spacing" textLength="170" x="1254.14" y="218.3638">no supported drift remains</text></g><!--link Retryable to Retryable--><g id="link_Retryable_Retryable"><path d="M1071.88,347.7969 C1068.89,347.7969 1067,347.7969 1067,347.7969 C1067,347.7969 1067,317.7969 1067,317.7969 C1067,317.7969 1153,317.7969 1153,317.7969 C1153,317.7969 1153,340.4669 1153,340.4669 C1153,340.4669 1152.31,340.4669 1152.31,340.4669 " fill="none" id="Retryable-to-Retryable" style="stroke:#181818;stroke-width:1.0;"/><polygon fill="#181818" points="1147.31,340.4669,1156.31,344.4669,1152.31,340.4669,1156.31,336.4669,1147.31,340.4669" style="stroke:#181818;stroke-width:1.0;"/><text fill="#000000" font-family="sans-serif" font-size="13" lengthAdjust="spacing" textLength="159" x="939.24" y="308.8638">OCI remains nonterminal</text></g><!--link Failed to Failed--><g id="link_Failed_Failed"><path d="M1236.93,437.1269 C1231.84,437.1269 1228,437.1269 1228,437.1269 C1228,437.1269 1228,404.7969 1228,404.7969 C1228,404.7969 1297,404.7969 1297,404.7969 C1297,404.7969 1297,443.7969 1297,443.7969 C1297,443.7969 1292.06,443.7969 1292.06,443.7969 " fill="none" id="Failed-to-Failed" style="stroke:#181818;stroke-width:1.0;"/><polygon fill="#181818" points="1287.06,443.7969,1296.06,447.7969,1292.06,443.7969,1296.06,439.7969,1287.06,443.7969" style="stroke:#181818;stroke-width:1.0;"/><text fill="#000000" font-family="sans-serif" font-size="13" lengthAdjust="spacing" textLength="135" x="1122.83" y="395.8638">OCI remains terminal</text></g><!--link Ready to DeletePending--><g id="link_Ready_DeletePending"><path d="M1448.08,199.7969 C1473.18,199.7969 1507,199.7969 1507,199.7969 C1507,199.7969 1507,353.7969 1507,353.7969 C1507,353.7969 1683.3,353.7969 1683.3,353.7969 " fill="none" id="Ready-to-DeletePending" style="stroke:#181818;stroke-width:1.0;"/><polygon fill="#181818" points="1688.3,353.7969,1679.3,349.7969,1683.3,353.7969,1679.3,357.7969,1688.3,353.7969" style="stroke:#181818;stroke-width:1.0;"/><text fill="#000000" font-family="sans-serif" font-size="13" lengthAdjust="spacing" textLength="109" x="1397" y="348.5538">delete requested</text></g><!--link Retryable to DeletePending--><g id="link_Retryable_DeletePending"><path d="M1147.35,361.7969 C1147.35,361.7969 1683.49,361.7969 1683.49,361.7969 " fill="none" id="Retryable-to-DeletePending" style="stroke:#181818;stroke-width:1.0;"/><polygon fill="#181818" points="1688.49,361.7969,1679.49,357.7969,1683.49,361.7969,1679.49,365.7969,1688.49,361.7969" style="stroke:#181818;stroke-width:1.0;"/><text fill="#000000" font-family="sans-serif" font-size="13" lengthAdjust="spacing" textLength="109" x="1305.42" y="374.8638">delete requested</text></g><!--link Failed to DeletePending--><g id="link_Failed_DeletePending"><path d="M1262,423.5769 C1262,401.6669 1262,369.7969 1262,369.7969 C1262,369.7969 1683.17,369.7969 1683.17,369.7969 " fill="none" id="Failed-to-DeletePending" style="stroke:#181818;stroke-width:1.0;"/><polygon fill="#181818" points="1688.17,369.7969,1679.17,365.7969,1683.17,369.7969,1679.17,373.7969,1688.17,369.7969" style="stroke:#181818;stroke-width:1.0;"/><text fill="#000000" font-family="sans-serif" font-size="13" lengthAdjust="spacing" textLength="109" x="1446.7" y="382.8638">delete requested</text></g><!--link DeletePending to Deleted--><g id="link_DeletePending_Deleted"><path d="M1801.55,357.0469 C1925.48,357.0469 2210,357.0469 2210,357.0469 C2210,357.0469 2210,337.8469 2210,337.8469 " fill="none" id="DeletePending-to-Deleted" style="stroke:#181818;stroke-width:1.0;"/><polygon fill="#181818" points="2210,332.8469,2206,341.8469,2210,337.8469,2214,341.8469,2210,332.8469" style="stroke:#181818;stroke-width:1.0;"/><text fill="#000000" font-family="sans-serif" font-size="13" lengthAdjust="spacing" textLength="373" x="2016.37" y="357.3638">OCI deletion is confirmed and the finalizer can be removed</text></g><!--link Deleted to Deleted--><g id="link_Deleted_Deleted"><path d="M2177.33,325.2969 C2143.65,325.2969 2096,325.2969 2096,325.2969 C2096,325.2969 2096,343.1269 2096,343.1269 C2096,343.1269 2325,343.1269 2325,343.1269 C2325,343.1269 2325,312.7969 2325,312.7969 C2325,312.7969 2247.65,312.7969 2247.65,312.7969 " fill="none" id="Deleted-to-Deleted" style="stroke:#181818;stroke-width:1.0;"/><polygon fill="#181818" points="2242.65,312.7969,2251.65,316.7969,2247.65,312.7969,2251.65,308.7969,2242.65,312.7969" style="stroke:#181818;stroke-width:1.0;"/><text fill="#000000" font-family="sans-serif" font-size="13" lengthAdjust="spacing" textLength="100" x="2220.76" y="334.1938">terminal stutter</text></g><!--SRC=[XLPBR-Cs4BxhLmpGMs5d7zqqNHyA-1aOsCq6ZhENeWU675biA58bANlLOlzxXoCfbXqNcqiYpdmVv_7DC557Wp2zNyEjY7WG3MnGEYirdJv4EeBFGXRQOcOmZn0TUBqh8YZjKKRjR5PeXO1b5HjG6AJN5H-7PsqhuKK9eH3A7RJTGIvCm87546ziAWJdO-461kzggwJp5ZsyUpymp8Hyth5rxeppyDEAVmOU2dDHcxZ5Rt5gzCwMQ2Eas8SHSMB_PW0pvnNwZkl3pVNrhn_fTELixCxUhjxTl9ycprSt_xQQhkRPzm6lTPTePn-kVtdxyIB5QdMpN5oyy7lsnyz_mdZyEtnv2kZtc7M_OG8UXO9GeHnn9dKOKTO6wMvj8wKx0c4LV9clgS0voaQQ8penRZ0uiyTPSoVAnDUIl4cC2RM0KeT0_SfE7HDqkHUcfk9jA8I6eEcIjfhQmdI-NNzTNa1jCFf6F1ayHymto-bsVNSxWiVx1Vzr0RqI94Pr3brDrv-MYn4ibf-MMohYQMJjhN-HH1zjgAkA18PguJL9U0BryOYK1xeiwyZHANRGWSeP2Oeg-n-EbhujmK7e23dnn0AvAudJQAfr6okDZ2o4tU6543-xFSvTIUg9hDC9qEn5RMi4GTD57BwVnkpSD-6dLMMQnqgbUuROFDBWo85pIU1iw9tG3usL3oWzfekF9KdLI2CCbOW5ioHjXMpWpcZ-SsQSVERkTAQ3rqIVKyy8SUBowagVPD7Z0bdEh-XBtBlmfib9qZ5Gl58YT-ZOxzRRka4oRKizbaBRa1s5U4cMdHSHq1ZvKbjXiavyhtJO-xuu7kDOy2pUerLfvqtwsVJuTusX5TKmYX-w3qBueU-fmn7IXys0r5iIESabrxuaMreNIRrvoaJ_axGZB3mbuYISdbQT4VQvaz3hI1zPnWkmVI1StZOactfPy9QVP6CYvEbMO-xBk8r_7BY_h9oiqsUeVIuaOvGEbQ67oT92eCyxydJ-cJHH4w2vfOLQhLKWonnzrBcMX5yh-iuz8Wrc2L7iafsU1dfmLFlPJZObIHxOQfvlez9LZlReDhrB72KTXlg9Ngfr9wTibdQu8EscV4D2BJlKEBgAzlYkEHKUk3goUbELIvVILb1pfhJzeS_sAYL1rhOXr57I5otxoAtZHKSR4aHe6rvZwZ7kqJ87lQ3rhk0DT2Np7JXhsfg5bpNBlFsc9Hx6-LwDLndbpYcTD_94LPqOskt6oP-Q- -zUDP2wbHjtc71shBcZ3W-QTapk3Dd7TGMt6Fl_GwGm9j2kZjgaid6iB-zPqc-t-Q5RlKbQjPTiel29b9eqoEa_]--></g></svg>