<?xml version="1.0" encoding="UTF-8" standalone="no"?><svg xmlns="http://www.w3.org/2000/svg" xmlns:xlink="http://www.w3.org/1999/xlink" contentStyleType="text/css" height="1521px" preserveAspectRatio="none" style="width:1829px;height:1521px;background:#FFFFFF;" version="1.1" viewBox="0 0 1829 1521" width="1829px" zoomAndPan="magnify"><defs/><g><text fill="#000000" font-family="sans-serif" font-size="14" font-weight="bold" lengthAdjust="spacing" textLength="313" x="756.5" y="32.9951">OCI Internet Gateway Reconcile Activity</text><ellipse cx="689.5" cy="57.2969" fill="#0F766E" rx="10" ry="10" style="stroke:#222222;stroke-width:1.0;"/><rect fill="none" height="362.1406" style="stroke:#000000;stroke-width:1.5;" width="686" x="367" y="77.2969"/><path d="M500,77.2969 L500,86.5938 L490,96.5938 L367,96.5938 " fill="none" style="stroke:#000000;stroke-width:1.5;"/><text fill="#000000" font-family="sans-serif" font-size="14" lengthAdjust="spacing" textLength="123" x="370" y="91.292">Observe and Bind</text><rect fill="#F8FAFC" height="33.9688" rx="12.5" ry="12.5" style="stroke:#475569;stroke-width:0.5;" width="304" x="537.5" y="113.5938"/><text fill="#0F172A" font-family="sans-serif" font-size="12" lengthAdjust="spacing" textLength="284" x="547.5" y="134.7324">Read CR spec, status OCID, and delete intent</text><rect fill="#F8FAFC" height="33.9688" rx="12.5" ry="12.5" style="stroke:#475569;stroke-width:0.5;" width="460" x="459.5" y="167.5625"/><text fill="#0F172A" font-family="sans-serif" font-size="12" lengthAdjust="spacing" textLength="440" x="469.5" y="188.7012">Keep status-bound OCID authoritative for later update or delete paths</text><polygon fill="#E2E8F0" points="589.5,221.5313,789.5,221.5313,801.5,233.5313,789.5,245.5313,589.5,245.5313,577.5,233.5313,589.5,221.5313" style="stroke:#475569;stroke-width:0.5;"/><text fill="#0F172A" font-family="sans-serif" font-size="11" lengthAdjust="spacing" textLength="200" x="589.5" y="237.3394">"Tracked or explicit OCID present?"</text><text fill="#000000" font-family="sans-serif" font-size="11" lengthAdjust="spacing" textLength="20" x="557.5" y="230.937">yes</text><text fill="#000000" font-family="sans-serif" font-size="11" lengthAdjust="spacing" textLength="14" x="801.5" y="230.937">no</text><rect fill="#F8FAFC" height="33.9688" rx="12.5" ry="12.5" style="stroke:#475569;stroke-width:0.5;" width="272" x="387" y="255.5313"/><text fill="#0F172A" font-family="sans-serif" font-size="12" lengthAdjust="spacing" textLength="252" x="397" y="276.6699">Get the OCI resource by known identifier</text><rect fill="#F8FAFC" height="33.9688" rx="12.5" ry="12.5" style="stroke:#475569;stroke-width:0.5;" width="328" x="692" y="255.5313"/><text fill="#0F172A" font-family="sans-serif" font-size="12" lengthAdjust="spacing" textLength="308" x="702" y="276.6699">Resolve an existing OCI resource by display name</text><rect fill="#F8FAFC" height="33.9688" rx="12.5" ry="12.5" style="stroke:#475569;stroke-width:0.5;" width="345" x="683.5" y="309.5"/><text fill="#0F172A" font-family="sans-serif" font-size="12" lengthAdjust="spacing" textLength="325" x="693.5" y="330.6387">Continue list pagination until a match or exhaustion</text><rect fill="#F8FAFC" height="33.9688" rx="12.5" ry="12.5" style="stroke:#475569;stroke-width:0.5;" width="354" x="679" y="363.4688"/><text fill="#0F172A" font-family="sans-serif" font-size="12" lengthAdjust="spacing" textLength="334" x="689" y="384.6074">Persist the resolved or created OCID back into status</text><polygon fill="#E2E8F0" points="689.5,403.4375,701.5,415.4375,689.5,427.4375,677.5,415.4375,689.5,403.4375" style="stroke:#475569;stroke-width:0.5;"/><path d="M1429,851.4375 L1429,1179.2266 L1817,1179.2266 L1817,861.4375 L1807,851.4375 L1429,851.4375 " fill="#FEFFDD" style="stroke:#181818;stroke-width:0.5;"/><path d="M1807,851.4375 L1807,861.4375 L1817,861.4375 L1807,851.4375 " fill="#FEFFDD" style="stroke:#181818;stroke-width:0.5;"/><text fill="#000000" font-family="sans-serif" font-size="13" lengthAdjust="spacing" textLength="69" x="1435" y="868.5044">Archetype:</text><text fill="#000000" font-family="sans-serif" font-size="13" lengthAdjust="spacing" textLength="207" x="1435" y="883.6372">- resolved-drift-delete-paginated</text><text fill="#000000" font-family="sans-serif" font-size="13" lengthAdjust="spacing" textLength="134" x="1435" y="898.77">Retryable OCI states:</text><text fill="#000000" font-family="sans-serif" font-size="13" lengthAdjust="spacing" textLength="102" x="1435" y="913.9028">- PROVISIONING</text><text fill="#000000" font-family="sans-serif" font-size="13" lengthAdjust="spacing" textLength="76" x="1435" y="929.0356">- UPDATING</text><text fill="#000000" font-family="sans-serif" font-size="13" lengthAdjust="spacing" textLength="113" x="1435" y="944.1685">Active OCI states:</text><text fill="#000000" font-family="sans-serif" font-size="13" lengthAdjust="spacing" textLength="79" x="1435" y="959.3013">- AVAILABLE</text><text fill="#000000" font-family="sans-serif" font-size="13" lengthAdjust="spacing" textLength="111" x="1435" y="974.4341">Failed OCI states:</text><text fill="#000000" font-family="sans-serif" font-size="13" lengthAdjust="spacing" textLength="53" x="1435" y="989.5669">- FAILED</text><text fill="#000000" font-family="sans-serif" font-size="13" lengthAdjust="spacing" textLength="67" x="1435" y="1004.6997">- DELETED</text><text fill="#000000" font-family="sans-serif" font-size="13" lengthAdjust="spacing" textLength="102" x="1435" y="1019.8325">Update surface:</text><text fill="#000000" font-family="sans-serif" font-size="13" lengthAdjust="spacing" textLength="94" x="1435" y="1034.9653">- display name</text><text fill="#000000" font-family="sans-serif" font-size="13" lengthAdjust="spacing" textLength="96" x="1435" y="1050.0981">- freeform tags</text><text fill="#000000" font-family="sans-serif" font-size="13" lengthAdjust="spacing" textLength="88" x="1435" y="1065.231">- defined tags</text><text fill="#000000" font-family="sans-serif" font-size="13" lengthAdjust="spacing" textLength="139" x="1435" y="1080.3638">Reject before mutate:</text><text fill="#000000" font-family="sans-serif" font-size="13" lengthAdjust="spacing" textLength="71" x="1435" y="1095.4966">- vcnId drift</text><text fill="#000000" font-family="sans-serif" font-size="13" lengthAdjust="spacing" textLength="105" x="1435" y="1110.6294">Boundary notes:</text><text fill="#000000" font-family="sans-serif" font-size="13" lengthAdjust="spacing" textLength="367" x="1435" y="1125.7622">- isEnabled remains create-time only; the in-place update</text><text fill="#000000" font-family="sans-serif" font-size="13" lengthAdjust="spacing" textLength="278" x="1451" y="1140.895">surface is limited to display name and tags.</text><text fill="#000000" font-family="sans-serif" font-size="13" lengthAdjust="spacing" textLength="166" x="1435" y="1156.0278">Controller-local invariants:</text><text fill="#000000" font-family="sans-serif" font-size="13" lengthAdjust="spacing" textLength="229" x="1435" y="1171.1606">- StatusPresentUsesStatusInvariant</text><polygon fill="#E2E8F0" points="632.5,459.4375,746.5,459.4375,758.5,471.4375,746.5,483.4375,632.5,483.4375,620.5,471.4375,632.5,459.4375" style="stroke:#475569;stroke-width:0.5;"/><text fill="#0F172A" font-family="sans-serif" font-size="11" lengthAdjust="spacing" textLength="114" x="632.5" y="475.2456">"Delete requested?"</text><text fill="#000000" font-family="sans-serif" font-size="11" lengthAdjust="spacing" textLength="20" x="600.5" y="468.8433">yes</text><text fill="#000000" font-family="sans-serif" font-size="11" lengthAdjust="spacing" textLength="14" x="758.5" y="468.8433">no</text><rect fill="none" height="220.2031" style="stroke:#000000;stroke-width:1.5;" width="643" x="11" y="493.4375"/><path d="M67,493.4375 L67,502.7344 L57,512.7344 L11,512.7344 " fill="none" style="stroke:#000000;stroke-width:1.5;"/><text fill="#000000" font-family="sans-serif" font-size="14" lengthAdjust="spacing" textLength="46" x="14" y="507.4326">Delete</text><rect fill="#F8FAFC" height="33.9688" rx="12.5" ry="12.5" style="stroke:#475569;stroke-width:0.5;" width="287" x="189" y="529.7344"/><text fill="#0F172A" font-family="sans-serif" font-size="12" lengthAdjust="spacing" textLength="267" x="199" y="550.873">Submit OCI delete for OCI Internet Gateway</text><rect fill="#F8FAFC" height="33.9688" rx="12.5" ry="12.5" style="stroke:#475569;stroke-width:0.5;" width="623" x="21" y="598.7031"/><text fill="#0F172A" font-family="sans-serif" font-size="12" lengthAdjust="spacing" textLength="603" x="31" y="619.8418">Confirm deletion with follow-up GetInternetGateway calls until the resource is gone or not found.</text><rect fill="#F8FAFC" height="33.9688" rx="12.5" ry="12.5" style="stroke:#475569;stroke-width:0.5;" width="338" x="163.5" y="667.6719"/><text fill="#0F172A" font-family="sans-serif" font-size="12" lengthAdjust="spacing" textLength="318" x="173.5" y="688.8105">Remove the finalizer after OCI deletion is confirmed</text><ellipse cx="332.5" cy="759.6406" fill="none" rx="11" ry="11" style="stroke:#222222;stroke-width:1.0;"/><ellipse cx="332.5" cy="759.6406" fill="#222222" rx="6" ry="6" style="stroke:#111111;stroke-width:1.0;"/><rect fill="none" height="416.3594" style="stroke:#000000;stroke-width:1.5;" width="376" x="864.5" y="493.4375"/><path d="M1025.5,493.4375 L1025.5,502.7344 L1015.5,512.7344 L864.5,512.7344 " fill="none" style="stroke:#000000;stroke-width:1.5;"/><text fill="#000000" font-family="sans-serif" font-size="14" lengthAdjust="spacing" textLength="151" x="867.5" y="507.4326">Lifecycle Classification</text><rect fill="#F8FAFC" height="33.9688" rx="12.5" ry="12.5" style="stroke:#475569;stroke-width:0.5;" width="268" x="912.5" y="578.1367"/><text fill="#0F172A" font-family="sans-serif" font-size="12" lengthAdjust="spacing" textLength="248" x="922.5" y="599.2754">Request requeue and keep the finalizer</text><ellipse cx="1046.5" cy="658.1055" fill="none" rx="11" ry="11" style="stroke:#222222;stroke-width:1.0;"/><ellipse cx="1046.5" cy="658.1055" fill="#222222" rx="6" ry="6" style="stroke:#111111;stroke-width:1.0;"/><polygon fill="#E2E8F0" points="966.5,529.7344,1126.5,529.7344,1138.5,541.7344,1126.5,553.7344,966.5,553.7344,954.5,541.7344,966.5,529.7344" style="stroke:#475569;stroke-width:0.5;"/><text fill="#000000" font-family="sans-serif" font-size="11" lengthAdjust="spacing" textLength="20" x="1050.5" y="563.9448">yes</text><text fill="#0F172A" font-family="sans-serif" font-size="11" lengthAdjust="spacing" textLength="160" x="966.5" y="545.5425">"OCI state in retryable set?"</text><rect fill="#F8FAFC" height="33.9688" rx="12.5" ry="12.5" style="stroke:#475569;stroke-width:0.5;" width="324" x="884.5" y="774.9102"/><text fill="#0F172A" font-family="sans-serif" font-size="12" lengthAdjust="spacing" textLength="304" x="894.5" y="796.0488">Return an unsuccessful terminal reconcile result</text><ellipse cx="1046.5" cy="848.3945" fill="none" rx="11" ry="11" style="stroke:#222222;stroke-width:1.0;"/><ellipse cx="1046.5" cy="848.3945" fill="#222222" rx="6" ry="6" style="stroke:#111111;stroke-width:1.0;"/><polygon fill="#E2E8F0" points="976.5,726.5078,1116.5,726.5078,1128.5,738.5078,1116.5,750.5078,976.5,750.5078,964.5,738.5078,976.5,726.5078" style="stroke:#475569;stroke-width:0.5;"/><text fill="#000000" font-family="sans-serif" font-size="11" lengthAdjust="spacing" textLength="20" x="1050.5" y="760.7183">yes</text><text fill="#0F172A" font-family="sans-serif" font-size="11" lengthAdjust="spacing" textLength="140" x="976.5" y="742.3159">"OCI state in failed set?"</text><rect fill="none" height="558.5117" style="stroke:#000000;stroke-width:1.5;" width="745" x="674" y="944.7969"/><path d="M853,944.7969 L853,954.0938 L843,964.0938 L674,964.0938 " fill="none" style="stroke:#000000;stroke-width:1.5;"/><text fill="#000000" font-family="sans-serif" font-size="14" lengthAdjust="spacing" textLength="169" x="677" y="958.792">Ready and Drift Handling</text><rect fill="#F8FAFC" height="33.9688" rx="12.5" ry="12.5" style="stroke:#475569;stroke-width:0.5;" width="364" x="864.5" y="981.0938"/><text fill="#0F172A" font-family="sans-serif" font-size="12" lengthAdjust="spacing" textLength="344" x="874.5" y="1002.2324">Compare live OCI state with the supported drift surface</text><rect fill="#F8FAFC" height="33.9688" rx="12.5" ry="12.5" style="stroke:#475569;stroke-width:0.5;" width="290" x="901.5" y="1098.4648"/><text fill="#0F172A" font-family="sans-serif" font-size="12" lengthAdjust="spacing" textLength="270" x="911.5" y="1119.6035">Reject the change before any OCI mutation</text><ellipse cx="1046.5" cy="1178.4336" fill="none" rx="11" ry="11" style="stroke:#222222;stroke-width:1.0;"/><ellipse cx="1046.5" cy="1178.4336" fill="#222222" rx="6" ry="6" style="stroke:#111111;stroke-width:1.0;"/><polygon fill="#E2E8F0" points="922,1050.0625,1171,1050.0625,1183,1062.0625,1171,1074.0625,922,1074.0625,910,1062.0625,922,1050.0625" style="stroke:#475569;stroke-width:0.5;"/><text fill="#000000" font-family="sans-serif" font-size="11" lengthAdjust="spacing" textLength="20" x="1050.5" y="1084.2729">yes</text><text fill="#0F172A" font-family="sans-serif" font-size="11" lengthAdjust="spacing" textLength="249" x="922" y="1065.8706">"Unsupported or immutable drift detected?"</text><rect fill="#F8FAFC" height="33.9688" rx="12.5" ry="12.5" style="stroke:#475569;stroke-width:0.5;" width="453" x="820" y="1231.4336"/><text fill="#0F172A" font-family="sans-serif" font-size="12" lengthAdjust="spacing" textLength="433" x="830" y="1252.5723">Reuse the tracked OCID from status or spec before any fresh lookup.</text><rect fill="#F8FAFC" height="33.9688" rx="12.5" ry="12.5" style="stroke:#475569;stroke-width:0.5;" width="725" x="684" y="1285.4023"/><text fill="#0F172A" font-family="sans-serif" font-size="12" lengthAdjust="spacing" textLength="705" x="694" y="1306.541">Move the Internet Gateway compartment before calling the mutable update path when compartment drift exists.</text><polygon fill="#E2E8F0" points="969,1339.3711,1124,1339.3711,1136,1351.3711,1124,1363.3711,969,1363.3711,957,1351.3711,969,1339.3711" style="stroke:#475569;stroke-width:0.5;"/><text fill="#0F172A" font-family="sans-serif" font-size="11" lengthAdjust="spacing" textLength="155" x="969" y="1355.1792">"Supported drift detected?"</text><text fill="#000000" font-family="sans-serif" font-size="11" lengthAdjust="spacing" textLength="20" x="937" y="1348.7769">yes</text><text fill="#000000" font-family="sans-serif" font-size="11" lengthAdjust="spacing" textLength="14" x="1136" y="1348.7769">no</text><rect fill="#F8FAFC" height="33.9688" rx="12.5" ry="12.5" style="stroke:#475569;stroke-width:0.5;" width="329" x="738.75" y="1373.3711"/><text fill="#0F172A" font-family="sans-serif" font-size="12" lengthAdjust="spacing" textLength="309" x="748.75" y="1394.5098">Apply only the supported in-place update surface</text><rect fill="#F8FAFC" height="33.9688" rx="12.5" ry="12.5" style="stroke:#475569;stroke-width:0.5;" width="204" x="1087.75" y="1373.3711"/><text fill="#0F172A" font-family="sans-serif" font-size="12" lengthAdjust="spacing" textLength="184" x="1097.75" y="1394.5098">Skip the no-op mutation path</text><polygon fill="#E2E8F0" points="1046.5,1413.3398,1058.5,1425.3398,1046.5,1437.3398,1034.5,1425.3398,1046.5,1413.3398" style="stroke:#475569;stroke-width:0.5;"/><rect fill="#F8FAFC" height="33.9688" rx="12.5" ry="12.5" style="stroke:#475569;stroke-width:0.5;" width="287" x="903" y="1457.3398"/><text fill="#0F172A" font-family="sans-serif" font-size="12" lengthAdjust="spacing" textLength="267" x="913" y="1478.4785">Return success for the usable active state</text><line style="stroke:#334155;stroke-width:1.0;" x1="689.5" x2="689.5" y1="147.5625" y2="167.5625"/><polygon fill="#334155" points="685.5,157.5625,689.5,167.5625,693.5,157.5625,689.5,161.5625" style="stroke:#334155;stroke-width:1.0;"/><line style="stroke:#334155;stroke-width:1.0;" x1="856" x2="856" y1="289.5" y2="309.5"/><polygon fill="#334155" points="852,299.5,856,309.5,860,299.5,856,303.5" style="stroke:#334155;stroke-width:1.0;"/><line style="stroke:#334155;stroke-width:1.0;" x1="856" x2="856" y1="343.4688" y2="363.4688"/><polygon fill="#334155" points="852,353.4688,856,363.4688,860,353.4688,856,357.4688" style="stroke:#334155;stroke-width:1.0;"/><line style="stroke:#334155;stroke-width:1.0;" x1="577.5" x2="523" y1="233.5313" y2="233.5313"/><line style="stroke:#334155;stroke-width:1.0;" x1="523" x2="523" y1="233.5313" y2="255.5313"/><polygon fill="#334155" points="519,245.5313,523,255.5313,527,245.5313,523,249.5313" style="stroke:#334155;stroke-width:1.0;"/><line style="stroke:#334155;stroke-width:1.0;" x1="801.5" x2="856" y1="233.5313" y2="233.5313"/><line style="stroke:#334155;stroke-width:1.0;" x1="856" x2="856" y1="233.5313" y2="255.5313"/><polygon fill="#334155" points="852,245.5313,856,255.5313,860,245.5313,856,249.5313" style="stroke:#334155;stroke-width:1.0;"/><line style="stroke:#334155;stroke-width:1.0;" x1="523" x2="523" y1="289.5" y2="415.4375"/><line style="stroke:#334155;stroke-width:1.0;" x1="523" x2="677.5" y1="415.4375" y2="415.4375"/><polygon fill="#334155" points="667.5,411.4375,677.5,415.4375,667.5,419.4375,671.5,415.4375" style="stroke:#334155;stroke-width:1.0;"/><line style="stroke:#334155;stroke-width:1.0;" x1="856" x2="856" y1="397.4375" y2="415.4375"/><line style="stroke:#334155;stroke-width:1.0;" x1="856" x2="701.5" y1="415.4375" y2="415.4375"/><polygon fill="#334155" points="711.5,411.4375,701.5,415.4375,711.5,419.4375,707.5,415.4375" style="stroke:#334155;stroke-width:1.0;"/><line style="stroke:#334155;stroke-width:1.0;" x1="689.5" x2="689.5" y1="201.5313" y2="221.5313"/><polygon fill="#334155" points="685.5,211.5313,689.5,221.5313,693.5,211.5313,689.5,215.5313" style="stroke:#334155;stroke-width:1.0;"/><line style="stroke:#334155;stroke-width:1.0;" x1="689.5" x2="689.5" y1="67.2969" y2="113.5938"/><polygon fill="#334155" points="685.5,103.5938,689.5,113.5938,693.5,103.5938,689.5,107.5938" style="stroke:#334155;stroke-width:1.0;"/><line style="stroke:#334155;stroke-width:1.0;" x1="332.5" x2="332.5" y1="563.7031" y2="598.7031"/><polygon fill="#334155" points="328.5,588.7031,332.5,598.7031,336.5,588.7031,332.5,592.7031" style="stroke:#334155;stroke-width:1.0;"/><line style="stroke:#334155;stroke-width:1.0;" x1="332.5" x2="332.5" y1="632.6719" y2="667.6719"/><polygon fill="#334155" points="328.5,657.6719,332.5,667.6719,336.5,657.6719,332.5,661.6719" style="stroke:#334155;stroke-width:1.0;"/><line style="stroke:#334155;stroke-width:1.0;" x1="332.5" x2="332.5" y1="701.6406" y2="748.6406"/><polygon fill="#334155" points="328.5,738.6406,332.5,748.6406,336.5,738.6406,332.5,742.6406" style="stroke:#334155;stroke-width:1.0;"/><line style="stroke:#334155;stroke-width:1.0;" x1="1046.5" x2="1046.5" y1="612.1055" y2="647.1055"/><polygon fill="#334155" points="1042.5,637.1055,1046.5,647.1055,1050.5,637.1055,1046.5,641.1055" style="stroke:#334155;stroke-width:1.0;"/><line style="stroke:#334155;stroke-width:1.0;" x1="1046.5" x2="1046.5" y1="553.7344" y2="578.1367"/><polygon fill="#334155" points="1042.5,568.1367,1046.5,578.1367,1050.5,568.1367,1046.5,572.1367" style="stroke:#334155;stroke-width:1.0;"/><line style="stroke:#334155;stroke-width:1.0;" x1="1138.5" x2="1190.5" y1="541.7344" y2="541.7344"/><polygon fill="#334155" points="1186.5,610.6211,1190.5,620.6211,1194.5,610.6211,1190.5,614.6211" style="stroke:#334155;stroke-width:1.0;"/><line style="stroke:#334155;stroke-width:1.0;" x1="1190.5" x2="1190.5" y1="541.7344" y2="699.5078"/><line style="stroke:#334155;stroke-width:1.0;" x1="1190.5" x2="1046.5" y1="699.5078" y2="699.5078"/><line style="stroke:#334155;stroke-width:1.0;" x1="1046.5" x2="1046.5" y1="699.5078" y2="726.5078"/><polygon fill="#334155" points="1042.5,716.5078,1046.5,726.5078,1050.5,716.5078,1046.5,720.5078" style="stroke:#334155;stroke-width:1.0;"/><line style="stroke:#334155;stroke-width:1.0;" x1="1046.5" x2="1046.5" y1="808.8789" y2="837.3945"/><polygon fill="#334155" points="1042.5,827.3945,1046.5,837.3945,1050.5,827.3945,1046.5,831.3945" style="stroke:#334155;stroke-width:1.0;"/><line style="stroke:#334155;stroke-width:1.0;" x1="1046.5" x2="1046.5" y1="750.5078" y2="774.9102"/><polygon fill="#334155" points="1042.5,764.9102,1046.5,774.9102,1050.5,764.9102,1046.5,768.9102" style="stroke:#334155;stroke-width:1.0;"/><line style="stroke:#334155;stroke-width:1.0;" x1="1128.5" x2="1218.5" y1="738.5078" y2="738.5078"/><polygon fill="#334155" points="1214.5,807.3945,1218.5,817.3945,1222.5,807.3945,1218.5,811.3945" style="stroke:#334155;stroke-width:1.0;"/><line style="stroke:#334155;stroke-width:1.0;" x1="1218.5" x2="1218.5" y1="738.5078" y2="889.7969"/><line style="stroke:#334155;stroke-width:1.0;" x1="1218.5" x2="1046.5" y1="889.7969" y2="889.7969"/><line style="stroke:#334155;stroke-width:1.0;" x1="1046.5" x2="1046.5" y1="889.7969" y2="981.0938"/><polygon fill="#334155" points="1042.5,971.0938,1046.5,981.0938,1050.5,971.0938,1046.5,975.0938" style="stroke:#334155;stroke-width:1.0;"/><line style="stroke:#334155;stroke-width:1.0;" x1="1046.5" x2="1046.5" y1="1132.4336" y2="1167.4336"/><polygon fill="#334155" points="1042.5,1157.4336,1046.5,1167.4336,1050.5,1157.4336,1046.5,1161.4336" style="stroke:#334155;stroke-width:1.0;"/><line style="stroke:#334155;stroke-width:1.0;" x1="1046.5" x2="1046.5" y1="1074.0625" y2="1098.4648"/><polygon fill="#334155" points="1042.5,1088.4648,1046.5,1098.4648,1050.5,1088.4648,1046.5,1092.4648" style="stroke:#334155;stroke-width:1.0;"/><line style="stroke:#334155;stroke-width:1.0;" x1="1183" x2="1201.5" y1="1062.0625" y2="1062.0625"/><polygon fill="#334155" points="1197.5,1130.9492,1201.5,1140.9492,1205.5,1130.9492,1201.5,1134.9492" style="stroke:#334155;stroke-width:1.0;"/><line style="stroke:#334155;stroke-width:1.0;" x1="1201.5" x2="1201.5" y1="1062.0625" y2="1211.4336"/><line style="stroke:#334155;stroke-width:1.0;" x1="1201.5" x2="1046.5" y1="1211.4336" y2="1211.4336"/><line style="stroke:#334155;stroke-width:1.0;" x1="1046.5" x2="1046.5" y1="1211.4336" y2="1231.4336"/><polygon fill="#334155" points="1042.5,1221.4336,1046.5,1231.4336,1050.5,1221.4336,1046.5,1225.4336" style="stroke:#334155;stroke-width:1.0;"/><line style="stroke:#334155;stroke-width:1.0;" x1="1046.5" x2="1046.5" y1="1015.0625" y2="1050.0625"/><polygon fill="#334155" points="1042.5,1040.0625,1046.5,1050.0625,1050.5,1040.0625,1046.5,1044.0625" style="stroke:#334155;stroke-width:1.0;"/><line style="stroke:#334155;stroke-width:1.0;" x1="1046.5" x2="1046.5" y1="1265.4023" y2="1285.4023"/><polygon fill="#334155" points="1042.5,1275.4023,1046.5,1285.4023,1050.5,1275.4023,1046.5,1279.4023" style="stroke:#334155;stroke-width:1.0;"/><line style="stroke:#334155;stroke-width:1.0;" x1="957" x2="903.25" y1="1351.3711" y2="1351.3711"/><line style="stroke:#334155;stroke-width:1.0;" x1="903.25" x2="903.25" y1="1351.3711" y2="1373.3711"/><polygon fill="#334155" points="899.25,1363.3711,903.25,1373.3711,907.25,1363.3711,903.25,1367.3711" style="stroke:#334155;stroke-width:1.0;"/><line style="stroke:#334155;stroke-width:1.0;" x1="1136" x2="1189.75" y1="1351.3711" y2="1351.3711"/><line style="stroke:#334155;stroke-width:1.0;" x1="1189.75" x2="1189.75" y1="1351.3711" y2="1373.3711"/><polygon fill="#334155" points="1185.75,1363.3711,1189.75,1373.3711,1193.75,1363.3711,1189.75,1367.3711" style="stroke:#334155;stroke-width:1.0;"/><line style="stroke:#334155;stroke-width:1.0;" x1="903.25" x2="903.25" y1="1407.3398" y2="1425.3398"/><line style="stroke:#334155;stroke-width:1.0;" x1="903.25" x2="1034.5" y1="1425.3398" y2="1425.3398"/><polygon fill="#334155" points="1024.5,1421.3398,1034.5,1425.3398,1024.5,1429.3398,1028.5,1425.3398" style="stroke:#334155;stroke-width:1.0;"/><line style="stroke:#334155;stroke-width:1.0;" x1="1189.75" x2="1189.75" y1="1407.3398" y2="1425.3398"/><line style="stroke:#334155;stroke-width:1.0;" x1="1189.75" x2="1058.5" y1="1425.3398" y2="1425.3398"/><polygon fill="#334155" points="1068.5,1421.3398,1058.5,1425.3398,1068.5,1429.3398,1064.5,1425.3398" style="stroke:#334155;stroke-width:1.0;"/><line style="stroke:#334155;stroke-width:1.0;" x1="1046.5" x2="1046.5" y1="1319.3711" y2="1339.3711"/><polygon fill="#334155" points="1042.5,1329.3711,1046.5,1339.3711,1050.5,1329.3711,1046.5,1333.3711" style="stroke:#334155;stroke-width:1.0;"/><line style="stroke:#334155;stroke-width:1.0;" x1="1046.5" x2="1046.5" y1="1437.3398" y2="1457.3398"/><polygon fill="#334155" points="1042.5,1447.3398,1046.5,1457.3398,1050.5,1447.3398,1046.5,1451.3398" style="stroke:#334155;stroke-width:1.0;"/><line style="stroke:#334155;stroke-width:1.0;" x1="620.5" x2="332.5" y1="471.4375" y2="471.4375"/><line style="stroke:#334155;stroke-width:1.0;" x1="332.5" x2="332.5" y1="471.4375" y2="529.7344"/><polygon fill="#334155" points="328.5,519.7344,332.5,529.7344,336.5,519.7344,332.5,523.7344" style="stroke:#334155;stroke-width:1.0;"/><line style="stroke:#334155;stroke-width:1.0;" x1="758.5" x2="1046.5" y1="471.4375" y2="471.4375"/><line style="stroke:#334155;stroke-width:1.0;" x1="1046.5" x2="1046.5" y1="471.4375" y2="529.7344"/><polygon fill="#334155" points="1042.5,519.7344,1046.5,529.7344,1050.5,519.7344,1046.5,523.7344" style="stroke:#334155;stroke-width:1.0;"/><line style="stroke:#334155;stroke-width:1.0;" x1="1046.5" x2="1046.5" y1="1491.3086" y2="1509.3086"/><line style="stroke:#334155;stroke-width:1.0;" x1="1046.5" x2="689.5" y1="1509.3086" y2="1509.3086"/><line style="stroke:#334155;stroke-width:1.0;" x1="689.5" x2="689.5" y1="427.4375" y2="459.4375"/><polygon fill="#334155" points="685.5,449.4375,689.5,459.4375,693.5,449.4375,689.5,453.4375" style="stroke:#334155;stroke-width:1.0;"/><!--SRC=[VLNRSjis47tdLs3S5sScyiH9RAVHGuVM9TNKZJsodNU8N4geG805G2ji9__UtGKeKxOQpzWcWRsSFNjs6LJG86ud2x4m0Po18Bx803lPYIKKrXGAh_CYg2SLkinlbMcaaxNm6rdQdJ9hKKdjON1pBOljsjdMb1EhhHE_pFbdO94xPtVfyiE7Z-SN5uFB4YhPwl00tqEkrThKO8BGK8M1ZKnunB-PE9BlqpoVJ-Z6kX9SElruTN5n-IkUpgq9wUpT_FpgVOvdKoLhQyfNeMRlPv_cxmO6HoFU1-cUGrvTNixmSBOFSZK_dvvFin-P9xiimng22ieQSNAxyk2UG4XJYcjboXEkwFCIP2acI-4RADuAT0kjfnvDtx9b2He228KDCs5C3dy0DCbkj2ByR2ra6pRMAJnNcAH2C1fxwqJRbFXVu7iArSYmyHH9LUBqvC4X3r3IFNnlj2fKYF4Q1nvJ_dRoHeGD677QWN-3NeZW2me7prX9Q6LRLu1OTM9hxCu8LQARgXGuIW8e675gR79Tehbc4Z2Tye54zJ9CgNoZKPD6rZ2ERXFiep8j28q-MC5Q6ScijdYkXHIr3CKc5h6HhQUxv7e7pfCJ0NOnErTRE41U4dah984ujebOHcvALM4dC-Pf6ibpy7SB7lrUyJBeTBID_KK4z-sgZgpsBQ3k71l3vsehvUfeJH5tAcpGIMkx6xMDGFvxptv-2wcrJspqbJAVoekrDTn_OmC6GS6SZVjcr1PxGVOL4ghLFwWNMP5gzc0fFSOe8YGeoVK7_lfWcspOt47zDwg2eYjmcKoqz1wrK72tUaQOKCf0P9Es4MvmdLoXXuTZacEmp7piG1l7Q4kZS01_dCmP7Zt4BXxFMabSUENFKeRM6T9gQtnR5E1zrIA_u6hAXr3wfObqunxxt-GeeWE2QEOxhc3gL1N4x_YeSHJsafdO6ir9xaznp29crW7LwzkciOxaMt80txfA5cbQkD17yso3lLTrtGOcE3gKACFYc8nJuN_XBMSgDjAiSIm1DKkaTmo7WZtFs56wCKZhexX2sZ4yQfMpTR_c41YjlM7q2gdS26tjjcrwdVxPg_JLPwjWdW9_Dr8GcWJQAcJVrvns86q-iQDgXtwH4Dv6_cp0uFqBZdzEMTuqkXFMu9_31YapmcrMx44SjEfmEzAksAgeQ6D7jjdppD37hnbcVIPfybOXrzPpqVpXXAYSEBNHDQkqbRnuSI6WTDLw4xBS5Hi8NGEViz5-JOwuy55SMgEqTQ7CbljftKlJaz_TylRRudvn-tNnzGk-FjvDymTwp2EIG-FyMxwuoQzlPjayZk7XzHnlPrDycCvkPW_uz7X07vaClnFuYieX1TGYoBMdQy2jW77vDIawQOHfvHXFXLca1cVNj1kbwvWN1g7yp52T9L9IIsLy-cgCWgg1cprcnb_qcBkJWDBor0htFo6n1vXv0H2wiuo-RmxtExYHjgXWZFWadP8cC8vx7fUx-4L-zE3ZmQ8teiuowkm_]--></g></svg>