<?xml version="1.0" encoding="UTF-8" standalone="no"?><svg xmlns="http://www.w3.org/2000/svg" xmlns:xlink="http://www.w3.org/1999/xlink" contentStyleType="text/css" height="1349px" preserveAspectRatio="none" style="width:1304px;height:1349px;background:#FFFFFF;" version="1.1" viewBox="0 0 1304 1349" width="1304px" zoomAndPan="magnify"><defs/><g><text fill="#000000" font-family="sans-serif" font-size="14" font-weight="bold" lengthAdjust="spacing" textLength="334" x="486.75" y="27.9951">OCI Internet Gateway Reconcile Sequence</text><rect fill="none" height="314.9375" style="stroke:#475569;stroke-width:1.5;" width="1030" x="268.5" y="193.8594"/><rect fill="none" height="283.8047" style="stroke:#475569;stroke-width:1.5;" width="1010" x="278.5" y="217.9922"/><rect fill="none" height="46.2656" style="stroke:#475569;stroke-width:1.5;" width="868" x="288.5" y="315.1953"/><rect fill="none" height="119.3359" style="stroke:#475569;stroke-width:1.5;" width="990" x="288.5" y="375.4609"/><rect fill="none" height="588.2031" style="stroke:#475569;stroke-width:1.5;" width="1278.5" x="10" y="522.7969"/><rect fill="none" height="104.5313" style="stroke:#475569;stroke-width:1.5;" width="990" x="288.5" y="546.9297"/><rect fill="none" height="306.7266" style="stroke:#475569;stroke-width:1.5;" width="1157" x="20" y="768.1406"/><rect fill="none" height="46.2656" style="stroke:#475569;stroke-width:1.5;" width="406.5" x="30" y="903.0703"/><rect fill="none" height="46.2656" style="stroke:#475569;stroke-width:1.5;" width="868" x="288.5" y="1021.6016"/><line style="stroke:#94A3B8;stroke-width:0.5;stroke-dasharray:5.0,5.0;" x1="76" x2="76" y1="118.5938" y2="1269.0625"/><line style="stroke:#94A3B8;stroke-width:0.5;stroke-dasharray:5.0,5.0;" x1="362.5" x2="362.5" y1="118.5938" y2="1269.0625"/><line style="stroke:#94A3B8;stroke-width:0.5;stroke-dasharray:5.0,5.0;" x1="1128.5" x2="1128.5" y1="118.5938" y2="1269.0625"/><line style="stroke:#94A3B8;stroke-width:0.5;stroke-dasharray:5.0,5.0;" x1="1212.5" x2="1212.5" y1="118.5938" y2="1269.0625"/><text fill="#000000" font-family="sans-serif" font-size="14" lengthAdjust="spacing" textLength="67" x="40" y="115.292">Controller</text><ellipse cx="76.5" cy="50.7969" fill="#E0F2FE" rx="8" ry="8" style="stroke:#0F766E;stroke-width:0.5;"/><path d="M76.5,58.7969 L76.5,85.7969 M63.5,66.7969 L89.5,66.7969 M76.5,85.7969 L63.5,100.7969 M76.5,85.7969 L89.5,100.7969 " fill="none" style="stroke:#0F766E;stroke-width:0.5;"/><text fill="#000000" font-family="sans-serif" font-size="14" lengthAdjust="spacing" textLength="67" x="40" y="1281.0576">Controller</text><ellipse cx="76.5" cy="1292.8594" fill="#E0F2FE" rx="8" ry="8" style="stroke:#0F766E;stroke-width:0.5;"/><path d="M76.5,1300.8594 L76.5,1327.8594 M63.5,1308.8594 L89.5,1308.8594 M76.5,1327.8594 L63.5,1342.8594 M76.5,1327.8594 L89.5,1342.8594 " fill="none" style="stroke:#0F766E;stroke-width:0.5;"/><rect fill="#F8FAFC" height="30.2969" rx="2.5" ry="2.5" style="stroke:#475569;stroke-width:0.5;" width="128" x="298.5" y="87.2969"/><text fill="#000000" font-family="sans-serif" font-size="14" lengthAdjust="spacing" textLength="114" x="305.5" y="107.292">Service Manager</text><rect fill="#F8FAFC" height="30.2969" rx="2.5" ry="2.5" style="stroke:#475569;stroke-width:0.5;" width="128" x="298.5" y="1268.0625"/><text fill="#000000" font-family="sans-serif" font-size="14" lengthAdjust="spacing" textLength="114" x="305.5" y="1288.0576">Service Manager</text><text fill="#000000" font-family="sans-serif" font-size="14" lengthAdjust="spacing" textLength="24" x="1113.5" y="115.292">OCI</text><path d="M1110.5,66.2969 C1110.5,56.2969 1128.5,56.2969 1128.5,56.2969 C1128.5,56.2969 1146.5,56.2969 1146.5,66.2969 L1146.5,92.2969 C1146.5,102.2969 1128.5,102.2969 1128.5,102.2969 C1128.5,102.2969 1110.5,102.2969 1110.5,92.2969 L1110.5,66.2969 " fill="#E2E2F0" style="stroke:#181818;stroke-width:1.5;"/><path d="M1110.5,66.2969 C1110.5,76.2969 1128.5,76.2969 1128.5,76.2969 C1128.5,76.2969 1146.5,76.2969 1146.5,66.2969 " fill="none" style="stroke:#181818;stroke-width:1.5;"/><text fill="#000000" font-family="sans-serif" font-size="14" lengthAdjust="spacing" textLength="24" x="1113.5" y="1281.0576">OCI</text><path d="M1110.5,1294.3594 C1110.5,1284.3594 1128.5,1284.3594 1128.5,1284.3594 C1128.5,1284.3594 1146.5,1284.3594 1146.5,1294.3594 L1146.5,1320.3594 C1146.5,1330.3594 1128.5,1330.3594 1128.5,1330.3594 C1128.5,1330.3594 1110.5,1330.3594 1110.5,1320.3594 L1110.5,1294.3594 " fill="#E2E2F0" style="stroke:#181818;stroke-width:1.5;"/><path d="M1110.5,1294.3594 C1110.5,1304.3594 1128.5,1304.3594 1128.5,1304.3594 C1128.5,1304.3594 1146.5,1304.3594 1146.5,1294.3594 " fill="none" style="stroke:#181818;stroke-width:1.5;"/><text fill="#000000" font-family="sans-serif" font-size="14" lengthAdjust="spacing" textLength="106" x="1156.5" y="115.292">Kubernetes API</text><path d="M1194.5,66.2969 C1194.5,56.2969 1212.5,56.2969 1212.5,56.2969 C1212.5,56.2969 1230.5,56.2969 1230.5,66.2969 L1230.5,92.2969 C1230.5,102.2969 1212.5,102.2969 1212.5,102.2969 C1212.5,102.2969 1194.5,102.2969 1194.5,92.2969 L1194.5,66.2969 " fill="#E2E2F0" style="stroke:#181818;stroke-width:1.5;"/><path d="M1194.5,66.2969 C1194.5,76.2969 1212.5,76.2969 1212.5,76.2969 C1212.5,76.2969 1230.5,76.2969 1230.5,66.2969 " fill="none" style="stroke:#181818;stroke-width:1.5;"/><text fill="#000000" font-family="sans-serif" font-size="14" lengthAdjust="spacing" textLength="106" x="1156.5" y="1281.0576">Kubernetes API</text><path d="M1194.5,1294.3594 C1194.5,1284.3594 1212.5,1284.3594 1212.5,1284.3594 C1212.5,1284.3594 1230.5,1284.3594 1230.5,1294.3594 L1230.5,1320.3594 C1230.5,1330.3594 1212.5,1330.3594 1212.5,1330.3594 C1212.5,1330.3594 1194.5,1330.3594 1194.5,1320.3594 L1194.5,1294.3594 " fill="#E2E2F0" style="stroke:#181818;stroke-width:1.5;"/><path d="M1194.5,1294.3594 C1194.5,1304.3594 1212.5,1304.3594 1212.5,1304.3594 C1212.5,1304.3594 1230.5,1304.3594 1230.5,1294.3594 " fill="none" style="stroke:#181818;stroke-width:1.5;"/><polygon fill="#334155" points="350.5,145.7266,360.5,149.7266,350.5,153.7266,354.5,149.7266" style="stroke:#334155;stroke-width:1.0;"/><line style="stroke:#334155;stroke-width:1.0;" x1="76.5" x2="356.5" y1="149.7266" y2="149.7266"/><text fill="#000000" font-family="sans-serif" font-size="13" font-weight="bold" lengthAdjust="spacing" textLength="9" x="83.5" y="144.6606">1</text><text fill="#000000" font-family="sans-serif" font-size="13" lengthAdjust="spacing" textLength="239" x="96.5" y="144.6606">reconcile desired spec and live status</text><polygon fill="#334155" points="1200.5,174.8594,1210.5,178.8594,1200.5,182.8594,1204.5,178.8594" style="stroke:#334155;stroke-width:1.0;"/><line style="stroke:#334155;stroke-width:1.0;" x1="362.5" x2="1206.5" y1="178.8594" y2="178.8594"/><text fill="#000000" font-family="sans-serif" font-size="13" font-weight="bold" lengthAdjust="spacing" textLength="9" x="369.5" y="173.7935">2</text><text fill="#000000" font-family="sans-serif" font-size="13" lengthAdjust="spacing" textLength="212" x="382.5" y="173.7935">read CR status and finalizer state</text><path d="M268.5,193.8594 L438.5,193.8594 L438.5,200.9922 L428.5,210.9922 L268.5,210.9922 L268.5,193.8594 " fill="#F8FAFC" style="stroke:#475569;stroke-width:1.5;"/><rect fill="none" height="314.9375" style="stroke:#475569;stroke-width:1.5;" width="1030" x="268.5" y="193.8594"/><text fill="#000000" font-family="sans-serif" font-size="13" font-weight="bold" lengthAdjust="spacing" textLength="125" x="283.5" y="206.9263">Lookup and bind</text><path d="M278.5,217.9922 L342.5,217.9922 L342.5,225.125 L332.5,235.125 L278.5,235.125 L278.5,217.9922 " fill="#F8FAFC" style="stroke:#475569;stroke-width:1.5;"/><rect fill="none" height="283.8047" style="stroke:#475569;stroke-width:1.5;" width="1010" x="278.5" y="217.9922"/><text fill="#000000" font-family="sans-serif" font-size="13" font-weight="bold" lengthAdjust="spacing" textLength="19" x="293.5" y="231.0591">alt</text><text fill="#000000" font-family="sans-serif" font-size="11" font-weight="bold" lengthAdjust="spacing" textLength="256" x="357.5" y="230.2026">[tracked or explicit OCID already exists]</text><polygon fill="#334155" points="1116.5,252.2578,1126.5,256.2578,1116.5,260.2578,1120.5,256.2578" style="stroke:#334155;stroke-width:1.0;"/><line style="stroke:#334155;stroke-width:1.0;" x1="362.5" x2="1122.5" y1="256.2578" y2="256.2578"/><text fill="#000000" font-family="sans-serif" font-size="13" font-weight="bold" lengthAdjust="spacing" textLength="9" x="369.5" y="251.1919">3</text><text fill="#000000" font-family="sans-serif" font-size="13" lengthAdjust="spacing" textLength="278" x="382.5" y="251.1919">get the current resource by known identifier</text><line style="stroke:#475569;stroke-width:1.0;stroke-dasharray:2.0,2.0;" x1="278.5" x2="1288.5" y1="265.2578" y2="265.2578"/><text fill="#000000" font-family="sans-serif" font-size="11" font-weight="bold" lengthAdjust="spacing" textLength="145" x="283.5" y="275.4683">[no OCID is bound yet]</text><polygon fill="#334155" points="1116.5,296.1953,1126.5,300.1953,1116.5,304.1953,1120.5,300.1953" style="stroke:#334155;stroke-width:1.0;"/><line style="stroke:#334155;stroke-width:1.0;" x1="362.5" x2="1122.5" y1="300.1953" y2="300.1953"/><text fill="#000000" font-family="sans-serif" font-size="13" font-weight="bold" lengthAdjust="spacing" textLength="9" x="369.5" y="295.1294">4</text><text fill="#000000" font-family="sans-serif" font-size="13" lengthAdjust="spacing" textLength="193" x="382.5" y="295.1294">list resources by display name</text><path d="M288.5,315.1953 L365.5,315.1953 L365.5,322.3281 L355.5,332.3281 L288.5,332.3281 L288.5,315.1953 " fill="#F8FAFC" style="stroke:#475569;stroke-width:1.5;"/><rect fill="none" height="46.2656" style="stroke:#475569;stroke-width:1.5;" width="868" x="288.5" y="315.1953"/><text fill="#000000" font-family="sans-serif" font-size="13" font-weight="bold" lengthAdjust="spacing" textLength="32" x="303.5" y="328.2622">loop</text><text fill="#000000" font-family="sans-serif" font-size="11" font-weight="bold" lengthAdjust="spacing" textLength="263" x="380.5" y="327.4058">[later pages until a match or exhaustion]</text><polygon fill="#334155" points="1116.5,349.4609,1126.5,353.4609,1116.5,357.4609,1120.5,353.4609" style="stroke:#334155;stroke-width:1.0;"/><line style="stroke:#334155;stroke-width:1.0;" x1="362.5" x2="1122.5" y1="353.4609" y2="353.4609"/><text fill="#000000" font-family="sans-serif" font-size="13" font-weight="bold" lengthAdjust="spacing" textLength="9" x="369.5" y="348.395">5</text><text fill="#000000" font-family="sans-serif" font-size="13" lengthAdjust="spacing" textLength="147" x="382.5" y="348.395">fetch the next list page</text><path d="M288.5,375.4609 L352.5,375.4609 L352.5,382.5938 L342.5,392.5938 L288.5,392.5938 L288.5,375.4609 " fill="#F8FAFC" style="stroke:#475569;stroke-width:1.5;"/><rect fill="none" height="119.3359" style="stroke:#475569;stroke-width:1.5;" width="990" x="288.5" y="375.4609"/><text fill="#000000" font-family="sans-serif" font-size="13" font-weight="bold" lengthAdjust="spacing" textLength="19" x="303.5" y="388.5278">alt</text><text fill="#000000" font-family="sans-serif" font-size="11" font-weight="bold" lengthAdjust="spacing" textLength="162" x="367.5" y="387.6714">[existing resource found]</text><polygon fill="#334155" points="1200.5,409.7266,1210.5,413.7266,1200.5,417.7266,1204.5,413.7266" style="stroke:#334155;stroke-width:1.0;"/><line style="stroke:#334155;stroke-width:1.0;" x1="362.5" x2="1206.5" y1="413.7266" y2="413.7266"/><text fill="#000000" font-family="sans-serif" font-size="13" font-weight="bold" lengthAdjust="spacing" textLength="9" x="369.5" y="408.6606">6</text><text fill="#000000" font-family="sans-serif" font-size="13" lengthAdjust="spacing" textLength="221" x="382.5" y="408.6606">persist the resolved OCID in status</text><line style="stroke:#475569;stroke-width:1.0;stroke-dasharray:2.0,2.0;" x1="288.5" x2="1278.5" y1="422.7266" y2="422.7266"/><text fill="#000000" font-family="sans-serif" font-size="11" font-weight="bold" lengthAdjust="spacing" textLength="182" x="293.5" y="432.937">[no existing resource found]</text><polygon fill="#334155" points="1116.5,453.6641,1126.5,457.6641,1116.5,461.6641,1120.5,457.6641" style="stroke:#334155;stroke-width:1.0;"/><line style="stroke:#334155;stroke-width:1.0;" x1="362.5" x2="1122.5" y1="457.6641" y2="457.6641"/><text fill="#000000" font-family="sans-serif" font-size="13" font-weight="bold" lengthAdjust="spacing" textLength="9" x="369.5" y="452.5981">7</text><text fill="#000000" font-family="sans-serif" font-size="13" lengthAdjust="spacing" textLength="152" x="382.5" y="452.5981">create the OCI resource</text><polygon fill="#334155" points="1200.5,482.7969,1210.5,486.7969,1200.5,490.7969,1204.5,486.7969" style="stroke:#334155;stroke-width:1.0;"/><line style="stroke:#334155;stroke-width:1.0;" x1="362.5" x2="1206.5" y1="486.7969" y2="486.7969"/><text fill="#000000" font-family="sans-serif" font-size="13" font-weight="bold" lengthAdjust="spacing" textLength="9" x="369.5" y="481.731">8</text><text fill="#000000" font-family="sans-serif" font-size="13" lengthAdjust="spacing" textLength="216" x="382.5" y="481.731">persist the created OCID in status</text><path d="M10,522.7969 L74,522.7969 L74,529.9297 L64,539.9297 L10,539.9297 L10,522.7969 " fill="#F8FAFC" style="stroke:#475569;stroke-width:1.5;"/><rect fill="none" height="588.2031" style="stroke:#475569;stroke-width:1.5;" width="1278.5" x="10" y="522.7969"/><text fill="#000000" font-family="sans-serif" font-size="13" font-weight="bold" lengthAdjust="spacing" textLength="19" x="25" y="535.8638">alt</text><text fill="#000000" font-family="sans-serif" font-size="11" font-weight="bold" lengthAdjust="spacing" textLength="120" x="89" y="535.0073">[delete requested]</text><path d="M288.5,546.9297 L381.5,546.9297 L381.5,554.0625 L371.5,564.0625 L288.5,564.0625 L288.5,546.9297 " fill="#F8FAFC" style="stroke:#475569;stroke-width:1.5;"/><rect fill="none" height="104.5313" style="stroke:#475569;stroke-width:1.5;" width="990" x="288.5" y="546.9297"/><text fill="#000000" font-family="sans-serif" font-size="13" font-weight="bold" lengthAdjust="spacing" textLength="48" x="303.5" y="559.9966">Delete</text><polygon fill="#334155" points="1116.5,581.1953,1126.5,585.1953,1116.5,589.1953,1120.5,585.1953" style="stroke:#334155;stroke-width:1.0;"/><line style="stroke:#334155;stroke-width:1.0;" x1="362.5" x2="1122.5" y1="585.1953" y2="585.1953"/><text fill="#000000" font-family="sans-serif" font-size="13" font-weight="bold" lengthAdjust="spacing" textLength="9" x="369.5" y="580.1294">9</text><text fill="#000000" font-family="sans-serif" font-size="13" lengthAdjust="spacing" textLength="114" x="382.5" y="580.1294">submit OCI delete</text><polygon fill="#334155" points="1116.5,610.3281,1126.5,614.3281,1116.5,618.3281,1120.5,614.3281" style="stroke:#334155;stroke-width:1.0;"/><line style="stroke:#334155;stroke-width:1.0;" x1="362.5" x2="1122.5" y1="614.3281" y2="614.3281"/><text fill="#000000" font-family="sans-serif" font-size="13" font-weight="bold" lengthAdjust="spacing" textLength="18" x="369.5" y="609.2622">10</text><text fill="#000000" font-family="sans-serif" font-size="13" lengthAdjust="spacing" textLength="610" x="391.5" y="609.2622">Confirm deletion with follow-up GetInternetGateway calls until the resource is gone or not found.</text><polygon fill="#334155" points="1200.5,639.4609,1210.5,643.4609,1200.5,647.4609,1204.5,643.4609" style="stroke:#334155;stroke-width:1.0;"/><line style="stroke:#334155;stroke-width:1.0;" x1="362.5" x2="1206.5" y1="643.4609" y2="643.4609"/><text fill="#000000" font-family="sans-serif" font-size="13" font-weight="bold" lengthAdjust="spacing" textLength="18" x="369.5" y="638.395">11</text><text fill="#000000" font-family="sans-serif" font-size="13" lengthAdjust="spacing" textLength="289" x="391.5" y="638.395">remove the finalizer after delete confirmation</text><line style="stroke:#475569;stroke-width:1.0;stroke-dasharray:2.0,2.0;" x1="10" x2="1288.5" y1="659.4609" y2="659.4609"/><text fill="#000000" font-family="sans-serif" font-size="11" font-weight="bold" lengthAdjust="spacing" textLength="147" x="15" y="669.6714">[OCI state is retryable]</text><polygon fill="#334155" points="87.5,690.3984,77.5,694.3984,87.5,698.3984,83.5,694.3984" style="stroke:#334155;stroke-width:1.0;"/><line style="stroke:#334155;stroke-width:1.0;stroke-dasharray:2.0,2.0;" x1="81.5" x2="361.5" y1="694.3984" y2="694.3984"/><text fill="#000000" font-family="sans-serif" font-size="13" font-weight="bold" lengthAdjust="spacing" textLength="18" x="93.5" y="689.3325">12</text><text fill="#000000" font-family="sans-serif" font-size="13" lengthAdjust="spacing" textLength="110" x="115.5" y="689.3325">requeue required</text><line style="stroke:#475569;stroke-width:1.0;stroke-dasharray:2.0,2.0;" x1="10" x2="1288.5" y1="703.3984" y2="703.3984"/><text fill="#000000" font-family="sans-serif" font-size="11" font-weight="bold" lengthAdjust="spacing" textLength="200" x="15" y="713.6089">[OCI state is failed or terminal]</text><polygon fill="#334155" points="87.5,734.3359,77.5,738.3359,87.5,742.3359,83.5,738.3359" style="stroke:#334155;stroke-width:1.0;"/><line style="stroke:#334155;stroke-width:1.0;stroke-dasharray:2.0,2.0;" x1="81.5" x2="361.5" y1="738.3359" y2="738.3359"/><text fill="#000000" font-family="sans-serif" font-size="13" font-weight="bold" lengthAdjust="spacing" textLength="18" x="93.5" y="733.27">13</text><text fill="#000000" font-family="sans-serif" font-size="13" lengthAdjust="spacing" textLength="240" x="115.5" y="733.27">unsuccessful terminal reconcile result</text><line style="stroke:#475569;stroke-width:1.0;stroke-dasharray:2.0,2.0;" x1="10" x2="1288.5" y1="747.3359" y2="747.3359"/><text fill="#000000" font-family="sans-serif" font-size="11" font-weight="bold" lengthAdjust="spacing" textLength="203" x="15" y="757.5464">[OCI state is active and usable]</text><path d="M20,768.1406 L167,768.1406 L167,775.2734 L157,785.2734 L20,785.2734 L20,768.1406 " fill="#F8FAFC" style="stroke:#475569;stroke-width:1.5;"/><rect fill="none" height="306.7266" style="stroke:#475569;stroke-width:1.5;" width="1157" x="20" y="768.1406"/><text fill="#000000" font-family="sans-serif" font-size="13" font-weight="bold" lengthAdjust="spacing" textLength="102" x="35" y="781.2075">Drift handling</text><path d="M324,790.2734 L324,890.2734 L1167,890.2734 L1167,800.2734 L1157,790.2734 L324,790.2734 " fill="#FEFFDD" style="stroke:#181818;stroke-width:0.5;"/><path d="M1157,790.2734 L1157,800.2734 L1167,800.2734 L1157,790.2734 " fill="#FEFFDD" style="stroke:#181818;stroke-width:0.5;"/><text fill="#000000" font-family="sans-serif" font-size="13" lengthAdjust="spacing" textLength="171" x="330" y="807.3403">Supported update surface:</text><text fill="#000000" font-family="sans-serif" font-size="13" lengthAdjust="spacing" textLength="94" x="330" y="822.4731">- display name</text><text fill="#000000" font-family="sans-serif" font-size="13" lengthAdjust="spacing" textLength="96" x="330" y="837.606">- freeform tags</text><text fill="#000000" font-family="sans-serif" font-size="13" lengthAdjust="spacing" textLength="88" x="330" y="852.7388">- defined tags</text><text fill="#000000" font-family="sans-serif" font-size="13" lengthAdjust="spacing" textLength="139" x="330" y="867.8716">Reject before mutate:</text><text fill="#000000" font-family="sans-serif" font-size="13" lengthAdjust="spacing" textLength="71" x="330" y="883.0044">- vcnId drift</text><path d="M30,903.0703 L100,903.0703 L100,910.2031 L90,920.2031 L30,920.2031 L30,903.0703 " fill="#F8FAFC" style="stroke:#475569;stroke-width:1.5;"/><rect fill="none" height="46.2656" style="stroke:#475569;stroke-width:1.5;" width="406.5" x="30" y="903.0703"/><text fill="#000000" font-family="sans-serif" font-size="13" font-weight="bold" lengthAdjust="spacing" textLength="25" x="45" y="916.1372">opt</text><text fill="#000000" font-family="sans-serif" font-size="11" font-weight="bold" lengthAdjust="spacing" textLength="286" x="115" y="915.2808">[unsupported or immutable drift is detected]</text><polygon fill="#334155" points="87.5,937.3359,77.5,941.3359,87.5,945.3359,83.5,941.3359" style="stroke:#334155;stroke-width:1.0;"/><line style="stroke:#334155;stroke-width:1.0;stroke-dasharray:2.0,2.0;" x1="81.5" x2="361.5" y1="941.3359" y2="941.3359"/><text fill="#000000" font-family="sans-serif" font-size="13" font-weight="bold" lengthAdjust="spacing" textLength="18" x="93.5" y="936.27">14</text><text fill="#000000" font-family="sans-serif" font-size="13" lengthAdjust="spacing" textLength="169" x="115.5" y="936.27">reject before OCI mutation</text><polygon fill="#334155" points="1116.5,973.4688,1126.5,977.4688,1116.5,981.4688,1120.5,977.4688" style="stroke:#334155;stroke-width:1.0;"/><line style="stroke:#334155;stroke-width:1.0;" x1="362.5" x2="1122.5" y1="977.4688" y2="977.4688"/><text fill="#000000" font-family="sans-serif" font-size="13" font-weight="bold" lengthAdjust="spacing" textLength="18" x="369.5" y="972.4028">15</text><text fill="#000000" font-family="sans-serif" font-size="13" lengthAdjust="spacing" textLength="439" x="391.5" y="972.4028">Reuse the tracked OCID from status or spec before any fresh lookup.</text><polygon fill="#334155" points="1116.5,1002.6016,1126.5,1006.6016,1116.5,1010.6016,1120.5,1006.6016" style="stroke:#334155;stroke-width:1.0;"/><line style="stroke:#334155;stroke-width:1.0;" x1="362.5" x2="1122.5" y1="1006.6016" y2="1006.6016"/><text fill="#000000" font-family="sans-serif" font-size="13" font-weight="bold" lengthAdjust="spacing" textLength="18" x="369.5" y="1001.5356">16</text><text fill="#000000" font-family="sans-serif" font-size="13" lengthAdjust="spacing" textLength="720" x="391.5" y="1001.5356">Move the Internet Gateway compartment before calling the mutable update path when compartment drift exists.</text><path d="M288.5,1021.6016 L358.5,1021.6016 L358.5,1028.7344 L348.5,1038.7344 L288.5,1038.7344 L288.5,1021.6016 " fill="#F8FAFC" style="stroke:#475569;stroke-width:1.5;"/><rect fill="none" height="46.2656" style="stroke:#475569;stroke-width:1.5;" width="868" x="288.5" y="1021.6016"/><text fill="#000000" font-family="sans-serif" font-size="13" font-weight="bold" lengthAdjust="spacing" textLength="25" x="303.5" y="1034.6685">opt</text><text fill="#000000" font-family="sans-serif" font-size="11" font-weight="bold" lengthAdjust="spacing" textLength="258" x="373.5" y="1033.812">[supported drift or collection diff exists]</text><polygon fill="#334155" points="1116.5,1055.8672,1126.5,1059.8672,1116.5,1063.8672,1120.5,1059.8672" style="stroke:#334155;stroke-width:1.0;"/><line style="stroke:#334155;stroke-width:1.0;" x1="362.5" x2="1122.5" y1="1059.8672" y2="1059.8672"/><text fill="#000000" font-family="sans-serif" font-size="13" font-weight="bold" lengthAdjust="spacing" textLength="18" x="369.5" y="1054.8013">17</text><text fill="#000000" font-family="sans-serif" font-size="13" lengthAdjust="spacing" textLength="277" x="391.5" y="1054.8013">apply the supported in-place mutation path</text><polygon fill="#334155" points="87.5,1099,77.5,1103,87.5,1107,83.5,1103" style="stroke:#334155;stroke-width:1.0;"/><line style="stroke:#334155;stroke-width:1.0;stroke-dasharray:2.0,2.0;" x1="81.5" x2="361.5" y1="1103" y2="1103"/><text fill="#000000" font-family="sans-serif" font-size="13" font-weight="bold" lengthAdjust="spacing" textLength="18" x="93.5" y="1097.9341">18</text><text fill="#000000" font-family="sans-serif" font-size="13" lengthAdjust="spacing" textLength="169" x="115.5" y="1097.9341">successful active reconcile</text><path d="M51,1123 L51,1254 L1152,1254 L1152,1133 L1142,1123 L51,1123 " fill="#FEFFDD" style="stroke:#181818;stroke-width:0.5;"/><path d="M1142,1123 L1142,1133 L1152,1133 L1142,1123 " fill="#FEFFDD" style="stroke:#181818;stroke-width:0.5;"/><text fill="#000000" font-family="sans-serif" font-size="13" lengthAdjust="spacing" textLength="105" x="57" y="1140.0669">Boundary notes:</text><text fill="#000000" font-family="sans-serif" font-size="13" lengthAdjust="spacing" textLength="432" x="57" y="1155.1997">- isEnabled remains create-time only; the in-place update surface is</text><text fill="#000000" font-family="sans-serif" font-size="13" lengthAdjust="spacing" textLength="213" x="73" y="1170.3325">limited to display name and tags.</text><text fill="#000000" font-family="sans-serif" font-size="13" lengthAdjust="spacing" textLength="108" x="57" y="1185.4653">Sequence notes:</text><text fill="#000000" font-family="sans-serif" font-size="13" lengthAdjust="spacing" textLength="441" x="57" y="1200.5981">- Paginated name lookup is only used when no status or spec OCID is</text><text fill="#000000" font-family="sans-serif" font-size="13" lengthAdjust="spacing" textLength="95" x="73" y="1215.731">already bound.</text><text fill="#000000" font-family="sans-serif" font-size="13" lengthAdjust="spacing" textLength="166" x="57" y="1230.8638">Controller-local invariants:</text><text fill="#000000" font-family="sans-serif" font-size="13" lengthAdjust="spacing" textLength="229" x="57" y="1245.9966">- StatusPresentUsesStatusInvariant</text><!--SRC=[bLRRRXit47tVhnYuhvMHrfSuBb10LYp3YDCQTl81tDrPYJMNtF8YHItwxvqXkTgrP2cjWTW8vtvuvd2zz0hXzzazt6kFLgE7E-5nBJRmX9NHbIJpC_uPK5TOYE2D3cs9jd0lKdV2YXRSKjHcBVK26g4SZYmtedfPM1DqFJFAMFXX7dz67bDhpJeRpyxEVxgu61bhR4HG_Wj-yrCb5xf5xK5XuyV5SslmTm7mAAoNbUo4zlkbh-RJ-Mp7oTWQRNOuVtznSVc171vaWmzIuolhX_FfsStLs7fWDe0xEktUJfrC1rkRLjxOFVFjk_dFyzkjUPputVpzvULjyKyXs0GdCwEzDKgXFG7XOFXlqGrJmyapsfKap3uBBHRPDv_bew8MNfJ28PmGDw83_HsTVWfbP0iwc3ucXqzNhYY6aZ3vTIVfDTWjfMfqqc8DhiCAXAv1oHM2yy87LxmEuqIKcwD53REdx1MZ6gc5ad-H4nzYKJ1o7JmOyq9_sAEKkYRiXFBWBK5BDGaf_DOfWiFpL1_9oAatT2gTT-GDiDy2ULx3WlR3Bn6gO2spqQ8pmHAKvGPUj5bha3MToqOIXW18-m3Qf2hIGSdN2XlqnseeQcARs77cMhfEqKPgqMACLCPqe6XW2nt5EWXKKu60LlXgcGPSYk2yD3e672pM80VmI9hMBDNcb34A8tG9l8WDB_bsv8Q7EPWztbY7rd56piznQaNm9p1qVzcnKCRf_nQ98rHqUHvZ3TQnFlI_TvOIlDrOBCw_-L_1GDIeYFPKXeJ7KHZP4-a-HiEnctMXR1FdSfPZphH9ZRHjygHxXBNqIy93AREUKBaxzBrazufT2QLwBlIGHnI9UWkZaOcXZK-WdXP7uB7OcbN2T5WnqJ3XylnLQazaYaM8-1PvkBYBNDIYjnjHAXvqjnAL6iJYEk4P4gwi36zaQmGfHrnVwgFbjhwVDcWNAbeZrmIr3Hlf4454JymRnKXHMP5OGeBB8-HxjhBni2IB8gf657yp54I0sPrsVcJHp3mCNMSiqonqDTTmmJQYmkjid-nlEHys5h4nH0Cl5cvmHReLIZKwVC8_iF9GiZT26tYE8VUgqlSrrDnvpsjcGgfZEXznwXiaW6NB6KeMwZWj0LBJhLU9xsyHP-ywn-qmih6bNezwPJd0_ISCBh6lr-oucuqrRQ_-r6HyEt85eJUCbLkoDfBsdnvB_xddzjutJsLQVYdZbqREp4l5aiJ-FIZv2Zj16xbUeduLbn1BRydf5k01tcId_Yl6gegxNSkc6Jy_1riNNQSsiPSXeTGJ8aw5MuXZOplwzTqR6-r9vlvsIvBu3IGVmZB1RrXGXDr4JZcctOGeSwiPh9h5H4ZjiivEl6mfZrQRN-8Ss-vVxmN5PoIK9D5aifjNAn9NanVWDCwMFmD73JoA1IqxHqRtn0jcCjUcfIP3l3jwTtOubP_hNB__EYXxrHp6doX3zA0HLi9A-hJAbPzZkaUY8_7XgqEN3kvxjsAxVly2]--></g></svg>