<?xml version="1.0" encoding="UTF-8" standalone="no"?><svg xmlns="http://www.w3.org/2000/svg" xmlns:xlink="http://www.w3.org/1999/xlink" contentStyleType="text/css" height="438px" preserveAspectRatio="none" style="width:2364px;height:438px;background:#FFFFFF;" version="1.1" viewBox="0 0 2364 438" width="2364px" zoomAndPan="magnify"><defs/><g><text fill="#000000" font-family="sans-serif" font-size="14" font-weight="bold" lengthAdjust="spacing" textLength="366" x="992" y="22.9951">OCI Internet Gateway Reconcile State Machine</text><ellipse cx="16" cy="292.7969" fill="#222222" rx="10" ry="10" style="stroke:none;stroke-width:1.0;"/><g id="Observe"><rect fill="#F8FAFC" height="50.2656" rx="6" ry="6" style="stroke:#475569;stroke-width:0.5;" width="329" x="86" y="267.7969"/><line style="stroke:#475569;stroke-width:0.5;" x1="86" x2="415" y1="294.0938" y2="294.0938"/><text fill="#0F172A" font-family="sans-serif" font-size="14" lengthAdjust="spacing" textLength="58" x="221.5" y="285.792">Observe</text><text fill="#0F172A" font-family="sans-serif" font-size="12" lengthAdjust="spacing" textLength="309" x="91" y="310.2324">read spec, status, delete intent, and OCI lifecycle</text></g><rect fill="#F8FAFC" height="40" rx="6" ry="6" style="stroke:#475569;stroke-width:0.5;" width="122" x="475" y="272.7969"/><text fill="#0F172A" font-family="sans-serif" font-size="14" lengthAdjust="spacing" textLength="112" x="480" y="297.6436">ResolveByName</text><rect fill="#F8FAFC" height="40" rx="6" ry="6" style="stroke:#475569;stroke-width:0.5;" width="130" x="657" y="272.7969"/><text fill="#0F172A" font-family="sans-serif" font-size="14" lengthAdjust="spacing" textLength="120" x="662" y="297.6436">PaginatedLookup</text><rect fill="#F8FAFC" height="40" rx="6" ry="6" style="stroke:#475569;stroke-width:0.5;" width="111" x="847" y="181.7969"/><text fill="#0F172A" font-family="sans-serif" font-size="14" lengthAdjust="spacing" textLength="101" x="852" y="206.6436">EvaluateReady</text><rect fill="#F8FAFC" height="40" rx="6" ry="6" style="stroke:#475569;stroke-width:0.5;" width="75" x="1262" y="272.7969"/><text fill="#0F172A" font-family="sans-serif" font-size="14" lengthAdjust="spacing" textLength="65" x="1267" y="297.6436">Retryable</text><rect fill="#F8FAFC" height="40" rx="6" ry="6" style="stroke:#475569;stroke-width:0.5;" width="50" x="1409.5" y="358.7969"/><text fill="#0F172A" font-family="sans-serif" font-size="14" lengthAdjust="spacing" textLength="40" x="1414.5" y="383.6436">Failed</text><rect fill="#F8FAFC" height="40" rx="6" ry="6" style="stroke:#475569;stroke-width:0.5;" width="173" x="1018" y="106.7969"/><text fill="#0F172A" font-family="sans-serif" font-size="14" lengthAdjust="spacing" textLength="163" x="1023" y="131.6436">RejectUnsupportedDrift</text><rect fill="#F8FAFC" height="40" rx="6" ry="6" style="stroke:#475569;stroke-width:0.5;" width="53" x="1408" y="161.7969"/><text fill="#0F172A" font-family="sans-serif" font-size="14" lengthAdjust="spacing" textLength="43" x="1413" y="186.6436">Ready</text><rect fill="#F8FAFC" height="40" rx="6" ry="6" style="stroke:#475569;stroke-width:0.5;" width="142" x="1033.5" y="181.7969"/><text fill="#0F172A" font-family="sans-serif" font-size="14" lengthAdjust="spacing" textLength="132" x="1038.5" y="206.6436">MoveCompartment</text><rect fill="#F8FAFC" height="40" rx="6" ry="6" style="stroke:#475569;stroke-width:0.5;" width="97" x="1251" y="179.7969"/><text fill="#0F172A" font-family="sans-serif" font-size="14" lengthAdjust="spacing" textLength="87" x="1256" y="204.6436">ApplyUpdate</text><rect fill="#F8FAFC" height="40" rx="6" ry="6" style="stroke:#475569;stroke-width:0.5;" width="113" x="1658.5" y="285.7969"/><text fill="#0F172A" font-family="sans-serif" font-size="14" lengthAdjust="spacing" textLength="103" x="1663.5" y="310.6436">DeletePending</text><rect fill="#F8FAFC" height="40" rx="6" ry="6" style="stroke:#475569;stroke-width:0.5;" width="65" x="2130.5" y="232.7969"/><text fill="#0F172A" font-family="sans-serif" font-size="14" lengthAdjust="spacing" textLength="55" x="2135.5" y="257.6436">Deleted</text><g id="elem_GMN34"><path d="M1521,49.2969 L1521,184.4669 L1461.14,188.4669 L1521,192.4669 L1521,244.0234 A6,6 0 0 0 1527,250.0234 L1903,250.0234 A6,6 0 0 0 1909,244.0234 L1909,53.2969 L1899,43.2969 L1527,43.2969 A6,6 0 0 0 1521,49.2969 " fill="#FFF7ED" style="stroke:#181818;stroke-width:0.5;"/><path d="M1899,43.2969 L1899,50.2969 A3,3 0 0 0 1902,53.2969 L1909,53.2969 L1899,43.2969 " fill="#FFF7ED" style="stroke:#181818;stroke-width:0.5;"/><text fill="#0F172A" font-family="sans-serif" font-size="13" lengthAdjust="spacing" textLength="69" x="1527" y="60.3638">Archetype:</text><text fill="#0F172A" font-family="sans-serif" font-size="13" lengthAdjust="spacing" textLength="207" x="1527" y="75.4966">- resolved-drift-delete-paginated</text><text fill="#0F172A" font-family="sans-serif" font-size="13" lengthAdjust="spacing" textLength="102" x="1527" y="90.6294">Update surface:</text><text fill="#0F172A" font-family="sans-serif" font-size="13" lengthAdjust="spacing" textLength="94" x="1527" y="105.7622">- display name</text><text fill="#0F172A" font-family="sans-serif" font-size="13" lengthAdjust="spacing" textLength="96" x="1527" y="120.895">- freeform tags</text><text fill="#0F172A" font-family="sans-serif" font-size="13" lengthAdjust="spacing" textLength="88" x="1527" y="136.0278">- defined tags</text><text fill="#0F172A" font-family="sans-serif" font-size="13" lengthAdjust="spacing" textLength="139" x="1527" y="151.1606">Reject before mutate:</text><text fill="#0F172A" font-family="sans-serif" font-size="13" lengthAdjust="spacing" textLength="71" x="1527" y="166.2935">- vcnId drift</text><text fill="#0F172A" font-family="sans-serif" font-size="13" lengthAdjust="spacing" textLength="105" x="1527" y="181.4263">Boundary notes:</text><text fill="#0F172A" font-family="sans-serif" font-size="13" lengthAdjust="spacing" textLength="367" x="1527" y="196.5591">- isEnabled remains create-time only; the in-place update</text><text fill="#0F172A" font-family="sans-serif" font-size="13" lengthAdjust="spacing" textLength="278" x="1543" y="211.6919">surface is limited to display name and tags.</text><text fill="#0F172A" font-family="sans-serif" font-size="13" lengthAdjust="spacing" textLength="166" x="1527" y="226.8247">Controller-local invariants:</text><text fill="#0F172A" font-family="sans-serif" font-size="13" lengthAdjust="spacing" textLength="229" x="1527" y="241.9575">- StatusPresentUsesStatusInvariant</text></g><g id="elem_GMN37"><path d="M1969,314.2969 L1969,313.0469 L1771.74,317.0469 L1969,321.0469 L1969,403.0938 A6,6 0 0 0 1975,409.0938 L2351,409.0938 A6,6 0 0 0 2357,403.0938 L2357,318.2969 L2347,308.2969 L1975,308.2969 A6,6 0 0 0 1969,314.2969 " fill="#FFF7ED" style="stroke:#181818;stroke-width:0.5;"/><path d="M2347,308.2969 L2347,315.2969 A3,3 0 0 0 2350,318.2969 L2357,318.2969 L2347,308.2969 " fill="#FFF7ED" style="stroke:#181818;stroke-width:0.5;"/><text fill="#0F172A" font-family="sans-serif" font-size="13" lengthAdjust="spacing" textLength="90" x="1975" y="325.3638">Delete states:</text><text fill="#0F172A" font-family="sans-serif" font-size="13" lengthAdjust="spacing" textLength="102" x="1975" y="340.4966">- DeletePending</text><text fill="#0F172A" font-family="sans-serif" font-size="13" lengthAdjust="spacing" textLength="59" x="1975" y="355.6294">- Deleted</text><text fill="#0F172A" font-family="sans-serif" font-size="13" lengthAdjust="spacing" textLength="103" x="1975" y="370.7622">Delete workflow:</text><text fill="#0F172A" font-family="sans-serif" font-size="13" lengthAdjust="spacing" textLength="367" x="1975" y="385.895">- Confirm deletion with follow-up GetInternetGateway calls</text><text fill="#0F172A" font-family="sans-serif" font-size="13" lengthAdjust="spacing" textLength="248" x="1991" y="401.0278">until the resource is gone or not found.</text></g><!--link *start to Observe--><g id="link_*start_Observe"><path d="M26.08,292.7969 C26.08,292.7969 80.84,292.7969 80.84,292.7969 " fill="none" id="*start-to-Observe" style="stroke:#181818;stroke-width:1.0;"/><polygon fill="#181818" points="85.84,292.7969,76.84,288.7969,80.84,292.7969,76.84,296.7969,85.84,292.7969" style="stroke:#181818;stroke-width:1.0;"/></g><!--link Observe to ResolveByName--><g id="link_Observe_ResolveByName"><path d="M415.34,292.7969 C415.34,292.7969 469.86,292.7969 469.86,292.7969 " fill="none" id="Observe-to-ResolveByName" style="stroke:#181818;stroke-width:1.0;"/><polygon fill="#181818" points="474.86,292.7969,465.86,288.7969,469.86,292.7969,465.86,296.7969,474.86,292.7969" style="stroke:#181818;stroke-width:1.0;"/><text fill="#000000" font-family="sans-serif" font-size="13" lengthAdjust="spacing" textLength="163" x="443.6" y="305.8638">status/spec OCID missing</text></g><!--link ResolveByName to PaginatedLookup--><g id="link_ResolveByName_PaginatedLookup"><path d="M597.16,292.7969 C597.16,292.7969 651.96,292.7969 651.96,292.7969 " fill="none" id="ResolveByName-to-PaginatedLookup" style="stroke:#181818;stroke-width:1.0;"/><polygon fill="#181818" points="656.96,292.7969,647.96,288.7969,651.96,292.7969,647.96,296.7969,656.96,292.7969" style="stroke:#181818;stroke-width:1.0;"/><text fill="#000000" font-family="sans-serif" font-size="13" lengthAdjust="spacing" textLength="219" x="625.56" y="305.8638">continue searching later list pages</text></g><!--link PaginatedLookup to EvaluateReady--><g id="link_PaginatedLookup_EvaluateReady"><path d="M787.09,282.7969 C838.98,282.7969 903,282.7969 903,282.7969 C903,282.7969 903,226.8169 903,226.8169 " fill="none" id="PaginatedLookup-to-EvaluateReady" style="stroke:#181818;stroke-width:1.0;"/><polygon fill="#181818" points="903,221.8169,899,230.8169,903,226.8169,907,230.8169,903,221.8169" style="stroke:#181818;stroke-width:1.0;"/><text fill="#000000" font-family="sans-serif" font-size="13" lengthAdjust="spacing" textLength="148" x="874.03" y="278.8638">OCI state in AVAILABLE</text></g><!--link PaginatedLookup to Retryable--><g id="link_PaginatedLookup_Retryable"><path d="M787.12,292.7969 C787.12,292.7969 1256.7,292.7969 1256.7,292.7969 " fill="none" id="PaginatedLookup-to-Retryable" style="stroke:#181818;stroke-width:1.0;"/><polygon fill="#181818" points="1261.7,292.7969,1252.7,288.7969,1256.7,292.7969,1252.7,296.7969,1261.7,292.7969" style="stroke:#181818;stroke-width:1.0;"/><text fill="#000000" font-family="sans-serif" font-size="13" lengthAdjust="spacing" textLength="246" x="1022.91" y="305.8638">OCI state in PROVISIONING, UPDATING</text></g><!--link PaginatedLookup to Failed--><g id="link_PaginatedLookup_Failed"><path d="M722,312.8169 C722,336.3169 722,372.1269 722,372.1269 C722,372.1269 1404.14,372.1269 1404.14,372.1269 " fill="none" id="PaginatedLookup-to-Failed" style="stroke:#181818;stroke-width:1.0;"/><polygon fill="#181818" points="1409.14,372.1269,1400.14,368.1269,1404.14,372.1269,1400.14,376.1269,1409.14,372.1269" style="stroke:#181818;stroke-width:1.0;"/><text fill="#000000" font-family="sans-serif" font-size="13" lengthAdjust="spacing" textLength="188" x="844.41" y="385.1938">OCI state in FAILED, DELETED</text></g><!--link EvaluateReady to RejectUnsupportedDrift--><g id="link_EvaluateReady_RejectUnsupportedDrift"><path d="M958.11,195.1269 C990.89,195.1269 1026,195.1269 1026,195.1269 C1026,195.1269 1026,151.9269 1026,151.9269 " fill="none" id="EvaluateReady-to-RejectUnsupportedDrift" style="stroke:#181818;stroke-width:1.0;"/><polygon fill="#181818" points="1026,146.9269,1022,155.9269,1026,151.9269,1030,155.9269,1026,146.9269" style="stroke:#181818;stroke-width:1.0;"/><text fill="#000000" font-family="sans-serif" font-size="13" lengthAdjust="spacing" textLength="275" x="737.65" y="191.1938">unsupported or immutable drift is detected</text></g><!--link RejectUnsupportedDrift to Ready--><g id="link_RejectUnsupportedDrift_Ready"><path d="M1184,146.9969 C1184,159.7369 1184,173.7969 1184,173.7969 C1184,173.7969 1402.69,173.7969 1402.69,173.7969 " fill="none" id="RejectUnsupportedDrift-to-Ready" style="stroke:#181818;stroke-width:1.0;"/><polygon fill="#181818" points="1407.69,173.7969,1398.69,169.7969,1402.69,173.7969,1398.69,177.7969,1407.69,173.7969" style="stroke:#181818;stroke-width:1.0;"/><text fill="#000000" font-family="sans-serif" font-size="13" lengthAdjust="spacing" textLength="252" x="1026.95" y="169.8638">wait for the spec or live state to change</text></g><!--link EvaluateReady to MoveCompartment--><g id="link_EvaluateReady_MoveCompartment"><path d="M958.23,208.4669 C958.23,208.4669 1028.4,208.4669 1028.4,208.4669 " fill="none" id="EvaluateReady-to-MoveCompartment" style="stroke:#181818;stroke-width:1.0;"/><polygon fill="#181818" points="1033.4,208.4669,1024.4,204.4669,1028.4,208.4669,1024.4,212.4669,1033.4,208.4669" style="stroke:#181818;stroke-width:1.0;"/><text fill="#000000" font-family="sans-serif" font-size="13" lengthAdjust="spacing" textLength="158" x="834.32" y="221.5338">continue active reconcile</text></g><!--link MoveCompartment to ApplyUpdate--><g id="link_MoveCompartment_ApplyUpdate"><path d="M1175.73,200.7969 C1175.73,200.7969 1245.99,200.7969 1245.99,200.7969 " fill="none" id="MoveCompartment-to-ApplyUpdate" style="stroke:#181818;stroke-width:1.0;"/><polygon fill="#181818" points="1250.99,200.7969,1241.99,196.7969,1245.99,200.7969,1241.99,204.7969,1250.99,200.7969" style="stroke:#181818;stroke-width:1.0;"/><text fill="#000000" font-family="sans-serif" font-size="13" lengthAdjust="spacing" textLength="221" x="1211.86" y="213.8638">continue after compartment move</text></g><!--link ApplyUpdate to Ready--><g id="link_ApplyUpdate_Ready"><path d="M1348.24,190.7969 C1348.24,190.7969 1402.81,190.7969 1402.81,190.7969 " fill="none" id="ApplyUpdate-to-Ready" style="stroke:#181818;stroke-width:1.0;"/><polygon fill="#181818" points="1407.81,190.7969,1398.81,186.7969,1402.81,190.7969,1398.81,194.7969,1407.81,190.7969" style="stroke:#181818;stroke-width:1.0;"/><text fill="#000000" font-family="sans-serif" font-size="13" lengthAdjust="spacing" textLength="231" x="1143.52" y="186.8638">supported mutation path completes</text></g><!--link Ready to Ready--><g id="link_Ready_Ready"><path d="M1407.84,167.7969 C1389.33,167.7969 1368,167.7969 1368,167.7969 C1368,167.7969 1368,154.2969 1368,154.2969 C1368,154.2969 1481,154.2969 1481,154.2969 C1481,154.2969 1481,175.1269 1481,175.1269 C1481,175.1269 1466.01,175.1269 1466.01,175.1269 " fill="none" id="Ready-to-Ready" style="stroke:#181818;stroke-width:1.0;"/><polygon fill="#181818" points="1461.01,175.1269,1470.01,179.1269,1466.01,175.1269,1470.01,171.1269,1461.01,175.1269" style="stroke:#181818;stroke-width:1.0;"/><text fill="#000000" font-family="sans-serif" font-size="13" lengthAdjust="spacing" textLength="170" x="1239.74" y="145.3638">no supported drift remains</text></g><!--link Retryable to Retryable--><g id="link_Retryable_Retryable"><path d="M1261.88,302.7969 C1258.89,302.7969 1257,302.7969 1257,302.7969 C1257,302.7969 1257,320.4669 1257,320.4669 C1257,320.4669 1343,320.4669 1343,320.4669 C1343,320.4669 1343,292.5469 1343,292.5469 C1343,292.5469 1342.31,292.5469 1342.31,292.5469 " fill="none" id="Retryable-to-Retryable" style="stroke:#181818;stroke-width:1.0;"/><polygon fill="#181818" points="1337.31,292.5469,1346.31,296.5469,1342.31,292.5469,1346.31,288.5469,1337.31,292.5469" style="stroke:#181818;stroke-width:1.0;"/><text fill="#000000" font-family="sans-serif" font-size="13" lengthAdjust="spacing" textLength="159" x="1138.03" y="338.5338">OCI remains nonterminal</text></g><!--link Failed to Failed--><g id="link_Failed_Failed"><path d="M1409.34,385.4669 C1398.39,385.4669 1388,385.4669 1388,385.4669 C1388,385.4669 1388,404.0469 1388,404.0469 C1388,404.0469 1501,404.0469 1501,404.0469 C1501,404.0469 1501,378.7969 1501,378.7969 C1501,378.7969 1464.64,378.7969 1464.64,378.7969 " fill="none" id="Failed-to-Failed" style="stroke:#181818;stroke-width:1.0;"/><polygon fill="#181818" points="1459.64,378.7969,1468.64,382.7969,1464.64,378.7969,1468.64,374.7969,1459.64,378.7969" style="stroke:#181818;stroke-width:1.0;"/><text fill="#000000" font-family="sans-serif" font-size="13" lengthAdjust="spacing" textLength="135" x="1314.34" y="422.1138">OCI remains terminal</text></g><!--link Ready to DeletePending--><g id="link_Ready_DeletePending"><path d="M1427,201.9969 C1427,235.5869 1427,299.2969 1427,299.2969 C1427,299.2969 1653.44,299.2969 1653.44,299.2969 " fill="none" id="Ready-to-DeletePending" style="stroke:#181818;stroke-width:1.0;"/><polygon fill="#181818" points="1658.44,299.2969,1649.44,295.2969,1653.44,299.2969,1649.44,303.2969,1658.44,299.2969" style="stroke:#181818;stroke-width:1.0;"/><text fill="#000000" font-family="sans-serif" font-size="13" lengthAdjust="spacing" textLength="109" x="1381.57" y="295.3638">delete requested</text></g><!--link Retryable to DeletePending--><g id="link_Retryable_DeletePending"><path d="M1337.11,306.0469 C1337.11,306.0469 1653.18,306.0469 1653.18,306.0469 " fill="none" id="Retryable-to-DeletePending" style="stroke:#181818;stroke-width:1.0;"/><polygon fill="#181818" points="1658.18,306.0469,1649.18,302.0469,1653.18,306.0469,1649.18,310.0469,1658.18,306.0469" style="stroke:#181818;stroke-width:1.0;"/><text fill="#000000" font-family="sans-serif" font-size="13" lengthAdjust="spacing" textLength="109" x="1385.14" y="319.1138">delete requested</text></g><!--link Failed to DeletePending--><g id="link_Failed_DeletePending"><path d="M1443,358.6969 C1443,342.7569 1443,323.1269 1443,323.1269 C1443,323.1269 1653.31,323.1269 1653.31,323.1269 " fill="none" id="Failed-to-DeletePending" style="stroke:#181818;stroke-width:1.0;"/><polygon fill="#181818" points="1658.31,323.1269,1649.31,319.1269,1653.31,323.1269,1649.31,327.1269,1658.31,323.1269" style="stroke:#181818;stroke-width:1.0;"/><text fill="#000000" font-family="sans-serif" font-size="13" lengthAdjust="spacing" textLength="109" x="1420.37" y="336.1938">delete requested</text></g><!--link DeletePending to Deleted--><g id="link_DeletePending_Deleted"><path d="M1771.74,297.0469 C1892.29,297.0469 2163,297.0469 2163,297.0469 C2163,297.0469 2163,277.8469 2163,277.8469 " fill="none" id="DeletePending-to-Deleted" style="stroke:#181818;stroke-width:1.0;"/><polygon fill="#181818" points="2163,272.8469,2159,281.8469,2163,277.8469,2167,281.8469,2163,272.8469" style="stroke:#181818;stroke-width:1.0;"/><text fill="#000000" font-family="sans-serif" font-size="13" lengthAdjust="spacing" textLength="373" x="1977.97" y="293.1138">OCI deletion is confirmed and the finalizer can be removed</text></g><!--link Deleted to Deleted--><g id="link_Deleted_Deleted"><path d="M2130.32,259.0469 C2096.94,259.0469 2050,259.0469 2050,259.0469 C2050,259.0469 2050,279.2969 2050,279.2969 C2050,279.2969 2277,279.2969 2277,279.2969 C2277,279.2969 2277,252.7969 2277,252.7969 C2277,252.7969 2200.67,252.7969 2200.67,252.7969 " fill="none" id="Deleted-to-Deleted" style="stroke:#181818;stroke-width:1.0;"/><polygon fill="#181818" points="2195.67,252.7969,2204.67,256.7969,2200.67,252.7969,2204.67,248.7969,2195.67,252.7969" style="stroke:#181818;stroke-width:1.0;"/><text fill="#000000" font-family="sans-serif" font-size="13" lengthAdjust="spacing" textLength="100" x="2170.63" y="270.3638">terminal stutter</text></g><!--SRC=[XLLDRnit4BtpLmpGMs3bgt7Tk401VHe275kGxLoA7kZbx8erbzoIN2dR8l-zCwGsMYaguekyvCpZuxmtmwYZGRYVBc5f8tgB4Mvan9tiO8s5iuMcxOT8I_195XjjKHWi8qG7NbUR24fxBA9sLcoqGi2wYHqe38NNJLeEBzesqiiQmaOgjzEsWbAQW8CTGxYnQn2SZnitsF2kjQfmnCl3k_U3ZOaiNggqEtN6UVXfaVu64GfBsPhuY5_YsEZArcWZCFSXetInVmN0n7c5Ve_ruUhoyfUFjBfmDkxNtYxUNRqVS-Ht9_-w62-cuki0rxfpi9CFbp-__NWMOh6uci_E7lXL_F7gJnYDVeVxvu1-YsB_2zVWKIe83HONwIPjkA1R6wIpDObfumL8gvAuHfTOT8KvP3FY6eCpMvnqTx9cl0poXX4vQmQr3e7q4iU1dBgIbRPKF7Nht4lRK3AP9MhR8WIKdfrIWQ40JsU728siC8ZJB4QQRwLfQMrDb-a8X-bcNRI5yUVnydOykPsVJLrZz9ryDdYQjbhVVru-BE_lbdSt5_2qceqVwR-p60j93bUd00iwTZwxWDdyTlv8oXoJp6V_HRv_ig5j6d8jgfdNr1VNq1wMoCwWwxgDYQDA0JgGHf5IKOd_mSZmkHexgIEKX1CtcAHcJAD9mCoL-h3OI5lX6OgVt1QdhYPBncJ-WKQIMfOmVD_YuZIMyyTDOxgdHl4vmzoILIq6mJKbYs7qy0Q7Qd0XU2IG6U8c0R1NWnWMDUTODqZBTVDOIsqvkDVyd0FsKGJ0qwmcjOtOA_oTs7tijy03ZrdgeXLQnJQ-xhlAuzyjXgpSaCKFmmSKVXXx7718wMcd1AuYEOaqARMlQOyRdIrIyatqFooGjF3CmAnE3wjE0FkxavlQI1z2fD6LHxihio1YJFsSvlEr615WcWLgb7GPPVwZfcyjiRT0Q7qfYvIXT6WCFIYMXWTzbXwH75r3b5NWRIJIn2PzvfOWuXI1sJ49OrlOvTuAOiAJK_ekZTd0kphCBQkXlebQq6maMb7Jl7BMTB-bwcWx8YO5Gfj8qi25dYYNq-XQSrsegOQSSt69tMin9LzvPmpwaN45rKtRhVHQsfXuFAG1kg8IKLiy1GnvOTa72L8riJwjyv7eUwroXoVSu-t-knSLTiw_bCRjE7IQBN6moKvJivN4sUr6DFDkCFOlVV_GqprCIBLegSLDgXIhtFfSbifPVfcPE05HxLyVxl4V]--></g></svg>