<?xml version="1.0" encoding="UTF-8" standalone="no"?><svg xmlns="http://www.w3.org/2000/svg" xmlns:xlink="http://www.w3.org/1999/xlink" contentStyleType="text/css" height="1669px" preserveAspectRatio="none" style="width:1979px;height:1669px;background:#FFFFFF;" version="1.1" viewBox="0 0 1979 1669" width="1979px" zoomAndPan="magnify"><defs/><g><text fill="#000000" font-family="sans-serif" font-size="14" font-weight="bold" lengthAdjust="spacing" textLength="200" x="888" y="32.9951">Stream Reconcile Activity</text><ellipse cx="779.375" cy="57.2969" fill="#0F766E" rx="10" ry="10" style="stroke:#222222;stroke-width:1.0;"/><rect fill="none" height="308.1719" style="stroke:#000000;stroke-width:1.5;" width="686" x="456.875" y="77.2969"/><path d="M589.875,77.2969 L589.875,86.5938 L579.875,96.5938 L456.875,96.5938 " fill="none" style="stroke:#000000;stroke-width:1.5;"/><text fill="#000000" font-family="sans-serif" font-size="14" lengthAdjust="spacing" textLength="123" x="459.875" y="91.292">Observe and Bind</text><rect fill="#F8FAFC" height="33.9688" rx="12.5" ry="12.5" style="stroke:#475569;stroke-width:0.5;" width="304" x="627.375" y="113.5938"/><text fill="#0F172A" font-family="sans-serif" font-size="12" lengthAdjust="spacing" textLength="284" x="637.375" y="134.7324">Read CR spec, status OCID, and delete intent</text><rect fill="#F8FAFC" height="33.9688" rx="12.5" ry="12.5" style="stroke:#475569;stroke-width:0.5;" width="460" x="549.375" y="167.5625"/><text fill="#0F172A" font-family="sans-serif" font-size="12" lengthAdjust="spacing" textLength="440" x="559.375" y="188.7012">Keep status-bound OCID authoritative for later update or delete paths</text><polygon fill="#E2E8F0" points="679.375,221.5313,879.375,221.5313,891.375,233.5313,879.375,245.5313,679.375,245.5313,667.375,233.5313,679.375,221.5313" style="stroke:#475569;stroke-width:0.5;"/><text fill="#0F172A" font-family="sans-serif" font-size="11" lengthAdjust="spacing" textLength="200" x="679.375" y="237.3394">"Tracked or explicit OCID present?"</text><text fill="#000000" font-family="sans-serif" font-size="11" lengthAdjust="spacing" textLength="20" x="647.375" y="230.937">yes</text><text fill="#000000" font-family="sans-serif" font-size="11" lengthAdjust="spacing" textLength="14" x="891.375" y="230.937">no</text><rect fill="#F8FAFC" height="33.9688" rx="12.5" ry="12.5" style="stroke:#475569;stroke-width:0.5;" width="272" x="476.875" y="255.5313"/><text fill="#0F172A" font-family="sans-serif" font-size="12" lengthAdjust="spacing" textLength="252" x="486.875" y="276.6699">Get the OCI resource by known identifier</text><rect fill="#F8FAFC" height="33.9688" rx="12.5" ry="12.5" style="stroke:#475569;stroke-width:0.5;" width="328" x="781.875" y="255.5313"/><text fill="#0F172A" font-family="sans-serif" font-size="12" lengthAdjust="spacing" textLength="308" x="791.875" y="276.6699">Resolve an existing OCI resource by display name</text><rect fill="#F8FAFC" height="33.9688" rx="12.5" ry="12.5" style="stroke:#475569;stroke-width:0.5;" width="354" x="768.875" y="309.5"/><text fill="#0F172A" font-family="sans-serif" font-size="12" lengthAdjust="spacing" textLength="334" x="778.875" y="330.6387">Persist the resolved or created OCID back into status</text><polygon fill="#E2E8F0" points="779.375,349.4688,791.375,361.4688,779.375,373.4688,767.375,361.4688,779.375,349.4688" style="stroke:#475569;stroke-width:0.5;"/><path d="M1574,860.1484 L1574,1248.4688 L1967,1248.4688 L1967,870.1484 L1957,860.1484 L1574,860.1484 " fill="#FEFFDD" style="stroke:#181818;stroke-width:0.5;"/><path d="M1957,860.1484 L1957,870.1484 L1967,870.1484 L1957,860.1484 " fill="#FEFFDD" style="stroke:#181818;stroke-width:0.5;"/><text fill="#000000" font-family="sans-serif" font-size="13" lengthAdjust="spacing" textLength="69" x="1580" y="877.2153">Archetype:</text><text fill="#000000" font-family="sans-serif" font-size="13" lengthAdjust="spacing" textLength="183" x="1580" y="892.3481">- resolved-drift-delete-secret</text><text fill="#000000" font-family="sans-serif" font-size="13" lengthAdjust="spacing" textLength="134" x="1580" y="907.481">Retryable OCI states:</text><text fill="#000000" font-family="sans-serif" font-size="13" lengthAdjust="spacing" textLength="73" x="1580" y="922.6138">- CREATING</text><text fill="#000000" font-family="sans-serif" font-size="13" lengthAdjust="spacing" textLength="76" x="1580" y="937.7466">- UPDATING</text><text fill="#000000" font-family="sans-serif" font-size="13" lengthAdjust="spacing" textLength="72" x="1580" y="952.8794">- DELETING</text><text fill="#000000" font-family="sans-serif" font-size="13" lengthAdjust="spacing" textLength="113" x="1580" y="968.0122">Active OCI states:</text><text fill="#000000" font-family="sans-serif" font-size="13" lengthAdjust="spacing" textLength="54" x="1580" y="983.145">- ACTIVE</text><text fill="#000000" font-family="sans-serif" font-size="13" lengthAdjust="spacing" textLength="111" x="1580" y="998.2778">Failed OCI states:</text><text fill="#000000" font-family="sans-serif" font-size="13" lengthAdjust="spacing" textLength="53" x="1580" y="1013.4106">- FAILED</text><text fill="#000000" font-family="sans-serif" font-size="13" lengthAdjust="spacing" textLength="67" x="1580" y="1028.5435">- DELETED</text><text fill="#000000" font-family="sans-serif" font-size="13" lengthAdjust="spacing" textLength="102" x="1580" y="1043.6763">Update surface:</text><text fill="#000000" font-family="sans-serif" font-size="13" lengthAdjust="spacing" textLength="93" x="1580" y="1058.8091">- streamPoolId</text><text fill="#000000" font-family="sans-serif" font-size="13" lengthAdjust="spacing" textLength="96" x="1580" y="1073.9419">- freeform tags</text><text fill="#000000" font-family="sans-serif" font-size="13" lengthAdjust="spacing" textLength="88" x="1580" y="1089.0747">- defined tags</text><text fill="#000000" font-family="sans-serif" font-size="13" lengthAdjust="spacing" textLength="139" x="1580" y="1104.2075">Reject before mutate:</text><text fill="#000000" font-family="sans-serif" font-size="13" lengthAdjust="spacing" textLength="75" x="1580" y="1119.3403">- name drift</text><text fill="#000000" font-family="sans-serif" font-size="13" lengthAdjust="spacing" textLength="98" x="1580" y="1134.4731">- partitions drift</text><text fill="#000000" font-family="sans-serif" font-size="13" lengthAdjust="spacing" textLength="145" x="1580" y="1149.606">- retentionInHours drift</text><text fill="#000000" font-family="sans-serif" font-size="13" lengthAdjust="spacing" textLength="105" x="1580" y="1164.7388">Boundary notes:</text><text fill="#000000" font-family="sans-serif" font-size="13" lengthAdjust="spacing" textLength="372" x="1580" y="1179.8716">- Compartment-only drift currently reaches the move path</text><text fill="#000000" font-family="sans-serif" font-size="13" lengthAdjust="spacing" textLength="301" x="1596" y="1195.0044">only when another mutable diff already triggers</text><text fill="#000000" font-family="sans-serif" font-size="13" lengthAdjust="spacing" textLength="99" x="1596" y="1210.1372">UpdateStream.</text><text fill="#000000" font-family="sans-serif" font-size="13" lengthAdjust="spacing" textLength="166" x="1580" y="1225.27">Controller-local invariants:</text><text fill="#000000" font-family="sans-serif" font-size="13" lengthAdjust="spacing" textLength="229" x="1580" y="1240.4028">- StatusPresentUsesStatusInvariant</text><polygon fill="#E2E8F0" points="722.375,405.4688,836.375,405.4688,848.375,417.4688,836.375,429.4688,722.375,429.4688,710.375,417.4688,722.375,405.4688" style="stroke:#475569;stroke-width:0.5;"/><text fill="#0F172A" font-family="sans-serif" font-size="11" lengthAdjust="spacing" textLength="114" x="722.375" y="421.2769">"Delete requested?"</text><text fill="#000000" font-family="sans-serif" font-size="11" lengthAdjust="spacing" textLength="20" x="690.375" y="414.8745">yes</text><text fill="#000000" font-family="sans-serif" font-size="11" lengthAdjust="spacing" textLength="14" x="848.375" y="414.8745">no</text><rect fill="none" height="409.9766" style="stroke:#000000;stroke-width:1.5;" width="763" x="11" y="439.4688"/><path d="M67,439.4688 L67,448.7656 L57,458.7656 L11,458.7656 " fill="none" style="stroke:#000000;stroke-width:1.5;"/><text fill="#000000" font-family="sans-serif" font-size="14" lengthAdjust="spacing" textLength="46" x="14" y="453.4639">Delete</text><rect fill="#F8FAFC" height="33.9688" rx="12.5" ry="12.5" style="stroke:#475569;stroke-width:0.5;" width="201" x="279.25" y="475.7656"/><text fill="#0F172A" font-family="sans-serif" font-size="12" lengthAdjust="spacing" textLength="181" x="289.25" y="496.9043">Submit OCI delete for Stream</text><rect fill="#F8FAFC" height="33.9688" rx="12.5" ry="12.5" style="stroke:#475569;stroke-width:0.5;" width="583" x="88.25" y="544.7344"/><text fill="#0F172A" font-family="sans-serif" font-size="12" lengthAdjust="spacing" textLength="563" x="98.25" y="565.873">Resolve the target stream ID from spec, status, or name lookup before submitting delete.</text><rect fill="#F8FAFC" height="33.9688" rx="12.5" ry="12.5" style="stroke:#475569;stroke-width:0.5;" width="589" x="85.25" y="613.7031"/><text fill="#0F172A" font-family="sans-serif" font-size="12" lengthAdjust="spacing" textLength="569" x="95.25" y="634.8418">Confirm deletion with GetStream until the lifecycle is DELETED or the resource is not found.</text><rect fill="#F8FAFC" height="33.9688" rx="12.5" ry="12.5" style="stroke:#475569;stroke-width:0.5;" width="393" x="183.25" y="669.8047"/><text fill="#0F172A" font-family="sans-serif" font-size="12" lengthAdjust="spacing" textLength="373" x="193.25" y="690.9434">Delete the owned Secret only after OCI delete confirmation.</text><polygon fill="#E2E8F0" points="278.75,738.7734,480.75,738.7734,492.75,750.7734,480.75,762.7734,278.75,762.7734,266.75,750.7734,278.75,738.7734" style="stroke:#475569;stroke-width:0.5;"/><text fill="#0F172A" font-family="sans-serif" font-size="11" lengthAdjust="spacing" textLength="202" x="278.75" y="754.5815">"Owned Secret cleanup succeeds?"</text><text fill="#000000" font-family="sans-serif" font-size="11" lengthAdjust="spacing" textLength="20" x="246.75" y="748.1792">yes</text><text fill="#000000" font-family="sans-serif" font-size="11" lengthAdjust="spacing" textLength="14" x="492.75" y="748.1792">no</text><rect fill="#F8FAFC" height="33.9688" rx="12.5" ry="12.5" style="stroke:#475569;stroke-width:0.5;" width="338" x="23" y="772.7734"/><text fill="#0F172A" font-family="sans-serif" font-size="12" lengthAdjust="spacing" textLength="318" x="33" y="793.9121">Remove the finalizer after OCI deletion is confirmed</text><rect fill="#F8FAFC" height="33.9688" rx="12.5" ry="12.5" style="stroke:#475569;stroke-width:0.5;" width="373" x="381" y="772.7734"/><text fill="#0F172A" font-family="sans-serif" font-size="12" lengthAdjust="spacing" textLength="353" x="391" y="793.9121">Stay blocked until Secret cleanup succeeds or is absent</text><polygon fill="#E2E8F0" points="379.75,812.7422,391.75,824.7422,379.75,836.7422,367.75,824.7422,379.75,812.7422" style="stroke:#475569;stroke-width:0.5;"/><ellipse cx="379.75" cy="893.1016" fill="none" rx="11" ry="11" style="stroke:#222222;stroke-width:1.0;"/><ellipse cx="379.75" cy="893.1016" fill="#222222" rx="6" ry="6" style="stroke:#111111;stroke-width:1.0;"/><rect fill="none" height="410.6797" style="stroke:#000000;stroke-width:1.5;" width="376" x="997" y="439.4688"/><path d="M1158,439.4688 L1158,448.7656 L1148,458.7656 L997,458.7656 " fill="none" style="stroke:#000000;stroke-width:1.5;"/><text fill="#000000" font-family="sans-serif" font-size="14" lengthAdjust="spacing" textLength="151" x="1000" y="453.4639">Lifecycle Classification</text><rect fill="#F8FAFC" height="33.9688" rx="12.5" ry="12.5" style="stroke:#475569;stroke-width:0.5;" width="268" x="1045" y="524.168"/><text fill="#0F172A" font-family="sans-serif" font-size="12" lengthAdjust="spacing" textLength="248" x="1055" y="545.3066">Request requeue and keep the finalizer</text><ellipse cx="1179" cy="604.1367" fill="none" rx="11" ry="11" style="stroke:#222222;stroke-width:1.0;"/><ellipse cx="1179" cy="604.1367" fill="#222222" rx="6" ry="6" style="stroke:#111111;stroke-width:1.0;"/><polygon fill="#E2E8F0" points="1099,475.7656,1259,475.7656,1271,487.7656,1259,499.7656,1099,499.7656,1087,487.7656,1099,475.7656" style="stroke:#475569;stroke-width:0.5;"/><text fill="#000000" font-family="sans-serif" font-size="11" lengthAdjust="spacing" textLength="20" x="1183" y="509.9761">yes</text><text fill="#0F172A" font-family="sans-serif" font-size="11" lengthAdjust="spacing" textLength="160" x="1099" y="491.5737">"OCI state in retryable set?"</text><rect fill="#F8FAFC" height="33.9688" rx="12.5" ry="12.5" style="stroke:#475569;stroke-width:0.5;" width="324" x="1017" y="716.0742"/><text fill="#0F172A" font-family="sans-serif" font-size="12" lengthAdjust="spacing" textLength="304" x="1027" y="737.2129">Return an unsuccessful terminal reconcile result</text><ellipse cx="1179" cy="796.043" fill="none" rx="11" ry="11" style="stroke:#222222;stroke-width:1.0;"/><ellipse cx="1179" cy="796.043" fill="#222222" rx="6" ry="6" style="stroke:#111111;stroke-width:1.0;"/><polygon fill="#E2E8F0" points="1109,667.6719,1249,667.6719,1261,679.6719,1249,691.6719,1109,691.6719,1097,679.6719,1109,667.6719" style="stroke:#475569;stroke-width:0.5;"/><text fill="#000000" font-family="sans-serif" font-size="11" lengthAdjust="spacing" textLength="20" x="1183" y="701.8823">yes</text><text fill="#0F172A" font-family="sans-serif" font-size="11" lengthAdjust="spacing" textLength="140" x="1109" y="683.48">"OCI state in failed set?"</text><rect fill="none" height="768.8516" style="stroke:#000000;stroke-width:1.5;" width="770" x="794" y="882.8047"/><path d="M973,882.8047 L973,892.1016 L963,902.1016 L794,902.1016 " fill="none" style="stroke:#000000;stroke-width:1.5;"/><text fill="#000000" font-family="sans-serif" font-size="14" lengthAdjust="spacing" textLength="169" x="797" y="896.7998">Ready and Drift Handling</text><rect fill="#F8FAFC" height="33.9688" rx="12.5" ry="12.5" style="stroke:#475569;stroke-width:0.5;" width="364" x="997" y="919.1016"/><text fill="#0F172A" font-family="sans-serif" font-size="12" lengthAdjust="spacing" textLength="344" x="1007" y="940.2402">Compare live OCI state with the supported drift surface</text><rect fill="#F8FAFC" height="33.9688" rx="12.5" ry="12.5" style="stroke:#475569;stroke-width:0.5;" width="290" x="1034" y="1036.4727"/><text fill="#0F172A" font-family="sans-serif" font-size="12" lengthAdjust="spacing" textLength="270" x="1044" y="1057.6113">Reject the change before any OCI mutation</text><ellipse cx="1179" cy="1116.4414" fill="none" rx="11" ry="11" style="stroke:#222222;stroke-width:1.0;"/><ellipse cx="1179" cy="1116.4414" fill="#222222" rx="6" ry="6" style="stroke:#111111;stroke-width:1.0;"/><polygon fill="#E2E8F0" points="1054.5,988.0703,1303.5,988.0703,1315.5,1000.0703,1303.5,1012.0703,1054.5,1012.0703,1042.5,1000.0703,1054.5,988.0703" style="stroke:#475569;stroke-width:0.5;"/><text fill="#000000" font-family="sans-serif" font-size="11" lengthAdjust="spacing" textLength="20" x="1183" y="1022.2808">yes</text><text fill="#0F172A" font-family="sans-serif" font-size="11" lengthAdjust="spacing" textLength="249" x="1054.5" y="1003.8784">"Unsupported or immutable drift detected?"</text><rect fill="#F8FAFC" height="33.9688" rx="12.5" ry="12.5" style="stroke:#475569;stroke-width:0.5;" width="615" x="871.5" y="1192.8438"/><text fill="#0F172A" font-family="sans-serif" font-size="12" lengthAdjust="spacing" textLength="595" x="881.5" y="1213.9824">Resolve the authoritative OCID from spec, status, or name lookup before any update or delete.</text><rect fill="#F8FAFC" height="33.9688" rx="12.5" ry="12.5" style="stroke:#475569;stroke-width:0.5;" width="750" x="804" y="1261.8125"/><text fill="#0F172A" font-family="sans-serif" font-size="12" lengthAdjust="spacing" textLength="730" x="814" y="1282.9512">Move the stream compartment before mutable updates when another supported drift already opens UpdateStream.</text><rect fill="#F8FAFC" height="33.9688" rx="12.5" ry="12.5" style="stroke:#475569;stroke-width:0.5;" width="457" x="950.5" y="1315.7813"/><text fill="#0F172A" font-family="sans-serif" font-size="12" lengthAdjust="spacing" textLength="437" x="960.5" y="1336.9199">Require MessagesEndpoint before generating the connection Secret.</text><polygon fill="#E2E8F0" points="1101.5,1369.75,1256.5,1369.75,1268.5,1381.75,1256.5,1393.75,1101.5,1393.75,1089.5,1381.75,1101.5,1369.75" style="stroke:#475569;stroke-width:0.5;"/><text fill="#0F172A" font-family="sans-serif" font-size="11" lengthAdjust="spacing" textLength="155" x="1101.5" y="1385.5581">"Supported drift detected?"</text><text fill="#000000" font-family="sans-serif" font-size="11" lengthAdjust="spacing" textLength="20" x="1069.5" y="1379.1558">yes</text><text fill="#000000" font-family="sans-serif" font-size="11" lengthAdjust="spacing" textLength="14" x="1268.5" y="1379.1558">no</text><rect fill="#F8FAFC" height="33.9688" rx="12.5" ry="12.5" style="stroke:#475569;stroke-width:0.5;" width="329" x="871.25" y="1403.75"/><text fill="#0F172A" font-family="sans-serif" font-size="12" lengthAdjust="spacing" textLength="309" x="881.25" y="1424.8887">Apply only the supported in-place update surface</text><rect fill="#F8FAFC" height="33.9688" rx="12.5" ry="12.5" style="stroke:#475569;stroke-width:0.5;" width="204" x="1220.25" y="1403.75"/><text fill="#0F172A" font-family="sans-serif" font-size="12" lengthAdjust="spacing" textLength="184" x="1230.25" y="1424.8887">Skip the no-op mutation path</text><polygon fill="#E2E8F0" points="1179,1443.7188,1191,1455.7188,1179,1467.7188,1167,1455.7188,1179,1443.7188" style="stroke:#475569;stroke-width:0.5;"/><rect fill="#F8FAFC" height="33.9688" rx="12.5" ry="12.5" style="stroke:#475569;stroke-width:0.5;" width="345" x="1006.5" y="1487.7188"/><text fill="#0F172A" font-family="sans-serif" font-size="12" lengthAdjust="spacing" textLength="325" x="1016.5" y="1508.8574">Require the live endpoint before writing Secret data</text><polygon fill="#E2E8F0" points="1108.5,1541.6875,1249.5,1541.6875,1261.5,1553.6875,1249.5,1565.6875,1108.5,1565.6875,1096.5,1553.6875,1108.5,1541.6875" style="stroke:#475569;stroke-width:0.5;"/><text fill="#0F172A" font-family="sans-serif" font-size="11" lengthAdjust="spacing" textLength="141" x="1108.5" y="1557.4956">"Secret sync succeeds?"</text><text fill="#000000" font-family="sans-serif" font-size="11" lengthAdjust="spacing" textLength="20" x="1076.5" y="1551.0933">yes</text><text fill="#000000" font-family="sans-serif" font-size="11" lengthAdjust="spacing" textLength="14" x="1261.5" y="1551.0933">no</text><rect fill="#F8FAFC" height="33.9688" rx="12.5" ry="12.5" style="stroke:#475569;stroke-width:0.5;" width="287" x="861.75" y="1575.6875"/><text fill="#0F172A" font-family="sans-serif" font-size="12" lengthAdjust="spacing" textLength="267" x="871.75" y="1596.8262">Return success for the usable active state</text><rect fill="#F8FAFC" height="33.9688" rx="12.5" ry="12.5" style="stroke:#475569;stroke-width:0.5;" width="368" x="1168.75" y="1575.6875"/><text fill="#0F172A" font-family="sans-serif" font-size="12" lengthAdjust="spacing" textLength="348" x="1178.75" y="1596.8262">Block successful completion until Secret sync succeeds</text><polygon fill="#E2E8F0" points="1179,1615.6563,1191,1627.6563,1179,1639.6563,1167,1627.6563,1179,1615.6563" style="stroke:#475569;stroke-width:0.5;"/><line style="stroke:#334155;stroke-width:1.0;" x1="779.375" x2="779.375" y1="147.5625" y2="167.5625"/><polygon fill="#334155" points="775.375,157.5625,779.375,167.5625,783.375,157.5625,779.375,161.5625" style="stroke:#334155;stroke-width:1.0;"/><line style="stroke:#334155;stroke-width:1.0;" x1="945.875" x2="945.875" y1="289.5" y2="309.5"/><polygon fill="#334155" points="941.875,299.5,945.875,309.5,949.875,299.5,945.875,303.5" style="stroke:#334155;stroke-width:1.0;"/><line style="stroke:#334155;stroke-width:1.0;" x1="667.375" x2="612.875" y1="233.5313" y2="233.5313"/><line style="stroke:#334155;stroke-width:1.0;" x1="612.875" x2="612.875" y1="233.5313" y2="255.5313"/><polygon fill="#334155" points="608.875,245.5313,612.875,255.5313,616.875,245.5313,612.875,249.5313" style="stroke:#334155;stroke-width:1.0;"/><line style="stroke:#334155;stroke-width:1.0;" x1="891.375" x2="945.875" y1="233.5313" y2="233.5313"/><line style="stroke:#334155;stroke-width:1.0;" x1="945.875" x2="945.875" y1="233.5313" y2="255.5313"/><polygon fill="#334155" points="941.875,245.5313,945.875,255.5313,949.875,245.5313,945.875,249.5313" style="stroke:#334155;stroke-width:1.0;"/><line style="stroke:#334155;stroke-width:1.0;" x1="612.875" x2="612.875" y1="289.5" y2="361.4688"/><line style="stroke:#334155;stroke-width:1.0;" x1="612.875" x2="767.375" y1="361.4688" y2="361.4688"/><polygon fill="#334155" points="757.375,357.4688,767.375,361.4688,757.375,365.4688,761.375,361.4688" style="stroke:#334155;stroke-width:1.0;"/><line style="stroke:#334155;stroke-width:1.0;" x1="945.875" x2="945.875" y1="343.4688" y2="361.4688"/><line style="stroke:#334155;stroke-width:1.0;" x1="945.875" x2="791.375" y1="361.4688" y2="361.4688"/><polygon fill="#334155" points="801.375,357.4688,791.375,361.4688,801.375,365.4688,797.375,361.4688" style="stroke:#334155;stroke-width:1.0;"/><line style="stroke:#334155;stroke-width:1.0;" x1="779.375" x2="779.375" y1="201.5313" y2="221.5313"/><polygon fill="#334155" points="775.375,211.5313,779.375,221.5313,783.375,211.5313,779.375,215.5313" style="stroke:#334155;stroke-width:1.0;"/><line style="stroke:#334155;stroke-width:1.0;" x1="779.375" x2="779.375" y1="67.2969" y2="113.5938"/><polygon fill="#334155" points="775.375,103.5938,779.375,113.5938,783.375,103.5938,779.375,107.5938" style="stroke:#334155;stroke-width:1.0;"/><line style="stroke:#334155;stroke-width:1.0;" x1="379.75" x2="379.75" y1="509.7344" y2="544.7344"/><polygon fill="#334155" points="375.75,534.7344,379.75,544.7344,383.75,534.7344,379.75,538.7344" style="stroke:#334155;stroke-width:1.0;"/><line style="stroke:#334155;stroke-width:1.0;" x1="379.75" x2="379.75" y1="578.7031" y2="613.7031"/><polygon fill="#334155" points="375.75,603.7031,379.75,613.7031,383.75,603.7031,379.75,607.7031" style="stroke:#334155;stroke-width:1.0;"/><line style="stroke:#334155;stroke-width:1.0;" x1="379.75" x2="379.75" y1="647.6719" y2="669.8047"/><polygon fill="#334155" points="375.75,659.8047,379.75,669.8047,383.75,659.8047,379.75,663.8047" style="stroke:#334155;stroke-width:1.0;"/><line style="stroke:#334155;stroke-width:1.0;" x1="266.75" x2="192" y1="750.7734" y2="750.7734"/><line style="stroke:#334155;stroke-width:1.0;" x1="192" x2="192" y1="750.7734" y2="772.7734"/><polygon fill="#334155" points="188,762.7734,192,772.7734,196,762.7734,192,766.7734" style="stroke:#334155;stroke-width:1.0;"/><line style="stroke:#334155;stroke-width:1.0;" x1="492.75" x2="567.5" y1="750.7734" y2="750.7734"/><line style="stroke:#334155;stroke-width:1.0;" x1="567.5" x2="567.5" y1="750.7734" y2="772.7734"/><polygon fill="#334155" points="563.5,762.7734,567.5,772.7734,571.5,762.7734,567.5,766.7734" style="stroke:#334155;stroke-width:1.0;"/><line style="stroke:#334155;stroke-width:1.0;" x1="192" x2="192" y1="806.7422" y2="824.7422"/><line style="stroke:#334155;stroke-width:1.0;" x1="192" x2="367.75" y1="824.7422" y2="824.7422"/><polygon fill="#334155" points="357.75,820.7422,367.75,824.7422,357.75,828.7422,361.75,824.7422" style="stroke:#334155;stroke-width:1.0;"/><line style="stroke:#334155;stroke-width:1.0;" x1="567.5" x2="567.5" y1="806.7422" y2="824.7422"/><line style="stroke:#334155;stroke-width:1.0;" x1="567.5" x2="391.75" y1="824.7422" y2="824.7422"/><polygon fill="#334155" points="401.75,820.7422,391.75,824.7422,401.75,828.7422,397.75,824.7422" style="stroke:#334155;stroke-width:1.0;"/><line style="stroke:#334155;stroke-width:1.0;" x1="379.75" x2="379.75" y1="703.7734" y2="738.7734"/><polygon fill="#334155" points="375.75,728.7734,379.75,738.7734,383.75,728.7734,379.75,732.7734" style="stroke:#334155;stroke-width:1.0;"/><line style="stroke:#334155;stroke-width:1.0;" x1="379.75" x2="379.75" y1="836.7422" y2="882.1016"/><polygon fill="#334155" points="375.75,872.1016,379.75,882.1016,383.75,872.1016,379.75,876.1016" style="stroke:#334155;stroke-width:1.0;"/><line style="stroke:#334155;stroke-width:1.0;" x1="1179" x2="1179" y1="558.1367" y2="593.1367"/><polygon fill="#334155" points="1175,583.1367,1179,593.1367,1183,583.1367,1179,587.1367" style="stroke:#334155;stroke-width:1.0;"/><line style="stroke:#334155;stroke-width:1.0;" x1="1179" x2="1179" y1="499.7656" y2="524.168"/><polygon fill="#334155" points="1175,514.168,1179,524.168,1183,514.168,1179,518.168" style="stroke:#334155;stroke-width:1.0;"/><line style="stroke:#334155;stroke-width:1.0;" x1="1271" x2="1323" y1="487.7656" y2="487.7656"/><polygon fill="#334155" points="1319,556.6523,1323,566.6523,1327,556.6523,1323,560.6523" style="stroke:#334155;stroke-width:1.0;"/><line style="stroke:#334155;stroke-width:1.0;" x1="1323" x2="1323" y1="487.7656" y2="645.5391"/><line style="stroke:#334155;stroke-width:1.0;" x1="1323" x2="1179" y1="645.5391" y2="645.5391"/><line style="stroke:#334155;stroke-width:1.0;" x1="1179" x2="1179" y1="645.5391" y2="667.6719"/><polygon fill="#334155" points="1175,657.6719,1179,667.6719,1183,657.6719,1179,661.6719" style="stroke:#334155;stroke-width:1.0;"/><line style="stroke:#334155;stroke-width:1.0;" x1="1179" x2="1179" y1="750.043" y2="785.043"/><polygon fill="#334155" points="1175,775.043,1179,785.043,1183,775.043,1179,779.043" style="stroke:#334155;stroke-width:1.0;"/><line style="stroke:#334155;stroke-width:1.0;" x1="1179" x2="1179" y1="691.6719" y2="716.0742"/><polygon fill="#334155" points="1175,706.0742,1179,716.0742,1183,706.0742,1179,710.0742" style="stroke:#334155;stroke-width:1.0;"/><line style="stroke:#334155;stroke-width:1.0;" x1="1261" x2="1351" y1="679.6719" y2="679.6719"/><polygon fill="#334155" points="1347,748.5586,1351,758.5586,1355,748.5586,1351,752.5586" style="stroke:#334155;stroke-width:1.0;"/><line style="stroke:#334155;stroke-width:1.0;" x1="1351" x2="1351" y1="679.6719" y2="837.4453"/><line style="stroke:#334155;stroke-width:1.0;" x1="1351" x2="1179" y1="837.4453" y2="837.4453"/><line style="stroke:#334155;stroke-width:1.0;" x1="1179" x2="1179" y1="837.4453" y2="919.1016"/><polygon fill="#334155" points="1175,909.1016,1179,919.1016,1183,909.1016,1179,913.1016" style="stroke:#334155;stroke-width:1.0;"/><line style="stroke:#334155;stroke-width:1.0;" x1="1179" x2="1179" y1="1070.4414" y2="1105.4414"/><polygon fill="#334155" points="1175,1095.4414,1179,1105.4414,1183,1095.4414,1179,1099.4414" style="stroke:#334155;stroke-width:1.0;"/><line style="stroke:#334155;stroke-width:1.0;" x1="1179" x2="1179" y1="1012.0703" y2="1036.4727"/><polygon fill="#334155" points="1175,1026.4727,1179,1036.4727,1183,1026.4727,1179,1030.4727" style="stroke:#334155;stroke-width:1.0;"/><line style="stroke:#334155;stroke-width:1.0;" x1="1315.5" x2="1334" y1="1000.0703" y2="1000.0703"/><polygon fill="#334155" points="1330,1068.957,1334,1078.957,1338,1068.957,1334,1072.957" style="stroke:#334155;stroke-width:1.0;"/><line style="stroke:#334155;stroke-width:1.0;" x1="1334" x2="1334" y1="1000.0703" y2="1157.8438"/><line style="stroke:#334155;stroke-width:1.0;" x1="1334" x2="1179" y1="1157.8438" y2="1157.8438"/><line style="stroke:#334155;stroke-width:1.0;" x1="1179" x2="1179" y1="1157.8438" y2="1192.8438"/><polygon fill="#334155" points="1175,1182.8438,1179,1192.8438,1183,1182.8438,1179,1186.8438" style="stroke:#334155;stroke-width:1.0;"/><line style="stroke:#334155;stroke-width:1.0;" x1="1179" x2="1179" y1="953.0703" y2="988.0703"/><polygon fill="#334155" points="1175,978.0703,1179,988.0703,1183,978.0703,1179,982.0703" style="stroke:#334155;stroke-width:1.0;"/><line style="stroke:#334155;stroke-width:1.0;" x1="1179" x2="1179" y1="1226.8125" y2="1261.8125"/><polygon fill="#334155" points="1175,1251.8125,1179,1261.8125,1183,1251.8125,1179,1255.8125" style="stroke:#334155;stroke-width:1.0;"/><line style="stroke:#334155;stroke-width:1.0;" x1="1179" x2="1179" y1="1295.7813" y2="1315.7813"/><polygon fill="#334155" points="1175,1305.7813,1179,1315.7813,1183,1305.7813,1179,1309.7813" style="stroke:#334155;stroke-width:1.0;"/><line style="stroke:#334155;stroke-width:1.0;" x1="1089.5" x2="1035.75" y1="1381.75" y2="1381.75"/><line style="stroke:#334155;stroke-width:1.0;" x1="1035.75" x2="1035.75" y1="1381.75" y2="1403.75"/><polygon fill="#334155" points="1031.75,1393.75,1035.75,1403.75,1039.75,1393.75,1035.75,1397.75" style="stroke:#334155;stroke-width:1.0;"/><line style="stroke:#334155;stroke-width:1.0;" x1="1268.5" x2="1322.25" y1="1381.75" y2="1381.75"/><line style="stroke:#334155;stroke-width:1.0;" x1="1322.25" x2="1322.25" y1="1381.75" y2="1403.75"/><polygon fill="#334155" points="1318.25,1393.75,1322.25,1403.75,1326.25,1393.75,1322.25,1397.75" style="stroke:#334155;stroke-width:1.0;"/><line style="stroke:#334155;stroke-width:1.0;" x1="1035.75" x2="1035.75" y1="1437.7188" y2="1455.7188"/><line style="stroke:#334155;stroke-width:1.0;" x1="1035.75" x2="1167" y1="1455.7188" y2="1455.7188"/><polygon fill="#334155" points="1157,1451.7188,1167,1455.7188,1157,1459.7188,1161,1455.7188" style="stroke:#334155;stroke-width:1.0;"/><line style="stroke:#334155;stroke-width:1.0;" x1="1322.25" x2="1322.25" y1="1437.7188" y2="1455.7188"/><line style="stroke:#334155;stroke-width:1.0;" x1="1322.25" x2="1191" y1="1455.7188" y2="1455.7188"/><polygon fill="#334155" points="1201,1451.7188,1191,1455.7188,1201,1459.7188,1197,1455.7188" style="stroke:#334155;stroke-width:1.0;"/><line style="stroke:#334155;stroke-width:1.0;" x1="1179" x2="1179" y1="1349.75" y2="1369.75"/><polygon fill="#334155" points="1175,1359.75,1179,1369.75,1183,1359.75,1179,1363.75" style="stroke:#334155;stroke-width:1.0;"/><line style="stroke:#334155;stroke-width:1.0;" x1="1179" x2="1179" y1="1467.7188" y2="1487.7188"/><polygon fill="#334155" points="1175,1477.7188,1179,1487.7188,1183,1477.7188,1179,1481.7188" style="stroke:#334155;stroke-width:1.0;"/><line style="stroke:#334155;stroke-width:1.0;" x1="1096.5" x2="1005.25" y1="1553.6875" y2="1553.6875"/><line style="stroke:#334155;stroke-width:1.0;" x1="1005.25" x2="1005.25" y1="1553.6875" y2="1575.6875"/><polygon fill="#334155" points="1001.25,1565.6875,1005.25,1575.6875,1009.25,1565.6875,1005.25,1569.6875" style="stroke:#334155;stroke-width:1.0;"/><line style="stroke:#334155;stroke-width:1.0;" x1="1261.5" x2="1352.75" y1="1553.6875" y2="1553.6875"/><line style="stroke:#334155;stroke-width:1.0;" x1="1352.75" x2="1352.75" y1="1553.6875" y2="1575.6875"/><polygon fill="#334155" points="1348.75,1565.6875,1352.75,1575.6875,1356.75,1565.6875,1352.75,1569.6875" style="stroke:#334155;stroke-width:1.0;"/><line style="stroke:#334155;stroke-width:1.0;" x1="1005.25" x2="1005.25" y1="1609.6563" y2="1627.6563"/><line style="stroke:#334155;stroke-width:1.0;" x1="1005.25" x2="1167" y1="1627.6563" y2="1627.6563"/><polygon fill="#334155" points="1157,1623.6563,1167,1627.6563,1157,1631.6563,1161,1627.6563" style="stroke:#334155;stroke-width:1.0;"/><line style="stroke:#334155;stroke-width:1.0;" x1="1352.75" x2="1352.75" y1="1609.6563" y2="1627.6563"/><line style="stroke:#334155;stroke-width:1.0;" x1="1352.75" x2="1191" y1="1627.6563" y2="1627.6563"/><polygon fill="#334155" points="1201,1623.6563,1191,1627.6563,1201,1631.6563,1197,1627.6563" style="stroke:#334155;stroke-width:1.0;"/><line style="stroke:#334155;stroke-width:1.0;" x1="1179" x2="1179" y1="1521.6875" y2="1541.6875"/><polygon fill="#334155" points="1175,1531.6875,1179,1541.6875,1183,1531.6875,1179,1535.6875" style="stroke:#334155;stroke-width:1.0;"/><line style="stroke:#334155;stroke-width:1.0;" x1="710.375" x2="379.75" y1="417.4688" y2="417.4688"/><line style="stroke:#334155;stroke-width:1.0;" x1="379.75" x2="379.75" y1="417.4688" y2="475.7656"/><polygon fill="#334155" points="375.75,465.7656,379.75,475.7656,383.75,465.7656,379.75,469.7656" style="stroke:#334155;stroke-width:1.0;"/><line style="stroke:#334155;stroke-width:1.0;" x1="848.375" x2="1179" y1="417.4688" y2="417.4688"/><line style="stroke:#334155;stroke-width:1.0;" x1="1179" x2="1179" y1="417.4688" y2="475.7656"/><polygon fill="#334155" points="1175,465.7656,1179,475.7656,1183,465.7656,1179,469.7656" style="stroke:#334155;stroke-width:1.0;"/><line style="stroke:#334155;stroke-width:1.0;" x1="1179" x2="1179" y1="1639.6563" y2="1657.6563"/><line style="stroke:#334155;stroke-width:1.0;" x1="1179" x2="779.375" y1="1657.6563" y2="1657.6563"/><line style="stroke:#334155;stroke-width:1.0;" x1="779.375" x2="779.375" y1="373.4688" y2="405.4688"/><polygon fill="#334155" points="775.375,395.4688,779.375,405.4688,783.375,395.4688,779.375,399.4688" style="stroke:#334155;stroke-width:1.0;"/><!--SRC=[ZLRRSjis47tdLs3S5sV6oiH9RAVnGqVM9T7KgJsItNU8N4geI801G2ji9__UtGL8a_AbzOp69B3Oozbp5lJA5o1Mte8inH9IerE52-FKgmVbcyJjbAwanKstbPdPAxqHkImSz7QkPBhRM5FhR68AOyKlS_xhMOojDVku-U73nzEpizvc1hci2ty7F_ouK1jTWlQYWDptR6JCH_oJY6VYVPgFvnFQCJO36rS_NfoTdV-AgtEZVLnxDp-zU3_6jQcIfT7P4rUpzxDFytSzWsSzhhoqZoulpizdk3Zhd5pCJwUdq-HduiWkIR06hxmoMXpTh1tO1n1IP-9AwUo8A_gy19c9oLAu2j8JWSTyxSJDP34zOSiC2l0WbFQ8pIKT-1sWYdQZDUNFraBMVckimdM5GN9Cff0UhAYh3FyBV8-kAkctZZofN1mVtLd40JBQXnzLeLBbWx_AWiEGlnsz4NuBMXmtuDxWASpW2tXQ8pk1LgQsAOXr8tRQxBLG6HvJkG9BGG098uwrYKUNQ5um21XEEK-aEdIJALSLiX5Qbd0PZjs2TMZDKMrmmIcdI5uF4O4rLa90cOWEXzUPoh4T2HSx3GXO-5w3mtDFYkkrAzY69c46gtfT1cXQ70dYe9xBOMsK97P_WoYve2vCBhUc7FJuXFAd4aLXpAwkn1hG8mZ7WHYO4EXjT3ynEbUs3AkKubxvhS1UH0dNY7h1mGkLGzgaA6Rbn7HsFRkRJIbQYnu3ZLlQUAm26TI6YFYG7NOISLq18ko5qKKZP4vqwW6GXeGa9HCzCCet_QEOXTHOdQlJ521pp_29eIjDH2vNMXRgRmnr491AngHZLCX2n26_g54UgRCk3BCwOF92AWG9EfHh5wNLqaM8d_XptbH9ttsF7DSTmfD2EeTiJnc6bYu11yoSUatgHTozRUGQJpZmBu70j0pqhCEWs97O1x1SHdDEhv_pSr5pYICzUosahwqcDTQQON4khv54O4kAXwcqrmBo1YVrYy5HOGE0QAerNC7KgjoBh_XO8ASxFKrCYUR4rOSmI4BEp6cgrzLLPInfEsC7hhQvJA57itlzQ4ETBClQCy3XG8OKJP_JU2pyBzpbIEbMwWsqyfEwuNJ86PNo2jm3mG_7By-Z_orvYdaufbj9Vcjr4KT9ohXvlYdZyRRkuCA9FLKhKTnRbCyXZhAmt1fJWNRYde-40VAs6sFVQuLklo4Pv0OSNcwLKO_XDg31IXvG39_H6g6ahWUTzKV1wY3wwqqPLnNE6HusGmeeFS8R8MrB79BXwGJOgQ0PRKQcwZh95z_bqnw6QiFSHApXeDmzDfLgZKC4uyj-WM7LDJhzpn77Keiguzk3OjQEUyTVEH14y49PLpJJH4-bH8Ku5mTpRf3CuLmBJqbUcD12f0cAMsssFXdRT0k-gU1pCkfksH4tRXH8EN8S8LbsmwnJhgD3a-LiVBVuumi-tjzEsqU-WUXndFg1sldCU7At-7EMpCEa6kxDnulhsRHrWK_tW_wJIP35hJ758iFNt0ArhSGBUEFm7Rym5Tr6_1f5tvEDPnyiIQuJNxeXvhebB9a-QOnUwAzuURORLtHrIjimXg7-Ht6EcCQ1zMbjBIxXE-QA63lkFDzun4dk49iFbDkDCvNddMmzjcg37qDyPg3U1ByFl3L50NQ4JC7XhVI3j4fgpxcjU0JTXg-wUmSkB2nQ8s86LvBy2m00]--></g></svg>