<?xml version="1.0" encoding="UTF-8" standalone="no"?><svg xmlns="http://www.w3.org/2000/svg" xmlns:xlink="http://www.w3.org/1999/xlink" contentStyleType="text/css" height="561px" preserveAspectRatio="none" style="width:464px;height:561px;background:#FFFFFF;" version="1.1" viewBox="0 0 464 561" width="464px" zoomAndPan="magnify"><defs/><g><text fill="#000000" font-family="sans-serif" font-size="14" font-weight="bold" lengthAdjust="spacing" textLength="189" x="130.75" y="22.9951">Stream Formal Lifecycle</text><ellipse cx="283.5" cy="53.2969" fill="#222222" rx="10" ry="10" style="stroke:none;stroke-width:1.0;"/><g id="Observed"><rect fill="#F1F1F1" height="50" rx="12.5" ry="12.5" style="stroke:#181818;stroke-width:0.5;" width="87" x="240" y="124.2969"/><line style="stroke:#181818;stroke-width:0.5;" x1="240" x2="327" y1="150.5938" y2="150.5938"/><text fill="#000000" font-family="sans-serif" font-size="14" lengthAdjust="spacing" textLength="67" x="250" y="142.292">Observed</text></g><g id="Retryable"><rect fill="#F1F1F1" height="50" rx="12.5" ry="12.5" style="stroke:#181818;stroke-width:0.5;" width="85" x="7" y="251.2969"/><line style="stroke:#181818;stroke-width:0.5;" x1="7" x2="92" y1="277.5938" y2="277.5938"/><text fill="#000000" font-family="sans-serif" font-size="14" lengthAdjust="spacing" textLength="65" x="17" y="269.292">Retryable</text></g><g id="Active"><rect fill="#F1F1F1" height="50" rx="12.5" ry="12.5" style="stroke:#181818;stroke-width:0.5;" width="61" x="216" y="251.2969"/><line style="stroke:#181818;stroke-width:0.5;" x1="216" x2="277" y1="277.5938" y2="277.5938"/><text fill="#000000" font-family="sans-serif" font-size="14" lengthAdjust="spacing" textLength="41" x="226" y="269.292">Active</text></g><g id="Failed"><rect fill="#F1F1F1" height="50" rx="12.5" ry="12.5" style="stroke:#181818;stroke-width:0.5;" width="60" x="340.5" y="251.2969"/><line style="stroke:#181818;stroke-width:0.5;" x1="340.5" x2="400.5" y1="277.5938" y2="277.5938"/><text fill="#000000" font-family="sans-serif" font-size="14" lengthAdjust="spacing" textLength="40" x="350.5" y="269.292">Failed</text></g><g id="DeletePending"><rect fill="#F1F1F1" height="50" rx="12.5" ry="12.5" style="stroke:#181818;stroke-width:0.5;" width="123" x="158" y="378.2969"/><line style="stroke:#181818;stroke-width:0.5;" x1="158" x2="281" y1="404.5938" y2="404.5938"/><text fill="#000000" font-family="sans-serif" font-size="14" lengthAdjust="spacing" textLength="103" x="168" y="396.292">DeletePending</text></g><g id="Deleted"><rect fill="#F1F1F1" height="50" rx="12.5" ry="12.5" style="stroke:#181818;stroke-width:0.5;" width="75" x="182" y="505.2969"/><line style="stroke:#181818;stroke-width:0.5;" x1="182" x2="257" y1="531.5938" y2="531.5938"/><text fill="#000000" font-family="sans-serif" font-size="14" lengthAdjust="spacing" textLength="55" x="192" y="523.292">Deleted</text></g><!--link *start to Observed--><g id="link_*start_Observed"><path d="M283.5,63.3069 C283.5,75.9969 283.5,99.7069 283.5,118.8669 " fill="none" id="*start-to-Observed" style="stroke:#181818;stroke-width:1.0;"/><polygon fill="#181818" points="283.5,124.1369,287.5,115.1369,283.5,119.1369,279.5,115.1369,283.5,124.1369" style="stroke:#181818;stroke-width:1.0;"/></g><!--link Observed to Retryable--><g id="link_Observed_Retryable"><path d="M239.99,153.7169 C177.62,159.6169 67.65,174.1169 43.5,204.2969 C34.28,215.8269 34.96,232.0369 38.31,246.0569 " fill="none" id="Observed-to-Retryable" style="stroke:#181818;stroke-width:1.0;"/><polygon fill="#181818" points="39.66,251.1069,41.2096,241.3807,38.3735,246.2752,33.4789,243.4391,39.66,251.1069" style="stroke:#181818;stroke-width:1.0;"/><text fill="#000000" font-family="sans-serif" font-size="13" lengthAdjust="spacing" textLength="210" x="44.5" y="217.3638">CREATING, UPDATING, DELETING</text></g><!--link Observed to Active--><g id="link_Observed_Active"><path d="M276.37,174.3969 C270.27,194.9769 261.5,224.6269 255.04,246.4569 " fill="none" id="Observed-to-Active" style="stroke:#181818;stroke-width:1.0;"/><polygon fill="#181818" points="253.61,251.2669,260.0111,243.7818,255.0363,246.4746,252.3435,241.4998,253.61,251.2669" style="stroke:#181818;stroke-width:1.0;"/><text fill="#000000" font-family="sans-serif" font-size="13" lengthAdjust="spacing" textLength="45" x="268.5" y="217.3638">ACTIVE</text></g><!--link Observed to Failed--><g id="link_Observed_Failed"><path d="M301.13,174.3769 C307.88,183.6769 315.61,194.4369 322.5,204.2969 C332.23,218.2169 342.82,233.8269 351.57,246.8669 " fill="none" id="Observed-to-Failed" style="stroke:#181818;stroke-width:1.0;"/><polygon fill="#181818" points="354.46,251.1769,352.7805,241.4723,351.6799,247.021,346.1311,245.9205,354.46,251.1769" style="stroke:#181818;stroke-width:1.0;"/><text fill="#000000" font-family="sans-serif" font-size="13" lengthAdjust="spacing" textLength="110" x="334.5" y="217.3638">FAILED, DELETED</text></g><!--link Active to DeletePending--><g id="link_Active_DeletePending"><path d="M229.65,301.4469 C224.36,310.4069 219.19,320.9169 216.5,331.2969 C213,344.7969 213.18,360.2069 214.46,373.2169 " fill="none" id="Active-to-DeletePending" style="stroke:#181818;stroke-width:1.0;"/><polygon fill="#181818" points="215.03,378.2669,218.0028,368.8774,214.4731,373.298,210.0525,369.7684,215.03,378.2669" style="stroke:#181818;stroke-width:1.0;"/><text fill="#000000" font-family="sans-serif" font-size="13" lengthAdjust="spacing" textLength="109" x="217.5" y="344.3638">delete requested</text></g><!--link Retryable to DeletePending--><g id="link_Retryable_DeletePending"><path d="M60.66,301.6269 C68.59,316.7069 80.49,335.5669 95.5,348.2969 C112.16,362.4269 133.09,373.4169 152.99,381.6869 " fill="none" id="Retryable-to-DeletePending" style="stroke:#181818;stroke-width:1.0;"/><polygon fill="#181818" points="157.75,383.6269,150.9244,376.5268,153.1195,381.7404,147.906,383.9356,157.75,383.6269" style="stroke:#181818;stroke-width:1.0;"/><text fill="#000000" font-family="sans-serif" font-size="13" lengthAdjust="spacing" textLength="109" x="96.5" y="344.3638">delete requested</text></g><!--link Failed to DeletePending--><g id="link_Failed_DeletePending"><path d="M361.69,301.4669 C355.22,316.4869 345.17,335.3269 331.5,348.2969 C318.4,360.7169 301.9,370.7869 285.63,378.7169 " fill="none" id="Failed-to-DeletePending" style="stroke:#181818;stroke-width:1.0;"/><polygon fill="#181818" points="281.05,380.8969,290.8951,380.6256,285.5614,378.7411,287.4459,373.4074,281.05,380.8969" style="stroke:#181818;stroke-width:1.0;"/><text fill="#000000" font-family="sans-serif" font-size="13" lengthAdjust="spacing" textLength="109" x="347.5" y="344.3638">delete requested</text></g><!--link DeletePending to Deleted--><g id="link_DeletePending_Deleted"><path d="M219.5,428.3969 C219.5,448.8869 219.5,478.3769 219.5,500.1769 " fill="none" id="DeletePending-to-Deleted" style="stroke:#181818;stroke-width:1.0;"/><polygon fill="#181818" points="219.5,505.2669,223.5,496.2669,219.5,500.2669,215.5,496.2669,219.5,505.2669" style="stroke:#181818;stroke-width:1.0;"/><text fill="#000000" font-family="sans-serif" font-size="13" lengthAdjust="spacing" textLength="188" x="220.5" y="471.3638">finalizer removed after delete</text></g><!--SRC=[ZK_B3e8m4BptA_Piv0Syc11R30bHu-jYF1HOJ9C2iQma-FMsK3MzSPlPdPcT9KKQuKG6PGr9Qsgf8LCL5aEXaR7RuWvHj8Pztg7fiMHVC4wFI6QGkGrOmUOeudEwsoxXSk0USP49Xq9NN93gdINUdDEh29U9LDh25IHncWdkCmHdtkKq73KI7h0fLVEmqdBaOF3vmevioN-lMN9_SvOs5FmjhdAb6gdL6utLrwtxI5PasHJ2M4VIPltAUJuzvibKnPFWLZ0hFm00]--></g></svg>