<?xml version="1.0" encoding="UTF-8" standalone="no"?><svg xmlns="http://www.w3.org/2000/svg" xmlns:xlink="http://www.w3.org/1999/xlink" contentStyleType="text/css" height="1585px" preserveAspectRatio="none" style="width:1330px;height:1585px;background:#FFFFFF;" version="1.1" viewBox="0 0 1330 1585" width="1330px" zoomAndPan="magnify"><defs/><g><text fill="#000000" font-family="sans-serif" font-size="14" font-weight="bold" lengthAdjust="spacing" textLength="221" x="555.75" y="27.9951">Stream Reconcile Sequence</text><rect fill="none" height="254.6719" style="stroke:#475569;stroke-width:1.5;" width="1055" x="268.5" y="193.8594"/><rect fill="none" height="223.5391" style="stroke:#475569;stroke-width:1.5;" width="1035" x="278.5" y="217.9922"/><rect fill="none" height="119.3359" style="stroke:#475569;stroke-width:1.5;" width="1015" x="288.5" y="315.1953"/><rect fill="none" height="899.4688" style="stroke:#475569;stroke-width:1.5;" width="1313.5" x="10" y="462.5313"/><rect fill="none" height="237.8672" style="stroke:#475569;stroke-width:1.5;" width="1293.5" x="20" y="486.6641"/><rect fill="none" height="90.2031" style="stroke:#475569;stroke-width:1.5;" width="1273.5" x="30" y="627.3281"/><rect fill="none" height="484.6563" style="stroke:#475569;stroke-width:1.5;" width="1283.5" x="20" y="841.2109"/><rect fill="none" height="46.2656" style="stroke:#475569;stroke-width:1.5;" width="406.5" x="30" y="1006.4063"/><rect fill="none" height="46.2656" style="stroke:#475569;stroke-width:1.5;" width="893" x="288.5" y="1154.0703"/><rect fill="none" height="46.2656" style="stroke:#475569;stroke-width:1.5;" width="406.5" x="30" y="1272.6016"/><line style="stroke:#94A3B8;stroke-width:0.5;stroke-dasharray:5.0,5.0;" x1="76" x2="76" y1="118.5938" y2="1504.9297"/><line style="stroke:#94A3B8;stroke-width:0.5;stroke-dasharray:5.0,5.0;" x1="362.5" x2="362.5" y1="118.5938" y2="1504.9297"/><line style="stroke:#94A3B8;stroke-width:0.5;stroke-dasharray:5.0,5.0;" x1="1153.5" x2="1153.5" y1="118.5938" y2="1504.9297"/><line style="stroke:#94A3B8;stroke-width:0.5;stroke-dasharray:5.0,5.0;" x1="1237.5" x2="1237.5" y1="118.5938" y2="1504.9297"/><text fill="#000000" font-family="sans-serif" font-size="14" lengthAdjust="spacing" textLength="67" x="40" y="115.292">Controller</text><ellipse cx="76.5" cy="50.7969" fill="#E0F2FE" rx="8" ry="8" style="stroke:#0F766E;stroke-width:0.5;"/><path d="M76.5,58.7969 L76.5,85.7969 M63.5,66.7969 L89.5,66.7969 M76.5,85.7969 L63.5,100.7969 M76.5,85.7969 L89.5,100.7969 " fill="none" style="stroke:#0F766E;stroke-width:0.5;"/><text fill="#000000" font-family="sans-serif" font-size="14" lengthAdjust="spacing" textLength="67" x="40" y="1516.9248">Controller</text><ellipse cx="76.5" cy="1528.7266" fill="#E0F2FE" rx="8" ry="8" style="stroke:#0F766E;stroke-width:0.5;"/><path d="M76.5,1536.7266 L76.5,1563.7266 M63.5,1544.7266 L89.5,1544.7266 M76.5,1563.7266 L63.5,1578.7266 M76.5,1563.7266 L89.5,1578.7266 " fill="none" style="stroke:#0F766E;stroke-width:0.5;"/><rect fill="#F8FAFC" height="30.2969" rx="2.5" ry="2.5" style="stroke:#475569;stroke-width:0.5;" width="128" x="298.5" y="87.2969"/><text fill="#000000" font-family="sans-serif" font-size="14" lengthAdjust="spacing" textLength="114" x="305.5" y="107.292">Service Manager</text><rect fill="#F8FAFC" height="30.2969" rx="2.5" ry="2.5" style="stroke:#475569;stroke-width:0.5;" width="128" x="298.5" y="1503.9297"/><text fill="#000000" font-family="sans-serif" font-size="14" lengthAdjust="spacing" textLength="114" x="305.5" y="1523.9248">Service Manager</text><text fill="#000000" font-family="sans-serif" font-size="14" lengthAdjust="spacing" textLength="24" x="1138.5" y="115.292">OCI</text><path d="M1135.5,66.2969 C1135.5,56.2969 1153.5,56.2969 1153.5,56.2969 C1153.5,56.2969 1171.5,56.2969 1171.5,66.2969 L1171.5,92.2969 C1171.5,102.2969 1153.5,102.2969 1153.5,102.2969 C1153.5,102.2969 1135.5,102.2969 1135.5,92.2969 L1135.5,66.2969 " fill="#E2E2F0" style="stroke:#181818;stroke-width:1.5;"/><path d="M1135.5,66.2969 C1135.5,76.2969 1153.5,76.2969 1153.5,76.2969 C1153.5,76.2969 1171.5,76.2969 1171.5,66.2969 " fill="none" style="stroke:#181818;stroke-width:1.5;"/><text fill="#000000" font-family="sans-serif" font-size="14" lengthAdjust="spacing" textLength="24" x="1138.5" y="1516.9248">OCI</text><path d="M1135.5,1530.2266 C1135.5,1520.2266 1153.5,1520.2266 1153.5,1520.2266 C1153.5,1520.2266 1171.5,1520.2266 1171.5,1530.2266 L1171.5,1556.2266 C1171.5,1566.2266 1153.5,1566.2266 1153.5,1566.2266 C1153.5,1566.2266 1135.5,1566.2266 1135.5,1556.2266 L1135.5,1530.2266 " fill="#E2E2F0" style="stroke:#181818;stroke-width:1.5;"/><path d="M1135.5,1530.2266 C1135.5,1540.2266 1153.5,1540.2266 1153.5,1540.2266 C1153.5,1540.2266 1171.5,1540.2266 1171.5,1530.2266 " fill="none" style="stroke:#181818;stroke-width:1.5;"/><text fill="#000000" font-family="sans-serif" font-size="14" lengthAdjust="spacing" textLength="106" x="1181.5" y="115.292">Kubernetes API</text><path d="M1219.5,66.2969 C1219.5,56.2969 1237.5,56.2969 1237.5,56.2969 C1237.5,56.2969 1255.5,56.2969 1255.5,66.2969 L1255.5,92.2969 C1255.5,102.2969 1237.5,102.2969 1237.5,102.2969 C1237.5,102.2969 1219.5,102.2969 1219.5,92.2969 L1219.5,66.2969 " fill="#E2E2F0" style="stroke:#181818;stroke-width:1.5;"/><path d="M1219.5,66.2969 C1219.5,76.2969 1237.5,76.2969 1237.5,76.2969 C1237.5,76.2969 1255.5,76.2969 1255.5,66.2969 " fill="none" style="stroke:#181818;stroke-width:1.5;"/><text fill="#000000" font-family="sans-serif" font-size="14" lengthAdjust="spacing" textLength="106" x="1181.5" y="1516.9248">Kubernetes API</text><path d="M1219.5,1530.2266 C1219.5,1520.2266 1237.5,1520.2266 1237.5,1520.2266 C1237.5,1520.2266 1255.5,1520.2266 1255.5,1530.2266 L1255.5,1556.2266 C1255.5,1566.2266 1237.5,1566.2266 1237.5,1566.2266 C1237.5,1566.2266 1219.5,1566.2266 1219.5,1556.2266 L1219.5,1530.2266 " fill="#E2E2F0" style="stroke:#181818;stroke-width:1.5;"/><path d="M1219.5,1530.2266 C1219.5,1540.2266 1237.5,1540.2266 1237.5,1540.2266 C1237.5,1540.2266 1255.5,1540.2266 1255.5,1530.2266 " fill="none" style="stroke:#181818;stroke-width:1.5;"/><polygon fill="#334155" points="350.5,145.7266,360.5,149.7266,350.5,153.7266,354.5,149.7266" style="stroke:#334155;stroke-width:1.0;"/><line style="stroke:#334155;stroke-width:1.0;" x1="76.5" x2="356.5" y1="149.7266" y2="149.7266"/><text fill="#000000" font-family="sans-serif" font-size="13" font-weight="bold" lengthAdjust="spacing" textLength="9" x="83.5" y="144.6606">1</text><text fill="#000000" font-family="sans-serif" font-size="13" lengthAdjust="spacing" textLength="239" x="96.5" y="144.6606">reconcile desired spec and live status</text><polygon fill="#334155" points="1225.5,174.8594,1235.5,178.8594,1225.5,182.8594,1229.5,178.8594" style="stroke:#334155;stroke-width:1.0;"/><line style="stroke:#334155;stroke-width:1.0;" x1="362.5" x2="1231.5" y1="178.8594" y2="178.8594"/><text fill="#000000" font-family="sans-serif" font-size="13" font-weight="bold" lengthAdjust="spacing" textLength="9" x="369.5" y="173.7935">2</text><text fill="#000000" font-family="sans-serif" font-size="13" lengthAdjust="spacing" textLength="212" x="382.5" y="173.7935">read CR status and finalizer state</text><path d="M268.5,193.8594 L438.5,193.8594 L438.5,200.9922 L428.5,210.9922 L268.5,210.9922 L268.5,193.8594 " fill="#F8FAFC" style="stroke:#475569;stroke-width:1.5;"/><rect fill="none" height="254.6719" style="stroke:#475569;stroke-width:1.5;" width="1055" x="268.5" y="193.8594"/><text fill="#000000" font-family="sans-serif" font-size="13" font-weight="bold" lengthAdjust="spacing" textLength="125" x="283.5" y="206.9263">Lookup and bind</text><path d="M278.5,217.9922 L342.5,217.9922 L342.5,225.125 L332.5,235.125 L278.5,235.125 L278.5,217.9922 " fill="#F8FAFC" style="stroke:#475569;stroke-width:1.5;"/><rect fill="none" height="223.5391" style="stroke:#475569;stroke-width:1.5;" width="1035" x="278.5" y="217.9922"/><text fill="#000000" font-family="sans-serif" font-size="13" font-weight="bold" lengthAdjust="spacing" textLength="19" x="293.5" y="231.0591">alt</text><text fill="#000000" font-family="sans-serif" font-size="11" font-weight="bold" lengthAdjust="spacing" textLength="256" x="357.5" y="230.2026">[tracked or explicit OCID already exists]</text><polygon fill="#334155" points="1141.5,252.2578,1151.5,256.2578,1141.5,260.2578,1145.5,256.2578" style="stroke:#334155;stroke-width:1.0;"/><line style="stroke:#334155;stroke-width:1.0;" x1="362.5" x2="1147.5" y1="256.2578" y2="256.2578"/><text fill="#000000" font-family="sans-serif" font-size="13" font-weight="bold" lengthAdjust="spacing" textLength="9" x="369.5" y="251.1919">3</text><text fill="#000000" font-family="sans-serif" font-size="13" lengthAdjust="spacing" textLength="278" x="382.5" y="251.1919">get the current resource by known identifier</text><line style="stroke:#475569;stroke-width:1.0;stroke-dasharray:2.0,2.0;" x1="278.5" x2="1313.5" y1="265.2578" y2="265.2578"/><text fill="#000000" font-family="sans-serif" font-size="11" font-weight="bold" lengthAdjust="spacing" textLength="145" x="283.5" y="275.4683">[no OCID is bound yet]</text><polygon fill="#334155" points="1141.5,296.1953,1151.5,300.1953,1141.5,304.1953,1145.5,300.1953" style="stroke:#334155;stroke-width:1.0;"/><line style="stroke:#334155;stroke-width:1.0;" x1="362.5" x2="1147.5" y1="300.1953" y2="300.1953"/><text fill="#000000" font-family="sans-serif" font-size="13" font-weight="bold" lengthAdjust="spacing" textLength="9" x="369.5" y="295.1294">4</text><text fill="#000000" font-family="sans-serif" font-size="13" lengthAdjust="spacing" textLength="193" x="382.5" y="295.1294">list resources by display name</text><path d="M288.5,315.1953 L352.5,315.1953 L352.5,322.3281 L342.5,332.3281 L288.5,332.3281 L288.5,315.1953 " fill="#F8FAFC" style="stroke:#475569;stroke-width:1.5;"/><rect fill="none" height="119.3359" style="stroke:#475569;stroke-width:1.5;" width="1015" x="288.5" y="315.1953"/><text fill="#000000" font-family="sans-serif" font-size="13" font-weight="bold" lengthAdjust="spacing" textLength="19" x="303.5" y="328.2622">alt</text><text fill="#000000" font-family="sans-serif" font-size="11" font-weight="bold" lengthAdjust="spacing" textLength="162" x="367.5" y="327.4058">[existing resource found]</text><polygon fill="#334155" points="1225.5,349.4609,1235.5,353.4609,1225.5,357.4609,1229.5,353.4609" style="stroke:#334155;stroke-width:1.0;"/><line style="stroke:#334155;stroke-width:1.0;" x1="362.5" x2="1231.5" y1="353.4609" y2="353.4609"/><text fill="#000000" font-family="sans-serif" font-size="13" font-weight="bold" lengthAdjust="spacing" textLength="9" x="369.5" y="348.395">5</text><text fill="#000000" font-family="sans-serif" font-size="13" lengthAdjust="spacing" textLength="221" x="382.5" y="348.395">persist the resolved OCID in status</text><line style="stroke:#475569;stroke-width:1.0;stroke-dasharray:2.0,2.0;" x1="288.5" x2="1303.5" y1="362.4609" y2="362.4609"/><text fill="#000000" font-family="sans-serif" font-size="11" font-weight="bold" lengthAdjust="spacing" textLength="182" x="293.5" y="372.6714">[no existing resource found]</text><polygon fill="#334155" points="1141.5,393.3984,1151.5,397.3984,1141.5,401.3984,1145.5,397.3984" style="stroke:#334155;stroke-width:1.0;"/><line style="stroke:#334155;stroke-width:1.0;" x1="362.5" x2="1147.5" y1="397.3984" y2="397.3984"/><text fill="#000000" font-family="sans-serif" font-size="13" font-weight="bold" lengthAdjust="spacing" textLength="9" x="369.5" y="392.3325">6</text><text fill="#000000" font-family="sans-serif" font-size="13" lengthAdjust="spacing" textLength="152" x="382.5" y="392.3325">create the OCI resource</text><polygon fill="#334155" points="1225.5,422.5313,1235.5,426.5313,1225.5,430.5313,1229.5,426.5313" style="stroke:#334155;stroke-width:1.0;"/><line style="stroke:#334155;stroke-width:1.0;" x1="362.5" x2="1231.5" y1="426.5313" y2="426.5313"/><text fill="#000000" font-family="sans-serif" font-size="13" font-weight="bold" lengthAdjust="spacing" textLength="9" x="369.5" y="421.4653">7</text><text fill="#000000" font-family="sans-serif" font-size="13" lengthAdjust="spacing" textLength="216" x="382.5" y="421.4653">persist the created OCID in status</text><path d="M10,462.5313 L74,462.5313 L74,469.6641 L64,479.6641 L10,479.6641 L10,462.5313 " fill="#F8FAFC" style="stroke:#475569;stroke-width:1.5;"/><rect fill="none" height="899.4688" style="stroke:#475569;stroke-width:1.5;" width="1313.5" x="10" y="462.5313"/><text fill="#000000" font-family="sans-serif" font-size="13" font-weight="bold" lengthAdjust="spacing" textLength="19" x="25" y="475.5981">alt</text><text fill="#000000" font-family="sans-serif" font-size="11" font-weight="bold" lengthAdjust="spacing" textLength="120" x="89" y="474.7417">[delete requested]</text><path d="M20,486.6641 L113,486.6641 L113,493.7969 L103,503.7969 L20,503.7969 L20,486.6641 " fill="#F8FAFC" style="stroke:#475569;stroke-width:1.5;"/><rect fill="none" height="237.8672" style="stroke:#475569;stroke-width:1.5;" width="1293.5" x="20" y="486.6641"/><text fill="#000000" font-family="sans-serif" font-size="13" font-weight="bold" lengthAdjust="spacing" textLength="48" x="35" y="499.731">Delete</text><polygon fill="#334155" points="1141.5,520.9297,1151.5,524.9297,1141.5,528.9297,1145.5,524.9297" style="stroke:#334155;stroke-width:1.0;"/><line style="stroke:#334155;stroke-width:1.0;" x1="362.5" x2="1147.5" y1="524.9297" y2="524.9297"/><text fill="#000000" font-family="sans-serif" font-size="13" font-weight="bold" lengthAdjust="spacing" textLength="9" x="369.5" y="519.8638">8</text><text fill="#000000" font-family="sans-serif" font-size="13" lengthAdjust="spacing" textLength="114" x="382.5" y="519.8638">submit OCI delete</text><polygon fill="#334155" points="1141.5,550.0625,1151.5,554.0625,1141.5,558.0625,1145.5,554.0625" style="stroke:#334155;stroke-width:1.0;"/><line style="stroke:#334155;stroke-width:1.0;" x1="362.5" x2="1147.5" y1="554.0625" y2="554.0625"/><text fill="#000000" font-family="sans-serif" font-size="13" font-weight="bold" lengthAdjust="spacing" textLength="9" x="369.5" y="548.9966">9</text><text fill="#000000" font-family="sans-serif" font-size="13" lengthAdjust="spacing" textLength="573" x="382.5" y="548.9966">Resolve the target stream ID from spec, status, or name lookup before submitting delete.</text><polygon fill="#334155" points="1141.5,579.1953,1151.5,583.1953,1141.5,587.1953,1145.5,583.1953" style="stroke:#334155;stroke-width:1.0;"/><line style="stroke:#334155;stroke-width:1.0;" x1="362.5" x2="1147.5" y1="583.1953" y2="583.1953"/><text fill="#000000" font-family="sans-serif" font-size="13" font-weight="bold" lengthAdjust="spacing" textLength="18" x="369.5" y="578.1294">10</text><text fill="#000000" font-family="sans-serif" font-size="13" lengthAdjust="spacing" textLength="580" x="391.5" y="578.1294">Confirm deletion with GetStream until the lifecycle is DELETED or the resource is not found.</text><polygon fill="#334155" points="1225.5,608.3281,1235.5,612.3281,1225.5,616.3281,1229.5,612.3281" style="stroke:#334155;stroke-width:1.0;"/><line style="stroke:#334155;stroke-width:1.0;" x1="362.5" x2="1231.5" y1="612.3281" y2="612.3281"/><text fill="#000000" font-family="sans-serif" font-size="13" font-weight="bold" lengthAdjust="spacing" textLength="18" x="369.5" y="607.2622">11</text><text fill="#000000" font-family="sans-serif" font-size="13" lengthAdjust="spacing" textLength="380" x="391.5" y="607.2622">Delete the owned Secret only after OCI delete confirmation.</text><path d="M30,627.3281 L94,627.3281 L94,634.4609 L84,644.4609 L30,644.4609 L30,627.3281 " fill="#F8FAFC" style="stroke:#475569;stroke-width:1.5;"/><rect fill="none" height="90.2031" style="stroke:#475569;stroke-width:1.5;" width="1273.5" x="30" y="627.3281"/><text fill="#000000" font-family="sans-serif" font-size="13" font-weight="bold" lengthAdjust="spacing" textLength="19" x="45" y="640.395">alt</text><text fill="#000000" font-family="sans-serif" font-size="11" font-weight="bold" lengthAdjust="spacing" textLength="217" x="109" y="639.5386">[owned Secret cleanup succeeds]</text><polygon fill="#334155" points="1225.5,661.5938,1235.5,665.5938,1225.5,669.5938,1229.5,665.5938" style="stroke:#334155;stroke-width:1.0;"/><line style="stroke:#334155;stroke-width:1.0;" x1="362.5" x2="1231.5" y1="665.5938" y2="665.5938"/><text fill="#000000" font-family="sans-serif" font-size="13" font-weight="bold" lengthAdjust="spacing" textLength="18" x="369.5" y="660.5278">12</text><text fill="#000000" font-family="sans-serif" font-size="13" lengthAdjust="spacing" textLength="127" x="391.5" y="660.5278">remove the finalizer</text><line style="stroke:#475569;stroke-width:1.0;stroke-dasharray:2.0,2.0;" x1="30" x2="1303.5" y1="674.5938" y2="674.5938"/><text fill="#000000" font-family="sans-serif" font-size="11" font-weight="bold" lengthAdjust="spacing" textLength="138" x="35" y="684.8042">[Secret cleanup fails]</text><polygon fill="#334155" points="87.5,705.5313,77.5,709.5313,87.5,713.5313,83.5,709.5313" style="stroke:#334155;stroke-width:1.0;"/><line style="stroke:#334155;stroke-width:1.0;stroke-dasharray:2.0,2.0;" x1="81.5" x2="361.5" y1="709.5313" y2="709.5313"/><text fill="#000000" font-family="sans-serif" font-size="13" font-weight="bold" lengthAdjust="spacing" textLength="18" x="93.5" y="704.4653">13</text><text fill="#000000" font-family="sans-serif" font-size="13" lengthAdjust="spacing" textLength="177" x="115.5" y="704.4653">retain the finalizer and retry</text><line style="stroke:#475569;stroke-width:1.0;stroke-dasharray:2.0,2.0;" x1="10" x2="1323.5" y1="732.5313" y2="732.5313"/><text fill="#000000" font-family="sans-serif" font-size="11" font-weight="bold" lengthAdjust="spacing" textLength="147" x="15" y="742.7417">[OCI state is retryable]</text><polygon fill="#334155" points="87.5,763.4688,77.5,767.4688,87.5,771.4688,83.5,767.4688" style="stroke:#334155;stroke-width:1.0;"/><line style="stroke:#334155;stroke-width:1.0;stroke-dasharray:2.0,2.0;" x1="81.5" x2="361.5" y1="767.4688" y2="767.4688"/><text fill="#000000" font-family="sans-serif" font-size="13" font-weight="bold" lengthAdjust="spacing" textLength="18" x="93.5" y="762.4028">14</text><text fill="#000000" font-family="sans-serif" font-size="13" lengthAdjust="spacing" textLength="110" x="115.5" y="762.4028">requeue required</text><line style="stroke:#475569;stroke-width:1.0;stroke-dasharray:2.0,2.0;" x1="10" x2="1323.5" y1="776.4688" y2="776.4688"/><text fill="#000000" font-family="sans-serif" font-size="11" font-weight="bold" lengthAdjust="spacing" textLength="200" x="15" y="786.6792">[OCI state is failed or terminal]</text><polygon fill="#334155" points="87.5,807.4063,77.5,811.4063,87.5,815.4063,83.5,811.4063" style="stroke:#334155;stroke-width:1.0;"/><line style="stroke:#334155;stroke-width:1.0;stroke-dasharray:2.0,2.0;" x1="81.5" x2="361.5" y1="811.4063" y2="811.4063"/><text fill="#000000" font-family="sans-serif" font-size="13" font-weight="bold" lengthAdjust="spacing" textLength="18" x="93.5" y="806.3403">15</text><text fill="#000000" font-family="sans-serif" font-size="13" lengthAdjust="spacing" textLength="240" x="115.5" y="806.3403">unsuccessful terminal reconcile result</text><line style="stroke:#475569;stroke-width:1.0;stroke-dasharray:2.0,2.0;" x1="10" x2="1323.5" y1="820.4063" y2="820.4063"/><text fill="#000000" font-family="sans-serif" font-size="11" font-weight="bold" lengthAdjust="spacing" textLength="203" x="15" y="830.6167">[OCI state is active and usable]</text><path d="M20,841.2109 L167,841.2109 L167,848.3438 L157,858.3438 L20,858.3438 L20,841.2109 " fill="#F8FAFC" style="stroke:#475569;stroke-width:1.5;"/><rect fill="none" height="484.6563" style="stroke:#475569;stroke-width:1.5;" width="1283.5" x="20" y="841.2109"/><text fill="#000000" font-family="sans-serif" font-size="13" font-weight="bold" lengthAdjust="spacing" textLength="102" x="35" y="854.2778">Drift handling</text><path d="M324,863.3438 L324,994.3438 L1192,994.3438 L1192,873.3438 L1182,863.3438 L324,863.3438 " fill="#FEFFDD" style="stroke:#181818;stroke-width:0.5;"/><path d="M1182,863.3438 L1182,873.3438 L1192,873.3438 L1182,863.3438 " fill="#FEFFDD" style="stroke:#181818;stroke-width:0.5;"/><text fill="#000000" font-family="sans-serif" font-size="13" lengthAdjust="spacing" textLength="171" x="330" y="880.4106">Supported update surface:</text><text fill="#000000" font-family="sans-serif" font-size="13" lengthAdjust="spacing" textLength="93" x="330" y="895.5435">- streamPoolId</text><text fill="#000000" font-family="sans-serif" font-size="13" lengthAdjust="spacing" textLength="96" x="330" y="910.6763">- freeform tags</text><text fill="#000000" font-family="sans-serif" font-size="13" lengthAdjust="spacing" textLength="88" x="330" y="925.8091">- defined tags</text><text fill="#000000" font-family="sans-serif" font-size="13" lengthAdjust="spacing" textLength="139" x="330" y="940.9419">Reject before mutate:</text><text fill="#000000" font-family="sans-serif" font-size="13" lengthAdjust="spacing" textLength="75" x="330" y="956.0747">- name drift</text><text fill="#000000" font-family="sans-serif" font-size="13" lengthAdjust="spacing" textLength="98" x="330" y="971.2075">- partitions drift</text><text fill="#000000" font-family="sans-serif" font-size="13" lengthAdjust="spacing" textLength="145" x="330" y="986.3403">- retentionInHours drift</text><path d="M30,1006.4063 L100,1006.4063 L100,1013.5391 L90,1023.5391 L30,1023.5391 L30,1006.4063 " fill="#F8FAFC" style="stroke:#475569;stroke-width:1.5;"/><rect fill="none" height="46.2656" style="stroke:#475569;stroke-width:1.5;" width="406.5" x="30" y="1006.4063"/><text fill="#000000" font-family="sans-serif" font-size="13" font-weight="bold" lengthAdjust="spacing" textLength="25" x="45" y="1019.4731">opt</text><text fill="#000000" font-family="sans-serif" font-size="11" font-weight="bold" lengthAdjust="spacing" textLength="286" x="115" y="1018.6167">[unsupported or immutable drift is detected]</text><polygon fill="#334155" points="87.5,1040.6719,77.5,1044.6719,87.5,1048.6719,83.5,1044.6719" style="stroke:#334155;stroke-width:1.0;"/><line style="stroke:#334155;stroke-width:1.0;stroke-dasharray:2.0,2.0;" x1="81.5" x2="361.5" y1="1044.6719" y2="1044.6719"/><text fill="#000000" font-family="sans-serif" font-size="13" font-weight="bold" lengthAdjust="spacing" textLength="18" x="93.5" y="1039.606">16</text><text fill="#000000" font-family="sans-serif" font-size="13" lengthAdjust="spacing" textLength="169" x="115.5" y="1039.606">reject before OCI mutation</text><polygon fill="#334155" points="1141.5,1076.8047,1151.5,1080.8047,1141.5,1084.8047,1145.5,1080.8047" style="stroke:#334155;stroke-width:1.0;"/><line style="stroke:#334155;stroke-width:1.0;" x1="362.5" x2="1147.5" y1="1080.8047" y2="1080.8047"/><text fill="#000000" font-family="sans-serif" font-size="13" font-weight="bold" lengthAdjust="spacing" textLength="18" x="369.5" y="1075.7388">17</text><text fill="#000000" font-family="sans-serif" font-size="13" lengthAdjust="spacing" textLength="605" x="391.5" y="1075.7388">Resolve the authoritative OCID from spec, status, or name lookup before any update or delete.</text><polygon fill="#334155" points="1141.5,1105.9375,1151.5,1109.9375,1141.5,1113.9375,1145.5,1109.9375" style="stroke:#334155;stroke-width:1.0;"/><line style="stroke:#334155;stroke-width:1.0;" x1="362.5" x2="1147.5" y1="1109.9375" y2="1109.9375"/><text fill="#000000" font-family="sans-serif" font-size="13" font-weight="bold" lengthAdjust="spacing" textLength="18" x="369.5" y="1104.8716">18</text><text fill="#000000" font-family="sans-serif" font-size="13" lengthAdjust="spacing" textLength="745" x="391.5" y="1104.8716">Move the stream compartment before mutable updates when another supported drift already opens UpdateStream.</text><polygon fill="#334155" points="1141.5,1135.0703,1151.5,1139.0703,1141.5,1143.0703,1145.5,1139.0703" style="stroke:#334155;stroke-width:1.0;"/><line style="stroke:#334155;stroke-width:1.0;" x1="362.5" x2="1147.5" y1="1139.0703" y2="1139.0703"/><text fill="#000000" font-family="sans-serif" font-size="13" font-weight="bold" lengthAdjust="spacing" textLength="18" x="369.5" y="1134.0044">19</text><text fill="#000000" font-family="sans-serif" font-size="13" lengthAdjust="spacing" textLength="439" x="391.5" y="1134.0044">Require MessagesEndpoint before generating the connection Secret.</text><path d="M288.5,1154.0703 L358.5,1154.0703 L358.5,1161.2031 L348.5,1171.2031 L288.5,1171.2031 L288.5,1154.0703 " fill="#F8FAFC" style="stroke:#475569;stroke-width:1.5;"/><rect fill="none" height="46.2656" style="stroke:#475569;stroke-width:1.5;" width="893" x="288.5" y="1154.0703"/><text fill="#000000" font-family="sans-serif" font-size="13" font-weight="bold" lengthAdjust="spacing" textLength="25" x="303.5" y="1167.1372">opt</text><text fill="#000000" font-family="sans-serif" font-size="11" font-weight="bold" lengthAdjust="spacing" textLength="258" x="373.5" y="1166.2808">[supported drift or collection diff exists]</text><polygon fill="#334155" points="1141.5,1188.3359,1151.5,1192.3359,1141.5,1196.3359,1145.5,1192.3359" style="stroke:#334155;stroke-width:1.0;"/><line style="stroke:#334155;stroke-width:1.0;" x1="362.5" x2="1147.5" y1="1192.3359" y2="1192.3359"/><text fill="#000000" font-family="sans-serif" font-size="13" font-weight="bold" lengthAdjust="spacing" textLength="18" x="369.5" y="1187.27">20</text><text fill="#000000" font-family="sans-serif" font-size="13" lengthAdjust="spacing" textLength="277" x="391.5" y="1187.27">apply the supported in-place mutation path</text><polygon fill="#334155" points="1141.5,1224.4688,1151.5,1228.4688,1141.5,1232.4688,1145.5,1228.4688" style="stroke:#334155;stroke-width:1.0;"/><line style="stroke:#334155;stroke-width:1.0;" x1="362.5" x2="1147.5" y1="1228.4688" y2="1228.4688"/><text fill="#000000" font-family="sans-serif" font-size="13" font-weight="bold" lengthAdjust="spacing" textLength="18" x="369.5" y="1223.4028">21</text><text fill="#000000" font-family="sans-serif" font-size="13" lengthAdjust="spacing" textLength="336" x="391.5" y="1223.4028">verify the live endpoint needed for Secret generation</text><polygon fill="#334155" points="1225.5,1253.6016,1235.5,1257.6016,1225.5,1261.6016,1229.5,1257.6016" style="stroke:#334155;stroke-width:1.0;"/><line style="stroke:#334155;stroke-width:1.0;" x1="362.5" x2="1231.5" y1="1257.6016" y2="1257.6016"/><text fill="#000000" font-family="sans-serif" font-size="13" font-weight="bold" lengthAdjust="spacing" textLength="18" x="369.5" y="1252.5356">22</text><text fill="#000000" font-family="sans-serif" font-size="13" lengthAdjust="spacing" textLength="351" x="391.5" y="1252.5356">upsert the owned Secret for the usable active resource</text><path d="M30,1272.6016 L94,1272.6016 L94,1279.7344 L84,1289.7344 L30,1289.7344 L30,1272.6016 " fill="#F8FAFC" style="stroke:#475569;stroke-width:1.5;"/><rect fill="none" height="46.2656" style="stroke:#475569;stroke-width:1.5;" width="406.5" x="30" y="1272.6016"/><text fill="#000000" font-family="sans-serif" font-size="13" font-weight="bold" lengthAdjust="spacing" textLength="19" x="45" y="1285.6685">alt</text><text fill="#000000" font-family="sans-serif" font-size="11" font-weight="bold" lengthAdjust="spacing" textLength="116" x="109" y="1284.812">[Secret sync fails]</text><polygon fill="#334155" points="87.5,1306.8672,77.5,1310.8672,87.5,1314.8672,83.5,1310.8672" style="stroke:#334155;stroke-width:1.0;"/><line style="stroke:#334155;stroke-width:1.0;stroke-dasharray:2.0,2.0;" x1="81.5" x2="361.5" y1="1310.8672" y2="1310.8672"/><text fill="#000000" font-family="sans-serif" font-size="13" font-weight="bold" lengthAdjust="spacing" textLength="18" x="93.5" y="1305.8013">23</text><text fill="#000000" font-family="sans-serif" font-size="13" lengthAdjust="spacing" textLength="150" x="115.5" y="1305.8013">block success and retry</text><polygon fill="#334155" points="87.5,1350,77.5,1354,87.5,1358,83.5,1354" style="stroke:#334155;stroke-width:1.0;"/><line style="stroke:#334155;stroke-width:1.0;stroke-dasharray:2.0,2.0;" x1="81.5" x2="361.5" y1="1354" y2="1354"/><text fill="#000000" font-family="sans-serif" font-size="13" font-weight="bold" lengthAdjust="spacing" textLength="18" x="93.5" y="1348.9341">24</text><text fill="#000000" font-family="sans-serif" font-size="13" lengthAdjust="spacing" textLength="169" x="115.5" y="1348.9341">successful active reconcile</text><path d="M51,1374 L51,1489 L1177,1489 L1177,1384 L1167,1374 L51,1374 " fill="#FEFFDD" style="stroke:#181818;stroke-width:0.5;"/><path d="M1167,1374 L1167,1384 L1177,1384 L1167,1374 " fill="#FEFFDD" style="stroke:#181818;stroke-width:0.5;"/><text fill="#000000" font-family="sans-serif" font-size="13" lengthAdjust="spacing" textLength="105" x="57" y="1391.0669">Boundary notes:</text><text fill="#000000" font-family="sans-serif" font-size="13" lengthAdjust="spacing" textLength="493" x="57" y="1406.1997">- Compartment-only drift currently reaches the move path only when another</text><text fill="#000000" font-family="sans-serif" font-size="13" lengthAdjust="spacing" textLength="283" x="73" y="1421.3325">mutable diff already triggers UpdateStream.</text><text fill="#000000" font-family="sans-serif" font-size="13" lengthAdjust="spacing" textLength="108" x="57" y="1436.4653">Sequence notes:</text><text fill="#000000" font-family="sans-serif" font-size="13" lengthAdjust="spacing" textLength="432" x="57" y="1451.5981">- OCI DELETING remains retryable during stream delete completion.</text><text fill="#000000" font-family="sans-serif" font-size="13" lengthAdjust="spacing" textLength="166" x="57" y="1466.731">Controller-local invariants:</text><text fill="#000000" font-family="sans-serif" font-size="13" lengthAdjust="spacing" textLength="229" x="57" y="1481.8638">- StatusPresentUsesStatusInvariant</text><!--SRC=[bLVRKXiv47sVh-WYhvXAbai83rjbm6QfG9Q2v0DaJO-jHIFDIXg8Tsl_VRibpNWms3XK1SfIgo-dJvzsWWeQuI4u53NSexH6AZx0lriq4WlH1clQUeQky8_ADCAHdL-8qZuhCuTAQ8-3ctCX7-VEjgQyiDew-32DFmEBiNFsELyU7XvzEZuUN9POYLQ7x_WpZBMQcnfD08rL60RFgS6_1S2TS459rGWJNeS-dOwd5sj6rfNeii7Hv-FZaozaSACgl546Nzn-EHeVdfyERpVK1d15fytRhjFLnjJ6CbZtwdhoSVhRTD9V3nr_d7u-EPaK_nM2hs3lmfhWhDReza1uM7qicbNLiFU0xaaHPhV2Y7cspMVvg2X543FX4VR-lBYE1lHtSFgr9H8O3EXXV9SClfxwebY5XD7lQqxFmFMKAj4hXoNu1YK8Ku9MJmW-YD3wukKpTaI- -RKeuU8-MyLNbJ92gt_8Y0-nA1Yv1cwiVQG_R35JfYJiX0uG745BCGaf_DbeWYDmLPTqoQwNTAfyy6GDy3e5iZo3EPAR1O9idMCsElIsTGJbR0cFnZuRK2MTgqeHXW18ym36fYZAmupR2aiCss9eIg9txDbpgNoZnHACg36-v6fYiZnrVGuLUu_tR_cE43ReFBld6lYTVY8yKdQcGv-VTud_Qf1OW2Gq0yOOzBb_kdjcoS7RYSNW_9l_5Gn4YPfuI6582Jmze_l4WijuiGrgtyxgH8BiPPlnVS8hPXY4Oohuf9IKPULi7ScydxFTPvfnmq0dCiwmiWvpo8Xf2dcmBIQDKwLSdKoLDV2imWAkC6IDRebhEcQaIPVaKj9e4Syk9pUJxvDBJg7hT6mUNHaRKWytnOtTID35nqHgQiK3KbC2MAEN8Af0fYlGGAOi1MTuq1FqnKDAJ1X2mRTI8fP-EnaSrZOZtK_uYfThBYkXz2P_v72bIEmt2EBJ2xzH9UZ2BTS9nh6uoYWjZ5sq4ZFDD7at4h6nJQnaeNl36-UTr8ZWh3cTzzss9WBeVTNg_jb0LgdJj37V24OBWWMMQsrzBY5FYLDLW0NTQ29bnE2RfKVK0BUMpZxlW0nqspJMyP2sJSanVEig8V4itu_oRDnPgw_B_h1oo6DGqm3DVNzAYrunLmQ7z_WNoj0DJTro7IlVSQvAJhm_YWkE2UZNBgXfhCZMN9i_Q0g6rzHbdeSqzRO94TwkBkgBgZdmJETOZ6D9tcGIcPtuDgo26n8heMG6NDj9SEYRry8wnO-VC0dZpf8ZpBBh4Xdie3gttV1bVPEsPdZZzwz1HnYOvDV3ym8D1RBqYdPn3sB2hTklja5gpu_u90dOmVRwu-p0BV6TBlp4b8rLgnpcQD29AALnQrXZ26rMoQGG1trVrnCY62ItA5cNggg6ktzZGg9fIFuYCBr3PKQqcoNsdIKcXiKkxQNvKjKoYpS1ZbrvXWIIF5EDdTHrbMRUR53Djl7emclHhl8QI8FVIS6BjSnwdQtzqiXVqTIPjl8HiYnj5DDttGnqhKymgrfQzIjHMZtBWdJE-qouPHncpp8n8gEUiwEujLBdynSt-apqamjYBYCJjmttBIsu8Pap2BqGC5SwFWUdvbJBQqft_s4Q9iJJ7_VozRShNd2qY0OR1ShMCP7pnFMBjMxIucUlgxf7X3dflZ9FmYdwIfz3F4GPkAFEKea_FFfqSDsP5RtW_Gy0]--></g></svg>