<?xml version="1.0" encoding="UTF-8" standalone="no"?><svg xmlns="http://www.w3.org/2000/svg" xmlns:xlink="http://www.w3.org/1999/xlink" contentStyleType="text/css" height="516px" preserveAspectRatio="none" style="width:2663px;height:516px;background:#FFFFFF;" version="1.1" viewBox="0 0 2663 516" width="2663px" zoomAndPan="magnify"><defs/><g><text fill="#000000" font-family="sans-serif" font-size="14" font-weight="bold" lengthAdjust="spacing" textLength="253" x="1198.375" y="22.9951">Stream Reconcile State Machine</text><ellipse cx="16" cy="352.2969" fill="#222222" rx="10" ry="10" style="stroke:none;stroke-width:1.0;"/><g id="Observe"><rect fill="#F8FAFC" height="50.2656" rx="6" ry="6" style="stroke:#475569;stroke-width:0.5;" width="329" x="86" y="327.2969"/><line style="stroke:#475569;stroke-width:0.5;" x1="86" x2="415" y1="353.5938" y2="353.5938"/><text fill="#0F172A" font-family="sans-serif" font-size="14" lengthAdjust="spacing" textLength="58" x="221.5" y="345.292">Observe</text><text fill="#0F172A" font-family="sans-serif" font-size="12" lengthAdjust="spacing" textLength="309" x="91" y="369.7324">read spec, status, delete intent, and OCI lifecycle</text></g><rect fill="#F8FAFC" height="40" rx="6" ry="6" style="stroke:#475569;stroke-width:0.5;" width="122" x="475" y="332.2969"/><text fill="#0F172A" font-family="sans-serif" font-size="14" lengthAdjust="spacing" textLength="112" x="480" y="357.1436">ResolveByName</text><rect fill="#F8FAFC" height="40" rx="6" ry="6" style="stroke:#475569;stroke-width:0.5;" width="111" x="657" y="239.2969"/><text fill="#0F172A" font-family="sans-serif" font-size="14" lengthAdjust="spacing" textLength="101" x="662" y="264.1436">EvaluateReady</text><rect fill="#F8FAFC" height="40" rx="6" ry="6" style="stroke:#475569;stroke-width:0.5;" width="75" x="1072" y="332.2969"/><text fill="#0F172A" font-family="sans-serif" font-size="14" lengthAdjust="spacing" textLength="65" x="1077" y="357.1436">Retryable</text><rect fill="#F8FAFC" height="40" rx="6" ry="6" style="stroke:#475569;stroke-width:0.5;" width="50" x="1237" y="417.2969"/><text fill="#0F172A" font-family="sans-serif" font-size="14" lengthAdjust="spacing" textLength="40" x="1242" y="442.1436">Failed</text><rect fill="#F8FAFC" height="40" rx="6" ry="6" style="stroke:#475569;stroke-width:0.5;" width="173" x="828" y="164.2969"/><text fill="#0F172A" font-family="sans-serif" font-size="14" lengthAdjust="spacing" textLength="163" x="833" y="189.1436">RejectUnsupportedDrift</text><rect fill="#F8FAFC" height="40" rx="6" ry="6" style="stroke:#475569;stroke-width:0.5;" width="53" x="1395" y="164.2969"/><text fill="#0F172A" font-family="sans-serif" font-size="14" lengthAdjust="spacing" textLength="43" x="1400" y="189.1436">Ready</text><rect fill="#F8FAFC" height="40" rx="6" ry="6" style="stroke:#475569;stroke-width:0.5;" width="142" x="843.5" y="239.2969"/><text fill="#0F172A" font-family="sans-serif" font-size="14" lengthAdjust="spacing" textLength="132" x="848.5" y="264.1436">MoveCompartment</text><rect fill="#F8FAFC" height="40" rx="6" ry="6" style="stroke:#475569;stroke-width:0.5;" width="97" x="1061" y="239.2969"/><text fill="#0F172A" font-family="sans-serif" font-size="14" lengthAdjust="spacing" textLength="87" x="1066" y="264.1436">ApplyUpdate</text><rect fill="#F8FAFC" height="40" rx="6" ry="6" style="stroke:#475569;stroke-width:0.5;" width="88" x="1218" y="239.2969"/><text fill="#0F172A" font-family="sans-serif" font-size="14" lengthAdjust="spacing" textLength="78" x="1223" y="264.1436">SyncSecret</text><rect fill="#F8FAFC" height="40" rx="6" ry="6" style="stroke:#475569;stroke-width:0.5;" width="111" x="1366" y="239.2969"/><text fill="#0F172A" font-family="sans-serif" font-size="14" lengthAdjust="spacing" textLength="101" x="1371" y="264.1436">SecretBlocked</text><rect fill="#F8FAFC" height="40" rx="6" ry="6" style="stroke:#475569;stroke-width:0.5;" width="113" x="1677" y="330.2969"/><text fill="#0F172A" font-family="sans-serif" font-size="14" lengthAdjust="spacing" textLength="103" x="1682" y="355.1436">DeletePending</text><rect fill="#F8FAFC" height="40" rx="6" ry="6" style="stroke:#475569;stroke-width:0.5;" width="169" x="2101.5" y="258.2969"/><text fill="#0F172A" font-family="sans-serif" font-size="14" lengthAdjust="spacing" textLength="159" x="2106.5" y="283.1436">DeleteCleanupBlocked</text><rect fill="#F8FAFC" height="40" rx="6" ry="6" style="stroke:#475569;stroke-width:0.5;" width="65" x="2442" y="258.2969"/><text fill="#0F172A" font-family="sans-serif" font-size="14" lengthAdjust="spacing" textLength="55" x="2447" y="283.1436">Deleted</text><g id="elem_GMN39"><path d="M1537,49.2969 L1537,180.2969 L1448.1,184.2969 L1537,188.2969 L1537,289.4219 A6,6 0 0 0 1543,295.4219 L1924,295.4219 A6,6 0 0 0 1930,289.4219 L1930,53.2969 L1920,43.2969 L1543,43.2969 A6,6 0 0 0 1537,49.2969 " fill="#FFF7ED" style="stroke:#181818;stroke-width:0.5;"/><path d="M1920,43.2969 L1920,50.2969 A3,3 0 0 0 1923,53.2969 L1930,53.2969 L1920,43.2969 " fill="#FFF7ED" style="stroke:#181818;stroke-width:0.5;"/><text fill="#0F172A" font-family="sans-serif" font-size="13" lengthAdjust="spacing" textLength="69" x="1543" y="60.3638">Archetype:</text><text fill="#0F172A" font-family="sans-serif" font-size="13" lengthAdjust="spacing" textLength="183" x="1543" y="75.4966">- resolved-drift-delete-secret</text><text fill="#0F172A" font-family="sans-serif" font-size="13" lengthAdjust="spacing" textLength="102" x="1543" y="90.6294">Update surface:</text><text fill="#0F172A" font-family="sans-serif" font-size="13" lengthAdjust="spacing" textLength="93" x="1543" y="105.7622">- streamPoolId</text><text fill="#0F172A" font-family="sans-serif" font-size="13" lengthAdjust="spacing" textLength="96" x="1543" y="120.895">- freeform tags</text><text fill="#0F172A" font-family="sans-serif" font-size="13" lengthAdjust="spacing" textLength="88" x="1543" y="136.0278">- defined tags</text><text fill="#0F172A" font-family="sans-serif" font-size="13" lengthAdjust="spacing" textLength="139" x="1543" y="151.1606">Reject before mutate:</text><text fill="#0F172A" font-family="sans-serif" font-size="13" lengthAdjust="spacing" textLength="75" x="1543" y="166.2935">- name drift</text><text fill="#0F172A" font-family="sans-serif" font-size="13" lengthAdjust="spacing" textLength="98" x="1543" y="181.4263">- partitions drift</text><text fill="#0F172A" font-family="sans-serif" font-size="13" lengthAdjust="spacing" textLength="145" x="1543" y="196.5591">- retentionInHours drift</text><text fill="#0F172A" font-family="sans-serif" font-size="13" lengthAdjust="spacing" textLength="105" x="1543" y="211.6919">Boundary notes:</text><text fill="#0F172A" font-family="sans-serif" font-size="13" lengthAdjust="spacing" textLength="372" x="1543" y="226.8247">- Compartment-only drift currently reaches the move path</text><text fill="#0F172A" font-family="sans-serif" font-size="13" lengthAdjust="spacing" textLength="301" x="1559" y="241.9575">only when another mutable diff already triggers</text><text fill="#0F172A" font-family="sans-serif" font-size="13" lengthAdjust="spacing" textLength="99" x="1559" y="257.0903">UpdateStream.</text><text fill="#0F172A" font-family="sans-serif" font-size="13" lengthAdjust="spacing" textLength="166" x="1543" y="272.2231">Controller-local invariants:</text><text fill="#0F172A" font-family="sans-serif" font-size="13" lengthAdjust="spacing" textLength="229" x="1543" y="287.356">- StatusPresentUsesStatusInvariant</text></g><g id="elem_GMN42"><path d="M1990,339.2969 L1990,353.9669 L1790.35,357.9669 L1990,361.9669 L1990,503.7578 A6,6 0 0 0 1996,509.7578 L2376,509.7578 A6,6 0 0 0 2382,503.7578 L2382,343.2969 L2372,333.2969 L1996,333.2969 A6,6 0 0 0 1990,339.2969 " fill="#FFF7ED" style="stroke:#181818;stroke-width:0.5;"/><path d="M2372,333.2969 L2372,340.2969 A3,3 0 0 0 2375,343.2969 L2382,343.2969 L2372,333.2969 " fill="#FFF7ED" style="stroke:#181818;stroke-width:0.5;"/><text fill="#0F172A" font-family="sans-serif" font-size="13" lengthAdjust="spacing" textLength="90" x="1996" y="350.3638">Delete states:</text><text fill="#0F172A" font-family="sans-serif" font-size="13" lengthAdjust="spacing" textLength="102" x="1996" y="365.4966">- DeletePending</text><text fill="#0F172A" font-family="sans-serif" font-size="13" lengthAdjust="spacing" textLength="153" x="1996" y="380.6294">- DeleteCleanupBlocked</text><text fill="#0F172A" font-family="sans-serif" font-size="13" lengthAdjust="spacing" textLength="59" x="1996" y="395.7622">- Deleted</text><text fill="#0F172A" font-family="sans-serif" font-size="13" lengthAdjust="spacing" textLength="103" x="1996" y="410.895">Delete workflow:</text><text fill="#0F172A" font-family="sans-serif" font-size="13" lengthAdjust="spacing" textLength="371" x="1996" y="426.0278">- Resolve the target stream ID from spec, status, or name</text><text fill="#0F172A" font-family="sans-serif" font-size="13" lengthAdjust="spacing" textLength="207" x="2012" y="441.1606">lookup before submitting delete.</text><text fill="#0F172A" font-family="sans-serif" font-size="13" lengthAdjust="spacing" textLength="342" x="1996" y="456.2935">- Confirm deletion with GetStream until the lifecycle is</text><text fill="#0F172A" font-family="sans-serif" font-size="13" lengthAdjust="spacing" textLength="243" x="2012" y="471.4263">DELETED or the resource is not found.</text><text fill="#0F172A" font-family="sans-serif" font-size="13" lengthAdjust="spacing" textLength="301" x="1996" y="486.5591">- Delete the owned Secret only after OCI delete</text><text fill="#0F172A" font-family="sans-serif" font-size="13" lengthAdjust="spacing" textLength="84" x="2012" y="501.6919">confirmation.</text></g><!--link *start to Observe--><g id="link_*start_Observe"><path d="M26.08,352.2969 C26.08,352.2969 80.84,352.2969 80.84,352.2969 " fill="none" id="*start-to-Observe" style="stroke:#181818;stroke-width:1.0;"/><polygon fill="#181818" points="85.84,352.2969,76.84,348.2969,80.84,352.2969,76.84,356.2969,85.84,352.2969" style="stroke:#181818;stroke-width:1.0;"/></g><!--link Observe to ResolveByName--><g id="link_Observe_ResolveByName"><path d="M415.34,352.2969 C415.34,352.2969 469.86,352.2969 469.86,352.2969 " fill="none" id="Observe-to-ResolveByName" style="stroke:#181818;stroke-width:1.0;"/><polygon fill="#181818" points="474.86,352.2969,465.86,348.2969,469.86,352.2969,465.86,356.2969,474.86,352.2969" style="stroke:#181818;stroke-width:1.0;"/><text fill="#000000" font-family="sans-serif" font-size="13" lengthAdjust="spacing" textLength="163" x="443.6" y="365.3638">status/spec OCID missing</text></g><!--link ResolveByName to EvaluateReady--><g id="link_ResolveByName_EvaluateReady"><path d="M597.41,352.2969 C648.53,352.2969 713,352.2969 713,352.2969 C713,352.2969 713,284.4769 713,284.4769 " fill="none" id="ResolveByName-to-EvaluateReady" style="stroke:#181818;stroke-width:1.0;"/><polygon fill="#181818" points="713,279.4769,709,288.4769,713,284.4769,717,288.4769,713,279.4769" style="stroke:#181818;stroke-width:1.0;"/><text fill="#000000" font-family="sans-serif" font-size="13" lengthAdjust="spacing" textLength="123" x="690.11" y="365.3638">OCI state in ACTIVE</text></g><!--link ResolveByName to Retryable--><g id="link_ResolveByName_Retryable"><path d="M597.1,362.2969 C597.1,362.2969 1066.75,362.2969 1066.75,362.2969 " fill="none" id="ResolveByName-to-Retryable" style="stroke:#181818;stroke-width:1.0;"/><polygon fill="#181818" points="1071.75,362.2969,1062.75,358.2969,1066.75,362.2969,1062.75,366.2969,1071.75,362.2969" style="stroke:#181818;stroke-width:1.0;"/><text fill="#000000" font-family="sans-serif" font-size="13" lengthAdjust="spacing" textLength="288" x="832.93" y="375.3638">OCI state in CREATING, UPDATING, DELETING</text></g><!--link ResolveByName to Failed--><g id="link_ResolveByName_Failed"><path d="M536,372.6369 C536,399.6469 536,443.9669 536,443.9669 C536,443.9669 1231.59,443.9669 1231.59,443.9669 " fill="none" id="ResolveByName-to-Failed" style="stroke:#181818;stroke-width:1.0;"/><polygon fill="#181818" points="1236.59,443.9669,1227.59,439.9669,1231.59,443.9669,1227.59,447.9669,1236.59,443.9669" style="stroke:#181818;stroke-width:1.0;"/><text fill="#000000" font-family="sans-serif" font-size="13" lengthAdjust="spacing" textLength="188" x="659.13" y="457.0338">OCI state in FAILED, DELETED</text></g><!--link EvaluateReady to RejectUnsupportedDrift--><g id="link_EvaluateReady_RejectUnsupportedDrift"><path d="M768.11,252.6269 C800.89,252.6269 836,252.6269 836,252.6269 C836,252.6269 836,209.4269 836,209.4269 " fill="none" id="EvaluateReady-to-RejectUnsupportedDrift" style="stroke:#181818;stroke-width:1.0;"/><polygon fill="#181818" points="836,204.4269,832,213.4269,836,209.4269,840,213.4269,836,204.4269" style="stroke:#181818;stroke-width:1.0;"/><text fill="#000000" font-family="sans-serif" font-size="13" lengthAdjust="spacing" textLength="275" x="547.65" y="248.6938">unsupported or immutable drift is detected</text></g><!--link RejectUnsupportedDrift to Ready--><g id="link_RejectUnsupportedDrift_Ready"><path d="M1001.08,174.2969 C1001.08,174.2969 1389.85,174.2969 1389.85,174.2969 " fill="none" id="RejectUnsupportedDrift-to-Ready" style="stroke:#181818;stroke-width:1.0;"/><polygon fill="#181818" points="1394.85,174.2969,1385.85,170.2969,1389.85,174.2969,1385.85,178.2969,1394.85,174.2969" style="stroke:#181818;stroke-width:1.0;"/><text fill="#000000" font-family="sans-serif" font-size="13" lengthAdjust="spacing" textLength="252" x="1196.46" y="170.3638">wait for the spec or live state to change</text></g><!--link EvaluateReady to MoveCompartment--><g id="link_EvaluateReady_MoveCompartment"><path d="M768.23,265.9669 C768.23,265.9669 838.4,265.9669 838.4,265.9669 " fill="none" id="EvaluateReady-to-MoveCompartment" style="stroke:#181818;stroke-width:1.0;"/><polygon fill="#181818" points="843.4,265.9669,834.4,261.9669,838.4,265.9669,834.4,269.9669,843.4,265.9669" style="stroke:#181818;stroke-width:1.0;"/><text fill="#000000" font-family="sans-serif" font-size="13" lengthAdjust="spacing" textLength="158" x="644.32" y="279.0338">continue active reconcile</text></g><!--link MoveCompartment to ApplyUpdate--><g id="link_MoveCompartment_ApplyUpdate"><path d="M985.73,259.2969 C985.73,259.2969 1055.99,259.2969 1055.99,259.2969 " fill="none" id="MoveCompartment-to-ApplyUpdate" style="stroke:#181818;stroke-width:1.0;"/><polygon fill="#181818" points="1060.99,259.2969,1051.99,255.2969,1055.99,259.2969,1051.99,263.2969,1060.99,259.2969" style="stroke:#181818;stroke-width:1.0;"/><text fill="#000000" font-family="sans-serif" font-size="13" lengthAdjust="spacing" textLength="221" x="798.86" y="272.3638">continue after compartment move</text></g><!--link ApplyUpdate to SyncSecret--><g id="link_ApplyUpdate_SyncSecret"><path d="M1158.17,259.2969 C1158.17,259.2969 1212.92,259.2969 1212.92,259.2969 " fill="none" id="ApplyUpdate-to-SyncSecret" style="stroke:#181818;stroke-width:1.0;"/><polygon fill="#181818" points="1217.92,259.2969,1208.92,255.2969,1212.92,259.2969,1208.92,263.2969,1217.92,259.2969" style="stroke:#181818;stroke-width:1.0;"/><text fill="#000000" font-family="sans-serif" font-size="13" lengthAdjust="spacing" textLength="231" x="953.55" y="255.3638">supported mutation path completes</text></g><!--link SyncSecret to SecretBlocked--><g id="link_SyncSecret_SecretBlocked"><path d="M1306.01,265.9669 C1306.01,265.9669 1360.94,265.9669 1360.94,265.9669 " fill="none" id="SyncSecret-to-SecretBlocked" style="stroke:#181818;stroke-width:1.0;"/><polygon fill="#181818" points="1365.94,265.9669,1356.94,261.9669,1360.94,265.9669,1356.94,269.9669,1365.94,265.9669" style="stroke:#181818;stroke-width:1.0;"/><text fill="#000000" font-family="sans-serif" font-size="13" lengthAdjust="spacing" textLength="105" x="1334.48" y="279.0338">Secret write fails</text></g><!--link SecretBlocked to SyncSecret--><g id="link_SecretBlocked_SyncSecret"><path d="M1365.71,252.6269 C1365.71,252.6269 1311.2,252.6269 1311.2,252.6269 " fill="none" id="SecretBlocked-to-SyncSecret" style="stroke:#181818;stroke-width:1.0;"/><polygon fill="#181818" points="1306.2,252.6269,1315.2,256.6269,1311.2,252.6269,1315.2,248.6269,1306.2,252.6269" style="stroke:#181818;stroke-width:1.0;"/><text fill="#000000" font-family="sans-serif" font-size="13" lengthAdjust="spacing" textLength="109" x="1228.46" y="248.6938">retry Secret sync</text></g><!--link SyncSecret to Ready--><g id="link_SyncSecret_Ready"><path d="M1262,239.1969 C1262,216.9869 1262,184.2969 1262,184.2969 C1262,184.2969 1389.8,184.2969 1389.8,184.2969 " fill="none" id="SyncSecret-to-Ready" style="stroke:#181818;stroke-width:1.0;"/><polygon fill="#181818" points="1394.8,184.2969,1385.8,180.2969,1389.8,184.2969,1385.8,188.2969,1394.8,184.2969" style="stroke:#181818;stroke-width:1.0;"/><text fill="#000000" font-family="sans-serif" font-size="13" lengthAdjust="spacing" textLength="176" x="1121.45" y="197.3638">Secret side effects succeed</text></g><!--link Ready to Ready--><g id="link_Ready_Ready"><path d="M1394.71,194.2969 C1387.18,194.2969 1381,194.2969 1381,194.2969 C1381,194.2969 1381,221.7969 1381,221.7969 C1381,221.7969 1463,221.7969 1463,221.7969 C1463,221.7969 1463,174.2969 1463,174.2969 C1463,174.2969 1453.02,174.2969 1453.02,174.2969 " fill="none" id="Ready-to-Ready" style="stroke:#181818;stroke-width:1.0;"/><polygon fill="#181818" points="1448.02,174.2969,1457.02,178.2969,1453.02,174.2969,1457.02,170.2969,1448.02,174.2969" style="stroke:#181818;stroke-width:1.0;"/><text fill="#000000" font-family="sans-serif" font-size="13" lengthAdjust="spacing" textLength="170" x="1254.14" y="212.8638">no supported drift remains</text></g><!--link Retryable to Retryable--><g id="link_Retryable_Retryable"><path d="M1071.88,342.2969 C1068.89,342.2969 1067,342.2969 1067,342.2969 C1067,342.2969 1067,307.9669 1067,307.9669 C1067,307.9669 1153,307.9669 1153,307.9669 C1153,307.9669 1153,339.8969 1153,339.8969 C1153,339.8969 1152.31,339.8969 1152.31,339.8969 " fill="none" id="Retryable-to-Retryable" style="stroke:#181818;stroke-width:1.0;"/><polygon fill="#181818" points="1147.31,339.8969,1156.31,343.8969,1152.31,339.8969,1156.31,335.8969,1147.31,339.8969" style="stroke:#181818;stroke-width:1.0;"/><text fill="#000000" font-family="sans-serif" font-size="13" lengthAdjust="spacing" textLength="159" x="941.71" y="299.0338">OCI remains nonterminal</text></g><!--link Failed to Failed--><g id="link_Failed_Failed"><path d="M1236.93,430.6269 C1231.84,430.6269 1228,430.6269 1228,430.6269 C1228,430.6269 1228,397.2969 1228,397.2969 C1228,397.2969 1297,397.2969 1297,397.2969 C1297,397.2969 1297,437.2969 1297,437.2969 C1297,437.2969 1292.06,437.2969 1292.06,437.2969 " fill="none" id="Failed-to-Failed" style="stroke:#181818;stroke-width:1.0;"/><polygon fill="#181818" points="1287.06,437.2969,1296.06,441.2969,1292.06,437.2969,1296.06,433.2969,1287.06,437.2969" style="stroke:#181818;stroke-width:1.0;"/><text fill="#000000" font-family="sans-serif" font-size="13" lengthAdjust="spacing" textLength="135" x="1269.83" y="395.1138">OCI remains terminal</text></g><!--link Ready to DeletePending--><g id="link_Ready_DeletePending"><path d="M1448.08,194.2969 C1473.18,194.2969 1507,194.2969 1507,194.2969 C1507,194.2969 1507,347.4969 1507,347.4969 C1507,347.4969 1671.93,347.4969 1671.93,347.4969 " fill="none" id="Ready-to-DeletePending" style="stroke:#181818;stroke-width:1.0;"/><polygon fill="#181818" points="1676.93,347.4969,1667.93,343.4969,1671.93,347.4969,1667.93,351.4969,1676.93,347.4969" style="stroke:#181818;stroke-width:1.0;"/><text fill="#000000" font-family="sans-serif" font-size="13" lengthAdjust="spacing" textLength="109" x="1397" y="336.9738">delete requested</text></g><!--link Retryable to DeletePending--><g id="link_Retryable_DeletePending"><path d="M1147.13,355.0969 C1147.13,355.0969 1671.73,355.0969 1671.73,355.0969 " fill="none" id="Retryable-to-DeletePending" style="stroke:#181818;stroke-width:1.0;"/><polygon fill="#181818" points="1676.73,355.0969,1667.73,351.0969,1671.73,355.0969,1667.73,359.0969,1676.73,355.0969" style="stroke:#181818;stroke-width:1.0;"/><text fill="#000000" font-family="sans-serif" font-size="13" lengthAdjust="spacing" textLength="109" x="1299.43" y="368.1638">delete requested</text></g><!--link Failed to DeletePending--><g id="link_Failed_DeletePending"><path d="M1262,416.9169 C1262,394.8269 1262,362.6969 1262,362.6969 C1262,362.6969 1671.63,362.6969 1671.63,362.6969 " fill="none" id="Failed-to-DeletePending" style="stroke:#181818;stroke-width:1.0;"/><polygon fill="#181818" points="1676.63,362.6969,1667.63,358.6969,1671.63,362.6969,1667.63,366.6969,1676.63,362.6969" style="stroke:#181818;stroke-width:1.0;"/><text fill="#000000" font-family="sans-serif" font-size="13" lengthAdjust="spacing" textLength="109" x="1440.71" y="375.7638">delete requested</text></g><!--link DeletePending to DeleteCleanupBlocked--><g id="link_DeletePending_DeleteCleanupBlocked"><path d="M1790.07,345.6269 C1857.16,345.6269 1960,345.6269 1960,345.6269 C1960,345.6269 1960,276.7969 1960,276.7969 C1960,276.7969 2096.2,276.7969 2096.2,276.7969 " fill="none" id="DeletePending-to-DeleteCleanupBlocked" style="stroke:#181818;stroke-width:1.0;"/><polygon fill="#181818" points="2101.2,276.7969,2092.2,272.7969,2096.2,276.7969,2092.2,280.7969,2101.2,276.7969" style="stroke:#181818;stroke-width:1.0;"/><text fill="#000000" font-family="sans-serif" font-size="13" lengthAdjust="spacing" textLength="274" x="1685" y="324.1438">owned Secret cleanup fails after OCI delete</text></g><!--link DeleteCleanupBlocked to Deleted--><g id="link_DeleteCleanupBlocked_Deleted"><path d="M2270.61,271.6269 C2270.61,271.6269 2436.88,271.6269 2436.88,271.6269 " fill="none" id="DeleteCleanupBlocked-to-Deleted" style="stroke:#181818;stroke-width:1.0;"/><polygon fill="#181818" points="2441.88,271.6269,2432.88,267.6269,2436.88,271.6269,2432.88,275.6269,2441.88,271.6269" style="stroke:#181818;stroke-width:1.0;"/><text fill="#000000" font-family="sans-serif" font-size="13" lengthAdjust="spacing" textLength="301" x="2354.75" y="267.6938">retry Secret cleanup until completion is allowed</text></g><!--link Deleted to Deleted--><g id="link_Deleted_Deleted"><path d="M2441.79,284.9669 C2426.66,284.9669 2412,284.9669 2412,284.9669 C2412,284.9669 2412,317.6269 2412,317.6269 C2412,317.6269 2525,317.6269 2525,317.6269 C2525,317.6269 2525,278.2969 2525,278.2969 C2525,278.2969 2512.05,278.2969 2512.05,278.2969 " fill="none" id="Deleted-to-Deleted" style="stroke:#181818;stroke-width:1.0;"/><polygon fill="#181818" points="2507.05,278.2969,2516.05,282.2969,2512.05,278.2969,2516.05,274.2969,2507.05,278.2969" style="stroke:#181818;stroke-width:1.0;"/><text fill="#000000" font-family="sans-serif" font-size="13" lengthAdjust="spacing" textLength="100" x="2469.41" y="335.6938">terminal stutter</text></g><!--SRC=[XLPBZnit3BxhLmZeBLXlapJRRNmeu6Tg88-5TpUNeWUjXcEhraXJIREEKUI_bwHcF6ElY_XYYo8_KkH7qiaa2_8-1L2LN8FsJXiMg0Joaz9Ruq1OA9DCNWQpsIPPc00w6U_4rXGWeQhJGHOGTJ0rY-FEk5e518nRLVYzSHjPAXjXS6CHDnrga3wahHzS1D-uGllW8CWtRmSNKwLt6xwTUUk3_6d9du560QLgR7g0RsbYpSPLu9Aas8SHySF-5L9EVIWWj5ZlRczkVdsFqgLtgPMzNhwvVJiXpHUUVrjEbZFnVO3h_2NOwRkRNrw_lmYnNDukvXSTVXT_llfBZaQ_oozF4S8pYFPRZYMMgP2n1dt5BsdY5RxQ0lesBk5phwHoXVmoMs62Iz07RNjhGbn3zFOPfeVFgYAy3F8p8PBLN5OcHgoNE5KaqyMpiWqcRuqX7D2KdEHi6YSdiuVLryK5gpMaS51F5iujPkl5v67r-SELVBoRjx_cYuyB-dK1PwcGbiKvo7Ao-hYOjuQOpjCOi_-_aQoFBZPrZLI3OXuCadaicrw479Icgfh4SHQiO28cDg4f5E9_C39yJiPUcIHBn4bRuFeGfZMOzHmhDe_UAhU12o5-yiymynNoA35ZnnAxC1dNW5JOPuWHkhuKvxfaFwbhUtYi2_8pj2qJjf0UA5TeB8RQP7r_SFeUT01otAU4ia7DB6kLjen2B8jYeCxM_7DglTvnTTghVJ08NsBDqE94vONBG0Jfx2BUdBleKjofyCmfaTmfOhnQ0rUehtVMTdxmc5pI09KoBegUafS8sceX03PKg8nJLhJaUy73JlUesCSnvwwy0rVGz1jtNHhWdmPY9jKmYX-g3qBueUwfGcyoiw1SK_VLydk7tsrYTRxDLMlPGu_CyE8YH8zTd9UoWskGZhOZ414AEqjPw_V7GCzXkcnYwpG93qBmSCtBnvUvn68Iz9Oto5YCq3FFYsB4bHxba4UH8n4jsMCJIgLPFVAwk_FUhWeybW40UxUIIMqYdd6F64eC7tFpooVIWDmMZE5eCh4xF52B6NfTF8hGC_OSYbRk3z-4xc9AEq1XckXDaO06xJpopXvQjkec11JX6MF5fqOUBTJ2t9AuEQHazVqM74vzZzT17eUOAKjCSs0-9apT1a9acvoDlF2lnGnP7hor44POKiovSSyg6EKIntRFw-4EqukXF4Q8MR3gb0HoZ5zoNgCJ2hPrpgEGSK-lHnVvUHHtF95x7tObCeSGsWt1IKagR6Wov3ynkCJAuAkpBOdZc2h6AR3Uxv2PRKbZyrIPbAXLCc-kkIYkDA7A4cBjtk0O_02f_QUKMKtEZtiMYStexIwIxJ8WQZP1qpLb2fS44k3w-3ZMEUb3BkgBzYDadOFYkNpTf_u_]--></g></svg>