<?xml version="1.0" encoding="UTF-8" standalone="no"?><svg xmlns="http://www.w3.org/2000/svg" xmlns:xlink="http://www.w3.org/1999/xlink" contentStyleType="text/css" height="1526px" preserveAspectRatio="none" style="width:1761px;height:1526px;background:#FFFFFF;" version="1.1" viewBox="0 0 1761 1526" width="1761px" zoomAndPan="magnify"><defs/><g><text fill="#000000" font-family="sans-serif" font-size="14" font-weight="bold" lengthAdjust="spacing" textLength="282" x="738" y="32.9951">OCI NAT Gateway Reconcile Activity</text><ellipse cx="662" cy="57.2969" fill="#0F766E" rx="10" ry="10" style="stroke:#222222;stroke-width:1.0;"/><rect fill="none" height="362.1406" style="stroke:#000000;stroke-width:1.5;" width="686" x="339.5" y="77.2969"/><path d="M472.5,77.2969 L472.5,86.5938 L462.5,96.5938 L339.5,96.5938 " fill="none" style="stroke:#000000;stroke-width:1.5;"/><text fill="#000000" font-family="sans-serif" font-size="14" lengthAdjust="spacing" textLength="123" x="342.5" y="91.292">Observe and Bind</text><rect fill="#F8FAFC" height="33.9688" rx="12.5" ry="12.5" style="stroke:#475569;stroke-width:0.5;" width="304" x="510" y="113.5938"/><text fill="#0F172A" font-family="sans-serif" font-size="12" lengthAdjust="spacing" textLength="284" x="520" y="134.7324">Read CR spec, status OCID, and delete intent</text><rect fill="#F8FAFC" height="33.9688" rx="12.5" ry="12.5" style="stroke:#475569;stroke-width:0.5;" width="460" x="432" y="167.5625"/><text fill="#0F172A" font-family="sans-serif" font-size="12" lengthAdjust="spacing" textLength="440" x="442" y="188.7012">Keep status-bound OCID authoritative for later update or delete paths</text><polygon fill="#E2E8F0" points="562,221.5313,762,221.5313,774,233.5313,762,245.5313,562,245.5313,550,233.5313,562,221.5313" style="stroke:#475569;stroke-width:0.5;"/><text fill="#0F172A" font-family="sans-serif" font-size="11" lengthAdjust="spacing" textLength="200" x="562" y="237.3394">"Tracked or explicit OCID present?"</text><text fill="#000000" font-family="sans-serif" font-size="11" lengthAdjust="spacing" textLength="20" x="530" y="230.937">yes</text><text fill="#000000" font-family="sans-serif" font-size="11" lengthAdjust="spacing" textLength="14" x="774" y="230.937">no</text><rect fill="#F8FAFC" height="33.9688" rx="12.5" ry="12.5" style="stroke:#475569;stroke-width:0.5;" width="272" x="359.5" y="255.5313"/><text fill="#0F172A" font-family="sans-serif" font-size="12" lengthAdjust="spacing" textLength="252" x="369.5" y="276.6699">Get the OCI resource by known identifier</text><rect fill="#F8FAFC" height="33.9688" rx="12.5" ry="12.5" style="stroke:#475569;stroke-width:0.5;" width="328" x="664.5" y="255.5313"/><text fill="#0F172A" font-family="sans-serif" font-size="12" lengthAdjust="spacing" textLength="308" x="674.5" y="276.6699">Resolve an existing OCI resource by display name</text><rect fill="#F8FAFC" height="33.9688" rx="12.5" ry="12.5" style="stroke:#475569;stroke-width:0.5;" width="345" x="656" y="309.5"/><text fill="#0F172A" font-family="sans-serif" font-size="12" lengthAdjust="spacing" textLength="325" x="666" y="330.6387">Continue list pagination until a match or exhaustion</text><rect fill="#F8FAFC" height="33.9688" rx="12.5" ry="12.5" style="stroke:#475569;stroke-width:0.5;" width="354" x="651.5" y="363.4688"/><text fill="#0F172A" font-family="sans-serif" font-size="12" lengthAdjust="spacing" textLength="334" x="661.5" y="384.6074">Persist the resolved or created OCID back into status</text><polygon fill="#E2E8F0" points="662,403.4375,674,415.4375,662,427.4375,650,415.4375,662,403.4375" style="stroke:#475569;stroke-width:0.5;"/><path d="M1375,836.3047 L1375,1194.3594 L1749,1194.3594 L1749,846.3047 L1739,836.3047 L1375,836.3047 " fill="#FEFFDD" style="stroke:#181818;stroke-width:0.5;"/><path d="M1739,836.3047 L1739,846.3047 L1749,846.3047 L1739,836.3047 " fill="#FEFFDD" style="stroke:#181818;stroke-width:0.5;"/><text fill="#000000" font-family="sans-serif" font-size="13" lengthAdjust="spacing" textLength="69" x="1381" y="853.3716">Archetype:</text><text fill="#000000" font-family="sans-serif" font-size="13" lengthAdjust="spacing" textLength="207" x="1381" y="868.5044">- resolved-drift-delete-paginated</text><text fill="#000000" font-family="sans-serif" font-size="13" lengthAdjust="spacing" textLength="134" x="1381" y="883.6372">Retryable OCI states:</text><text fill="#000000" font-family="sans-serif" font-size="13" lengthAdjust="spacing" textLength="102" x="1381" y="898.77">- PROVISIONING</text><text fill="#000000" font-family="sans-serif" font-size="13" lengthAdjust="spacing" textLength="76" x="1381" y="913.9028">- UPDATING</text><text fill="#000000" font-family="sans-serif" font-size="13" lengthAdjust="spacing" textLength="113" x="1381" y="929.0356">Active OCI states:</text><text fill="#000000" font-family="sans-serif" font-size="13" lengthAdjust="spacing" textLength="79" x="1381" y="944.1685">- AVAILABLE</text><text fill="#000000" font-family="sans-serif" font-size="13" lengthAdjust="spacing" textLength="111" x="1381" y="959.3013">Failed OCI states:</text><text fill="#000000" font-family="sans-serif" font-size="13" lengthAdjust="spacing" textLength="53" x="1381" y="974.4341">- FAILED</text><text fill="#000000" font-family="sans-serif" font-size="13" lengthAdjust="spacing" textLength="67" x="1381" y="989.5669">- DELETED</text><text fill="#000000" font-family="sans-serif" font-size="13" lengthAdjust="spacing" textLength="102" x="1381" y="1004.6997">Update surface:</text><text fill="#000000" font-family="sans-serif" font-size="13" lengthAdjust="spacing" textLength="94" x="1381" y="1019.8325">- display name</text><text fill="#000000" font-family="sans-serif" font-size="13" lengthAdjust="spacing" textLength="96" x="1381" y="1034.9653">- freeform tags</text><text fill="#000000" font-family="sans-serif" font-size="13" lengthAdjust="spacing" textLength="88" x="1381" y="1050.0981">- defined tags</text><text fill="#000000" font-family="sans-serif" font-size="13" lengthAdjust="spacing" textLength="80" x="1381" y="1065.231">- blockTraffic</text><text fill="#000000" font-family="sans-serif" font-size="13" lengthAdjust="spacing" textLength="139" x="1381" y="1080.3638">Reject before mutate:</text><text fill="#000000" font-family="sans-serif" font-size="13" lengthAdjust="spacing" textLength="71" x="1381" y="1095.4966">- vcnId drift</text><text fill="#000000" font-family="sans-serif" font-size="13" lengthAdjust="spacing" textLength="105" x="1381" y="1110.6294">Boundary notes:</text><text fill="#000000" font-family="sans-serif" font-size="13" lengthAdjust="spacing" textLength="353" x="1381" y="1125.7622">- The current formal notes remain lifecycle-centric even</text><text fill="#000000" font-family="sans-serif" font-size="13" lengthAdjust="spacing" textLength="337" x="1397" y="1140.895">though blockTraffic now participates in the supported</text><text fill="#000000" font-family="sans-serif" font-size="13" lengthAdjust="spacing" textLength="100" x="1397" y="1156.0278">update surface.</text><text fill="#000000" font-family="sans-serif" font-size="13" lengthAdjust="spacing" textLength="166" x="1381" y="1171.1606">Controller-local invariants:</text><text fill="#000000" font-family="sans-serif" font-size="13" lengthAdjust="spacing" textLength="229" x="1381" y="1186.2935">- StatusPresentUsesStatusInvariant</text><polygon fill="#E2E8F0" points="605,459.4375,719,459.4375,731,471.4375,719,483.4375,605,483.4375,593,471.4375,605,459.4375" style="stroke:#475569;stroke-width:0.5;"/><text fill="#0F172A" font-family="sans-serif" font-size="11" lengthAdjust="spacing" textLength="114" x="605" y="475.2456">"Delete requested?"</text><text fill="#000000" font-family="sans-serif" font-size="11" lengthAdjust="spacing" textLength="20" x="573" y="468.8433">yes</text><text fill="#000000" font-family="sans-serif" font-size="11" lengthAdjust="spacing" textLength="14" x="731" y="468.8433">no</text><rect fill="none" height="220.2031" style="stroke:#000000;stroke-width:1.5;" width="615" x="11" y="493.4375"/><path d="M67,493.4375 L67,502.7344 L57,512.7344 L11,512.7344 " fill="none" style="stroke:#000000;stroke-width:1.5;"/><text fill="#000000" font-family="sans-serif" font-size="14" lengthAdjust="spacing" textLength="46" x="14" y="507.4326">Delete</text><rect fill="#F8FAFC" height="33.9688" rx="12.5" ry="12.5" style="stroke:#475569;stroke-width:0.5;" width="261" x="188" y="529.7344"/><text fill="#0F172A" font-family="sans-serif" font-size="12" lengthAdjust="spacing" textLength="241" x="198" y="550.873">Submit OCI delete for OCI NAT Gateway</text><rect fill="#F8FAFC" height="33.9688" rx="12.5" ry="12.5" style="stroke:#475569;stroke-width:0.5;" width="595" x="21" y="598.7031"/><text fill="#0F172A" font-family="sans-serif" font-size="12" lengthAdjust="spacing" textLength="575" x="31" y="619.8418">Confirm deletion with follow-up GetNatGateway calls until the resource is gone or not found.</text><rect fill="#F8FAFC" height="33.9688" rx="12.5" ry="12.5" style="stroke:#475569;stroke-width:0.5;" width="338" x="149.5" y="667.6719"/><text fill="#0F172A" font-family="sans-serif" font-size="12" lengthAdjust="spacing" textLength="318" x="159.5" y="688.8105">Remove the finalizer after OCI deletion is confirmed</text><ellipse cx="318.5" cy="759.6406" fill="none" rx="11" ry="11" style="stroke:#222222;stroke-width:1.0;"/><ellipse cx="318.5" cy="759.6406" fill="#222222" rx="6" ry="6" style="stroke:#111111;stroke-width:1.0;"/><rect fill="none" height="416.3594" style="stroke:#000000;stroke-width:1.5;" width="376" x="823.5" y="493.4375"/><path d="M984.5,493.4375 L984.5,502.7344 L974.5,512.7344 L823.5,512.7344 " fill="none" style="stroke:#000000;stroke-width:1.5;"/><text fill="#000000" font-family="sans-serif" font-size="14" lengthAdjust="spacing" textLength="151" x="826.5" y="507.4326">Lifecycle Classification</text><rect fill="#F8FAFC" height="33.9688" rx="12.5" ry="12.5" style="stroke:#475569;stroke-width:0.5;" width="268" x="871.5" y="578.1367"/><text fill="#0F172A" font-family="sans-serif" font-size="12" lengthAdjust="spacing" textLength="248" x="881.5" y="599.2754">Request requeue and keep the finalizer</text><ellipse cx="1005.5" cy="658.1055" fill="none" rx="11" ry="11" style="stroke:#222222;stroke-width:1.0;"/><ellipse cx="1005.5" cy="658.1055" fill="#222222" rx="6" ry="6" style="stroke:#111111;stroke-width:1.0;"/><polygon fill="#E2E8F0" points="925.5,529.7344,1085.5,529.7344,1097.5,541.7344,1085.5,553.7344,925.5,553.7344,913.5,541.7344,925.5,529.7344" style="stroke:#475569;stroke-width:0.5;"/><text fill="#000000" font-family="sans-serif" font-size="11" lengthAdjust="spacing" textLength="20" x="1009.5" y="563.9448">yes</text><text fill="#0F172A" font-family="sans-serif" font-size="11" lengthAdjust="spacing" textLength="160" x="925.5" y="545.5425">"OCI state in retryable set?"</text><rect fill="#F8FAFC" height="33.9688" rx="12.5" ry="12.5" style="stroke:#475569;stroke-width:0.5;" width="324" x="843.5" y="774.9102"/><text fill="#0F172A" font-family="sans-serif" font-size="12" lengthAdjust="spacing" textLength="304" x="853.5" y="796.0488">Return an unsuccessful terminal reconcile result</text><ellipse cx="1005.5" cy="848.3945" fill="none" rx="11" ry="11" style="stroke:#222222;stroke-width:1.0;"/><ellipse cx="1005.5" cy="848.3945" fill="#222222" rx="6" ry="6" style="stroke:#111111;stroke-width:1.0;"/><polygon fill="#E2E8F0" points="935.5,726.5078,1075.5,726.5078,1087.5,738.5078,1075.5,750.5078,935.5,750.5078,923.5,738.5078,935.5,726.5078" style="stroke:#475569;stroke-width:0.5;"/><text fill="#000000" font-family="sans-serif" font-size="11" lengthAdjust="spacing" textLength="20" x="1009.5" y="760.7183">yes</text><text fill="#0F172A" font-family="sans-serif" font-size="11" lengthAdjust="spacing" textLength="140" x="935.5" y="742.3159">"OCI state in failed set?"</text><rect fill="none" height="563.4375" style="stroke:#000000;stroke-width:1.5;" width="719" x="646" y="944.7969"/><path d="M825,944.7969 L825,954.0938 L815,964.0938 L646,964.0938 " fill="none" style="stroke:#000000;stroke-width:1.5;"/><text fill="#000000" font-family="sans-serif" font-size="14" lengthAdjust="spacing" textLength="169" x="649" y="958.792">Ready and Drift Handling</text><rect fill="#F8FAFC" height="33.9688" rx="12.5" ry="12.5" style="stroke:#475569;stroke-width:0.5;" width="364" x="823.5" y="981.0938"/><text fill="#0F172A" font-family="sans-serif" font-size="12" lengthAdjust="spacing" textLength="344" x="833.5" y="1002.2324">Compare live OCI state with the supported drift surface</text><rect fill="#F8FAFC" height="33.9688" rx="12.5" ry="12.5" style="stroke:#475569;stroke-width:0.5;" width="290" x="860.5" y="1098.4648"/><text fill="#0F172A" font-family="sans-serif" font-size="12" lengthAdjust="spacing" textLength="270" x="870.5" y="1119.6035">Reject the change before any OCI mutation</text><ellipse cx="1005.5" cy="1178.4336" fill="none" rx="11" ry="11" style="stroke:#222222;stroke-width:1.0;"/><ellipse cx="1005.5" cy="1178.4336" fill="#222222" rx="6" ry="6" style="stroke:#111111;stroke-width:1.0;"/><polygon fill="#E2E8F0" points="881,1050.0625,1130,1050.0625,1142,1062.0625,1130,1074.0625,881,1074.0625,869,1062.0625,881,1050.0625" style="stroke:#475569;stroke-width:0.5;"/><text fill="#000000" font-family="sans-serif" font-size="11" lengthAdjust="spacing" textLength="20" x="1009.5" y="1084.2729">yes</text><text fill="#0F172A" font-family="sans-serif" font-size="11" lengthAdjust="spacing" textLength="249" x="881" y="1065.8706">"Unsupported or immutable drift detected?"</text><rect fill="#F8FAFC" height="33.9688" rx="12.5" ry="12.5" style="stroke:#475569;stroke-width:0.5;" width="453" x="779" y="1236.3594"/><text fill="#0F172A" font-family="sans-serif" font-size="12" lengthAdjust="spacing" textLength="433" x="789" y="1257.498">Reuse the tracked OCID from status or spec before any fresh lookup.</text><rect fill="#F8FAFC" height="33.9688" rx="12.5" ry="12.5" style="stroke:#475569;stroke-width:0.5;" width="699" x="656" y="1290.3281"/><text fill="#0F172A" font-family="sans-serif" font-size="12" lengthAdjust="spacing" textLength="679" x="666" y="1311.4668">Move the NAT Gateway compartment before calling the mutable update path when compartment drift exists.</text><polygon fill="#E2E8F0" points="928,1344.2969,1083,1344.2969,1095,1356.2969,1083,1368.2969,928,1368.2969,916,1356.2969,928,1344.2969" style="stroke:#475569;stroke-width:0.5;"/><text fill="#0F172A" font-family="sans-serif" font-size="11" lengthAdjust="spacing" textLength="155" x="928" y="1360.105">"Supported drift detected?"</text><text fill="#000000" font-family="sans-serif" font-size="11" lengthAdjust="spacing" textLength="20" x="896" y="1353.7026">yes</text><text fill="#000000" font-family="sans-serif" font-size="11" lengthAdjust="spacing" textLength="14" x="1095" y="1353.7026">no</text><rect fill="#F8FAFC" height="33.9688" rx="12.5" ry="12.5" style="stroke:#475569;stroke-width:0.5;" width="329" x="697.75" y="1378.2969"/><text fill="#0F172A" font-family="sans-serif" font-size="12" lengthAdjust="spacing" textLength="309" x="707.75" y="1399.4355">Apply only the supported in-place update surface</text><rect fill="#F8FAFC" height="33.9688" rx="12.5" ry="12.5" style="stroke:#475569;stroke-width:0.5;" width="204" x="1046.75" y="1378.2969"/><text fill="#0F172A" font-family="sans-serif" font-size="12" lengthAdjust="spacing" textLength="184" x="1056.75" y="1399.4355">Skip the no-op mutation path</text><polygon fill="#E2E8F0" points="1005.5,1418.2656,1017.5,1430.2656,1005.5,1442.2656,993.5,1430.2656,1005.5,1418.2656" style="stroke:#475569;stroke-width:0.5;"/><rect fill="#F8FAFC" height="33.9688" rx="12.5" ry="12.5" style="stroke:#475569;stroke-width:0.5;" width="287" x="862" y="1462.2656"/><text fill="#0F172A" font-family="sans-serif" font-size="12" lengthAdjust="spacing" textLength="267" x="872" y="1483.4043">Return success for the usable active state</text><line style="stroke:#334155;stroke-width:1.0;" x1="662" x2="662" y1="147.5625" y2="167.5625"/><polygon fill="#334155" points="658,157.5625,662,167.5625,666,157.5625,662,161.5625" style="stroke:#334155;stroke-width:1.0;"/><line style="stroke:#334155;stroke-width:1.0;" x1="828.5" x2="828.5" y1="289.5" y2="309.5"/><polygon fill="#334155" points="824.5,299.5,828.5,309.5,832.5,299.5,828.5,303.5" style="stroke:#334155;stroke-width:1.0;"/><line style="stroke:#334155;stroke-width:1.0;" x1="828.5" x2="828.5" y1="343.4688" y2="363.4688"/><polygon fill="#334155" points="824.5,353.4688,828.5,363.4688,832.5,353.4688,828.5,357.4688" style="stroke:#334155;stroke-width:1.0;"/><line style="stroke:#334155;stroke-width:1.0;" x1="550" x2="495.5" y1="233.5313" y2="233.5313"/><line style="stroke:#334155;stroke-width:1.0;" x1="495.5" x2="495.5" y1="233.5313" y2="255.5313"/><polygon fill="#334155" points="491.5,245.5313,495.5,255.5313,499.5,245.5313,495.5,249.5313" style="stroke:#334155;stroke-width:1.0;"/><line style="stroke:#334155;stroke-width:1.0;" x1="774" x2="828.5" y1="233.5313" y2="233.5313"/><line style="stroke:#334155;stroke-width:1.0;" x1="828.5" x2="828.5" y1="233.5313" y2="255.5313"/><polygon fill="#334155" points="824.5,245.5313,828.5,255.5313,832.5,245.5313,828.5,249.5313" style="stroke:#334155;stroke-width:1.0;"/><line style="stroke:#334155;stroke-width:1.0;" x1="495.5" x2="495.5" y1="289.5" y2="415.4375"/><line style="stroke:#334155;stroke-width:1.0;" x1="495.5" x2="650" y1="415.4375" y2="415.4375"/><polygon fill="#334155" points="640,411.4375,650,415.4375,640,419.4375,644,415.4375" style="stroke:#334155;stroke-width:1.0;"/><line style="stroke:#334155;stroke-width:1.0;" x1="828.5" x2="828.5" y1="397.4375" y2="415.4375"/><line style="stroke:#334155;stroke-width:1.0;" x1="828.5" x2="674" y1="415.4375" y2="415.4375"/><polygon fill="#334155" points="684,411.4375,674,415.4375,684,419.4375,680,415.4375" style="stroke:#334155;stroke-width:1.0;"/><line style="stroke:#334155;stroke-width:1.0;" x1="662" x2="662" y1="201.5313" y2="221.5313"/><polygon fill="#334155" points="658,211.5313,662,221.5313,666,211.5313,662,215.5313" style="stroke:#334155;stroke-width:1.0;"/><line style="stroke:#334155;stroke-width:1.0;" x1="662" x2="662" y1="67.2969" y2="113.5938"/><polygon fill="#334155" points="658,103.5938,662,113.5938,666,103.5938,662,107.5938" style="stroke:#334155;stroke-width:1.0;"/><line style="stroke:#334155;stroke-width:1.0;" x1="318.5" x2="318.5" y1="563.7031" y2="598.7031"/><polygon fill="#334155" points="314.5,588.7031,318.5,598.7031,322.5,588.7031,318.5,592.7031" style="stroke:#334155;stroke-width:1.0;"/><line style="stroke:#334155;stroke-width:1.0;" x1="318.5" x2="318.5" y1="632.6719" y2="667.6719"/><polygon fill="#334155" points="314.5,657.6719,318.5,667.6719,322.5,657.6719,318.5,661.6719" style="stroke:#334155;stroke-width:1.0;"/><line style="stroke:#334155;stroke-width:1.0;" x1="318.5" x2="318.5" y1="701.6406" y2="748.6406"/><polygon fill="#334155" points="314.5,738.6406,318.5,748.6406,322.5,738.6406,318.5,742.6406" style="stroke:#334155;stroke-width:1.0;"/><line style="stroke:#334155;stroke-width:1.0;" x1="1005.5" x2="1005.5" y1="612.1055" y2="647.1055"/><polygon fill="#334155" points="1001.5,637.1055,1005.5,647.1055,1009.5,637.1055,1005.5,641.1055" style="stroke:#334155;stroke-width:1.0;"/><line style="stroke:#334155;stroke-width:1.0;" x1="1005.5" x2="1005.5" y1="553.7344" y2="578.1367"/><polygon fill="#334155" points="1001.5,568.1367,1005.5,578.1367,1009.5,568.1367,1005.5,572.1367" style="stroke:#334155;stroke-width:1.0;"/><line style="stroke:#334155;stroke-width:1.0;" x1="1097.5" x2="1149.5" y1="541.7344" y2="541.7344"/><polygon fill="#334155" points="1145.5,610.6211,1149.5,620.6211,1153.5,610.6211,1149.5,614.6211" style="stroke:#334155;stroke-width:1.0;"/><line style="stroke:#334155;stroke-width:1.0;" x1="1149.5" x2="1149.5" y1="541.7344" y2="699.5078"/><line style="stroke:#334155;stroke-width:1.0;" x1="1149.5" x2="1005.5" y1="699.5078" y2="699.5078"/><line style="stroke:#334155;stroke-width:1.0;" x1="1005.5" x2="1005.5" y1="699.5078" y2="726.5078"/><polygon fill="#334155" points="1001.5,716.5078,1005.5,726.5078,1009.5,716.5078,1005.5,720.5078" style="stroke:#334155;stroke-width:1.0;"/><line style="stroke:#334155;stroke-width:1.0;" x1="1005.5" x2="1005.5" y1="808.8789" y2="837.3945"/><polygon fill="#334155" points="1001.5,827.3945,1005.5,837.3945,1009.5,827.3945,1005.5,831.3945" style="stroke:#334155;stroke-width:1.0;"/><line style="stroke:#334155;stroke-width:1.0;" x1="1005.5" x2="1005.5" y1="750.5078" y2="774.9102"/><polygon fill="#334155" points="1001.5,764.9102,1005.5,774.9102,1009.5,764.9102,1005.5,768.9102" style="stroke:#334155;stroke-width:1.0;"/><line style="stroke:#334155;stroke-width:1.0;" x1="1087.5" x2="1177.5" y1="738.5078" y2="738.5078"/><polygon fill="#334155" points="1173.5,807.3945,1177.5,817.3945,1181.5,807.3945,1177.5,811.3945" style="stroke:#334155;stroke-width:1.0;"/><line style="stroke:#334155;stroke-width:1.0;" x1="1177.5" x2="1177.5" y1="738.5078" y2="889.7969"/><line style="stroke:#334155;stroke-width:1.0;" x1="1177.5" x2="1005.5" y1="889.7969" y2="889.7969"/><line style="stroke:#334155;stroke-width:1.0;" x1="1005.5" x2="1005.5" y1="889.7969" y2="981.0938"/><polygon fill="#334155" points="1001.5,971.0938,1005.5,981.0938,1009.5,971.0938,1005.5,975.0938" style="stroke:#334155;stroke-width:1.0;"/><line style="stroke:#334155;stroke-width:1.0;" x1="1005.5" x2="1005.5" y1="1132.4336" y2="1167.4336"/><polygon fill="#334155" points="1001.5,1157.4336,1005.5,1167.4336,1009.5,1157.4336,1005.5,1161.4336" style="stroke:#334155;stroke-width:1.0;"/><line style="stroke:#334155;stroke-width:1.0;" x1="1005.5" x2="1005.5" y1="1074.0625" y2="1098.4648"/><polygon fill="#334155" points="1001.5,1088.4648,1005.5,1098.4648,1009.5,1088.4648,1005.5,1092.4648" style="stroke:#334155;stroke-width:1.0;"/><line style="stroke:#334155;stroke-width:1.0;" x1="1142" x2="1160.5" y1="1062.0625" y2="1062.0625"/><polygon fill="#334155" points="1156.5,1130.9492,1160.5,1140.9492,1164.5,1130.9492,1160.5,1134.9492" style="stroke:#334155;stroke-width:1.0;"/><line style="stroke:#334155;stroke-width:1.0;" x1="1160.5" x2="1160.5" y1="1062.0625" y2="1216.3594"/><line style="stroke:#334155;stroke-width:1.0;" x1="1160.5" x2="1005.5" y1="1216.3594" y2="1216.3594"/><line style="stroke:#334155;stroke-width:1.0;" x1="1005.5" x2="1005.5" y1="1216.3594" y2="1236.3594"/><polygon fill="#334155" points="1001.5,1226.3594,1005.5,1236.3594,1009.5,1226.3594,1005.5,1230.3594" style="stroke:#334155;stroke-width:1.0;"/><line style="stroke:#334155;stroke-width:1.0;" x1="1005.5" x2="1005.5" y1="1015.0625" y2="1050.0625"/><polygon fill="#334155" points="1001.5,1040.0625,1005.5,1050.0625,1009.5,1040.0625,1005.5,1044.0625" style="stroke:#334155;stroke-width:1.0;"/><line style="stroke:#334155;stroke-width:1.0;" x1="1005.5" x2="1005.5" y1="1270.3281" y2="1290.3281"/><polygon fill="#334155" points="1001.5,1280.3281,1005.5,1290.3281,1009.5,1280.3281,1005.5,1284.3281" style="stroke:#334155;stroke-width:1.0;"/><line style="stroke:#334155;stroke-width:1.0;" x1="916" x2="862.25" y1="1356.2969" y2="1356.2969"/><line style="stroke:#334155;stroke-width:1.0;" x1="862.25" x2="862.25" y1="1356.2969" y2="1378.2969"/><polygon fill="#334155" points="858.25,1368.2969,862.25,1378.2969,866.25,1368.2969,862.25,1372.2969" style="stroke:#334155;stroke-width:1.0;"/><line style="stroke:#334155;stroke-width:1.0;" x1="1095" x2="1148.75" y1="1356.2969" y2="1356.2969"/><line style="stroke:#334155;stroke-width:1.0;" x1="1148.75" x2="1148.75" y1="1356.2969" y2="1378.2969"/><polygon fill="#334155" points="1144.75,1368.2969,1148.75,1378.2969,1152.75,1368.2969,1148.75,1372.2969" style="stroke:#334155;stroke-width:1.0;"/><line style="stroke:#334155;stroke-width:1.0;" x1="862.25" x2="862.25" y1="1412.2656" y2="1430.2656"/><line style="stroke:#334155;stroke-width:1.0;" x1="862.25" x2="993.5" y1="1430.2656" y2="1430.2656"/><polygon fill="#334155" points="983.5,1426.2656,993.5,1430.2656,983.5,1434.2656,987.5,1430.2656" style="stroke:#334155;stroke-width:1.0;"/><line style="stroke:#334155;stroke-width:1.0;" x1="1148.75" x2="1148.75" y1="1412.2656" y2="1430.2656"/><line style="stroke:#334155;stroke-width:1.0;" x1="1148.75" x2="1017.5" y1="1430.2656" y2="1430.2656"/><polygon fill="#334155" points="1027.5,1426.2656,1017.5,1430.2656,1027.5,1434.2656,1023.5,1430.2656" style="stroke:#334155;stroke-width:1.0;"/><line style="stroke:#334155;stroke-width:1.0;" x1="1005.5" x2="1005.5" y1="1324.2969" y2="1344.2969"/><polygon fill="#334155" points="1001.5,1334.2969,1005.5,1344.2969,1009.5,1334.2969,1005.5,1338.2969" style="stroke:#334155;stroke-width:1.0;"/><line style="stroke:#334155;stroke-width:1.0;" x1="1005.5" x2="1005.5" y1="1442.2656" y2="1462.2656"/><polygon fill="#334155" points="1001.5,1452.2656,1005.5,1462.2656,1009.5,1452.2656,1005.5,1456.2656" style="stroke:#334155;stroke-width:1.0;"/><line style="stroke:#334155;stroke-width:1.0;" x1="593" x2="318.5" y1="471.4375" y2="471.4375"/><line style="stroke:#334155;stroke-width:1.0;" x1="318.5" x2="318.5" y1="471.4375" y2="529.7344"/><polygon fill="#334155" points="314.5,519.7344,318.5,529.7344,322.5,519.7344,318.5,523.7344" style="stroke:#334155;stroke-width:1.0;"/><line style="stroke:#334155;stroke-width:1.0;" x1="731" x2="1005.5" y1="471.4375" y2="471.4375"/><line style="stroke:#334155;stroke-width:1.0;" x1="1005.5" x2="1005.5" y1="471.4375" y2="529.7344"/><polygon fill="#334155" points="1001.5,519.7344,1005.5,529.7344,1009.5,519.7344,1005.5,523.7344" style="stroke:#334155;stroke-width:1.0;"/><line style="stroke:#334155;stroke-width:1.0;" x1="1005.5" x2="1005.5" y1="1496.2344" y2="1514.2344"/><line style="stroke:#334155;stroke-width:1.0;" x1="1005.5" x2="662" y1="1514.2344" y2="1514.2344"/><line style="stroke:#334155;stroke-width:1.0;" x1="662" x2="662" y1="427.4375" y2="459.4375"/><polygon fill="#334155" points="658,449.4375,662,459.4375,666,449.4375,662,453.4375" style="stroke:#334155;stroke-width:1.0;"/><!--SRC=[VLNRSjis47tdLs3S5sScyiH9RAVnGuVMnTNKjJsod7S8N8geG835HGhRoRzt5o1bobQJcIGKiDUpPm-yz0hOmtZExlCbk-KUThnb2n162uatkV1oAtsRkOtK3RUyPgxYXTb9lMObLmu6DpTSRDRM15sCZJAM_JABVmOMkRLcrrr- -lJv_E9YS5b0oOFoI_ZkSoNNkWRjcOBI3snuLm_xDsD7ydsPvRCntHXRWErEFrzTN5p-YgSpetrtzc5sVlKnnxE9vBNHnPjGqu_JBxCF0uEZ4PyyjoyXhoulftWutGUvcfrFpYVPZyoHNPPX3rvwQJGxULWvi5jWN1ViHkhY97RqTG6yOEC5Sms8zmpTV70qdidxQ5c00WzCQe_ON9F37m1DPpTQKVtHcl7WAsCbdajCKc8n2cThMMWA_9_XxovKmttbA98isUd9qY8EKD0zV6-K5DAdU8q5Xob_Etd7V0MQdRRWtg4NLd0BdiuYYT3A12k0hLgsqMQdcIpGJPOIB2K190mxrQPpNQ2vYY1WEkayaUfrc4AwHY4dDQ_XEhcDSOvI1s0AVR23jTGyeXhmN37EQkv5bPgeU71qrxa-WdNaH0NRb3rsAomWBXruAmI1C3OTiB5oNSWI9vb5d2O9F0j_1t3ezmQNmQIJRPelLl0KLdL2jHy1JUVL1huqMafR9qCAjfE-Gdkbp6uK6eRGttFVRwtWIhaEWxw_YA9qR6rqdBes7lsH9cVN_GXgWnCW-n9XLF8VP0alYIlx4YapnX2f6YZ8zGV-TTuqsN2aWwxlP0cY5IWXOyMTGmQ8EACUXmWZPI28YT5OhhSjNw67WsD4YyL6l1Fk8ItFXXRWeFphpZoMHnzfTiUpbXnbhlXPIX-i9eO6xO8Gu5mP45-mDUN3KdgfHBXHlVutELBd023Qz3PsCB6ozEnt_5Iu07kYZ4sDvaJoRLgkL7Ea0FNhGjCOIwGjOW0NRCb5joEnqMVzOeEpbtKTV0GuEHH8Fd6Cl5tZV-5jp2GghjUuZ81C9T3RM0u5Uzciet1ZaE0IkNodB771IclgNjomC1AxOVGIeQoOCcOJcfwdV_Oi7RvJ8aBauqFH-TCIa8oGQTzk9teaTMn7ZGxz4XPHVjpP0BodL_3-7AsyQLJBZCP_3cSZzGZbI-oBE9ZIeHoIE6na8hCs8zFi8OwbNxy5DrApOsMK4N8DBZOTNqf8f4aBcropKXaUbHQr05ahrvNFSYigy6q3NxFHNXT7iV5HKgbH9xDGP8lzekvPwSZlSV7mRVuqVxYVtz_Yp-V7IRwappnLScYSVyldT_dDtJIRfGqyl9xXxNI27vFftNI9Nyy7y979y670dqWQOa3DF5yxkWOK18pR_Lmf8pRul9KeH5d7xOuo4UKOSYlql9jtTaCgoMqROOerBMaLWhN46ig4sn_l4B2QevIeNl960asi50oseEEiy34Ew-gW2FJT9JqGig6sIOqEk1Cz3sbpbj7RP_4103l2O5Y2r5jk9TS-rlWKb-enlTRF3bmwcFT6H89OTVOV]--></g></svg>