<?xml version="1.0" encoding="UTF-8" standalone="no"?><svg xmlns="http://www.w3.org/2000/svg" xmlns:xlink="http://www.w3.org/1999/xlink" contentStyleType="text/css" height="1364px" preserveAspectRatio="none" style="width:1280px;height:1364px;background:#FFFFFF;" version="1.1" viewBox="0 0 1280 1364" width="1280px" zoomAndPan="magnify"><defs/><g><text fill="#000000" font-family="sans-serif" font-size="14" font-weight="bold" lengthAdjust="spacing" textLength="303" x="490.25" y="27.9951">OCI NAT Gateway Reconcile Sequence</text><rect fill="none" height="314.9375" style="stroke:#475569;stroke-width:1.5;" width="1006" x="268.5" y="193.8594"/><rect fill="none" height="283.8047" style="stroke:#475569;stroke-width:1.5;" width="986" x="278.5" y="217.9922"/><rect fill="none" height="46.2656" style="stroke:#475569;stroke-width:1.5;" width="844" x="288.5" y="315.1953"/><rect fill="none" height="119.3359" style="stroke:#475569;stroke-width:1.5;" width="966" x="288.5" y="375.4609"/><rect fill="none" height="603.3359" style="stroke:#475569;stroke-width:1.5;" width="1254.5" x="10" y="522.7969"/><rect fill="none" height="104.5313" style="stroke:#475569;stroke-width:1.5;" width="966" x="288.5" y="546.9297"/><rect fill="none" height="321.8594" style="stroke:#475569;stroke-width:1.5;" width="1133" x="20" y="768.1406"/><rect fill="none" height="46.2656" style="stroke:#475569;stroke-width:1.5;" width="406.5" x="30" y="918.2031"/><rect fill="none" height="46.2656" style="stroke:#475569;stroke-width:1.5;" width="844" x="288.5" y="1036.7344"/><line style="stroke:#94A3B8;stroke-width:0.5;stroke-dasharray:5.0,5.0;" x1="76" x2="76" y1="118.5938" y2="1284.1953"/><line style="stroke:#94A3B8;stroke-width:0.5;stroke-dasharray:5.0,5.0;" x1="362.5" x2="362.5" y1="118.5938" y2="1284.1953"/><line style="stroke:#94A3B8;stroke-width:0.5;stroke-dasharray:5.0,5.0;" x1="1104.5" x2="1104.5" y1="118.5938" y2="1284.1953"/><line style="stroke:#94A3B8;stroke-width:0.5;stroke-dasharray:5.0,5.0;" x1="1188.5" x2="1188.5" y1="118.5938" y2="1284.1953"/><text fill="#000000" font-family="sans-serif" font-size="14" lengthAdjust="spacing" textLength="67" x="40" y="115.292">Controller</text><ellipse cx="76.5" cy="50.7969" fill="#E0F2FE" rx="8" ry="8" style="stroke:#0F766E;stroke-width:0.5;"/><path d="M76.5,58.7969 L76.5,85.7969 M63.5,66.7969 L89.5,66.7969 M76.5,85.7969 L63.5,100.7969 M76.5,85.7969 L89.5,100.7969 " fill="none" style="stroke:#0F766E;stroke-width:0.5;"/><text fill="#000000" font-family="sans-serif" font-size="14" lengthAdjust="spacing" textLength="67" x="40" y="1296.1904">Controller</text><ellipse cx="76.5" cy="1307.9922" fill="#E0F2FE" rx="8" ry="8" style="stroke:#0F766E;stroke-width:0.5;"/><path d="M76.5,1315.9922 L76.5,1342.9922 M63.5,1323.9922 L89.5,1323.9922 M76.5,1342.9922 L63.5,1357.9922 M76.5,1342.9922 L89.5,1357.9922 " fill="none" style="stroke:#0F766E;stroke-width:0.5;"/><rect fill="#F8FAFC" height="30.2969" rx="2.5" ry="2.5" style="stroke:#475569;stroke-width:0.5;" width="128" x="298.5" y="87.2969"/><text fill="#000000" font-family="sans-serif" font-size="14" lengthAdjust="spacing" textLength="114" x="305.5" y="107.292">Service Manager</text><rect fill="#F8FAFC" height="30.2969" rx="2.5" ry="2.5" style="stroke:#475569;stroke-width:0.5;" width="128" x="298.5" y="1283.1953"/><text fill="#000000" font-family="sans-serif" font-size="14" lengthAdjust="spacing" textLength="114" x="305.5" y="1303.1904">Service Manager</text><text fill="#000000" font-family="sans-serif" font-size="14" lengthAdjust="spacing" textLength="24" x="1089.5" y="115.292">OCI</text><path d="M1086.5,66.2969 C1086.5,56.2969 1104.5,56.2969 1104.5,56.2969 C1104.5,56.2969 1122.5,56.2969 1122.5,66.2969 L1122.5,92.2969 C1122.5,102.2969 1104.5,102.2969 1104.5,102.2969 C1104.5,102.2969 1086.5,102.2969 1086.5,92.2969 L1086.5,66.2969 " fill="#E2E2F0" style="stroke:#181818;stroke-width:1.5;"/><path d="M1086.5,66.2969 C1086.5,76.2969 1104.5,76.2969 1104.5,76.2969 C1104.5,76.2969 1122.5,76.2969 1122.5,66.2969 " fill="none" style="stroke:#181818;stroke-width:1.5;"/><text fill="#000000" font-family="sans-serif" font-size="14" lengthAdjust="spacing" textLength="24" x="1089.5" y="1296.1904">OCI</text><path d="M1086.5,1309.4922 C1086.5,1299.4922 1104.5,1299.4922 1104.5,1299.4922 C1104.5,1299.4922 1122.5,1299.4922 1122.5,1309.4922 L1122.5,1335.4922 C1122.5,1345.4922 1104.5,1345.4922 1104.5,1345.4922 C1104.5,1345.4922 1086.5,1345.4922 1086.5,1335.4922 L1086.5,1309.4922 " fill="#E2E2F0" style="stroke:#181818;stroke-width:1.5;"/><path d="M1086.5,1309.4922 C1086.5,1319.4922 1104.5,1319.4922 1104.5,1319.4922 C1104.5,1319.4922 1122.5,1319.4922 1122.5,1309.4922 " fill="none" style="stroke:#181818;stroke-width:1.5;"/><text fill="#000000" font-family="sans-serif" font-size="14" lengthAdjust="spacing" textLength="106" x="1132.5" y="115.292">Kubernetes API</text><path d="M1170.5,66.2969 C1170.5,56.2969 1188.5,56.2969 1188.5,56.2969 C1188.5,56.2969 1206.5,56.2969 1206.5,66.2969 L1206.5,92.2969 C1206.5,102.2969 1188.5,102.2969 1188.5,102.2969 C1188.5,102.2969 1170.5,102.2969 1170.5,92.2969 L1170.5,66.2969 " fill="#E2E2F0" style="stroke:#181818;stroke-width:1.5;"/><path d="M1170.5,66.2969 C1170.5,76.2969 1188.5,76.2969 1188.5,76.2969 C1188.5,76.2969 1206.5,76.2969 1206.5,66.2969 " fill="none" style="stroke:#181818;stroke-width:1.5;"/><text fill="#000000" font-family="sans-serif" font-size="14" lengthAdjust="spacing" textLength="106" x="1132.5" y="1296.1904">Kubernetes API</text><path d="M1170.5,1309.4922 C1170.5,1299.4922 1188.5,1299.4922 1188.5,1299.4922 C1188.5,1299.4922 1206.5,1299.4922 1206.5,1309.4922 L1206.5,1335.4922 C1206.5,1345.4922 1188.5,1345.4922 1188.5,1345.4922 C1188.5,1345.4922 1170.5,1345.4922 1170.5,1335.4922 L1170.5,1309.4922 " fill="#E2E2F0" style="stroke:#181818;stroke-width:1.5;"/><path d="M1170.5,1309.4922 C1170.5,1319.4922 1188.5,1319.4922 1188.5,1319.4922 C1188.5,1319.4922 1206.5,1319.4922 1206.5,1309.4922 " fill="none" style="stroke:#181818;stroke-width:1.5;"/><polygon fill="#334155" points="350.5,145.7266,360.5,149.7266,350.5,153.7266,354.5,149.7266" style="stroke:#334155;stroke-width:1.0;"/><line style="stroke:#334155;stroke-width:1.0;" x1="76.5" x2="356.5" y1="149.7266" y2="149.7266"/><text fill="#000000" font-family="sans-serif" font-size="13" font-weight="bold" lengthAdjust="spacing" textLength="9" x="83.5" y="144.6606">1</text><text fill="#000000" font-family="sans-serif" font-size="13" lengthAdjust="spacing" textLength="239" x="96.5" y="144.6606">reconcile desired spec and live status</text><polygon fill="#334155" points="1176.5,174.8594,1186.5,178.8594,1176.5,182.8594,1180.5,178.8594" style="stroke:#334155;stroke-width:1.0;"/><line style="stroke:#334155;stroke-width:1.0;" x1="362.5" x2="1182.5" y1="178.8594" y2="178.8594"/><text fill="#000000" font-family="sans-serif" font-size="13" font-weight="bold" lengthAdjust="spacing" textLength="9" x="369.5" y="173.7935">2</text><text fill="#000000" font-family="sans-serif" font-size="13" lengthAdjust="spacing" textLength="212" x="382.5" y="173.7935">read CR status and finalizer state</text><path d="M268.5,193.8594 L438.5,193.8594 L438.5,200.9922 L428.5,210.9922 L268.5,210.9922 L268.5,193.8594 " fill="#F8FAFC" style="stroke:#475569;stroke-width:1.5;"/><rect fill="none" height="314.9375" style="stroke:#475569;stroke-width:1.5;" width="1006" x="268.5" y="193.8594"/><text fill="#000000" font-family="sans-serif" font-size="13" font-weight="bold" lengthAdjust="spacing" textLength="125" x="283.5" y="206.9263">Lookup and bind</text><path d="M278.5,217.9922 L342.5,217.9922 L342.5,225.125 L332.5,235.125 L278.5,235.125 L278.5,217.9922 " fill="#F8FAFC" style="stroke:#475569;stroke-width:1.5;"/><rect fill="none" height="283.8047" style="stroke:#475569;stroke-width:1.5;" width="986" x="278.5" y="217.9922"/><text fill="#000000" font-family="sans-serif" font-size="13" font-weight="bold" lengthAdjust="spacing" textLength="19" x="293.5" y="231.0591">alt</text><text fill="#000000" font-family="sans-serif" font-size="11" font-weight="bold" lengthAdjust="spacing" textLength="256" x="357.5" y="230.2026">[tracked or explicit OCID already exists]</text><polygon fill="#334155" points="1092.5,252.2578,1102.5,256.2578,1092.5,260.2578,1096.5,256.2578" style="stroke:#334155;stroke-width:1.0;"/><line style="stroke:#334155;stroke-width:1.0;" x1="362.5" x2="1098.5" y1="256.2578" y2="256.2578"/><text fill="#000000" font-family="sans-serif" font-size="13" font-weight="bold" lengthAdjust="spacing" textLength="9" x="369.5" y="251.1919">3</text><text fill="#000000" font-family="sans-serif" font-size="13" lengthAdjust="spacing" textLength="278" x="382.5" y="251.1919">get the current resource by known identifier</text><line style="stroke:#475569;stroke-width:1.0;stroke-dasharray:2.0,2.0;" x1="278.5" x2="1264.5" y1="265.2578" y2="265.2578"/><text fill="#000000" font-family="sans-serif" font-size="11" font-weight="bold" lengthAdjust="spacing" textLength="145" x="283.5" y="275.4683">[no OCID is bound yet]</text><polygon fill="#334155" points="1092.5,296.1953,1102.5,300.1953,1092.5,304.1953,1096.5,300.1953" style="stroke:#334155;stroke-width:1.0;"/><line style="stroke:#334155;stroke-width:1.0;" x1="362.5" x2="1098.5" y1="300.1953" y2="300.1953"/><text fill="#000000" font-family="sans-serif" font-size="13" font-weight="bold" lengthAdjust="spacing" textLength="9" x="369.5" y="295.1294">4</text><text fill="#000000" font-family="sans-serif" font-size="13" lengthAdjust="spacing" textLength="193" x="382.5" y="295.1294">list resources by display name</text><path d="M288.5,315.1953 L365.5,315.1953 L365.5,322.3281 L355.5,332.3281 L288.5,332.3281 L288.5,315.1953 " fill="#F8FAFC" style="stroke:#475569;stroke-width:1.5;"/><rect fill="none" height="46.2656" style="stroke:#475569;stroke-width:1.5;" width="844" x="288.5" y="315.1953"/><text fill="#000000" font-family="sans-serif" font-size="13" font-weight="bold" lengthAdjust="spacing" textLength="32" x="303.5" y="328.2622">loop</text><text fill="#000000" font-family="sans-serif" font-size="11" font-weight="bold" lengthAdjust="spacing" textLength="263" x="380.5" y="327.4058">[later pages until a match or exhaustion]</text><polygon fill="#334155" points="1092.5,349.4609,1102.5,353.4609,1092.5,357.4609,1096.5,353.4609" style="stroke:#334155;stroke-width:1.0;"/><line style="stroke:#334155;stroke-width:1.0;" x1="362.5" x2="1098.5" y1="353.4609" y2="353.4609"/><text fill="#000000" font-family="sans-serif" font-size="13" font-weight="bold" lengthAdjust="spacing" textLength="9" x="369.5" y="348.395">5</text><text fill="#000000" font-family="sans-serif" font-size="13" lengthAdjust="spacing" textLength="147" x="382.5" y="348.395">fetch the next list page</text><path d="M288.5,375.4609 L352.5,375.4609 L352.5,382.5938 L342.5,392.5938 L288.5,392.5938 L288.5,375.4609 " fill="#F8FAFC" style="stroke:#475569;stroke-width:1.5;"/><rect fill="none" height="119.3359" style="stroke:#475569;stroke-width:1.5;" width="966" x="288.5" y="375.4609"/><text fill="#000000" font-family="sans-serif" font-size="13" font-weight="bold" lengthAdjust="spacing" textLength="19" x="303.5" y="388.5278">alt</text><text fill="#000000" font-family="sans-serif" font-size="11" font-weight="bold" lengthAdjust="spacing" textLength="162" x="367.5" y="387.6714">[existing resource found]</text><polygon fill="#334155" points="1176.5,409.7266,1186.5,413.7266,1176.5,417.7266,1180.5,413.7266" style="stroke:#334155;stroke-width:1.0;"/><line style="stroke:#334155;stroke-width:1.0;" x1="362.5" x2="1182.5" y1="413.7266" y2="413.7266"/><text fill="#000000" font-family="sans-serif" font-size="13" font-weight="bold" lengthAdjust="spacing" textLength="9" x="369.5" y="408.6606">6</text><text fill="#000000" font-family="sans-serif" font-size="13" lengthAdjust="spacing" textLength="221" x="382.5" y="408.6606">persist the resolved OCID in status</text><line style="stroke:#475569;stroke-width:1.0;stroke-dasharray:2.0,2.0;" x1="288.5" x2="1254.5" y1="422.7266" y2="422.7266"/><text fill="#000000" font-family="sans-serif" font-size="11" font-weight="bold" lengthAdjust="spacing" textLength="182" x="293.5" y="432.937">[no existing resource found]</text><polygon fill="#334155" points="1092.5,453.6641,1102.5,457.6641,1092.5,461.6641,1096.5,457.6641" style="stroke:#334155;stroke-width:1.0;"/><line style="stroke:#334155;stroke-width:1.0;" x1="362.5" x2="1098.5" y1="457.6641" y2="457.6641"/><text fill="#000000" font-family="sans-serif" font-size="13" font-weight="bold" lengthAdjust="spacing" textLength="9" x="369.5" y="452.5981">7</text><text fill="#000000" font-family="sans-serif" font-size="13" lengthAdjust="spacing" textLength="152" x="382.5" y="452.5981">create the OCI resource</text><polygon fill="#334155" points="1176.5,482.7969,1186.5,486.7969,1176.5,490.7969,1180.5,486.7969" style="stroke:#334155;stroke-width:1.0;"/><line style="stroke:#334155;stroke-width:1.0;" x1="362.5" x2="1182.5" y1="486.7969" y2="486.7969"/><text fill="#000000" font-family="sans-serif" font-size="13" font-weight="bold" lengthAdjust="spacing" textLength="9" x="369.5" y="481.731">8</text><text fill="#000000" font-family="sans-serif" font-size="13" lengthAdjust="spacing" textLength="216" x="382.5" y="481.731">persist the created OCID in status</text><path d="M10,522.7969 L74,522.7969 L74,529.9297 L64,539.9297 L10,539.9297 L10,522.7969 " fill="#F8FAFC" style="stroke:#475569;stroke-width:1.5;"/><rect fill="none" height="603.3359" style="stroke:#475569;stroke-width:1.5;" width="1254.5" x="10" y="522.7969"/><text fill="#000000" font-family="sans-serif" font-size="13" font-weight="bold" lengthAdjust="spacing" textLength="19" x="25" y="535.8638">alt</text><text fill="#000000" font-family="sans-serif" font-size="11" font-weight="bold" lengthAdjust="spacing" textLength="120" x="89" y="535.0073">[delete requested]</text><path d="M288.5,546.9297 L381.5,546.9297 L381.5,554.0625 L371.5,564.0625 L288.5,564.0625 L288.5,546.9297 " fill="#F8FAFC" style="stroke:#475569;stroke-width:1.5;"/><rect fill="none" height="104.5313" style="stroke:#475569;stroke-width:1.5;" width="966" x="288.5" y="546.9297"/><text fill="#000000" font-family="sans-serif" font-size="13" font-weight="bold" lengthAdjust="spacing" textLength="48" x="303.5" y="559.9966">Delete</text><polygon fill="#334155" points="1092.5,581.1953,1102.5,585.1953,1092.5,589.1953,1096.5,585.1953" style="stroke:#334155;stroke-width:1.0;"/><line style="stroke:#334155;stroke-width:1.0;" x1="362.5" x2="1098.5" y1="585.1953" y2="585.1953"/><text fill="#000000" font-family="sans-serif" font-size="13" font-weight="bold" lengthAdjust="spacing" textLength="9" x="369.5" y="580.1294">9</text><text fill="#000000" font-family="sans-serif" font-size="13" lengthAdjust="spacing" textLength="114" x="382.5" y="580.1294">submit OCI delete</text><polygon fill="#334155" points="1092.5,610.3281,1102.5,614.3281,1092.5,618.3281,1096.5,614.3281" style="stroke:#334155;stroke-width:1.0;"/><line style="stroke:#334155;stroke-width:1.0;" x1="362.5" x2="1098.5" y1="614.3281" y2="614.3281"/><text fill="#000000" font-family="sans-serif" font-size="13" font-weight="bold" lengthAdjust="spacing" textLength="18" x="369.5" y="609.2622">10</text><text fill="#000000" font-family="sans-serif" font-size="13" lengthAdjust="spacing" textLength="583" x="391.5" y="609.2622">Confirm deletion with follow-up GetNatGateway calls until the resource is gone or not found.</text><polygon fill="#334155" points="1176.5,639.4609,1186.5,643.4609,1176.5,647.4609,1180.5,643.4609" style="stroke:#334155;stroke-width:1.0;"/><line style="stroke:#334155;stroke-width:1.0;" x1="362.5" x2="1182.5" y1="643.4609" y2="643.4609"/><text fill="#000000" font-family="sans-serif" font-size="13" font-weight="bold" lengthAdjust="spacing" textLength="18" x="369.5" y="638.395">11</text><text fill="#000000" font-family="sans-serif" font-size="13" lengthAdjust="spacing" textLength="289" x="391.5" y="638.395">remove the finalizer after delete confirmation</text><line style="stroke:#475569;stroke-width:1.0;stroke-dasharray:2.0,2.0;" x1="10" x2="1264.5" y1="659.4609" y2="659.4609"/><text fill="#000000" font-family="sans-serif" font-size="11" font-weight="bold" lengthAdjust="spacing" textLength="147" x="15" y="669.6714">[OCI state is retryable]</text><polygon fill="#334155" points="87.5,690.3984,77.5,694.3984,87.5,698.3984,83.5,694.3984" style="stroke:#334155;stroke-width:1.0;"/><line style="stroke:#334155;stroke-width:1.0;stroke-dasharray:2.0,2.0;" x1="81.5" x2="361.5" y1="694.3984" y2="694.3984"/><text fill="#000000" font-family="sans-serif" font-size="13" font-weight="bold" lengthAdjust="spacing" textLength="18" x="93.5" y="689.3325">12</text><text fill="#000000" font-family="sans-serif" font-size="13" lengthAdjust="spacing" textLength="110" x="115.5" y="689.3325">requeue required</text><line style="stroke:#475569;stroke-width:1.0;stroke-dasharray:2.0,2.0;" x1="10" x2="1264.5" y1="703.3984" y2="703.3984"/><text fill="#000000" font-family="sans-serif" font-size="11" font-weight="bold" lengthAdjust="spacing" textLength="200" x="15" y="713.6089">[OCI state is failed or terminal]</text><polygon fill="#334155" points="87.5,734.3359,77.5,738.3359,87.5,742.3359,83.5,738.3359" style="stroke:#334155;stroke-width:1.0;"/><line style="stroke:#334155;stroke-width:1.0;stroke-dasharray:2.0,2.0;" x1="81.5" x2="361.5" y1="738.3359" y2="738.3359"/><text fill="#000000" font-family="sans-serif" font-size="13" font-weight="bold" lengthAdjust="spacing" textLength="18" x="93.5" y="733.27">13</text><text fill="#000000" font-family="sans-serif" font-size="13" lengthAdjust="spacing" textLength="240" x="115.5" y="733.27">unsuccessful terminal reconcile result</text><line style="stroke:#475569;stroke-width:1.0;stroke-dasharray:2.0,2.0;" x1="10" x2="1264.5" y1="747.3359" y2="747.3359"/><text fill="#000000" font-family="sans-serif" font-size="11" font-weight="bold" lengthAdjust="spacing" textLength="203" x="15" y="757.5464">[OCI state is active and usable]</text><path d="M20,768.1406 L167,768.1406 L167,775.2734 L157,785.2734 L20,785.2734 L20,768.1406 " fill="#F8FAFC" style="stroke:#475569;stroke-width:1.5;"/><rect fill="none" height="321.8594" style="stroke:#475569;stroke-width:1.5;" width="1133" x="20" y="768.1406"/><text fill="#000000" font-family="sans-serif" font-size="13" font-weight="bold" lengthAdjust="spacing" textLength="102" x="35" y="781.2075">Drift handling</text><path d="M324,790.2734 L324,905.2734 L1143,905.2734 L1143,800.2734 L1133,790.2734 L324,790.2734 " fill="#FEFFDD" style="stroke:#181818;stroke-width:0.5;"/><path d="M1133,790.2734 L1133,800.2734 L1143,800.2734 L1133,790.2734 " fill="#FEFFDD" style="stroke:#181818;stroke-width:0.5;"/><text fill="#000000" font-family="sans-serif" font-size="13" lengthAdjust="spacing" textLength="171" x="330" y="807.3403">Supported update surface:</text><text fill="#000000" font-family="sans-serif" font-size="13" lengthAdjust="spacing" textLength="94" x="330" y="822.4731">- display name</text><text fill="#000000" font-family="sans-serif" font-size="13" lengthAdjust="spacing" textLength="96" x="330" y="837.606">- freeform tags</text><text fill="#000000" font-family="sans-serif" font-size="13" lengthAdjust="spacing" textLength="88" x="330" y="852.7388">- defined tags</text><text fill="#000000" font-family="sans-serif" font-size="13" lengthAdjust="spacing" textLength="80" x="330" y="867.8716">- blockTraffic</text><text fill="#000000" font-family="sans-serif" font-size="13" lengthAdjust="spacing" textLength="139" x="330" y="883.0044">Reject before mutate:</text><text fill="#000000" font-family="sans-serif" font-size="13" lengthAdjust="spacing" textLength="71" x="330" y="898.1372">- vcnId drift</text><path d="M30,918.2031 L100,918.2031 L100,925.3359 L90,935.3359 L30,935.3359 L30,918.2031 " fill="#F8FAFC" style="stroke:#475569;stroke-width:1.5;"/><rect fill="none" height="46.2656" style="stroke:#475569;stroke-width:1.5;" width="406.5" x="30" y="918.2031"/><text fill="#000000" font-family="sans-serif" font-size="13" font-weight="bold" lengthAdjust="spacing" textLength="25" x="45" y="931.27">opt</text><text fill="#000000" font-family="sans-serif" font-size="11" font-weight="bold" lengthAdjust="spacing" textLength="286" x="115" y="930.4136">[unsupported or immutable drift is detected]</text><polygon fill="#334155" points="87.5,952.4688,77.5,956.4688,87.5,960.4688,83.5,956.4688" style="stroke:#334155;stroke-width:1.0;"/><line style="stroke:#334155;stroke-width:1.0;stroke-dasharray:2.0,2.0;" x1="81.5" x2="361.5" y1="956.4688" y2="956.4688"/><text fill="#000000" font-family="sans-serif" font-size="13" font-weight="bold" lengthAdjust="spacing" textLength="18" x="93.5" y="951.4028">14</text><text fill="#000000" font-family="sans-serif" font-size="13" lengthAdjust="spacing" textLength="169" x="115.5" y="951.4028">reject before OCI mutation</text><polygon fill="#334155" points="1092.5,988.6016,1102.5,992.6016,1092.5,996.6016,1096.5,992.6016" style="stroke:#334155;stroke-width:1.0;"/><line style="stroke:#334155;stroke-width:1.0;" x1="362.5" x2="1098.5" y1="992.6016" y2="992.6016"/><text fill="#000000" font-family="sans-serif" font-size="13" font-weight="bold" lengthAdjust="spacing" textLength="18" x="369.5" y="987.5356">15</text><text fill="#000000" font-family="sans-serif" font-size="13" lengthAdjust="spacing" textLength="439" x="391.5" y="987.5356">Reuse the tracked OCID from status or spec before any fresh lookup.</text><polygon fill="#334155" points="1092.5,1017.7344,1102.5,1021.7344,1092.5,1025.7344,1096.5,1021.7344" style="stroke:#334155;stroke-width:1.0;"/><line style="stroke:#334155;stroke-width:1.0;" x1="362.5" x2="1098.5" y1="1021.7344" y2="1021.7344"/><text fill="#000000" font-family="sans-serif" font-size="13" font-weight="bold" lengthAdjust="spacing" textLength="18" x="369.5" y="1016.6685">16</text><text fill="#000000" font-family="sans-serif" font-size="13" lengthAdjust="spacing" textLength="696" x="391.5" y="1016.6685">Move the NAT Gateway compartment before calling the mutable update path when compartment drift exists.</text><path d="M288.5,1036.7344 L358.5,1036.7344 L358.5,1043.8672 L348.5,1053.8672 L288.5,1053.8672 L288.5,1036.7344 " fill="#F8FAFC" style="stroke:#475569;stroke-width:1.5;"/><rect fill="none" height="46.2656" style="stroke:#475569;stroke-width:1.5;" width="844" x="288.5" y="1036.7344"/><text fill="#000000" font-family="sans-serif" font-size="13" font-weight="bold" lengthAdjust="spacing" textLength="25" x="303.5" y="1049.8013">opt</text><text fill="#000000" font-family="sans-serif" font-size="11" font-weight="bold" lengthAdjust="spacing" textLength="258" x="373.5" y="1048.9448">[supported drift or collection diff exists]</text><polygon fill="#334155" points="1092.5,1071,1102.5,1075,1092.5,1079,1096.5,1075" style="stroke:#334155;stroke-width:1.0;"/><line style="stroke:#334155;stroke-width:1.0;" x1="362.5" x2="1098.5" y1="1075" y2="1075"/><text fill="#000000" font-family="sans-serif" font-size="13" font-weight="bold" lengthAdjust="spacing" textLength="18" x="369.5" y="1069.9341">17</text><text fill="#000000" font-family="sans-serif" font-size="13" lengthAdjust="spacing" textLength="277" x="391.5" y="1069.9341">apply the supported in-place mutation path</text><polygon fill="#334155" points="87.5,1114.1328,77.5,1118.1328,87.5,1122.1328,83.5,1118.1328" style="stroke:#334155;stroke-width:1.0;"/><line style="stroke:#334155;stroke-width:1.0;stroke-dasharray:2.0,2.0;" x1="81.5" x2="361.5" y1="1118.1328" y2="1118.1328"/><text fill="#000000" font-family="sans-serif" font-size="13" font-weight="bold" lengthAdjust="spacing" textLength="18" x="93.5" y="1113.0669">18</text><text fill="#000000" font-family="sans-serif" font-size="13" lengthAdjust="spacing" textLength="169" x="115.5" y="1113.0669">successful active reconcile</text><path d="M51,1138.1328 L51,1269.1328 L1128,1269.1328 L1128,1148.1328 L1118,1138.1328 L51,1138.1328 " fill="#FEFFDD" style="stroke:#181818;stroke-width:0.5;"/><path d="M1118,1138.1328 L1118,1148.1328 L1128,1148.1328 L1118,1138.1328 " fill="#FEFFDD" style="stroke:#181818;stroke-width:0.5;"/><text fill="#000000" font-family="sans-serif" font-size="13" lengthAdjust="spacing" textLength="105" x="57" y="1155.1997">Boundary notes:</text><text fill="#000000" font-family="sans-serif" font-size="13" lengthAdjust="spacing" textLength="402" x="57" y="1170.3325">- The current formal notes remain lifecycle-centric even though</text><text fill="#000000" font-family="sans-serif" font-size="13" lengthAdjust="spacing" textLength="392" x="73" y="1185.4653">blockTraffic now participates in the supported update surface.</text><text fill="#000000" font-family="sans-serif" font-size="13" lengthAdjust="spacing" textLength="108" x="57" y="1200.5981">Sequence notes:</text><text fill="#000000" font-family="sans-serif" font-size="13" lengthAdjust="spacing" textLength="441" x="57" y="1215.731">- Paginated name lookup is only used when no status or spec OCID is</text><text fill="#000000" font-family="sans-serif" font-size="13" lengthAdjust="spacing" textLength="95" x="73" y="1230.8638">already bound.</text><text fill="#000000" font-family="sans-serif" font-size="13" lengthAdjust="spacing" textLength="166" x="57" y="1245.9966">Controller-local invariants:</text><text fill="#000000" font-family="sans-serif" font-size="13" lengthAdjust="spacing" textLength="229" x="57" y="1261.1294">- StatusPresentUsesStatusInvariant</text><!--SRC=[bLRRKYCt47sVh-WYhp6r2PTbUKYLOJ55BKie81yWQtfi1OqqqSLUPol_dcv9unaCPXDNOHVg- -dJBGKLDCBlbpTmDts2Qn5mBJRmWD8QgKZoY7z5D18h4OCriPsZg_opCfrmeWM_5BLTAxE0HcYF8yc5aCyBPwEfBwss3dwQfSz8O-gSNHVXqT7nBoSd8s6DZOWwFE6tCDLgOLeq0JGsOHoyf0RVAu1xuOAIgXCcl0vzDflEBdUKhAlH5ONZZoSdfvz8uLOrUAiClf1-EfuUNPoDfNjg0xYcq-vjrrcqDxMf3DQz4bzzcFqwkzgAnuu_p3wUdbvL_rI2HN1mQKrmLcjq1o0y3FzMtL0r73oYMod2xAimOb5qoravgceHn5nuX0EYHLAWtz7fbqWaC1ZGm_G-AtmvyrKrX8J9RpjEpy5jALMZLmvhy1rA4AO6hLO8FeWGVVNIZ1sHRxOMDLm-5ArarIWZjFgRbFWGgugHw-3MscVwOOsvCZLX9tI0u0XQYab8uRTE4no1g_fCGdQzeLFbWoTjWDSfaEOvB93SB15aT8xPwD3Rw0ZA-GQUZLqRK3MTgqOHXW18ym36vYZAmvpR2XiCxyNGbCJMiMVFjVATfeaqeiLagQtjG5F13ZgozH0ffWO1hGXocGjSYkY3iYOPx0tM81jmIOR6BCTcbyaA4tGPl8GD3_csv8QBsUizTQn3vzaZ-sSxlIBuCnYcRtOAL73wlq5I2PAQ5p35u1NMc_xtpBA3jnDBmVcR_oe6eaPDjASmj7WycP4ya-vp4hpNMH_dRUPSyVAUCarIeroRDQcFi5PXINXeRTSJ2dUDuKw4VbbBeNLFWnxj122nRc4DCYUC3HdFm-eTP1osTfNX7APBDCorKhhCcOd2heGEDv3hIcF8GHq6jn5ppJNkHg9Gmvuupr3632alXJUyDOAMHffSogFbj7xiDXeV9KsGRwBUcerM4454jyiRmMYPyZBYxH5zAQ6qsAacm98acbYQKBopP4I0kPrqVkPzMIWOkyuwPbZiQexXesk4nFCYdxmUS3vi769ZYG51BFoWYjGLSlNYSAwjV7voeccKB8SF-2VA07DsWT16Bcu8k9BcfeQQo-bvplJ8mMqN4dXzreIwQjd3d1TtWe1GgeaAClF_BJQzwl4u7OOxfTJlftxJx9c51um-KxBVuMbM6sVR_ZQW9DDTKY88is40_P9t9Tq5X- -v_zeJVlpyaRRbIpCzEefJ7ZBUJgpQur5QsWaQplKIpGkx35Q-LWwts0x8PZcbBXaccSQyLaqpledsPYswJczIBeD3PIP498bRT5DYEwliXyqQpKsPXUtKv3qua7umAuI_u0KZt2RHoJFZ9l0qkZ6PqJI6ISgxHj32rVIcaXkfSI99nIa9k28amzB6nRA0CAOuMQzX-w9XHyhi0F5oqWvJpUMbE4hiNYneAR0-JrwX2fFR6eAME5VddjBLj4EpSgENvFe7nBpVhWCi4ygRwbLc9PoYrrU9_9ZStHD3gU8_FFfySDEhLTk9_1S0]--></g></svg>