<?xml version="1.0" encoding="UTF-8" standalone="no"?><svg xmlns="http://www.w3.org/2000/svg" xmlns:xlink="http://www.w3.org/1999/xlink" contentStyleType="text/css" height="1415px" preserveAspectRatio="none" style="width:1632px;height:1415px;background:#FFFFFF;" version="1.1" viewBox="0 0 1632 1415" width="1632px" zoomAndPan="magnify"><defs/><g><text fill="#000000" font-family="sans-serif" font-size="14" font-weight="bold" lengthAdjust="spacing" textLength="209" x="710" y="32.9951">OCI DRG Reconcile Activity</text><ellipse cx="608.5" cy="57.2969" fill="#0F766E" rx="10" ry="10" style="stroke:#222222;stroke-width:1.0;"/><rect fill="none" height="362.1406" style="stroke:#000000;stroke-width:1.5;" width="686" x="286" y="77.2969"/><path d="M419,77.2969 L419,86.5938 L409,96.5938 L286,96.5938 " fill="none" style="stroke:#000000;stroke-width:1.5;"/><text fill="#000000" font-family="sans-serif" font-size="14" lengthAdjust="spacing" textLength="123" x="289" y="91.292">Observe and Bind</text><rect fill="#F8FAFC" height="33.9688" rx="12.5" ry="12.5" style="stroke:#475569;stroke-width:0.5;" width="304" x="456.5" y="113.5938"/><text fill="#0F172A" font-family="sans-serif" font-size="12" lengthAdjust="spacing" textLength="284" x="466.5" y="134.7324">Read CR spec, status OCID, and delete intent</text><rect fill="#F8FAFC" height="33.9688" rx="12.5" ry="12.5" style="stroke:#475569;stroke-width:0.5;" width="460" x="378.5" y="167.5625"/><text fill="#0F172A" font-family="sans-serif" font-size="12" lengthAdjust="spacing" textLength="440" x="388.5" y="188.7012">Keep status-bound OCID authoritative for later update or delete paths</text><polygon fill="#E2E8F0" points="508.5,221.5313,708.5,221.5313,720.5,233.5313,708.5,245.5313,508.5,245.5313,496.5,233.5313,508.5,221.5313" style="stroke:#475569;stroke-width:0.5;"/><text fill="#0F172A" font-family="sans-serif" font-size="11" lengthAdjust="spacing" textLength="200" x="508.5" y="237.3394">"Tracked or explicit OCID present?"</text><text fill="#000000" font-family="sans-serif" font-size="11" lengthAdjust="spacing" textLength="20" x="476.5" y="230.937">yes</text><text fill="#000000" font-family="sans-serif" font-size="11" lengthAdjust="spacing" textLength="14" x="720.5" y="230.937">no</text><rect fill="#F8FAFC" height="33.9688" rx="12.5" ry="12.5" style="stroke:#475569;stroke-width:0.5;" width="272" x="306" y="255.5313"/><text fill="#0F172A" font-family="sans-serif" font-size="12" lengthAdjust="spacing" textLength="252" x="316" y="276.6699">Get the OCI resource by known identifier</text><rect fill="#F8FAFC" height="33.9688" rx="12.5" ry="12.5" style="stroke:#475569;stroke-width:0.5;" width="328" x="611" y="255.5313"/><text fill="#0F172A" font-family="sans-serif" font-size="12" lengthAdjust="spacing" textLength="308" x="621" y="276.6699">Resolve an existing OCI resource by display name</text><rect fill="#F8FAFC" height="33.9688" rx="12.5" ry="12.5" style="stroke:#475569;stroke-width:0.5;" width="345" x="602.5" y="309.5"/><text fill="#0F172A" font-family="sans-serif" font-size="12" lengthAdjust="spacing" textLength="325" x="612.5" y="330.6387">Continue list pagination until a match or exhaustion</text><rect fill="#F8FAFC" height="33.9688" rx="12.5" ry="12.5" style="stroke:#475569;stroke-width:0.5;" width="354" x="598" y="363.4688"/><text fill="#0F172A" font-family="sans-serif" font-size="12" lengthAdjust="spacing" textLength="334" x="608" y="384.6074">Persist the resolved or created OCID back into status</text><polygon fill="#E2E8F0" points="608.5,403.4375,620.5,415.4375,608.5,427.4375,596.5,415.4375,608.5,403.4375" style="stroke:#475569;stroke-width:0.5;"/><path d="M1267,797.5859 L1267,1110.2422 L1620,1110.2422 L1620,807.5859 L1610,797.5859 L1267,797.5859 " fill="#FEFFDD" style="stroke:#181818;stroke-width:0.5;"/><path d="M1610,797.5859 L1610,807.5859 L1620,807.5859 L1610,797.5859 " fill="#FEFFDD" style="stroke:#181818;stroke-width:0.5;"/><text fill="#000000" font-family="sans-serif" font-size="13" lengthAdjust="spacing" textLength="69" x="1273" y="814.6528">Archetype:</text><text fill="#000000" font-family="sans-serif" font-size="13" lengthAdjust="spacing" textLength="207" x="1273" y="829.7856">- resolved-drift-delete-paginated</text><text fill="#000000" font-family="sans-serif" font-size="13" lengthAdjust="spacing" textLength="134" x="1273" y="844.9185">Retryable OCI states:</text><text fill="#000000" font-family="sans-serif" font-size="13" lengthAdjust="spacing" textLength="102" x="1273" y="860.0513">- PROVISIONING</text><text fill="#000000" font-family="sans-serif" font-size="13" lengthAdjust="spacing" textLength="76" x="1273" y="875.1841">- UPDATING</text><text fill="#000000" font-family="sans-serif" font-size="13" lengthAdjust="spacing" textLength="113" x="1273" y="890.3169">Active OCI states:</text><text fill="#000000" font-family="sans-serif" font-size="13" lengthAdjust="spacing" textLength="79" x="1273" y="905.4497">- AVAILABLE</text><text fill="#000000" font-family="sans-serif" font-size="13" lengthAdjust="spacing" textLength="111" x="1273" y="920.5825">Failed OCI states:</text><text fill="#000000" font-family="sans-serif" font-size="13" lengthAdjust="spacing" textLength="53" x="1273" y="935.7153">- FAILED</text><text fill="#000000" font-family="sans-serif" font-size="13" lengthAdjust="spacing" textLength="67" x="1273" y="950.8481">- DELETED</text><text fill="#000000" font-family="sans-serif" font-size="13" lengthAdjust="spacing" textLength="102" x="1273" y="965.981">Update surface:</text><text fill="#000000" font-family="sans-serif" font-size="13" lengthAdjust="spacing" textLength="94" x="1273" y="981.1138">- display name</text><text fill="#000000" font-family="sans-serif" font-size="13" lengthAdjust="spacing" textLength="96" x="1273" y="996.2466">- freeform tags</text><text fill="#000000" font-family="sans-serif" font-size="13" lengthAdjust="spacing" textLength="88" x="1273" y="1011.3794">- defined tags</text><text fill="#000000" font-family="sans-serif" font-size="13" lengthAdjust="spacing" textLength="175" x="1273" y="1026.5122">Reject before mutate: none</text><text fill="#000000" font-family="sans-serif" font-size="13" lengthAdjust="spacing" textLength="105" x="1273" y="1041.645">Boundary notes:</text><text fill="#000000" font-family="sans-serif" font-size="13" lengthAdjust="spacing" textLength="332" x="1273" y="1056.7778">- Pagination and field-level drift are still documented</text><text fill="#000000" font-family="sans-serif" font-size="13" lengthAdjust="spacing" textLength="253" x="1289" y="1071.9106">primarily in Go code and property tests.</text><text fill="#000000" font-family="sans-serif" font-size="13" lengthAdjust="spacing" textLength="166" x="1273" y="1087.0435">Controller-local invariants:</text><text fill="#000000" font-family="sans-serif" font-size="13" lengthAdjust="spacing" textLength="229" x="1273" y="1102.1763">- StatusPresentUsesStatusInvariant</text><polygon fill="#E2E8F0" points="551.5,459.4375,665.5,459.4375,677.5,471.4375,665.5,483.4375,551.5,483.4375,539.5,471.4375,551.5,459.4375" style="stroke:#475569;stroke-width:0.5;"/><text fill="#0F172A" font-family="sans-serif" font-size="11" lengthAdjust="spacing" textLength="114" x="551.5" y="475.2456">"Delete requested?"</text><text fill="#000000" font-family="sans-serif" font-size="11" lengthAdjust="spacing" textLength="20" x="519.5" y="468.8433">yes</text><text fill="#000000" font-family="sans-serif" font-size="11" lengthAdjust="spacing" textLength="14" x="677.5" y="468.8433">no</text><rect fill="none" height="220.2031" style="stroke:#000000;stroke-width:1.5;" width="562" x="11" y="493.4375"/><path d="M67,493.4375 L67,502.7344 L57,512.7344 L11,512.7344 " fill="none" style="stroke:#000000;stroke-width:1.5;"/><text fill="#000000" font-family="sans-serif" font-size="14" lengthAdjust="spacing" textLength="46" x="14" y="507.4326">Delete</text><rect fill="#F8FAFC" height="33.9688" rx="12.5" ry="12.5" style="stroke:#475569;stroke-width:0.5;" width="206" x="189" y="529.7344"/><text fill="#0F172A" font-family="sans-serif" font-size="12" lengthAdjust="spacing" textLength="186" x="199" y="550.873">Submit OCI delete for OCI DRG</text><rect fill="#F8FAFC" height="33.9688" rx="12.5" ry="12.5" style="stroke:#475569;stroke-width:0.5;" width="542" x="21" y="598.7031"/><text fill="#0F172A" font-family="sans-serif" font-size="12" lengthAdjust="spacing" textLength="522" x="31" y="619.8418">Confirm deletion with follow-up GetDrg calls until the resource is gone or not found.</text><rect fill="#F8FAFC" height="33.9688" rx="12.5" ry="12.5" style="stroke:#475569;stroke-width:0.5;" width="338" x="123" y="667.6719"/><text fill="#0F172A" font-family="sans-serif" font-size="12" lengthAdjust="spacing" textLength="318" x="133" y="688.8105">Remove the finalizer after OCI deletion is confirmed</text><ellipse cx="292" cy="759.6406" fill="none" rx="11" ry="11" style="stroke:#222222;stroke-width:1.0;"/><ellipse cx="292" cy="759.6406" fill="#222222" rx="6" ry="6" style="stroke:#111111;stroke-width:1.0;"/><rect fill="none" height="422.8438" style="stroke:#000000;stroke-width:1.5;" width="376" x="743" y="493.4375"/><path d="M904,493.4375 L904,502.7344 L894,512.7344 L743,512.7344 " fill="none" style="stroke:#000000;stroke-width:1.5;"/><text fill="#000000" font-family="sans-serif" font-size="14" lengthAdjust="spacing" textLength="151" x="746" y="507.4326">Lifecycle Classification</text><rect fill="#F8FAFC" height="33.9688" rx="12.5" ry="12.5" style="stroke:#475569;stroke-width:0.5;" width="268" x="791" y="578.1367"/><text fill="#0F172A" font-family="sans-serif" font-size="12" lengthAdjust="spacing" textLength="248" x="801" y="599.2754">Request requeue and keep the finalizer</text><ellipse cx="925" cy="658.1055" fill="none" rx="11" ry="11" style="stroke:#222222;stroke-width:1.0;"/><ellipse cx="925" cy="658.1055" fill="#222222" rx="6" ry="6" style="stroke:#111111;stroke-width:1.0;"/><polygon fill="#E2E8F0" points="845,529.7344,1005,529.7344,1017,541.7344,1005,553.7344,845,553.7344,833,541.7344,845,529.7344" style="stroke:#475569;stroke-width:0.5;"/><text fill="#000000" font-family="sans-serif" font-size="11" lengthAdjust="spacing" textLength="20" x="929" y="563.9448">yes</text><text fill="#0F172A" font-family="sans-serif" font-size="11" lengthAdjust="spacing" textLength="160" x="845" y="545.5425">"OCI state in retryable set?"</text><rect fill="#F8FAFC" height="33.9688" rx="12.5" ry="12.5" style="stroke:#475569;stroke-width:0.5;" width="324" x="763" y="774.9102"/><text fill="#0F172A" font-family="sans-serif" font-size="12" lengthAdjust="spacing" textLength="304" x="773" y="796.0488">Return an unsuccessful terminal reconcile result</text><ellipse cx="925" cy="854.8789" fill="none" rx="11" ry="11" style="stroke:#222222;stroke-width:1.0;"/><ellipse cx="925" cy="854.8789" fill="#222222" rx="6" ry="6" style="stroke:#111111;stroke-width:1.0;"/><polygon fill="#E2E8F0" points="855,726.5078,995,726.5078,1007,738.5078,995,750.5078,855,750.5078,843,738.5078,855,726.5078" style="stroke:#475569;stroke-width:0.5;"/><text fill="#000000" font-family="sans-serif" font-size="11" lengthAdjust="spacing" textLength="20" x="929" y="760.7183">yes</text><text fill="#0F172A" font-family="sans-serif" font-size="11" lengthAdjust="spacing" textLength="140" x="855" y="742.3159">"OCI state in failed set?"</text><rect fill="none" height="446.1094" style="stroke:#000000;stroke-width:1.5;" width="664" x="593" y="951.2813"/><path d="M772,951.2813 L772,960.5781 L762,970.5781 L593,970.5781 " fill="none" style="stroke:#000000;stroke-width:1.5;"/><text fill="#000000" font-family="sans-serif" font-size="14" lengthAdjust="spacing" textLength="169" x="596" y="965.2764">Ready and Drift Handling</text><rect fill="#F8FAFC" height="33.9688" rx="12.5" ry="12.5" style="stroke:#475569;stroke-width:0.5;" width="364" x="743" y="987.5781"/><text fill="#0F172A" font-family="sans-serif" font-size="12" lengthAdjust="spacing" textLength="344" x="753" y="1008.7168">Compare live OCI state with the supported drift surface</text><rect fill="#F8FAFC" height="33.9688" rx="12.5" ry="12.5" style="stroke:#475569;stroke-width:0.5;" width="572" x="639" y="1056.5469"/><text fill="#0F172A" font-family="sans-serif" font-size="12" lengthAdjust="spacing" textLength="552" x="649" y="1077.6855">Continue full pagination until a display-name match is found or all pages are exhausted.</text><rect fill="#F8FAFC" height="33.9688" rx="12.5" ry="12.5" style="stroke:#475569;stroke-width:0.5;" width="587" x="631.5" y="1125.5156"/><text fill="#0F172A" font-family="sans-serif" font-size="12" lengthAdjust="spacing" textLength="567" x="641.5" y="1146.6543">Reuse the resolved OCID for all later update and delete operations once the DRG is found.</text><rect fill="#F8FAFC" height="33.9688" rx="12.5" ry="12.5" style="stroke:#475569;stroke-width:0.5;" width="644" x="603" y="1179.4844"/><text fill="#0F172A" font-family="sans-serif" font-size="12" lengthAdjust="spacing" textLength="624" x="613" y="1200.623">Move the DRG compartment before calling the mutable update path when compartment drift exists.</text><polygon fill="#E2E8F0" points="847.5,1233.4531,1002.5,1233.4531,1014.5,1245.4531,1002.5,1257.4531,847.5,1257.4531,835.5,1245.4531,847.5,1233.4531" style="stroke:#475569;stroke-width:0.5;"/><text fill="#0F172A" font-family="sans-serif" font-size="11" lengthAdjust="spacing" textLength="155" x="847.5" y="1249.2612">"Supported drift detected?"</text><text fill="#000000" font-family="sans-serif" font-size="11" lengthAdjust="spacing" textLength="20" x="815.5" y="1242.8589">yes</text><text fill="#000000" font-family="sans-serif" font-size="11" lengthAdjust="spacing" textLength="14" x="1014.5" y="1242.8589">no</text><rect fill="#F8FAFC" height="33.9688" rx="12.5" ry="12.5" style="stroke:#475569;stroke-width:0.5;" width="329" x="617.25" y="1267.4531"/><text fill="#0F172A" font-family="sans-serif" font-size="12" lengthAdjust="spacing" textLength="309" x="627.25" y="1288.5918">Apply only the supported in-place update surface</text><rect fill="#F8FAFC" height="33.9688" rx="12.5" ry="12.5" style="stroke:#475569;stroke-width:0.5;" width="204" x="966.25" y="1267.4531"/><text fill="#0F172A" font-family="sans-serif" font-size="12" lengthAdjust="spacing" textLength="184" x="976.25" y="1288.5918">Skip the no-op mutation path</text><polygon fill="#E2E8F0" points="925,1307.4219,937,1319.4219,925,1331.4219,913,1319.4219,925,1307.4219" style="stroke:#475569;stroke-width:0.5;"/><rect fill="#F8FAFC" height="33.9688" rx="12.5" ry="12.5" style="stroke:#475569;stroke-width:0.5;" width="287" x="781.5" y="1351.4219"/><text fill="#0F172A" font-family="sans-serif" font-size="12" lengthAdjust="spacing" textLength="267" x="791.5" y="1372.5605">Return success for the usable active state</text><line style="stroke:#334155;stroke-width:1.0;" x1="608.5" x2="608.5" y1="147.5625" y2="167.5625"/><polygon fill="#334155" points="604.5,157.5625,608.5,167.5625,612.5,157.5625,608.5,161.5625" style="stroke:#334155;stroke-width:1.0;"/><line style="stroke:#334155;stroke-width:1.0;" x1="775" x2="775" y1="289.5" y2="309.5"/><polygon fill="#334155" points="771,299.5,775,309.5,779,299.5,775,303.5" style="stroke:#334155;stroke-width:1.0;"/><line style="stroke:#334155;stroke-width:1.0;" x1="775" x2="775" y1="343.4688" y2="363.4688"/><polygon fill="#334155" points="771,353.4688,775,363.4688,779,353.4688,775,357.4688" style="stroke:#334155;stroke-width:1.0;"/><line style="stroke:#334155;stroke-width:1.0;" x1="496.5" x2="442" y1="233.5313" y2="233.5313"/><line style="stroke:#334155;stroke-width:1.0;" x1="442" x2="442" y1="233.5313" y2="255.5313"/><polygon fill="#334155" points="438,245.5313,442,255.5313,446,245.5313,442,249.5313" style="stroke:#334155;stroke-width:1.0;"/><line style="stroke:#334155;stroke-width:1.0;" x1="720.5" x2="775" y1="233.5313" y2="233.5313"/><line style="stroke:#334155;stroke-width:1.0;" x1="775" x2="775" y1="233.5313" y2="255.5313"/><polygon fill="#334155" points="771,245.5313,775,255.5313,779,245.5313,775,249.5313" style="stroke:#334155;stroke-width:1.0;"/><line style="stroke:#334155;stroke-width:1.0;" x1="442" x2="442" y1="289.5" y2="415.4375"/><line style="stroke:#334155;stroke-width:1.0;" x1="442" x2="596.5" y1="415.4375" y2="415.4375"/><polygon fill="#334155" points="586.5,411.4375,596.5,415.4375,586.5,419.4375,590.5,415.4375" style="stroke:#334155;stroke-width:1.0;"/><line style="stroke:#334155;stroke-width:1.0;" x1="775" x2="775" y1="397.4375" y2="415.4375"/><line style="stroke:#334155;stroke-width:1.0;" x1="775" x2="620.5" y1="415.4375" y2="415.4375"/><polygon fill="#334155" points="630.5,411.4375,620.5,415.4375,630.5,419.4375,626.5,415.4375" style="stroke:#334155;stroke-width:1.0;"/><line style="stroke:#334155;stroke-width:1.0;" x1="608.5" x2="608.5" y1="201.5313" y2="221.5313"/><polygon fill="#334155" points="604.5,211.5313,608.5,221.5313,612.5,211.5313,608.5,215.5313" style="stroke:#334155;stroke-width:1.0;"/><line style="stroke:#334155;stroke-width:1.0;" x1="608.5" x2="608.5" y1="67.2969" y2="113.5938"/><polygon fill="#334155" points="604.5,103.5938,608.5,113.5938,612.5,103.5938,608.5,107.5938" style="stroke:#334155;stroke-width:1.0;"/><line style="stroke:#334155;stroke-width:1.0;" x1="292" x2="292" y1="563.7031" y2="598.7031"/><polygon fill="#334155" points="288,588.7031,292,598.7031,296,588.7031,292,592.7031" style="stroke:#334155;stroke-width:1.0;"/><line style="stroke:#334155;stroke-width:1.0;" x1="292" x2="292" y1="632.6719" y2="667.6719"/><polygon fill="#334155" points="288,657.6719,292,667.6719,296,657.6719,292,661.6719" style="stroke:#334155;stroke-width:1.0;"/><line style="stroke:#334155;stroke-width:1.0;" x1="292" x2="292" y1="701.6406" y2="748.6406"/><polygon fill="#334155" points="288,738.6406,292,748.6406,296,738.6406,292,742.6406" style="stroke:#334155;stroke-width:1.0;"/><line style="stroke:#334155;stroke-width:1.0;" x1="925" x2="925" y1="612.1055" y2="647.1055"/><polygon fill="#334155" points="921,637.1055,925,647.1055,929,637.1055,925,641.1055" style="stroke:#334155;stroke-width:1.0;"/><line style="stroke:#334155;stroke-width:1.0;" x1="925" x2="925" y1="553.7344" y2="578.1367"/><polygon fill="#334155" points="921,568.1367,925,578.1367,929,568.1367,925,572.1367" style="stroke:#334155;stroke-width:1.0;"/><line style="stroke:#334155;stroke-width:1.0;" x1="1017" x2="1069" y1="541.7344" y2="541.7344"/><polygon fill="#334155" points="1065,610.6211,1069,620.6211,1073,610.6211,1069,614.6211" style="stroke:#334155;stroke-width:1.0;"/><line style="stroke:#334155;stroke-width:1.0;" x1="1069" x2="1069" y1="541.7344" y2="699.5078"/><line style="stroke:#334155;stroke-width:1.0;" x1="1069" x2="925" y1="699.5078" y2="699.5078"/><line style="stroke:#334155;stroke-width:1.0;" x1="925" x2="925" y1="699.5078" y2="726.5078"/><polygon fill="#334155" points="921,716.5078,925,726.5078,929,716.5078,925,720.5078" style="stroke:#334155;stroke-width:1.0;"/><line style="stroke:#334155;stroke-width:1.0;" x1="925" x2="925" y1="808.8789" y2="843.8789"/><polygon fill="#334155" points="921,833.8789,925,843.8789,929,833.8789,925,837.8789" style="stroke:#334155;stroke-width:1.0;"/><line style="stroke:#334155;stroke-width:1.0;" x1="925" x2="925" y1="750.5078" y2="774.9102"/><polygon fill="#334155" points="921,764.9102,925,774.9102,929,764.9102,925,768.9102" style="stroke:#334155;stroke-width:1.0;"/><line style="stroke:#334155;stroke-width:1.0;" x1="1007" x2="1097" y1="738.5078" y2="738.5078"/><polygon fill="#334155" points="1093,807.3945,1097,817.3945,1101,807.3945,1097,811.3945" style="stroke:#334155;stroke-width:1.0;"/><line style="stroke:#334155;stroke-width:1.0;" x1="1097" x2="1097" y1="738.5078" y2="896.2813"/><line style="stroke:#334155;stroke-width:1.0;" x1="1097" x2="925" y1="896.2813" y2="896.2813"/><line style="stroke:#334155;stroke-width:1.0;" x1="925" x2="925" y1="896.2813" y2="987.5781"/><polygon fill="#334155" points="921,977.5781,925,987.5781,929,977.5781,925,981.5781" style="stroke:#334155;stroke-width:1.0;"/><line style="stroke:#334155;stroke-width:1.0;" x1="925" x2="925" y1="1021.5469" y2="1056.5469"/><polygon fill="#334155" points="921,1046.5469,925,1056.5469,929,1046.5469,925,1050.5469" style="stroke:#334155;stroke-width:1.0;"/><line style="stroke:#334155;stroke-width:1.0;" x1="925" x2="925" y1="1090.5156" y2="1125.5156"/><polygon fill="#334155" points="921,1115.5156,925,1125.5156,929,1115.5156,925,1119.5156" style="stroke:#334155;stroke-width:1.0;"/><line style="stroke:#334155;stroke-width:1.0;" x1="925" x2="925" y1="1159.4844" y2="1179.4844"/><polygon fill="#334155" points="921,1169.4844,925,1179.4844,929,1169.4844,925,1173.4844" style="stroke:#334155;stroke-width:1.0;"/><line style="stroke:#334155;stroke-width:1.0;" x1="835.5" x2="781.75" y1="1245.4531" y2="1245.4531"/><line style="stroke:#334155;stroke-width:1.0;" x1="781.75" x2="781.75" y1="1245.4531" y2="1267.4531"/><polygon fill="#334155" points="777.75,1257.4531,781.75,1267.4531,785.75,1257.4531,781.75,1261.4531" style="stroke:#334155;stroke-width:1.0;"/><line style="stroke:#334155;stroke-width:1.0;" x1="1014.5" x2="1068.25" y1="1245.4531" y2="1245.4531"/><line style="stroke:#334155;stroke-width:1.0;" x1="1068.25" x2="1068.25" y1="1245.4531" y2="1267.4531"/><polygon fill="#334155" points="1064.25,1257.4531,1068.25,1267.4531,1072.25,1257.4531,1068.25,1261.4531" style="stroke:#334155;stroke-width:1.0;"/><line style="stroke:#334155;stroke-width:1.0;" x1="781.75" x2="781.75" y1="1301.4219" y2="1319.4219"/><line style="stroke:#334155;stroke-width:1.0;" x1="781.75" x2="913" y1="1319.4219" y2="1319.4219"/><polygon fill="#334155" points="903,1315.4219,913,1319.4219,903,1323.4219,907,1319.4219" style="stroke:#334155;stroke-width:1.0;"/><line style="stroke:#334155;stroke-width:1.0;" x1="1068.25" x2="1068.25" y1="1301.4219" y2="1319.4219"/><line style="stroke:#334155;stroke-width:1.0;" x1="1068.25" x2="937" y1="1319.4219" y2="1319.4219"/><polygon fill="#334155" points="947,1315.4219,937,1319.4219,947,1323.4219,943,1319.4219" style="stroke:#334155;stroke-width:1.0;"/><line style="stroke:#334155;stroke-width:1.0;" x1="925" x2="925" y1="1213.4531" y2="1233.4531"/><polygon fill="#334155" points="921,1223.4531,925,1233.4531,929,1223.4531,925,1227.4531" style="stroke:#334155;stroke-width:1.0;"/><line style="stroke:#334155;stroke-width:1.0;" x1="925" x2="925" y1="1331.4219" y2="1351.4219"/><polygon fill="#334155" points="921,1341.4219,925,1351.4219,929,1341.4219,925,1345.4219" style="stroke:#334155;stroke-width:1.0;"/><line style="stroke:#334155;stroke-width:1.0;" x1="539.5" x2="292" y1="471.4375" y2="471.4375"/><line style="stroke:#334155;stroke-width:1.0;" x1="292" x2="292" y1="471.4375" y2="529.7344"/><polygon fill="#334155" points="288,519.7344,292,529.7344,296,519.7344,292,523.7344" style="stroke:#334155;stroke-width:1.0;"/><line style="stroke:#334155;stroke-width:1.0;" x1="677.5" x2="925" y1="471.4375" y2="471.4375"/><line style="stroke:#334155;stroke-width:1.0;" x1="925" x2="925" y1="471.4375" y2="529.7344"/><polygon fill="#334155" points="921,519.7344,925,529.7344,929,519.7344,925,523.7344" style="stroke:#334155;stroke-width:1.0;"/><line style="stroke:#334155;stroke-width:1.0;" x1="925" x2="925" y1="1385.3906" y2="1403.3906"/><line style="stroke:#334155;stroke-width:1.0;" x1="925" x2="608.5" y1="1403.3906" y2="1403.3906"/><line style="stroke:#334155;stroke-width:1.0;" x1="608.5" x2="608.5" y1="427.4375" y2="459.4375"/><polygon fill="#334155" points="604.5,449.4375,608.5,459.4375,612.5,449.4375,608.5,453.4375" style="stroke:#334155;stroke-width:1.0;"/><!--SRC=[VLRRSjis47tdLs3S5sScxCH9RAVsGuSM9LTJD_R8TjuXO2cX1W4M5ojg9__UNO2KALkjPsAJm5xEdZsxJ5110xkTp5czk6OB4DO8XIUL2EfPXMtXdvJfkECjysikxKQP5MkuzZ2wkUBYQULiD79YjNNifrdw6LbKpjbDV_dfq-UJqzFHfOI6HnqUu7kej5gP5anW6femik4z7lPFmGxa-pAhPXEwiKw2wqy_dv-Udls2fpDhGd_sONPo_h72irhnrXhv9jJqu_JBxCF8u634-y3TIyZpixCf7avtGSvd9_L9NVmeFDaL1TOGL53MiAFRfGVt38mRoQwKaKUfeei5SCac2-Ox4EyPkeNegItr-sGfGKC0fan0RYx9uNU0hhShbuG_MJCUmzewXUSAapG8HlC0ZiLEub-6xtseZeUrfqYgOST73mvv04dtyBtJIgYGutKEFARyzUWT2simx7WB_Xrw8O9h27IMn8DMDZe1RBbbJyPk35CItLIZm54IGC6mOsDxrmMQwqG2fbC-aAXUXv7ATvflcU4jN6Qt2VPHcGXCemzMi5A69rOZdcl6MSk3MESYrZnwkkjTxy1vSYB0BcTFrGe7o4jFtX9988vjJsn2RgHgi9D5ugdEv3duAu97lpUyZ3gTRND_4S5zNBQPrQ45r9r-ybuAR9Hhim45sQYmHZkjxQQC7KFAQxTYWclj-wA7WX9johELDQdDnWPqH5tyV3bmtbgadEmRv4shlr4Ml25nx31HIemXCWoGvFe3__bWksBSmr6PDwe1iHMuCoQQUuyj5wafG-69Dyf0d9A44MvmMxv43m-7b9N09e8pqJ5FonCfVW_-PM-UuD53RjRXh0t7lIR_BsM8pf0ae_5H2F2-YSWlk9Ro8PHXDoBTkAx-CpbgPOyW6krjgg1sgWdiDtpKgFYTCYQsHNDIzNEUfemvzPxgzR7hh2ELoXJ0HzTmyMOe4Aq-D1Jz89KqIFs4O8-JDaWeF7k1PuIX7nmOoIPws1-RD2jDxxgtNaQhodRW4WxFaBOSWJunG-eX_X-3AEbI92P2-W0i0LD0qZgj1p9fOqYowRFH2cCRQkJOBtEKrehlaoGntBzYKI9ASMY44wogw_GMaUEl_HOeKoAROWTYhndxQuw6_abbpHfRsYuLa7f3q2zVINPGO2- -n32vHf-AJbz0oDh8SvbTYqPRdZOeZZnsIQtMeQYSM4FOTd1HbBl6bQdmCZUex9K2ibZivd4dFaz-TulRR_Fx-UtN-TThV7sygwi7UgmoadtZwbirlwckRgR5B0_Q_lKCRwSrFjJJc-a3FZtkqKScuuMFhuq3Ka3B0bzvkWQSUuoRNXVm9pPlq4YY5IwG00F55QcBkssY8zVnCXCaKFmcQLbgU0RTIu64ZnyBLBEq8fAAa1LgIUTKovr24U02kRQeCvb5tZdID_vt15EWp0eQGeTh6bofBKeMxP_HaPkG4DodpybT_fO-Ul3vO3uOKIiJtk9V]--></g></svg>