<?xml version="1.0" encoding="UTF-8" standalone="no"?><svg xmlns="http://www.w3.org/2000/svg" xmlns:xlink="http://www.w3.org/1999/xlink" contentStyleType="text/css" height="1288px" preserveAspectRatio="none" style="width:1203px;height:1288px;background:#FFFFFF;" version="1.1" viewBox="0 0 1203 1288" width="1203px" zoomAndPan="magnify"><defs/><g><text fill="#000000" font-family="sans-serif" font-size="14" font-weight="bold" lengthAdjust="spacing" textLength="230" x="488.25" y="27.9951">OCI DRG Reconcile Sequence</text><rect fill="none" height="314.9375" style="stroke:#475569;stroke-width:1.5;" width="949" x="248.5" y="193.8594"/><rect fill="none" height="283.8047" style="stroke:#475569;stroke-width:1.5;" width="929" x="258.5" y="217.9922"/><rect fill="none" height="46.2656" style="stroke:#475569;stroke-width:1.5;" width="787" x="268.5" y="315.1953"/><rect fill="none" height="119.3359" style="stroke:#475569;stroke-width:1.5;" width="909" x="268.5" y="375.4609"/><rect fill="none" height="526.8047" style="stroke:#475569;stroke-width:1.5;" width="1177.5" x="10" y="522.7969"/><rect fill="none" height="104.5313" style="stroke:#475569;stroke-width:1.5;" width="909" x="268.5" y="546.9297"/><rect fill="none" height="245.3281" style="stroke:#475569;stroke-width:1.5;" width="817.5" x="258.5" y="768.1406"/><rect fill="none" height="46.2656" style="stroke:#475569;stroke-width:1.5;" width="787" x="268.5" y="960.2031"/><line style="stroke:#94A3B8;stroke-width:0.5;stroke-dasharray:5.0,5.0;" x1="56" x2="56" y1="118.5938" y2="1207.6641"/><line style="stroke:#94A3B8;stroke-width:0.5;stroke-dasharray:5.0,5.0;" x1="342.5" x2="342.5" y1="118.5938" y2="1207.6641"/><line style="stroke:#94A3B8;stroke-width:0.5;stroke-dasharray:5.0,5.0;" x1="1027.5" x2="1027.5" y1="118.5938" y2="1207.6641"/><line style="stroke:#94A3B8;stroke-width:0.5;stroke-dasharray:5.0,5.0;" x1="1111.5" x2="1111.5" y1="118.5938" y2="1207.6641"/><text fill="#000000" font-family="sans-serif" font-size="14" lengthAdjust="spacing" textLength="67" x="20" y="115.292">Controller</text><ellipse cx="56.5" cy="50.7969" fill="#E0F2FE" rx="8" ry="8" style="stroke:#0F766E;stroke-width:0.5;"/><path d="M56.5,58.7969 L56.5,85.7969 M43.5,66.7969 L69.5,66.7969 M56.5,85.7969 L43.5,100.7969 M56.5,85.7969 L69.5,100.7969 " fill="none" style="stroke:#0F766E;stroke-width:0.5;"/><text fill="#000000" font-family="sans-serif" font-size="14" lengthAdjust="spacing" textLength="67" x="20" y="1219.6592">Controller</text><ellipse cx="56.5" cy="1231.4609" fill="#E0F2FE" rx="8" ry="8" style="stroke:#0F766E;stroke-width:0.5;"/><path d="M56.5,1239.4609 L56.5,1266.4609 M43.5,1247.4609 L69.5,1247.4609 M56.5,1266.4609 L43.5,1281.4609 M56.5,1266.4609 L69.5,1281.4609 " fill="none" style="stroke:#0F766E;stroke-width:0.5;"/><rect fill="#F8FAFC" height="30.2969" rx="2.5" ry="2.5" style="stroke:#475569;stroke-width:0.5;" width="128" x="278.5" y="87.2969"/><text fill="#000000" font-family="sans-serif" font-size="14" lengthAdjust="spacing" textLength="114" x="285.5" y="107.292">Service Manager</text><rect fill="#F8FAFC" height="30.2969" rx="2.5" ry="2.5" style="stroke:#475569;stroke-width:0.5;" width="128" x="278.5" y="1206.6641"/><text fill="#000000" font-family="sans-serif" font-size="14" lengthAdjust="spacing" textLength="114" x="285.5" y="1226.6592">Service Manager</text><text fill="#000000" font-family="sans-serif" font-size="14" lengthAdjust="spacing" textLength="24" x="1012.5" y="115.292">OCI</text><path d="M1009.5,66.2969 C1009.5,56.2969 1027.5,56.2969 1027.5,56.2969 C1027.5,56.2969 1045.5,56.2969 1045.5,66.2969 L1045.5,92.2969 C1045.5,102.2969 1027.5,102.2969 1027.5,102.2969 C1027.5,102.2969 1009.5,102.2969 1009.5,92.2969 L1009.5,66.2969 " fill="#E2E2F0" style="stroke:#181818;stroke-width:1.5;"/><path d="M1009.5,66.2969 C1009.5,76.2969 1027.5,76.2969 1027.5,76.2969 C1027.5,76.2969 1045.5,76.2969 1045.5,66.2969 " fill="none" style="stroke:#181818;stroke-width:1.5;"/><text fill="#000000" font-family="sans-serif" font-size="14" lengthAdjust="spacing" textLength="24" x="1012.5" y="1219.6592">OCI</text><path d="M1009.5,1232.9609 C1009.5,1222.9609 1027.5,1222.9609 1027.5,1222.9609 C1027.5,1222.9609 1045.5,1222.9609 1045.5,1232.9609 L1045.5,1258.9609 C1045.5,1268.9609 1027.5,1268.9609 1027.5,1268.9609 C1027.5,1268.9609 1009.5,1268.9609 1009.5,1258.9609 L1009.5,1232.9609 " fill="#E2E2F0" style="stroke:#181818;stroke-width:1.5;"/><path d="M1009.5,1232.9609 C1009.5,1242.9609 1027.5,1242.9609 1027.5,1242.9609 C1027.5,1242.9609 1045.5,1242.9609 1045.5,1232.9609 " fill="none" style="stroke:#181818;stroke-width:1.5;"/><text fill="#000000" font-family="sans-serif" font-size="14" lengthAdjust="spacing" textLength="106" x="1055.5" y="115.292">Kubernetes API</text><path d="M1093.5,66.2969 C1093.5,56.2969 1111.5,56.2969 1111.5,56.2969 C1111.5,56.2969 1129.5,56.2969 1129.5,66.2969 L1129.5,92.2969 C1129.5,102.2969 1111.5,102.2969 1111.5,102.2969 C1111.5,102.2969 1093.5,102.2969 1093.5,92.2969 L1093.5,66.2969 " fill="#E2E2F0" style="stroke:#181818;stroke-width:1.5;"/><path d="M1093.5,66.2969 C1093.5,76.2969 1111.5,76.2969 1111.5,76.2969 C1111.5,76.2969 1129.5,76.2969 1129.5,66.2969 " fill="none" style="stroke:#181818;stroke-width:1.5;"/><text fill="#000000" font-family="sans-serif" font-size="14" lengthAdjust="spacing" textLength="106" x="1055.5" y="1219.6592">Kubernetes API</text><path d="M1093.5,1232.9609 C1093.5,1222.9609 1111.5,1222.9609 1111.5,1222.9609 C1111.5,1222.9609 1129.5,1222.9609 1129.5,1232.9609 L1129.5,1258.9609 C1129.5,1268.9609 1111.5,1268.9609 1111.5,1268.9609 C1111.5,1268.9609 1093.5,1268.9609 1093.5,1258.9609 L1093.5,1232.9609 " fill="#E2E2F0" style="stroke:#181818;stroke-width:1.5;"/><path d="M1093.5,1232.9609 C1093.5,1242.9609 1111.5,1242.9609 1111.5,1242.9609 C1111.5,1242.9609 1129.5,1242.9609 1129.5,1232.9609 " fill="none" style="stroke:#181818;stroke-width:1.5;"/><polygon fill="#334155" points="330.5,145.7266,340.5,149.7266,330.5,153.7266,334.5,149.7266" style="stroke:#334155;stroke-width:1.0;"/><line style="stroke:#334155;stroke-width:1.0;" x1="56.5" x2="336.5" y1="149.7266" y2="149.7266"/><text fill="#000000" font-family="sans-serif" font-size="13" font-weight="bold" lengthAdjust="spacing" textLength="9" x="63.5" y="144.6606">1</text><text fill="#000000" font-family="sans-serif" font-size="13" lengthAdjust="spacing" textLength="239" x="76.5" y="144.6606">reconcile desired spec and live status</text><polygon fill="#334155" points="1099.5,174.8594,1109.5,178.8594,1099.5,182.8594,1103.5,178.8594" style="stroke:#334155;stroke-width:1.0;"/><line style="stroke:#334155;stroke-width:1.0;" x1="342.5" x2="1105.5" y1="178.8594" y2="178.8594"/><text fill="#000000" font-family="sans-serif" font-size="13" font-weight="bold" lengthAdjust="spacing" textLength="9" x="349.5" y="173.7935">2</text><text fill="#000000" font-family="sans-serif" font-size="13" lengthAdjust="spacing" textLength="212" x="362.5" y="173.7935">read CR status and finalizer state</text><path d="M248.5,193.8594 L418.5,193.8594 L418.5,200.9922 L408.5,210.9922 L248.5,210.9922 L248.5,193.8594 " fill="#F8FAFC" style="stroke:#475569;stroke-width:1.5;"/><rect fill="none" height="314.9375" style="stroke:#475569;stroke-width:1.5;" width="949" x="248.5" y="193.8594"/><text fill="#000000" font-family="sans-serif" font-size="13" font-weight="bold" lengthAdjust="spacing" textLength="125" x="263.5" y="206.9263">Lookup and bind</text><path d="M258.5,217.9922 L322.5,217.9922 L322.5,225.125 L312.5,235.125 L258.5,235.125 L258.5,217.9922 " fill="#F8FAFC" style="stroke:#475569;stroke-width:1.5;"/><rect fill="none" height="283.8047" style="stroke:#475569;stroke-width:1.5;" width="929" x="258.5" y="217.9922"/><text fill="#000000" font-family="sans-serif" font-size="13" font-weight="bold" lengthAdjust="spacing" textLength="19" x="273.5" y="231.0591">alt</text><text fill="#000000" font-family="sans-serif" font-size="11" font-weight="bold" lengthAdjust="spacing" textLength="256" x="337.5" y="230.2026">[tracked or explicit OCID already exists]</text><polygon fill="#334155" points="1015.5,252.2578,1025.5,256.2578,1015.5,260.2578,1019.5,256.2578" style="stroke:#334155;stroke-width:1.0;"/><line style="stroke:#334155;stroke-width:1.0;" x1="342.5" x2="1021.5" y1="256.2578" y2="256.2578"/><text fill="#000000" font-family="sans-serif" font-size="13" font-weight="bold" lengthAdjust="spacing" textLength="9" x="349.5" y="251.1919">3</text><text fill="#000000" font-family="sans-serif" font-size="13" lengthAdjust="spacing" textLength="278" x="362.5" y="251.1919">get the current resource by known identifier</text><line style="stroke:#475569;stroke-width:1.0;stroke-dasharray:2.0,2.0;" x1="258.5" x2="1187.5" y1="265.2578" y2="265.2578"/><text fill="#000000" font-family="sans-serif" font-size="11" font-weight="bold" lengthAdjust="spacing" textLength="145" x="263.5" y="275.4683">[no OCID is bound yet]</text><polygon fill="#334155" points="1015.5,296.1953,1025.5,300.1953,1015.5,304.1953,1019.5,300.1953" style="stroke:#334155;stroke-width:1.0;"/><line style="stroke:#334155;stroke-width:1.0;" x1="342.5" x2="1021.5" y1="300.1953" y2="300.1953"/><text fill="#000000" font-family="sans-serif" font-size="13" font-weight="bold" lengthAdjust="spacing" textLength="9" x="349.5" y="295.1294">4</text><text fill="#000000" font-family="sans-serif" font-size="13" lengthAdjust="spacing" textLength="193" x="362.5" y="295.1294">list resources by display name</text><path d="M268.5,315.1953 L345.5,315.1953 L345.5,322.3281 L335.5,332.3281 L268.5,332.3281 L268.5,315.1953 " fill="#F8FAFC" style="stroke:#475569;stroke-width:1.5;"/><rect fill="none" height="46.2656" style="stroke:#475569;stroke-width:1.5;" width="787" x="268.5" y="315.1953"/><text fill="#000000" font-family="sans-serif" font-size="13" font-weight="bold" lengthAdjust="spacing" textLength="32" x="283.5" y="328.2622">loop</text><text fill="#000000" font-family="sans-serif" font-size="11" font-weight="bold" lengthAdjust="spacing" textLength="263" x="360.5" y="327.4058">[later pages until a match or exhaustion]</text><polygon fill="#334155" points="1015.5,349.4609,1025.5,353.4609,1015.5,357.4609,1019.5,353.4609" style="stroke:#334155;stroke-width:1.0;"/><line style="stroke:#334155;stroke-width:1.0;" x1="342.5" x2="1021.5" y1="353.4609" y2="353.4609"/><text fill="#000000" font-family="sans-serif" font-size="13" font-weight="bold" lengthAdjust="spacing" textLength="9" x="349.5" y="348.395">5</text><text fill="#000000" font-family="sans-serif" font-size="13" lengthAdjust="spacing" textLength="147" x="362.5" y="348.395">fetch the next list page</text><path d="M268.5,375.4609 L332.5,375.4609 L332.5,382.5938 L322.5,392.5938 L268.5,392.5938 L268.5,375.4609 " fill="#F8FAFC" style="stroke:#475569;stroke-width:1.5;"/><rect fill="none" height="119.3359" style="stroke:#475569;stroke-width:1.5;" width="909" x="268.5" y="375.4609"/><text fill="#000000" font-family="sans-serif" font-size="13" font-weight="bold" lengthAdjust="spacing" textLength="19" x="283.5" y="388.5278">alt</text><text fill="#000000" font-family="sans-serif" font-size="11" font-weight="bold" lengthAdjust="spacing" textLength="162" x="347.5" y="387.6714">[existing resource found]</text><polygon fill="#334155" points="1099.5,409.7266,1109.5,413.7266,1099.5,417.7266,1103.5,413.7266" style="stroke:#334155;stroke-width:1.0;"/><line style="stroke:#334155;stroke-width:1.0;" x1="342.5" x2="1105.5" y1="413.7266" y2="413.7266"/><text fill="#000000" font-family="sans-serif" font-size="13" font-weight="bold" lengthAdjust="spacing" textLength="9" x="349.5" y="408.6606">6</text><text fill="#000000" font-family="sans-serif" font-size="13" lengthAdjust="spacing" textLength="221" x="362.5" y="408.6606">persist the resolved OCID in status</text><line style="stroke:#475569;stroke-width:1.0;stroke-dasharray:2.0,2.0;" x1="268.5" x2="1177.5" y1="422.7266" y2="422.7266"/><text fill="#000000" font-family="sans-serif" font-size="11" font-weight="bold" lengthAdjust="spacing" textLength="182" x="273.5" y="432.937">[no existing resource found]</text><polygon fill="#334155" points="1015.5,453.6641,1025.5,457.6641,1015.5,461.6641,1019.5,457.6641" style="stroke:#334155;stroke-width:1.0;"/><line style="stroke:#334155;stroke-width:1.0;" x1="342.5" x2="1021.5" y1="457.6641" y2="457.6641"/><text fill="#000000" font-family="sans-serif" font-size="13" font-weight="bold" lengthAdjust="spacing" textLength="9" x="349.5" y="452.5981">7</text><text fill="#000000" font-family="sans-serif" font-size="13" lengthAdjust="spacing" textLength="152" x="362.5" y="452.5981">create the OCI resource</text><polygon fill="#334155" points="1099.5,482.7969,1109.5,486.7969,1099.5,490.7969,1103.5,486.7969" style="stroke:#334155;stroke-width:1.0;"/><line style="stroke:#334155;stroke-width:1.0;" x1="342.5" x2="1105.5" y1="486.7969" y2="486.7969"/><text fill="#000000" font-family="sans-serif" font-size="13" font-weight="bold" lengthAdjust="spacing" textLength="9" x="349.5" y="481.731">8</text><text fill="#000000" font-family="sans-serif" font-size="13" lengthAdjust="spacing" textLength="216" x="362.5" y="481.731">persist the created OCID in status</text><path d="M10,522.7969 L74,522.7969 L74,529.9297 L64,539.9297 L10,539.9297 L10,522.7969 " fill="#F8FAFC" style="stroke:#475569;stroke-width:1.5;"/><rect fill="none" height="526.8047" style="stroke:#475569;stroke-width:1.5;" width="1177.5" x="10" y="522.7969"/><text fill="#000000" font-family="sans-serif" font-size="13" font-weight="bold" lengthAdjust="spacing" textLength="19" x="25" y="535.8638">alt</text><text fill="#000000" font-family="sans-serif" font-size="11" font-weight="bold" lengthAdjust="spacing" textLength="120" x="89" y="535.0073">[delete requested]</text><path d="M268.5,546.9297 L361.5,546.9297 L361.5,554.0625 L351.5,564.0625 L268.5,564.0625 L268.5,546.9297 " fill="#F8FAFC" style="stroke:#475569;stroke-width:1.5;"/><rect fill="none" height="104.5313" style="stroke:#475569;stroke-width:1.5;" width="909" x="268.5" y="546.9297"/><text fill="#000000" font-family="sans-serif" font-size="13" font-weight="bold" lengthAdjust="spacing" textLength="48" x="283.5" y="559.9966">Delete</text><polygon fill="#334155" points="1015.5,581.1953,1025.5,585.1953,1015.5,589.1953,1019.5,585.1953" style="stroke:#334155;stroke-width:1.0;"/><line style="stroke:#334155;stroke-width:1.0;" x1="342.5" x2="1021.5" y1="585.1953" y2="585.1953"/><text fill="#000000" font-family="sans-serif" font-size="13" font-weight="bold" lengthAdjust="spacing" textLength="9" x="349.5" y="580.1294">9</text><text fill="#000000" font-family="sans-serif" font-size="13" lengthAdjust="spacing" textLength="114" x="362.5" y="580.1294">submit OCI delete</text><polygon fill="#334155" points="1015.5,610.3281,1025.5,614.3281,1015.5,618.3281,1019.5,614.3281" style="stroke:#334155;stroke-width:1.0;"/><line style="stroke:#334155;stroke-width:1.0;" x1="342.5" x2="1021.5" y1="614.3281" y2="614.3281"/><text fill="#000000" font-family="sans-serif" font-size="13" font-weight="bold" lengthAdjust="spacing" textLength="18" x="349.5" y="609.2622">10</text><text fill="#000000" font-family="sans-serif" font-size="13" lengthAdjust="spacing" textLength="528" x="371.5" y="609.2622">Confirm deletion with follow-up GetDrg calls until the resource is gone or not found.</text><polygon fill="#334155" points="1099.5,639.4609,1109.5,643.4609,1099.5,647.4609,1103.5,643.4609" style="stroke:#334155;stroke-width:1.0;"/><line style="stroke:#334155;stroke-width:1.0;" x1="342.5" x2="1105.5" y1="643.4609" y2="643.4609"/><text fill="#000000" font-family="sans-serif" font-size="13" font-weight="bold" lengthAdjust="spacing" textLength="18" x="349.5" y="638.395">11</text><text fill="#000000" font-family="sans-serif" font-size="13" lengthAdjust="spacing" textLength="289" x="371.5" y="638.395">remove the finalizer after delete confirmation</text><line style="stroke:#475569;stroke-width:1.0;stroke-dasharray:2.0,2.0;" x1="10" x2="1187.5" y1="659.4609" y2="659.4609"/><text fill="#000000" font-family="sans-serif" font-size="11" font-weight="bold" lengthAdjust="spacing" textLength="147" x="15" y="669.6714">[OCI state is retryable]</text><polygon fill="#334155" points="67.5,690.3984,57.5,694.3984,67.5,698.3984,63.5,694.3984" style="stroke:#334155;stroke-width:1.0;"/><line style="stroke:#334155;stroke-width:1.0;stroke-dasharray:2.0,2.0;" x1="61.5" x2="341.5" y1="694.3984" y2="694.3984"/><text fill="#000000" font-family="sans-serif" font-size="13" font-weight="bold" lengthAdjust="spacing" textLength="18" x="73.5" y="689.3325">12</text><text fill="#000000" font-family="sans-serif" font-size="13" lengthAdjust="spacing" textLength="110" x="95.5" y="689.3325">requeue required</text><line style="stroke:#475569;stroke-width:1.0;stroke-dasharray:2.0,2.0;" x1="10" x2="1187.5" y1="703.3984" y2="703.3984"/><text fill="#000000" font-family="sans-serif" font-size="11" font-weight="bold" lengthAdjust="spacing" textLength="200" x="15" y="713.6089">[OCI state is failed or terminal]</text><polygon fill="#334155" points="67.5,734.3359,57.5,738.3359,67.5,742.3359,63.5,738.3359" style="stroke:#334155;stroke-width:1.0;"/><line style="stroke:#334155;stroke-width:1.0;stroke-dasharray:2.0,2.0;" x1="61.5" x2="341.5" y1="738.3359" y2="738.3359"/><text fill="#000000" font-family="sans-serif" font-size="13" font-weight="bold" lengthAdjust="spacing" textLength="18" x="73.5" y="733.27">13</text><text fill="#000000" font-family="sans-serif" font-size="13" lengthAdjust="spacing" textLength="240" x="95.5" y="733.27">unsuccessful terminal reconcile result</text><line style="stroke:#475569;stroke-width:1.0;stroke-dasharray:2.0,2.0;" x1="10" x2="1187.5" y1="747.3359" y2="747.3359"/><text fill="#000000" font-family="sans-serif" font-size="11" font-weight="bold" lengthAdjust="spacing" textLength="203" x="15" y="757.5464">[OCI state is active and usable]</text><path d="M258.5,768.1406 L405.5,768.1406 L405.5,775.2734 L395.5,785.2734 L258.5,785.2734 L258.5,768.1406 " fill="#F8FAFC" style="stroke:#475569;stroke-width:1.5;"/><rect fill="none" height="245.3281" style="stroke:#475569;stroke-width:1.5;" width="817.5" x="258.5" y="768.1406"/><text fill="#000000" font-family="sans-serif" font-size="13" font-weight="bold" lengthAdjust="spacing" textLength="102" x="273.5" y="781.2075">Drift handling</text><path d="M304,790.2734 L304,860.2734 L1066,860.2734 L1066,800.2734 L1056,790.2734 L304,790.2734 " fill="#FEFFDD" style="stroke:#181818;stroke-width:0.5;"/><path d="M1056,790.2734 L1056,800.2734 L1066,800.2734 L1056,790.2734 " fill="#FEFFDD" style="stroke:#181818;stroke-width:0.5;"/><text fill="#000000" font-family="sans-serif" font-size="13" lengthAdjust="spacing" textLength="171" x="310" y="807.3403">Supported update surface:</text><text fill="#000000" font-family="sans-serif" font-size="13" lengthAdjust="spacing" textLength="94" x="310" y="822.4731">- display name</text><text fill="#000000" font-family="sans-serif" font-size="13" lengthAdjust="spacing" textLength="96" x="310" y="837.606">- freeform tags</text><text fill="#000000" font-family="sans-serif" font-size="13" lengthAdjust="spacing" textLength="88" x="310" y="852.7388">- defined tags</text><polygon fill="#334155" points="1015.5,882.9375,1025.5,886.9375,1015.5,890.9375,1019.5,886.9375" style="stroke:#334155;stroke-width:1.0;"/><line style="stroke:#334155;stroke-width:1.0;" x1="342.5" x2="1021.5" y1="886.9375" y2="886.9375"/><text fill="#000000" font-family="sans-serif" font-size="13" font-weight="bold" lengthAdjust="spacing" textLength="18" x="349.5" y="881.8716">14</text><text fill="#000000" font-family="sans-serif" font-size="13" lengthAdjust="spacing" textLength="560" x="371.5" y="881.8716">Continue full pagination until a display-name match is found or all pages are exhausted.</text><polygon fill="#334155" points="1015.5,912.0703,1025.5,916.0703,1015.5,920.0703,1019.5,916.0703" style="stroke:#334155;stroke-width:1.0;"/><line style="stroke:#334155;stroke-width:1.0;" x1="342.5" x2="1021.5" y1="916.0703" y2="916.0703"/><text fill="#000000" font-family="sans-serif" font-size="13" font-weight="bold" lengthAdjust="spacing" textLength="18" x="349.5" y="911.0044">15</text><text fill="#000000" font-family="sans-serif" font-size="13" lengthAdjust="spacing" textLength="573" x="371.5" y="911.0044">Reuse the resolved OCID for all later update and delete operations once the DRG is found.</text><polygon fill="#334155" points="1015.5,941.2031,1025.5,945.2031,1015.5,949.2031,1019.5,945.2031" style="stroke:#334155;stroke-width:1.0;"/><line style="stroke:#334155;stroke-width:1.0;" x1="342.5" x2="1021.5" y1="945.2031" y2="945.2031"/><text fill="#000000" font-family="sans-serif" font-size="13" font-weight="bold" lengthAdjust="spacing" textLength="18" x="349.5" y="940.1372">16</text><text fill="#000000" font-family="sans-serif" font-size="13" lengthAdjust="spacing" textLength="639" x="371.5" y="940.1372">Move the DRG compartment before calling the mutable update path when compartment drift exists.</text><path d="M268.5,960.2031 L338.5,960.2031 L338.5,967.3359 L328.5,977.3359 L268.5,977.3359 L268.5,960.2031 " fill="#F8FAFC" style="stroke:#475569;stroke-width:1.5;"/><rect fill="none" height="46.2656" style="stroke:#475569;stroke-width:1.5;" width="787" x="268.5" y="960.2031"/><text fill="#000000" font-family="sans-serif" font-size="13" font-weight="bold" lengthAdjust="spacing" textLength="25" x="283.5" y="973.27">opt</text><text fill="#000000" font-family="sans-serif" font-size="11" font-weight="bold" lengthAdjust="spacing" textLength="258" x="353.5" y="972.4136">[supported drift or collection diff exists]</text><polygon fill="#334155" points="1015.5,994.4688,1025.5,998.4688,1015.5,1002.4688,1019.5,998.4688" style="stroke:#334155;stroke-width:1.0;"/><line style="stroke:#334155;stroke-width:1.0;" x1="342.5" x2="1021.5" y1="998.4688" y2="998.4688"/><text fill="#000000" font-family="sans-serif" font-size="13" font-weight="bold" lengthAdjust="spacing" textLength="18" x="349.5" y="993.4028">17</text><text fill="#000000" font-family="sans-serif" font-size="13" lengthAdjust="spacing" textLength="277" x="371.5" y="993.4028">apply the supported in-place mutation path</text><polygon fill="#334155" points="67.5,1037.6016,57.5,1041.6016,67.5,1045.6016,63.5,1041.6016" style="stroke:#334155;stroke-width:1.0;"/><line style="stroke:#334155;stroke-width:1.0;stroke-dasharray:2.0,2.0;" x1="61.5" x2="341.5" y1="1041.6016" y2="1041.6016"/><text fill="#000000" font-family="sans-serif" font-size="13" font-weight="bold" lengthAdjust="spacing" textLength="18" x="73.5" y="1036.5356">18</text><text fill="#000000" font-family="sans-serif" font-size="13" lengthAdjust="spacing" textLength="169" x="95.5" y="1036.5356">successful active reconcile</text><path d="M31,1061.6016 L31,1192.6016 L1051,1192.6016 L1051,1071.6016 L1041,1061.6016 L31,1061.6016 " fill="#FEFFDD" style="stroke:#181818;stroke-width:0.5;"/><path d="M1041,1061.6016 L1041,1071.6016 L1051,1071.6016 L1041,1061.6016 " fill="#FEFFDD" style="stroke:#181818;stroke-width:0.5;"/><text fill="#000000" font-family="sans-serif" font-size="13" lengthAdjust="spacing" textLength="105" x="37" y="1078.6685">Boundary notes:</text><text fill="#000000" font-family="sans-serif" font-size="13" lengthAdjust="spacing" textLength="428" x="37" y="1093.8013">- Pagination and field-level drift are still documented primarily in Go</text><text fill="#000000" font-family="sans-serif" font-size="13" lengthAdjust="spacing" textLength="157" x="53" y="1108.9341">code and property tests.</text><text fill="#000000" font-family="sans-serif" font-size="13" lengthAdjust="spacing" textLength="108" x="37" y="1124.0669">Sequence notes:</text><text fill="#000000" font-family="sans-serif" font-size="13" lengthAdjust="spacing" textLength="444" x="37" y="1139.1997">- Later-page matches must keep using the resolved OCID rather than</text><text fill="#000000" font-family="sans-serif" font-size="13" lengthAdjust="spacing" textLength="165" x="53" y="1154.3325">restarting the lookup flow.</text><text fill="#000000" font-family="sans-serif" font-size="13" lengthAdjust="spacing" textLength="166" x="37" y="1169.4653">Controller-local invariants:</text><text fill="#000000" font-family="sans-serif" font-size="13" lengthAdjust="spacing" textLength="229" x="37" y="1184.5981">- StatusPresentUsesStatusInvariant</text><!--SRC=[bLRRRXit47tVhnYuhrMHrfSuVYWWNsG4SLh3RZ-0sfsL27F9BScLenRvzvuXkP9yaTqAi0HpxcVE31brD4o_NtocoxjhkkFQsLhZv9x_6jZMNAaXEZjqS_PLUD2sLrvr59QgSO_QBgXL9l2Ev5pL3mll1jjSEECy_J1BdnsDgVVkiGWF3uz-FZxU4JRSgi74F_XRd1gzi1tRI8RRk1kyf4R_L4ItoaTTwrxP-3BqwMmwktYcv7p3lYWSVJm-Fla4XHlTyess_4JwwMXwU7wwAzrJ6z4rJllNNMVHtjIcTNJ-XVZgm-oNsTL6lElum-pZoSbLzRrI8gA32sUZTyQmFo0LQFjlrM-hfeDxzYiDpBuggnP5jvoLewfHKSrLO3e07P82VdTElmmWWUN8WQQtMU7BQQYgRKYQ_FhCwHdv3QKQ3jfpGw7dcfHjoEWLKuWg3g5wQYQEu5kiLKCNTqKhMRNQAgF_Xf8SSbK9SZtTEFU07z6OQzi0EsKYHGze4HD8yRVU08ueLLr2AAxNEDKX1cWJlKm1ccUqOBXPCjM3zy96py4D7b3Er_HWtQCbtU1SjneO4Z7cWQpBKNIWkRILrXpVYc6GnCPn4C-D3hrHQxAgusHfdEl9e61FFMm33OXfI56dOhtC1IxL4A9sDXdi3TQo64X95cEMOulBPCK9kWnUmaQ6V5DoAyNizPuwrhCFub7yYvrP0VuCXXsRdG8LdFvla5H2ZUP5JZ5aTOsc_pspxE3rn59m-PQ_Ie1es83s28F54s06UIRTPHAyrTampBlCkUBbBMLCKgjzbpNHHthKSGayZ76F4uIxvdZf5rGhOyR-Zp0dv42tXRCiPB0kPY1_gjw0n7FdLXd7xLYfLaXMQgvpIghGAi4YdPE2qln9KC_HhzNSI77F8o7KTa6SPGo7ZALiWrUyjGhR8eqiykWahVVT3ZOCDKOdj8FPcEti7a24Q-MLODYYieLaRGoXb51wwtKRQGc90JqJYhyv604m_ooT7sLH5kuDVU-yK6le6uaH1j-gci-AVF9oikMmzSojG-kZMeIjAgChSBKv1FpIsVT8X7a2n832o603YaIcSM6K12QIGDaUWdhQKm1TPIji6ELvN2gybqSfvXqFWLyP-RRuotkh829O5tOvp6HABf2J6rqyo3japEVDe5z7wef5xJgvxz9xOIvGSXeJMIoYqWrHcZkcq2lCrUEIxHEx9dKytmWvikiZ6ZXsDCjHKYsignEeZMxRtKjaRxQgxyqwvR9rgEq4dQXpUicT9FPi2xtB_Htc5pPlU9zNs9QsMxD2sND1MVbrObKGaaxmMjfG9j-tR9g9uHMRWe3m0ZiRVMrSFGXqgANtkbDUeqQiqsjNmAXTanlUU-br109Sq1rVcBkXRuGd4s5V9YP8s85zzC3SOpx7RZub6HYqH6qHergYGXxbyLFKJNuQjDYY4dWBmiGua0G9hv0vdaabY_jq6Tp22qhxCt381vz7jMepXly2]--></g></svg>