<?xml version="1.0" encoding="UTF-8" standalone="no"?><svg xmlns="http://www.w3.org/2000/svg" xmlns:xlink="http://www.w3.org/1999/xlink" contentStyleType="text/css" height="408px" preserveAspectRatio="none" style="width:2295px;height:408px;background:#FFFFFF;" version="1.1" viewBox="0 0 2295 408" width="2295px" zoomAndPan="magnify"><defs/><g><text fill="#000000" font-family="sans-serif" font-size="14" font-weight="bold" lengthAdjust="spacing" textLength="262" x="1009.61" y="22.9951">OCI DRG Reconcile State Machine</text><ellipse cx="16" cy="252.2969" fill="#222222" rx="10" ry="10" style="stroke:none;stroke-width:1.0;"/><g id="Observe"><rect fill="#F8FAFC" height="50.2656" rx="6" ry="6" style="stroke:#475569;stroke-width:0.5;" width="329" x="86" y="227.2969"/><line style="stroke:#475569;stroke-width:0.5;" x1="86" x2="415" y1="253.5938" y2="253.5938"/><text fill="#0F172A" font-family="sans-serif" font-size="14" lengthAdjust="spacing" textLength="58" x="221.5" y="245.292">Observe</text><text fill="#0F172A" font-family="sans-serif" font-size="12" lengthAdjust="spacing" textLength="309" x="91" y="269.7324">read spec, status, delete intent, and OCI lifecycle</text></g><rect fill="#F8FAFC" height="40" rx="6" ry="6" style="stroke:#475569;stroke-width:0.5;" width="122" x="475" y="232.2969"/><text fill="#0F172A" font-family="sans-serif" font-size="14" lengthAdjust="spacing" textLength="112" x="480" y="257.1436">ResolveByName</text><rect fill="#F8FAFC" height="40" rx="6" ry="6" style="stroke:#475569;stroke-width:0.5;" width="130" x="657" y="232.2969"/><text fill="#0F172A" font-family="sans-serif" font-size="14" lengthAdjust="spacing" textLength="120" x="662" y="257.1436">PaginatedLookup</text><rect fill="#F8FAFC" height="40" rx="6" ry="6" style="stroke:#475569;stroke-width:0.5;" width="111" x="847" y="149.2969"/><text fill="#0F172A" font-family="sans-serif" font-size="14" lengthAdjust="spacing" textLength="101" x="852" y="174.1436">EvaluateReady</text><rect fill="#F8FAFC" height="40" rx="6" ry="6" style="stroke:#475569;stroke-width:0.5;" width="75" x="1051.5" y="232.2969"/><text fill="#0F172A" font-family="sans-serif" font-size="14" lengthAdjust="spacing" textLength="65" x="1056.5" y="257.1436">Retryable</text><rect fill="#F8FAFC" height="40" rx="6" ry="6" style="stroke:#475569;stroke-width:0.5;" width="50" x="1243.5" y="315.2969"/><text fill="#0F172A" font-family="sans-serif" font-size="14" lengthAdjust="spacing" textLength="40" x="1248.5" y="340.1436">Failed</text><rect fill="#F8FAFC" height="40" rx="6" ry="6" style="stroke:#475569;stroke-width:0.5;" width="142" x="1018" y="139.2969"/><text fill="#0F172A" font-family="sans-serif" font-size="14" lengthAdjust="spacing" textLength="132" x="1023" y="164.1436">MoveCompartment</text><rect fill="#F8FAFC" height="40" rx="6" ry="6" style="stroke:#475569;stroke-width:0.5;" width="97" x="1220" y="139.2969"/><text fill="#0F172A" font-family="sans-serif" font-size="14" lengthAdjust="spacing" textLength="87" x="1225" y="164.1436">ApplyUpdate</text><rect fill="#F8FAFC" height="40" rx="6" ry="6" style="stroke:#475569;stroke-width:0.5;" width="53" x="1377" y="139.2969"/><text fill="#0F172A" font-family="sans-serif" font-size="14" lengthAdjust="spacing" textLength="43" x="1382" y="164.1436">Ready</text><rect fill="#F8FAFC" height="40" rx="6" ry="6" style="stroke:#475569;stroke-width:0.5;" width="113" x="1610" y="270.2969"/><text fill="#0F172A" font-family="sans-serif" font-size="14" lengthAdjust="spacing" textLength="103" x="1615" y="295.1436">DeletePending</text><rect fill="#F8FAFC" height="40" rx="6" ry="6" style="stroke:#475569;stroke-width:0.5;" width="65" x="2051.5" y="217.2969"/><text fill="#0F172A" font-family="sans-serif" font-size="14" lengthAdjust="spacing" textLength="55" x="2056.5" y="242.1436">Deleted</text><g id="elem_GMN31"><path d="M1490,49.2969 L1490,148.6269 L1430.17,152.6269 L1490,156.6269 L1490,228.8906 A6,6 0 0 0 1496,234.8906 L1837,234.8906 A6,6 0 0 0 1843,228.8906 L1843,53.2969 L1833,43.2969 L1496,43.2969 A6,6 0 0 0 1490,49.2969 " fill="#FFF7ED" style="stroke:#181818;stroke-width:0.5;"/><path d="M1833,43.2969 L1833,50.2969 A3,3 0 0 0 1836,53.2969 L1843,53.2969 L1833,43.2969 " fill="#FFF7ED" style="stroke:#181818;stroke-width:0.5;"/><text fill="#0F172A" font-family="sans-serif" font-size="13" lengthAdjust="spacing" textLength="69" x="1496" y="60.3638">Archetype:</text><text fill="#0F172A" font-family="sans-serif" font-size="13" lengthAdjust="spacing" textLength="207" x="1496" y="75.4966">- resolved-drift-delete-paginated</text><text fill="#0F172A" font-family="sans-serif" font-size="13" lengthAdjust="spacing" textLength="102" x="1496" y="90.6294">Update surface:</text><text fill="#0F172A" font-family="sans-serif" font-size="13" lengthAdjust="spacing" textLength="94" x="1496" y="105.7622">- display name</text><text fill="#0F172A" font-family="sans-serif" font-size="13" lengthAdjust="spacing" textLength="96" x="1496" y="120.895">- freeform tags</text><text fill="#0F172A" font-family="sans-serif" font-size="13" lengthAdjust="spacing" textLength="88" x="1496" y="136.0278">- defined tags</text><text fill="#0F172A" font-family="sans-serif" font-size="13" lengthAdjust="spacing" textLength="175" x="1496" y="151.1606">Reject before mutate: none</text><text fill="#0F172A" font-family="sans-serif" font-size="13" lengthAdjust="spacing" textLength="105" x="1496" y="166.2935">Boundary notes:</text><text fill="#0F172A" font-family="sans-serif" font-size="13" lengthAdjust="spacing" textLength="332" x="1496" y="181.4263">- Pagination and field-level drift are still documented</text><text fill="#0F172A" font-family="sans-serif" font-size="13" lengthAdjust="spacing" textLength="253" x="1512" y="196.5591">primarily in Go code and property tests.</text><text fill="#0F172A" font-family="sans-serif" font-size="13" lengthAdjust="spacing" textLength="166" x="1496" y="211.6919">Controller-local invariants:</text><text fill="#0F172A" font-family="sans-serif" font-size="13" lengthAdjust="spacing" textLength="229" x="1496" y="226.8247">- StatusPresentUsesStatusInvariant</text></g><g id="elem_GMN34"><path d="M1903,298.7969 L1903,297.5469 L1723.24,301.5469 L1903,305.5469 L1903,387.5938 A6,6 0 0 0 1909,393.5938 L2259,393.5938 A6,6 0 0 0 2265,387.5938 L2265,302.7969 L2255,292.7969 L1909,292.7969 A6,6 0 0 0 1903,298.7969 " fill="#FFF7ED" style="stroke:#181818;stroke-width:0.5;"/><path d="M2255,292.7969 L2255,299.7969 A3,3 0 0 0 2258,302.7969 L2265,302.7969 L2255,292.7969 " fill="#FFF7ED" style="stroke:#181818;stroke-width:0.5;"/><text fill="#0F172A" font-family="sans-serif" font-size="13" lengthAdjust="spacing" textLength="90" x="1909" y="309.8638">Delete states:</text><text fill="#0F172A" font-family="sans-serif" font-size="13" lengthAdjust="spacing" textLength="102" x="1909" y="324.9966">- DeletePending</text><text fill="#0F172A" font-family="sans-serif" font-size="13" lengthAdjust="spacing" textLength="59" x="1909" y="340.1294">- Deleted</text><text fill="#0F172A" font-family="sans-serif" font-size="13" lengthAdjust="spacing" textLength="103" x="1909" y="355.2622">Delete workflow:</text><text fill="#0F172A" font-family="sans-serif" font-size="13" lengthAdjust="spacing" textLength="341" x="1909" y="370.395">- Confirm deletion with follow-up GetDrg calls until the</text><text fill="#0F172A" font-family="sans-serif" font-size="13" lengthAdjust="spacing" textLength="192" x="1925" y="385.5278">resource is gone or not found.</text></g><!--link *start to Observe--><g id="link_*start_Observe"><path d="M26.08,252.2969 C26.08,252.2969 80.84,252.2969 80.84,252.2969 " fill="none" id="*start-to-Observe" style="stroke:#181818;stroke-width:1.0;"/><polygon fill="#181818" points="85.84,252.2969,76.84,248.2969,80.84,252.2969,76.84,256.2969,85.84,252.2969" style="stroke:#181818;stroke-width:1.0;"/></g><!--link Observe to ResolveByName--><g id="link_Observe_ResolveByName"><path d="M415.34,252.2969 C415.34,252.2969 469.86,252.2969 469.86,252.2969 " fill="none" id="Observe-to-ResolveByName" style="stroke:#181818;stroke-width:1.0;"/><polygon fill="#181818" points="474.86,252.2969,465.86,248.2969,469.86,252.2969,465.86,256.2969,474.86,252.2969" style="stroke:#181818;stroke-width:1.0;"/><text fill="#000000" font-family="sans-serif" font-size="13" lengthAdjust="spacing" textLength="163" x="443.6" y="261.1138">status/spec OCID missing</text></g><!--link ResolveByName to PaginatedLookup--><g id="link_ResolveByName_PaginatedLookup"><path d="M597.16,252.2969 C597.16,252.2969 651.96,252.2969 651.96,252.2969 " fill="none" id="ResolveByName-to-PaginatedLookup" style="stroke:#181818;stroke-width:1.0;"/><polygon fill="#181818" points="656.96,252.2969,647.96,248.2969,651.96,252.2969,647.96,256.2969,656.96,252.2969" style="stroke:#181818;stroke-width:1.0;"/><text fill="#000000" font-family="sans-serif" font-size="13" lengthAdjust="spacing" textLength="219" x="625.56" y="261.1138">continue searching later list pages</text></g><!--link PaginatedLookup to EvaluateReady--><g id="link_PaginatedLookup_EvaluateReady"><path d="M787.09,242.2969 C838.98,242.2969 903,242.2969 903,242.2969 C903,242.2969 903,194.6269 903,194.6269 " fill="none" id="PaginatedLookup-to-EvaluateReady" style="stroke:#181818;stroke-width:1.0;"/><polygon fill="#181818" points="903,189.6269,899,198.6269,903,194.6269,907,198.6269,903,189.6269" style="stroke:#181818;stroke-width:1.0;"/><text fill="#000000" font-family="sans-serif" font-size="13" lengthAdjust="spacing" textLength="148" x="869.88" y="238.3638">OCI state in AVAILABLE</text></g><!--link PaginatedLookup to Retryable--><g id="link_PaginatedLookup_Retryable"><path d="M787.19,252.2969 C787.19,252.2969 1046.33,252.2969 1046.33,252.2969 " fill="none" id="PaginatedLookup-to-Retryable" style="stroke:#181818;stroke-width:1.0;"/><polygon fill="#181818" points="1051.33,252.2969,1042.33,248.2969,1046.33,252.2969,1042.33,256.2969,1051.33,252.2969" style="stroke:#181818;stroke-width:1.0;"/><text fill="#000000" font-family="sans-serif" font-size="13" lengthAdjust="spacing" textLength="246" x="917.76" y="261.1138">OCI state in PROVISIONING, UPDATING</text></g><!--link PaginatedLookup to Failed--><g id="link_PaginatedLookup_Failed"><path d="M722,272.3569 C722,294.9669 722,328.6269 722,328.6269 C722,328.6269 1238.24,328.6269 1238.24,328.6269 " fill="none" id="PaginatedLookup-to-Failed" style="stroke:#181818;stroke-width:1.0;"/><polygon fill="#181818" points="1243.24,328.6269,1234.24,324.6269,1238.24,328.6269,1234.24,332.6269,1243.24,328.6269" style="stroke:#181818;stroke-width:1.0;"/><text fill="#000000" font-family="sans-serif" font-size="13" lengthAdjust="spacing" textLength="188" x="762.98" y="341.6938">OCI state in FAILED, DELETED</text></g><!--link EvaluateReady to MoveCompartment--><g id="link_EvaluateReady_MoveCompartment"><path d="M958.2,164.2969 C958.2,164.2969 1012.67,164.2969 1012.67,164.2969 " fill="none" id="EvaluateReady-to-MoveCompartment" style="stroke:#181818;stroke-width:1.0;"/><polygon fill="#181818" points="1017.67,164.2969,1008.67,160.2969,1012.67,164.2969,1008.67,168.2969,1017.67,164.2969" style="stroke:#181818;stroke-width:1.0;"/><text fill="#000000" font-family="sans-serif" font-size="13" lengthAdjust="spacing" textLength="158" x="826.44" y="160.3638">continue active reconcile</text></g><!--link MoveCompartment to ApplyUpdate--><g id="link_MoveCompartment_ApplyUpdate"><path d="M1160.2,159.2969 C1160.2,159.2969 1214.76,159.2969 1214.76,159.2969 " fill="none" id="MoveCompartment-to-ApplyUpdate" style="stroke:#181818;stroke-width:1.0;"/><polygon fill="#181818" points="1219.76,159.2969,1210.76,155.2969,1214.76,159.2969,1210.76,163.2969,1219.76,159.2969" style="stroke:#181818;stroke-width:1.0;"/><text fill="#000000" font-family="sans-serif" font-size="13" lengthAdjust="spacing" textLength="221" x="965.48" y="172.3638">continue after compartment move</text></g><!--link ApplyUpdate to Ready--><g id="link_ApplyUpdate_Ready"><path d="M1317.24,152.6269 C1317.24,152.6269 1371.81,152.6269 1371.81,152.6269 " fill="none" id="ApplyUpdate-to-Ready" style="stroke:#181818;stroke-width:1.0;"/><polygon fill="#181818" points="1376.81,152.6269,1367.81,148.6269,1371.81,152.6269,1367.81,156.6269,1376.81,152.6269" style="stroke:#181818;stroke-width:1.0;"/><text fill="#000000" font-family="sans-serif" font-size="13" lengthAdjust="spacing" textLength="231" x="1112.52" y="148.6938">supported mutation path completes</text></g><!--link Ready to Ready--><g id="link_Ready_Ready"><path d="M1376.9,165.9669 C1362.25,165.9669 1347,165.9669 1347,165.9669 C1347,165.9669 1347,184.2969 1347,184.2969 C1347,184.2969 1460,184.2969 1460,184.2969 C1460,184.2969 1460,165.9669 1460,165.9669 C1460,165.9669 1435.1,165.9669 1435.1,165.9669 " fill="none" id="Ready-to-Ready" style="stroke:#181818;stroke-width:1.0;"/><polygon fill="#181818" points="1430.1,165.9669,1439.1,169.9669,1435.1,165.9669,1439.1,161.9669,1430.1,165.9669" style="stroke:#181818;stroke-width:1.0;"/><text fill="#000000" font-family="sans-serif" font-size="13" lengthAdjust="spacing" textLength="170" x="1225" y="202.3638">no supported drift remains</text></g><!--link Retryable to Retryable--><g id="link_Retryable_Retryable"><path d="M1051.5,262.2969 C1042.28,262.2969 1035,262.2969 1035,262.2969 C1035,262.2969 1035,283.8969 1035,283.8969 C1035,283.8969 1144,283.8969 1144,283.8969 C1144,283.8969 1144,261.6269 1144,261.6269 C1144,261.6269 1131.6,261.6269 1131.6,261.6269 " fill="none" id="Retryable-to-Retryable" style="stroke:#181818;stroke-width:1.0;"/><polygon fill="#181818" points="1126.6,261.6269,1135.6,265.6269,1131.6,261.6269,1135.6,257.6269,1126.6,261.6269" style="stroke:#181818;stroke-width:1.0;"/><text fill="#000000" font-family="sans-serif" font-size="13" lengthAdjust="spacing" textLength="159" x="922.79" y="301.9638">OCI remains nonterminal</text></g><!--link Failed to Failed--><g id="link_Failed_Failed"><path d="M1243.15,341.9669 C1236.92,341.9669 1232,341.9669 1232,341.9669 C1232,341.9669 1232,374.5469 1232,374.5469 C1232,374.5469 1306,374.5469 1306,374.5469 C1306,374.5469 1306,335.2969 1306,335.2969 C1306,335.2969 1298.72,335.2969 1298.72,335.2969 " fill="none" id="Failed-to-Failed" style="stroke:#181818;stroke-width:1.0;"/><polygon fill="#181818" points="1293.72,335.2969,1302.72,339.2969,1298.72,335.2969,1302.72,331.2969,1293.72,335.2969" style="stroke:#181818;stroke-width:1.0;"/><text fill="#000000" font-family="sans-serif" font-size="13" lengthAdjust="spacing" textLength="135" x="1129.4" y="392.6138">OCI remains terminal</text></g><!--link Ready to DeletePending--><g id="link_Ready_DeletePending"><path d="M1404,179.5069 C1404,216.3169 1404,290.4969 1404,290.4969 C1404,290.4969 1604.86,290.4969 1604.86,290.4969 " fill="none" id="Ready-to-DeletePending" style="stroke:#181818;stroke-width:1.0;"/><polygon fill="#181818" points="1609.86,290.4969,1600.86,286.4969,1604.86,290.4969,1600.86,294.4969,1609.86,290.4969" style="stroke:#181818;stroke-width:1.0;"/><text fill="#000000" font-family="sans-serif" font-size="13" lengthAdjust="spacing" textLength="109" x="1338.94" y="286.5638">delete requested</text></g><!--link Retryable to DeletePending--><g id="link_Retryable_DeletePending"><path d="M1089,272.3369 C1089,284.2669 1089,297.0969 1089,297.0969 C1089,297.0969 1604.81,297.0969 1604.81,297.0969 " fill="none" id="Retryable-to-DeletePending" style="stroke:#181818;stroke-width:1.0;"/><polygon fill="#181818" points="1609.81,297.0969,1600.81,293.0969,1604.81,297.0969,1600.81,301.0969,1609.81,297.0969" style="stroke:#181818;stroke-width:1.0;"/><text fill="#000000" font-family="sans-serif" font-size="13" lengthAdjust="spacing" textLength="109" x="1224.53" y="310.1638">delete requested</text></g><!--link Failed to DeletePending--><g id="link_Failed_DeletePending"><path d="M1269,315.1069 C1269,308.9169 1269,303.6969 1269,303.6969 C1269,303.6969 1604.97,303.6969 1604.97,303.6969 " fill="none" id="Failed-to-DeletePending" style="stroke:#181818;stroke-width:1.0;"/><polygon fill="#181818" points="1609.97,303.6969,1600.97,299.6969,1604.97,303.6969,1600.97,307.6969,1609.97,303.6969" style="stroke:#181818;stroke-width:1.0;"/><text fill="#000000" font-family="sans-serif" font-size="13" lengthAdjust="spacing" textLength="109" x="1432.28" y="316.7638">delete requested</text></g><!--link DeletePending to Deleted--><g id="link_DeletePending_Deleted"><path d="M1723.24,281.5469 C1837.39,281.5469 2084,281.5469 2084,281.5469 C2084,281.5469 2084,262.3469 2084,262.3469 " fill="none" id="DeletePending-to-Deleted" style="stroke:#181818;stroke-width:1.0;"/><polygon fill="#181818" points="2084,257.3469,2080,266.3469,2084,262.3469,2088,266.3469,2084,257.3469" style="stroke:#181818;stroke-width:1.0;"/><text fill="#000000" font-family="sans-serif" font-size="13" lengthAdjust="spacing" textLength="373" x="1914.22" y="281.8638">OCI deletion is confirmed and the finalizer can be removed</text></g><!--link Deleted to Deleted--><g id="link_Deleted_Deleted"><path d="M2051.33,246.2969 C2020.19,246.2969 1978,246.2969 1978,246.2969 C1978,246.2969 1978,265.9669 1978,265.9669 C1978,265.9669 2191,265.9669 2191,265.9669 C2191,265.9669 2191,237.2969 2191,237.2969 C2191,237.2969 2121.68,237.2969 2121.68,237.2969 " fill="none" id="Deleted-to-Deleted" style="stroke:#181818;stroke-width:1.0;"/><polygon fill="#181818" points="2116.68,237.2969,2125.68,241.2969,2121.68,237.2969,2125.68,233.2969,2116.68,237.2969" style="stroke:#181818;stroke-width:1.0;"/><text fill="#000000" font-family="sans-serif" font-size="13" lengthAdjust="spacing" textLength="100" x="2092.99" y="257.0338">terminal stutter</text></g><!--SRC=[XLLDRzms4BtpLmpGMx5AapIk6nyAQ3zaBE3OYxMTIz03BOsqh2bI9QdTgaN-UsSeAQlTB92zs2Hd7j-yUKC55JJ2ms8Do-qjR36t9bUqynXaGFWayvqoA3IM0O85fwfTW48vp8EoHknKWO1r4peeqETEDN7RlohJI2Thy3jPs8Co5PHIUvoSQC8DNODWNTZPoO6phIbowmmwUFT-SZ2N-MiLJnTMMmS_PV4tYIYmbAqEJ_XFIBMgJ8qc07EVCeg5_IS0vjOLw0Qi3zTNLxzzfDtCcZ3ilStUNRzFEVAxct_FqcmXlavmZRq4E_zmzUlRZnSXiknwjRnuuLVnvUS_8Kd-W8SNZswFOlWBD-1G5k0Rp6UnajRFg6gDTBSoWSgTWJH5xATM9UPThe_PZBX5R_KUvzszh1cl1_c54Jbh2RNodlebJWCvTIChPKYyuixQrxQXP39BKAP5y2WTEwK2JG6ExlO16bcX5-TPZBJQIztItfQAwGY7wVPzKGRIp-dwBftVhIwcRZ6uJhveF4_RR1y-hn_N3_Vh-ziPF6-MwHFzTn4Za-JmuXmWesjNonaiLtUh9-hCAKdE-sJtkB0rzJj4Pqq4a3GFfB0RvqUSnt9-sZIwUsuAld2QMx9a-IIufcGnZUuhxyNoRTFGp501TKlSQTv8wR2B06m4BuwCnnnZ9sc5KpJD3ckf30UFWbwITuWY07ANgqbABGRvlbDoZFqMUEInZ1RTe2dO8pUZPHt-tQ8dJcSiVXW-eV33sDE0Oyf8EoQmYifpJqhbQZhZAGexX98hKVzoWwI15mRcxeomnHdWM3lPgWsq42A-2_sxQSk-8IAbOOcFtur8230EMf74lYGz_wGPVIi62_ZMbJAF6ONoZPOT69fCMfOEiRIkXY0hpyT8f8bDN6xnBtghYJX5OEyOP3_GepxdrqYwBZvTde67OM4nkFvIeIuIZNlKWsaaOVYWDArjth9NYI3Ght6gbaxfZYVfrfAGz65WZCRP1Xrz7-YAuD-81Hd9MQtH9Thc99GoUqgK9aG6Z_4vsf0cXFtiqVSRwp58K1iZttDXJxeyDAUVxOXxUZoknox2mRhNKji3Xovw3nnzSL0qNILnjeU4Nf1R34jNaHsqzj3I36isIbI1Mzcw7DbA5KbCtpOcIycaz9iZz_y1]--></g></svg>