<?xml version="1.0" encoding="UTF-8" standalone="no"?><svg xmlns="http://www.w3.org/2000/svg" xmlns:xlink="http://www.w3.org/1999/xlink" contentStyleType="text/css" height="1644px" preserveAspectRatio="none" style="width:1811px;height:1644px;background:#FFFFFF;" version="1.1" viewBox="0 0 1811 1644" width="1811px" zoomAndPan="magnify"><defs/><g><text fill="#000000" font-family="sans-serif" font-size="14" font-weight="bold" lengthAdjust="spacing" textLength="309" x="749.5" y="32.9951">OCI Service Gateway Reconcile Activity</text><ellipse cx="684.5" cy="57.2969" fill="#0F766E" rx="10" ry="10" style="stroke:#222222;stroke-width:1.0;"/><rect fill="none" height="362.1406" style="stroke:#000000;stroke-width:1.5;" width="686" x="362" y="77.2969"/><path d="M495,77.2969 L495,86.5938 L485,96.5938 L362,96.5938 " fill="none" style="stroke:#000000;stroke-width:1.5;"/><text fill="#000000" font-family="sans-serif" font-size="14" lengthAdjust="spacing" textLength="123" x="365" y="91.292">Observe and Bind</text><rect fill="#F8FAFC" height="33.9688" rx="12.5" ry="12.5" style="stroke:#475569;stroke-width:0.5;" width="304" x="532.5" y="113.5938"/><text fill="#0F172A" font-family="sans-serif" font-size="12" lengthAdjust="spacing" textLength="284" x="542.5" y="134.7324">Read CR spec, status OCID, and delete intent</text><rect fill="#F8FAFC" height="33.9688" rx="12.5" ry="12.5" style="stroke:#475569;stroke-width:0.5;" width="460" x="454.5" y="167.5625"/><text fill="#0F172A" font-family="sans-serif" font-size="12" lengthAdjust="spacing" textLength="440" x="464.5" y="188.7012">Keep status-bound OCID authoritative for later update or delete paths</text><polygon fill="#E2E8F0" points="584.5,221.5313,784.5,221.5313,796.5,233.5313,784.5,245.5313,584.5,245.5313,572.5,233.5313,584.5,221.5313" style="stroke:#475569;stroke-width:0.5;"/><text fill="#0F172A" font-family="sans-serif" font-size="11" lengthAdjust="spacing" textLength="200" x="584.5" y="237.3394">"Tracked or explicit OCID present?"</text><text fill="#000000" font-family="sans-serif" font-size="11" lengthAdjust="spacing" textLength="20" x="552.5" y="230.937">yes</text><text fill="#000000" font-family="sans-serif" font-size="11" lengthAdjust="spacing" textLength="14" x="796.5" y="230.937">no</text><rect fill="#F8FAFC" height="33.9688" rx="12.5" ry="12.5" style="stroke:#475569;stroke-width:0.5;" width="272" x="382" y="255.5313"/><text fill="#0F172A" font-family="sans-serif" font-size="12" lengthAdjust="spacing" textLength="252" x="392" y="276.6699">Get the OCI resource by known identifier</text><rect fill="#F8FAFC" height="33.9688" rx="12.5" ry="12.5" style="stroke:#475569;stroke-width:0.5;" width="328" x="687" y="255.5313"/><text fill="#0F172A" font-family="sans-serif" font-size="12" lengthAdjust="spacing" textLength="308" x="697" y="276.6699">Resolve an existing OCI resource by display name</text><rect fill="#F8FAFC" height="33.9688" rx="12.5" ry="12.5" style="stroke:#475569;stroke-width:0.5;" width="345" x="678.5" y="309.5"/><text fill="#0F172A" font-family="sans-serif" font-size="12" lengthAdjust="spacing" textLength="325" x="688.5" y="330.6387">Continue list pagination until a match or exhaustion</text><rect fill="#F8FAFC" height="33.9688" rx="12.5" ry="12.5" style="stroke:#475569;stroke-width:0.5;" width="354" x="674" y="363.4688"/><text fill="#0F172A" font-family="sans-serif" font-size="12" lengthAdjust="spacing" textLength="334" x="684" y="384.6074">Persist the resolved or created OCID back into status</text><polygon fill="#E2E8F0" points="684.5,403.4375,696.5,415.4375,684.5,427.4375,672.5,415.4375,684.5,403.4375" style="stroke:#475569;stroke-width:0.5;"/><path d="M1419,881.7383 L1419,1270.0586 L1799,1270.0586 L1799,891.7383 L1789,881.7383 L1419,881.7383 " fill="#FEFFDD" style="stroke:#181818;stroke-width:0.5;"/><path d="M1789,881.7383 L1789,891.7383 L1799,891.7383 L1789,881.7383 " fill="#FEFFDD" style="stroke:#181818;stroke-width:0.5;"/><text fill="#000000" font-family="sans-serif" font-size="13" lengthAdjust="spacing" textLength="69" x="1425" y="898.8052">Archetype:</text><text fill="#000000" font-family="sans-serif" font-size="13" lengthAdjust="spacing" textLength="207" x="1425" y="913.938">- resolved-drift-delete-paginated</text><text fill="#000000" font-family="sans-serif" font-size="13" lengthAdjust="spacing" textLength="134" x="1425" y="929.0708">Retryable OCI states:</text><text fill="#000000" font-family="sans-serif" font-size="13" lengthAdjust="spacing" textLength="102" x="1425" y="944.2036">- PROVISIONING</text><text fill="#000000" font-family="sans-serif" font-size="13" lengthAdjust="spacing" textLength="76" x="1425" y="959.3364">- UPDATING</text><text fill="#000000" font-family="sans-serif" font-size="13" lengthAdjust="spacing" textLength="113" x="1425" y="974.4692">Active OCI states:</text><text fill="#000000" font-family="sans-serif" font-size="13" lengthAdjust="spacing" textLength="79" x="1425" y="989.6021">- AVAILABLE</text><text fill="#000000" font-family="sans-serif" font-size="13" lengthAdjust="spacing" textLength="111" x="1425" y="1004.7349">Failed OCI states:</text><text fill="#000000" font-family="sans-serif" font-size="13" lengthAdjust="spacing" textLength="53" x="1425" y="1019.8677">- FAILED</text><text fill="#000000" font-family="sans-serif" font-size="13" lengthAdjust="spacing" textLength="67" x="1425" y="1035.0005">- DELETED</text><text fill="#000000" font-family="sans-serif" font-size="13" lengthAdjust="spacing" textLength="102" x="1425" y="1050.1333">Update surface:</text><text fill="#000000" font-family="sans-serif" font-size="13" lengthAdjust="spacing" textLength="94" x="1425" y="1065.2661">- display name</text><text fill="#000000" font-family="sans-serif" font-size="13" lengthAdjust="spacing" textLength="96" x="1425" y="1080.3989">- freeform tags</text><text fill="#000000" font-family="sans-serif" font-size="13" lengthAdjust="spacing" textLength="88" x="1425" y="1095.5317">- defined tags</text><text fill="#000000" font-family="sans-serif" font-size="13" lengthAdjust="spacing" textLength="125" x="1425" y="1110.6646">- services collection</text><text fill="#000000" font-family="sans-serif" font-size="13" lengthAdjust="spacing" textLength="139" x="1425" y="1125.7974">Reject before mutate:</text><text fill="#000000" font-family="sans-serif" font-size="13" lengthAdjust="spacing" textLength="71" x="1425" y="1140.9302">- vcnId drift</text><text fill="#000000" font-family="sans-serif" font-size="13" lengthAdjust="spacing" textLength="105" x="1425" y="1156.063">Boundary notes:</text><text fill="#000000" font-family="sans-serif" font-size="13" lengthAdjust="spacing" textLength="332" x="1425" y="1171.1958">- Pagination and field-level drift are still documented</text><text fill="#000000" font-family="sans-serif" font-size="13" lengthAdjust="spacing" textLength="253" x="1441" y="1186.3286">primarily in Go code and property tests.</text><text fill="#000000" font-family="sans-serif" font-size="13" lengthAdjust="spacing" textLength="359" x="1425" y="1201.4614">- The services collection is reconciled in implementation,</text><text fill="#000000" font-family="sans-serif" font-size="13" lengthAdjust="spacing" textLength="331" x="1441" y="1216.5942">but the current formal profile does not model it as a</text><text fill="#000000" font-family="sans-serif" font-size="13" lengthAdjust="spacing" textLength="202" x="1441" y="1231.7271">collection-equivalence contract.</text><text fill="#000000" font-family="sans-serif" font-size="13" lengthAdjust="spacing" textLength="166" x="1425" y="1246.8599">Controller-local invariants:</text><text fill="#000000" font-family="sans-serif" font-size="13" lengthAdjust="spacing" textLength="229" x="1425" y="1261.9927">- StatusPresentUsesStatusInvariant</text><polygon fill="#E2E8F0" points="627.5,459.4375,741.5,459.4375,753.5,471.4375,741.5,483.4375,627.5,483.4375,615.5,471.4375,627.5,459.4375" style="stroke:#475569;stroke-width:0.5;"/><text fill="#0F172A" font-family="sans-serif" font-size="11" lengthAdjust="spacing" textLength="114" x="627.5" y="475.2456">"Delete requested?"</text><text fill="#000000" font-family="sans-serif" font-size="11" lengthAdjust="spacing" textLength="20" x="595.5" y="468.8433">yes</text><text fill="#000000" font-family="sans-serif" font-size="11" lengthAdjust="spacing" textLength="14" x="753.5" y="468.8433">no</text><rect fill="none" height="220.2031" style="stroke:#000000;stroke-width:1.5;" width="638" x="11" y="493.4375"/><path d="M67,493.4375 L67,502.7344 L57,512.7344 L11,512.7344 " fill="none" style="stroke:#000000;stroke-width:1.5;"/><text fill="#000000" font-family="sans-serif" font-size="14" lengthAdjust="spacing" textLength="46" x="14" y="507.4326">Delete</text><rect fill="#F8FAFC" height="33.9688" rx="12.5" ry="12.5" style="stroke:#475569;stroke-width:0.5;" width="282" x="189" y="529.7344"/><text fill="#0F172A" font-family="sans-serif" font-size="12" lengthAdjust="spacing" textLength="262" x="199" y="550.873">Submit OCI delete for OCI Service Gateway</text><rect fill="#F8FAFC" height="33.9688" rx="12.5" ry="12.5" style="stroke:#475569;stroke-width:0.5;" width="618" x="21" y="598.7031"/><text fill="#0F172A" font-family="sans-serif" font-size="12" lengthAdjust="spacing" textLength="598" x="31" y="619.8418">Confirm deletion with follow-up GetServiceGateway calls until the resource is gone or not found.</text><rect fill="#F8FAFC" height="33.9688" rx="12.5" ry="12.5" style="stroke:#475569;stroke-width:0.5;" width="338" x="161" y="667.6719"/><text fill="#0F172A" font-family="sans-serif" font-size="12" lengthAdjust="spacing" textLength="318" x="171" y="688.8105">Remove the finalizer after OCI deletion is confirmed</text><ellipse cx="330" cy="759.6406" fill="none" rx="11" ry="11" style="stroke:#222222;stroke-width:1.0;"/><ellipse cx="330" cy="759.6406" fill="#222222" rx="6" ry="6" style="stroke:#111111;stroke-width:1.0;"/><rect fill="none" height="407.957" style="stroke:#000000;stroke-width:1.5;" width="376" x="857" y="493.4375"/><path d="M1018,493.4375 L1018,502.7344 L1008,512.7344 L857,512.7344 " fill="none" style="stroke:#000000;stroke-width:1.5;"/><text fill="#000000" font-family="sans-serif" font-size="14" lengthAdjust="spacing" textLength="151" x="860" y="507.4326">Lifecycle Classification</text><rect fill="#F8FAFC" height="33.9688" rx="12.5" ry="12.5" style="stroke:#475569;stroke-width:0.5;" width="268" x="905" y="578.1367"/><text fill="#0F172A" font-family="sans-serif" font-size="12" lengthAdjust="spacing" textLength="248" x="915" y="599.2754">Request requeue and keep the finalizer</text><ellipse cx="1039" cy="658.1055" fill="none" rx="11" ry="11" style="stroke:#222222;stroke-width:1.0;"/><ellipse cx="1039" cy="658.1055" fill="#222222" rx="6" ry="6" style="stroke:#111111;stroke-width:1.0;"/><polygon fill="#E2E8F0" points="959,529.7344,1119,529.7344,1131,541.7344,1119,553.7344,959,553.7344,947,541.7344,959,529.7344" style="stroke:#475569;stroke-width:0.5;"/><text fill="#000000" font-family="sans-serif" font-size="11" lengthAdjust="spacing" textLength="20" x="1043" y="563.9448">yes</text><text fill="#0F172A" font-family="sans-serif" font-size="11" lengthAdjust="spacing" textLength="160" x="959" y="545.5425">"OCI state in retryable set?"</text><rect fill="#F8FAFC" height="33.9688" rx="12.5" ry="12.5" style="stroke:#475569;stroke-width:0.5;" width="324" x="877" y="774.9102"/><text fill="#0F172A" font-family="sans-serif" font-size="12" lengthAdjust="spacing" textLength="304" x="887" y="796.0488">Return an unsuccessful terminal reconcile result</text><ellipse cx="1039" cy="848.3945" fill="none" rx="11" ry="11" style="stroke:#222222;stroke-width:1.0;"/><ellipse cx="1039" cy="848.3945" fill="#222222" rx="6" ry="6" style="stroke:#111111;stroke-width:1.0;"/><polygon fill="#E2E8F0" points="969,726.5078,1109,726.5078,1121,738.5078,1109,750.5078,969,750.5078,957,738.5078,969,726.5078" style="stroke:#475569;stroke-width:0.5;"/><text fill="#000000" font-family="sans-serif" font-size="11" lengthAdjust="spacing" textLength="20" x="1043" y="760.7183">yes</text><text fill="#0F172A" font-family="sans-serif" font-size="11" lengthAdjust="spacing" textLength="140" x="969" y="742.3159">"OCI state in failed set?"</text><rect fill="none" height="689.8516" style="stroke:#000000;stroke-width:1.5;" width="740" x="669" y="936.3945"/><path d="M848,936.3945 L848,945.6914 L838,955.6914 L669,955.6914 " fill="none" style="stroke:#000000;stroke-width:1.5;"/><text fill="#000000" font-family="sans-serif" font-size="14" lengthAdjust="spacing" textLength="169" x="672" y="950.3896">Ready and Drift Handling</text><rect fill="#F8FAFC" height="33.9688" rx="12.5" ry="12.5" style="stroke:#475569;stroke-width:0.5;" width="364" x="857" y="972.6914"/><text fill="#0F172A" font-family="sans-serif" font-size="12" lengthAdjust="spacing" textLength="344" x="867" y="993.8301">Compare live OCI state with the supported drift surface</text><rect fill="#F8FAFC" height="33.9688" rx="12.5" ry="12.5" style="stroke:#475569;stroke-width:0.5;" width="290" x="894" y="1090.0625"/><text fill="#0F172A" font-family="sans-serif" font-size="12" lengthAdjust="spacing" textLength="270" x="904" y="1111.2012">Reject the change before any OCI mutation</text><ellipse cx="1039" cy="1170.0313" fill="none" rx="11" ry="11" style="stroke:#222222;stroke-width:1.0;"/><ellipse cx="1039" cy="1170.0313" fill="#222222" rx="6" ry="6" style="stroke:#111111;stroke-width:1.0;"/><polygon fill="#E2E8F0" points="914.5,1041.6602,1163.5,1041.6602,1175.5,1053.6602,1163.5,1065.6602,914.5,1065.6602,902.5,1053.6602,914.5,1041.6602" style="stroke:#475569;stroke-width:0.5;"/><text fill="#000000" font-family="sans-serif" font-size="11" lengthAdjust="spacing" textLength="20" x="1043" y="1075.8706">yes</text><text fill="#0F172A" font-family="sans-serif" font-size="11" lengthAdjust="spacing" textLength="249" x="914.5" y="1057.4683">"Unsupported or immutable drift detected?"</text><rect fill="#F8FAFC" height="33.9688" rx="12.5" ry="12.5" style="stroke:#475569;stroke-width:0.5;" width="572" x="753" y="1246.4336"/><text fill="#0F172A" font-family="sans-serif" font-size="12" lengthAdjust="spacing" textLength="552" x="763" y="1267.5723">Continue full pagination until a display-name match is found or all pages are exhausted.</text><rect fill="#F8FAFC" height="33.9688" rx="12.5" ry="12.5" style="stroke:#475569;stroke-width:0.5;" width="613" x="732.5" y="1300.4023"/><text fill="#0F172A" font-family="sans-serif" font-size="12" lengthAdjust="spacing" textLength="593" x="742.5" y="1321.541">Reuse the resolved OCID for all later update and delete operations once the gateway is found.</text><rect fill="#F8FAFC" height="33.9688" rx="12.5" ry="12.5" style="stroke:#475569;stroke-width:0.5;" width="720" x="679" y="1354.3711"/><text fill="#0F172A" font-family="sans-serif" font-size="12" lengthAdjust="spacing" textLength="700" x="689" y="1375.5098">Move the Service Gateway compartment before calling the mutable update path when compartment drift exists.</text><rect fill="#F8FAFC" height="33.9688" rx="12.5" ry="12.5" style="stroke:#475569;stroke-width:0.5;" width="717" x="680.5" y="1408.3398"/><text fill="#0F172A" font-family="sans-serif" font-size="12" lengthAdjust="spacing" textLength="697" x="690.5" y="1429.4785">Compare the services collection order-insensitively before deciding whether UpdateServiceGateway is required.</text><polygon fill="#E2E8F0" points="961.5,1462.3086,1116.5,1462.3086,1128.5,1474.3086,1116.5,1486.3086,961.5,1486.3086,949.5,1474.3086,961.5,1462.3086" style="stroke:#475569;stroke-width:0.5;"/><text fill="#0F172A" font-family="sans-serif" font-size="11" lengthAdjust="spacing" textLength="155" x="961.5" y="1478.1167">"Supported drift detected?"</text><text fill="#000000" font-family="sans-serif" font-size="11" lengthAdjust="spacing" textLength="20" x="929.5" y="1471.7144">yes</text><text fill="#000000" font-family="sans-serif" font-size="11" lengthAdjust="spacing" textLength="14" x="1128.5" y="1471.7144">no</text><rect fill="#F8FAFC" height="33.9688" rx="12.5" ry="12.5" style="stroke:#475569;stroke-width:0.5;" width="329" x="731.25" y="1496.3086"/><text fill="#0F172A" font-family="sans-serif" font-size="12" lengthAdjust="spacing" textLength="309" x="741.25" y="1517.4473">Apply only the supported in-place update surface</text><rect fill="#F8FAFC" height="33.9688" rx="12.5" ry="12.5" style="stroke:#475569;stroke-width:0.5;" width="204" x="1080.25" y="1496.3086"/><text fill="#0F172A" font-family="sans-serif" font-size="12" lengthAdjust="spacing" textLength="184" x="1090.25" y="1517.4473">Skip the no-op mutation path</text><polygon fill="#E2E8F0" points="1039,1536.2773,1051,1548.2773,1039,1560.2773,1027,1548.2773,1039,1536.2773" style="stroke:#475569;stroke-width:0.5;"/><rect fill="#F8FAFC" height="33.9688" rx="12.5" ry="12.5" style="stroke:#475569;stroke-width:0.5;" width="287" x="895.5" y="1580.2773"/><text fill="#0F172A" font-family="sans-serif" font-size="12" lengthAdjust="spacing" textLength="267" x="905.5" y="1601.416">Return success for the usable active state</text><line style="stroke:#334155;stroke-width:1.0;" x1="684.5" x2="684.5" y1="147.5625" y2="167.5625"/><polygon fill="#334155" points="680.5,157.5625,684.5,167.5625,688.5,157.5625,684.5,161.5625" style="stroke:#334155;stroke-width:1.0;"/><line style="stroke:#334155;stroke-width:1.0;" x1="851" x2="851" y1="289.5" y2="309.5"/><polygon fill="#334155" points="847,299.5,851,309.5,855,299.5,851,303.5" style="stroke:#334155;stroke-width:1.0;"/><line style="stroke:#334155;stroke-width:1.0;" x1="851" x2="851" y1="343.4688" y2="363.4688"/><polygon fill="#334155" points="847,353.4688,851,363.4688,855,353.4688,851,357.4688" style="stroke:#334155;stroke-width:1.0;"/><line style="stroke:#334155;stroke-width:1.0;" x1="572.5" x2="518" y1="233.5313" y2="233.5313"/><line style="stroke:#334155;stroke-width:1.0;" x1="518" x2="518" y1="233.5313" y2="255.5313"/><polygon fill="#334155" points="514,245.5313,518,255.5313,522,245.5313,518,249.5313" style="stroke:#334155;stroke-width:1.0;"/><line style="stroke:#334155;stroke-width:1.0;" x1="796.5" x2="851" y1="233.5313" y2="233.5313"/><line style="stroke:#334155;stroke-width:1.0;" x1="851" x2="851" y1="233.5313" y2="255.5313"/><polygon fill="#334155" points="847,245.5313,851,255.5313,855,245.5313,851,249.5313" style="stroke:#334155;stroke-width:1.0;"/><line style="stroke:#334155;stroke-width:1.0;" x1="518" x2="518" y1="289.5" y2="415.4375"/><line style="stroke:#334155;stroke-width:1.0;" x1="518" x2="672.5" y1="415.4375" y2="415.4375"/><polygon fill="#334155" points="662.5,411.4375,672.5,415.4375,662.5,419.4375,666.5,415.4375" style="stroke:#334155;stroke-width:1.0;"/><line style="stroke:#334155;stroke-width:1.0;" x1="851" x2="851" y1="397.4375" y2="415.4375"/><line style="stroke:#334155;stroke-width:1.0;" x1="851" x2="696.5" y1="415.4375" y2="415.4375"/><polygon fill="#334155" points="706.5,411.4375,696.5,415.4375,706.5,419.4375,702.5,415.4375" style="stroke:#334155;stroke-width:1.0;"/><line style="stroke:#334155;stroke-width:1.0;" x1="684.5" x2="684.5" y1="201.5313" y2="221.5313"/><polygon fill="#334155" points="680.5,211.5313,684.5,221.5313,688.5,211.5313,684.5,215.5313" style="stroke:#334155;stroke-width:1.0;"/><line style="stroke:#334155;stroke-width:1.0;" x1="684.5" x2="684.5" y1="67.2969" y2="113.5938"/><polygon fill="#334155" points="680.5,103.5938,684.5,113.5938,688.5,103.5938,684.5,107.5938" style="stroke:#334155;stroke-width:1.0;"/><line style="stroke:#334155;stroke-width:1.0;" x1="330" x2="330" y1="563.7031" y2="598.7031"/><polygon fill="#334155" points="326,588.7031,330,598.7031,334,588.7031,330,592.7031" style="stroke:#334155;stroke-width:1.0;"/><line style="stroke:#334155;stroke-width:1.0;" x1="330" x2="330" y1="632.6719" y2="667.6719"/><polygon fill="#334155" points="326,657.6719,330,667.6719,334,657.6719,330,661.6719" style="stroke:#334155;stroke-width:1.0;"/><line style="stroke:#334155;stroke-width:1.0;" x1="330" x2="330" y1="701.6406" y2="748.6406"/><polygon fill="#334155" points="326,738.6406,330,748.6406,334,738.6406,330,742.6406" style="stroke:#334155;stroke-width:1.0;"/><line style="stroke:#334155;stroke-width:1.0;" x1="1039" x2="1039" y1="612.1055" y2="647.1055"/><polygon fill="#334155" points="1035,637.1055,1039,647.1055,1043,637.1055,1039,641.1055" style="stroke:#334155;stroke-width:1.0;"/><line style="stroke:#334155;stroke-width:1.0;" x1="1039" x2="1039" y1="553.7344" y2="578.1367"/><polygon fill="#334155" points="1035,568.1367,1039,578.1367,1043,568.1367,1039,572.1367" style="stroke:#334155;stroke-width:1.0;"/><line style="stroke:#334155;stroke-width:1.0;" x1="1131" x2="1183" y1="541.7344" y2="541.7344"/><polygon fill="#334155" points="1179,610.6211,1183,620.6211,1187,610.6211,1183,614.6211" style="stroke:#334155;stroke-width:1.0;"/><line style="stroke:#334155;stroke-width:1.0;" x1="1183" x2="1183" y1="541.7344" y2="699.5078"/><line style="stroke:#334155;stroke-width:1.0;" x1="1183" x2="1039" y1="699.5078" y2="699.5078"/><line style="stroke:#334155;stroke-width:1.0;" x1="1039" x2="1039" y1="699.5078" y2="726.5078"/><polygon fill="#334155" points="1035,716.5078,1039,726.5078,1043,716.5078,1039,720.5078" style="stroke:#334155;stroke-width:1.0;"/><line style="stroke:#334155;stroke-width:1.0;" x1="1039" x2="1039" y1="808.8789" y2="837.3945"/><polygon fill="#334155" points="1035,827.3945,1039,837.3945,1043,827.3945,1039,831.3945" style="stroke:#334155;stroke-width:1.0;"/><line style="stroke:#334155;stroke-width:1.0;" x1="1039" x2="1039" y1="750.5078" y2="774.9102"/><polygon fill="#334155" points="1035,764.9102,1039,774.9102,1043,764.9102,1039,768.9102" style="stroke:#334155;stroke-width:1.0;"/><line style="stroke:#334155;stroke-width:1.0;" x1="1121" x2="1211" y1="738.5078" y2="738.5078"/><polygon fill="#334155" points="1207,807.3945,1211,817.3945,1215,807.3945,1211,811.3945" style="stroke:#334155;stroke-width:1.0;"/><line style="stroke:#334155;stroke-width:1.0;" x1="1211" x2="1211" y1="738.5078" y2="881.3945"/><line style="stroke:#334155;stroke-width:1.0;" x1="1211" x2="1039" y1="881.3945" y2="881.3945"/><line style="stroke:#334155;stroke-width:1.0;" x1="1039" x2="1039" y1="881.3945" y2="972.6914"/><polygon fill="#334155" points="1035,962.6914,1039,972.6914,1043,962.6914,1039,966.6914" style="stroke:#334155;stroke-width:1.0;"/><line style="stroke:#334155;stroke-width:1.0;" x1="1039" x2="1039" y1="1124.0313" y2="1159.0313"/><polygon fill="#334155" points="1035,1149.0313,1039,1159.0313,1043,1149.0313,1039,1153.0313" style="stroke:#334155;stroke-width:1.0;"/><line style="stroke:#334155;stroke-width:1.0;" x1="1039" x2="1039" y1="1065.6602" y2="1090.0625"/><polygon fill="#334155" points="1035,1080.0625,1039,1090.0625,1043,1080.0625,1039,1084.0625" style="stroke:#334155;stroke-width:1.0;"/><line style="stroke:#334155;stroke-width:1.0;" x1="1175.5" x2="1194" y1="1053.6602" y2="1053.6602"/><polygon fill="#334155" points="1190,1122.5469,1194,1132.5469,1198,1122.5469,1194,1126.5469" style="stroke:#334155;stroke-width:1.0;"/><line style="stroke:#334155;stroke-width:1.0;" x1="1194" x2="1194" y1="1053.6602" y2="1211.4336"/><line style="stroke:#334155;stroke-width:1.0;" x1="1194" x2="1039" y1="1211.4336" y2="1211.4336"/><line style="stroke:#334155;stroke-width:1.0;" x1="1039" x2="1039" y1="1211.4336" y2="1246.4336"/><polygon fill="#334155" points="1035,1236.4336,1039,1246.4336,1043,1236.4336,1039,1240.4336" style="stroke:#334155;stroke-width:1.0;"/><line style="stroke:#334155;stroke-width:1.0;" x1="1039" x2="1039" y1="1006.6602" y2="1041.6602"/><polygon fill="#334155" points="1035,1031.6602,1039,1041.6602,1043,1031.6602,1039,1035.6602" style="stroke:#334155;stroke-width:1.0;"/><line style="stroke:#334155;stroke-width:1.0;" x1="1039" x2="1039" y1="1280.4023" y2="1300.4023"/><polygon fill="#334155" points="1035,1290.4023,1039,1300.4023,1043,1290.4023,1039,1294.4023" style="stroke:#334155;stroke-width:1.0;"/><line style="stroke:#334155;stroke-width:1.0;" x1="1039" x2="1039" y1="1334.3711" y2="1354.3711"/><polygon fill="#334155" points="1035,1344.3711,1039,1354.3711,1043,1344.3711,1039,1348.3711" style="stroke:#334155;stroke-width:1.0;"/><line style="stroke:#334155;stroke-width:1.0;" x1="1039" x2="1039" y1="1388.3398" y2="1408.3398"/><polygon fill="#334155" points="1035,1398.3398,1039,1408.3398,1043,1398.3398,1039,1402.3398" style="stroke:#334155;stroke-width:1.0;"/><line style="stroke:#334155;stroke-width:1.0;" x1="949.5" x2="895.75" y1="1474.3086" y2="1474.3086"/><line style="stroke:#334155;stroke-width:1.0;" x1="895.75" x2="895.75" y1="1474.3086" y2="1496.3086"/><polygon fill="#334155" points="891.75,1486.3086,895.75,1496.3086,899.75,1486.3086,895.75,1490.3086" style="stroke:#334155;stroke-width:1.0;"/><line style="stroke:#334155;stroke-width:1.0;" x1="1128.5" x2="1182.25" y1="1474.3086" y2="1474.3086"/><line style="stroke:#334155;stroke-width:1.0;" x1="1182.25" x2="1182.25" y1="1474.3086" y2="1496.3086"/><polygon fill="#334155" points="1178.25,1486.3086,1182.25,1496.3086,1186.25,1486.3086,1182.25,1490.3086" style="stroke:#334155;stroke-width:1.0;"/><line style="stroke:#334155;stroke-width:1.0;" x1="895.75" x2="895.75" y1="1530.2773" y2="1548.2773"/><line style="stroke:#334155;stroke-width:1.0;" x1="895.75" x2="1027" y1="1548.2773" y2="1548.2773"/><polygon fill="#334155" points="1017,1544.2773,1027,1548.2773,1017,1552.2773,1021,1548.2773" style="stroke:#334155;stroke-width:1.0;"/><line style="stroke:#334155;stroke-width:1.0;" x1="1182.25" x2="1182.25" y1="1530.2773" y2="1548.2773"/><line style="stroke:#334155;stroke-width:1.0;" x1="1182.25" x2="1051" y1="1548.2773" y2="1548.2773"/><polygon fill="#334155" points="1061,1544.2773,1051,1548.2773,1061,1552.2773,1057,1548.2773" style="stroke:#334155;stroke-width:1.0;"/><line style="stroke:#334155;stroke-width:1.0;" x1="1039" x2="1039" y1="1442.3086" y2="1462.3086"/><polygon fill="#334155" points="1035,1452.3086,1039,1462.3086,1043,1452.3086,1039,1456.3086" style="stroke:#334155;stroke-width:1.0;"/><line style="stroke:#334155;stroke-width:1.0;" x1="1039" x2="1039" y1="1560.2773" y2="1580.2773"/><polygon fill="#334155" points="1035,1570.2773,1039,1580.2773,1043,1570.2773,1039,1574.2773" style="stroke:#334155;stroke-width:1.0;"/><line style="stroke:#334155;stroke-width:1.0;" x1="615.5" x2="330" y1="471.4375" y2="471.4375"/><line style="stroke:#334155;stroke-width:1.0;" x1="330" x2="330" y1="471.4375" y2="529.7344"/><polygon fill="#334155" points="326,519.7344,330,529.7344,334,519.7344,330,523.7344" style="stroke:#334155;stroke-width:1.0;"/><line style="stroke:#334155;stroke-width:1.0;" x1="753.5" x2="1039" y1="471.4375" y2="471.4375"/><line style="stroke:#334155;stroke-width:1.0;" x1="1039" x2="1039" y1="471.4375" y2="529.7344"/><polygon fill="#334155" points="1035,519.7344,1039,529.7344,1043,519.7344,1039,523.7344" style="stroke:#334155;stroke-width:1.0;"/><line style="stroke:#334155;stroke-width:1.0;" x1="1039" x2="1039" y1="1614.2461" y2="1632.2461"/><line style="stroke:#334155;stroke-width:1.0;" x1="1039" x2="684.5" y1="1632.2461" y2="1632.2461"/><line style="stroke:#334155;stroke-width:1.0;" x1="684.5" x2="684.5" y1="427.4375" y2="459.4375"/><polygon fill="#334155" points="680.5,449.4375,684.5,459.4375,688.5,449.4375,684.5,453.4375" style="stroke:#334155;stroke-width:1.0;"/><!--SRC=[VLRRSjis47tdLs3S5sV6pCH97AVnGqVMnTN4ZJs-v1qYbn9g4601q8hQoR_tB03T72MUiKq2UyFPSnOCAcWIDyEfk2Vth2eILpBGKgx47LNML0gxWogePnLMXNzIffDEji8lP6sNoin58xMddPrBMJtDdUrDFRJQEl7R9FxiM0oSiyky-UxT-zEpivtDcXhPw_10ty90gxbfoGIXgGaxDZBN8_uhn85y7oU3oP1thAl9vTNtvsTd7tx7wiIQaDVUJ4xFtmwmDbAojQR-8TJuxVZZvCsEmS68zq6wRSZp3n_6M1nlWfnFJaUde-9xuTckA726e8AoHXpTp3n09o5DBIwLgO_YYJxTaQp5y4xuZgeJ0RVGUsxHw2HQrgGfa50c09iBTlXCr6MxSiRrHsiX-x2mJc5T8Kc3OZHwwqJVrVWly9v3TJ8iF4TIZJW-Ud30WMhUfs-TLfKAALxdo2Fb7qUlH5YG4SShyg_WXGgkAF1Q91AiRE_0fDbAF1cxD4BLS5ED8iT928GHnyPcrpkOwmW2qYaVc5GlmzJATngSDBAbY-GsH1-LwKbe-E04SsLaHBN7kXPIj39KYtI8XUmzxsNNMtAUdRXWbxB7qrQEW4i6RmOG66ERWOsLcrerw6GHSHeby1pzqvE7tm-ux7GwsQR-eeBxVjOcLDSjuEuSKE7si8roRJBcW4iL5l3HsYxBlXE0FpkkrLj9hNt6OdtEYARoOcvDxBwn0J50bzSNwrQq5frW-mPmQlKls28RviocLCwE65MgY6fs_OvV7snNxBPsv_JNgg5gLM6K3BNq7aoeOg_MU4GuEGD3pSn6kS6jv0mUdWuHBXORSK_uzqb4Joo4lV8lidaiZnzI3mzdRIJ6NVshbA5tXfdQ6zzN5NdVzC2NNClvKCfwP09kJB6V9WU5zW1YnQ_Y2KPEDK7yYKSD8Mm8CxGjp9dipqbagUP80pwlxxlEEYPl7GFutZMoobg91tqqMnlqNhLj7oB0oQ462Qj39Cu7_nkxCLEra6OEKH8Oow2lOZaSRAkmWt1l5GlCz275PfMNhF8iNp0jCfHBbicBl60aigffXxozftrDHo4tsNLlzktCKTkHYtLuWUQb2FEiedNwTOw_rl9uULbMiJyXtbOP6bOWpp8sNsETi_Ey5Kj6UTSlDIBEGF_wOh_liSSf9sjFQxI3eOiNKgaCvh9NFERrQfs_fahLN00ImTs9nvZynPp02Lb0ocs0Z6ovVy6dNzDZq7N8Qmt-x9DHcH8ThJO7twFb_Zt0K_599VKQMzfkmwa8ryLBDcKjPXd6BhDhxoFGyHE1aahIX4gkHQEjZ5SCXX-OekQBK0nS1OXM7NqgoWrvodZmCf6ap6obkhZRJAQD33txtTxTV9tUJs- -JBzSuVNnTZHuuCT1gcJVUF1rCBqUN5wFYqaQEVlR4-oEHtWOZQ_73tXwt8EFJNPlHBmsZhZhhGXoxdcRC04HDxyUe4wHDPtP4i6EaPyhCyrjBowP_DAj8bhfc5lPiePmf-kwr0JYPQOmMt7PGd2rhNecDa3ZZdLEjT8fS0IJzigYb3hfi7CiGNpE8GMOZoGFFs5x96iUiKmkJB5E4-U85Pt4FBC-3whUEPOLmuBPZ2mDJ-RQ8YRVV2toQu5RM6AWHCzjff8byImryK10me1Fel2wu0dcsCYLsaBVAE4PHv8cH6pkuuV2RVfAUlJaqy9qRSGSZ4WM_mC0]--></g></svg>