<?xml version="1.0" encoding="UTF-8" standalone="no"?><svg xmlns="http://www.w3.org/2000/svg" xmlns:xlink="http://www.w3.org/1999/xlink" contentStyleType="text/css" height="561px" preserveAspectRatio="none" style="width:455px;height:561px;background:#FFFFFF;" version="1.1" viewBox="0 0 455 561" width="455px" zoomAndPan="magnify"><defs/><g><text fill="#000000" font-family="sans-serif" font-size="14" font-weight="bold" lengthAdjust="spacing" textLength="286" x="77.75" y="22.9951">OciServiceGateway Formal Lifecycle</text><ellipse cx="249.5" cy="53.2969" fill="#222222" rx="10" ry="10" style="stroke:none;stroke-width:1.0;"/><g id="Observed"><rect fill="#F1F1F1" height="50" rx="12.5" ry="12.5" style="stroke:#181818;stroke-width:0.5;" width="87" x="206" y="124.2969"/><line style="stroke:#181818;stroke-width:0.5;" x1="206" x2="293" y1="150.5938" y2="150.5938"/><text fill="#000000" font-family="sans-serif" font-size="14" lengthAdjust="spacing" textLength="67" x="216" y="142.292">Observed</text></g><g id="Retryable"><rect fill="#F1F1F1" height="50" rx="12.5" ry="12.5" style="stroke:#181818;stroke-width:0.5;" width="85" x="7" y="251.2969"/><line style="stroke:#181818;stroke-width:0.5;" x1="7" x2="92" y1="277.5938" y2="277.5938"/><text fill="#000000" font-family="sans-serif" font-size="14" lengthAdjust="spacing" textLength="65" x="17" y="269.292">Retryable</text></g><g id="Active"><rect fill="#F1F1F1" height="50" rx="12.5" ry="12.5" style="stroke:#181818;stroke-width:0.5;" width="61" x="199" y="251.2969"/><line style="stroke:#181818;stroke-width:0.5;" x1="199" x2="260" y1="277.5938" y2="277.5938"/><text fill="#000000" font-family="sans-serif" font-size="14" lengthAdjust="spacing" textLength="41" x="209" y="269.292">Active</text></g><g id="Failed"><rect fill="#F1F1F1" height="50" rx="12.5" ry="12.5" style="stroke:#181818;stroke-width:0.5;" width="60" x="331.5" y="251.2969"/><line style="stroke:#181818;stroke-width:0.5;" x1="331.5" x2="391.5" y1="277.5938" y2="277.5938"/><text fill="#000000" font-family="sans-serif" font-size="14" lengthAdjust="spacing" textLength="40" x="341.5" y="269.292">Failed</text></g><g id="DeletePending"><rect fill="#F1F1F1" height="50" rx="12.5" ry="12.5" style="stroke:#181818;stroke-width:0.5;" width="123" x="149" y="378.2969"/><line style="stroke:#181818;stroke-width:0.5;" x1="149" x2="272" y1="404.5938" y2="404.5938"/><text fill="#000000" font-family="sans-serif" font-size="14" lengthAdjust="spacing" textLength="103" x="159" y="396.292">DeletePending</text></g><g id="Deleted"><rect fill="#F1F1F1" height="50" rx="12.5" ry="12.5" style="stroke:#181818;stroke-width:0.5;" width="75" x="173" y="505.2969"/><line style="stroke:#181818;stroke-width:0.5;" x1="173" x2="248" y1="531.5938" y2="531.5938"/><text fill="#000000" font-family="sans-serif" font-size="14" lengthAdjust="spacing" textLength="55" x="183" y="523.292">Deleted</text></g><!--link *start to Observed--><g id="link_*start_Observed"><path d="M249.5,63.3069 C249.5,75.9969 249.5,99.7069 249.5,118.8669 " fill="none" id="*start-to-Observed" style="stroke:#181818;stroke-width:1.0;"/><polygon fill="#181818" points="249.5,124.1369,253.5,115.1369,249.5,119.1369,245.5,115.1369,249.5,124.1369" style="stroke:#181818;stroke-width:1.0;"/></g><!--link Observed to Retryable--><g id="link_Observed_Retryable"><path d="M205.76,150.0669 C162.24,152.3669 96.86,163.1069 60.5,204.2969 C50.58,215.5369 47.55,231.8869 47.13,246.0569 " fill="none" id="Observed-to-Retryable" style="stroke:#181818;stroke-width:1.0;"/><polygon fill="#181818" points="47.08,251.1669,51.157,242.2015,47.1229,246.1671,43.1573,242.1329,47.08,251.1669" style="stroke:#181818;stroke-width:1.0;"/><text fill="#000000" font-family="sans-serif" font-size="13" lengthAdjust="spacing" textLength="168" x="61.5" y="217.3638">PROVISIONING, UPDATING</text></g><!--link Observed to Active--><g id="link_Observed_Active"><path d="M245.64,174.3969 C242.37,194.8869 237.65,224.3769 234.16,246.1769 " fill="none" id="Observed-to-Active" style="stroke:#181818;stroke-width:1.0;"/><polygon fill="#181818" points="233.34,251.2669,238.707,243.0088,234.1272,246.3292,230.8068,241.7494,233.34,251.2669" style="stroke:#181818;stroke-width:1.0;"/><text fill="#000000" font-family="sans-serif" font-size="13" lengthAdjust="spacing" textLength="70" x="242.5" y="217.3638">AVAILABLE</text></g><!--link Observed to Failed--><g id="link_Observed_Failed"><path d="M287.87,174.5369 C299.53,183.0469 311.81,193.2569 321.5,204.2969 C332.48,216.8169 341.82,232.8269 348.71,246.4769 " fill="none" id="Observed-to-Failed" style="stroke:#181818;stroke-width:1.0;"/><polygon fill="#181818" points="350.95,251.0069,350.5279,241.1671,348.7253,246.529,343.3634,244.7265,350.95,251.0069" style="stroke:#181818;stroke-width:1.0;"/><text fill="#000000" font-family="sans-serif" font-size="13" lengthAdjust="spacing" textLength="110" x="335.5" y="217.3638">FAILED, DELETED</text></g><!--link Active to DeletePending--><g id="link_Active_DeletePending"><path d="M217.35,301.4069 C213.38,310.5369 209.48,321.1669 207.5,331.2969 C204.84,344.8669 205.09,360.1769 206.2,373.0869 " fill="none" id="Active-to-DeletePending" style="stroke:#181818;stroke-width:1.0;"/><polygon fill="#181818" points="206.69,378.0969,209.7985,368.7514,206.2052,373.1204,201.8362,369.5271,206.69,378.0969" style="stroke:#181818;stroke-width:1.0;"/><text fill="#000000" font-family="sans-serif" font-size="13" lengthAdjust="spacing" textLength="109" x="208.5" y="344.3638">delete requested</text></g><!--link Retryable to DeletePending--><g id="link_Retryable_DeletePending"><path d="M57.66,301.2969 C63.84,316.4369 73.65,335.4769 87.5,348.2969 C103.51,363.1069 124.23,374.2969 144.09,382.5469 " fill="none" id="Retryable-to-DeletePending" style="stroke:#181818;stroke-width:1.0;"/><polygon fill="#181818" points="148.85,384.4769,142.0244,377.3768,144.2195,382.5904,139.006,384.7856,148.85,384.4769" style="stroke:#181818;stroke-width:1.0;"/><text fill="#000000" font-family="sans-serif" font-size="13" lengthAdjust="spacing" textLength="109" x="88.5" y="344.3638">delete requested</text></g><!--link Failed to DeletePending--><g id="link_Failed_DeletePending"><path d="M352.69,301.4669 C346.22,316.4869 336.17,335.3269 322.5,348.2969 C309.4,360.7169 292.9,370.7869 276.63,378.7169 " fill="none" id="Failed-to-DeletePending" style="stroke:#181818;stroke-width:1.0;"/><polygon fill="#181818" points="272.05,380.8969,281.8951,380.6256,276.5614,378.7411,278.4459,373.4074,272.05,380.8969" style="stroke:#181818;stroke-width:1.0;"/><text fill="#000000" font-family="sans-serif" font-size="13" lengthAdjust="spacing" textLength="109" x="338.5" y="344.3638">delete requested</text></g><!--link DeletePending to Deleted--><g id="link_DeletePending_Deleted"><path d="M210.5,428.3969 C210.5,448.8869 210.5,478.3769 210.5,500.1769 " fill="none" id="DeletePending-to-Deleted" style="stroke:#181818;stroke-width:1.0;"/><polygon fill="#181818" points="210.5,505.2669,214.5,496.2669,210.5,500.2669,206.5,496.2669,210.5,505.2669" style="stroke:#181818;stroke-width:1.0;"/><text fill="#000000" font-family="sans-serif" font-size="13" lengthAdjust="spacing" textLength="188" x="211.5" y="471.3638">finalizer removed after delete</text></g><!--SRC=[ZP31QiCm38RlVWgTH_i2FGmyx9H0Q4BRzJ9sS1sb2DoKELf7zlHJ6e_WMs_wfK_IBp5nGAWz7J3UoUFMCVwu4OfRlBe05NNeHnzGgO-NJrYlNw4-3u9Yg_w3HtQF74TtbbaRQFRrgJoKzQxSRLVmtXXzb2ZdjMUwJx0-wRBIRvNDwuMZ8E462YbRim9ZAtkqHgN6YJ4OaB71lgN-8cZxq13nwni75eUBgQVmjFCfDWUMbiboHxqBz8jH-EjjkiXrB6eUejJ0ykJbOqdFXoKnMqaYsvNbsZy0]--></g></svg>