<?xml version="1.0" encoding="UTF-8" standalone="no"?><svg xmlns="http://www.w3.org/2000/svg" xmlns:xlink="http://www.w3.org/1999/xlink" contentStyleType="text/css" height="1453px" preserveAspectRatio="none" style="width:1301px;height:1453px;background:#FFFFFF;" version="1.1" viewBox="0 0 1301 1453" width="1301px" zoomAndPan="magnify"><defs/><g><text fill="#000000" font-family="sans-serif" font-size="14" font-weight="bold" lengthAdjust="spacing" textLength="330" x="487.25" y="27.9951">OCI Service Gateway Reconcile Sequence</text><rect fill="none" height="314.9375" style="stroke:#475569;stroke-width:1.5;" width="1027" x="268.5" y="193.8594"/><rect fill="none" height="283.8047" style="stroke:#475569;stroke-width:1.5;" width="1007" x="278.5" y="217.9922"/><rect fill="none" height="46.2656" style="stroke:#475569;stroke-width:1.5;" width="865" x="288.5" y="315.1953"/><rect fill="none" height="119.3359" style="stroke:#475569;stroke-width:1.5;" width="987" x="288.5" y="375.4609"/><rect fill="none" height="661.6016" style="stroke:#475569;stroke-width:1.5;" width="1275.5" x="10" y="522.7969"/><rect fill="none" height="104.5313" style="stroke:#475569;stroke-width:1.5;" width="987" x="288.5" y="546.9297"/><rect fill="none" height="380.125" style="stroke:#475569;stroke-width:1.5;" width="1154" x="20" y="768.1406"/><rect fill="none" height="46.2656" style="stroke:#475569;stroke-width:1.5;" width="406.5" x="30" y="918.2031"/><rect fill="none" height="46.2656" style="stroke:#475569;stroke-width:1.5;" width="865" x="288.5" y="1095"/><line style="stroke:#94A3B8;stroke-width:0.5;stroke-dasharray:5.0,5.0;" x1="76" x2="76" y1="118.5938" y2="1372.7266"/><line style="stroke:#94A3B8;stroke-width:0.5;stroke-dasharray:5.0,5.0;" x1="362.5" x2="362.5" y1="118.5938" y2="1372.7266"/><line style="stroke:#94A3B8;stroke-width:0.5;stroke-dasharray:5.0,5.0;" x1="1125.5" x2="1125.5" y1="118.5938" y2="1372.7266"/><line style="stroke:#94A3B8;stroke-width:0.5;stroke-dasharray:5.0,5.0;" x1="1209.5" x2="1209.5" y1="118.5938" y2="1372.7266"/><text fill="#000000" font-family="sans-serif" font-size="14" lengthAdjust="spacing" textLength="67" x="40" y="115.292">Controller</text><ellipse cx="76.5" cy="50.7969" fill="#E0F2FE" rx="8" ry="8" style="stroke:#0F766E;stroke-width:0.5;"/><path d="M76.5,58.7969 L76.5,85.7969 M63.5,66.7969 L89.5,66.7969 M76.5,85.7969 L63.5,100.7969 M76.5,85.7969 L89.5,100.7969 " fill="none" style="stroke:#0F766E;stroke-width:0.5;"/><text fill="#000000" font-family="sans-serif" font-size="14" lengthAdjust="spacing" textLength="67" x="40" y="1384.7217">Controller</text><ellipse cx="76.5" cy="1396.5234" fill="#E0F2FE" rx="8" ry="8" style="stroke:#0F766E;stroke-width:0.5;"/><path d="M76.5,1404.5234 L76.5,1431.5234 M63.5,1412.5234 L89.5,1412.5234 M76.5,1431.5234 L63.5,1446.5234 M76.5,1431.5234 L89.5,1446.5234 " fill="none" style="stroke:#0F766E;stroke-width:0.5;"/><rect fill="#F8FAFC" height="30.2969" rx="2.5" ry="2.5" style="stroke:#475569;stroke-width:0.5;" width="128" x="298.5" y="87.2969"/><text fill="#000000" font-family="sans-serif" font-size="14" lengthAdjust="spacing" textLength="114" x="305.5" y="107.292">Service Manager</text><rect fill="#F8FAFC" height="30.2969" rx="2.5" ry="2.5" style="stroke:#475569;stroke-width:0.5;" width="128" x="298.5" y="1371.7266"/><text fill="#000000" font-family="sans-serif" font-size="14" lengthAdjust="spacing" textLength="114" x="305.5" y="1391.7217">Service Manager</text><text fill="#000000" font-family="sans-serif" font-size="14" lengthAdjust="spacing" textLength="24" x="1110.5" y="115.292">OCI</text><path d="M1107.5,66.2969 C1107.5,56.2969 1125.5,56.2969 1125.5,56.2969 C1125.5,56.2969 1143.5,56.2969 1143.5,66.2969 L1143.5,92.2969 C1143.5,102.2969 1125.5,102.2969 1125.5,102.2969 C1125.5,102.2969 1107.5,102.2969 1107.5,92.2969 L1107.5,66.2969 " fill="#E2E2F0" style="stroke:#181818;stroke-width:1.5;"/><path d="M1107.5,66.2969 C1107.5,76.2969 1125.5,76.2969 1125.5,76.2969 C1125.5,76.2969 1143.5,76.2969 1143.5,66.2969 " fill="none" style="stroke:#181818;stroke-width:1.5;"/><text fill="#000000" font-family="sans-serif" font-size="14" lengthAdjust="spacing" textLength="24" x="1110.5" y="1384.7217">OCI</text><path d="M1107.5,1398.0234 C1107.5,1388.0234 1125.5,1388.0234 1125.5,1388.0234 C1125.5,1388.0234 1143.5,1388.0234 1143.5,1398.0234 L1143.5,1424.0234 C1143.5,1434.0234 1125.5,1434.0234 1125.5,1434.0234 C1125.5,1434.0234 1107.5,1434.0234 1107.5,1424.0234 L1107.5,1398.0234 " fill="#E2E2F0" style="stroke:#181818;stroke-width:1.5;"/><path d="M1107.5,1398.0234 C1107.5,1408.0234 1125.5,1408.0234 1125.5,1408.0234 C1125.5,1408.0234 1143.5,1408.0234 1143.5,1398.0234 " fill="none" style="stroke:#181818;stroke-width:1.5;"/><text fill="#000000" font-family="sans-serif" font-size="14" lengthAdjust="spacing" textLength="106" x="1153.5" y="115.292">Kubernetes API</text><path d="M1191.5,66.2969 C1191.5,56.2969 1209.5,56.2969 1209.5,56.2969 C1209.5,56.2969 1227.5,56.2969 1227.5,66.2969 L1227.5,92.2969 C1227.5,102.2969 1209.5,102.2969 1209.5,102.2969 C1209.5,102.2969 1191.5,102.2969 1191.5,92.2969 L1191.5,66.2969 " fill="#E2E2F0" style="stroke:#181818;stroke-width:1.5;"/><path d="M1191.5,66.2969 C1191.5,76.2969 1209.5,76.2969 1209.5,76.2969 C1209.5,76.2969 1227.5,76.2969 1227.5,66.2969 " fill="none" style="stroke:#181818;stroke-width:1.5;"/><text fill="#000000" font-family="sans-serif" font-size="14" lengthAdjust="spacing" textLength="106" x="1153.5" y="1384.7217">Kubernetes API</text><path d="M1191.5,1398.0234 C1191.5,1388.0234 1209.5,1388.0234 1209.5,1388.0234 C1209.5,1388.0234 1227.5,1388.0234 1227.5,1398.0234 L1227.5,1424.0234 C1227.5,1434.0234 1209.5,1434.0234 1209.5,1434.0234 C1209.5,1434.0234 1191.5,1434.0234 1191.5,1424.0234 L1191.5,1398.0234 " fill="#E2E2F0" style="stroke:#181818;stroke-width:1.5;"/><path d="M1191.5,1398.0234 C1191.5,1408.0234 1209.5,1408.0234 1209.5,1408.0234 C1209.5,1408.0234 1227.5,1408.0234 1227.5,1398.0234 " fill="none" style="stroke:#181818;stroke-width:1.5;"/><polygon fill="#334155" points="350.5,145.7266,360.5,149.7266,350.5,153.7266,354.5,149.7266" style="stroke:#334155;stroke-width:1.0;"/><line style="stroke:#334155;stroke-width:1.0;" x1="76.5" x2="356.5" y1="149.7266" y2="149.7266"/><text fill="#000000" font-family="sans-serif" font-size="13" font-weight="bold" lengthAdjust="spacing" textLength="9" x="83.5" y="144.6606">1</text><text fill="#000000" font-family="sans-serif" font-size="13" lengthAdjust="spacing" textLength="239" x="96.5" y="144.6606">reconcile desired spec and live status</text><polygon fill="#334155" points="1197.5,174.8594,1207.5,178.8594,1197.5,182.8594,1201.5,178.8594" style="stroke:#334155;stroke-width:1.0;"/><line style="stroke:#334155;stroke-width:1.0;" x1="362.5" x2="1203.5" y1="178.8594" y2="178.8594"/><text fill="#000000" font-family="sans-serif" font-size="13" font-weight="bold" lengthAdjust="spacing" textLength="9" x="369.5" y="173.7935">2</text><text fill="#000000" font-family="sans-serif" font-size="13" lengthAdjust="spacing" textLength="212" x="382.5" y="173.7935">read CR status and finalizer state</text><path d="M268.5,193.8594 L438.5,193.8594 L438.5,200.9922 L428.5,210.9922 L268.5,210.9922 L268.5,193.8594 " fill="#F8FAFC" style="stroke:#475569;stroke-width:1.5;"/><rect fill="none" height="314.9375" style="stroke:#475569;stroke-width:1.5;" width="1027" x="268.5" y="193.8594"/><text fill="#000000" font-family="sans-serif" font-size="13" font-weight="bold" lengthAdjust="spacing" textLength="125" x="283.5" y="206.9263">Lookup and bind</text><path d="M278.5,217.9922 L342.5,217.9922 L342.5,225.125 L332.5,235.125 L278.5,235.125 L278.5,217.9922 " fill="#F8FAFC" style="stroke:#475569;stroke-width:1.5;"/><rect fill="none" height="283.8047" style="stroke:#475569;stroke-width:1.5;" width="1007" x="278.5" y="217.9922"/><text fill="#000000" font-family="sans-serif" font-size="13" font-weight="bold" lengthAdjust="spacing" textLength="19" x="293.5" y="231.0591">alt</text><text fill="#000000" font-family="sans-serif" font-size="11" font-weight="bold" lengthAdjust="spacing" textLength="256" x="357.5" y="230.2026">[tracked or explicit OCID already exists]</text><polygon fill="#334155" points="1113.5,252.2578,1123.5,256.2578,1113.5,260.2578,1117.5,256.2578" style="stroke:#334155;stroke-width:1.0;"/><line style="stroke:#334155;stroke-width:1.0;" x1="362.5" x2="1119.5" y1="256.2578" y2="256.2578"/><text fill="#000000" font-family="sans-serif" font-size="13" font-weight="bold" lengthAdjust="spacing" textLength="9" x="369.5" y="251.1919">3</text><text fill="#000000" font-family="sans-serif" font-size="13" lengthAdjust="spacing" textLength="278" x="382.5" y="251.1919">get the current resource by known identifier</text><line style="stroke:#475569;stroke-width:1.0;stroke-dasharray:2.0,2.0;" x1="278.5" x2="1285.5" y1="265.2578" y2="265.2578"/><text fill="#000000" font-family="sans-serif" font-size="11" font-weight="bold" lengthAdjust="spacing" textLength="145" x="283.5" y="275.4683">[no OCID is bound yet]</text><polygon fill="#334155" points="1113.5,296.1953,1123.5,300.1953,1113.5,304.1953,1117.5,300.1953" style="stroke:#334155;stroke-width:1.0;"/><line style="stroke:#334155;stroke-width:1.0;" x1="362.5" x2="1119.5" y1="300.1953" y2="300.1953"/><text fill="#000000" font-family="sans-serif" font-size="13" font-weight="bold" lengthAdjust="spacing" textLength="9" x="369.5" y="295.1294">4</text><text fill="#000000" font-family="sans-serif" font-size="13" lengthAdjust="spacing" textLength="193" x="382.5" y="295.1294">list resources by display name</text><path d="M288.5,315.1953 L365.5,315.1953 L365.5,322.3281 L355.5,332.3281 L288.5,332.3281 L288.5,315.1953 " fill="#F8FAFC" style="stroke:#475569;stroke-width:1.5;"/><rect fill="none" height="46.2656" style="stroke:#475569;stroke-width:1.5;" width="865" x="288.5" y="315.1953"/><text fill="#000000" font-family="sans-serif" font-size="13" font-weight="bold" lengthAdjust="spacing" textLength="32" x="303.5" y="328.2622">loop</text><text fill="#000000" font-family="sans-serif" font-size="11" font-weight="bold" lengthAdjust="spacing" textLength="263" x="380.5" y="327.4058">[later pages until a match or exhaustion]</text><polygon fill="#334155" points="1113.5,349.4609,1123.5,353.4609,1113.5,357.4609,1117.5,353.4609" style="stroke:#334155;stroke-width:1.0;"/><line style="stroke:#334155;stroke-width:1.0;" x1="362.5" x2="1119.5" y1="353.4609" y2="353.4609"/><text fill="#000000" font-family="sans-serif" font-size="13" font-weight="bold" lengthAdjust="spacing" textLength="9" x="369.5" y="348.395">5</text><text fill="#000000" font-family="sans-serif" font-size="13" lengthAdjust="spacing" textLength="147" x="382.5" y="348.395">fetch the next list page</text><path d="M288.5,375.4609 L352.5,375.4609 L352.5,382.5938 L342.5,392.5938 L288.5,392.5938 L288.5,375.4609 " fill="#F8FAFC" style="stroke:#475569;stroke-width:1.5;"/><rect fill="none" height="119.3359" style="stroke:#475569;stroke-width:1.5;" width="987" x="288.5" y="375.4609"/><text fill="#000000" font-family="sans-serif" font-size="13" font-weight="bold" lengthAdjust="spacing" textLength="19" x="303.5" y="388.5278">alt</text><text fill="#000000" font-family="sans-serif" font-size="11" font-weight="bold" lengthAdjust="spacing" textLength="162" x="367.5" y="387.6714">[existing resource found]</text><polygon fill="#334155" points="1197.5,409.7266,1207.5,413.7266,1197.5,417.7266,1201.5,413.7266" style="stroke:#334155;stroke-width:1.0;"/><line style="stroke:#334155;stroke-width:1.0;" x1="362.5" x2="1203.5" y1="413.7266" y2="413.7266"/><text fill="#000000" font-family="sans-serif" font-size="13" font-weight="bold" lengthAdjust="spacing" textLength="9" x="369.5" y="408.6606">6</text><text fill="#000000" font-family="sans-serif" font-size="13" lengthAdjust="spacing" textLength="221" x="382.5" y="408.6606">persist the resolved OCID in status</text><line style="stroke:#475569;stroke-width:1.0;stroke-dasharray:2.0,2.0;" x1="288.5" x2="1275.5" y1="422.7266" y2="422.7266"/><text fill="#000000" font-family="sans-serif" font-size="11" font-weight="bold" lengthAdjust="spacing" textLength="182" x="293.5" y="432.937">[no existing resource found]</text><polygon fill="#334155" points="1113.5,453.6641,1123.5,457.6641,1113.5,461.6641,1117.5,457.6641" style="stroke:#334155;stroke-width:1.0;"/><line style="stroke:#334155;stroke-width:1.0;" x1="362.5" x2="1119.5" y1="457.6641" y2="457.6641"/><text fill="#000000" font-family="sans-serif" font-size="13" font-weight="bold" lengthAdjust="spacing" textLength="9" x="369.5" y="452.5981">7</text><text fill="#000000" font-family="sans-serif" font-size="13" lengthAdjust="spacing" textLength="152" x="382.5" y="452.5981">create the OCI resource</text><polygon fill="#334155" points="1197.5,482.7969,1207.5,486.7969,1197.5,490.7969,1201.5,486.7969" style="stroke:#334155;stroke-width:1.0;"/><line style="stroke:#334155;stroke-width:1.0;" x1="362.5" x2="1203.5" y1="486.7969" y2="486.7969"/><text fill="#000000" font-family="sans-serif" font-size="13" font-weight="bold" lengthAdjust="spacing" textLength="9" x="369.5" y="481.731">8</text><text fill="#000000" font-family="sans-serif" font-size="13" lengthAdjust="spacing" textLength="216" x="382.5" y="481.731">persist the created OCID in status</text><path d="M10,522.7969 L74,522.7969 L74,529.9297 L64,539.9297 L10,539.9297 L10,522.7969 " fill="#F8FAFC" style="stroke:#475569;stroke-width:1.5;"/><rect fill="none" height="661.6016" style="stroke:#475569;stroke-width:1.5;" width="1275.5" x="10" y="522.7969"/><text fill="#000000" font-family="sans-serif" font-size="13" font-weight="bold" lengthAdjust="spacing" textLength="19" x="25" y="535.8638">alt</text><text fill="#000000" font-family="sans-serif" font-size="11" font-weight="bold" lengthAdjust="spacing" textLength="120" x="89" y="535.0073">[delete requested]</text><path d="M288.5,546.9297 L381.5,546.9297 L381.5,554.0625 L371.5,564.0625 L288.5,564.0625 L288.5,546.9297 " fill="#F8FAFC" style="stroke:#475569;stroke-width:1.5;"/><rect fill="none" height="104.5313" style="stroke:#475569;stroke-width:1.5;" width="987" x="288.5" y="546.9297"/><text fill="#000000" font-family="sans-serif" font-size="13" font-weight="bold" lengthAdjust="spacing" textLength="48" x="303.5" y="559.9966">Delete</text><polygon fill="#334155" points="1113.5,581.1953,1123.5,585.1953,1113.5,589.1953,1117.5,585.1953" style="stroke:#334155;stroke-width:1.0;"/><line style="stroke:#334155;stroke-width:1.0;" x1="362.5" x2="1119.5" y1="585.1953" y2="585.1953"/><text fill="#000000" font-family="sans-serif" font-size="13" font-weight="bold" lengthAdjust="spacing" textLength="9" x="369.5" y="580.1294">9</text><text fill="#000000" font-family="sans-serif" font-size="13" lengthAdjust="spacing" textLength="114" x="382.5" y="580.1294">submit OCI delete</text><polygon fill="#334155" points="1113.5,610.3281,1123.5,614.3281,1113.5,618.3281,1117.5,614.3281" style="stroke:#334155;stroke-width:1.0;"/><line style="stroke:#334155;stroke-width:1.0;" x1="362.5" x2="1119.5" y1="614.3281" y2="614.3281"/><text fill="#000000" font-family="sans-serif" font-size="13" font-weight="bold" lengthAdjust="spacing" textLength="18" x="369.5" y="609.2622">10</text><text fill="#000000" font-family="sans-serif" font-size="13" lengthAdjust="spacing" textLength="607" x="391.5" y="609.2622">Confirm deletion with follow-up GetServiceGateway calls until the resource is gone or not found.</text><polygon fill="#334155" points="1197.5,639.4609,1207.5,643.4609,1197.5,647.4609,1201.5,643.4609" style="stroke:#334155;stroke-width:1.0;"/><line style="stroke:#334155;stroke-width:1.0;" x1="362.5" x2="1203.5" y1="643.4609" y2="643.4609"/><text fill="#000000" font-family="sans-serif" font-size="13" font-weight="bold" lengthAdjust="spacing" textLength="18" x="369.5" y="638.395">11</text><text fill="#000000" font-family="sans-serif" font-size="13" lengthAdjust="spacing" textLength="289" x="391.5" y="638.395">remove the finalizer after delete confirmation</text><line style="stroke:#475569;stroke-width:1.0;stroke-dasharray:2.0,2.0;" x1="10" x2="1285.5" y1="659.4609" y2="659.4609"/><text fill="#000000" font-family="sans-serif" font-size="11" font-weight="bold" lengthAdjust="spacing" textLength="147" x="15" y="669.6714">[OCI state is retryable]</text><polygon fill="#334155" points="87.5,690.3984,77.5,694.3984,87.5,698.3984,83.5,694.3984" style="stroke:#334155;stroke-width:1.0;"/><line style="stroke:#334155;stroke-width:1.0;stroke-dasharray:2.0,2.0;" x1="81.5" x2="361.5" y1="694.3984" y2="694.3984"/><text fill="#000000" font-family="sans-serif" font-size="13" font-weight="bold" lengthAdjust="spacing" textLength="18" x="93.5" y="689.3325">12</text><text fill="#000000" font-family="sans-serif" font-size="13" lengthAdjust="spacing" textLength="110" x="115.5" y="689.3325">requeue required</text><line style="stroke:#475569;stroke-width:1.0;stroke-dasharray:2.0,2.0;" x1="10" x2="1285.5" y1="703.3984" y2="703.3984"/><text fill="#000000" font-family="sans-serif" font-size="11" font-weight="bold" lengthAdjust="spacing" textLength="200" x="15" y="713.6089">[OCI state is failed or terminal]</text><polygon fill="#334155" points="87.5,734.3359,77.5,738.3359,87.5,742.3359,83.5,738.3359" style="stroke:#334155;stroke-width:1.0;"/><line style="stroke:#334155;stroke-width:1.0;stroke-dasharray:2.0,2.0;" x1="81.5" x2="361.5" y1="738.3359" y2="738.3359"/><text fill="#000000" font-family="sans-serif" font-size="13" font-weight="bold" lengthAdjust="spacing" textLength="18" x="93.5" y="733.27">13</text><text fill="#000000" font-family="sans-serif" font-size="13" lengthAdjust="spacing" textLength="240" x="115.5" y="733.27">unsuccessful terminal reconcile result</text><line style="stroke:#475569;stroke-width:1.0;stroke-dasharray:2.0,2.0;" x1="10" x2="1285.5" y1="747.3359" y2="747.3359"/><text fill="#000000" font-family="sans-serif" font-size="11" font-weight="bold" lengthAdjust="spacing" textLength="203" x="15" y="757.5464">[OCI state is active and usable]</text><path d="M20,768.1406 L167,768.1406 L167,775.2734 L157,785.2734 L20,785.2734 L20,768.1406 " fill="#F8FAFC" style="stroke:#475569;stroke-width:1.5;"/><rect fill="none" height="380.125" style="stroke:#475569;stroke-width:1.5;" width="1154" x="20" y="768.1406"/><text fill="#000000" font-family="sans-serif" font-size="13" font-weight="bold" lengthAdjust="spacing" textLength="102" x="35" y="781.2075">Drift handling</text><path d="M324,790.2734 L324,905.2734 L1164,905.2734 L1164,800.2734 L1154,790.2734 L324,790.2734 " fill="#FEFFDD" style="stroke:#181818;stroke-width:0.5;"/><path d="M1154,790.2734 L1154,800.2734 L1164,800.2734 L1154,790.2734 " fill="#FEFFDD" style="stroke:#181818;stroke-width:0.5;"/><text fill="#000000" font-family="sans-serif" font-size="13" lengthAdjust="spacing" textLength="171" x="330" y="807.3403">Supported update surface:</text><text fill="#000000" font-family="sans-serif" font-size="13" lengthAdjust="spacing" textLength="94" x="330" y="822.4731">- display name</text><text fill="#000000" font-family="sans-serif" font-size="13" lengthAdjust="spacing" textLength="96" x="330" y="837.606">- freeform tags</text><text fill="#000000" font-family="sans-serif" font-size="13" lengthAdjust="spacing" textLength="88" x="330" y="852.7388">- defined tags</text><text fill="#000000" font-family="sans-serif" font-size="13" lengthAdjust="spacing" textLength="125" x="330" y="867.8716">- services collection</text><text fill="#000000" font-family="sans-serif" font-size="13" lengthAdjust="spacing" textLength="139" x="330" y="883.0044">Reject before mutate:</text><text fill="#000000" font-family="sans-serif" font-size="13" lengthAdjust="spacing" textLength="71" x="330" y="898.1372">- vcnId drift</text><path d="M30,918.2031 L100,918.2031 L100,925.3359 L90,935.3359 L30,935.3359 L30,918.2031 " fill="#F8FAFC" style="stroke:#475569;stroke-width:1.5;"/><rect fill="none" height="46.2656" style="stroke:#475569;stroke-width:1.5;" width="406.5" x="30" y="918.2031"/><text fill="#000000" font-family="sans-serif" font-size="13" font-weight="bold" lengthAdjust="spacing" textLength="25" x="45" y="931.27">opt</text><text fill="#000000" font-family="sans-serif" font-size="11" font-weight="bold" lengthAdjust="spacing" textLength="286" x="115" y="930.4136">[unsupported or immutable drift is detected]</text><polygon fill="#334155" points="87.5,952.4688,77.5,956.4688,87.5,960.4688,83.5,956.4688" style="stroke:#334155;stroke-width:1.0;"/><line style="stroke:#334155;stroke-width:1.0;stroke-dasharray:2.0,2.0;" x1="81.5" x2="361.5" y1="956.4688" y2="956.4688"/><text fill="#000000" font-family="sans-serif" font-size="13" font-weight="bold" lengthAdjust="spacing" textLength="18" x="93.5" y="951.4028">14</text><text fill="#000000" font-family="sans-serif" font-size="13" lengthAdjust="spacing" textLength="169" x="115.5" y="951.4028">reject before OCI mutation</text><polygon fill="#334155" points="1113.5,988.6016,1123.5,992.6016,1113.5,996.6016,1117.5,992.6016" style="stroke:#334155;stroke-width:1.0;"/><line style="stroke:#334155;stroke-width:1.0;" x1="362.5" x2="1119.5" y1="992.6016" y2="992.6016"/><text fill="#000000" font-family="sans-serif" font-size="13" font-weight="bold" lengthAdjust="spacing" textLength="18" x="369.5" y="987.5356">15</text><text fill="#000000" font-family="sans-serif" font-size="13" lengthAdjust="spacing" textLength="560" x="391.5" y="987.5356">Continue full pagination until a display-name match is found or all pages are exhausted.</text><polygon fill="#334155" points="1113.5,1017.7344,1123.5,1021.7344,1113.5,1025.7344,1117.5,1021.7344" style="stroke:#334155;stroke-width:1.0;"/><line style="stroke:#334155;stroke-width:1.0;" x1="362.5" x2="1119.5" y1="1021.7344" y2="1021.7344"/><text fill="#000000" font-family="sans-serif" font-size="13" font-weight="bold" lengthAdjust="spacing" textLength="18" x="369.5" y="1016.6685">16</text><text fill="#000000" font-family="sans-serif" font-size="13" lengthAdjust="spacing" textLength="598" x="391.5" y="1016.6685">Reuse the resolved OCID for all later update and delete operations once the gateway is found.</text><polygon fill="#334155" points="1113.5,1046.8672,1123.5,1050.8672,1113.5,1054.8672,1117.5,1050.8672" style="stroke:#334155;stroke-width:1.0;"/><line style="stroke:#334155;stroke-width:1.0;" x1="362.5" x2="1119.5" y1="1050.8672" y2="1050.8672"/><text fill="#000000" font-family="sans-serif" font-size="13" font-weight="bold" lengthAdjust="spacing" textLength="18" x="369.5" y="1045.8013">17</text><text fill="#000000" font-family="sans-serif" font-size="13" lengthAdjust="spacing" textLength="717" x="391.5" y="1045.8013">Move the Service Gateway compartment before calling the mutable update path when compartment drift exists.</text><polygon fill="#334155" points="1113.5,1076,1123.5,1080,1113.5,1084,1117.5,1080" style="stroke:#334155;stroke-width:1.0;"/><line style="stroke:#334155;stroke-width:1.0;" x1="362.5" x2="1119.5" y1="1080" y2="1080"/><text fill="#000000" font-family="sans-serif" font-size="13" font-weight="bold" lengthAdjust="spacing" textLength="18" x="369.5" y="1074.9341">18</text><text fill="#000000" font-family="sans-serif" font-size="13" lengthAdjust="spacing" textLength="709" x="391.5" y="1074.9341">Compare the services collection order-insensitively before deciding whether UpdateServiceGateway is required.</text><path d="M288.5,1095 L358.5,1095 L358.5,1102.1328 L348.5,1112.1328 L288.5,1112.1328 L288.5,1095 " fill="#F8FAFC" style="stroke:#475569;stroke-width:1.5;"/><rect fill="none" height="46.2656" style="stroke:#475569;stroke-width:1.5;" width="865" x="288.5" y="1095"/><text fill="#000000" font-family="sans-serif" font-size="13" font-weight="bold" lengthAdjust="spacing" textLength="25" x="303.5" y="1108.0669">opt</text><text fill="#000000" font-family="sans-serif" font-size="11" font-weight="bold" lengthAdjust="spacing" textLength="258" x="373.5" y="1107.2104">[supported drift or collection diff exists]</text><polygon fill="#334155" points="1113.5,1129.2656,1123.5,1133.2656,1113.5,1137.2656,1117.5,1133.2656" style="stroke:#334155;stroke-width:1.0;"/><line style="stroke:#334155;stroke-width:1.0;" x1="362.5" x2="1119.5" y1="1133.2656" y2="1133.2656"/><text fill="#000000" font-family="sans-serif" font-size="13" font-weight="bold" lengthAdjust="spacing" textLength="18" x="369.5" y="1128.1997">19</text><text fill="#000000" font-family="sans-serif" font-size="13" lengthAdjust="spacing" textLength="277" x="391.5" y="1128.1997">apply the supported in-place mutation path</text><polygon fill="#334155" points="87.5,1172.3984,77.5,1176.3984,87.5,1180.3984,83.5,1176.3984" style="stroke:#334155;stroke-width:1.0;"/><line style="stroke:#334155;stroke-width:1.0;stroke-dasharray:2.0,2.0;" x1="81.5" x2="361.5" y1="1176.3984" y2="1176.3984"/><text fill="#000000" font-family="sans-serif" font-size="13" font-weight="bold" lengthAdjust="spacing" textLength="18" x="93.5" y="1171.3325">20</text><text fill="#000000" font-family="sans-serif" font-size="13" lengthAdjust="spacing" textLength="169" x="115.5" y="1171.3325">successful active reconcile</text><path d="M51,1196.3984 L51,1357.3984 L1149,1357.3984 L1149,1206.3984 L1139,1196.3984 L51,1196.3984 " fill="#FEFFDD" style="stroke:#181818;stroke-width:0.5;"/><path d="M1139,1196.3984 L1139,1206.3984 L1149,1206.3984 L1139,1196.3984 " fill="#FEFFDD" style="stroke:#181818;stroke-width:0.5;"/><text fill="#000000" font-family="sans-serif" font-size="13" lengthAdjust="spacing" textLength="105" x="57" y="1213.4653">Boundary notes:</text><text fill="#000000" font-family="sans-serif" font-size="13" lengthAdjust="spacing" textLength="428" x="57" y="1228.5981">- Pagination and field-level drift are still documented primarily in Go</text><text fill="#000000" font-family="sans-serif" font-size="13" lengthAdjust="spacing" textLength="157" x="73" y="1243.731">code and property tests.</text><text fill="#000000" font-family="sans-serif" font-size="13" lengthAdjust="spacing" textLength="459" x="57" y="1258.8638">- The services collection is reconciled in implementation, but the current</text><text fill="#000000" font-family="sans-serif" font-size="13" lengthAdjust="spacing" textLength="437" x="73" y="1273.9966">formal profile does not model it as a collection-equivalence contract.</text><text fill="#000000" font-family="sans-serif" font-size="13" lengthAdjust="spacing" textLength="108" x="57" y="1289.1294">Sequence notes:</text><text fill="#000000" font-family="sans-serif" font-size="13" lengthAdjust="spacing" textLength="444" x="57" y="1304.2622">- Later-page matches must keep using the resolved OCID rather than</text><text fill="#000000" font-family="sans-serif" font-size="13" lengthAdjust="spacing" textLength="165" x="73" y="1319.395">restarting the lookup flow.</text><text fill="#000000" font-family="sans-serif" font-size="13" lengthAdjust="spacing" textLength="166" x="57" y="1334.5278">Controller-local invariants:</text><text fill="#000000" font-family="sans-serif" font-size="13" lengthAdjust="spacing" textLength="229" x="57" y="1349.6606">- StatusPresentUsesStatusInvariant</text><!--SRC=[bLRRRXit47tVhnYuhv6HDd4kVYZWEB4Hn6aD9_a0QdTMOiqbjoHNYbhqttk6v4fhMNBQ08xXvLpFd3barD4m_NxvaRwmN-cQwLf5NgiDtN7jRArn-eN_7DZMNAaXEZjqS_PLkDUsLrvr59QgSMjj5zGg4tXoyaxLzmll1jjSEkCy_NIL_aqiBhntwtBuuiNBdy_E9eSDjsemyIj_ZnT6Bsp7DfBXDawJbzBexuheLlceQzqh6n-dVdDrSNMvP-HymxuOl7nzTlRgBGnkTCitslA3qxSlBrwyUpCzFT8RqJM-zeT3vwEZfLtKqVb7nn-UN_rozM5xF0ty_EhrgrSVgdyg9KTqSkbizCuOzYUa0kt-hFfTrtGoJlgpicfHRCktygbgL5Hp5PXEG8raWD-Jhvy6aC1ov40NjzdWqvjGLRkKDFjrB-Wv-Isb6WxQSqEXvvgKRSZe5LE8AWwXUkWcWH1Rl5L3btV5AdcrsYgZ_uAHVEIg4kHwkd7k7h_4Ogvj0-oKYHGze4LE8CNVUmCuedJr7eSIUeElEiG0QwB79S3od1QCC4kcUl1UsEWvkC43olc6xgrRMz8DlkjM0qCYnZwGTJcB3ZINiTA6urCv38hO1WuIkT6XDzX8gpfEdiQvdWmQzjJ3Dz20d8OKTIhMozpWKWqXQcUJmz5aBOk3j6InPZctX4nUdA3Bu2LiPCctBRVIpD7eQM8z-o0H9RxucHNWps3OSTWfKS7f_oP9BTGONkIKGsHiTFtlbUK0XmjBoUL_-Qa4Y8ODQ8yq49u0DvndqhrF1qzDDWppBdEkH7dA69lKQjzbIyoHrZekWOSnRZr3kckEnNCKx5ePCr9XH3o12EOjd6NXXNKnOtfQFO6EvywjCgIx3LEjyAsqN-VgL65OGaY6ABsbLPIadgFVgBcHFlSp8TLEAyupd4E6LOJXGBHMGJZIzgAEJihwSTZ1Xg765eLsC5ktYGm18jmm1v91K4MGH466K5eeO_QwZRJ4YG5J4ug_EJW1CBzNpZFHp4B3eU-T5vODVICvmk1RLVDvEPyzNdBvs7hcre45KIt2pfGn5OHwy37ar06ZGU_rPFNl-0_yJNE9nDGDqkCkxwgs7njgfAkHyiAIN8FhOy9mB1xWwquYp4N34n80gm4ZwhmAXqZrQDJJSWJrLD9OxoWwnzS22W6cOA96f0eJJUinIc31SIOu5ZqKyYJbHVagUm4dXUn59ldeEgISTpm4FY1YROcNbRWCLYXJbiH1PL9nWPoyKIJ2eYphMDEJYJ-FMxZ_DgjT9pTwUX4L86NxHJh5V9nGAQbNK8xrakq3lpo-VEUTFWsvEEL23h2CqejafcrW6xIiZTcCHJLSwqQgGdQuU_gMAjeJhYGLUUzFjxJRaIuN2gmdEHlTjjFx-cZngkzHJYfz6r3R6IXIyvPu2Q4zmVyXZoVAKjHYgolvjjZ9miwjIC8x6RtocxHfGPPnXeVfbilvQSEccHa6d0K1cG6kHn2kSVKWCqGllTUTyXezukQwTWMCsZMPYRqN4aOWm6NCC_fwP8vf3AK30GchtXkMFAcgPpGV7hn-IYxH9uWgChNfPUSGLQwP3ZKOmds7jw6Qv9d9g5VAf6TxBSW0ljE4TtdBJq2vaTMQoSBcNKRi3WjBzymzb7aa_CEznD89ro94kjI8yoWlu69kylkmnLKgYNVZcHc7FKBlAs2AjtAfuajw4TmY2jh-5ZZa3nz7isehcly2]--></g></svg>