<?xml version="1.0" encoding="UTF-8" standalone="no"?><svg xmlns="http://www.w3.org/2000/svg" xmlns:xlink="http://www.w3.org/1999/xlink" contentStyleType="text/css" height="484px" preserveAspectRatio="none" style="width:2353px;height:484px;background:#FFFFFF;" version="1.1" viewBox="0 0 2353 484" width="2353px" zoomAndPan="magnify"><defs/><g><text fill="#000000" font-family="sans-serif" font-size="14" font-weight="bold" lengthAdjust="spacing" textLength="362" x="988.5" y="22.9951">OCI Service Gateway Reconcile State Machine</text><ellipse cx="16" cy="324.7969" fill="#222222" rx="10" ry="10" style="stroke:none;stroke-width:1.0;"/><g id="Observe"><rect fill="#F8FAFC" height="50.2656" rx="6" ry="6" style="stroke:#475569;stroke-width:0.5;" width="329" x="86" y="299.7969"/><line style="stroke:#475569;stroke-width:0.5;" x1="86" x2="415" y1="326.0938" y2="326.0938"/><text fill="#0F172A" font-family="sans-serif" font-size="14" lengthAdjust="spacing" textLength="58" x="221.5" y="317.792">Observe</text><text fill="#0F172A" font-family="sans-serif" font-size="12" lengthAdjust="spacing" textLength="309" x="91" y="342.2324">read spec, status, delete intent, and OCI lifecycle</text></g><rect fill="#F8FAFC" height="40" rx="6" ry="6" style="stroke:#475569;stroke-width:0.5;" width="122" x="475" y="304.7969"/><text fill="#0F172A" font-family="sans-serif" font-size="14" lengthAdjust="spacing" textLength="112" x="480" y="329.6436">ResolveByName</text><rect fill="#F8FAFC" height="40" rx="6" ry="6" style="stroke:#475569;stroke-width:0.5;" width="130" x="657" y="304.7969"/><text fill="#0F172A" font-family="sans-serif" font-size="14" lengthAdjust="spacing" textLength="120" x="662" y="329.6436">PaginatedLookup</text><rect fill="#F8FAFC" height="40" rx="6" ry="6" style="stroke:#475569;stroke-width:0.5;" width="111" x="847" y="213.7969"/><text fill="#0F172A" font-family="sans-serif" font-size="14" lengthAdjust="spacing" textLength="101" x="852" y="238.6436">EvaluateReady</text><rect fill="#F8FAFC" height="40" rx="6" ry="6" style="stroke:#475569;stroke-width:0.5;" width="75" x="1262" y="304.7969"/><text fill="#0F172A" font-family="sans-serif" font-size="14" lengthAdjust="spacing" textLength="65" x="1267" y="329.6436">Retryable</text><rect fill="#F8FAFC" height="40" rx="6" ry="6" style="stroke:#475569;stroke-width:0.5;" width="50" x="1409.5" y="390.7969"/><text fill="#0F172A" font-family="sans-serif" font-size="14" lengthAdjust="spacing" textLength="40" x="1414.5" y="415.6436">Failed</text><rect fill="#F8FAFC" height="40" rx="6" ry="6" style="stroke:#475569;stroke-width:0.5;" width="173" x="1018" y="138.7969"/><text fill="#0F172A" font-family="sans-serif" font-size="14" lengthAdjust="spacing" textLength="163" x="1023" y="163.6436">RejectUnsupportedDrift</text><rect fill="#F8FAFC" height="40" rx="6" ry="6" style="stroke:#475569;stroke-width:0.5;" width="53" x="1408" y="184.7969"/><text fill="#0F172A" font-family="sans-serif" font-size="14" lengthAdjust="spacing" textLength="43" x="1413" y="209.6436">Ready</text><rect fill="#F8FAFC" height="40" rx="6" ry="6" style="stroke:#475569;stroke-width:0.5;" width="142" x="1033.5" y="213.7969"/><text fill="#0F172A" font-family="sans-serif" font-size="14" lengthAdjust="spacing" textLength="132" x="1038.5" y="238.6436">MoveCompartment</text><rect fill="#F8FAFC" height="40" rx="6" ry="6" style="stroke:#475569;stroke-width:0.5;" width="97" x="1251" y="211.7969"/><text fill="#0F172A" font-family="sans-serif" font-size="14" lengthAdjust="spacing" textLength="87" x="1256" y="236.6436">ApplyUpdate</text><rect fill="#F8FAFC" height="40" rx="6" ry="6" style="stroke:#475569;stroke-width:0.5;" width="113" x="1654.5" y="345.7969"/><text fill="#0F172A" font-family="sans-serif" font-size="14" lengthAdjust="spacing" textLength="103" x="1659.5" y="370.6436">DeletePending</text><rect fill="#F8FAFC" height="40" rx="6" ry="6" style="stroke:#475569;stroke-width:0.5;" width="65" x="2121" y="292.7969"/><text fill="#0F172A" font-family="sans-serif" font-size="14" lengthAdjust="spacing" textLength="55" x="2126" y="317.6436">Deleted</text><g id="elem_GMN34"><path d="M1521,49.2969 L1521,194.1269 L1461.01,198.1269 L1521,202.1269 L1521,304.5547 A6,6 0 0 0 1527,310.5547 L1895,310.5547 A6,6 0 0 0 1901,304.5547 L1901,53.2969 L1891,43.2969 L1527,43.2969 A6,6 0 0 0 1521,49.2969 " fill="#FFF7ED" style="stroke:#181818;stroke-width:0.5;"/><path d="M1891,43.2969 L1891,50.2969 A3,3 0 0 0 1894,53.2969 L1901,53.2969 L1891,43.2969 " fill="#FFF7ED" style="stroke:#181818;stroke-width:0.5;"/><text fill="#0F172A" font-family="sans-serif" font-size="13" lengthAdjust="spacing" textLength="69" x="1527" y="60.3638">Archetype:</text><text fill="#0F172A" font-family="sans-serif" font-size="13" lengthAdjust="spacing" textLength="207" x="1527" y="75.4966">- resolved-drift-delete-paginated</text><text fill="#0F172A" font-family="sans-serif" font-size="13" lengthAdjust="spacing" textLength="102" x="1527" y="90.6294">Update surface:</text><text fill="#0F172A" font-family="sans-serif" font-size="13" lengthAdjust="spacing" textLength="94" x="1527" y="105.7622">- display name</text><text fill="#0F172A" font-family="sans-serif" font-size="13" lengthAdjust="spacing" textLength="96" x="1527" y="120.895">- freeform tags</text><text fill="#0F172A" font-family="sans-serif" font-size="13" lengthAdjust="spacing" textLength="88" x="1527" y="136.0278">- defined tags</text><text fill="#0F172A" font-family="sans-serif" font-size="13" lengthAdjust="spacing" textLength="125" x="1527" y="151.1606">- services collection</text><text fill="#0F172A" font-family="sans-serif" font-size="13" lengthAdjust="spacing" textLength="139" x="1527" y="166.2935">Reject before mutate:</text><text fill="#0F172A" font-family="sans-serif" font-size="13" lengthAdjust="spacing" textLength="71" x="1527" y="181.4263">- vcnId drift</text><text fill="#0F172A" font-family="sans-serif" font-size="13" lengthAdjust="spacing" textLength="105" x="1527" y="196.5591">Boundary notes:</text><text fill="#0F172A" font-family="sans-serif" font-size="13" lengthAdjust="spacing" textLength="332" x="1527" y="211.6919">- Pagination and field-level drift are still documented</text><text fill="#0F172A" font-family="sans-serif" font-size="13" lengthAdjust="spacing" textLength="253" x="1543" y="226.8247">primarily in Go code and property tests.</text><text fill="#0F172A" font-family="sans-serif" font-size="13" lengthAdjust="spacing" textLength="359" x="1527" y="241.9575">- The services collection is reconciled in implementation,</text><text fill="#0F172A" font-family="sans-serif" font-size="13" lengthAdjust="spacing" textLength="331" x="1543" y="257.0903">but the current formal profile does not model it as a</text><text fill="#0F172A" font-family="sans-serif" font-size="13" lengthAdjust="spacing" textLength="202" x="1543" y="272.2231">collection-equivalence contract.</text><text fill="#0F172A" font-family="sans-serif" font-size="13" lengthAdjust="spacing" textLength="166" x="1527" y="287.356">Controller-local invariants:</text><text fill="#0F172A" font-family="sans-serif" font-size="13" lengthAdjust="spacing" textLength="229" x="1527" y="302.4888">- StatusPresentUsesStatusInvariant</text></g><g id="elem_GMN37"><path d="M1961,374.2969 L1961,373.0469 L1767.94,377.0469 L1961,381.0469 L1961,463.0938 A6,6 0 0 0 1967,469.0938 L2340,469.0938 A6,6 0 0 0 2346,463.0938 L2346,378.2969 L2336,368.2969 L1967,368.2969 A6,6 0 0 0 1961,374.2969 " fill="#FFF7ED" style="stroke:#181818;stroke-width:0.5;"/><path d="M2336,368.2969 L2336,375.2969 A3,3 0 0 0 2339,378.2969 L2346,378.2969 L2336,368.2969 " fill="#FFF7ED" style="stroke:#181818;stroke-width:0.5;"/><text fill="#0F172A" font-family="sans-serif" font-size="13" lengthAdjust="spacing" textLength="90" x="1967" y="385.3638">Delete states:</text><text fill="#0F172A" font-family="sans-serif" font-size="13" lengthAdjust="spacing" textLength="102" x="1967" y="400.4966">- DeletePending</text><text fill="#0F172A" font-family="sans-serif" font-size="13" lengthAdjust="spacing" textLength="59" x="1967" y="415.6294">- Deleted</text><text fill="#0F172A" font-family="sans-serif" font-size="13" lengthAdjust="spacing" textLength="103" x="1967" y="430.7622">Delete workflow:</text><text fill="#0F172A" font-family="sans-serif" font-size="13" lengthAdjust="spacing" textLength="364" x="1967" y="445.895">- Confirm deletion with follow-up GetServiceGateway calls</text><text fill="#0F172A" font-family="sans-serif" font-size="13" lengthAdjust="spacing" textLength="248" x="1983" y="461.0278">until the resource is gone or not found.</text></g><!--link *start to Observe--><g id="link_*start_Observe"><path d="M26.08,324.7969 C26.08,324.7969 80.84,324.7969 80.84,324.7969 " fill="none" id="*start-to-Observe" style="stroke:#181818;stroke-width:1.0;"/><polygon fill="#181818" points="85.84,324.7969,76.84,320.7969,80.84,324.7969,76.84,328.7969,85.84,324.7969" style="stroke:#181818;stroke-width:1.0;"/></g><!--link Observe to ResolveByName--><g id="link_Observe_ResolveByName"><path d="M415.34,324.7969 C415.34,324.7969 469.86,324.7969 469.86,324.7969 " fill="none" id="Observe-to-ResolveByName" style="stroke:#181818;stroke-width:1.0;"/><polygon fill="#181818" points="474.86,324.7969,465.86,320.7969,469.86,324.7969,465.86,328.7969,474.86,324.7969" style="stroke:#181818;stroke-width:1.0;"/><text fill="#000000" font-family="sans-serif" font-size="13" lengthAdjust="spacing" textLength="163" x="443.6" y="337.8638">status/spec OCID missing</text></g><!--link ResolveByName to PaginatedLookup--><g id="link_ResolveByName_PaginatedLookup"><path d="M597.16,324.7969 C597.16,324.7969 651.96,324.7969 651.96,324.7969 " fill="none" id="ResolveByName-to-PaginatedLookup" style="stroke:#181818;stroke-width:1.0;"/><polygon fill="#181818" points="656.96,324.7969,647.96,320.7969,651.96,324.7969,647.96,328.7969,656.96,324.7969" style="stroke:#181818;stroke-width:1.0;"/><text fill="#000000" font-family="sans-serif" font-size="13" lengthAdjust="spacing" textLength="219" x="625.56" y="337.8638">continue searching later list pages</text></g><!--link PaginatedLookup to EvaluateReady--><g id="link_PaginatedLookup_EvaluateReady"><path d="M787.09,314.7969 C838.98,314.7969 903,314.7969 903,314.7969 C903,314.7969 903,258.8169 903,258.8169 " fill="none" id="PaginatedLookup-to-EvaluateReady" style="stroke:#181818;stroke-width:1.0;"/><polygon fill="#181818" points="903,253.8169,899,262.8169,903,258.8169,907,262.8169,903,253.8169" style="stroke:#181818;stroke-width:1.0;"/><text fill="#000000" font-family="sans-serif" font-size="13" lengthAdjust="spacing" textLength="148" x="874.03" y="310.8638">OCI state in AVAILABLE</text></g><!--link PaginatedLookup to Retryable--><g id="link_PaginatedLookup_Retryable"><path d="M787.12,324.7969 C787.12,324.7969 1256.7,324.7969 1256.7,324.7969 " fill="none" id="PaginatedLookup-to-Retryable" style="stroke:#181818;stroke-width:1.0;"/><polygon fill="#181818" points="1261.7,324.7969,1252.7,320.7969,1256.7,324.7969,1252.7,328.7969,1261.7,324.7969" style="stroke:#181818;stroke-width:1.0;"/><text fill="#000000" font-family="sans-serif" font-size="13" lengthAdjust="spacing" textLength="246" x="1022.91" y="337.8638">OCI state in PROVISIONING, UPDATING</text></g><!--link PaginatedLookup to Failed--><g id="link_PaginatedLookup_Failed"><path d="M722,344.8169 C722,368.3169 722,404.1269 722,404.1269 C722,404.1269 1404.14,404.1269 1404.14,404.1269 " fill="none" id="PaginatedLookup-to-Failed" style="stroke:#181818;stroke-width:1.0;"/><polygon fill="#181818" points="1409.14,404.1269,1400.14,400.1269,1404.14,404.1269,1400.14,408.1269,1409.14,404.1269" style="stroke:#181818;stroke-width:1.0;"/><text fill="#000000" font-family="sans-serif" font-size="13" lengthAdjust="spacing" textLength="188" x="844.41" y="417.1938">OCI state in FAILED, DELETED</text></g><!--link EvaluateReady to RejectUnsupportedDrift--><g id="link_EvaluateReady_RejectUnsupportedDrift"><path d="M958.11,227.1269 C990.89,227.1269 1026,227.1269 1026,227.1269 C1026,227.1269 1026,183.9269 1026,183.9269 " fill="none" id="EvaluateReady-to-RejectUnsupportedDrift" style="stroke:#181818;stroke-width:1.0;"/><polygon fill="#181818" points="1026,178.9269,1022,187.9269,1026,183.9269,1030,187.9269,1026,178.9269" style="stroke:#181818;stroke-width:1.0;"/><text fill="#000000" font-family="sans-serif" font-size="13" lengthAdjust="spacing" textLength="275" x="737.65" y="223.1938">unsupported or immutable drift is detected</text></g><!--link RejectUnsupportedDrift to Ready--><g id="link_RejectUnsupportedDrift_Ready"><path d="M1184,179.0069 C1184,188.7269 1184,198.2969 1184,198.2969 C1184,198.2969 1402.69,198.2969 1402.69,198.2969 " fill="none" id="RejectUnsupportedDrift-to-Ready" style="stroke:#181818;stroke-width:1.0;"/><polygon fill="#181818" points="1407.69,198.2969,1398.69,194.2969,1402.69,198.2969,1398.69,202.2969,1407.69,198.2969" style="stroke:#181818;stroke-width:1.0;"/><text fill="#000000" font-family="sans-serif" font-size="13" lengthAdjust="spacing" textLength="252" x="1030.7" y="194.3638">wait for the spec or live state to change</text></g><!--link EvaluateReady to MoveCompartment--><g id="link_EvaluateReady_MoveCompartment"><path d="M958.23,240.4669 C958.23,240.4669 1028.4,240.4669 1028.4,240.4669 " fill="none" id="EvaluateReady-to-MoveCompartment" style="stroke:#181818;stroke-width:1.0;"/><polygon fill="#181818" points="1033.4,240.4669,1024.4,236.4669,1028.4,240.4669,1024.4,244.4669,1033.4,240.4669" style="stroke:#181818;stroke-width:1.0;"/><text fill="#000000" font-family="sans-serif" font-size="13" lengthAdjust="spacing" textLength="158" x="834.32" y="253.5338">continue active reconcile</text></g><!--link MoveCompartment to ApplyUpdate--><g id="link_MoveCompartment_ApplyUpdate"><path d="M1175.73,232.7969 C1175.73,232.7969 1245.99,232.7969 1245.99,232.7969 " fill="none" id="MoveCompartment-to-ApplyUpdate" style="stroke:#181818;stroke-width:1.0;"/><polygon fill="#181818" points="1250.99,232.7969,1241.99,228.7969,1245.99,232.7969,1241.99,236.7969,1250.99,232.7969" style="stroke:#181818;stroke-width:1.0;"/><text fill="#000000" font-family="sans-serif" font-size="13" lengthAdjust="spacing" textLength="221" x="1211.86" y="228.8638">continue after compartment move</text></g><!--link ApplyUpdate to Ready--><g id="link_ApplyUpdate_Ready"><path d="M1348.24,216.1269 C1348.24,216.1269 1402.81,216.1269 1402.81,216.1269 " fill="none" id="ApplyUpdate-to-Ready" style="stroke:#181818;stroke-width:1.0;"/><polygon fill="#181818" points="1407.81,216.1269,1398.81,212.1269,1402.81,216.1269,1398.81,220.1269,1407.81,216.1269" style="stroke:#181818;stroke-width:1.0;"/><text fill="#000000" font-family="sans-serif" font-size="13" lengthAdjust="spacing" textLength="231" x="1143.52" y="212.1938">supported mutation path completes</text></g><!--link Ready to Ready--><g id="link_Ready_Ready"><path d="M1407.84,220.4669 C1389.33,220.4669 1368,220.4669 1368,220.4669 C1368,220.4669 1368,238.2969 1368,238.2969 C1368,238.2969 1481,238.2969 1481,238.2969 C1481,238.2969 1481,211.4669 1481,211.4669 C1481,211.4669 1466.01,211.4669 1466.01,211.4669 " fill="none" id="Ready-to-Ready" style="stroke:#181818;stroke-width:1.0;"/><polygon fill="#181818" points="1461.01,211.4669,1470.01,215.4669,1466.01,211.4669,1470.01,207.4669,1461.01,211.4669" style="stroke:#181818;stroke-width:1.0;"/><text fill="#000000" font-family="sans-serif" font-size="13" lengthAdjust="spacing" textLength="170" x="1240.58" y="256.3638">no supported drift remains</text></g><!--link Retryable to Retryable--><g id="link_Retryable_Retryable"><path d="M1261.88,334.7969 C1258.89,334.7969 1257,334.7969 1257,334.7969 C1257,334.7969 1257,356.9969 1257,356.9969 C1257,356.9969 1343,356.9969 1343,356.9969 C1343,356.9969 1343,336.7969 1343,336.7969 C1343,336.7969 1342.31,336.7969 1342.31,336.7969 " fill="none" id="Retryable-to-Retryable" style="stroke:#181818;stroke-width:1.0;"/><polygon fill="#181818" points="1337.31,336.7969,1346.31,340.7969,1342.31,336.7969,1346.31,332.7969,1337.31,336.7969" style="stroke:#181818;stroke-width:1.0;"/><text fill="#000000" font-family="sans-serif" font-size="13" lengthAdjust="spacing" textLength="159" x="1131.91" y="375.0638">OCI remains nonterminal</text></g><!--link Failed to Failed--><g id="link_Failed_Failed"><path d="M1409.34,417.4669 C1398.39,417.4669 1388,417.4669 1388,417.4669 C1388,417.4669 1388,450.0469 1388,450.0469 C1388,450.0469 1501,450.0469 1501,450.0469 C1501,450.0469 1501,410.7969 1501,410.7969 C1501,410.7969 1464.64,410.7969 1464.64,410.7969 " fill="none" id="Failed-to-Failed" style="stroke:#181818;stroke-width:1.0;"/><polygon fill="#181818" points="1459.64,410.7969,1468.64,414.7969,1464.64,410.7969,1468.64,406.7969,1459.64,410.7969" style="stroke:#181818;stroke-width:1.0;"/><text fill="#000000" font-family="sans-serif" font-size="13" lengthAdjust="spacing" textLength="135" x="1314.34" y="468.1138">OCI remains terminal</text></g><!--link Ready to DeletePending--><g id="link_Ready_DeletePending"><path d="M1427,224.9869 C1427,267.8769 1427,364.1969 1427,364.1969 C1427,364.1969 1649.21,364.1969 1649.21,364.1969 " fill="none" id="Ready-to-DeletePending" style="stroke:#181818;stroke-width:1.0;"/><polygon fill="#181818" points="1654.21,364.1969,1645.21,360.1969,1649.21,364.1969,1645.21,368.1969,1654.21,364.1969" style="stroke:#181818;stroke-width:1.0;"/><text fill="#000000" font-family="sans-serif" font-size="13" lengthAdjust="spacing" textLength="109" x="1358.5" y="360.2638">delete requested</text></g><!--link Retryable to DeletePending--><g id="link_Retryable_DeletePending"><path d="M1300,344.8269 C1300,357.4569 1300,371.3969 1300,371.3969 C1300,371.3969 1649.28,371.3969 1649.28,371.3969 " fill="none" id="Retryable-to-DeletePending" style="stroke:#181818;stroke-width:1.0;"/><polygon fill="#181818" points="1654.28,371.3969,1645.28,367.3969,1649.28,371.3969,1645.28,375.3969,1654.28,371.3969" style="stroke:#181818;stroke-width:1.0;"/><text fill="#000000" font-family="sans-serif" font-size="13" lengthAdjust="spacing" textLength="109" x="1351.36" y="384.4638">delete requested</text></g><!--link Failed to DeletePending--><g id="link_Failed_DeletePending"><path d="M1443,390.5869 C1443,384.1169 1443,378.5969 1443,378.5969 C1443,378.5969 1649.49,378.5969 1649.49,378.5969 " fill="none" id="Failed-to-DeletePending" style="stroke:#181818;stroke-width:1.0;"/><polygon fill="#181818" points="1654.49,378.5969,1645.49,374.5969,1649.49,378.5969,1645.49,382.5969,1654.49,378.5969" style="stroke:#181818;stroke-width:1.0;"/><text fill="#000000" font-family="sans-serif" font-size="13" lengthAdjust="spacing" textLength="109" x="1541.25" y="391.6638">delete requested</text></g><!--link DeletePending to Deleted--><g id="link_DeletePending_Deleted"><path d="M1767.56,357.0469 C1886.98,357.0469 2154,357.0469 2154,357.0469 C2154,357.0469 2154,337.8469 2154,337.8469 " fill="none" id="DeletePending-to-Deleted" style="stroke:#181818;stroke-width:1.0;"/><polygon fill="#181818" points="2154,332.8469,2150,341.8469,2154,337.8469,2158,341.8469,2154,332.8469" style="stroke:#181818;stroke-width:1.0;"/><text fill="#000000" font-family="sans-serif" font-size="13" lengthAdjust="spacing" textLength="373" x="1971.38" y="357.3638">OCI deletion is confirmed and the finalizer can be removed</text></g><!--link Deleted to Deleted--><g id="link_Deleted_Deleted"><path d="M2120.96,321.5469 C2087.73,321.5469 2041,321.5469 2041,321.5469 C2041,321.5469 2041,340.7969 2041,340.7969 C2041,340.7969 2266,340.7969 2266,340.7969 C2266,340.7969 2266,312.7969 2266,312.7969 C2266,312.7969 2191.04,312.7969 2191.04,312.7969 " fill="none" id="Deleted-to-Deleted" style="stroke:#181818;stroke-width:1.0;"/><polygon fill="#181818" points="2186.04,312.7969,2195.04,316.7969,2191.04,312.7969,2195.04,308.7969,2186.04,312.7969" style="stroke:#181818;stroke-width:1.0;"/><text fill="#000000" font-family="sans-serif" font-size="13" lengthAdjust="spacing" textLength="100" x="2161.38" y="331.8638">terminal stutter</text></g><!--SRC=[XLPDR-Cs4BtpLn3ehR3JtUscwUPGm9-1WMmIv6ClHG-CEBBPKAHAKdRTOlzxtr3IMd5Sh2-sn9at7-_DqCaaI_9sjf8F5BQc87cb4ktKNjvJuLrXSFgGy4f-LiN6E1AMoYIJby6iDqbg4wX8nZknCPeaLNNQIqsn2AREh-EBSRKAgf9nexJV6RUMfRAH1YSMk6bVa_GXRVpW8FZ6wS87Hq6-_p0ucAhYPPrFPzxw87zOvi_0GbEf6fiUwUyqiMRjAd99Skx3Z79X_meffpve2XtMnulpyry-uUtIkzIzUxTyV_5XmfPl8l-wd2nduki0r_bJiDEFvp-_-tGIOhcyMCnF1lmgVl_n3paU_oPldoCO8j5zoqiPI6aPQof6kP8cZb2r9SGsBg7SaLHEPswjAQdO5_RWpOZt5BtTqdH_eoh6Qq5-OaJscilAn0Y-n6j3ThrJQ-FGF7tj_KjJmnbYISOr92Efm4fPImk3WDWnoLgjAOfZBqPQR9LjyEuUnUo1m-csl1Wd9rycg-l9z7fnqlMUKjYhPql7RdVtjrzM3wlRczNDrKW-tSqdZ_Xr4cEfe71z3B14sCLy9EUBwyKZc7cTP1lxJ-Z-oSMchg5QqlDWC1UNiZcyWfobgQecvHnrDZ0H72MuaXR_Wz72jztOAPDa2PoqeKmrOre30jjSCOV5HhardKZniz_Ip5UGPChY7t2aCBB02Fs8YsDRzf_KjTq_rPhZ37rBPhKO65Tm5aFhOGM7Rd0ZU2L036cJ0LYhKGoRsleuFt1h-nQeKiQnSS_vAGLqLW3008GAR5lHCVo6xDxsc-4XZtcUeZjoccLysKzLeByQYYrpmoo-Qpv8uRkshmqEBdtQsO6x22M1azA42cSyw2oHaYin_p11oibd1cPsUbXz1DZN3ZKr2Gz2vDNLhdPVjeI82UOvx-TBCGPWtWLwd7aPj_cFwtwqH2U1s8HI5Tb3crXRN2WEomEFPI22eYkPr3hoCI5fPDCznlOQukAixQwMTb1G3loerL56tXPkrGb4J7cVgh3FopVoQJVkt2jkJsd8wh6bBTbEKohm61cBPryqB6NaB_6fWwbKC7RFk-0A8-PnjJ567NnD0JSSGgHuXY2FF9TlKsPslasNPXZ3SkSOEQDHZlFSfCnQqOJ0WyHj0Hc8KlAzgpsnb7d0q6Q9JQ2YLDdp46aCvHZCFZdStJoa0SDz9cRyYut2sFe2eCPjKP9oAVVc8Q_wEv29k4-HOljYrHi9w2ztybWHh-JPgQhTHHdtzN7_tCjFxdnuAQtViUci5Uz1q3k3jL0YPxyROpjVKUh-alJ_I526ZRdy1hl8vjQn79k0qj7mjNVy5oAth6Gvd1tA-0y0]--></g></svg>