<?xml version="1.0" encoding="UTF-8" standalone="no"?><svg xmlns="http://www.w3.org/2000/svg" xmlns:xlink="http://www.w3.org/1999/xlink" contentStyleType="text/css" height="1610px" preserveAspectRatio="none" style="width:1906px;height:1610px;background:#FFFFFF;" version="1.1" viewBox="0 0 1906 1610" width="1906px" zoomAndPan="magnify"><defs/><g><text fill="#000000" font-family="sans-serif" font-size="14" font-weight="bold" lengthAdjust="spacing" textLength="228" x="837.625" y="32.9951">OCI Queue Reconcile Activity</text><ellipse cx="763.625" cy="57.2969" fill="#0F766E" rx="10" ry="10" style="stroke:#222222;stroke-width:1.0;"/><rect fill="none" height="308.1719" style="stroke:#000000;stroke-width:1.5;" width="686" x="441.125" y="77.2969"/><path d="M574.125,77.2969 L574.125,86.5938 L564.125,96.5938 L441.125,96.5938 " fill="none" style="stroke:#000000;stroke-width:1.5;"/><text fill="#000000" font-family="sans-serif" font-size="14" lengthAdjust="spacing" textLength="123" x="444.125" y="91.292">Observe and Bind</text><rect fill="#F8FAFC" height="33.9688" rx="12.5" ry="12.5" style="stroke:#475569;stroke-width:0.5;" width="304" x="611.625" y="113.5938"/><text fill="#0F172A" font-family="sans-serif" font-size="12" lengthAdjust="spacing" textLength="284" x="621.625" y="134.7324">Read CR spec, status OCID, and delete intent</text><rect fill="#F8FAFC" height="33.9688" rx="12.5" ry="12.5" style="stroke:#475569;stroke-width:0.5;" width="460" x="533.625" y="167.5625"/><text fill="#0F172A" font-family="sans-serif" font-size="12" lengthAdjust="spacing" textLength="440" x="543.625" y="188.7012">Keep status-bound OCID authoritative for later update or delete paths</text><polygon fill="#E2E8F0" points="663.625,221.5313,863.625,221.5313,875.625,233.5313,863.625,245.5313,663.625,245.5313,651.625,233.5313,663.625,221.5313" style="stroke:#475569;stroke-width:0.5;"/><text fill="#0F172A" font-family="sans-serif" font-size="11" lengthAdjust="spacing" textLength="200" x="663.625" y="237.3394">"Tracked or explicit OCID present?"</text><text fill="#000000" font-family="sans-serif" font-size="11" lengthAdjust="spacing" textLength="20" x="631.625" y="230.937">yes</text><text fill="#000000" font-family="sans-serif" font-size="11" lengthAdjust="spacing" textLength="14" x="875.625" y="230.937">no</text><rect fill="#F8FAFC" height="33.9688" rx="12.5" ry="12.5" style="stroke:#475569;stroke-width:0.5;" width="272" x="461.125" y="255.5313"/><text fill="#0F172A" font-family="sans-serif" font-size="12" lengthAdjust="spacing" textLength="252" x="471.125" y="276.6699">Get the OCI resource by known identifier</text><rect fill="#F8FAFC" height="33.9688" rx="12.5" ry="12.5" style="stroke:#475569;stroke-width:0.5;" width="328" x="766.125" y="255.5313"/><text fill="#0F172A" font-family="sans-serif" font-size="12" lengthAdjust="spacing" textLength="308" x="776.125" y="276.6699">Resolve an existing OCI resource by display name</text><rect fill="#F8FAFC" height="33.9688" rx="12.5" ry="12.5" style="stroke:#475569;stroke-width:0.5;" width="354" x="753.125" y="309.5"/><text fill="#0F172A" font-family="sans-serif" font-size="12" lengthAdjust="spacing" textLength="334" x="763.125" y="330.6387">Persist the resolved or created OCID back into status</text><polygon fill="#E2E8F0" points="763.625,349.4688,775.625,361.4688,763.625,373.4688,751.625,361.4688,763.625,349.4688" style="stroke:#475569;stroke-width:0.5;"/><path d="M1527.25,842.8711 L1527.25,1216.0586 L1894.25,1216.0586 L1894.25,852.8711 L1884.25,842.8711 L1527.25,842.8711 " fill="#FEFFDD" style="stroke:#181818;stroke-width:0.5;"/><path d="M1884.25,842.8711 L1884.25,852.8711 L1894.25,852.8711 L1884.25,842.8711 " fill="#FEFFDD" style="stroke:#181818;stroke-width:0.5;"/><text fill="#000000" font-family="sans-serif" font-size="13" lengthAdjust="spacing" textLength="69" x="1533.25" y="859.938">Archetype:</text><text fill="#000000" font-family="sans-serif" font-size="13" lengthAdjust="spacing" textLength="183" x="1533.25" y="875.0708">- resolved-drift-delete-secret</text><text fill="#000000" font-family="sans-serif" font-size="13" lengthAdjust="spacing" textLength="134" x="1533.25" y="890.2036">Retryable OCI states:</text><text fill="#000000" font-family="sans-serif" font-size="13" lengthAdjust="spacing" textLength="73" x="1533.25" y="905.3364">- CREATING</text><text fill="#000000" font-family="sans-serif" font-size="13" lengthAdjust="spacing" textLength="76" x="1533.25" y="920.4692">- UPDATING</text><text fill="#000000" font-family="sans-serif" font-size="13" lengthAdjust="spacing" textLength="113" x="1533.25" y="935.6021">Active OCI states:</text><text fill="#000000" font-family="sans-serif" font-size="13" lengthAdjust="spacing" textLength="54" x="1533.25" y="950.7349">- ACTIVE</text><text fill="#000000" font-family="sans-serif" font-size="13" lengthAdjust="spacing" textLength="111" x="1533.25" y="965.8677">Failed OCI states:</text><text fill="#000000" font-family="sans-serif" font-size="13" lengthAdjust="spacing" textLength="53" x="1533.25" y="981.0005">- FAILED</text><text fill="#000000" font-family="sans-serif" font-size="13" lengthAdjust="spacing" textLength="67" x="1533.25" y="996.1333">- DELETED</text><text fill="#000000" font-family="sans-serif" font-size="13" lengthAdjust="spacing" textLength="102" x="1533.25" y="1011.2661">Update surface:</text><text fill="#000000" font-family="sans-serif" font-size="13" lengthAdjust="spacing" textLength="92" x="1533.25" y="1026.3989">- displayName</text><text fill="#000000" font-family="sans-serif" font-size="13" lengthAdjust="spacing" textLength="124" x="1533.25" y="1041.5317">- visibilityInSeconds</text><text fill="#000000" font-family="sans-serif" font-size="13" lengthAdjust="spacing" textLength="125" x="1533.25" y="1056.6646">- timeoutInSeconds</text><text fill="#000000" font-family="sans-serif" font-size="13" lengthAdjust="spacing" textLength="210" x="1533.25" y="1071.7974">- deadLetterQueueDeliveryCount</text><text fill="#000000" font-family="sans-serif" font-size="13" lengthAdjust="spacing" textLength="96" x="1533.25" y="1086.9302">- freeform tags</text><text fill="#000000" font-family="sans-serif" font-size="13" lengthAdjust="spacing" textLength="88" x="1533.25" y="1102.063">- defined tags</text><text fill="#000000" font-family="sans-serif" font-size="13" lengthAdjust="spacing" textLength="232" x="1533.25" y="1117.1958">- non-empty customEncryptionKeyId</text><text fill="#000000" font-family="sans-serif" font-size="13" lengthAdjust="spacing" textLength="139" x="1533.25" y="1132.3286">Reject before mutate:</text><text fill="#000000" font-family="sans-serif" font-size="13" lengthAdjust="spacing" textLength="162" x="1533.25" y="1147.4614">- retentionInSeconds drift</text><text fill="#000000" font-family="sans-serif" font-size="13" lengthAdjust="spacing" textLength="105" x="1533.25" y="1162.5942">Boundary notes:</text><text fill="#000000" font-family="sans-serif" font-size="13" lengthAdjust="spacing" textLength="346" x="1533.25" y="1177.7271">- The create work-request ID is not persisted or polled.</text><text fill="#000000" font-family="sans-serif" font-size="13" lengthAdjust="spacing" textLength="166" x="1533.25" y="1192.8599">Controller-local invariants:</text><text fill="#000000" font-family="sans-serif" font-size="13" lengthAdjust="spacing" textLength="229" x="1533.25" y="1207.9927">- StatusPresentUsesStatusInvariant</text><polygon fill="#E2E8F0" points="706.625,405.4688,820.625,405.4688,832.625,417.4688,820.625,429.4688,706.625,429.4688,694.625,417.4688,706.625,405.4688" style="stroke:#475569;stroke-width:0.5;"/><text fill="#0F172A" font-family="sans-serif" font-size="11" lengthAdjust="spacing" textLength="114" x="706.625" y="421.2769">"Delete requested?"</text><text fill="#000000" font-family="sans-serif" font-size="11" lengthAdjust="spacing" textLength="20" x="674.625" y="414.8745">yes</text><text fill="#000000" font-family="sans-serif" font-size="11" lengthAdjust="spacing" textLength="14" x="832.625" y="414.8745">no</text><rect fill="none" height="348.3047" style="stroke:#000000;stroke-width:1.5;" width="763" x="11" y="439.4688"/><path d="M67,439.4688 L67,448.7656 L57,458.7656 L11,458.7656 " fill="none" style="stroke:#000000;stroke-width:1.5;"/><text fill="#000000" font-family="sans-serif" font-size="14" lengthAdjust="spacing" textLength="46" x="14" y="453.4639">Delete</text><rect fill="#F8FAFC" height="33.9688" rx="12.5" ry="12.5" style="stroke:#475569;stroke-width:0.5;" width="221" x="269.25" y="475.7656"/><text fill="#0F172A" font-family="sans-serif" font-size="12" lengthAdjust="spacing" textLength="201" x="279.25" y="496.9043">Submit OCI delete for OCI Queue</text><rect fill="#F8FAFC" height="33.9688" rx="12.5" ry="12.5" style="stroke:#475569;stroke-width:0.5;" width="585" x="87.25" y="544.7344"/><text fill="#0F172A" font-family="sans-serif" font-size="12" lengthAdjust="spacing" textLength="565" x="97.25" y="565.873">Confirm deletion with GetQueue until the lifecycle is DELETED or the resource is not found.</text><rect fill="#F8FAFC" height="33.9688" rx="12.5" ry="12.5" style="stroke:#475569;stroke-width:0.5;" width="364" x="197.75" y="613.7031"/><text fill="#0F172A" font-family="sans-serif" font-size="12" lengthAdjust="spacing" textLength="344" x="207.75" y="634.8418">Delete the owned Secret after OCI delete confirmation.</text><polygon fill="#E2E8F0" points="278.75,669.8047,480.75,669.8047,492.75,681.8047,480.75,693.8047,278.75,693.8047,266.75,681.8047,278.75,669.8047" style="stroke:#475569;stroke-width:0.5;"/><text fill="#0F172A" font-family="sans-serif" font-size="11" lengthAdjust="spacing" textLength="202" x="278.75" y="685.6128">"Owned Secret cleanup succeeds?"</text><text fill="#000000" font-family="sans-serif" font-size="11" lengthAdjust="spacing" textLength="20" x="246.75" y="679.2104">yes</text><text fill="#000000" font-family="sans-serif" font-size="11" lengthAdjust="spacing" textLength="14" x="492.75" y="679.2104">no</text><rect fill="#F8FAFC" height="33.9688" rx="12.5" ry="12.5" style="stroke:#475569;stroke-width:0.5;" width="338" x="23" y="703.8047"/><text fill="#0F172A" font-family="sans-serif" font-size="12" lengthAdjust="spacing" textLength="318" x="33" y="724.9434">Remove the finalizer after OCI deletion is confirmed</text><rect fill="#F8FAFC" height="33.9688" rx="12.5" ry="12.5" style="stroke:#475569;stroke-width:0.5;" width="373" x="381" y="703.8047"/><text fill="#0F172A" font-family="sans-serif" font-size="12" lengthAdjust="spacing" textLength="353" x="391" y="724.9434">Stay blocked until Secret cleanup succeeds or is absent</text><polygon fill="#E2E8F0" points="379.75,743.7734,391.75,755.7734,379.75,767.7734,367.75,755.7734,379.75,743.7734" style="stroke:#475569;stroke-width:0.5;"/><ellipse cx="379.75" cy="833.7734" fill="none" rx="11" ry="11" style="stroke:#222222;stroke-width:1.0;"/><ellipse cx="379.75" cy="833.7734" fill="#222222" rx="6" ry="6" style="stroke:#111111;stroke-width:1.0;"/><rect fill="none" height="417.9766" style="stroke:#000000;stroke-width:1.5;" width="376" x="965.5" y="439.4688"/><path d="M1126.5,439.4688 L1126.5,448.7656 L1116.5,458.7656 L965.5,458.7656 " fill="none" style="stroke:#000000;stroke-width:1.5;"/><text fill="#000000" font-family="sans-serif" font-size="14" lengthAdjust="spacing" textLength="151" x="968.5" y="453.4639">Lifecycle Classification</text><rect fill="#F8FAFC" height="33.9688" rx="12.5" ry="12.5" style="stroke:#475569;stroke-width:0.5;" width="268" x="1013.5" y="524.168"/><text fill="#0F172A" font-family="sans-serif" font-size="12" lengthAdjust="spacing" textLength="248" x="1023.5" y="545.3066">Request requeue and keep the finalizer</text><ellipse cx="1147.5" cy="604.1367" fill="none" rx="11" ry="11" style="stroke:#222222;stroke-width:1.0;"/><ellipse cx="1147.5" cy="604.1367" fill="#222222" rx="6" ry="6" style="stroke:#111111;stroke-width:1.0;"/><polygon fill="#E2E8F0" points="1067.5,475.7656,1227.5,475.7656,1239.5,487.7656,1227.5,499.7656,1067.5,499.7656,1055.5,487.7656,1067.5,475.7656" style="stroke:#475569;stroke-width:0.5;"/><text fill="#000000" font-family="sans-serif" font-size="11" lengthAdjust="spacing" textLength="20" x="1151.5" y="509.9761">yes</text><text fill="#0F172A" font-family="sans-serif" font-size="11" lengthAdjust="spacing" textLength="160" x="1067.5" y="491.5737">"OCI state in retryable set?"</text><rect fill="#F8FAFC" height="33.9688" rx="12.5" ry="12.5" style="stroke:#475569;stroke-width:0.5;" width="324" x="985.5" y="716.0742"/><text fill="#0F172A" font-family="sans-serif" font-size="12" lengthAdjust="spacing" textLength="304" x="995.5" y="737.2129">Return an unsuccessful terminal reconcile result</text><ellipse cx="1147.5" cy="796.043" fill="none" rx="11" ry="11" style="stroke:#222222;stroke-width:1.0;"/><ellipse cx="1147.5" cy="796.043" fill="#222222" rx="6" ry="6" style="stroke:#111111;stroke-width:1.0;"/><polygon fill="#E2E8F0" points="1077.5,667.6719,1217.5,667.6719,1229.5,679.6719,1217.5,691.6719,1077.5,691.6719,1065.5,679.6719,1077.5,667.6719" style="stroke:#475569;stroke-width:0.5;"/><text fill="#000000" font-family="sans-serif" font-size="11" lengthAdjust="spacing" textLength="20" x="1151.5" y="701.8823">yes</text><text fill="#0F172A" font-family="sans-serif" font-size="11" lengthAdjust="spacing" textLength="140" x="1077.5" y="683.48">"OCI state in failed set?"</text><rect fill="none" height="699.8828" style="stroke:#000000;stroke-width:1.5;" width="723.25" x="794" y="892.4453"/><path d="M973,892.4453 L973,901.7422 L963,911.7422 L794,911.7422 " fill="none" style="stroke:#000000;stroke-width:1.5;"/><text fill="#000000" font-family="sans-serif" font-size="14" lengthAdjust="spacing" textLength="169" x="797" y="906.4404">Ready and Drift Handling</text><rect fill="#F8FAFC" height="33.9688" rx="12.5" ry="12.5" style="stroke:#475569;stroke-width:0.5;" width="364" x="965.5" y="928.7422"/><text fill="#0F172A" font-family="sans-serif" font-size="12" lengthAdjust="spacing" textLength="344" x="975.5" y="949.8809">Compare live OCI state with the supported drift surface</text><rect fill="#F8FAFC" height="33.9688" rx="12.5" ry="12.5" style="stroke:#475569;stroke-width:0.5;" width="290" x="1002.5" y="1046.1133"/><text fill="#0F172A" font-family="sans-serif" font-size="12" lengthAdjust="spacing" textLength="270" x="1012.5" y="1067.252">Reject the change before any OCI mutation</text><ellipse cx="1147.5" cy="1126.082" fill="none" rx="11" ry="11" style="stroke:#222222;stroke-width:1.0;"/><ellipse cx="1147.5" cy="1126.082" fill="#222222" rx="6" ry="6" style="stroke:#111111;stroke-width:1.0;"/><polygon fill="#E2E8F0" points="1023,997.7109,1272,997.7109,1284,1009.7109,1272,1021.7109,1023,1021.7109,1011,1009.7109,1023,997.7109" style="stroke:#475569;stroke-width:0.5;"/><text fill="#000000" font-family="sans-serif" font-size="11" lengthAdjust="spacing" textLength="20" x="1151.5" y="1031.9214">yes</text><text fill="#0F172A" font-family="sans-serif" font-size="11" lengthAdjust="spacing" textLength="249" x="1023" y="1013.519">"Unsupported or immutable drift detected?"</text><rect fill="#F8FAFC" height="33.9688" rx="12.5" ry="12.5" style="stroke:#475569;stroke-width:0.5;" width="687" x="804" y="1202.4844"/><text fill="#0F172A" font-family="sans-serif" font-size="12" lengthAdjust="spacing" textLength="667" x="814" y="1223.623">Create is asynchronous; later list or get calls discover the OCID instead of polling the create work request.</text><rect fill="#F8FAFC" height="33.9688" rx="12.5" ry="12.5" style="stroke:#475569;stroke-width:0.5;" width="465" x="915" y="1256.4531"/><text fill="#0F172A" font-family="sans-serif" font-size="12" lengthAdjust="spacing" textLength="445" x="925" y="1277.5918">Move the queue compartment before other supported queue updates.</text><rect fill="#F8FAFC" height="33.9688" rx="12.5" ry="12.5" style="stroke:#475569;stroke-width:0.5;" width="472" x="911.5" y="1310.4219"/><text fill="#0F172A" font-family="sans-serif" font-size="12" lengthAdjust="spacing" textLength="452" x="921.5" y="1331.5605">Treat empty customEncryptionKeyId as a no-op rather than key removal.</text><polygon fill="#E2E8F0" points="1070,1364.3906,1225,1364.3906,1237,1376.3906,1225,1388.3906,1070,1388.3906,1058,1376.3906,1070,1364.3906" style="stroke:#475569;stroke-width:0.5;"/><text fill="#0F172A" font-family="sans-serif" font-size="11" lengthAdjust="spacing" textLength="155" x="1070" y="1380.1987">"Supported drift detected?"</text><text fill="#000000" font-family="sans-serif" font-size="11" lengthAdjust="spacing" textLength="20" x="1038" y="1373.7964">yes</text><text fill="#000000" font-family="sans-serif" font-size="11" lengthAdjust="spacing" textLength="14" x="1237" y="1373.7964">no</text><rect fill="#F8FAFC" height="33.9688" rx="12.5" ry="12.5" style="stroke:#475569;stroke-width:0.5;" width="329" x="839.75" y="1398.3906"/><text fill="#0F172A" font-family="sans-serif" font-size="12" lengthAdjust="spacing" textLength="309" x="849.75" y="1419.5293">Apply only the supported in-place update surface</text><rect fill="#F8FAFC" height="33.9688" rx="12.5" ry="12.5" style="stroke:#475569;stroke-width:0.5;" width="204" x="1188.75" y="1398.3906"/><text fill="#0F172A" font-family="sans-serif" font-size="12" lengthAdjust="spacing" textLength="184" x="1198.75" y="1419.5293">Skip the no-op mutation path</text><polygon fill="#E2E8F0" points="1147.5,1438.3594,1159.5,1450.3594,1147.5,1462.3594,1135.5,1450.3594,1147.5,1438.3594" style="stroke:#475569;stroke-width:0.5;"/><polygon fill="#E2E8F0" points="1077,1482.3594,1218,1482.3594,1230,1494.3594,1218,1506.3594,1077,1506.3594,1065,1494.3594,1077,1482.3594" style="stroke:#475569;stroke-width:0.5;"/><text fill="#0F172A" font-family="sans-serif" font-size="11" lengthAdjust="spacing" textLength="141" x="1077" y="1498.1675">"Secret sync succeeds?"</text><text fill="#000000" font-family="sans-serif" font-size="11" lengthAdjust="spacing" textLength="20" x="1045" y="1491.7651">yes</text><text fill="#000000" font-family="sans-serif" font-size="11" lengthAdjust="spacing" textLength="14" x="1230" y="1491.7651">no</text><rect fill="#F8FAFC" height="33.9688" rx="12.5" ry="12.5" style="stroke:#475569;stroke-width:0.5;" width="287" x="830.25" y="1516.3594"/><text fill="#0F172A" font-family="sans-serif" font-size="12" lengthAdjust="spacing" textLength="267" x="840.25" y="1537.498">Return success for the usable active state</text><rect fill="#F8FAFC" height="33.9688" rx="12.5" ry="12.5" style="stroke:#475569;stroke-width:0.5;" width="368" x="1137.25" y="1516.3594"/><text fill="#0F172A" font-family="sans-serif" font-size="12" lengthAdjust="spacing" textLength="348" x="1147.25" y="1537.498">Block successful completion until Secret sync succeeds</text><polygon fill="#E2E8F0" points="1147.5,1556.3281,1159.5,1568.3281,1147.5,1580.3281,1135.5,1568.3281,1147.5,1556.3281" style="stroke:#475569;stroke-width:0.5;"/><line style="stroke:#334155;stroke-width:1.0;" x1="763.625" x2="763.625" y1="147.5625" y2="167.5625"/><polygon fill="#334155" points="759.625,157.5625,763.625,167.5625,767.625,157.5625,763.625,161.5625" style="stroke:#334155;stroke-width:1.0;"/><line style="stroke:#334155;stroke-width:1.0;" x1="930.125" x2="930.125" y1="289.5" y2="309.5"/><polygon fill="#334155" points="926.125,299.5,930.125,309.5,934.125,299.5,930.125,303.5" style="stroke:#334155;stroke-width:1.0;"/><line style="stroke:#334155;stroke-width:1.0;" x1="651.625" x2="597.125" y1="233.5313" y2="233.5313"/><line style="stroke:#334155;stroke-width:1.0;" x1="597.125" x2="597.125" y1="233.5313" y2="255.5313"/><polygon fill="#334155" points="593.125,245.5313,597.125,255.5313,601.125,245.5313,597.125,249.5313" style="stroke:#334155;stroke-width:1.0;"/><line style="stroke:#334155;stroke-width:1.0;" x1="875.625" x2="930.125" y1="233.5313" y2="233.5313"/><line style="stroke:#334155;stroke-width:1.0;" x1="930.125" x2="930.125" y1="233.5313" y2="255.5313"/><polygon fill="#334155" points="926.125,245.5313,930.125,255.5313,934.125,245.5313,930.125,249.5313" style="stroke:#334155;stroke-width:1.0;"/><line style="stroke:#334155;stroke-width:1.0;" x1="597.125" x2="597.125" y1="289.5" y2="361.4688"/><line style="stroke:#334155;stroke-width:1.0;" x1="597.125" x2="751.625" y1="361.4688" y2="361.4688"/><polygon fill="#334155" points="741.625,357.4688,751.625,361.4688,741.625,365.4688,745.625,361.4688" style="stroke:#334155;stroke-width:1.0;"/><line style="stroke:#334155;stroke-width:1.0;" x1="930.125" x2="930.125" y1="343.4688" y2="361.4688"/><line style="stroke:#334155;stroke-width:1.0;" x1="930.125" x2="775.625" y1="361.4688" y2="361.4688"/><polygon fill="#334155" points="785.625,357.4688,775.625,361.4688,785.625,365.4688,781.625,361.4688" style="stroke:#334155;stroke-width:1.0;"/><line style="stroke:#334155;stroke-width:1.0;" x1="763.625" x2="763.625" y1="201.5313" y2="221.5313"/><polygon fill="#334155" points="759.625,211.5313,763.625,221.5313,767.625,211.5313,763.625,215.5313" style="stroke:#334155;stroke-width:1.0;"/><line style="stroke:#334155;stroke-width:1.0;" x1="763.625" x2="763.625" y1="67.2969" y2="113.5938"/><polygon fill="#334155" points="759.625,103.5938,763.625,113.5938,767.625,103.5938,763.625,107.5938" style="stroke:#334155;stroke-width:1.0;"/><line style="stroke:#334155;stroke-width:1.0;" x1="379.75" x2="379.75" y1="509.7344" y2="544.7344"/><polygon fill="#334155" points="375.75,534.7344,379.75,544.7344,383.75,534.7344,379.75,538.7344" style="stroke:#334155;stroke-width:1.0;"/><line style="stroke:#334155;stroke-width:1.0;" x1="379.75" x2="379.75" y1="578.7031" y2="613.7031"/><polygon fill="#334155" points="375.75,603.7031,379.75,613.7031,383.75,603.7031,379.75,607.7031" style="stroke:#334155;stroke-width:1.0;"/><line style="stroke:#334155;stroke-width:1.0;" x1="266.75" x2="192" y1="681.8047" y2="681.8047"/><line style="stroke:#334155;stroke-width:1.0;" x1="192" x2="192" y1="681.8047" y2="703.8047"/><polygon fill="#334155" points="188,693.8047,192,703.8047,196,693.8047,192,697.8047" style="stroke:#334155;stroke-width:1.0;"/><line style="stroke:#334155;stroke-width:1.0;" x1="492.75" x2="567.5" y1="681.8047" y2="681.8047"/><line style="stroke:#334155;stroke-width:1.0;" x1="567.5" x2="567.5" y1="681.8047" y2="703.8047"/><polygon fill="#334155" points="563.5,693.8047,567.5,703.8047,571.5,693.8047,567.5,697.8047" style="stroke:#334155;stroke-width:1.0;"/><line style="stroke:#334155;stroke-width:1.0;" x1="192" x2="192" y1="737.7734" y2="755.7734"/><line style="stroke:#334155;stroke-width:1.0;" x1="192" x2="367.75" y1="755.7734" y2="755.7734"/><polygon fill="#334155" points="357.75,751.7734,367.75,755.7734,357.75,759.7734,361.75,755.7734" style="stroke:#334155;stroke-width:1.0;"/><line style="stroke:#334155;stroke-width:1.0;" x1="567.5" x2="567.5" y1="737.7734" y2="755.7734"/><line style="stroke:#334155;stroke-width:1.0;" x1="567.5" x2="391.75" y1="755.7734" y2="755.7734"/><polygon fill="#334155" points="401.75,751.7734,391.75,755.7734,401.75,759.7734,397.75,755.7734" style="stroke:#334155;stroke-width:1.0;"/><line style="stroke:#334155;stroke-width:1.0;" x1="379.75" x2="379.75" y1="647.6719" y2="669.8047"/><polygon fill="#334155" points="375.75,659.8047,379.75,669.8047,383.75,659.8047,379.75,663.8047" style="stroke:#334155;stroke-width:1.0;"/><line style="stroke:#334155;stroke-width:1.0;" x1="379.75" x2="379.75" y1="767.7734" y2="822.7734"/><polygon fill="#334155" points="375.75,812.7734,379.75,822.7734,383.75,812.7734,379.75,816.7734" style="stroke:#334155;stroke-width:1.0;"/><line style="stroke:#334155;stroke-width:1.0;" x1="1147.5" x2="1147.5" y1="558.1367" y2="593.1367"/><polygon fill="#334155" points="1143.5,583.1367,1147.5,593.1367,1151.5,583.1367,1147.5,587.1367" style="stroke:#334155;stroke-width:1.0;"/><line style="stroke:#334155;stroke-width:1.0;" x1="1147.5" x2="1147.5" y1="499.7656" y2="524.168"/><polygon fill="#334155" points="1143.5,514.168,1147.5,524.168,1151.5,514.168,1147.5,518.168" style="stroke:#334155;stroke-width:1.0;"/><line style="stroke:#334155;stroke-width:1.0;" x1="1239.5" x2="1291.5" y1="487.7656" y2="487.7656"/><polygon fill="#334155" points="1287.5,556.6523,1291.5,566.6523,1295.5,556.6523,1291.5,560.6523" style="stroke:#334155;stroke-width:1.0;"/><line style="stroke:#334155;stroke-width:1.0;" x1="1291.5" x2="1291.5" y1="487.7656" y2="645.5391"/><line style="stroke:#334155;stroke-width:1.0;" x1="1291.5" x2="1147.5" y1="645.5391" y2="645.5391"/><line style="stroke:#334155;stroke-width:1.0;" x1="1147.5" x2="1147.5" y1="645.5391" y2="667.6719"/><polygon fill="#334155" points="1143.5,657.6719,1147.5,667.6719,1151.5,657.6719,1147.5,661.6719" style="stroke:#334155;stroke-width:1.0;"/><line style="stroke:#334155;stroke-width:1.0;" x1="1147.5" x2="1147.5" y1="750.043" y2="785.043"/><polygon fill="#334155" points="1143.5,775.043,1147.5,785.043,1151.5,775.043,1147.5,779.043" style="stroke:#334155;stroke-width:1.0;"/><line style="stroke:#334155;stroke-width:1.0;" x1="1147.5" x2="1147.5" y1="691.6719" y2="716.0742"/><polygon fill="#334155" points="1143.5,706.0742,1147.5,716.0742,1151.5,706.0742,1147.5,710.0742" style="stroke:#334155;stroke-width:1.0;"/><line style="stroke:#334155;stroke-width:1.0;" x1="1229.5" x2="1319.5" y1="679.6719" y2="679.6719"/><polygon fill="#334155" points="1315.5,748.5586,1319.5,758.5586,1323.5,748.5586,1319.5,752.5586" style="stroke:#334155;stroke-width:1.0;"/><line style="stroke:#334155;stroke-width:1.0;" x1="1319.5" x2="1319.5" y1="679.6719" y2="837.4453"/><line style="stroke:#334155;stroke-width:1.0;" x1="1319.5" x2="1147.5" y1="837.4453" y2="837.4453"/><line style="stroke:#334155;stroke-width:1.0;" x1="1147.5" x2="1147.5" y1="837.4453" y2="928.7422"/><polygon fill="#334155" points="1143.5,918.7422,1147.5,928.7422,1151.5,918.7422,1147.5,922.7422" style="stroke:#334155;stroke-width:1.0;"/><line style="stroke:#334155;stroke-width:1.0;" x1="1147.5" x2="1147.5" y1="1080.082" y2="1115.082"/><polygon fill="#334155" points="1143.5,1105.082,1147.5,1115.082,1151.5,1105.082,1147.5,1109.082" style="stroke:#334155;stroke-width:1.0;"/><line style="stroke:#334155;stroke-width:1.0;" x1="1147.5" x2="1147.5" y1="1021.7109" y2="1046.1133"/><polygon fill="#334155" points="1143.5,1036.1133,1147.5,1046.1133,1151.5,1036.1133,1147.5,1040.1133" style="stroke:#334155;stroke-width:1.0;"/><line style="stroke:#334155;stroke-width:1.0;" x1="1284" x2="1302.5" y1="1009.7109" y2="1009.7109"/><polygon fill="#334155" points="1298.5,1078.5977,1302.5,1088.5977,1306.5,1078.5977,1302.5,1082.5977" style="stroke:#334155;stroke-width:1.0;"/><line style="stroke:#334155;stroke-width:1.0;" x1="1302.5" x2="1302.5" y1="1009.7109" y2="1167.4844"/><line style="stroke:#334155;stroke-width:1.0;" x1="1302.5" x2="1147.5" y1="1167.4844" y2="1167.4844"/><line style="stroke:#334155;stroke-width:1.0;" x1="1147.5" x2="1147.5" y1="1167.4844" y2="1202.4844"/><polygon fill="#334155" points="1143.5,1192.4844,1147.5,1202.4844,1151.5,1192.4844,1147.5,1196.4844" style="stroke:#334155;stroke-width:1.0;"/><line style="stroke:#334155;stroke-width:1.0;" x1="1147.5" x2="1147.5" y1="962.7109" y2="997.7109"/><polygon fill="#334155" points="1143.5,987.7109,1147.5,997.7109,1151.5,987.7109,1147.5,991.7109" style="stroke:#334155;stroke-width:1.0;"/><line style="stroke:#334155;stroke-width:1.0;" x1="1147.5" x2="1147.5" y1="1236.4531" y2="1256.4531"/><polygon fill="#334155" points="1143.5,1246.4531,1147.5,1256.4531,1151.5,1246.4531,1147.5,1250.4531" style="stroke:#334155;stroke-width:1.0;"/><line style="stroke:#334155;stroke-width:1.0;" x1="1147.5" x2="1147.5" y1="1290.4219" y2="1310.4219"/><polygon fill="#334155" points="1143.5,1300.4219,1147.5,1310.4219,1151.5,1300.4219,1147.5,1304.4219" style="stroke:#334155;stroke-width:1.0;"/><line style="stroke:#334155;stroke-width:1.0;" x1="1058" x2="1004.25" y1="1376.3906" y2="1376.3906"/><line style="stroke:#334155;stroke-width:1.0;" x1="1004.25" x2="1004.25" y1="1376.3906" y2="1398.3906"/><polygon fill="#334155" points="1000.25,1388.3906,1004.25,1398.3906,1008.25,1388.3906,1004.25,1392.3906" style="stroke:#334155;stroke-width:1.0;"/><line style="stroke:#334155;stroke-width:1.0;" x1="1237" x2="1290.75" y1="1376.3906" y2="1376.3906"/><line style="stroke:#334155;stroke-width:1.0;" x1="1290.75" x2="1290.75" y1="1376.3906" y2="1398.3906"/><polygon fill="#334155" points="1286.75,1388.3906,1290.75,1398.3906,1294.75,1388.3906,1290.75,1392.3906" style="stroke:#334155;stroke-width:1.0;"/><line style="stroke:#334155;stroke-width:1.0;" x1="1004.25" x2="1004.25" y1="1432.3594" y2="1450.3594"/><line style="stroke:#334155;stroke-width:1.0;" x1="1004.25" x2="1135.5" y1="1450.3594" y2="1450.3594"/><polygon fill="#334155" points="1125.5,1446.3594,1135.5,1450.3594,1125.5,1454.3594,1129.5,1450.3594" style="stroke:#334155;stroke-width:1.0;"/><line style="stroke:#334155;stroke-width:1.0;" x1="1290.75" x2="1290.75" y1="1432.3594" y2="1450.3594"/><line style="stroke:#334155;stroke-width:1.0;" x1="1290.75" x2="1159.5" y1="1450.3594" y2="1450.3594"/><polygon fill="#334155" points="1169.5,1446.3594,1159.5,1450.3594,1169.5,1454.3594,1165.5,1450.3594" style="stroke:#334155;stroke-width:1.0;"/><line style="stroke:#334155;stroke-width:1.0;" x1="1147.5" x2="1147.5" y1="1344.3906" y2="1364.3906"/><polygon fill="#334155" points="1143.5,1354.3906,1147.5,1364.3906,1151.5,1354.3906,1147.5,1358.3906" style="stroke:#334155;stroke-width:1.0;"/><line style="stroke:#334155;stroke-width:1.0;" x1="1065" x2="973.75" y1="1494.3594" y2="1494.3594"/><line style="stroke:#334155;stroke-width:1.0;" x1="973.75" x2="973.75" y1="1494.3594" y2="1516.3594"/><polygon fill="#334155" points="969.75,1506.3594,973.75,1516.3594,977.75,1506.3594,973.75,1510.3594" style="stroke:#334155;stroke-width:1.0;"/><line style="stroke:#334155;stroke-width:1.0;" x1="1230" x2="1321.25" y1="1494.3594" y2="1494.3594"/><line style="stroke:#334155;stroke-width:1.0;" x1="1321.25" x2="1321.25" y1="1494.3594" y2="1516.3594"/><polygon fill="#334155" points="1317.25,1506.3594,1321.25,1516.3594,1325.25,1506.3594,1321.25,1510.3594" style="stroke:#334155;stroke-width:1.0;"/><line style="stroke:#334155;stroke-width:1.0;" x1="973.75" x2="973.75" y1="1550.3281" y2="1568.3281"/><line style="stroke:#334155;stroke-width:1.0;" x1="973.75" x2="1135.5" y1="1568.3281" y2="1568.3281"/><polygon fill="#334155" points="1125.5,1564.3281,1135.5,1568.3281,1125.5,1572.3281,1129.5,1568.3281" style="stroke:#334155;stroke-width:1.0;"/><line style="stroke:#334155;stroke-width:1.0;" x1="1321.25" x2="1321.25" y1="1550.3281" y2="1568.3281"/><line style="stroke:#334155;stroke-width:1.0;" x1="1321.25" x2="1159.5" y1="1568.3281" y2="1568.3281"/><polygon fill="#334155" points="1169.5,1564.3281,1159.5,1568.3281,1169.5,1572.3281,1165.5,1568.3281" style="stroke:#334155;stroke-width:1.0;"/><line style="stroke:#334155;stroke-width:1.0;" x1="1147.5" x2="1147.5" y1="1462.3594" y2="1482.3594"/><polygon fill="#334155" points="1143.5,1472.3594,1147.5,1482.3594,1151.5,1472.3594,1147.5,1476.3594" style="stroke:#334155;stroke-width:1.0;"/><line style="stroke:#334155;stroke-width:1.0;" x1="694.625" x2="379.75" y1="417.4688" y2="417.4688"/><line style="stroke:#334155;stroke-width:1.0;" x1="379.75" x2="379.75" y1="417.4688" y2="475.7656"/><polygon fill="#334155" points="375.75,465.7656,379.75,475.7656,383.75,465.7656,379.75,469.7656" style="stroke:#334155;stroke-width:1.0;"/><line style="stroke:#334155;stroke-width:1.0;" x1="832.625" x2="1147.5" y1="417.4688" y2="417.4688"/><line style="stroke:#334155;stroke-width:1.0;" x1="1147.5" x2="1147.5" y1="417.4688" y2="475.7656"/><polygon fill="#334155" points="1143.5,465.7656,1147.5,475.7656,1151.5,465.7656,1147.5,469.7656" style="stroke:#334155;stroke-width:1.0;"/><line style="stroke:#334155;stroke-width:1.0;" x1="1147.5" x2="1147.5" y1="1580.3281" y2="1598.3281"/><line style="stroke:#334155;stroke-width:1.0;" x1="1147.5" x2="763.625" y1="1598.3281" y2="1598.3281"/><line style="stroke:#334155;stroke-width:1.0;" x1="763.625" x2="763.625" y1="373.4688" y2="405.4688"/><polygon fill="#334155" points="759.625,395.4688,763.625,405.4688,767.625,395.4688,763.625,399.4688" style="stroke:#334155;stroke-width:1.0;"/><!--SRC=[XLPTKzms57tthz3GbsIccmb926buw2pxaUw49YaiVTVQrxigikHACiJjvB_tN4dUU0bGPW1RkheVvvvxvA229l5vjX9_TDIHkAJIcb9XRLe6TQj2N_WRPLhfP2FyJbRsJfcjgANsDDevb-NDrjdEL3EhhHC_BUFFo6BgdBtBcwzVlpa-EHbjLbJBJeSrVGrJhRQc8HE4fZgCR6JEH_nRY0VYlLjEbpFUiQuYbrVVd9wSlFq5gqjhGbvxkJm-VJN5sbp9nfhg1rUBLujtovSZWmSzNWNflhiyVVjsWSN5tidfydX-F2- -5PxjYW8r11MKDUBeyyQJkoKXJINEbQcEOaNlBqbMOdOfV4lbpmB7GkUvCVEVesL5cW89PGAmEUC37udQR3VPSFxHMiWkxAnJM5S8KYCPBGCvqRKL_WkyPrUj33lFdbGjdXsj7N2WYlVfQwjLgKBorpho2FdhqNCHTcJ4ivxySvn21Xyey5ga3wnivqeIcrxS67jdXAfmJDMA70SX44OyCpOVlOIvZY0WdFA1INNVJQLygsKlZ6peB1txGix3EaProKLCkNI4uZ826rJ2GDcCJWnlAbMZ7KKiTfuGSFHtHnxdVYXkrAvacvg43AwwJPEW6N1aYFS3bFESMLChroGJTdEdmau0hpHb7O3HiGYjQYhx4lEcl9WlBXRhnPmB6WgCM63Bs810QFAB726Nm7O06wLV4K08GjRSx55wPKf5SXhvSCJWy_WK4f2c0vswiYIg_0FTZarhx6sAMIiZjVe7eUu5v6AHRuvALOfus7s6CQ2n6sqZvn8SZwJ2QC2XtFXC_A6PGdp3hm-sBSRkHwsxs8Cxqz9xSB6CC0pDJ3WWS-O9pnOW3wwN6vpm51u38P8caQTBOtp3etW0orasZ-cDStueQYqXkDLJ8KFd3CzAPo8itjST-4EkuNX8PH1jK0Ow-cXmyFy08DQSFbOmTweEuZSyQepYdkqpsy2SQNgRnZpb7DdCzVgkRQtZoQkY0z-vMfOqejcr-Mx3dMoQBaI0qu4A52qVci1S-5_OZP7AdJHRo09Xt1ZqFgR3phYK9-1-FulQ43daUrFkd3KMef1bKRES8B4jKqzgxLbsIj3S3T8sHuiW4b1dMulMQWOefPGStrbtCqZ9C9s_3tEIE59664Eyrd855hjkX5yoJ2Bj1pThZY2eQN7jbHsAQnQcT7tB9N-aVbMX924X3XFR2YUZom2WGCWUAM5QfHxF_DMzTZsD_hHjTI-imP_3NYipWJ2NGxg7NVznr6zK6ewKvj2oUF-SFJGRMGYuMVyhI74myan49UP0dOyCYryCb2ZxI6xdh41YD5FSgQnY1wfqaCnz5KfFHQsjZ1SPn1gZgBQxK4nTkQFGj_I-cEnlh4b4Vv84Uk9ZXE9oBptxEVDyQ7QvcAvNdpxWyVhBF3rEKsM7XjFPUlNdebWcCJdSMqvN5uiv7l8LKrmVT8vDyctx2PSjtcwLLnkbyRsrCbSiBvN7Qb0DsIwCboeCnWK5Z5Aysd0j8JFNpt1N1MpNZfZlZGXocymXaKWllnfh9a_GkyW2a6ScKYSZoPz1CDkdaXXTdFCTALqVUn1BNnzEwYHFgk2vJlTgcpugaa3nW5Frei0D7Xm_kmau0f5LvbOw9Ks8Ng_YbyMNz6rqxScdXTLWn9o8EHJ_0G00]--></g></svg>