<?xml version="1.0" encoding="UTF-8" standalone="no"?><svg xmlns="http://www.w3.org/2000/svg" xmlns:xlink="http://www.w3.org/1999/xlink" contentStyleType="text/css" height="568px" preserveAspectRatio="none" style="width:1001px;height:568px;background:#FFFFFF;" version="1.1" viewBox="0 0 1001 568" width="1001px" zoomAndPan="magnify"><defs/><g><text fill="#000000" font-family="sans-serif" font-size="14" font-weight="bold" lengthAdjust="spacing" textLength="210" x="388.75" y="22.9951">OciQueue Formal Lifecycle</text><ellipse cx="726.5" cy="53.2969" fill="#222222" rx="10" ry="10" style="stroke:none;stroke-width:1.0;"/><g id="Observed"><rect fill="#F1F1F1" height="50" rx="12.5" ry="12.5" style="stroke:#181818;stroke-width:0.5;" width="87" x="683" y="124.2969"/><line style="stroke:#181818;stroke-width:0.5;" x1="683" x2="770" y1="150.5938" y2="150.5938"/><text fill="#000000" font-family="sans-serif" font-size="14" lengthAdjust="spacing" textLength="67" x="693" y="142.292">Observed</text></g><g id="Retryable"><rect fill="#F1F1F1" height="50" rx="12.5" ry="12.5" style="stroke:#181818;stroke-width:0.5;" width="85" x="736" y="254.7969"/><line style="stroke:#181818;stroke-width:0.5;" x1="736" x2="821" y1="281.0938" y2="281.0938"/><text fill="#000000" font-family="sans-serif" font-size="14" lengthAdjust="spacing" textLength="65" x="746" y="272.792">Retryable</text></g><g id="Active"><rect fill="#F1F1F1" height="50" rx="12.5" ry="12.5" style="stroke:#181818;stroke-width:0.5;" width="61" x="7" y="254.7969"/><line style="stroke:#181818;stroke-width:0.5;" x1="7" x2="68" y1="281.0938" y2="281.0938"/><text fill="#000000" font-family="sans-serif" font-size="14" lengthAdjust="spacing" textLength="41" x="17" y="272.792">Active</text></g><g id="Failed"><rect fill="#F1F1F1" height="50" rx="12.5" ry="12.5" style="stroke:#181818;stroke-width:0.5;" width="60" x="877.5" y="254.7969"/><line style="stroke:#181818;stroke-width:0.5;" x1="877.5" x2="937.5" y1="281.0938" y2="281.0938"/><text fill="#000000" font-family="sans-serif" font-size="14" lengthAdjust="spacing" textLength="40" x="887.5" y="272.792">Failed</text></g><g id="DeletePending"><rect fill="#F1F1F1" height="50" rx="12.5" ry="12.5" style="stroke:#181818;stroke-width:0.5;" width="123" x="695" y="385.2969"/><line style="stroke:#181818;stroke-width:0.5;" x1="695" x2="818" y1="411.5938" y2="411.5938"/><text fill="#000000" font-family="sans-serif" font-size="14" lengthAdjust="spacing" textLength="103" x="705" y="403.292">DeletePending</text></g><g id="Deleted"><rect fill="#F1F1F1" height="50" rx="12.5" ry="12.5" style="stroke:#181818;stroke-width:0.5;" width="75" x="719" y="512.2969"/><line style="stroke:#181818;stroke-width:0.5;" x1="719" x2="794" y1="538.5938" y2="538.5938"/><text fill="#000000" font-family="sans-serif" font-size="14" lengthAdjust="spacing" textLength="55" x="729" y="530.292">Deleted</text></g><g id="elem_GMN18"><path d="M340.5,252.2969 L340.5,275.7969 L68.16,279.7969 L340.5,283.7969 L340.5,307.6953 A0,0 0 0 0 340.5,307.6953 L700.5,307.6953 A0,0 0 0 0 700.5,307.6953 L700.5,262.2969 L690.5,252.2969 L340.5,252.2969 A0,0 0 0 0 340.5,252.2969 " fill="#FEFFDD" style="stroke:#181818;stroke-width:0.5;"/><path d="M690.5,252.2969 L690.5,262.2969 L700.5,262.2969 L690.5,252.2969 " fill="#FEFFDD" style="stroke:#181818;stroke-width:0.5;"/><text fill="#000000" font-family="sans-serif" font-size="13" lengthAdjust="spacing" textLength="223" x="346.5" y="269.3638">retentionInSeconds drift is rejected</text><text fill="#000000" font-family="sans-serif" font-size="13" lengthAdjust="spacing" textLength="339" x="346.5" y="284.4966">before any compartment move or UpdateQueue call.</text><text fill="#000000" font-family="sans-serif" font-size="13" lengthAdjust="spacing" textLength="265" x="346.5" y="299.6294">Empty customEncryptionKeyId is a no-op.</text></g><!--link *start to Observed--><g id="link_*start_Observed"><path d="M726.5,63.3069 C726.5,75.9969 726.5,99.7069 726.5,118.8669 " fill="none" id="*start-to-Observed" style="stroke:#181818;stroke-width:1.0;"/><polygon fill="#181818" points="726.5,124.1369,730.5,115.1369,726.5,119.1369,722.5,115.1369,726.5,124.1369" style="stroke:#181818;stroke-width:1.0;"/></g><!--link Observed to Retryable--><g id="link_Observed_Retryable"><path d="M720.64,174.4769 C718.38,188.6169 717.57,206.5269 723.5,221.2969 C727.96,232.4069 735.69,242.5769 743.98,251.1769 " fill="none" id="Observed-to-Retryable" style="stroke:#181818;stroke-width:1.0;"/><polygon fill="#181818" points="747.56,254.7669,744.043,245.5674,744.0316,251.2242,738.3748,251.2128,747.56,254.7669" style="stroke:#181818;stroke-width:1.0;"/><text fill="#000000" font-family="sans-serif" font-size="13" lengthAdjust="spacing" textLength="139" x="724.5" y="217.3638">CREATING, UPDATING</text></g><!--link Observed to Active--><g id="link_Observed_Active"><path d="M682.88,158.4369 C556.08,182.0769 189.28,250.4869 73.18,272.1469 " fill="none" id="Observed-to-Active" style="stroke:#181818;stroke-width:1.0;"/><polygon fill="#181818" points="68.17,273.0769,77.7498,275.3632,73.0857,272.1623,76.2865,267.4982,68.17,273.0769" style="stroke:#181818;stroke-width:1.0;"/><text fill="#000000" font-family="sans-serif" font-size="13" lengthAdjust="spacing" textLength="45" x="424.5" y="217.3638">ACTIVE</text></g><!--link Observed to Failed--><g id="link_Observed_Failed"><path d="M770.21,158.3269 C800.72,165.8369 840.79,179.6969 868.5,204.2969 C882.25,216.5069 891.91,234.7369 898.18,250.1069 " fill="none" id="Observed-to-Failed" style="stroke:#181818;stroke-width:1.0;"/><polygon fill="#181818" points="900.02,254.7769,900.454,244.9376,898.1926,250.1228,893.0074,247.8614,900.02,254.7769" style="stroke:#181818;stroke-width:1.0;"/><text fill="#000000" font-family="sans-serif" font-size="13" lengthAdjust="spacing" textLength="110" x="883.5" y="217.3638">FAILED, DELETED</text></g><!--link Active to Active--><g id="link_Active_Active"><path d="M68.16,268.1469 C86.16,265.6669 103,269.5469 103,279.7969 C103,289.0869 89.17,293.1469 73.18,291.9769 " fill="none" id="Active-to-Active" style="stroke:#181818;stroke-width:1.0;"/><polygon fill="#181818" points="68.16,291.4469,76.6867,296.376,73.132,291.9755,77.5325,288.4208,68.16,291.4469" style="stroke:#181818;stroke-width:1.0;"/><text fill="#000000" font-family="sans-serif" font-size="13" lengthAdjust="spacing" textLength="143" x="141" y="269.3638">supported drift update</text><text fill="#000000" font-family="sans-serif" font-size="13" lengthAdjust="spacing" textLength="207" x="109" y="284.4966">(displayName, visibility, timeout,</text><text fill="#000000" font-family="sans-serif" font-size="13" lengthAdjust="spacing" textLength="190" x="117.5" y="299.6294">DLQ count, tags, custom key)</text></g><!--link Active to DeletePending--><g id="link_Active_DeletePending"><path d="M68.39,286.3169 C176.38,305.6169 538.55,370.3469 689.53,397.3269 " fill="none" id="Active-to-DeletePending" style="stroke:#181818;stroke-width:1.0;"/><polygon fill="#181818" points="694.81,398.2669,686.6594,392.7381,689.8888,397.3825,685.2444,400.6119,694.81,398.2669" style="stroke:#181818;stroke-width:1.0;"/><text fill="#000000" font-family="sans-serif" font-size="13" lengthAdjust="spacing" textLength="109" x="441.5" y="351.3638">delete requested</text></g><!--link Retryable to DeletePending--><g id="link_Retryable_DeletePending"><path d="M765.36,304.9669 C760.63,314.9769 755.87,326.8969 753.5,338.2969 C750.68,351.8369 750.91,367.1369 752.05,380.0569 " fill="none" id="Retryable-to-DeletePending" style="stroke:#181818;stroke-width:1.0;"/><polygon fill="#181818" points="752.55,385.0669,755.632,375.7127,752.0511,380.0918,747.6719,376.5109,752.55,385.0669" style="stroke:#181818;stroke-width:1.0;"/><text fill="#000000" font-family="sans-serif" font-size="13" lengthAdjust="spacing" textLength="109" x="754.5" y="351.3638">delete requested</text></g><!--link Failed to DeletePending--><g id="link_Failed_DeletePending"><path d="M899.37,305.1069 C893.03,321.0269 882.87,341.3869 868.5,355.2969 C855.52,367.8469 839.07,377.9669 822.8,385.8969 " fill="none" id="Failed-to-DeletePending" style="stroke:#181818;stroke-width:1.0;"/><polygon fill="#181818" points="818.22,388.0769,828.0651,387.8056,822.7314,385.9211,824.6159,380.5874,818.22,388.0769" style="stroke:#181818;stroke-width:1.0;"/><text fill="#000000" font-family="sans-serif" font-size="13" lengthAdjust="spacing" textLength="109" x="883.5" y="351.3638">delete requested</text></g><!--link DeletePending to Deleted--><g id="link_DeletePending_Deleted"><path d="M756.5,435.3969 C756.5,455.8869 756.5,485.3769 756.5,507.1769 " fill="none" id="DeletePending-to-Deleted" style="stroke:#181818;stroke-width:1.0;"/><polygon fill="#181818" points="756.5,512.2669,760.5,503.2669,756.5,507.2669,752.5,503.2669,756.5,512.2669" style="stroke:#181818;stroke-width:1.0;"/><text fill="#000000" font-family="sans-serif" font-size="13" lengthAdjust="spacing" textLength="188" x="757.5" y="478.3638">finalizer removed after delete</text></g><!--SRC=[ZLB1JiCm3BtdAtm4rEq3E21DQuSg9jZ6u08SiiGTXZGfYJifV3t9LZHwusOxp-yzss5YW_2WQDrZZx1mlfK6bjIWYigW42zNRp2PtC33Bg0_e1Q_mR6wGVPHxXB5DSmtrMnRtzyMyBGgZz4OErDCXmoSpRVrSpL-N4WoARo6nQnULcK1PRMijbKfXguHGUYxpdbEUEsfOUWxBHbVxOMcq1aPxsMB1Hmeq8uCSIo0gKNNS_5go-KQbEijfwBSXm9K7zYry8dnygzOYGOPLsWrsNtIrCSSF7xr69AqE8_-B_WmuB-mOy2v9U-d8IiDVQDF-DRbzSc6KtOY4I9mMiNvBaD-6cn8JbQ6PAGrgcaXhCk-QF_Eu9fV4aZAZ9R9sTe-ed9MX-4G5DBR1whS3B33nda4QMFQUDj9psrgW-mQd8UduzLE_qv9OwQffMexZiD9AgjyxBBC7SPQPt89rarSDnN9BcHpFm00]--></g></svg>