<?xml version="1.0" encoding="UTF-8" standalone="no"?><svg xmlns="http://www.w3.org/2000/svg" xmlns:xlink="http://www.w3.org/1999/xlink" contentStyleType="text/css" height="1557px" preserveAspectRatio="none" style="width:1258px;height:1557px;background:#FFFFFF;" version="1.1" viewBox="0 0 1258 1557" width="1258px" zoomAndPan="magnify"><defs/><g><text fill="#000000" font-family="sans-serif" font-size="14" font-weight="bold" lengthAdjust="spacing" textLength="249" x="505.75" y="27.9951">OCI Queue Reconcile Sequence</text><rect fill="none" height="254.6719" style="stroke:#475569;stroke-width:1.5;" width="983" x="268.5" y="193.8594"/><rect fill="none" height="223.5391" style="stroke:#475569;stroke-width:1.5;" width="963" x="278.5" y="217.9922"/><rect fill="none" height="119.3359" style="stroke:#475569;stroke-width:1.5;" width="943" x="288.5" y="315.1953"/><rect fill="none" height="871.4688" style="stroke:#475569;stroke-width:1.5;" width="1241.5" x="10" y="462.5313"/><rect fill="none" height="208.7344" style="stroke:#475569;stroke-width:1.5;" width="1221.5" x="20" y="486.6641"/><rect fill="none" height="90.2031" style="stroke:#475569;stroke-width:1.5;" width="1201.5" x="30" y="598.1953"/><rect fill="none" height="485.7891" style="stroke:#475569;stroke-width:1.5;" width="1211.5" x="20" y="812.0781"/><rect fill="none" height="46.2656" style="stroke:#475569;stroke-width:1.5;" width="406.5" x="30" y="1007.5391"/><rect fill="none" height="46.2656" style="stroke:#475569;stroke-width:1.5;" width="821" x="288.5" y="1155.2031"/><rect fill="none" height="46.2656" style="stroke:#475569;stroke-width:1.5;" width="406.5" x="30" y="1244.6016"/><line style="stroke:#94A3B8;stroke-width:0.5;stroke-dasharray:5.0,5.0;" x1="76" x2="76" y1="118.5938" y2="1476.9297"/><line style="stroke:#94A3B8;stroke-width:0.5;stroke-dasharray:5.0,5.0;" x1="362.5" x2="362.5" y1="118.5938" y2="1476.9297"/><line style="stroke:#94A3B8;stroke-width:0.5;stroke-dasharray:5.0,5.0;" x1="1081.5" x2="1081.5" y1="118.5938" y2="1476.9297"/><line style="stroke:#94A3B8;stroke-width:0.5;stroke-dasharray:5.0,5.0;" x1="1165.5" x2="1165.5" y1="118.5938" y2="1476.9297"/><text fill="#000000" font-family="sans-serif" font-size="14" lengthAdjust="spacing" textLength="67" x="40" y="115.292">Controller</text><ellipse cx="76.5" cy="50.7969" fill="#E0F2FE" rx="8" ry="8" style="stroke:#0F766E;stroke-width:0.5;"/><path d="M76.5,58.7969 L76.5,85.7969 M63.5,66.7969 L89.5,66.7969 M76.5,85.7969 L63.5,100.7969 M76.5,85.7969 L89.5,100.7969 " fill="none" style="stroke:#0F766E;stroke-width:0.5;"/><text fill="#000000" font-family="sans-serif" font-size="14" lengthAdjust="spacing" textLength="67" x="40" y="1488.9248">Controller</text><ellipse cx="76.5" cy="1500.7266" fill="#E0F2FE" rx="8" ry="8" style="stroke:#0F766E;stroke-width:0.5;"/><path d="M76.5,1508.7266 L76.5,1535.7266 M63.5,1516.7266 L89.5,1516.7266 M76.5,1535.7266 L63.5,1550.7266 M76.5,1535.7266 L89.5,1550.7266 " fill="none" style="stroke:#0F766E;stroke-width:0.5;"/><rect fill="#F8FAFC" height="30.2969" rx="2.5" ry="2.5" style="stroke:#475569;stroke-width:0.5;" width="128" x="298.5" y="87.2969"/><text fill="#000000" font-family="sans-serif" font-size="14" lengthAdjust="spacing" textLength="114" x="305.5" y="107.292">Service Manager</text><rect fill="#F8FAFC" height="30.2969" rx="2.5" ry="2.5" style="stroke:#475569;stroke-width:0.5;" width="128" x="298.5" y="1475.9297"/><text fill="#000000" font-family="sans-serif" font-size="14" lengthAdjust="spacing" textLength="114" x="305.5" y="1495.9248">Service Manager</text><text fill="#000000" font-family="sans-serif" font-size="14" lengthAdjust="spacing" textLength="24" x="1066.5" y="115.292">OCI</text><path d="M1063.5,66.2969 C1063.5,56.2969 1081.5,56.2969 1081.5,56.2969 C1081.5,56.2969 1099.5,56.2969 1099.5,66.2969 L1099.5,92.2969 C1099.5,102.2969 1081.5,102.2969 1081.5,102.2969 C1081.5,102.2969 1063.5,102.2969 1063.5,92.2969 L1063.5,66.2969 " fill="#E2E2F0" style="stroke:#181818;stroke-width:1.5;"/><path d="M1063.5,66.2969 C1063.5,76.2969 1081.5,76.2969 1081.5,76.2969 C1081.5,76.2969 1099.5,76.2969 1099.5,66.2969 " fill="none" style="stroke:#181818;stroke-width:1.5;"/><text fill="#000000" font-family="sans-serif" font-size="14" lengthAdjust="spacing" textLength="24" x="1066.5" y="1488.9248">OCI</text><path d="M1063.5,1502.2266 C1063.5,1492.2266 1081.5,1492.2266 1081.5,1492.2266 C1081.5,1492.2266 1099.5,1492.2266 1099.5,1502.2266 L1099.5,1528.2266 C1099.5,1538.2266 1081.5,1538.2266 1081.5,1538.2266 C1081.5,1538.2266 1063.5,1538.2266 1063.5,1528.2266 L1063.5,1502.2266 " fill="#E2E2F0" style="stroke:#181818;stroke-width:1.5;"/><path d="M1063.5,1502.2266 C1063.5,1512.2266 1081.5,1512.2266 1081.5,1512.2266 C1081.5,1512.2266 1099.5,1512.2266 1099.5,1502.2266 " fill="none" style="stroke:#181818;stroke-width:1.5;"/><text fill="#000000" font-family="sans-serif" font-size="14" lengthAdjust="spacing" textLength="106" x="1109.5" y="115.292">Kubernetes API</text><path d="M1147.5,66.2969 C1147.5,56.2969 1165.5,56.2969 1165.5,56.2969 C1165.5,56.2969 1183.5,56.2969 1183.5,66.2969 L1183.5,92.2969 C1183.5,102.2969 1165.5,102.2969 1165.5,102.2969 C1165.5,102.2969 1147.5,102.2969 1147.5,92.2969 L1147.5,66.2969 " fill="#E2E2F0" style="stroke:#181818;stroke-width:1.5;"/><path d="M1147.5,66.2969 C1147.5,76.2969 1165.5,76.2969 1165.5,76.2969 C1165.5,76.2969 1183.5,76.2969 1183.5,66.2969 " fill="none" style="stroke:#181818;stroke-width:1.5;"/><text fill="#000000" font-family="sans-serif" font-size="14" lengthAdjust="spacing" textLength="106" x="1109.5" y="1488.9248">Kubernetes API</text><path d="M1147.5,1502.2266 C1147.5,1492.2266 1165.5,1492.2266 1165.5,1492.2266 C1165.5,1492.2266 1183.5,1492.2266 1183.5,1502.2266 L1183.5,1528.2266 C1183.5,1538.2266 1165.5,1538.2266 1165.5,1538.2266 C1165.5,1538.2266 1147.5,1538.2266 1147.5,1528.2266 L1147.5,1502.2266 " fill="#E2E2F0" style="stroke:#181818;stroke-width:1.5;"/><path d="M1147.5,1502.2266 C1147.5,1512.2266 1165.5,1512.2266 1165.5,1512.2266 C1165.5,1512.2266 1183.5,1512.2266 1183.5,1502.2266 " fill="none" style="stroke:#181818;stroke-width:1.5;"/><polygon fill="#334155" points="350.5,145.7266,360.5,149.7266,350.5,153.7266,354.5,149.7266" style="stroke:#334155;stroke-width:1.0;"/><line style="stroke:#334155;stroke-width:1.0;" x1="76.5" x2="356.5" y1="149.7266" y2="149.7266"/><text fill="#000000" font-family="sans-serif" font-size="13" font-weight="bold" lengthAdjust="spacing" textLength="9" x="83.5" y="144.6606">1</text><text fill="#000000" font-family="sans-serif" font-size="13" lengthAdjust="spacing" textLength="239" x="96.5" y="144.6606">reconcile desired spec and live status</text><polygon fill="#334155" points="1153.5,174.8594,1163.5,178.8594,1153.5,182.8594,1157.5,178.8594" style="stroke:#334155;stroke-width:1.0;"/><line style="stroke:#334155;stroke-width:1.0;" x1="362.5" x2="1159.5" y1="178.8594" y2="178.8594"/><text fill="#000000" font-family="sans-serif" font-size="13" font-weight="bold" lengthAdjust="spacing" textLength="9" x="369.5" y="173.7935">2</text><text fill="#000000" font-family="sans-serif" font-size="13" lengthAdjust="spacing" textLength="212" x="382.5" y="173.7935">read CR status and finalizer state</text><path d="M268.5,193.8594 L438.5,193.8594 L438.5,200.9922 L428.5,210.9922 L268.5,210.9922 L268.5,193.8594 " fill="#F8FAFC" style="stroke:#475569;stroke-width:1.5;"/><rect fill="none" height="254.6719" style="stroke:#475569;stroke-width:1.5;" width="983" x="268.5" y="193.8594"/><text fill="#000000" font-family="sans-serif" font-size="13" font-weight="bold" lengthAdjust="spacing" textLength="125" x="283.5" y="206.9263">Lookup and bind</text><path d="M278.5,217.9922 L342.5,217.9922 L342.5,225.125 L332.5,235.125 L278.5,235.125 L278.5,217.9922 " fill="#F8FAFC" style="stroke:#475569;stroke-width:1.5;"/><rect fill="none" height="223.5391" style="stroke:#475569;stroke-width:1.5;" width="963" x="278.5" y="217.9922"/><text fill="#000000" font-family="sans-serif" font-size="13" font-weight="bold" lengthAdjust="spacing" textLength="19" x="293.5" y="231.0591">alt</text><text fill="#000000" font-family="sans-serif" font-size="11" font-weight="bold" lengthAdjust="spacing" textLength="256" x="357.5" y="230.2026">[tracked or explicit OCID already exists]</text><polygon fill="#334155" points="1069.5,252.2578,1079.5,256.2578,1069.5,260.2578,1073.5,256.2578" style="stroke:#334155;stroke-width:1.0;"/><line style="stroke:#334155;stroke-width:1.0;" x1="362.5" x2="1075.5" y1="256.2578" y2="256.2578"/><text fill="#000000" font-family="sans-serif" font-size="13" font-weight="bold" lengthAdjust="spacing" textLength="9" x="369.5" y="251.1919">3</text><text fill="#000000" font-family="sans-serif" font-size="13" lengthAdjust="spacing" textLength="278" x="382.5" y="251.1919">get the current resource by known identifier</text><line style="stroke:#475569;stroke-width:1.0;stroke-dasharray:2.0,2.0;" x1="278.5" x2="1241.5" y1="265.2578" y2="265.2578"/><text fill="#000000" font-family="sans-serif" font-size="11" font-weight="bold" lengthAdjust="spacing" textLength="145" x="283.5" y="275.4683">[no OCID is bound yet]</text><polygon fill="#334155" points="1069.5,296.1953,1079.5,300.1953,1069.5,304.1953,1073.5,300.1953" style="stroke:#334155;stroke-width:1.0;"/><line style="stroke:#334155;stroke-width:1.0;" x1="362.5" x2="1075.5" y1="300.1953" y2="300.1953"/><text fill="#000000" font-family="sans-serif" font-size="13" font-weight="bold" lengthAdjust="spacing" textLength="9" x="369.5" y="295.1294">4</text><text fill="#000000" font-family="sans-serif" font-size="13" lengthAdjust="spacing" textLength="193" x="382.5" y="295.1294">list resources by display name</text><path d="M288.5,315.1953 L352.5,315.1953 L352.5,322.3281 L342.5,332.3281 L288.5,332.3281 L288.5,315.1953 " fill="#F8FAFC" style="stroke:#475569;stroke-width:1.5;"/><rect fill="none" height="119.3359" style="stroke:#475569;stroke-width:1.5;" width="943" x="288.5" y="315.1953"/><text fill="#000000" font-family="sans-serif" font-size="13" font-weight="bold" lengthAdjust="spacing" textLength="19" x="303.5" y="328.2622">alt</text><text fill="#000000" font-family="sans-serif" font-size="11" font-weight="bold" lengthAdjust="spacing" textLength="162" x="367.5" y="327.4058">[existing resource found]</text><polygon fill="#334155" points="1153.5,349.4609,1163.5,353.4609,1153.5,357.4609,1157.5,353.4609" style="stroke:#334155;stroke-width:1.0;"/><line style="stroke:#334155;stroke-width:1.0;" x1="362.5" x2="1159.5" y1="353.4609" y2="353.4609"/><text fill="#000000" font-family="sans-serif" font-size="13" font-weight="bold" lengthAdjust="spacing" textLength="9" x="369.5" y="348.395">5</text><text fill="#000000" font-family="sans-serif" font-size="13" lengthAdjust="spacing" textLength="221" x="382.5" y="348.395">persist the resolved OCID in status</text><line style="stroke:#475569;stroke-width:1.0;stroke-dasharray:2.0,2.0;" x1="288.5" x2="1231.5" y1="362.4609" y2="362.4609"/><text fill="#000000" font-family="sans-serif" font-size="11" font-weight="bold" lengthAdjust="spacing" textLength="182" x="293.5" y="372.6714">[no existing resource found]</text><polygon fill="#334155" points="1069.5,393.3984,1079.5,397.3984,1069.5,401.3984,1073.5,397.3984" style="stroke:#334155;stroke-width:1.0;"/><line style="stroke:#334155;stroke-width:1.0;" x1="362.5" x2="1075.5" y1="397.3984" y2="397.3984"/><text fill="#000000" font-family="sans-serif" font-size="13" font-weight="bold" lengthAdjust="spacing" textLength="9" x="369.5" y="392.3325">6</text><text fill="#000000" font-family="sans-serif" font-size="13" lengthAdjust="spacing" textLength="152" x="382.5" y="392.3325">create the OCI resource</text><polygon fill="#334155" points="1153.5,422.5313,1163.5,426.5313,1153.5,430.5313,1157.5,426.5313" style="stroke:#334155;stroke-width:1.0;"/><line style="stroke:#334155;stroke-width:1.0;" x1="362.5" x2="1159.5" y1="426.5313" y2="426.5313"/><text fill="#000000" font-family="sans-serif" font-size="13" font-weight="bold" lengthAdjust="spacing" textLength="9" x="369.5" y="421.4653">7</text><text fill="#000000" font-family="sans-serif" font-size="13" lengthAdjust="spacing" textLength="216" x="382.5" y="421.4653">persist the created OCID in status</text><path d="M10,462.5313 L74,462.5313 L74,469.6641 L64,479.6641 L10,479.6641 L10,462.5313 " fill="#F8FAFC" style="stroke:#475569;stroke-width:1.5;"/><rect fill="none" height="871.4688" style="stroke:#475569;stroke-width:1.5;" width="1241.5" x="10" y="462.5313"/><text fill="#000000" font-family="sans-serif" font-size="13" font-weight="bold" lengthAdjust="spacing" textLength="19" x="25" y="475.5981">alt</text><text fill="#000000" font-family="sans-serif" font-size="11" font-weight="bold" lengthAdjust="spacing" textLength="120" x="89" y="474.7417">[delete requested]</text><path d="M20,486.6641 L113,486.6641 L113,493.7969 L103,503.7969 L20,503.7969 L20,486.6641 " fill="#F8FAFC" style="stroke:#475569;stroke-width:1.5;"/><rect fill="none" height="208.7344" style="stroke:#475569;stroke-width:1.5;" width="1221.5" x="20" y="486.6641"/><text fill="#000000" font-family="sans-serif" font-size="13" font-weight="bold" lengthAdjust="spacing" textLength="48" x="35" y="499.731">Delete</text><polygon fill="#334155" points="1069.5,520.9297,1079.5,524.9297,1069.5,528.9297,1073.5,524.9297" style="stroke:#334155;stroke-width:1.0;"/><line style="stroke:#334155;stroke-width:1.0;" x1="362.5" x2="1075.5" y1="524.9297" y2="524.9297"/><text fill="#000000" font-family="sans-serif" font-size="13" font-weight="bold" lengthAdjust="spacing" textLength="9" x="369.5" y="519.8638">8</text><text fill="#000000" font-family="sans-serif" font-size="13" lengthAdjust="spacing" textLength="114" x="382.5" y="519.8638">submit OCI delete</text><polygon fill="#334155" points="1069.5,550.0625,1079.5,554.0625,1069.5,558.0625,1073.5,554.0625" style="stroke:#334155;stroke-width:1.0;"/><line style="stroke:#334155;stroke-width:1.0;" x1="362.5" x2="1075.5" y1="554.0625" y2="554.0625"/><text fill="#000000" font-family="sans-serif" font-size="13" font-weight="bold" lengthAdjust="spacing" textLength="9" x="369.5" y="548.9966">9</text><text fill="#000000" font-family="sans-serif" font-size="13" lengthAdjust="spacing" textLength="574" x="382.5" y="548.9966">Confirm deletion with GetQueue until the lifecycle is DELETED or the resource is not found.</text><polygon fill="#334155" points="1153.5,579.1953,1163.5,583.1953,1153.5,587.1953,1157.5,583.1953" style="stroke:#334155;stroke-width:1.0;"/><line style="stroke:#334155;stroke-width:1.0;" x1="362.5" x2="1159.5" y1="583.1953" y2="583.1953"/><text fill="#000000" font-family="sans-serif" font-size="13" font-weight="bold" lengthAdjust="spacing" textLength="18" x="369.5" y="578.1294">10</text><text fill="#000000" font-family="sans-serif" font-size="13" lengthAdjust="spacing" textLength="350" x="391.5" y="578.1294">Delete the owned Secret after OCI delete confirmation.</text><path d="M30,598.1953 L94,598.1953 L94,605.3281 L84,615.3281 L30,615.3281 L30,598.1953 " fill="#F8FAFC" style="stroke:#475569;stroke-width:1.5;"/><rect fill="none" height="90.2031" style="stroke:#475569;stroke-width:1.5;" width="1201.5" x="30" y="598.1953"/><text fill="#000000" font-family="sans-serif" font-size="13" font-weight="bold" lengthAdjust="spacing" textLength="19" x="45" y="611.2622">alt</text><text fill="#000000" font-family="sans-serif" font-size="11" font-weight="bold" lengthAdjust="spacing" textLength="217" x="109" y="610.4058">[owned Secret cleanup succeeds]</text><polygon fill="#334155" points="1153.5,632.4609,1163.5,636.4609,1153.5,640.4609,1157.5,636.4609" style="stroke:#334155;stroke-width:1.0;"/><line style="stroke:#334155;stroke-width:1.0;" x1="362.5" x2="1159.5" y1="636.4609" y2="636.4609"/><text fill="#000000" font-family="sans-serif" font-size="13" font-weight="bold" lengthAdjust="spacing" textLength="18" x="369.5" y="631.395">11</text><text fill="#000000" font-family="sans-serif" font-size="13" lengthAdjust="spacing" textLength="127" x="391.5" y="631.395">remove the finalizer</text><line style="stroke:#475569;stroke-width:1.0;stroke-dasharray:2.0,2.0;" x1="30" x2="1231.5" y1="645.4609" y2="645.4609"/><text fill="#000000" font-family="sans-serif" font-size="11" font-weight="bold" lengthAdjust="spacing" textLength="138" x="35" y="655.6714">[Secret cleanup fails]</text><polygon fill="#334155" points="87.5,676.3984,77.5,680.3984,87.5,684.3984,83.5,680.3984" style="stroke:#334155;stroke-width:1.0;"/><line style="stroke:#334155;stroke-width:1.0;stroke-dasharray:2.0,2.0;" x1="81.5" x2="361.5" y1="680.3984" y2="680.3984"/><text fill="#000000" font-family="sans-serif" font-size="13" font-weight="bold" lengthAdjust="spacing" textLength="18" x="93.5" y="675.3325">12</text><text fill="#000000" font-family="sans-serif" font-size="13" lengthAdjust="spacing" textLength="177" x="115.5" y="675.3325">retain the finalizer and retry</text><line style="stroke:#475569;stroke-width:1.0;stroke-dasharray:2.0,2.0;" x1="10" x2="1251.5" y1="703.3984" y2="703.3984"/><text fill="#000000" font-family="sans-serif" font-size="11" font-weight="bold" lengthAdjust="spacing" textLength="147" x="15" y="713.6089">[OCI state is retryable]</text><polygon fill="#334155" points="87.5,734.3359,77.5,738.3359,87.5,742.3359,83.5,738.3359" style="stroke:#334155;stroke-width:1.0;"/><line style="stroke:#334155;stroke-width:1.0;stroke-dasharray:2.0,2.0;" x1="81.5" x2="361.5" y1="738.3359" y2="738.3359"/><text fill="#000000" font-family="sans-serif" font-size="13" font-weight="bold" lengthAdjust="spacing" textLength="18" x="93.5" y="733.27">13</text><text fill="#000000" font-family="sans-serif" font-size="13" lengthAdjust="spacing" textLength="110" x="115.5" y="733.27">requeue required</text><line style="stroke:#475569;stroke-width:1.0;stroke-dasharray:2.0,2.0;" x1="10" x2="1251.5" y1="747.3359" y2="747.3359"/><text fill="#000000" font-family="sans-serif" font-size="11" font-weight="bold" lengthAdjust="spacing" textLength="200" x="15" y="757.5464">[OCI state is failed or terminal]</text><polygon fill="#334155" points="87.5,778.2734,77.5,782.2734,87.5,786.2734,83.5,782.2734" style="stroke:#334155;stroke-width:1.0;"/><line style="stroke:#334155;stroke-width:1.0;stroke-dasharray:2.0,2.0;" x1="81.5" x2="361.5" y1="782.2734" y2="782.2734"/><text fill="#000000" font-family="sans-serif" font-size="13" font-weight="bold" lengthAdjust="spacing" textLength="18" x="93.5" y="777.2075">14</text><text fill="#000000" font-family="sans-serif" font-size="13" lengthAdjust="spacing" textLength="240" x="115.5" y="777.2075">unsuccessful terminal reconcile result</text><line style="stroke:#475569;stroke-width:1.0;stroke-dasharray:2.0,2.0;" x1="10" x2="1251.5" y1="791.2734" y2="791.2734"/><text fill="#000000" font-family="sans-serif" font-size="11" font-weight="bold" lengthAdjust="spacing" textLength="203" x="15" y="801.4839">[OCI state is active and usable]</text><path d="M20,812.0781 L167,812.0781 L167,819.2109 L157,829.2109 L20,829.2109 L20,812.0781 " fill="#F8FAFC" style="stroke:#475569;stroke-width:1.5;"/><rect fill="none" height="485.7891" style="stroke:#475569;stroke-width:1.5;" width="1211.5" x="20" y="812.0781"/><text fill="#000000" font-family="sans-serif" font-size="13" font-weight="bold" lengthAdjust="spacing" textLength="102" x="35" y="825.145">Drift handling</text><path d="M324,834.2109 L324,995.2109 L1120,995.2109 L1120,844.2109 L1110,834.2109 L324,834.2109 " fill="#FEFFDD" style="stroke:#181818;stroke-width:0.5;"/><path d="M1110,834.2109 L1110,844.2109 L1120,844.2109 L1110,834.2109 " fill="#FEFFDD" style="stroke:#181818;stroke-width:0.5;"/><text fill="#000000" font-family="sans-serif" font-size="13" lengthAdjust="spacing" textLength="171" x="330" y="851.2778">Supported update surface:</text><text fill="#000000" font-family="sans-serif" font-size="13" lengthAdjust="spacing" textLength="92" x="330" y="866.4106">- displayName</text><text fill="#000000" font-family="sans-serif" font-size="13" lengthAdjust="spacing" textLength="124" x="330" y="881.5435">- visibilityInSeconds</text><text fill="#000000" font-family="sans-serif" font-size="13" lengthAdjust="spacing" textLength="125" x="330" y="896.6763">- timeoutInSeconds</text><text fill="#000000" font-family="sans-serif" font-size="13" lengthAdjust="spacing" textLength="210" x="330" y="911.8091">- deadLetterQueueDeliveryCount</text><text fill="#000000" font-family="sans-serif" font-size="13" lengthAdjust="spacing" textLength="96" x="330" y="926.9419">- freeform tags</text><text fill="#000000" font-family="sans-serif" font-size="13" lengthAdjust="spacing" textLength="88" x="330" y="942.0747">- defined tags</text><text fill="#000000" font-family="sans-serif" font-size="13" lengthAdjust="spacing" textLength="232" x="330" y="957.2075">- non-empty customEncryptionKeyId</text><text fill="#000000" font-family="sans-serif" font-size="13" lengthAdjust="spacing" textLength="139" x="330" y="972.3403">Reject before mutate:</text><text fill="#000000" font-family="sans-serif" font-size="13" lengthAdjust="spacing" textLength="162" x="330" y="987.4731">- retentionInSeconds drift</text><path d="M30,1007.5391 L100,1007.5391 L100,1014.6719 L90,1024.6719 L30,1024.6719 L30,1007.5391 " fill="#F8FAFC" style="stroke:#475569;stroke-width:1.5;"/><rect fill="none" height="46.2656" style="stroke:#475569;stroke-width:1.5;" width="406.5" x="30" y="1007.5391"/><text fill="#000000" font-family="sans-serif" font-size="13" font-weight="bold" lengthAdjust="spacing" textLength="25" x="45" y="1020.606">opt</text><text fill="#000000" font-family="sans-serif" font-size="11" font-weight="bold" lengthAdjust="spacing" textLength="286" x="115" y="1019.7495">[unsupported or immutable drift is detected]</text><polygon fill="#334155" points="87.5,1041.8047,77.5,1045.8047,87.5,1049.8047,83.5,1045.8047" style="stroke:#334155;stroke-width:1.0;"/><line style="stroke:#334155;stroke-width:1.0;stroke-dasharray:2.0,2.0;" x1="81.5" x2="361.5" y1="1045.8047" y2="1045.8047"/><text fill="#000000" font-family="sans-serif" font-size="13" font-weight="bold" lengthAdjust="spacing" textLength="18" x="93.5" y="1040.7388">15</text><text fill="#000000" font-family="sans-serif" font-size="13" lengthAdjust="spacing" textLength="169" x="115.5" y="1040.7388">reject before OCI mutation</text><polygon fill="#334155" points="1069.5,1077.9375,1079.5,1081.9375,1069.5,1085.9375,1073.5,1081.9375" style="stroke:#334155;stroke-width:1.0;"/><line style="stroke:#334155;stroke-width:1.0;" x1="362.5" x2="1075.5" y1="1081.9375" y2="1081.9375"/><text fill="#000000" font-family="sans-serif" font-size="13" font-weight="bold" lengthAdjust="spacing" textLength="18" x="369.5" y="1076.8716">16</text><text fill="#000000" font-family="sans-serif" font-size="13" lengthAdjust="spacing" textLength="673" x="391.5" y="1076.8716">Create is asynchronous; later list or get calls discover the OCID instead of polling the create work request.</text><polygon fill="#334155" points="1069.5,1107.0703,1079.5,1111.0703,1069.5,1115.0703,1073.5,1111.0703" style="stroke:#334155;stroke-width:1.0;"/><line style="stroke:#334155;stroke-width:1.0;" x1="362.5" x2="1075.5" y1="1111.0703" y2="1111.0703"/><text fill="#000000" font-family="sans-serif" font-size="13" font-weight="bold" lengthAdjust="spacing" textLength="18" x="369.5" y="1106.0044">17</text><text fill="#000000" font-family="sans-serif" font-size="13" lengthAdjust="spacing" textLength="451" x="391.5" y="1106.0044">Move the queue compartment before other supported queue updates.</text><polygon fill="#334155" points="1069.5,1136.2031,1079.5,1140.2031,1069.5,1144.2031,1073.5,1140.2031" style="stroke:#334155;stroke-width:1.0;"/><line style="stroke:#334155;stroke-width:1.0;" x1="362.5" x2="1075.5" y1="1140.2031" y2="1140.2031"/><text fill="#000000" font-family="sans-serif" font-size="13" font-weight="bold" lengthAdjust="spacing" textLength="18" x="369.5" y="1135.1372">18</text><text fill="#000000" font-family="sans-serif" font-size="13" lengthAdjust="spacing" textLength="465" x="391.5" y="1135.1372">Treat empty customEncryptionKeyId as a no-op rather than key removal.</text><path d="M288.5,1155.2031 L358.5,1155.2031 L358.5,1162.3359 L348.5,1172.3359 L288.5,1172.3359 L288.5,1155.2031 " fill="#F8FAFC" style="stroke:#475569;stroke-width:1.5;"/><rect fill="none" height="46.2656" style="stroke:#475569;stroke-width:1.5;" width="821" x="288.5" y="1155.2031"/><text fill="#000000" font-family="sans-serif" font-size="13" font-weight="bold" lengthAdjust="spacing" textLength="25" x="303.5" y="1168.27">opt</text><text fill="#000000" font-family="sans-serif" font-size="11" font-weight="bold" lengthAdjust="spacing" textLength="258" x="373.5" y="1167.4136">[supported drift or collection diff exists]</text><polygon fill="#334155" points="1069.5,1189.4688,1079.5,1193.4688,1069.5,1197.4688,1073.5,1193.4688" style="stroke:#334155;stroke-width:1.0;"/><line style="stroke:#334155;stroke-width:1.0;" x1="362.5" x2="1075.5" y1="1193.4688" y2="1193.4688"/><text fill="#000000" font-family="sans-serif" font-size="13" font-weight="bold" lengthAdjust="spacing" textLength="18" x="369.5" y="1188.4028">19</text><text fill="#000000" font-family="sans-serif" font-size="13" lengthAdjust="spacing" textLength="277" x="391.5" y="1188.4028">apply the supported in-place mutation path</text><polygon fill="#334155" points="1153.5,1225.6016,1163.5,1229.6016,1153.5,1233.6016,1157.5,1229.6016" style="stroke:#334155;stroke-width:1.0;"/><line style="stroke:#334155;stroke-width:1.0;" x1="362.5" x2="1159.5" y1="1229.6016" y2="1229.6016"/><text fill="#000000" font-family="sans-serif" font-size="13" font-weight="bold" lengthAdjust="spacing" textLength="18" x="369.5" y="1224.5356">20</text><text fill="#000000" font-family="sans-serif" font-size="13" lengthAdjust="spacing" textLength="351" x="391.5" y="1224.5356">upsert the owned Secret for the usable active resource</text><path d="M30,1244.6016 L94,1244.6016 L94,1251.7344 L84,1261.7344 L30,1261.7344 L30,1244.6016 " fill="#F8FAFC" style="stroke:#475569;stroke-width:1.5;"/><rect fill="none" height="46.2656" style="stroke:#475569;stroke-width:1.5;" width="406.5" x="30" y="1244.6016"/><text fill="#000000" font-family="sans-serif" font-size="13" font-weight="bold" lengthAdjust="spacing" textLength="19" x="45" y="1257.6685">alt</text><text fill="#000000" font-family="sans-serif" font-size="11" font-weight="bold" lengthAdjust="spacing" textLength="116" x="109" y="1256.812">[Secret sync fails]</text><polygon fill="#334155" points="87.5,1278.8672,77.5,1282.8672,87.5,1286.8672,83.5,1282.8672" style="stroke:#334155;stroke-width:1.0;"/><line style="stroke:#334155;stroke-width:1.0;stroke-dasharray:2.0,2.0;" x1="81.5" x2="361.5" y1="1282.8672" y2="1282.8672"/><text fill="#000000" font-family="sans-serif" font-size="13" font-weight="bold" lengthAdjust="spacing" textLength="18" x="93.5" y="1277.8013">21</text><text fill="#000000" font-family="sans-serif" font-size="13" lengthAdjust="spacing" textLength="150" x="115.5" y="1277.8013">block success and retry</text><polygon fill="#334155" points="87.5,1322,77.5,1326,87.5,1330,83.5,1326" style="stroke:#334155;stroke-width:1.0;"/><line style="stroke:#334155;stroke-width:1.0;stroke-dasharray:2.0,2.0;" x1="81.5" x2="361.5" y1="1326" y2="1326"/><text fill="#000000" font-family="sans-serif" font-size="13" font-weight="bold" lengthAdjust="spacing" textLength="18" x="93.5" y="1320.9341">22</text><text fill="#000000" font-family="sans-serif" font-size="13" lengthAdjust="spacing" textLength="169" x="115.5" y="1320.9341">successful active reconcile</text><path d="M51,1346 L51,1461 L1105,1461 L1105,1356 L1095,1346 L51,1346 " fill="#FEFFDD" style="stroke:#181818;stroke-width:0.5;"/><path d="M1095,1346 L1095,1356 L1105,1356 L1095,1346 " fill="#FEFFDD" style="stroke:#181818;stroke-width:0.5;"/><text fill="#000000" font-family="sans-serif" font-size="13" lengthAdjust="spacing" textLength="105" x="57" y="1363.0669">Boundary notes:</text><text fill="#000000" font-family="sans-serif" font-size="13" lengthAdjust="spacing" textLength="346" x="57" y="1378.1997">- The create work-request ID is not persisted or polled.</text><text fill="#000000" font-family="sans-serif" font-size="13" lengthAdjust="spacing" textLength="108" x="57" y="1393.3325">Sequence notes:</text><text fill="#000000" font-family="sans-serif" font-size="13" lengthAdjust="spacing" textLength="469" x="57" y="1408.4653">- The first name-resolved bind records the OCID and defers UpdateQueue</text><text fill="#000000" font-family="sans-serif" font-size="13" lengthAdjust="spacing" textLength="137" x="73" y="1423.5981">until a later reconcile.</text><text fill="#000000" font-family="sans-serif" font-size="13" lengthAdjust="spacing" textLength="166" x="57" y="1438.731">Controller-local invariants:</text><text fill="#000000" font-family="sans-serif" font-size="13" lengthAdjust="spacing" textLength="229" x="57" y="1453.8638">- StatusPresentUsesStatusInvariant</text><!--SRC=[bLTjRnit3Fv-luB8liv1jxmqpO01ZcCNGT8kIz8V8EjuZcQTT9LqIQ_3_lj8wTxin4vRe0qgKkJ3X-IZIr118_mrkuA_QwmHxb1Q8nMTtUFN6et4JDJ1chfSeilyMfbAE562VnIvVLPc1ONG7aUM2o7NAsThay-ijWv-MSG_8u-fS_QvDHuT7VzsSZ8ovbY8MeS7_1QcMgrCYIQ0nYACaxVGuDyCu5QueAIgX0alKvyjfelPbfDrERhMuVZzoSdf1tAuKGNUA8CRrW_7qwEBix5rHsq07-cqUZrqCks4DfN1kXVc-Rl5xujvRnu7VhTuVtewp_xB19lWO6PDS5PhT0SWF0p_pQgXQZYuH_UaYBDFmeXLwzkUjKTPBe9O2ezmG0CH7UZdwFIwfY4m6D33z3OvN9_vB1jImkJFhQ3duFgHoj4hXpdu2YK8auDMJmW-Y53xRFCQ1wBOV5laCBjhlUAjGXcXrNTouaFCCcQkWXjhr_I3FPRAvCITq0628sef9p65tofDT0IkwfAC7BgXK-M39s-0bn38ynnMI64U4MJj74-ZGszhHrGk6rWR-sn0vNIk2aKS0Y3j0nYRiYWFIsuhD1ZsvT04eW_iENAkVAL50qQK66zoDH4iRrsFeU3eqVvQx4XXXSvpUAw1x-aduYEXCntxVBq3_hD9OW6Is0mOSx2QT5T_75aAy3gmc9p_vRyP4v6ZfZcaDAG4dgwHFKt1PJJiezhNop8DGHjbdpEDTg5ScJoLDV2imYDyn93aigQswmXVaqJ8HjAKKyilvpVpX_ab3rr7UkIHJCQ6HETXjeUOL4MyJFD5hDmZyHD0586y1kWW4px1s0xxCTcuGvY48MPyBILYxlUtn65fdrBcVi-6wTWAMGYbTyMZW8CkSDmWgAiRSUEkai4rsstcN5nbN72cBNg9fUPclPdfQ-mD_sIvUIKQuqwQG7IM3EVjiBM917fVrBg_DX8tQZAzMwya8vbccUDQQz-MqCwgKqM0Hx9eMhV8mMTBbwW1RWlEhwp4BT5rLLd7gr9NEUVmjIk4nFFMFkcautEd77psfBnQAgr2SsNk6NG_21C8gaHRXvU6d1Jo1WDL6yUTff8gSSsCvZVqJeL3B2pjI12hyLLgCs7SE3JMJB2iGaDQweCjvqQwfkBPlSRcgbEOE_m7PO0bHqKeQoPoA8ucWSNMcXukvCnZDqAyOQbiMuNOjOukQhSgEToItwB8FRKdftWoASWFZV4O6_SvuYCuen7UhIP997aeV6FaexF6rluFq8BNEhu119BV6ocqzjn86OUXbLKMHb8xUX5j0HL1OfKUn1EUhLjtcdYu3yYdRiVJgaXRyhT2_DPgIxDafGUs9oyvfedpUsC_C1ROqsR-RX3Kfecjm8cO9z0Im1gR93z27_OD712aZX4_adiXenhdgYZ6B_XEKAAgT1Ch7W8gCw4raTYt42f2yqOVeqZMbKSNNifpqGf-slDkypVUGfRdrfj7u6SaTAcjN4EhGZkryyqm8ndh0ROYbjxNGOE6Qwt-NF3B9LmJbyppKaxWONF-9ktyGVhwuVUkVURJ2lBOOdpzkjymjeFHWqRN-Rjdqd-ky1TTnEbet_jjO0v8Q2WyV8cJ6MMgPJEzpQ9Thhv6pZpKDI5EISQLUH9EqNTo2-C-VdpSKdfQYIyUVJguwjooNcZ-1m00]--></g></svg>