<?xml version="1.0" encoding="UTF-8" standalone="no"?><svg xmlns="http://www.w3.org/2000/svg" xmlns:xlink="http://www.w3.org/1999/xlink" contentStyleType="text/css" height="711px" preserveAspectRatio="none" style="width:1124px;height:711px;background:#FFFFFF;" version="1.1" viewBox="0 0 1124 711" width="1124px" zoomAndPan="magnify"><defs/><g><text fill="#000000" font-family="sans-serif" font-size="14" font-weight="bold" lengthAdjust="spacing" textLength="217" x="446.75" y="22.9951">OCI Queue Reconcile Model</text><ellipse cx="815.5" cy="53.2969" fill="#222222" rx="10" ry="10" style="stroke:none;stroke-width:1.0;"/><g id="Ready"><rect fill="#F1F1F1" height="50.2656" rx="12.5" ry="12.5" style="stroke:#181818;stroke-width:0.5;" width="113" x="7" y="143.7969"/><line style="stroke:#181818;stroke-width:0.5;" x1="7" x2="120" y1="170.0938" y2="170.0938"/><text fill="#000000" font-family="sans-serif" font-size="14" lengthAdjust="spacing" textLength="43" x="42" y="161.792">Ready</text><text fill="#000000" font-family="sans-serif" font-size="12" lengthAdjust="spacing" textLength="93" x="12" y="186.2324">secret present</text></g><g id="Retryable"><rect fill="#F1F1F1" height="50.2656" rx="12.5" ry="12.5" style="stroke:#181818;stroke-width:0.5;" width="130" x="283.5" y="274.2969"/><line style="stroke:#181818;stroke-width:0.5;" x1="283.5" x2="413.5" y1="300.5938" y2="300.5938"/><text fill="#000000" font-family="sans-serif" font-size="14" lengthAdjust="spacing" textLength="65" x="316" y="292.292">Retryable</text><text fill="#000000" font-family="sans-serif" font-size="12" lengthAdjust="spacing" textLength="110" x="288.5" y="316.7324">requeue required</text></g><g id="Failed"><rect fill="#F1F1F1" height="50" rx="12.5" ry="12.5" style="stroke:#181818;stroke-width:0.5;" width="60" x="389.5" y="401.2969"/><line style="stroke:#181818;stroke-width:0.5;" x1="389.5" x2="449.5" y1="427.5938" y2="427.5938"/><text fill="#000000" font-family="sans-serif" font-size="14" lengthAdjust="spacing" textLength="40" x="399.5" y="419.292">Failed</text></g><g id="Deleting"><rect fill="#F1F1F1" height="50" rx="12.5" ry="12.5" style="stroke:#181818;stroke-width:0.5;" width="78" x="204.5" y="528.2969"/><line style="stroke:#181818;stroke-width:0.5;" x1="204.5" x2="282.5" y1="554.5938" y2="554.5938"/><text fill="#000000" font-family="sans-serif" font-size="14" lengthAdjust="spacing" textLength="58" x="214.5" y="546.292">Deleting</text></g><g id="Deleted"><rect fill="#F1F1F1" height="50" rx="12.5" ry="12.5" style="stroke:#181818;stroke-width:0.5;" width="75" x="206" y="655.2969"/><line style="stroke:#181818;stroke-width:0.5;" x1="206" x2="281" y1="681.5938" y2="681.5938"/><text fill="#000000" font-family="sans-serif" font-size="14" lengthAdjust="spacing" textLength="55" x="216" y="673.292">Deleted</text></g><g id="elem_GMN19"><path d="M392,141.2969 L392,164.7969 L120.21,168.7969 L392,172.7969 L392,196.6953 A0,0 0 0 0 392,196.6953 L745,196.6953 A0,0 0 0 0 745,196.6953 L745,151.2969 L735,141.2969 L392,141.2969 A0,0 0 0 0 392,141.2969 " fill="#FEFFDD" style="stroke:#181818;stroke-width:0.5;"/><path d="M735,141.2969 L735,151.2969 L745,151.2969 L735,141.2969 " fill="#FEFFDD" style="stroke:#181818;stroke-width:0.5;"/><text fill="#000000" font-family="sans-serif" font-size="13" lengthAdjust="spacing" textLength="311" x="398" y="158.3638">retentionInSeconds drift returns a reconcile error</text><text fill="#000000" font-family="sans-serif" font-size="13" lengthAdjust="spacing" textLength="332" x="398" y="173.4966">and blocks compartment moves and UpdateQueue.</text><text fill="#000000" font-family="sans-serif" font-size="13" lengthAdjust="spacing" textLength="323" x="398" y="188.6294">Empty customEncryptionKeyId is treated as no-op.</text></g><!--link *start to Ready--><g id="link_*start_Ready"><path d="M805.72,55.7769 C734.23,66.5669 290.5,133.5369 125.34,158.4669 " fill="none" id="*start-to-Ready" style="stroke:#181818;stroke-width:1.0;"/><polygon fill="#181818" points="120.06,159.2569,129.5545,161.8749,125.0045,158.5138,128.3656,153.9637,120.06,159.2569" style="stroke:#181818;stroke-width:1.0;"/><text fill="#000000" font-family="sans-serif" font-size="13" lengthAdjust="spacing" textLength="45" x="551.5" y="106.3638">ACTIVE</text></g><!--link *start to Retryable--><g id="link_*start_Retryable"><path d="M814.95,63.6269 C812.91,89.1569 803.63,160.6669 762.5,197.2969 C712.11,242.1769 523.32,274.3769 418.95,289.1869 " fill="none" id="*start-to-Retryable" style="stroke:#181818;stroke-width:1.0;"/><polygon fill="#181818" points="413.74,289.9169,423.2109,292.6192,418.6909,289.2178,422.0923,284.6978,413.74,289.9169" style="stroke:#181818;stroke-width:1.0;"/><text fill="#000000" font-family="sans-serif" font-size="13" lengthAdjust="spacing" textLength="218" x="798.5" y="173.3638">CREATING / UPDATING / DELETING</text></g><!--link *start to Failed--><g id="link_*start_Failed"><path d="M825.81,54.7669 C861.18,56.9869 978.08,69.6369 1025.5,140.2969 C1039.62,161.3369 1039.27,176.0369 1025.5,197.2969 C895.6,397.9169 563.44,422.5669 454.61,425.1569 " fill="none" id="*start-to-Failed" style="stroke:#181818;stroke-width:1.0;"/><polygon fill="#181818" points="449.6,425.2669,458.6782,429.0861,454.599,425.1669,458.5182,421.0877,449.6,425.2669" style="stroke:#181818;stroke-width:1.0;"/><text fill="#000000" font-family="sans-serif" font-size="13" lengthAdjust="spacing" textLength="114" x="1002.5" y="240.3638">FAILED / DELETED</text></g><!--link Ready to Ready--><g id="link_Ready_Ready"><path d="M120.24,156.4269 C139.51,156.3569 155,160.4869 155,168.7969 C155,176.3269 142.28,180.4269 125.55,181.0769 " fill="none" id="Ready-to-Ready" style="stroke:#181818;stroke-width:1.0;"/><polygon fill="#181818" points="120.24,181.1669,129.3072,185.012,125.2393,181.0812,129.1701,177.0132,120.24,181.1669" style="stroke:#181818;stroke-width:1.0;"/><text fill="#000000" font-family="sans-serif" font-size="13" lengthAdjust="spacing" textLength="143" x="193" y="158.3638">supported drift update</text><text fill="#000000" font-family="sans-serif" font-size="13" lengthAdjust="spacing" textLength="207" x="161" y="173.4966">(displayName, visibility, timeout,</text><text fill="#000000" font-family="sans-serif" font-size="13" lengthAdjust="spacing" textLength="190" x="169.5" y="188.6294">DLQ count, tags, custom key)</text></g><!--link Ready to Retryable--><g id="link_Ready_Retryable"><path d="M75.37,193.8369 C84.81,210.4869 99.57,231.8269 118.5,244.2969 C166.08,275.6569 229.76,288.8869 278.05,294.4169 " fill="none" id="Ready-to-Retryable" style="stroke:#181818;stroke-width:1.0;"/><polygon fill="#181818" points="283.27,294.9969,274.7574,290.0436,278.2995,294.4541,273.889,297.9963,283.27,294.9969" style="stroke:#181818;stroke-width:1.0;"/><text fill="#000000" font-family="sans-serif" font-size="13" lengthAdjust="spacing" textLength="185" x="119.5" y="240.3638">OCI enters nonterminal state</text></g><!--link Retryable to Ready--><g id="link_Retryable_Ready"><path d="M341,274.0869 C334.94,258.4569 324.85,238.9469 309.5,227.2969 C256.1,186.7869 178.79,174.1469 125.15,170.5469 " fill="none" id="Retryable-to-Ready" style="stroke:#181818;stroke-width:1.0;"/><polygon fill="#181818" points="120.03,170.2269,128.7613,174.7836,125.0202,170.5405,129.2632,166.7994,120.03,170.2269" style="stroke:#181818;stroke-width:1.0;"/><text fill="#000000" font-family="sans-serif" font-size="13" lengthAdjust="spacing" textLength="162" x="326.5" y="240.3638">lifecycle becomes ACTIVE</text></g><!--link Retryable to Failed--><g id="link_Retryable_Failed"><path d="M362.19,324.3969 C373.93,345.0669 390.86,374.8669 403.27,396.7269 " fill="none" id="Retryable-to-Failed" style="stroke:#181818;stroke-width:1.0;"/><polygon fill="#181818" points="405.85,401.2669,404.8751,391.4664,403.377,396.9213,397.9221,395.4232,405.85,401.2669" style="stroke:#181818;stroke-width:1.0;"/><text fill="#000000" font-family="sans-serif" font-size="13" lengthAdjust="spacing" textLength="240" x="388.5" y="367.3638">lifecycle becomes FAILED or DELETED</text></g><!--link Ready to Deleting--><g id="link_Ready_Deleting"><path d="M72.26,193.8269 C77.77,208.5269 85.19,227.6469 92.5,244.2969 C138.38,348.8469 200.23,469.5369 228.4,523.5669 " fill="none" id="Ready-to-Deleting" style="stroke:#181818;stroke-width:1.0;"/><polygon fill="#181818" points="230.85,528.2669,230.2267,518.4378,228.5342,523.8355,223.1365,522.143,230.85,528.2669" style="stroke:#181818;stroke-width:1.0;"/><text fill="#000000" font-family="sans-serif" font-size="13" lengthAdjust="spacing" textLength="109" x="152.5" y="367.3638">delete requested</text></g><!--link Retryable to Deleting--><g id="link_Retryable_Deleting"><path d="M319.99,324.6569 C300.07,343.4369 274.75,371.2169 261.5,401.2969 C244.1,440.8069 241.58,491.4669 242.04,522.8969 " fill="none" id="Retryable-to-Deleting" style="stroke:#181818;stroke-width:1.0;"/><polygon fill="#181818" points="242.14,528.1569,245.9592,519.0787,242.04,523.1579,237.9608,519.2387,242.14,528.1569" style="stroke:#181818;stroke-width:1.0;"/><text fill="#000000" font-family="sans-serif" font-size="13" lengthAdjust="spacing" textLength="109" x="262.5" y="430.8638">delete requested</text></g><!--link Failed to Deleting--><g id="link_Failed_Deleting"><path d="M389.24,448.7869 C359.52,469.8969 314.06,502.1769 281.83,525.0769 " fill="none" id="Failed-to-Deleting" style="stroke:#181818;stroke-width:1.0;"/><polygon fill="#181818" points="277.57,528.0969,287.2244,526.1495,281.6473,525.2028,282.5939,519.6257,277.57,528.0969" style="stroke:#181818;stroke-width:1.0;"/><text fill="#000000" font-family="sans-serif" font-size="13" lengthAdjust="spacing" textLength="109" x="343.5" y="494.3638">delete requested</text></g><!--link Deleting to Deleted--><g id="link_Deleting_Deleted"><path d="M243.5,578.3969 C243.5,598.8869 243.5,628.3769 243.5,650.1769 " fill="none" id="Deleting-to-Deleted" style="stroke:#181818;stroke-width:1.0;"/><polygon fill="#181818" points="243.5,655.2669,247.5,646.2669,243.5,650.2669,239.5,646.2669,243.5,655.2669" style="stroke:#181818;stroke-width:1.0;"/><text fill="#000000" font-family="sans-serif" font-size="13" lengthAdjust="spacing" textLength="210" x="244.5" y="621.3638">resource gone, finalizer removed</text></g><!--SRC=[XL9DRnGn3BtFh_0Hq6wvzu2qsfbMeow5bfOBvP1Dl4lKoGUEKodyUfpfpdGA4fnYsSz-ByzcomF2fsqFDnapmYtguBMLtCTWS6YQR- - -mthzGGhA53Y7pVQk_zejqan5xGL_3jlRRdFNNr_2UxZ_t4vXs-sw6iuj5qh66y5VRFfTrqwGhcsQYIIX9cI8X0azDqiImf-ZqFfQGZCrBJMc76CW5X93zi2Ger6C3_wDiIaEgbmhXojuiidkxM2vh82jmv1vzU3RtGtea3rBKXtJ2dHE71myOddxYkf5KdLFP28byA6-pderG68XNMXVAXpi0NNHajsBuGxJvEjh-6pLt_YJUO5czrx4jJWWMt-KHbF3PxSmYID_4FmBUIB_7sokpS1HiQmkPD88n-35x4ErnFv2ae8BJtLlFjGvzlY38HoUdMb0oYnUsk1x_wNUeacd9KeXaq-W99fk58a2IPFo1lP3q8z9TkUY8dOo12fH6eltumMC9tuc-Cv5BgVDTbvJYPNn2ajlm2PWGbL_eUf2ro6UDIWpgjxcDm00]--></g></svg>