<?xml version="1.0" encoding="UTF-8" standalone="no"?><svg xmlns="http://www.w3.org/2000/svg" xmlns:xlink="http://www.w3.org/1999/xlink" contentStyleType="text/css" height="704px" preserveAspectRatio="none" style="width:780px;height:704px;background:#FFFFFF;" version="1.1" viewBox="0 0 780 704" width="780px" zoomAndPan="magnify"><defs/><g><text fill="#000000" font-family="sans-serif" font-size="14" font-weight="bold" lengthAdjust="spacing" textLength="217" x="274.92" y="22.9951">OCI Queue Reconcile Model</text><ellipse cx="444.84" cy="53.2969" fill="#222222" rx="10" ry="10" style="stroke:none;stroke-width:1.0;"/><g id="Ready"><rect fill="#F1F1F1" height="50.2656" rx="12.5" ry="12.5" style="stroke:#181818;stroke-width:0.5;" width="113" x="88.34" y="140.2969"/><line style="stroke:#181818;stroke-width:0.5;" x1="88.34" x2="201.34" y1="166.5938" y2="166.5938"/><text fill="#000000" font-family="sans-serif" font-size="14" lengthAdjust="spacing" textLength="43" x="123.34" y="158.292">Ready</text><text fill="#000000" font-family="sans-serif" font-size="12" lengthAdjust="spacing" textLength="93" x="93.34" y="182.7324">secret present</text></g><g id="Retryable"><rect fill="#F1F1F1" height="50.2656" rx="12.5" ry="12.5" style="stroke:#181818;stroke-width:0.5;" width="130" x="192.84" y="267.2969"/><line style="stroke:#181818;stroke-width:0.5;" x1="192.84" x2="322.84" y1="293.5938" y2="293.5938"/><text fill="#000000" font-family="sans-serif" font-size="14" lengthAdjust="spacing" textLength="65" x="225.34" y="285.292">Retryable</text><text fill="#000000" font-family="sans-serif" font-size="12" lengthAdjust="spacing" textLength="110" x="197.84" y="309.7324">requeue required</text></g><g id="Failed"><rect fill="#F1F1F1" height="50" rx="12.5" ry="12.5" style="stroke:#181818;stroke-width:0.5;" width="60" x="298.84" y="394.2969"/><line style="stroke:#181818;stroke-width:0.5;" x1="298.84" x2="358.84" y1="420.5938" y2="420.5938"/><text fill="#000000" font-family="sans-serif" font-size="14" lengthAdjust="spacing" textLength="40" x="308.84" y="412.292">Failed</text></g><g id="Deleting"><rect fill="#F1F1F1" height="50" rx="12.5" ry="12.5" style="stroke:#181818;stroke-width:0.5;" width="78" x="113.84" y="521.2969"/><line style="stroke:#181818;stroke-width:0.5;" x1="113.84" x2="191.84" y1="547.5938" y2="547.5938"/><text fill="#000000" font-family="sans-serif" font-size="14" lengthAdjust="spacing" textLength="58" x="123.84" y="539.292">Deleting</text></g><g id="Deleted"><rect fill="#F1F1F1" height="50" rx="12.5" ry="12.5" style="stroke:#181818;stroke-width:0.5;" width="75" x="115.34" y="648.2969"/><line style="stroke:#181818;stroke-width:0.5;" x1="115.34" x2="190.34" y1="674.5938" y2="674.5938"/><text fill="#000000" font-family="sans-serif" font-size="14" lengthAdjust="spacing" textLength="55" x="125.34" y="666.292">Deleted</text></g><!--link *start to Ready--><g id="link_*start_Ready"><path d="M435.53,57.7069 C401.37,70.2369 280.99,114.3769 206.28,141.7669 " fill="none" id="*start-to-Ready" style="stroke:#181818;stroke-width:1.0;"/><polygon fill="#181818" points="201.43,143.5469,211.2564,144.2111,206.1256,141.829,208.5078,136.6981,201.43,143.5469" style="stroke:#181818;stroke-width:1.0;"/><text fill="#000000" font-family="sans-serif" font-size="13" lengthAdjust="spacing" textLength="45" x="330.84" y="106.3638">ACTIVE</text></g><!--link *start to Retryable--><g id="link_*start_Retryable"><path d="M445.49,63.6369 C447.03,93.0769 447.75,185.0969 401.84,237.2969 C382.91,258.8169 354.55,271.7769 327.98,279.5869 " fill="none" id="*start-to-Retryable" style="stroke:#181818;stroke-width:1.0;"/><polygon fill="#181818" points="323.05,280.9769,332.7977,282.3849,327.8624,279.6203,330.6271,274.685,323.05,280.9769" style="stroke:#181818;stroke-width:1.0;"/><text fill="#000000" font-family="sans-serif" font-size="13" lengthAdjust="spacing" textLength="218" x="441.84" y="169.8638">CREATING / UPDATING / DELETING</text></g><!--link *start to Failed--><g id="link_*start_Failed"><path d="M454.78,54.4769 C491.13,55.7169 617.4,65.4569 668.84,140.2969 C681.42,158.6069 675.53,169.1069 668.84,190.2969 C640.41,280.3669 624.73,310.8869 546.84,364.2969 C490.79,402.7269 410.02,413.8569 364.16,417.0469 " fill="none" id="*start-to-Failed" style="stroke:#181818;stroke-width:1.0;"/><polygon fill="#181818" points="359.02,417.3869,368.2636,420.7864,364.0092,417.0581,367.7375,412.8037,359.02,417.3869" style="stroke:#181818;stroke-width:1.0;"/><text fill="#000000" font-family="sans-serif" font-size="13" lengthAdjust="spacing" textLength="114" x="658.84" y="233.3638">FAILED / DELETED</text></g><!--link Ready to Retryable--><g id="link_Ready_Retryable"><path d="M88.28,178.8269 C48.51,190.3169 6,209.7369 27.84,237.2969 C47.57,262.1969 127.62,276.7369 187.78,284.3269 " fill="none" id="Ready-to-Retryable" style="stroke:#181818;stroke-width:1.0;"/><polygon fill="#181818" points="192.81,284.9569,184.3702,279.8804,187.848,284.342,183.3864,287.8197,192.81,284.9569" style="stroke:#181818;stroke-width:1.0;"/><text fill="#000000" font-family="sans-serif" font-size="13" lengthAdjust="spacing" textLength="185" x="28.84" y="233.3638">OCI enters nonterminal state</text></g><!--link Retryable to Ready--><g id="link_Retryable_Ready"><path d="M247.88,267.2769 C241.08,252.6769 231.1,234.2369 218.84,220.2969 C210.12,210.3869 199.28,201.2269 188.61,193.3769 " fill="none" id="Retryable-to-Ready" style="stroke:#181818;stroke-width:1.0;"/><polygon fill="#181818" points="184.37,190.3169,189.3121,198.836,188.4192,193.2501,194.0052,192.3572,184.37,190.3169" style="stroke:#181818;stroke-width:1.0;"/><text fill="#000000" font-family="sans-serif" font-size="13" lengthAdjust="spacing" textLength="162" x="230.84" y="233.3638">lifecycle becomes ACTIVE</text></g><!--link Retryable to Failed--><g id="link_Retryable_Failed"><path d="M271.53,317.3969 C283.26,338.0669 300.2,367.8669 312.61,389.7269 " fill="none" id="Retryable-to-Failed" style="stroke:#181818;stroke-width:1.0;"/><polygon fill="#181818" points="315.19,394.2669,314.2151,384.4664,312.717,389.9213,307.2621,388.4232,315.19,394.2669" style="stroke:#181818;stroke-width:1.0;"/><text fill="#000000" font-family="sans-serif" font-size="13" lengthAdjust="spacing" textLength="240" x="297.84" y="360.3638">lifecycle becomes FAILED or DELETED</text></g><!--link Ready to Deleting--><g id="link_Ready_Deleting"><path d="M88.21,174.9869 C61.19,182.2969 31.25,195.6969 14.84,220.2969 C10.64,226.5769 13.28,229.9069 14.84,237.2969 C37.87,346.5969 103.13,463.9169 134.95,516.6969 " fill="none" id="Ready-to-Deleting" style="stroke:#181818;stroke-width:1.0;"/><polygon fill="#181818" points="137.55,520.9869,136.3256,511.2144,134.967,516.7057,129.4757,515.3472,137.55,520.9869" style="stroke:#181818;stroke-width:1.0;"/><text fill="#000000" font-family="sans-serif" font-size="13" lengthAdjust="spacing" textLength="109" x="56.84" y="360.3638">delete requested</text></g><!--link Retryable to Deleting--><g id="link_Retryable_Deleting"><path d="M229.32,317.6569 C209.4,336.4369 184.08,364.2169 170.84,394.2969 C153.43,433.8069 150.92,484.4669 151.37,515.8969 " fill="none" id="Retryable-to-Deleting" style="stroke:#181818;stroke-width:1.0;"/><polygon fill="#181818" points="151.48,521.1569,155.2992,512.0787,151.38,516.1579,147.3008,512.2387,151.48,521.1569" style="stroke:#181818;stroke-width:1.0;"/><text fill="#000000" font-family="sans-serif" font-size="13" lengthAdjust="spacing" textLength="109" x="171.84" y="423.8638">delete requested</text></g><!--link Failed to Deleting--><g id="link_Failed_Deleting"><path d="M298.58,441.7869 C268.86,462.8969 223.4,495.1769 191.16,518.0769 " fill="none" id="Failed-to-Deleting" style="stroke:#181818;stroke-width:1.0;"/><polygon fill="#181818" points="186.9,521.0969,196.5589,519.1719,190.984,518.2123,191.9437,512.6375,186.9,521.0969" style="stroke:#181818;stroke-width:1.0;"/><text fill="#000000" font-family="sans-serif" font-size="13" lengthAdjust="spacing" textLength="109" x="251.84" y="487.3638">delete requested</text></g><!--link Deleting to Deleted--><g id="link_Deleting_Deleted"><path d="M152.84,571.3969 C152.84,591.8869 152.84,621.3769 152.84,643.1769 " fill="none" id="Deleting-to-Deleted" style="stroke:#181818;stroke-width:1.0;"/><polygon fill="#181818" points="152.84,648.2669,156.84,639.2669,152.84,643.2669,148.84,639.2669,152.84,648.2669" style="stroke:#181818;stroke-width:1.0;"/><text fill="#000000" font-family="sans-serif" font-size="13" lengthAdjust="spacing" textLength="210" x="153.84" y="614.3638">resource gone, finalizer removed</text></g><!--SRC=[XL3BJiCm4BpxA_QCgBZtW1J5RXMfvL4LBeX3wamhIuaDjeCKlfvrgKDQ93ZjQdTcPsQZYItelgpeiKSFsa0xgmtFrgv1AyJBrIlDPhUyg9k1vbIKs-fPJSRH3_MEyNCgDwhOLdTBkg6d1vbRgLOgjIDbKVFvXl6BebefcI5A2f550hH7f3UF01l5LCJZ_MWqLUFHPDAbcHI9kV21h4krCxPkASGwOd9m6gqrU-X1ytJ7N-WGSjXp-EZ_D_wKoFanqeyvYHRHs0CJczH-Hq28dE5Su2_aIVm_sBWRWKV7_4_NUmqwE8jhsgUNc4zuNdJkWtbV]--></g></svg>