<?xml version="1.0" encoding="UTF-8" standalone="no"?><svg xmlns="http://www.w3.org/2000/svg" xmlns:xlink="http://www.w3.org/1999/xlink" contentStyleType="text/css" height="1483px" preserveAspectRatio="none" style="width:1652px;height:1483px;background:#FFFFFF;" version="1.1" viewBox="0 0 1652 1483" width="1652px" zoomAndPan="magnify"><defs/><g><text fill="#000000" font-family="sans-serif" font-size="14" font-weight="bold" lengthAdjust="spacing" textLength="308" x="670.875" y="32.9951">Open Search Cluster Reconcile Activity</text><ellipse cx="629.625" cy="57.2969" fill="#0F766E" rx="10" ry="10" style="stroke:#222222;stroke-width:1.0;"/><rect fill="none" height="254.2031" style="stroke:#000000;stroke-width:1.5;" width="686" x="307.125" y="77.2969"/><path d="M440.125,77.2969 L440.125,86.5938 L430.125,96.5938 L307.125,96.5938 " fill="none" style="stroke:#000000;stroke-width:1.5;"/><text fill="#000000" font-family="sans-serif" font-size="14" lengthAdjust="spacing" textLength="123" x="310.125" y="91.292">Observe and Bind</text><rect fill="#F8FAFC" height="33.9688" rx="12.5" ry="12.5" style="stroke:#475569;stroke-width:0.5;" width="304" x="477.625" y="113.5938"/><text fill="#0F172A" font-family="sans-serif" font-size="12" lengthAdjust="spacing" textLength="284" x="487.625" y="134.7324">Read CR spec, status OCID, and delete intent</text><polygon fill="#E2E8F0" points="529.625,167.5625,729.625,167.5625,741.625,179.5625,729.625,191.5625,529.625,191.5625,517.625,179.5625,529.625,167.5625" style="stroke:#475569;stroke-width:0.5;"/><text fill="#0F172A" font-family="sans-serif" font-size="11" lengthAdjust="spacing" textLength="200" x="529.625" y="183.3706">"Tracked or explicit OCID present?"</text><text fill="#000000" font-family="sans-serif" font-size="11" lengthAdjust="spacing" textLength="20" x="497.625" y="176.9683">yes</text><text fill="#000000" font-family="sans-serif" font-size="11" lengthAdjust="spacing" textLength="14" x="741.625" y="176.9683">no</text><rect fill="#F8FAFC" height="33.9688" rx="12.5" ry="12.5" style="stroke:#475569;stroke-width:0.5;" width="272" x="327.125" y="201.5625"/><text fill="#0F172A" font-family="sans-serif" font-size="12" lengthAdjust="spacing" textLength="252" x="337.125" y="222.7012">Get the OCI resource by known identifier</text><rect fill="#F8FAFC" height="33.9688" rx="12.5" ry="12.5" style="stroke:#475569;stroke-width:0.5;" width="328" x="632.125" y="201.5625"/><text fill="#0F172A" font-family="sans-serif" font-size="12" lengthAdjust="spacing" textLength="308" x="642.125" y="222.7012">Resolve an existing OCI resource by display name</text><rect fill="#F8FAFC" height="33.9688" rx="12.5" ry="12.5" style="stroke:#475569;stroke-width:0.5;" width="354" x="619.125" y="255.5313"/><text fill="#0F172A" font-family="sans-serif" font-size="12" lengthAdjust="spacing" textLength="334" x="629.125" y="276.6699">Persist the resolved or created OCID back into status</text><polygon fill="#E2E8F0" points="629.625,295.5,641.625,307.5,629.625,319.5,617.625,307.5,629.625,295.5" style="stroke:#475569;stroke-width:0.5;"/><path d="M1264.75,761.457 L1264.75,1119.5117 L1640.75,1119.5117 L1640.75,771.457 L1630.75,761.457 L1264.75,761.457 " fill="#FEFFDD" style="stroke:#181818;stroke-width:0.5;"/><path d="M1630.75,761.457 L1630.75,771.457 L1640.75,771.457 L1630.75,761.457 " fill="#FEFFDD" style="stroke:#181818;stroke-width:0.5;"/><text fill="#000000" font-family="sans-serif" font-size="13" lengthAdjust="spacing" textLength="69" x="1270.75" y="778.5239">Archetype:</text><text fill="#000000" font-family="sans-serif" font-size="13" lengthAdjust="spacing" textLength="138" x="1270.75" y="793.6567">- resolved-drift-delete</text><text fill="#000000" font-family="sans-serif" font-size="13" lengthAdjust="spacing" textLength="134" x="1270.75" y="808.7896">Retryable OCI states:</text><text fill="#000000" font-family="sans-serif" font-size="13" lengthAdjust="spacing" textLength="73" x="1270.75" y="823.9224">- CREATING</text><text fill="#000000" font-family="sans-serif" font-size="13" lengthAdjust="spacing" textLength="76" x="1270.75" y="839.0552">- UPDATING</text><text fill="#000000" font-family="sans-serif" font-size="13" lengthAdjust="spacing" textLength="113" x="1270.75" y="854.188">Active OCI states:</text><text fill="#000000" font-family="sans-serif" font-size="13" lengthAdjust="spacing" textLength="54" x="1270.75" y="869.3208">- ACTIVE</text><text fill="#000000" font-family="sans-serif" font-size="13" lengthAdjust="spacing" textLength="111" x="1270.75" y="884.4536">Failed OCI states:</text><text fill="#000000" font-family="sans-serif" font-size="13" lengthAdjust="spacing" textLength="53" x="1270.75" y="899.5864">- FAILED</text><text fill="#000000" font-family="sans-serif" font-size="13" lengthAdjust="spacing" textLength="67" x="1270.75" y="914.7192">- DELETED</text><text fill="#000000" font-family="sans-serif" font-size="13" lengthAdjust="spacing" textLength="102" x="1270.75" y="929.8521">Update surface:</text><text fill="#000000" font-family="sans-serif" font-size="13" lengthAdjust="spacing" textLength="81" x="1270.75" y="944.9849">- node count</text><text fill="#000000" font-family="sans-serif" font-size="13" lengthAdjust="spacing" textLength="81" x="1270.75" y="960.1177">- node sizing</text><text fill="#000000" font-family="sans-serif" font-size="13" lengthAdjust="spacing" textLength="114" x="1270.75" y="975.2505">- security settings</text><text fill="#000000" font-family="sans-serif" font-size="13" lengthAdjust="spacing" textLength="113" x="1270.75" y="990.3833">- software version</text><text fill="#000000" font-family="sans-serif" font-size="13" lengthAdjust="spacing" textLength="94" x="1270.75" y="1005.5161">- freeformTags</text><text fill="#000000" font-family="sans-serif" font-size="13" lengthAdjust="spacing" textLength="86" x="1270.75" y="1020.6489">- definedTags</text><text fill="#000000" font-family="sans-serif" font-size="13" lengthAdjust="spacing" textLength="139" x="1270.75" y="1035.7817">Reject before mutate:</text><text fill="#000000" font-family="sans-serif" font-size="13" lengthAdjust="spacing" textLength="180" x="1270.75" y="1050.9146">- immutable networking drift</text><text fill="#000000" font-family="sans-serif" font-size="13" lengthAdjust="spacing" textLength="183" x="1270.75" y="1066.0474">- immutable host-shape drift</text><text fill="#000000" font-family="sans-serif" font-size="13" lengthAdjust="spacing" textLength="105" x="1270.75" y="1081.1802">Boundary notes:</text><text fill="#000000" font-family="sans-serif" font-size="13" lengthAdjust="spacing" textLength="355" x="1270.75" y="1096.313">- Supported drift splits into immutable-reject, horizontal</text><text fill="#000000" font-family="sans-serif" font-size="13" lengthAdjust="spacing" textLength="334" x="1286.75" y="1111.4458">resize, vertical resize, and general update branches.</text><polygon fill="#E2E8F0" points="572.625,351.5,686.625,351.5,698.625,363.5,686.625,375.5,572.625,375.5,560.625,363.5,572.625,351.5" style="stroke:#475569;stroke-width:0.5;"/><text fill="#0F172A" font-family="sans-serif" font-size="11" lengthAdjust="spacing" textLength="114" x="572.625" y="367.3081">"Delete requested?"</text><text fill="#000000" font-family="sans-serif" font-size="11" lengthAdjust="spacing" textLength="20" x="540.625" y="360.9058">yes</text><text fill="#000000" font-family="sans-serif" font-size="11" lengthAdjust="spacing" textLength="14" x="698.625" y="360.9058">no</text><rect fill="none" height="220.2031" style="stroke:#000000;stroke-width:1.5;" width="593" x="11" y="385.5"/><path d="M67,385.5 L67,394.7969 L57,404.7969 L11,404.7969 " fill="none" style="stroke:#000000;stroke-width:1.5;"/><text fill="#000000" font-family="sans-serif" font-size="14" lengthAdjust="spacing" textLength="46" x="14" y="399.4951">Delete</text><rect fill="#F8FAFC" height="33.9688" rx="12.5" ry="12.5" style="stroke:#475569;stroke-width:0.5;" width="285" x="165" y="421.7969"/><text fill="#0F172A" font-family="sans-serif" font-size="12" lengthAdjust="spacing" textLength="265" x="175" y="442.9355">Submit OCI delete for Open Search Cluster</text><rect fill="#F8FAFC" height="33.9688" rx="12.5" ry="12.5" style="stroke:#475569;stroke-width:0.5;" width="573" x="21" y="490.7656"/><text fill="#0F172A" font-family="sans-serif" font-size="12" lengthAdjust="spacing" textLength="553" x="31" y="511.9043">Confirm deletion with GetOpenSearchCluster until the resource is DELETED or not found.</text><rect fill="#F8FAFC" height="33.9688" rx="12.5" ry="12.5" style="stroke:#475569;stroke-width:0.5;" width="338" x="138.5" y="559.7344"/><text fill="#0F172A" font-family="sans-serif" font-size="12" lengthAdjust="spacing" textLength="318" x="148.5" y="580.873">Remove the finalizer after OCI deletion is confirmed</text><ellipse cx="307.5" cy="651.7031" fill="none" rx="11" ry="11" style="stroke:#222222;stroke-width:1.0;"/><ellipse cx="307.5" cy="651.7031" fill="#222222" rx="6" ry="6" style="stroke:#111111;stroke-width:1.0;"/><rect fill="none" height="414.9648" style="stroke:#000000;stroke-width:1.5;" width="376" x="769.75" y="385.5"/><path d="M930.75,385.5 L930.75,394.7969 L920.75,404.7969 L769.75,404.7969 " fill="none" style="stroke:#000000;stroke-width:1.5;"/><text fill="#000000" font-family="sans-serif" font-size="14" lengthAdjust="spacing" textLength="151" x="772.75" y="399.4951">Lifecycle Classification</text><rect fill="#F8FAFC" height="33.9688" rx="12.5" ry="12.5" style="stroke:#475569;stroke-width:0.5;" width="268" x="817.75" y="470.1992"/><text fill="#0F172A" font-family="sans-serif" font-size="12" lengthAdjust="spacing" textLength="248" x="827.75" y="491.3379">Request requeue and keep the finalizer</text><ellipse cx="951.75" cy="550.168" fill="none" rx="11" ry="11" style="stroke:#222222;stroke-width:1.0;"/><ellipse cx="951.75" cy="550.168" fill="#222222" rx="6" ry="6" style="stroke:#111111;stroke-width:1.0;"/><polygon fill="#E2E8F0" points="871.75,421.7969,1031.75,421.7969,1043.75,433.7969,1031.75,445.7969,871.75,445.7969,859.75,433.7969,871.75,421.7969" style="stroke:#475569;stroke-width:0.5;"/><text fill="#000000" font-family="sans-serif" font-size="11" lengthAdjust="spacing" textLength="20" x="955.75" y="456.0073">yes</text><text fill="#0F172A" font-family="sans-serif" font-size="11" lengthAdjust="spacing" textLength="160" x="871.75" y="437.605">"OCI state in retryable set?"</text><rect fill="#F8FAFC" height="33.9688" rx="12.5" ry="12.5" style="stroke:#475569;stroke-width:0.5;" width="324" x="789.75" y="666.9727"/><text fill="#0F172A" font-family="sans-serif" font-size="12" lengthAdjust="spacing" textLength="304" x="799.75" y="688.1113">Return an unsuccessful terminal reconcile result</text><ellipse cx="951.75" cy="740.457" fill="none" rx="11" ry="11" style="stroke:#222222;stroke-width:1.0;"/><ellipse cx="951.75" cy="740.457" fill="#222222" rx="6" ry="6" style="stroke:#111111;stroke-width:1.0;"/><polygon fill="#E2E8F0" points="881.75,618.5703,1021.75,618.5703,1033.75,630.5703,1021.75,642.5703,881.75,642.5703,869.75,630.5703,881.75,618.5703" style="stroke:#475569;stroke-width:0.5;"/><text fill="#000000" font-family="sans-serif" font-size="11" lengthAdjust="spacing" textLength="20" x="955.75" y="652.7808">yes</text><text fill="#0F172A" font-family="sans-serif" font-size="11" lengthAdjust="spacing" textLength="140" x="881.75" y="634.3784">"OCI state in failed set?"</text><rect fill="none" height="629.8906" style="stroke:#000000;stroke-width:1.5;" width="630.75" x="624" y="835.4648"/><path d="M803,835.4648 L803,844.7617 L793,854.7617 L624,854.7617 " fill="none" style="stroke:#000000;stroke-width:1.5;"/><text fill="#000000" font-family="sans-serif" font-size="14" lengthAdjust="spacing" textLength="169" x="627" y="849.46">Ready and Drift Handling</text><rect fill="#F8FAFC" height="33.9688" rx="12.5" ry="12.5" style="stroke:#475569;stroke-width:0.5;" width="364" x="769.75" y="871.7617"/><text fill="#0F172A" font-family="sans-serif" font-size="12" lengthAdjust="spacing" textLength="344" x="779.75" y="892.9004">Compare live OCI state with the supported drift surface</text><rect fill="#F8FAFC" height="33.9688" rx="12.5" ry="12.5" style="stroke:#475569;stroke-width:0.5;" width="290" x="806.75" y="989.1328"/><text fill="#0F172A" font-family="sans-serif" font-size="12" lengthAdjust="spacing" textLength="270" x="816.75" y="1010.2715">Reject the change before any OCI mutation</text><ellipse cx="951.75" cy="1069.1016" fill="none" rx="11" ry="11" style="stroke:#222222;stroke-width:1.0;"/><ellipse cx="951.75" cy="1069.1016" fill="#222222" rx="6" ry="6" style="stroke:#111111;stroke-width:1.0;"/><polygon fill="#E2E8F0" points="827.25,940.7305,1076.25,940.7305,1088.25,952.7305,1076.25,964.7305,827.25,964.7305,815.25,952.7305,827.25,940.7305" style="stroke:#475569;stroke-width:0.5;"/><text fill="#000000" font-family="sans-serif" font-size="11" lengthAdjust="spacing" textLength="20" x="955.75" y="974.9409">yes</text><text fill="#0F172A" font-family="sans-serif" font-size="11" lengthAdjust="spacing" textLength="249" x="827.25" y="956.5386">"Unsupported or immutable drift detected?"</text><rect fill="#F8FAFC" height="33.9688" rx="12.5" ry="12.5" style="stroke:#475569;stroke-width:0.5;" width="512" x="695.75" y="1139.5117"/><text fill="#0F172A" font-family="sans-serif" font-size="12" lengthAdjust="spacing" textLength="492" x="705.75" y="1160.6504">Classify supported drift into horizontal resize, vertical resize, or general update</text><rect fill="#F8FAFC" height="33.9688" rx="12.5" ry="12.5" style="stroke:#475569;stroke-width:0.5;" width="586" x="658.75" y="1193.4805"/><text fill="#0F172A" font-family="sans-serif" font-size="12" lengthAdjust="spacing" textLength="566" x="668.75" y="1214.6191">Validate immutable networking and host-shape fields before any resize or general update.</text><rect fill="#F8FAFC" height="33.9688" rx="12.5" ry="12.5" style="stroke:#475569;stroke-width:0.5;" width="532" x="685.75" y="1247.4492"/><text fill="#0F172A" font-family="sans-serif" font-size="12" lengthAdjust="spacing" textLength="512" x="695.75" y="1268.5879">Keep the retained OCID authoritative across resize and general update branches.</text><polygon fill="#E2E8F0" points="874.25,1301.418,1029.25,1301.418,1041.25,1313.418,1029.25,1325.418,874.25,1325.418,862.25,1313.418,874.25,1301.418" style="stroke:#475569;stroke-width:0.5;"/><text fill="#0F172A" font-family="sans-serif" font-size="11" lengthAdjust="spacing" textLength="155" x="874.25" y="1317.2261">"Supported drift detected?"</text><text fill="#000000" font-family="sans-serif" font-size="11" lengthAdjust="spacing" textLength="20" x="842.25" y="1310.8237">yes</text><text fill="#000000" font-family="sans-serif" font-size="11" lengthAdjust="spacing" textLength="14" x="1041.25" y="1310.8237">no</text><rect fill="#F8FAFC" height="33.9688" rx="12.5" ry="12.5" style="stroke:#475569;stroke-width:0.5;" width="329" x="644" y="1335.418"/><text fill="#0F172A" font-family="sans-serif" font-size="12" lengthAdjust="spacing" textLength="309" x="654" y="1356.5566">Apply only the supported in-place update surface</text><rect fill="#F8FAFC" height="33.9688" rx="12.5" ry="12.5" style="stroke:#475569;stroke-width:0.5;" width="204" x="993" y="1335.418"/><text fill="#0F172A" font-family="sans-serif" font-size="12" lengthAdjust="spacing" textLength="184" x="1003" y="1356.5566">Skip the no-op mutation path</text><polygon fill="#E2E8F0" points="951.75,1375.3867,963.75,1387.3867,951.75,1399.3867,939.75,1387.3867,951.75,1375.3867" style="stroke:#475569;stroke-width:0.5;"/><rect fill="#F8FAFC" height="33.9688" rx="12.5" ry="12.5" style="stroke:#475569;stroke-width:0.5;" width="287" x="808.25" y="1419.3867"/><text fill="#0F172A" font-family="sans-serif" font-size="12" lengthAdjust="spacing" textLength="267" x="818.25" y="1440.5254">Return success for the usable active state</text><line style="stroke:#334155;stroke-width:1.0;" x1="796.125" x2="796.125" y1="235.5313" y2="255.5313"/><polygon fill="#334155" points="792.125,245.5313,796.125,255.5313,800.125,245.5313,796.125,249.5313" style="stroke:#334155;stroke-width:1.0;"/><line style="stroke:#334155;stroke-width:1.0;" x1="517.625" x2="463.125" y1="179.5625" y2="179.5625"/><line style="stroke:#334155;stroke-width:1.0;" x1="463.125" x2="463.125" y1="179.5625" y2="201.5625"/><polygon fill="#334155" points="459.125,191.5625,463.125,201.5625,467.125,191.5625,463.125,195.5625" style="stroke:#334155;stroke-width:1.0;"/><line style="stroke:#334155;stroke-width:1.0;" x1="741.625" x2="796.125" y1="179.5625" y2="179.5625"/><line style="stroke:#334155;stroke-width:1.0;" x1="796.125" x2="796.125" y1="179.5625" y2="201.5625"/><polygon fill="#334155" points="792.125,191.5625,796.125,201.5625,800.125,191.5625,796.125,195.5625" style="stroke:#334155;stroke-width:1.0;"/><line style="stroke:#334155;stroke-width:1.0;" x1="463.125" x2="463.125" y1="235.5313" y2="307.5"/><line style="stroke:#334155;stroke-width:1.0;" x1="463.125" x2="617.625" y1="307.5" y2="307.5"/><polygon fill="#334155" points="607.625,303.5,617.625,307.5,607.625,311.5,611.625,307.5" style="stroke:#334155;stroke-width:1.0;"/><line style="stroke:#334155;stroke-width:1.0;" x1="796.125" x2="796.125" y1="289.5" y2="307.5"/><line style="stroke:#334155;stroke-width:1.0;" x1="796.125" x2="641.625" y1="307.5" y2="307.5"/><polygon fill="#334155" points="651.625,303.5,641.625,307.5,651.625,311.5,647.625,307.5" style="stroke:#334155;stroke-width:1.0;"/><line style="stroke:#334155;stroke-width:1.0;" x1="629.625" x2="629.625" y1="147.5625" y2="167.5625"/><polygon fill="#334155" points="625.625,157.5625,629.625,167.5625,633.625,157.5625,629.625,161.5625" style="stroke:#334155;stroke-width:1.0;"/><line style="stroke:#334155;stroke-width:1.0;" x1="629.625" x2="629.625" y1="67.2969" y2="113.5938"/><polygon fill="#334155" points="625.625,103.5938,629.625,113.5938,633.625,103.5938,629.625,107.5938" style="stroke:#334155;stroke-width:1.0;"/><line style="stroke:#334155;stroke-width:1.0;" x1="307.5" x2="307.5" y1="455.7656" y2="490.7656"/><polygon fill="#334155" points="303.5,480.7656,307.5,490.7656,311.5,480.7656,307.5,484.7656" style="stroke:#334155;stroke-width:1.0;"/><line style="stroke:#334155;stroke-width:1.0;" x1="307.5" x2="307.5" y1="524.7344" y2="559.7344"/><polygon fill="#334155" points="303.5,549.7344,307.5,559.7344,311.5,549.7344,307.5,553.7344" style="stroke:#334155;stroke-width:1.0;"/><line style="stroke:#334155;stroke-width:1.0;" x1="307.5" x2="307.5" y1="593.7031" y2="640.7031"/><polygon fill="#334155" points="303.5,630.7031,307.5,640.7031,311.5,630.7031,307.5,634.7031" style="stroke:#334155;stroke-width:1.0;"/><line style="stroke:#334155;stroke-width:1.0;" x1="951.75" x2="951.75" y1="504.168" y2="539.168"/><polygon fill="#334155" points="947.75,529.168,951.75,539.168,955.75,529.168,951.75,533.168" style="stroke:#334155;stroke-width:1.0;"/><line style="stroke:#334155;stroke-width:1.0;" x1="951.75" x2="951.75" y1="445.7969" y2="470.1992"/><polygon fill="#334155" points="947.75,460.1992,951.75,470.1992,955.75,460.1992,951.75,464.1992" style="stroke:#334155;stroke-width:1.0;"/><line style="stroke:#334155;stroke-width:1.0;" x1="1043.75" x2="1095.75" y1="433.7969" y2="433.7969"/><polygon fill="#334155" points="1091.75,502.6836,1095.75,512.6836,1099.75,502.6836,1095.75,506.6836" style="stroke:#334155;stroke-width:1.0;"/><line style="stroke:#334155;stroke-width:1.0;" x1="1095.75" x2="1095.75" y1="433.7969" y2="591.5703"/><line style="stroke:#334155;stroke-width:1.0;" x1="1095.75" x2="951.75" y1="591.5703" y2="591.5703"/><line style="stroke:#334155;stroke-width:1.0;" x1="951.75" x2="951.75" y1="591.5703" y2="618.5703"/><polygon fill="#334155" points="947.75,608.5703,951.75,618.5703,955.75,608.5703,951.75,612.5703" style="stroke:#334155;stroke-width:1.0;"/><line style="stroke:#334155;stroke-width:1.0;" x1="951.75" x2="951.75" y1="700.9414" y2="729.457"/><polygon fill="#334155" points="947.75,719.457,951.75,729.457,955.75,719.457,951.75,723.457" style="stroke:#334155;stroke-width:1.0;"/><line style="stroke:#334155;stroke-width:1.0;" x1="951.75" x2="951.75" y1="642.5703" y2="666.9727"/><polygon fill="#334155" points="947.75,656.9727,951.75,666.9727,955.75,656.9727,951.75,660.9727" style="stroke:#334155;stroke-width:1.0;"/><line style="stroke:#334155;stroke-width:1.0;" x1="1033.75" x2="1123.75" y1="630.5703" y2="630.5703"/><polygon fill="#334155" points="1119.75,699.457,1123.75,709.457,1127.75,699.457,1123.75,703.457" style="stroke:#334155;stroke-width:1.0;"/><line style="stroke:#334155;stroke-width:1.0;" x1="1123.75" x2="1123.75" y1="630.5703" y2="780.4648"/><line style="stroke:#334155;stroke-width:1.0;" x1="1123.75" x2="951.75" y1="780.4648" y2="780.4648"/><line style="stroke:#334155;stroke-width:1.0;" x1="951.75" x2="951.75" y1="780.4648" y2="871.7617"/><polygon fill="#334155" points="947.75,861.7617,951.75,871.7617,955.75,861.7617,951.75,865.7617" style="stroke:#334155;stroke-width:1.0;"/><line style="stroke:#334155;stroke-width:1.0;" x1="951.75" x2="951.75" y1="1023.1016" y2="1058.1016"/><polygon fill="#334155" points="947.75,1048.1016,951.75,1058.1016,955.75,1048.1016,951.75,1052.1016" style="stroke:#334155;stroke-width:1.0;"/><line style="stroke:#334155;stroke-width:1.0;" x1="951.75" x2="951.75" y1="964.7305" y2="989.1328"/><polygon fill="#334155" points="947.75,979.1328,951.75,989.1328,955.75,979.1328,951.75,983.1328" style="stroke:#334155;stroke-width:1.0;"/><line style="stroke:#334155;stroke-width:1.0;" x1="1088.25" x2="1106.75" y1="952.7305" y2="952.7305"/><polygon fill="#334155" points="1102.75,1021.6172,1106.75,1031.6172,1110.75,1021.6172,1106.75,1025.6172" style="stroke:#334155;stroke-width:1.0;"/><line style="stroke:#334155;stroke-width:1.0;" x1="1106.75" x2="1106.75" y1="952.7305" y2="1110.5039"/><line style="stroke:#334155;stroke-width:1.0;" x1="1106.75" x2="951.75" y1="1110.5039" y2="1110.5039"/><line style="stroke:#334155;stroke-width:1.0;" x1="951.75" x2="951.75" y1="1110.5039" y2="1139.5117"/><polygon fill="#334155" points="947.75,1129.5117,951.75,1139.5117,955.75,1129.5117,951.75,1133.5117" style="stroke:#334155;stroke-width:1.0;"/><line style="stroke:#334155;stroke-width:1.0;" x1="951.75" x2="951.75" y1="905.7305" y2="940.7305"/><polygon fill="#334155" points="947.75,930.7305,951.75,940.7305,955.75,930.7305,951.75,934.7305" style="stroke:#334155;stroke-width:1.0;"/><line style="stroke:#334155;stroke-width:1.0;" x1="951.75" x2="951.75" y1="1173.4805" y2="1193.4805"/><polygon fill="#334155" points="947.75,1183.4805,951.75,1193.4805,955.75,1183.4805,951.75,1187.4805" style="stroke:#334155;stroke-width:1.0;"/><line style="stroke:#334155;stroke-width:1.0;" x1="951.75" x2="951.75" y1="1227.4492" y2="1247.4492"/><polygon fill="#334155" points="947.75,1237.4492,951.75,1247.4492,955.75,1237.4492,951.75,1241.4492" style="stroke:#334155;stroke-width:1.0;"/><line style="stroke:#334155;stroke-width:1.0;" x1="862.25" x2="808.5" y1="1313.418" y2="1313.418"/><line style="stroke:#334155;stroke-width:1.0;" x1="808.5" x2="808.5" y1="1313.418" y2="1335.418"/><polygon fill="#334155" points="804.5,1325.418,808.5,1335.418,812.5,1325.418,808.5,1329.418" style="stroke:#334155;stroke-width:1.0;"/><line style="stroke:#334155;stroke-width:1.0;" x1="1041.25" x2="1095" y1="1313.418" y2="1313.418"/><line style="stroke:#334155;stroke-width:1.0;" x1="1095" x2="1095" y1="1313.418" y2="1335.418"/><polygon fill="#334155" points="1091,1325.418,1095,1335.418,1099,1325.418,1095,1329.418" style="stroke:#334155;stroke-width:1.0;"/><line style="stroke:#334155;stroke-width:1.0;" x1="808.5" x2="808.5" y1="1369.3867" y2="1387.3867"/><line style="stroke:#334155;stroke-width:1.0;" x1="808.5" x2="939.75" y1="1387.3867" y2="1387.3867"/><polygon fill="#334155" points="929.75,1383.3867,939.75,1387.3867,929.75,1391.3867,933.75,1387.3867" style="stroke:#334155;stroke-width:1.0;"/><line style="stroke:#334155;stroke-width:1.0;" x1="1095" x2="1095" y1="1369.3867" y2="1387.3867"/><line style="stroke:#334155;stroke-width:1.0;" x1="1095" x2="963.75" y1="1387.3867" y2="1387.3867"/><polygon fill="#334155" points="973.75,1383.3867,963.75,1387.3867,973.75,1391.3867,969.75,1387.3867" style="stroke:#334155;stroke-width:1.0;"/><line style="stroke:#334155;stroke-width:1.0;" x1="951.75" x2="951.75" y1="1281.418" y2="1301.418"/><polygon fill="#334155" points="947.75,1291.418,951.75,1301.418,955.75,1291.418,951.75,1295.418" style="stroke:#334155;stroke-width:1.0;"/><line style="stroke:#334155;stroke-width:1.0;" x1="951.75" x2="951.75" y1="1399.3867" y2="1419.3867"/><polygon fill="#334155" points="947.75,1409.3867,951.75,1419.3867,955.75,1409.3867,951.75,1413.3867" style="stroke:#334155;stroke-width:1.0;"/><line style="stroke:#334155;stroke-width:1.0;" x1="560.625" x2="307.5" y1="363.5" y2="363.5"/><line style="stroke:#334155;stroke-width:1.0;" x1="307.5" x2="307.5" y1="363.5" y2="421.7969"/><polygon fill="#334155" points="303.5,411.7969,307.5,421.7969,311.5,411.7969,307.5,415.7969" style="stroke:#334155;stroke-width:1.0;"/><line style="stroke:#334155;stroke-width:1.0;" x1="698.625" x2="951.75" y1="363.5" y2="363.5"/><line style="stroke:#334155;stroke-width:1.0;" x1="951.75" x2="951.75" y1="363.5" y2="421.7969"/><polygon fill="#334155" points="947.75,411.7969,951.75,421.7969,955.75,411.7969,951.75,415.7969" style="stroke:#334155;stroke-width:1.0;"/><line style="stroke:#334155;stroke-width:1.0;" x1="951.75" x2="951.75" y1="1453.3555" y2="1471.3555"/><line style="stroke:#334155;stroke-width:1.0;" x1="951.75" x2="629.625" y1="1471.3555" y2="1471.3555"/><line style="stroke:#334155;stroke-width:1.0;" x1="629.625" x2="629.625" y1="319.5" y2="351.5"/><polygon fill="#334155" points="625.625,341.5,629.625,351.5,633.625,341.5,629.625,345.5" style="stroke:#334155;stroke-width:1.0;"/><!--SRC=[VLPDRziu4BthLn3PImh4HTCsIJS-B1HBxWORR0h7wPqcHnRN4gabgRZgelzzPqX9bHCt0H98v7ozDsz6ySfNmEuRqEm1k1KbMrIjys3P2eJHGk5jAhnwKhvBt4xfXbjUCrToQVPARrd1AmUJcnikTbjhMYqNfZAM_ROCFnEBr5gpxoy_VFXuVd4nkPHGyBRoQ_ZcqqfjTGtQimeAFx7XVJtiluGToVTfcIuNT6Ei1DkVVhowkBZy7K-NHll-xDto_EfzYcUPuhNHyaMe_7t-QVbkOd0queFdzcV8gylB70_pCSZLyZmxpv8VYIEx944CNdbbD3kvtpYmJy2ubkn6QNaI45slW4ksM37NW3XZwEPRn-uNjzbPi9HGWGUcj4TkvkYW2dPwihPOFKY6AU5RKocXVF1XZGM7Xd-Sl66-n3QVTk3Ue1Sc-WoUpiYEePLfhG2swTXEcxrcIgARAXHOIWBOPdQgJU-wGlCgb8xfbFCaXUTXf79DnJkcUGtpwFO5h4FhaDN64A5aOO5xV0mLRn09mJCzzf1UIrKWYKa0cqKABFpR0efLlW0t8JdQHcgnWeTsKqTg1Y8Bp7za0FgA5qONojRHc0BkbIyPCaSkqMEOc1RfgaPeWGNbM9RVvUiy8vJQUCo6-dex7rYi3P98BeNIl5BVCGmlADXO8EN4C2BM0P9SV-2lywP9fbsPOBvJ1OXEuEmkAkuSDb5mkXbO22HI1YAOf8GLUzln3NeuEAQLK6nWExBUHjNk09h3ykUzUIYF7cBdZcSjEEuN-LfAtrfD8ckrQuK0vueMAGPRKpuiPTXHo3YkZLycH-4S44GZrWK4cLM5Pt_YOuKQ7cMoC3MQ0wlKKvoFM7DeFk5rRTCOIvAL8O1hRS55B_C0z57_jC7UgxfkVI0uEaYKdZWctHxuFtWRCecIwotE4w1EYVGkb4F12CehT5_tlUzU51jcgpHMVSTb66XqsBepzWH8a9WSODrRq63ng6qa4j3hzYlsMeOUZgWq-BsnEze3H6jfd9_XLw8XQK0btHH03Fyo-Z0MVmsgGbLofOUzm5jFHHDmsZp26kU6M9JpC1ZRMAv52Uxjf2aFpvXulGjfqrGTCnh_7FPSwHbkDfplFjL1zmyt9QsSdOfmj9cPPcmTwj6Ny-TDwoNVgpqi9t9jNM0vVFeWYZ4kWkYQ59NXOGdZZa7UrBRqIOgx2NpNm7Ko6xVjB02VnTsNhCQn7pNko7gnojFrxT-VyV7nInOVqvZxq31Th6-_viao3lBXtJAzlSipVEXNOF9um1QPQ2DHuRWI_V22tKGO-EP0j9Q-yhWT29cZCrFuFOtb4tr7ZCQZmW89grxpO87_Fv1Wmbi_HBtm0kqXwL7H1beEBYSIZfStjBgvxGB70U5pEU7tJdaNvsiCDBEXZhF9n8LM_tBgNjCozJlaJ_u7]--></g></svg>