<?xml version="1.0" encoding="UTF-8" standalone="no"?><svg xmlns="http://www.w3.org/2000/svg" xmlns:xlink="http://www.w3.org/1999/xlink" contentStyleType="text/css" height="1378px" preserveAspectRatio="none" style="width:1159px;height:1378px;background:#FFFFFF;" version="1.1" viewBox="0 0 1159 1378" width="1159px" zoomAndPan="magnify"><defs/><g><text fill="#000000" font-family="sans-serif" font-size="14" font-weight="bold" lengthAdjust="spacing" textLength="329" x="416.75" y="27.9951">Open Search Cluster Reconcile Sequence</text><rect fill="none" height="254.6719" style="stroke:#475569;stroke-width:1.5;" width="885" x="268.5" y="193.8594"/><rect fill="none" height="223.5391" style="stroke:#475569;stroke-width:1.5;" width="865" x="278.5" y="217.9922"/><rect fill="none" height="119.3359" style="stroke:#475569;stroke-width:1.5;" width="845" x="288.5" y="315.1953"/><rect fill="none" height="707" style="stroke:#475569;stroke-width:1.5;" width="1133.5" x="10" y="462.5313"/><rect fill="none" height="104.5313" style="stroke:#475569;stroke-width:1.5;" width="845" x="288.5" y="486.6641"/><rect fill="none" height="425.5234" style="stroke:#475569;stroke-width:1.5;" width="1012" x="20" y="707.875"/><rect fill="none" height="46.2656" style="stroke:#475569;stroke-width:1.5;" width="406.5" x="30" y="903.3359"/><rect fill="none" height="46.2656" style="stroke:#475569;stroke-width:1.5;" width="723" x="288.5" y="1080.1328"/><line style="stroke:#94A3B8;stroke-width:0.5;stroke-dasharray:5.0,5.0;" x1="76" x2="76" y1="118.5938" y2="1297.3281"/><line style="stroke:#94A3B8;stroke-width:0.5;stroke-dasharray:5.0,5.0;" x1="362.5" x2="362.5" y1="118.5938" y2="1297.3281"/><line style="stroke:#94A3B8;stroke-width:0.5;stroke-dasharray:5.0,5.0;" x1="983.5" x2="983.5" y1="118.5938" y2="1297.3281"/><line style="stroke:#94A3B8;stroke-width:0.5;stroke-dasharray:5.0,5.0;" x1="1067.5" x2="1067.5" y1="118.5938" y2="1297.3281"/><text fill="#000000" font-family="sans-serif" font-size="14" lengthAdjust="spacing" textLength="67" x="40" y="115.292">Controller</text><ellipse cx="76.5" cy="50.7969" fill="#E0F2FE" rx="8" ry="8" style="stroke:#0F766E;stroke-width:0.5;"/><path d="M76.5,58.7969 L76.5,85.7969 M63.5,66.7969 L89.5,66.7969 M76.5,85.7969 L63.5,100.7969 M76.5,85.7969 L89.5,100.7969 " fill="none" style="stroke:#0F766E;stroke-width:0.5;"/><text fill="#000000" font-family="sans-serif" font-size="14" lengthAdjust="spacing" textLength="67" x="40" y="1309.3232">Controller</text><ellipse cx="76.5" cy="1321.125" fill="#E0F2FE" rx="8" ry="8" style="stroke:#0F766E;stroke-width:0.5;"/><path d="M76.5,1329.125 L76.5,1356.125 M63.5,1337.125 L89.5,1337.125 M76.5,1356.125 L63.5,1371.125 M76.5,1356.125 L89.5,1371.125 " fill="none" style="stroke:#0F766E;stroke-width:0.5;"/><rect fill="#F8FAFC" height="30.2969" rx="2.5" ry="2.5" style="stroke:#475569;stroke-width:0.5;" width="128" x="298.5" y="87.2969"/><text fill="#000000" font-family="sans-serif" font-size="14" lengthAdjust="spacing" textLength="114" x="305.5" y="107.292">Service Manager</text><rect fill="#F8FAFC" height="30.2969" rx="2.5" ry="2.5" style="stroke:#475569;stroke-width:0.5;" width="128" x="298.5" y="1296.3281"/><text fill="#000000" font-family="sans-serif" font-size="14" lengthAdjust="spacing" textLength="114" x="305.5" y="1316.3232">Service Manager</text><text fill="#000000" font-family="sans-serif" font-size="14" lengthAdjust="spacing" textLength="24" x="968.5" y="115.292">OCI</text><path d="M965.5,66.2969 C965.5,56.2969 983.5,56.2969 983.5,56.2969 C983.5,56.2969 1001.5,56.2969 1001.5,66.2969 L1001.5,92.2969 C1001.5,102.2969 983.5,102.2969 983.5,102.2969 C983.5,102.2969 965.5,102.2969 965.5,92.2969 L965.5,66.2969 " fill="#E2E2F0" style="stroke:#181818;stroke-width:1.5;"/><path d="M965.5,66.2969 C965.5,76.2969 983.5,76.2969 983.5,76.2969 C983.5,76.2969 1001.5,76.2969 1001.5,66.2969 " fill="none" style="stroke:#181818;stroke-width:1.5;"/><text fill="#000000" font-family="sans-serif" font-size="14" lengthAdjust="spacing" textLength="24" x="968.5" y="1309.3232">OCI</text><path d="M965.5,1322.625 C965.5,1312.625 983.5,1312.625 983.5,1312.625 C983.5,1312.625 1001.5,1312.625 1001.5,1322.625 L1001.5,1348.625 C1001.5,1358.625 983.5,1358.625 983.5,1358.625 C983.5,1358.625 965.5,1358.625 965.5,1348.625 L965.5,1322.625 " fill="#E2E2F0" style="stroke:#181818;stroke-width:1.5;"/><path d="M965.5,1322.625 C965.5,1332.625 983.5,1332.625 983.5,1332.625 C983.5,1332.625 1001.5,1332.625 1001.5,1322.625 " fill="none" style="stroke:#181818;stroke-width:1.5;"/><text fill="#000000" font-family="sans-serif" font-size="14" lengthAdjust="spacing" textLength="106" x="1011.5" y="115.292">Kubernetes API</text><path d="M1049.5,66.2969 C1049.5,56.2969 1067.5,56.2969 1067.5,56.2969 C1067.5,56.2969 1085.5,56.2969 1085.5,66.2969 L1085.5,92.2969 C1085.5,102.2969 1067.5,102.2969 1067.5,102.2969 C1067.5,102.2969 1049.5,102.2969 1049.5,92.2969 L1049.5,66.2969 " fill="#E2E2F0" style="stroke:#181818;stroke-width:1.5;"/><path d="M1049.5,66.2969 C1049.5,76.2969 1067.5,76.2969 1067.5,76.2969 C1067.5,76.2969 1085.5,76.2969 1085.5,66.2969 " fill="none" style="stroke:#181818;stroke-width:1.5;"/><text fill="#000000" font-family="sans-serif" font-size="14" lengthAdjust="spacing" textLength="106" x="1011.5" y="1309.3232">Kubernetes API</text><path d="M1049.5,1322.625 C1049.5,1312.625 1067.5,1312.625 1067.5,1312.625 C1067.5,1312.625 1085.5,1312.625 1085.5,1322.625 L1085.5,1348.625 C1085.5,1358.625 1067.5,1358.625 1067.5,1358.625 C1067.5,1358.625 1049.5,1358.625 1049.5,1348.625 L1049.5,1322.625 " fill="#E2E2F0" style="stroke:#181818;stroke-width:1.5;"/><path d="M1049.5,1322.625 C1049.5,1332.625 1067.5,1332.625 1067.5,1332.625 C1067.5,1332.625 1085.5,1332.625 1085.5,1322.625 " fill="none" style="stroke:#181818;stroke-width:1.5;"/><polygon fill="#334155" points="350.5,145.7266,360.5,149.7266,350.5,153.7266,354.5,149.7266" style="stroke:#334155;stroke-width:1.0;"/><line style="stroke:#334155;stroke-width:1.0;" x1="76.5" x2="356.5" y1="149.7266" y2="149.7266"/><text fill="#000000" font-family="sans-serif" font-size="13" font-weight="bold" lengthAdjust="spacing" textLength="9" x="83.5" y="144.6606">1</text><text fill="#000000" font-family="sans-serif" font-size="13" lengthAdjust="spacing" textLength="239" x="96.5" y="144.6606">reconcile desired spec and live status</text><polygon fill="#334155" points="1055.5,174.8594,1065.5,178.8594,1055.5,182.8594,1059.5,178.8594" style="stroke:#334155;stroke-width:1.0;"/><line style="stroke:#334155;stroke-width:1.0;" x1="362.5" x2="1061.5" y1="178.8594" y2="178.8594"/><text fill="#000000" font-family="sans-serif" font-size="13" font-weight="bold" lengthAdjust="spacing" textLength="9" x="369.5" y="173.7935">2</text><text fill="#000000" font-family="sans-serif" font-size="13" lengthAdjust="spacing" textLength="212" x="382.5" y="173.7935">read CR status and finalizer state</text><path d="M268.5,193.8594 L438.5,193.8594 L438.5,200.9922 L428.5,210.9922 L268.5,210.9922 L268.5,193.8594 " fill="#F8FAFC" style="stroke:#475569;stroke-width:1.5;"/><rect fill="none" height="254.6719" style="stroke:#475569;stroke-width:1.5;" width="885" x="268.5" y="193.8594"/><text fill="#000000" font-family="sans-serif" font-size="13" font-weight="bold" lengthAdjust="spacing" textLength="125" x="283.5" y="206.9263">Lookup and bind</text><path d="M278.5,217.9922 L342.5,217.9922 L342.5,225.125 L332.5,235.125 L278.5,235.125 L278.5,217.9922 " fill="#F8FAFC" style="stroke:#475569;stroke-width:1.5;"/><rect fill="none" height="223.5391" style="stroke:#475569;stroke-width:1.5;" width="865" x="278.5" y="217.9922"/><text fill="#000000" font-family="sans-serif" font-size="13" font-weight="bold" lengthAdjust="spacing" textLength="19" x="293.5" y="231.0591">alt</text><text fill="#000000" font-family="sans-serif" font-size="11" font-weight="bold" lengthAdjust="spacing" textLength="256" x="357.5" y="230.2026">[tracked or explicit OCID already exists]</text><polygon fill="#334155" points="971.5,252.2578,981.5,256.2578,971.5,260.2578,975.5,256.2578" style="stroke:#334155;stroke-width:1.0;"/><line style="stroke:#334155;stroke-width:1.0;" x1="362.5" x2="977.5" y1="256.2578" y2="256.2578"/><text fill="#000000" font-family="sans-serif" font-size="13" font-weight="bold" lengthAdjust="spacing" textLength="9" x="369.5" y="251.1919">3</text><text fill="#000000" font-family="sans-serif" font-size="13" lengthAdjust="spacing" textLength="278" x="382.5" y="251.1919">get the current resource by known identifier</text><line style="stroke:#475569;stroke-width:1.0;stroke-dasharray:2.0,2.0;" x1="278.5" x2="1143.5" y1="265.2578" y2="265.2578"/><text fill="#000000" font-family="sans-serif" font-size="11" font-weight="bold" lengthAdjust="spacing" textLength="145" x="283.5" y="275.4683">[no OCID is bound yet]</text><polygon fill="#334155" points="971.5,296.1953,981.5,300.1953,971.5,304.1953,975.5,300.1953" style="stroke:#334155;stroke-width:1.0;"/><line style="stroke:#334155;stroke-width:1.0;" x1="362.5" x2="977.5" y1="300.1953" y2="300.1953"/><text fill="#000000" font-family="sans-serif" font-size="13" font-weight="bold" lengthAdjust="spacing" textLength="9" x="369.5" y="295.1294">4</text><text fill="#000000" font-family="sans-serif" font-size="13" lengthAdjust="spacing" textLength="193" x="382.5" y="295.1294">list resources by display name</text><path d="M288.5,315.1953 L352.5,315.1953 L352.5,322.3281 L342.5,332.3281 L288.5,332.3281 L288.5,315.1953 " fill="#F8FAFC" style="stroke:#475569;stroke-width:1.5;"/><rect fill="none" height="119.3359" style="stroke:#475569;stroke-width:1.5;" width="845" x="288.5" y="315.1953"/><text fill="#000000" font-family="sans-serif" font-size="13" font-weight="bold" lengthAdjust="spacing" textLength="19" x="303.5" y="328.2622">alt</text><text fill="#000000" font-family="sans-serif" font-size="11" font-weight="bold" lengthAdjust="spacing" textLength="162" x="367.5" y="327.4058">[existing resource found]</text><polygon fill="#334155" points="1055.5,349.4609,1065.5,353.4609,1055.5,357.4609,1059.5,353.4609" style="stroke:#334155;stroke-width:1.0;"/><line style="stroke:#334155;stroke-width:1.0;" x1="362.5" x2="1061.5" y1="353.4609" y2="353.4609"/><text fill="#000000" font-family="sans-serif" font-size="13" font-weight="bold" lengthAdjust="spacing" textLength="9" x="369.5" y="348.395">5</text><text fill="#000000" font-family="sans-serif" font-size="13" lengthAdjust="spacing" textLength="221" x="382.5" y="348.395">persist the resolved OCID in status</text><line style="stroke:#475569;stroke-width:1.0;stroke-dasharray:2.0,2.0;" x1="288.5" x2="1133.5" y1="362.4609" y2="362.4609"/><text fill="#000000" font-family="sans-serif" font-size="11" font-weight="bold" lengthAdjust="spacing" textLength="182" x="293.5" y="372.6714">[no existing resource found]</text><polygon fill="#334155" points="971.5,393.3984,981.5,397.3984,971.5,401.3984,975.5,397.3984" style="stroke:#334155;stroke-width:1.0;"/><line style="stroke:#334155;stroke-width:1.0;" x1="362.5" x2="977.5" y1="397.3984" y2="397.3984"/><text fill="#000000" font-family="sans-serif" font-size="13" font-weight="bold" lengthAdjust="spacing" textLength="9" x="369.5" y="392.3325">6</text><text fill="#000000" font-family="sans-serif" font-size="13" lengthAdjust="spacing" textLength="152" x="382.5" y="392.3325">create the OCI resource</text><polygon fill="#334155" points="1055.5,422.5313,1065.5,426.5313,1055.5,430.5313,1059.5,426.5313" style="stroke:#334155;stroke-width:1.0;"/><line style="stroke:#334155;stroke-width:1.0;" x1="362.5" x2="1061.5" y1="426.5313" y2="426.5313"/><text fill="#000000" font-family="sans-serif" font-size="13" font-weight="bold" lengthAdjust="spacing" textLength="9" x="369.5" y="421.4653">7</text><text fill="#000000" font-family="sans-serif" font-size="13" lengthAdjust="spacing" textLength="216" x="382.5" y="421.4653">persist the created OCID in status</text><path d="M10,462.5313 L74,462.5313 L74,469.6641 L64,479.6641 L10,479.6641 L10,462.5313 " fill="#F8FAFC" style="stroke:#475569;stroke-width:1.5;"/><rect fill="none" height="707" style="stroke:#475569;stroke-width:1.5;" width="1133.5" x="10" y="462.5313"/><text fill="#000000" font-family="sans-serif" font-size="13" font-weight="bold" lengthAdjust="spacing" textLength="19" x="25" y="475.5981">alt</text><text fill="#000000" font-family="sans-serif" font-size="11" font-weight="bold" lengthAdjust="spacing" textLength="120" x="89" y="474.7417">[delete requested]</text><path d="M288.5,486.6641 L381.5,486.6641 L381.5,493.7969 L371.5,503.7969 L288.5,503.7969 L288.5,486.6641 " fill="#F8FAFC" style="stroke:#475569;stroke-width:1.5;"/><rect fill="none" height="104.5313" style="stroke:#475569;stroke-width:1.5;" width="845" x="288.5" y="486.6641"/><text fill="#000000" font-family="sans-serif" font-size="13" font-weight="bold" lengthAdjust="spacing" textLength="48" x="303.5" y="499.731">Delete</text><polygon fill="#334155" points="971.5,520.9297,981.5,524.9297,971.5,528.9297,975.5,524.9297" style="stroke:#334155;stroke-width:1.0;"/><line style="stroke:#334155;stroke-width:1.0;" x1="362.5" x2="977.5" y1="524.9297" y2="524.9297"/><text fill="#000000" font-family="sans-serif" font-size="13" font-weight="bold" lengthAdjust="spacing" textLength="9" x="369.5" y="519.8638">8</text><text fill="#000000" font-family="sans-serif" font-size="13" lengthAdjust="spacing" textLength="114" x="382.5" y="519.8638">submit OCI delete</text><polygon fill="#334155" points="971.5,550.0625,981.5,554.0625,971.5,558.0625,975.5,554.0625" style="stroke:#334155;stroke-width:1.0;"/><line style="stroke:#334155;stroke-width:1.0;" x1="362.5" x2="977.5" y1="554.0625" y2="554.0625"/><text fill="#000000" font-family="sans-serif" font-size="13" font-weight="bold" lengthAdjust="spacing" textLength="9" x="369.5" y="548.9966">9</text><text fill="#000000" font-family="sans-serif" font-size="13" lengthAdjust="spacing" textLength="563" x="382.5" y="548.9966">Confirm deletion with GetOpenSearchCluster until the resource is DELETED or not found.</text><polygon fill="#334155" points="1055.5,579.1953,1065.5,583.1953,1055.5,587.1953,1059.5,583.1953" style="stroke:#334155;stroke-width:1.0;"/><line style="stroke:#334155;stroke-width:1.0;" x1="362.5" x2="1061.5" y1="583.1953" y2="583.1953"/><text fill="#000000" font-family="sans-serif" font-size="13" font-weight="bold" lengthAdjust="spacing" textLength="18" x="369.5" y="578.1294">10</text><text fill="#000000" font-family="sans-serif" font-size="13" lengthAdjust="spacing" textLength="289" x="391.5" y="578.1294">remove the finalizer after delete confirmation</text><line style="stroke:#475569;stroke-width:1.0;stroke-dasharray:2.0,2.0;" x1="10" x2="1143.5" y1="599.1953" y2="599.1953"/><text fill="#000000" font-family="sans-serif" font-size="11" font-weight="bold" lengthAdjust="spacing" textLength="147" x="15" y="609.4058">[OCI state is retryable]</text><polygon fill="#334155" points="87.5,630.1328,77.5,634.1328,87.5,638.1328,83.5,634.1328" style="stroke:#334155;stroke-width:1.0;"/><line style="stroke:#334155;stroke-width:1.0;stroke-dasharray:2.0,2.0;" x1="81.5" x2="361.5" y1="634.1328" y2="634.1328"/><text fill="#000000" font-family="sans-serif" font-size="13" font-weight="bold" lengthAdjust="spacing" textLength="18" x="93.5" y="629.0669">11</text><text fill="#000000" font-family="sans-serif" font-size="13" lengthAdjust="spacing" textLength="110" x="115.5" y="629.0669">requeue required</text><line style="stroke:#475569;stroke-width:1.0;stroke-dasharray:2.0,2.0;" x1="10" x2="1143.5" y1="643.1328" y2="643.1328"/><text fill="#000000" font-family="sans-serif" font-size="11" font-weight="bold" lengthAdjust="spacing" textLength="200" x="15" y="653.3433">[OCI state is failed or terminal]</text><polygon fill="#334155" points="87.5,674.0703,77.5,678.0703,87.5,682.0703,83.5,678.0703" style="stroke:#334155;stroke-width:1.0;"/><line style="stroke:#334155;stroke-width:1.0;stroke-dasharray:2.0,2.0;" x1="81.5" x2="361.5" y1="678.0703" y2="678.0703"/><text fill="#000000" font-family="sans-serif" font-size="13" font-weight="bold" lengthAdjust="spacing" textLength="18" x="93.5" y="673.0044">12</text><text fill="#000000" font-family="sans-serif" font-size="13" lengthAdjust="spacing" textLength="240" x="115.5" y="673.0044">unsuccessful terminal reconcile result</text><line style="stroke:#475569;stroke-width:1.0;stroke-dasharray:2.0,2.0;" x1="10" x2="1143.5" y1="687.0703" y2="687.0703"/><text fill="#000000" font-family="sans-serif" font-size="11" font-weight="bold" lengthAdjust="spacing" textLength="203" x="15" y="697.2808">[OCI state is active and usable]</text><path d="M20,707.875 L167,707.875 L167,715.0078 L157,725.0078 L20,725.0078 L20,707.875 " fill="#F8FAFC" style="stroke:#475569;stroke-width:1.5;"/><rect fill="none" height="425.5234" style="stroke:#475569;stroke-width:1.5;" width="1012" x="20" y="707.875"/><text fill="#000000" font-family="sans-serif" font-size="13" font-weight="bold" lengthAdjust="spacing" textLength="102" x="35" y="720.9419">Drift handling</text><path d="M324,730.0078 L324,891.0078 L1022,891.0078 L1022,740.0078 L1012,730.0078 L324,730.0078 " fill="#FEFFDD" style="stroke:#181818;stroke-width:0.5;"/><path d="M1012,730.0078 L1012,740.0078 L1022,740.0078 L1012,730.0078 " fill="#FEFFDD" style="stroke:#181818;stroke-width:0.5;"/><text fill="#000000" font-family="sans-serif" font-size="13" lengthAdjust="spacing" textLength="171" x="330" y="747.0747">Supported update surface:</text><text fill="#000000" font-family="sans-serif" font-size="13" lengthAdjust="spacing" textLength="81" x="330" y="762.2075">- node count</text><text fill="#000000" font-family="sans-serif" font-size="13" lengthAdjust="spacing" textLength="81" x="330" y="777.3403">- node sizing</text><text fill="#000000" font-family="sans-serif" font-size="13" lengthAdjust="spacing" textLength="114" x="330" y="792.4731">- security settings</text><text fill="#000000" font-family="sans-serif" font-size="13" lengthAdjust="spacing" textLength="113" x="330" y="807.606">- software version</text><text fill="#000000" font-family="sans-serif" font-size="13" lengthAdjust="spacing" textLength="94" x="330" y="822.7388">- freeformTags</text><text fill="#000000" font-family="sans-serif" font-size="13" lengthAdjust="spacing" textLength="86" x="330" y="837.8716">- definedTags</text><text fill="#000000" font-family="sans-serif" font-size="13" lengthAdjust="spacing" textLength="139" x="330" y="853.0044">Reject before mutate:</text><text fill="#000000" font-family="sans-serif" font-size="13" lengthAdjust="spacing" textLength="180" x="330" y="868.1372">- immutable networking drift</text><text fill="#000000" font-family="sans-serif" font-size="13" lengthAdjust="spacing" textLength="183" x="330" y="883.27">- immutable host-shape drift</text><path d="M30,903.3359 L100,903.3359 L100,910.4688 L90,920.4688 L30,920.4688 L30,903.3359 " fill="#F8FAFC" style="stroke:#475569;stroke-width:1.5;"/><rect fill="none" height="46.2656" style="stroke:#475569;stroke-width:1.5;" width="406.5" x="30" y="903.3359"/><text fill="#000000" font-family="sans-serif" font-size="13" font-weight="bold" lengthAdjust="spacing" textLength="25" x="45" y="916.4028">opt</text><text fill="#000000" font-family="sans-serif" font-size="11" font-weight="bold" lengthAdjust="spacing" textLength="286" x="115" y="915.5464">[unsupported or immutable drift is detected]</text><polygon fill="#334155" points="87.5,937.6016,77.5,941.6016,87.5,945.6016,83.5,941.6016" style="stroke:#334155;stroke-width:1.0;"/><line style="stroke:#334155;stroke-width:1.0;stroke-dasharray:2.0,2.0;" x1="81.5" x2="361.5" y1="941.6016" y2="941.6016"/><text fill="#000000" font-family="sans-serif" font-size="13" font-weight="bold" lengthAdjust="spacing" textLength="18" x="93.5" y="936.5356">13</text><text fill="#000000" font-family="sans-serif" font-size="13" lengthAdjust="spacing" textLength="169" x="115.5" y="936.5356">reject before OCI mutation</text><polygon fill="#334155" points="971.5,973.7344,981.5,977.7344,971.5,981.7344,975.5,977.7344" style="stroke:#334155;stroke-width:1.0;"/><line style="stroke:#334155;stroke-width:1.0;" x1="362.5" x2="977.5" y1="977.7344" y2="977.7344"/><text fill="#000000" font-family="sans-serif" font-size="13" font-weight="bold" lengthAdjust="spacing" textLength="18" x="369.5" y="972.6685">14</text><text fill="#000000" font-family="sans-serif" font-size="13" lengthAdjust="spacing" textLength="365" x="391.5" y="972.6685">apply the horizontal resize branch when node count drifts</text><polygon fill="#334155" points="971.5,1002.8672,981.5,1006.8672,971.5,1010.8672,975.5,1006.8672" style="stroke:#334155;stroke-width:1.0;"/><line style="stroke:#334155;stroke-width:1.0;" x1="362.5" x2="977.5" y1="1006.8672" y2="1006.8672"/><text fill="#000000" font-family="sans-serif" font-size="13" font-weight="bold" lengthAdjust="spacing" textLength="18" x="369.5" y="1001.8013">15</text><text fill="#000000" font-family="sans-serif" font-size="13" lengthAdjust="spacing" textLength="348" x="391.5" y="1001.8013">apply the vertical resize branch when node sizing drifts</text><polygon fill="#334155" points="971.5,1032,981.5,1036,971.5,1040,975.5,1036" style="stroke:#334155;stroke-width:1.0;"/><line style="stroke:#334155;stroke-width:1.0;" x1="362.5" x2="977.5" y1="1036" y2="1036"/><text fill="#000000" font-family="sans-serif" font-size="13" font-weight="bold" lengthAdjust="spacing" textLength="18" x="369.5" y="1030.9341">16</text><text fill="#000000" font-family="sans-serif" font-size="13" lengthAdjust="spacing" textLength="575" x="391.5" y="1030.9341">Validate immutable networking and host-shape fields before any resize or general update.</text><polygon fill="#334155" points="971.5,1061.1328,981.5,1065.1328,971.5,1069.1328,975.5,1065.1328" style="stroke:#334155;stroke-width:1.0;"/><line style="stroke:#334155;stroke-width:1.0;" x1="362.5" x2="977.5" y1="1065.1328" y2="1065.1328"/><text fill="#000000" font-family="sans-serif" font-size="13" font-weight="bold" lengthAdjust="spacing" textLength="18" x="369.5" y="1060.0669">17</text><text fill="#000000" font-family="sans-serif" font-size="13" lengthAdjust="spacing" textLength="519" x="391.5" y="1060.0669">Keep the retained OCID authoritative across resize and general update branches.</text><path d="M288.5,1080.1328 L358.5,1080.1328 L358.5,1087.2656 L348.5,1097.2656 L288.5,1097.2656 L288.5,1080.1328 " fill="#F8FAFC" style="stroke:#475569;stroke-width:1.5;"/><rect fill="none" height="46.2656" style="stroke:#475569;stroke-width:1.5;" width="723" x="288.5" y="1080.1328"/><text fill="#000000" font-family="sans-serif" font-size="13" font-weight="bold" lengthAdjust="spacing" textLength="25" x="303.5" y="1093.1997">opt</text><text fill="#000000" font-family="sans-serif" font-size="11" font-weight="bold" lengthAdjust="spacing" textLength="258" x="373.5" y="1092.3433">[supported drift or collection diff exists]</text><polygon fill="#334155" points="971.5,1114.3984,981.5,1118.3984,971.5,1122.3984,975.5,1118.3984" style="stroke:#334155;stroke-width:1.0;"/><line style="stroke:#334155;stroke-width:1.0;" x1="362.5" x2="977.5" y1="1118.3984" y2="1118.3984"/><text fill="#000000" font-family="sans-serif" font-size="13" font-weight="bold" lengthAdjust="spacing" textLength="18" x="369.5" y="1113.3325">18</text><text fill="#000000" font-family="sans-serif" font-size="13" lengthAdjust="spacing" textLength="277" x="391.5" y="1113.3325">apply the supported in-place mutation path</text><polygon fill="#334155" points="87.5,1157.5313,77.5,1161.5313,87.5,1165.5313,83.5,1161.5313" style="stroke:#334155;stroke-width:1.0;"/><line style="stroke:#334155;stroke-width:1.0;stroke-dasharray:2.0,2.0;" x1="81.5" x2="361.5" y1="1161.5313" y2="1161.5313"/><text fill="#000000" font-family="sans-serif" font-size="13" font-weight="bold" lengthAdjust="spacing" textLength="18" x="93.5" y="1156.4653">19</text><text fill="#000000" font-family="sans-serif" font-size="13" lengthAdjust="spacing" textLength="169" x="115.5" y="1156.4653">successful active reconcile</text><path d="M51,1181.5313 L51,1281.5313 L1007,1281.5313 L1007,1191.5313 L997,1181.5313 L51,1181.5313 " fill="#FEFFDD" style="stroke:#181818;stroke-width:0.5;"/><path d="M997,1181.5313 L997,1191.5313 L1007,1191.5313 L997,1181.5313 " fill="#FEFFDD" style="stroke:#181818;stroke-width:0.5;"/><text fill="#000000" font-family="sans-serif" font-size="13" lengthAdjust="spacing" textLength="105" x="57" y="1198.5981">Boundary notes:</text><text fill="#000000" font-family="sans-serif" font-size="13" lengthAdjust="spacing" textLength="401" x="57" y="1213.731">- Supported drift splits into immutable-reject, horizontal resize,</text><text fill="#000000" font-family="sans-serif" font-size="13" lengthAdjust="spacing" textLength="288" x="73" y="1228.8638">vertical resize, and general update branches.</text><text fill="#000000" font-family="sans-serif" font-size="13" lengthAdjust="spacing" textLength="108" x="57" y="1243.9966">Sequence notes:</text><text fill="#000000" font-family="sans-serif" font-size="13" lengthAdjust="spacing" textLength="476" x="57" y="1259.1294">- The same retained OCID is reused across resize and non-resize mutation</text><text fill="#000000" font-family="sans-serif" font-size="13" lengthAdjust="spacing" textLength="40" x="73" y="1274.2622">paths.</text><!--SRC=[bLPPJoD747wVNr4YhnXjmh4i3v6CiLSH9Bi2bFVsJ8tTSK_tf0-y9if_JrNtN3umn18sqtL_zLNrUEaLmhSQDJoXiFaI9YeuZnOUCJSwboHzmhy3wXmp4RpHePgZpTnAwbfOKO5RYiAifLv0APJ3WUHMvAk5DK4N4wECXPzcyJFG65jhretm_FpYvylBWR30KWJbd_677okvq1Lg3mfBFmpUf0R_P03VXVKobxNGVZ_qzMmyc-me6LkWRHGkFbzUNdqXXGTPueFKk2NzSZ4-lxqUIj-e3U0hdTQ7NIVHcwcDSs_iddZwQVRBRDg9Xuu_pJvVNKspVpF18ZYP6EsjKGhj2GW7_MDMzrN3oHFQ5qcO_IwqM3IwpLbpb1N2Yxbm22VV9hz51VeTdDu78e56Zmx6tvF2_RNBiZuaZ7xTSNe3jgDKWKvQBC3Lc8FG1IZvWk2yyC5bssRiY7opjIXWyjXeHQjIQg7aAodn8MOP8rV3Wp4h-c6DkTG5OIUK1sy9Mef9IE6FMX4Sdgkw8o6xtj2fTDwHDi1-2gHv0miaDqk4F5ZBRBJeJB04vNm3AstM6cH1vxAKX240qZo0DYcAT33dji86_R4OYfBe73lsN4XNAx41BIgCbbnDJ9QdhikXPEzHViXtXB16wzWzry1sweNmIDdf5dqsRnF_lq5Y0JcXwJ76eEVEzEEP9GU74ul1-Pl_CWQYG4Kyf32q2MXniJonu2uAZa7jmhnA96Yy75CcQfVILabJ6WrhwPVm5JqlpxGxszKPY0Ag0pdYHjs_cpvCdwTtp3zjV4BoB3k2YSNAl2GWUwABaYCqHUSf9y7vjBXmwxYYE14SrwAt6p5NNDrk90hLZ-nD0Z4aC7a-3tWh1Srl72BAe-AqtdSRj0ivaTcLGNLcWsr0AD6YFn2CzXhl1Hxau9eIckPQMNfOaaGHFoEAVnWo8i3iJZgdlBeQyeMwDfQv5Ug2OxXWIv7ZJICVKMSAXfKwk7tav6iRXyySqWgGVaF_U1uGrqjCwTV28hmmesDRag2qYAMnrRCOQDCTHvT9CJXxnBymzp1dNOGgC1HzUhBY4m82QFckZLtnS1QCnG6LfN5-HDTpZGCLuWZJBr7Tr3usfqM5kjgRHnlkGa5KozDa7MBh7eU61N0xOn4j5DYiZpUcJDIrsaJABusLh-GtCeNWfoLhXQONbFMINbRwFgKytSUSKbFe7ZpYClNv0px_f7cC53hO4cRi07ww3rJXMao4thJn2V05QhIKKMBasR6OzuXrirQyODuqzrVm31Q3pCEIM-DS6u0JsOxGr8pkhAD0Ju3KSyegvsxcSSyLiYo7T-C7OEuTIZsYkol7ZWHG2x_SsUNlScgmFfgLq2sFT17qiz-RDND_otjMs4ralUDH6WtsG2gOxbVf7INhJT_FKMBowJuJJniSTjXq-XxQxOlqC9LdXeikzfsUnhqT73tkzrCRFMeUjqOB8hOKgPln_m00]--></g></svg>