<?xml version="1.0" encoding="UTF-8" standalone="no"?><svg xmlns="http://www.w3.org/2000/svg" xmlns:xlink="http://www.w3.org/1999/xlink" contentStyleType="text/css" height="526px" preserveAspectRatio="none" style="width:2022px;height:526px;background:#FFFFFF;" version="1.1" viewBox="0 0 2022 526" width="2022px" zoomAndPan="magnify"><defs/><g><text fill="#000000" font-family="sans-serif" font-size="14" font-weight="bold" lengthAdjust="spacing" textLength="361" x="823.915" y="22.9951">Open Search Cluster Reconcile State Machine</text><ellipse cx="16" cy="362.2969" fill="#222222" rx="10" ry="10" style="stroke:none;stroke-width:1.0;"/><g id="Observe"><rect fill="#F8FAFC" height="50.2656" rx="6" ry="6" style="stroke:#475569;stroke-width:0.5;" width="329" x="86" y="337.2969"/><line style="stroke:#475569;stroke-width:0.5;" x1="86" x2="415" y1="363.5938" y2="363.5938"/><text fill="#0F172A" font-family="sans-serif" font-size="14" lengthAdjust="spacing" textLength="58" x="221.5" y="355.292">Observe</text><text fill="#0F172A" font-family="sans-serif" font-size="12" lengthAdjust="spacing" textLength="309" x="91" y="379.7324">read spec, status, delete intent, and OCI lifecycle</text></g><rect fill="#F8FAFC" height="40" rx="6" ry="6" style="stroke:#475569;stroke-width:0.5;" width="122" x="475" y="342.2969"/><text fill="#0F172A" font-family="sans-serif" font-size="14" lengthAdjust="spacing" textLength="112" x="480" y="367.1436">ResolveByName</text><rect fill="#F8FAFC" height="40" rx="6" ry="6" style="stroke:#475569;stroke-width:0.5;" width="111" x="657" y="119.2969"/><text fill="#0F172A" font-family="sans-serif" font-size="14" lengthAdjust="spacing" textLength="101" x="662" y="144.1436">EvaluateReady</text><rect fill="#F8FAFC" height="40" rx="6" ry="6" style="stroke:#475569;stroke-width:0.5;" width="75" x="1061" y="346.2969"/><text fill="#0F172A" font-family="sans-serif" font-size="14" lengthAdjust="spacing" textLength="65" x="1066" y="371.1436">Retryable</text><rect fill="#F8FAFC" height="40" rx="6" ry="6" style="stroke:#475569;stroke-width:0.5;" width="50" x="687.5" y="433.2969"/><text fill="#0F172A" font-family="sans-serif" font-size="14" lengthAdjust="spacing" textLength="40" x="692.5" y="458.1436">Failed</text><rect fill="#F8FAFC" height="40" rx="6" ry="6" style="stroke:#475569;stroke-width:0.5;" width="173" x="828" y="44.2969"/><text fill="#0F172A" font-family="sans-serif" font-size="14" lengthAdjust="spacing" textLength="163" x="833" y="69.1436">RejectUnsupportedDrift</text><rect fill="#F8FAFC" height="40" rx="6" ry="6" style="stroke:#475569;stroke-width:0.5;" width="53" x="1072" y="190.2969"/><text fill="#0F172A" font-family="sans-serif" font-size="14" lengthAdjust="spacing" textLength="43" x="1077" y="215.1436">Ready</text><rect fill="#F8FAFC" height="40" rx="6" ry="6" style="stroke:#475569;stroke-width:0.5;" width="126" x="851.5" y="119.2969"/><text fill="#0F172A" font-family="sans-serif" font-size="14" lengthAdjust="spacing" textLength="116" x="856.5" y="144.1436">HorizontalResize</text><rect fill="#F8FAFC" height="40" rx="6" ry="6" style="stroke:#475569;stroke-width:0.5;" width="107" x="861" y="194.2969"/><text fill="#0F172A" font-family="sans-serif" font-size="14" lengthAdjust="spacing" textLength="97" x="866" y="219.1436">VerticalResize</text><rect fill="#F8FAFC" height="40" rx="6" ry="6" style="stroke:#475569;stroke-width:0.5;" width="97" x="866" y="269.2969"/><text fill="#0F172A" font-family="sans-serif" font-size="14" lengthAdjust="spacing" textLength="87" x="871" y="294.1436">ApplyUpdate</text><rect fill="#F8FAFC" height="40" rx="6" ry="6" style="stroke:#475569;stroke-width:0.5;" width="113" x="1327.5" y="351.2969"/><text fill="#0F172A" font-family="sans-serif" font-size="14" lengthAdjust="spacing" textLength="103" x="1332.5" y="376.1436">DeletePending</text><rect fill="#F8FAFC" height="40" rx="6" ry="6" style="stroke:#475569;stroke-width:0.5;" width="65" x="1785" y="298.2969"/><text fill="#0F172A" font-family="sans-serif" font-size="14" lengthAdjust="spacing" textLength="55" x="1790" y="323.1436">Deleted</text><g id="elem_GMN34"><path d="M1196,84.7969 L1196,206.2969 L1125.1,210.2969 L1196,214.2969 L1196,309.7891 A6,6 0 0 0 1202,315.7891 L1566,315.7891 A6,6 0 0 0 1572,309.7891 L1572,88.7969 L1562,78.7969 L1202,78.7969 A6,6 0 0 0 1196,84.7969 " fill="#FFF7ED" style="stroke:#181818;stroke-width:0.5;"/><path d="M1562,78.7969 L1562,85.7969 A3,3 0 0 0 1565,88.7969 L1572,88.7969 L1562,78.7969 " fill="#FFF7ED" style="stroke:#181818;stroke-width:0.5;"/><text fill="#0F172A" font-family="sans-serif" font-size="13" lengthAdjust="spacing" textLength="69" x="1202" y="95.8638">Archetype:</text><text fill="#0F172A" font-family="sans-serif" font-size="13" lengthAdjust="spacing" textLength="138" x="1202" y="110.9966">- resolved-drift-delete</text><text fill="#0F172A" font-family="sans-serif" font-size="13" lengthAdjust="spacing" textLength="102" x="1202" y="126.1294">Update surface:</text><text fill="#0F172A" font-family="sans-serif" font-size="13" lengthAdjust="spacing" textLength="81" x="1202" y="141.2622">- node count</text><text fill="#0F172A" font-family="sans-serif" font-size="13" lengthAdjust="spacing" textLength="81" x="1202" y="156.395">- node sizing</text><text fill="#0F172A" font-family="sans-serif" font-size="13" lengthAdjust="spacing" textLength="114" x="1202" y="171.5278">- security settings</text><text fill="#0F172A" font-family="sans-serif" font-size="13" lengthAdjust="spacing" textLength="113" x="1202" y="186.6606">- software version</text><text fill="#0F172A" font-family="sans-serif" font-size="13" lengthAdjust="spacing" textLength="94" x="1202" y="201.7935">- freeformTags</text><text fill="#0F172A" font-family="sans-serif" font-size="13" lengthAdjust="spacing" textLength="86" x="1202" y="216.9263">- definedTags</text><text fill="#0F172A" font-family="sans-serif" font-size="13" lengthAdjust="spacing" textLength="139" x="1202" y="232.0591">Reject before mutate:</text><text fill="#0F172A" font-family="sans-serif" font-size="13" lengthAdjust="spacing" textLength="180" x="1202" y="247.1919">- immutable networking drift</text><text fill="#0F172A" font-family="sans-serif" font-size="13" lengthAdjust="spacing" textLength="183" x="1202" y="262.3247">- immutable host-shape drift</text><text fill="#0F172A" font-family="sans-serif" font-size="13" lengthAdjust="spacing" textLength="105" x="1202" y="277.4575">Boundary notes:</text><text fill="#0F172A" font-family="sans-serif" font-size="13" lengthAdjust="spacing" textLength="355" x="1202" y="292.5903">- Supported drift splits into immutable-reject, horizontal</text><text fill="#0F172A" font-family="sans-serif" font-size="13" lengthAdjust="spacing" textLength="334" x="1218" y="307.7231">resize, vertical resize, and general update branches.</text></g><g id="elem_GMN37"><path d="M1632,379.7969 L1632,378.5469 L1440.67,382.5469 L1632,386.5469 L1632,468.5938 A6,6 0 0 0 1638,474.5938 L1997,474.5938 A6,6 0 0 0 2003,468.5938 L2003,383.7969 L1993,373.7969 L1638,373.7969 A6,6 0 0 0 1632,379.7969 " fill="#FFF7ED" style="stroke:#181818;stroke-width:0.5;"/><path d="M1993,373.7969 L1993,380.7969 A3,3 0 0 0 1996,383.7969 L2003,383.7969 L1993,373.7969 " fill="#FFF7ED" style="stroke:#181818;stroke-width:0.5;"/><text fill="#0F172A" font-family="sans-serif" font-size="13" lengthAdjust="spacing" textLength="90" x="1638" y="390.8638">Delete states:</text><text fill="#0F172A" font-family="sans-serif" font-size="13" lengthAdjust="spacing" textLength="102" x="1638" y="405.9966">- DeletePending</text><text fill="#0F172A" font-family="sans-serif" font-size="13" lengthAdjust="spacing" textLength="59" x="1638" y="421.1294">- Deleted</text><text fill="#0F172A" font-family="sans-serif" font-size="13" lengthAdjust="spacing" textLength="103" x="1638" y="436.2622">Delete workflow:</text><text fill="#0F172A" font-family="sans-serif" font-size="13" lengthAdjust="spacing" textLength="350" x="1638" y="451.395">- Confirm deletion with GetOpenSearchCluster until the</text><text fill="#0F172A" font-family="sans-serif" font-size="13" lengthAdjust="spacing" textLength="218" x="1654" y="466.5278">resource is DELETED or not found.</text></g><!--link *start to Observe--><g id="link_*start_Observe"><path d="M26.08,362.2969 C26.08,362.2969 80.84,362.2969 80.84,362.2969 " fill="none" id="*start-to-Observe" style="stroke:#181818;stroke-width:1.0;"/><polygon fill="#181818" points="85.84,362.2969,76.84,358.2969,80.84,362.2969,76.84,366.2969,85.84,362.2969" style="stroke:#181818;stroke-width:1.0;"/></g><!--link Observe to ResolveByName--><g id="link_Observe_ResolveByName"><path d="M415.34,362.2969 C415.34,362.2969 469.86,362.2969 469.86,362.2969 " fill="none" id="Observe-to-ResolveByName" style="stroke:#181818;stroke-width:1.0;"/><polygon fill="#181818" points="474.86,362.2969,465.86,358.2969,469.86,362.2969,465.86,366.2969,474.86,362.2969" style="stroke:#181818;stroke-width:1.0;"/><text fill="#000000" font-family="sans-serif" font-size="13" lengthAdjust="spacing" textLength="163" x="443.6" y="375.3638">status/spec OCID missing</text></g><!--link ResolveByName to EvaluateReady--><g id="link_ResolveByName_EvaluateReady"><path d="M597.36,360.6969 C631.83,360.6969 668,360.6969 668,360.6969 C668,360.6969 668,164.3369 668,164.3369 " fill="none" id="ResolveByName-to-EvaluateReady" style="stroke:#181818;stroke-width:1.0;"/><polygon fill="#181818" points="668,159.3369,664,168.3369,668,164.3369,672,168.3369,668,159.3369" style="stroke:#181818;stroke-width:1.0;"/><text fill="#000000" font-family="sans-serif" font-size="13" lengthAdjust="spacing" textLength="123" x="544" y="310.9038">OCI state in ACTIVE</text></g><!--link ResolveByName to Retryable--><g id="link_ResolveByName_Retryable"><path d="M597.27,367.8969 C597.27,367.8969 1056,367.8969 1056,367.8969 " fill="none" id="ResolveByName-to-Retryable" style="stroke:#181818;stroke-width:1.0;"/><polygon fill="#181818" points="1061,367.8969,1052,363.8969,1056,367.8969,1052,371.8969,1061,367.8969" style="stroke:#181818;stroke-width:1.0;"/><text fill="#000000" font-family="sans-serif" font-size="13" lengthAdjust="spacing" textLength="217" x="827.63" y="380.9638">OCI state in CREATING, UPDATING</text></g><!--link ResolveByName to Failed--><g id="link_ResolveByName_Failed"><path d="M597.41,375.0969 C648.53,375.0969 713,375.0969 713,375.0969 C713,375.0969 713,428.1569 713,428.1569 " fill="none" id="ResolveByName-to-Failed" style="stroke:#181818;stroke-width:1.0;"/><polygon fill="#181818" points="713,433.1569,717,424.1569,713,428.1569,709,424.1569,713,433.1569" style="stroke:#181818;stroke-width:1.0;"/><text fill="#000000" font-family="sans-serif" font-size="13" lengthAdjust="spacing" textLength="188" x="682.74" y="371.1638">OCI state in FAILED, DELETED</text></g><!--link EvaluateReady to RejectUnsupportedDrift--><g id="link_EvaluateReady_RejectUnsupportedDrift"><path d="M768.05,132.6269 C802.41,132.6269 840,132.6269 840,132.6269 C840,132.6269 840,89.4269 840,89.4269 " fill="none" id="EvaluateReady-to-RejectUnsupportedDrift" style="stroke:#181818;stroke-width:1.0;"/><polygon fill="#181818" points="840,84.4269,836,93.4269,840,89.4269,844,93.4269,840,84.4269" style="stroke:#181818;stroke-width:1.0;"/><text fill="#000000" font-family="sans-serif" font-size="13" lengthAdjust="spacing" textLength="275" x="549.63" y="128.6938">unsupported or immutable drift is detected</text></g><!--link RejectUnsupportedDrift to Ready--><g id="link_RejectUnsupportedDrift_Ready"><path d="M990,84.3769 C990,124.0569 990,208.6969 990,208.6969 C990,208.6969 1066.96,208.6969 1066.96,208.6969 " fill="none" id="RejectUnsupportedDrift-to-Ready" style="stroke:#181818;stroke-width:1.0;"/><polygon fill="#181818" points="1071.96,208.6969,1062.96,204.6969,1066.96,208.6969,1062.96,212.6969,1071.96,208.6969" style="stroke:#181818;stroke-width:1.0;"/><text fill="#000000" font-family="sans-serif" font-size="13" lengthAdjust="spacing" textLength="252" x="737" y="181.0838">wait for the spec or live state to change</text></g><!--link EvaluateReady to HorizontalResize--><g id="link_EvaluateReady_HorizontalResize"><path d="M768.23,145.9669 C768.23,145.9669 846.47,145.9669 846.47,145.9669 " fill="none" id="EvaluateReady-to-HorizontalResize" style="stroke:#181818;stroke-width:1.0;"/><polygon fill="#181818" points="851.47,145.9669,842.47,141.9669,846.47,145.9669,842.47,149.9669,851.47,145.9669" style="stroke:#181818;stroke-width:1.0;"/><text fill="#000000" font-family="sans-serif" font-size="13" lengthAdjust="spacing" textLength="158" x="648.35" y="159.0338">continue active reconcile</text></g><!--link HorizontalResize to Ready--><g id="link_HorizontalResize_Ready"><path d="M973,159.4269 C973,182.1169 973,215.8969 973,215.8969 C973,215.8969 1066.88,215.8969 1066.88,215.8969 " fill="none" id="HorizontalResize-to-Ready" style="stroke:#181818;stroke-width:1.0;"/><polygon fill="#181818" points="1071.88,215.8969,1062.88,211.8969,1066.88,215.8969,1062.88,219.8969,1071.88,215.8969" style="stroke:#181818;stroke-width:1.0;"/><text fill="#000000" font-family="sans-serif" font-size="13" lengthAdjust="spacing" textLength="169" x="992.71" y="228.9638">horizontal resize succeeds</text></g><!--link VerticalResize to Ready--><g id="link_VerticalResize_Ready"><path d="M968.22,223.0969 C968.22,223.0969 1066.85,223.0969 1066.85,223.0969 " fill="none" id="VerticalResize-to-Ready" style="stroke:#181818;stroke-width:1.0;"/><polygon fill="#181818" points="1071.85,223.0969,1062.85,219.0969,1066.85,223.0969,1062.85,227.0969,1071.85,223.0969" style="stroke:#181818;stroke-width:1.0;"/><text fill="#000000" font-family="sans-serif" font-size="13" lengthAdjust="spacing" textLength="152" x="1018.53" y="219.1638">vertical resize succeeds</text></g><!--link ApplyUpdate to Ready--><g id="link_ApplyUpdate_Ready"><path d="M963.46,289.2969 C1018.12,289.2969 1099,289.2969 1099,289.2969 C1099,289.2969 1099,235.6369 1099,235.6369 " fill="none" id="ApplyUpdate-to-Ready" style="stroke:#181818;stroke-width:1.0;"/><polygon fill="#181818" points="1099,230.6369,1095,239.6369,1099,235.6369,1103,239.6369,1099,230.6369" style="stroke:#181818;stroke-width:1.0;"/><text fill="#000000" font-family="sans-serif" font-size="13" lengthAdjust="spacing" textLength="231" x="1059.06" y="302.3638">supported mutation path completes</text></g><!--link Ready to Ready--><g id="link_Ready_Ready"><path d="M1071.92,201.4969 C1068.97,201.4969 1067,201.4969 1067,201.4969 C1067,201.4969 1067,174.7969 1067,174.7969 C1067,174.7969 1131,174.7969 1131,174.7969 C1131,174.7969 1131,200.2969 1131,200.2969 C1131,200.2969 1130.04,200.2969 1130.04,200.2969 " fill="none" id="Ready-to-Ready" style="stroke:#181818;stroke-width:1.0;"/><polygon fill="#181818" points="1125.04,200.2969,1134.04,204.2969,1130.04,200.2969,1134.04,196.2969,1125.04,200.2969" style="stroke:#181818;stroke-width:1.0;"/><text fill="#000000" font-family="sans-serif" font-size="13" lengthAdjust="spacing" textLength="170" x="920.42" y="165.8638">no supported drift remains</text></g><!--link Retryable to Retryable--><g id="link_Retryable_Retryable"><path d="M1060.8,353.4969 C1045.34,353.4969 1031,353.4969 1031,353.4969 C1031,353.4969 1031,322.9669 1031,322.9669 C1031,322.9669 1156,322.9669 1156,322.9669 C1156,322.9669 1156,360.0469 1156,360.0469 C1156,360.0469 1141.21,360.0469 1141.21,360.0469 " fill="none" id="Retryable-to-Retryable" style="stroke:#181818;stroke-width:1.0;"/><polygon fill="#181818" points="1136.21,360.0469,1145.21,364.0469,1141.21,360.0469,1145.21,356.0469,1136.21,360.0469" style="stroke:#181818;stroke-width:1.0;"/><text fill="#000000" font-family="sans-serif" font-size="13" lengthAdjust="spacing" textLength="159" x="1095.27" y="334.2838">OCI remains nonterminal</text></g><!--link Failed to Failed--><g id="link_Failed_Failed"><path d="M687.43,453.2969 C682.08,453.2969 678,453.2969 678,453.2969 C678,453.2969 678,492.7969 678,492.7969 C678,492.7969 753,492.7969 753,492.7969 C753,492.7969 753,446.6269 753,446.6269 C753,446.6269 742.92,446.6269 742.92,446.6269 " fill="none" id="Failed-to-Failed" style="stroke:#181818;stroke-width:1.0;"/><polygon fill="#181818" points="737.92,446.6269,746.92,450.6269,742.92,446.6269,746.92,442.6269,737.92,446.6269" style="stroke:#181818;stroke-width:1.0;"/><text fill="#000000" font-family="sans-serif" font-size="13" lengthAdjust="spacing" textLength="135" x="578.16" y="510.8638">OCI remains terminal</text></g><!--link Ready to DeletePending--><g id="link_Ready_DeletePending"><path d="M1125.17,220.2969 C1147.59,220.2969 1176,220.2969 1176,220.2969 C1176,220.2969 1176,368.7969 1176,368.7969 C1176,368.7969 1322.44,368.7969 1322.44,368.7969 " fill="none" id="Ready-to-DeletePending" style="stroke:#181818;stroke-width:1.0;"/><polygon fill="#181818" points="1327.44,368.7969,1318.44,364.7969,1322.44,368.7969,1318.44,372.7969,1327.44,368.7969" style="stroke:#181818;stroke-width:1.0;"/><text fill="#000000" font-family="sans-serif" font-size="13" lengthAdjust="spacing" textLength="109" x="1177" y="355.4138">delete requested</text></g><!--link Retryable to DeletePending--><g id="link_Retryable_DeletePending"><path d="M1136.12,377.5469 C1136.12,377.5469 1322.33,377.5469 1322.33,377.5469 " fill="none" id="Retryable-to-DeletePending" style="stroke:#181818;stroke-width:1.0;"/><polygon fill="#181818" points="1327.33,377.5469,1318.33,373.5469,1322.33,377.5469,1318.33,381.5469,1327.33,377.5469" style="stroke:#181818;stroke-width:1.0;"/><text fill="#000000" font-family="sans-serif" font-size="13" lengthAdjust="spacing" textLength="109" x="1119.23" y="390.6138">delete requested</text></g><!--link Failed to DeletePending--><g id="link_Failed_DeletePending"><path d="M737.6,459.9669 C859.5,459.9669 1384,459.9669 1384,459.9669 C1384,459.9669 1384,396.4169 1384,396.4169 " fill="none" id="Failed-to-DeletePending" style="stroke:#181818;stroke-width:1.0;"/><polygon fill="#181818" points="1384,391.4169,1380,400.4169,1384,396.4169,1388,400.4169,1384,391.4169" style="stroke:#181818;stroke-width:1.0;"/><text fill="#000000" font-family="sans-serif" font-size="13" lengthAdjust="spacing" textLength="109" x="982.57" y="473.0338">delete requested</text></g><!--link DeletePending to Deleted--><g id="link_DeletePending_Deleted"><path d="M1440.74,366.2969 C1558.38,366.2969 1818,366.2969 1818,366.2969 C1818,366.2969 1818,343.3769 1818,343.3769 " fill="none" id="DeletePending-to-Deleted" style="stroke:#181818;stroke-width:1.0;"/><polygon fill="#181818" points="1818,338.3769,1814,347.3769,1818,343.3769,1822,347.3769,1818,338.3769" style="stroke:#181818;stroke-width:1.0;"/><text fill="#000000" font-family="sans-serif" font-size="13" lengthAdjust="spacing" textLength="373" x="1641.83" y="362.3638">OCI deletion is confirmed and the finalizer can be removed</text></g><!--link Deleted to Deleted--><g id="link_Deleted_Deleted"><path d="M1784.95,330.1269 C1752.99,330.1269 1709,330.1269 1709,330.1269 C1709,330.1269 1709,358.7969 1709,358.7969 C1709,358.7969 1927,358.7969 1927,358.7969 C1927,358.7969 1927,318.2969 1927,318.2969 C1927,318.2969 1855.06,318.2969 1855.06,318.2969 " fill="none" id="Deleted-to-Deleted" style="stroke:#181818;stroke-width:1.0;"/><polygon fill="#181818" points="1850.06,318.2969,1859.06,322.2969,1855.06,318.2969,1859.06,314.2969,1850.06,318.2969" style="stroke:#181818;stroke-width:1.0;"/><text fill="#000000" font-family="sans-serif" font-size="13" lengthAdjust="spacing" textLength="100" x="1715.91" y="349.8638">terminal stutter</text></g><!--SRC=[XLLDSzis4BtZL-nCRnsnJTAuRdpeZ3vJpwHnHfPpwVG0WqiHDGYm02XLwUI_TnSWBKfM9xx8n7xWxUxRXwYZGRXhqS8zIgzgc9ikHFImHkMiqcIzZp8Y_2vLhIqAWrM4wC3hRHsXr1vLrCwAMfS8sBJn02K6vNMRZiEJjgtqie5GozBjjTr29Kt0aSLGtdXe4PoFjHiPlEjigPotXEVrcv5X9jNJDbddpZWFtwtItyYZn4fs9cxmdpWrUciRj14O-nXHAknV0J1plaJVvtfxVNNrypiwNJaR-xDNgzVNRwRi-UBcNrRJrLny7UMrxbBQsTkhdrwzkvXYjRfUBYvU-5NyyVsVK1I_mjrZGBz3qV_23NYK9OGMrIHLqeK9LMsGxjOsKhaJaBQ4k_ajDRX2TL3c6CqPrnYSsU7iy54sd2yd-P4pSjG26Xq2pKkSEdBeSYTDHyrR4uG3XV8bkPlQmdI-kVsyl12rnkWFyj7WUSHylPnkRZ- -dy33fqNwxqBqIX8Po_FGrVJsmt8nWSNomt93JJn5bc_zYoZwO4FNjaGmB1TU4uLle3iU4VD0DqqN4xeoEUX0xOmKYgNudnmvVMx1Nke85UM9DQQfS4wZgTSPAwsCggNTuWM8lpcllz3ifQ6ozHVk3orVrBP3aBHUbCGFwoXUE8zHrCz6YaZMq2c5M0Rn6NtKwcBKhZUzY9cshJayj2KNC0uuDevxneiEhOmreMvQPc0Gu_xd6Ej6ORd57XkfBJiFnBX4azwB4X2jVQEjDA8dmmjU3BxFZaSSYxGRdz2Mh44tmwvu_Bl3a8SyHl5Dzn64R_gUEXn31jWfWBj8fACvLzetPEFrPJPLN0dDnOEI5XuvSUDspsdBiuH3xKIyBjA744cGic2xAWz4J4dia-hUY8BdpjjM5cakHSOl-i67pbTI9J_hIEGLILSSFeWlB14515ITrwJ-0ICnTnlup5LnBpqomGA_1WLK7f6sfDd8v44oJU9Vfg-yP5GVsJ4JArrwN4nw9lREFt4F4z0JO-r2BEYHQVi55ZEMMEaFIOy3Pxe_urzeZOw1vT8T4nK-uPYCTeca6VhTc9mlIrRPBT8RHMTTRjcZbvRQ6tuGDF9q__aGJXZH3p8hHK9wQXw-Xua3Tw4oRi-kyyoN8uVscZRnFKP-rVEZFhpfD3Tjc593GQxp2fbqlNooPX5EqZ5gtGZyVm00]--></g></svg>