<?xml version="1.0" encoding="UTF-8" standalone="no"?><svg xmlns="http://www.w3.org/2000/svg" xmlns:xlink="http://www.w3.org/1999/xlink" contentStyleType="text/css" height="1184px" preserveAspectRatio="none" style="width:1598px;height:1184px;background:#FFFFFF;" version="1.1" viewBox="0 0 1598 1184" width="1598px" zoomAndPan="magnify"><defs/><g><text fill="#000000" font-family="sans-serif" font-size="14" font-weight="bold" lengthAdjust="spacing" textLength="313" x="641.125" y="32.9951">Functions Application Reconcile Activity</text><ellipse cx="590.625" cy="57.2969" fill="#0F766E" rx="10" ry="10" style="stroke:#222222;stroke-width:1.0;"/><rect fill="none" height="254.2031" style="stroke:#000000;stroke-width:1.5;" width="686" x="268.125" y="77.2969"/><path d="M401.125,77.2969 L401.125,86.5938 L391.125,96.5938 L268.125,96.5938 " fill="none" style="stroke:#000000;stroke-width:1.5;"/><text fill="#000000" font-family="sans-serif" font-size="14" lengthAdjust="spacing" textLength="123" x="271.125" y="91.292">Observe and Bind</text><rect fill="#F8FAFC" height="33.9688" rx="12.5" ry="12.5" style="stroke:#475569;stroke-width:0.5;" width="304" x="438.625" y="113.5938"/><text fill="#0F172A" font-family="sans-serif" font-size="12" lengthAdjust="spacing" textLength="284" x="448.625" y="134.7324">Read CR spec, status OCID, and delete intent</text><polygon fill="#E2E8F0" points="490.625,167.5625,690.625,167.5625,702.625,179.5625,690.625,191.5625,490.625,191.5625,478.625,179.5625,490.625,167.5625" style="stroke:#475569;stroke-width:0.5;"/><text fill="#0F172A" font-family="sans-serif" font-size="11" lengthAdjust="spacing" textLength="200" x="490.625" y="183.3706">"Tracked or explicit OCID present?"</text><text fill="#000000" font-family="sans-serif" font-size="11" lengthAdjust="spacing" textLength="20" x="458.625" y="176.9683">yes</text><text fill="#000000" font-family="sans-serif" font-size="11" lengthAdjust="spacing" textLength="14" x="702.625" y="176.9683">no</text><rect fill="#F8FAFC" height="33.9688" rx="12.5" ry="12.5" style="stroke:#475569;stroke-width:0.5;" width="272" x="288.125" y="201.5625"/><text fill="#0F172A" font-family="sans-serif" font-size="12" lengthAdjust="spacing" textLength="252" x="298.125" y="222.7012">Get the OCI resource by known identifier</text><rect fill="#F8FAFC" height="33.9688" rx="12.5" ry="12.5" style="stroke:#475569;stroke-width:0.5;" width="328" x="593.125" y="201.5625"/><text fill="#0F172A" font-family="sans-serif" font-size="12" lengthAdjust="spacing" textLength="308" x="603.125" y="222.7012">Resolve an existing OCI resource by display name</text><rect fill="#F8FAFC" height="33.9688" rx="12.5" ry="12.5" style="stroke:#475569;stroke-width:0.5;" width="354" x="580.125" y="255.5313"/><text fill="#0F172A" font-family="sans-serif" font-size="12" lengthAdjust="spacing" textLength="334" x="590.125" y="276.6699">Persist the resolved or created OCID back into status</text><polygon fill="#E2E8F0" points="590.625,295.5,602.625,307.5,590.625,319.5,578.625,307.5,590.625,295.5" style="stroke:#475569;stroke-width:0.5;"/><path d="M1213.25,620.6797 L1213.25,933.3359 L1586.25,933.3359 L1586.25,630.6797 L1576.25,620.6797 L1213.25,620.6797 " fill="#FEFFDD" style="stroke:#181818;stroke-width:0.5;"/><path d="M1576.25,620.6797 L1576.25,630.6797 L1586.25,630.6797 L1576.25,620.6797 " fill="#FEFFDD" style="stroke:#181818;stroke-width:0.5;"/><text fill="#000000" font-family="sans-serif" font-size="13" lengthAdjust="spacing" textLength="69" x="1219.25" y="637.7466">Archetype:</text><text fill="#000000" font-family="sans-serif" font-size="13" lengthAdjust="spacing" textLength="138" x="1219.25" y="652.8794">- resolved-drift-delete</text><text fill="#000000" font-family="sans-serif" font-size="13" lengthAdjust="spacing" textLength="134" x="1219.25" y="668.0122">Retryable OCI states:</text><text fill="#000000" font-family="sans-serif" font-size="13" lengthAdjust="spacing" textLength="73" x="1219.25" y="683.145">- CREATING</text><text fill="#000000" font-family="sans-serif" font-size="13" lengthAdjust="spacing" textLength="76" x="1219.25" y="698.2778">- UPDATING</text><text fill="#000000" font-family="sans-serif" font-size="13" lengthAdjust="spacing" textLength="113" x="1219.25" y="713.4106">Active OCI states:</text><text fill="#000000" font-family="sans-serif" font-size="13" lengthAdjust="spacing" textLength="54" x="1219.25" y="728.5435">- ACTIVE</text><text fill="#000000" font-family="sans-serif" font-size="13" lengthAdjust="spacing" textLength="111" x="1219.25" y="743.6763">Failed OCI states:</text><text fill="#000000" font-family="sans-serif" font-size="13" lengthAdjust="spacing" textLength="53" x="1219.25" y="758.8091">- FAILED</text><text fill="#000000" font-family="sans-serif" font-size="13" lengthAdjust="spacing" textLength="67" x="1219.25" y="773.9419">- DELETED</text><text fill="#000000" font-family="sans-serif" font-size="13" lengthAdjust="spacing" textLength="102" x="1219.25" y="789.0747">Update surface:</text><text fill="#000000" font-family="sans-serif" font-size="13" lengthAdjust="spacing" textLength="47" x="1219.25" y="804.2075">- config</text><text fill="#000000" font-family="sans-serif" font-size="13" lengthAdjust="spacing" textLength="168" x="1219.25" y="819.3403">- networkSecurityGroupIds</text><text fill="#000000" font-family="sans-serif" font-size="13" lengthAdjust="spacing" textLength="67" x="1219.25" y="834.4731">- syslogUrl</text><text fill="#000000" font-family="sans-serif" font-size="13" lengthAdjust="spacing" textLength="94" x="1219.25" y="849.606">- freeformTags</text><text fill="#000000" font-family="sans-serif" font-size="13" lengthAdjust="spacing" textLength="86" x="1219.25" y="864.7388">- definedTags</text><text fill="#000000" font-family="sans-serif" font-size="13" lengthAdjust="spacing" textLength="175" x="1219.25" y="879.8716">Reject before mutate: none</text><text fill="#000000" font-family="sans-serif" font-size="13" lengthAdjust="spacing" textLength="105" x="1219.25" y="895.0044">Boundary notes:</text><text fill="#000000" font-family="sans-serif" font-size="13" lengthAdjust="spacing" textLength="352" x="1219.25" y="910.1372">- The current formal partition omits OCI DELETING even</text><text fill="#000000" font-family="sans-serif" font-size="13" lengthAdjust="spacing" textLength="307" x="1235.25" y="925.27">though the controller code treats it as retryable.</text><polygon fill="#E2E8F0" points="533.625,351.5,647.625,351.5,659.625,363.5,647.625,375.5,533.625,375.5,521.625,363.5,533.625,351.5" style="stroke:#475569;stroke-width:0.5;"/><text fill="#0F172A" font-family="sans-serif" font-size="11" lengthAdjust="spacing" textLength="114" x="533.625" y="367.3081">"Delete requested?"</text><text fill="#000000" font-family="sans-serif" font-size="11" lengthAdjust="spacing" textLength="20" x="501.625" y="360.9058">yes</text><text fill="#000000" font-family="sans-serif" font-size="11" lengthAdjust="spacing" textLength="14" x="659.625" y="360.9058">no</text><rect fill="none" height="220.2031" style="stroke:#000000;stroke-width:1.5;" width="541" x="11" y="385.5"/><path d="M67,385.5 L67,394.7969 L57,404.7969 L11,404.7969 " fill="none" style="stroke:#000000;stroke-width:1.5;"/><text fill="#000000" font-family="sans-serif" font-size="14" lengthAdjust="spacing" textLength="46" x="14" y="399.4951">Delete</text><rect fill="#F8FAFC" height="33.9688" rx="12.5" ry="12.5" style="stroke:#475569;stroke-width:0.5;" width="290" x="136.5" y="421.7969"/><text fill="#0F172A" font-family="sans-serif" font-size="12" lengthAdjust="spacing" textLength="270" x="146.5" y="442.9355">Submit OCI delete for Functions Application</text><rect fill="#F8FAFC" height="33.9688" rx="12.5" ry="12.5" style="stroke:#475569;stroke-width:0.5;" width="521" x="21" y="490.7656"/><text fill="#0F172A" font-family="sans-serif" font-size="12" lengthAdjust="spacing" textLength="501" x="31" y="511.9043">Confirm deletion with GetApplication until the resource is DELETED or not found.</text><rect fill="#F8FAFC" height="33.9688" rx="12.5" ry="12.5" style="stroke:#475569;stroke-width:0.5;" width="338" x="112.5" y="559.7344"/><text fill="#0F172A" font-family="sans-serif" font-size="12" lengthAdjust="spacing" textLength="318" x="122.5" y="580.873">Remove the finalizer after OCI deletion is confirmed</text><ellipse cx="281.5" cy="651.7031" fill="none" rx="11" ry="11" style="stroke:#222222;stroke-width:1.0;"/><ellipse cx="281.5" cy="651.7031" fill="#222222" rx="6" ry="6" style="stroke:#111111;stroke-width:1.0;"/><rect fill="none" height="422.8438" style="stroke:#000000;stroke-width:1.5;" width="376" x="717.75" y="385.5"/><path d="M878.75,385.5 L878.75,394.7969 L868.75,404.7969 L717.75,404.7969 " fill="none" style="stroke:#000000;stroke-width:1.5;"/><text fill="#000000" font-family="sans-serif" font-size="14" lengthAdjust="spacing" textLength="151" x="720.75" y="399.4951">Lifecycle Classification</text><rect fill="#F8FAFC" height="33.9688" rx="12.5" ry="12.5" style="stroke:#475569;stroke-width:0.5;" width="268" x="765.75" y="470.1992"/><text fill="#0F172A" font-family="sans-serif" font-size="12" lengthAdjust="spacing" textLength="248" x="775.75" y="491.3379">Request requeue and keep the finalizer</text><ellipse cx="899.75" cy="550.168" fill="none" rx="11" ry="11" style="stroke:#222222;stroke-width:1.0;"/><ellipse cx="899.75" cy="550.168" fill="#222222" rx="6" ry="6" style="stroke:#111111;stroke-width:1.0;"/><polygon fill="#E2E8F0" points="819.75,421.7969,979.75,421.7969,991.75,433.7969,979.75,445.7969,819.75,445.7969,807.75,433.7969,819.75,421.7969" style="stroke:#475569;stroke-width:0.5;"/><text fill="#000000" font-family="sans-serif" font-size="11" lengthAdjust="spacing" textLength="20" x="903.75" y="456.0073">yes</text><text fill="#0F172A" font-family="sans-serif" font-size="11" lengthAdjust="spacing" textLength="160" x="819.75" y="437.605">"OCI state in retryable set?"</text><rect fill="#F8FAFC" height="33.9688" rx="12.5" ry="12.5" style="stroke:#475569;stroke-width:0.5;" width="324" x="737.75" y="666.9727"/><text fill="#0F172A" font-family="sans-serif" font-size="12" lengthAdjust="spacing" textLength="304" x="747.75" y="688.1113">Return an unsuccessful terminal reconcile result</text><ellipse cx="899.75" cy="746.9414" fill="none" rx="11" ry="11" style="stroke:#222222;stroke-width:1.0;"/><ellipse cx="899.75" cy="746.9414" fill="#222222" rx="6" ry="6" style="stroke:#111111;stroke-width:1.0;"/><polygon fill="#E2E8F0" points="829.75,618.5703,969.75,618.5703,981.75,630.5703,969.75,642.5703,829.75,642.5703,817.75,630.5703,829.75,618.5703" style="stroke:#475569;stroke-width:0.5;"/><text fill="#000000" font-family="sans-serif" font-size="11" lengthAdjust="spacing" textLength="20" x="903.75" y="652.7808">yes</text><text fill="#0F172A" font-family="sans-serif" font-size="11" lengthAdjust="spacing" textLength="140" x="829.75" y="634.3784">"OCI state in failed set?"</text><rect fill="none" height="323.1719" style="stroke:#000000;stroke-width:1.5;" width="631.25" x="572" y="843.3438"/><path d="M751,843.3438 L751,852.6406 L741,862.6406 L572,862.6406 " fill="none" style="stroke:#000000;stroke-width:1.5;"/><text fill="#000000" font-family="sans-serif" font-size="14" lengthAdjust="spacing" textLength="169" x="575" y="857.3389">Ready and Drift Handling</text><rect fill="#F8FAFC" height="33.9688" rx="12.5" ry="12.5" style="stroke:#475569;stroke-width:0.5;" width="364" x="717.75" y="879.6406"/><text fill="#0F172A" font-family="sans-serif" font-size="12" lengthAdjust="spacing" textLength="344" x="727.75" y="900.7793">Compare live OCI state with the supported drift surface</text><rect fill="#F8FAFC" height="33.9688" rx="12.5" ry="12.5" style="stroke:#475569;stroke-width:0.5;" width="587" x="606.25" y="948.6094"/><text fill="#0F172A" font-family="sans-serif" font-size="12" lengthAdjust="spacing" textLength="567" x="616.25" y="969.748">Apply diff-based updates through the resolved OCID instead of restarting name resolution.</text><polygon fill="#E2E8F0" points="822.25,1002.5781,977.25,1002.5781,989.25,1014.5781,977.25,1026.5781,822.25,1026.5781,810.25,1014.5781,822.25,1002.5781" style="stroke:#475569;stroke-width:0.5;"/><text fill="#0F172A" font-family="sans-serif" font-size="11" lengthAdjust="spacing" textLength="155" x="822.25" y="1018.3862">"Supported drift detected?"</text><text fill="#000000" font-family="sans-serif" font-size="11" lengthAdjust="spacing" textLength="20" x="790.25" y="1011.9839">yes</text><text fill="#000000" font-family="sans-serif" font-size="11" lengthAdjust="spacing" textLength="14" x="989.25" y="1011.9839">no</text><rect fill="#F8FAFC" height="33.9688" rx="12.5" ry="12.5" style="stroke:#475569;stroke-width:0.5;" width="329" x="592" y="1036.5781"/><text fill="#0F172A" font-family="sans-serif" font-size="12" lengthAdjust="spacing" textLength="309" x="602" y="1057.7168">Apply only the supported in-place update surface</text><rect fill="#F8FAFC" height="33.9688" rx="12.5" ry="12.5" style="stroke:#475569;stroke-width:0.5;" width="204" x="941" y="1036.5781"/><text fill="#0F172A" font-family="sans-serif" font-size="12" lengthAdjust="spacing" textLength="184" x="951" y="1057.7168">Skip the no-op mutation path</text><polygon fill="#E2E8F0" points="899.75,1076.5469,911.75,1088.5469,899.75,1100.5469,887.75,1088.5469,899.75,1076.5469" style="stroke:#475569;stroke-width:0.5;"/><rect fill="#F8FAFC" height="33.9688" rx="12.5" ry="12.5" style="stroke:#475569;stroke-width:0.5;" width="287" x="756.25" y="1120.5469"/><text fill="#0F172A" font-family="sans-serif" font-size="12" lengthAdjust="spacing" textLength="267" x="766.25" y="1141.6855">Return success for the usable active state</text><line style="stroke:#334155;stroke-width:1.0;" x1="757.125" x2="757.125" y1="235.5313" y2="255.5313"/><polygon fill="#334155" points="753.125,245.5313,757.125,255.5313,761.125,245.5313,757.125,249.5313" style="stroke:#334155;stroke-width:1.0;"/><line style="stroke:#334155;stroke-width:1.0;" x1="478.625" x2="424.125" y1="179.5625" y2="179.5625"/><line style="stroke:#334155;stroke-width:1.0;" x1="424.125" x2="424.125" y1="179.5625" y2="201.5625"/><polygon fill="#334155" points="420.125,191.5625,424.125,201.5625,428.125,191.5625,424.125,195.5625" style="stroke:#334155;stroke-width:1.0;"/><line style="stroke:#334155;stroke-width:1.0;" x1="702.625" x2="757.125" y1="179.5625" y2="179.5625"/><line style="stroke:#334155;stroke-width:1.0;" x1="757.125" x2="757.125" y1="179.5625" y2="201.5625"/><polygon fill="#334155" points="753.125,191.5625,757.125,201.5625,761.125,191.5625,757.125,195.5625" style="stroke:#334155;stroke-width:1.0;"/><line style="stroke:#334155;stroke-width:1.0;" x1="424.125" x2="424.125" y1="235.5313" y2="307.5"/><line style="stroke:#334155;stroke-width:1.0;" x1="424.125" x2="578.625" y1="307.5" y2="307.5"/><polygon fill="#334155" points="568.625,303.5,578.625,307.5,568.625,311.5,572.625,307.5" style="stroke:#334155;stroke-width:1.0;"/><line style="stroke:#334155;stroke-width:1.0;" x1="757.125" x2="757.125" y1="289.5" y2="307.5"/><line style="stroke:#334155;stroke-width:1.0;" x1="757.125" x2="602.625" y1="307.5" y2="307.5"/><polygon fill="#334155" points="612.625,303.5,602.625,307.5,612.625,311.5,608.625,307.5" style="stroke:#334155;stroke-width:1.0;"/><line style="stroke:#334155;stroke-width:1.0;" x1="590.625" x2="590.625" y1="147.5625" y2="167.5625"/><polygon fill="#334155" points="586.625,157.5625,590.625,167.5625,594.625,157.5625,590.625,161.5625" style="stroke:#334155;stroke-width:1.0;"/><line style="stroke:#334155;stroke-width:1.0;" x1="590.625" x2="590.625" y1="67.2969" y2="113.5938"/><polygon fill="#334155" points="586.625,103.5938,590.625,113.5938,594.625,103.5938,590.625,107.5938" style="stroke:#334155;stroke-width:1.0;"/><line style="stroke:#334155;stroke-width:1.0;" x1="281.5" x2="281.5" y1="455.7656" y2="490.7656"/><polygon fill="#334155" points="277.5,480.7656,281.5,490.7656,285.5,480.7656,281.5,484.7656" style="stroke:#334155;stroke-width:1.0;"/><line style="stroke:#334155;stroke-width:1.0;" x1="281.5" x2="281.5" y1="524.7344" y2="559.7344"/><polygon fill="#334155" points="277.5,549.7344,281.5,559.7344,285.5,549.7344,281.5,553.7344" style="stroke:#334155;stroke-width:1.0;"/><line style="stroke:#334155;stroke-width:1.0;" x1="281.5" x2="281.5" y1="593.7031" y2="640.7031"/><polygon fill="#334155" points="277.5,630.7031,281.5,640.7031,285.5,630.7031,281.5,634.7031" style="stroke:#334155;stroke-width:1.0;"/><line style="stroke:#334155;stroke-width:1.0;" x1="899.75" x2="899.75" y1="504.168" y2="539.168"/><polygon fill="#334155" points="895.75,529.168,899.75,539.168,903.75,529.168,899.75,533.168" style="stroke:#334155;stroke-width:1.0;"/><line style="stroke:#334155;stroke-width:1.0;" x1="899.75" x2="899.75" y1="445.7969" y2="470.1992"/><polygon fill="#334155" points="895.75,460.1992,899.75,470.1992,903.75,460.1992,899.75,464.1992" style="stroke:#334155;stroke-width:1.0;"/><line style="stroke:#334155;stroke-width:1.0;" x1="991.75" x2="1043.75" y1="433.7969" y2="433.7969"/><polygon fill="#334155" points="1039.75,502.6836,1043.75,512.6836,1047.75,502.6836,1043.75,506.6836" style="stroke:#334155;stroke-width:1.0;"/><line style="stroke:#334155;stroke-width:1.0;" x1="1043.75" x2="1043.75" y1="433.7969" y2="591.5703"/><line style="stroke:#334155;stroke-width:1.0;" x1="1043.75" x2="899.75" y1="591.5703" y2="591.5703"/><line style="stroke:#334155;stroke-width:1.0;" x1="899.75" x2="899.75" y1="591.5703" y2="618.5703"/><polygon fill="#334155" points="895.75,608.5703,899.75,618.5703,903.75,608.5703,899.75,612.5703" style="stroke:#334155;stroke-width:1.0;"/><line style="stroke:#334155;stroke-width:1.0;" x1="899.75" x2="899.75" y1="700.9414" y2="735.9414"/><polygon fill="#334155" points="895.75,725.9414,899.75,735.9414,903.75,725.9414,899.75,729.9414" style="stroke:#334155;stroke-width:1.0;"/><line style="stroke:#334155;stroke-width:1.0;" x1="899.75" x2="899.75" y1="642.5703" y2="666.9727"/><polygon fill="#334155" points="895.75,656.9727,899.75,666.9727,903.75,656.9727,899.75,660.9727" style="stroke:#334155;stroke-width:1.0;"/><line style="stroke:#334155;stroke-width:1.0;" x1="981.75" x2="1071.75" y1="630.5703" y2="630.5703"/><polygon fill="#334155" points="1067.75,699.457,1071.75,709.457,1075.75,699.457,1071.75,703.457" style="stroke:#334155;stroke-width:1.0;"/><line style="stroke:#334155;stroke-width:1.0;" x1="1071.75" x2="1071.75" y1="630.5703" y2="788.3438"/><line style="stroke:#334155;stroke-width:1.0;" x1="1071.75" x2="899.75" y1="788.3438" y2="788.3438"/><line style="stroke:#334155;stroke-width:1.0;" x1="899.75" x2="899.75" y1="788.3438" y2="879.6406"/><polygon fill="#334155" points="895.75,869.6406,899.75,879.6406,903.75,869.6406,899.75,873.6406" style="stroke:#334155;stroke-width:1.0;"/><line style="stroke:#334155;stroke-width:1.0;" x1="899.75" x2="899.75" y1="913.6094" y2="948.6094"/><polygon fill="#334155" points="895.75,938.6094,899.75,948.6094,903.75,938.6094,899.75,942.6094" style="stroke:#334155;stroke-width:1.0;"/><line style="stroke:#334155;stroke-width:1.0;" x1="810.25" x2="756.5" y1="1014.5781" y2="1014.5781"/><line style="stroke:#334155;stroke-width:1.0;" x1="756.5" x2="756.5" y1="1014.5781" y2="1036.5781"/><polygon fill="#334155" points="752.5,1026.5781,756.5,1036.5781,760.5,1026.5781,756.5,1030.5781" style="stroke:#334155;stroke-width:1.0;"/><line style="stroke:#334155;stroke-width:1.0;" x1="989.25" x2="1043" y1="1014.5781" y2="1014.5781"/><line style="stroke:#334155;stroke-width:1.0;" x1="1043" x2="1043" y1="1014.5781" y2="1036.5781"/><polygon fill="#334155" points="1039,1026.5781,1043,1036.5781,1047,1026.5781,1043,1030.5781" style="stroke:#334155;stroke-width:1.0;"/><line style="stroke:#334155;stroke-width:1.0;" x1="756.5" x2="756.5" y1="1070.5469" y2="1088.5469"/><line style="stroke:#334155;stroke-width:1.0;" x1="756.5" x2="887.75" y1="1088.5469" y2="1088.5469"/><polygon fill="#334155" points="877.75,1084.5469,887.75,1088.5469,877.75,1092.5469,881.75,1088.5469" style="stroke:#334155;stroke-width:1.0;"/><line style="stroke:#334155;stroke-width:1.0;" x1="1043" x2="1043" y1="1070.5469" y2="1088.5469"/><line style="stroke:#334155;stroke-width:1.0;" x1="1043" x2="911.75" y1="1088.5469" y2="1088.5469"/><polygon fill="#334155" points="921.75,1084.5469,911.75,1088.5469,921.75,1092.5469,917.75,1088.5469" style="stroke:#334155;stroke-width:1.0;"/><line style="stroke:#334155;stroke-width:1.0;" x1="899.75" x2="899.75" y1="982.5781" y2="1002.5781"/><polygon fill="#334155" points="895.75,992.5781,899.75,1002.5781,903.75,992.5781,899.75,996.5781" style="stroke:#334155;stroke-width:1.0;"/><line style="stroke:#334155;stroke-width:1.0;" x1="899.75" x2="899.75" y1="1100.5469" y2="1120.5469"/><polygon fill="#334155" points="895.75,1110.5469,899.75,1120.5469,903.75,1110.5469,899.75,1114.5469" style="stroke:#334155;stroke-width:1.0;"/><line style="stroke:#334155;stroke-width:1.0;" x1="521.625" x2="281.5" y1="363.5" y2="363.5"/><line style="stroke:#334155;stroke-width:1.0;" x1="281.5" x2="281.5" y1="363.5" y2="421.7969"/><polygon fill="#334155" points="277.5,411.7969,281.5,421.7969,285.5,411.7969,281.5,415.7969" style="stroke:#334155;stroke-width:1.0;"/><line style="stroke:#334155;stroke-width:1.0;" x1="659.625" x2="899.75" y1="363.5" y2="363.5"/><line style="stroke:#334155;stroke-width:1.0;" x1="899.75" x2="899.75" y1="363.5" y2="421.7969"/><polygon fill="#334155" points="895.75,411.7969,899.75,421.7969,903.75,411.7969,899.75,415.7969" style="stroke:#334155;stroke-width:1.0;"/><line style="stroke:#334155;stroke-width:1.0;" x1="899.75" x2="899.75" y1="1154.5156" y2="1172.5156"/><line style="stroke:#334155;stroke-width:1.0;" x1="899.75" x2="590.625" y1="1172.5156" y2="1172.5156"/><line style="stroke:#334155;stroke-width:1.0;" x1="590.625" x2="590.625" y1="319.5" y2="351.5"/><polygon fill="#334155" points="586.625,341.5,590.625,351.5,594.625,341.5,590.625,345.5" style="stroke:#334155;stroke-width:1.0;"/><!--SRC=[VLLjRzis4FwkNq5aNrAWBfgsIRhumw1OKcOWM0l7sNTQFDgSALBZIr9rw7_V7IaxTkhDW0rQl9Vdddlk55JGm9fesg2iyQpiUwrQJd_O0bfhMeNt9Tu-gJ0KVgjCpntlcDzmOP-LMJF9jOU3crlURjVEHYDcLbl7VcdIvy2YTCu-ZvSVFtwwkBmyk1GWUTHX2Tz2gTNQT602qo33WGqVyR1_2dOYt-UcR6PqOvq0DpxzT7rvUVKhFcsi2UEpzyt5zOSIdrMATzQ8dqBL7-hFpVi3WvCH7m9tBo6lhwvgV5ZlWrmt5zL5LVmeFDaL1TOGL6BuxClAWti2nerWjyg8irJHpGAuOBC5ypsqRncwXUZPbzcyUfii1MW8m9G9oCqK7PHavsTBX-X1C4m9twYBAYGVrZlmQFZRsHiMDc3O-G3-3NfXeZi8z8pi65hPw5fWgu5jZNqsJ0bqKrA1eoI0RMRdnewk2pJN2JgcKpwG55w74ShtcW_Cy0wcsUqhE8_MAQlB8HBarW4FU4o8LrW9bMV7sbDw8vH44ejKR9KfSF1t18z-FnLtG7AspTGYWeUuwZ8rEo8bvZyv0YFccJLIkIwRKyXd5JOCkJkSbeXKwNrPYG7bMLNVrykweWgD3PW9jVLkkcEmiqWWkKXbk5RVmJ4k0_xkmL5a3DDc1238zGT-VR1zSTYHWthlbOHsQ75kPvfxZmtC47SC908f0v5BCaB4mGryXHuUJkaaWKrCPyPZLkmMe3-6FntD4pmwvAwTpYevxXRnVob3T8O45esFRGlUouWKW-ie7qBPxITa75V6VoP7qHmHHECrf0egfsHWl-DHetxt4fdP3is1QVMKPoDZJcsdUdtiU-j8hY85yD59tkuaJgeWxKivMN6FHh4NwExH5NVBUdEi_IHuPL34EFDMqWMj2Hed6fji60dug9j4vCCh109rt9wQWmD4rk3FCNnb9ZYWADKCyRYGuu6doTcgt6zZ9xPdNGnP-ZqFc-chTk-wDpOkpHYvHfzqbZOuP5wpfhDh8RNbkNXBywtMcr2Khjr067guAIPxuYQfy4aUuMAnL_2-NPwiPukwNCx_kCFZuzSg7ykS-zYmd2tdVzP5apLvVDUKy_kwmiCupSNZ4LjaaWPqZGS3uTcwxGEqqU4RwWuxti-5nni_U6tNZqxZMJe0PAHRyZLTuJjF6H3ftmB-mawo5Tr3vXXka0q3nIrj3-w6n4r2jaH6CP6ZToJ5mwbuqRd5DPTU6natbixW2KngJzZibOZGWxDQuzffhS1zH9lOCroHtBziXdVKe9Iu-1S0]--></g></svg>