<?xml version="1.0" encoding="UTF-8" standalone="no"?><svg xmlns="http://www.w3.org/2000/svg" xmlns:xlink="http://www.w3.org/1999/xlink" contentStyleType="text/css" height="1169px" preserveAspectRatio="none" style="width:1140px;height:1169px;background:#FFFFFF;" version="1.1" viewBox="0 0 1140 1169" width="1140px" zoomAndPan="magnify"><defs/><g><text fill="#000000" font-family="sans-serif" font-size="14" font-weight="bold" lengthAdjust="spacing" textLength="334" x="404.75" y="27.9951">Functions Application Reconcile Sequence</text><rect fill="none" height="254.6719" style="stroke:#475569;stroke-width:1.5;" width="886" x="248.5" y="193.8594"/><rect fill="none" height="223.5391" style="stroke:#475569;stroke-width:1.5;" width="866" x="258.5" y="217.9922"/><rect fill="none" height="119.3359" style="stroke:#475569;stroke-width:1.5;" width="846" x="268.5" y="315.1953"/><rect fill="none" height="498.8047" style="stroke:#475569;stroke-width:1.5;" width="1114.5" x="10" y="462.5313"/><rect fill="none" height="104.5313" style="stroke:#475569;stroke-width:1.5;" width="846" x="268.5" y="486.6641"/><rect fill="none" height="217.3281" style="stroke:#475569;stroke-width:1.5;" width="754.5" x="258.5" y="707.875"/><rect fill="none" height="46.2656" style="stroke:#475569;stroke-width:1.5;" width="724" x="268.5" y="871.9375"/><line style="stroke:#94A3B8;stroke-width:0.5;stroke-dasharray:5.0,5.0;" x1="56" x2="56" y1="118.5938" y2="1089.1328"/><line style="stroke:#94A3B8;stroke-width:0.5;stroke-dasharray:5.0,5.0;" x1="342.5" x2="342.5" y1="118.5938" y2="1089.1328"/><line style="stroke:#94A3B8;stroke-width:0.5;stroke-dasharray:5.0,5.0;" x1="964.5" x2="964.5" y1="118.5938" y2="1089.1328"/><line style="stroke:#94A3B8;stroke-width:0.5;stroke-dasharray:5.0,5.0;" x1="1048.5" x2="1048.5" y1="118.5938" y2="1089.1328"/><text fill="#000000" font-family="sans-serif" font-size="14" lengthAdjust="spacing" textLength="67" x="20" y="115.292">Controller</text><ellipse cx="56.5" cy="50.7969" fill="#E0F2FE" rx="8" ry="8" style="stroke:#0F766E;stroke-width:0.5;"/><path d="M56.5,58.7969 L56.5,85.7969 M43.5,66.7969 L69.5,66.7969 M56.5,85.7969 L43.5,100.7969 M56.5,85.7969 L69.5,100.7969 " fill="none" style="stroke:#0F766E;stroke-width:0.5;"/><text fill="#000000" font-family="sans-serif" font-size="14" lengthAdjust="spacing" textLength="67" x="20" y="1101.1279">Controller</text><ellipse cx="56.5" cy="1112.9297" fill="#E0F2FE" rx="8" ry="8" style="stroke:#0F766E;stroke-width:0.5;"/><path d="M56.5,1120.9297 L56.5,1147.9297 M43.5,1128.9297 L69.5,1128.9297 M56.5,1147.9297 L43.5,1162.9297 M56.5,1147.9297 L69.5,1162.9297 " fill="none" style="stroke:#0F766E;stroke-width:0.5;"/><rect fill="#F8FAFC" height="30.2969" rx="2.5" ry="2.5" style="stroke:#475569;stroke-width:0.5;" width="128" x="278.5" y="87.2969"/><text fill="#000000" font-family="sans-serif" font-size="14" lengthAdjust="spacing" textLength="114" x="285.5" y="107.292">Service Manager</text><rect fill="#F8FAFC" height="30.2969" rx="2.5" ry="2.5" style="stroke:#475569;stroke-width:0.5;" width="128" x="278.5" y="1088.1328"/><text fill="#000000" font-family="sans-serif" font-size="14" lengthAdjust="spacing" textLength="114" x="285.5" y="1108.1279">Service Manager</text><text fill="#000000" font-family="sans-serif" font-size="14" lengthAdjust="spacing" textLength="24" x="949.5" y="115.292">OCI</text><path d="M946.5,66.2969 C946.5,56.2969 964.5,56.2969 964.5,56.2969 C964.5,56.2969 982.5,56.2969 982.5,66.2969 L982.5,92.2969 C982.5,102.2969 964.5,102.2969 964.5,102.2969 C964.5,102.2969 946.5,102.2969 946.5,92.2969 L946.5,66.2969 " fill="#E2E2F0" style="stroke:#181818;stroke-width:1.5;"/><path d="M946.5,66.2969 C946.5,76.2969 964.5,76.2969 964.5,76.2969 C964.5,76.2969 982.5,76.2969 982.5,66.2969 " fill="none" style="stroke:#181818;stroke-width:1.5;"/><text fill="#000000" font-family="sans-serif" font-size="14" lengthAdjust="spacing" textLength="24" x="949.5" y="1101.1279">OCI</text><path d="M946.5,1114.4297 C946.5,1104.4297 964.5,1104.4297 964.5,1104.4297 C964.5,1104.4297 982.5,1104.4297 982.5,1114.4297 L982.5,1140.4297 C982.5,1150.4297 964.5,1150.4297 964.5,1150.4297 C964.5,1150.4297 946.5,1150.4297 946.5,1140.4297 L946.5,1114.4297 " fill="#E2E2F0" style="stroke:#181818;stroke-width:1.5;"/><path d="M946.5,1114.4297 C946.5,1124.4297 964.5,1124.4297 964.5,1124.4297 C964.5,1124.4297 982.5,1124.4297 982.5,1114.4297 " fill="none" style="stroke:#181818;stroke-width:1.5;"/><text fill="#000000" font-family="sans-serif" font-size="14" lengthAdjust="spacing" textLength="106" x="992.5" y="115.292">Kubernetes API</text><path d="M1030.5,66.2969 C1030.5,56.2969 1048.5,56.2969 1048.5,56.2969 C1048.5,56.2969 1066.5,56.2969 1066.5,66.2969 L1066.5,92.2969 C1066.5,102.2969 1048.5,102.2969 1048.5,102.2969 C1048.5,102.2969 1030.5,102.2969 1030.5,92.2969 L1030.5,66.2969 " fill="#E2E2F0" style="stroke:#181818;stroke-width:1.5;"/><path d="M1030.5,66.2969 C1030.5,76.2969 1048.5,76.2969 1048.5,76.2969 C1048.5,76.2969 1066.5,76.2969 1066.5,66.2969 " fill="none" style="stroke:#181818;stroke-width:1.5;"/><text fill="#000000" font-family="sans-serif" font-size="14" lengthAdjust="spacing" textLength="106" x="992.5" y="1101.1279">Kubernetes API</text><path d="M1030.5,1114.4297 C1030.5,1104.4297 1048.5,1104.4297 1048.5,1104.4297 C1048.5,1104.4297 1066.5,1104.4297 1066.5,1114.4297 L1066.5,1140.4297 C1066.5,1150.4297 1048.5,1150.4297 1048.5,1150.4297 C1048.5,1150.4297 1030.5,1150.4297 1030.5,1140.4297 L1030.5,1114.4297 " fill="#E2E2F0" style="stroke:#181818;stroke-width:1.5;"/><path d="M1030.5,1114.4297 C1030.5,1124.4297 1048.5,1124.4297 1048.5,1124.4297 C1048.5,1124.4297 1066.5,1124.4297 1066.5,1114.4297 " fill="none" style="stroke:#181818;stroke-width:1.5;"/><polygon fill="#334155" points="330.5,145.7266,340.5,149.7266,330.5,153.7266,334.5,149.7266" style="stroke:#334155;stroke-width:1.0;"/><line style="stroke:#334155;stroke-width:1.0;" x1="56.5" x2="336.5" y1="149.7266" y2="149.7266"/><text fill="#000000" font-family="sans-serif" font-size="13" font-weight="bold" lengthAdjust="spacing" textLength="9" x="63.5" y="144.6606">1</text><text fill="#000000" font-family="sans-serif" font-size="13" lengthAdjust="spacing" textLength="239" x="76.5" y="144.6606">reconcile desired spec and live status</text><polygon fill="#334155" points="1036.5,174.8594,1046.5,178.8594,1036.5,182.8594,1040.5,178.8594" style="stroke:#334155;stroke-width:1.0;"/><line style="stroke:#334155;stroke-width:1.0;" x1="342.5" x2="1042.5" y1="178.8594" y2="178.8594"/><text fill="#000000" font-family="sans-serif" font-size="13" font-weight="bold" lengthAdjust="spacing" textLength="9" x="349.5" y="173.7935">2</text><text fill="#000000" font-family="sans-serif" font-size="13" lengthAdjust="spacing" textLength="212" x="362.5" y="173.7935">read CR status and finalizer state</text><path d="M248.5,193.8594 L418.5,193.8594 L418.5,200.9922 L408.5,210.9922 L248.5,210.9922 L248.5,193.8594 " fill="#F8FAFC" style="stroke:#475569;stroke-width:1.5;"/><rect fill="none" height="254.6719" style="stroke:#475569;stroke-width:1.5;" width="886" x="248.5" y="193.8594"/><text fill="#000000" font-family="sans-serif" font-size="13" font-weight="bold" lengthAdjust="spacing" textLength="125" x="263.5" y="206.9263">Lookup and bind</text><path d="M258.5,217.9922 L322.5,217.9922 L322.5,225.125 L312.5,235.125 L258.5,235.125 L258.5,217.9922 " fill="#F8FAFC" style="stroke:#475569;stroke-width:1.5;"/><rect fill="none" height="223.5391" style="stroke:#475569;stroke-width:1.5;" width="866" x="258.5" y="217.9922"/><text fill="#000000" font-family="sans-serif" font-size="13" font-weight="bold" lengthAdjust="spacing" textLength="19" x="273.5" y="231.0591">alt</text><text fill="#000000" font-family="sans-serif" font-size="11" font-weight="bold" lengthAdjust="spacing" textLength="256" x="337.5" y="230.2026">[tracked or explicit OCID already exists]</text><polygon fill="#334155" points="952.5,252.2578,962.5,256.2578,952.5,260.2578,956.5,256.2578" style="stroke:#334155;stroke-width:1.0;"/><line style="stroke:#334155;stroke-width:1.0;" x1="342.5" x2="958.5" y1="256.2578" y2="256.2578"/><text fill="#000000" font-family="sans-serif" font-size="13" font-weight="bold" lengthAdjust="spacing" textLength="9" x="349.5" y="251.1919">3</text><text fill="#000000" font-family="sans-serif" font-size="13" lengthAdjust="spacing" textLength="278" x="362.5" y="251.1919">get the current resource by known identifier</text><line style="stroke:#475569;stroke-width:1.0;stroke-dasharray:2.0,2.0;" x1="258.5" x2="1124.5" y1="265.2578" y2="265.2578"/><text fill="#000000" font-family="sans-serif" font-size="11" font-weight="bold" lengthAdjust="spacing" textLength="145" x="263.5" y="275.4683">[no OCID is bound yet]</text><polygon fill="#334155" points="952.5,296.1953,962.5,300.1953,952.5,304.1953,956.5,300.1953" style="stroke:#334155;stroke-width:1.0;"/><line style="stroke:#334155;stroke-width:1.0;" x1="342.5" x2="958.5" y1="300.1953" y2="300.1953"/><text fill="#000000" font-family="sans-serif" font-size="13" font-weight="bold" lengthAdjust="spacing" textLength="9" x="349.5" y="295.1294">4</text><text fill="#000000" font-family="sans-serif" font-size="13" lengthAdjust="spacing" textLength="193" x="362.5" y="295.1294">list resources by display name</text><path d="M268.5,315.1953 L332.5,315.1953 L332.5,322.3281 L322.5,332.3281 L268.5,332.3281 L268.5,315.1953 " fill="#F8FAFC" style="stroke:#475569;stroke-width:1.5;"/><rect fill="none" height="119.3359" style="stroke:#475569;stroke-width:1.5;" width="846" x="268.5" y="315.1953"/><text fill="#000000" font-family="sans-serif" font-size="13" font-weight="bold" lengthAdjust="spacing" textLength="19" x="283.5" y="328.2622">alt</text><text fill="#000000" font-family="sans-serif" font-size="11" font-weight="bold" lengthAdjust="spacing" textLength="162" x="347.5" y="327.4058">[existing resource found]</text><polygon fill="#334155" points="1036.5,349.4609,1046.5,353.4609,1036.5,357.4609,1040.5,353.4609" style="stroke:#334155;stroke-width:1.0;"/><line style="stroke:#334155;stroke-width:1.0;" x1="342.5" x2="1042.5" y1="353.4609" y2="353.4609"/><text fill="#000000" font-family="sans-serif" font-size="13" font-weight="bold" lengthAdjust="spacing" textLength="9" x="349.5" y="348.395">5</text><text fill="#000000" font-family="sans-serif" font-size="13" lengthAdjust="spacing" textLength="221" x="362.5" y="348.395">persist the resolved OCID in status</text><line style="stroke:#475569;stroke-width:1.0;stroke-dasharray:2.0,2.0;" x1="268.5" x2="1114.5" y1="362.4609" y2="362.4609"/><text fill="#000000" font-family="sans-serif" font-size="11" font-weight="bold" lengthAdjust="spacing" textLength="182" x="273.5" y="372.6714">[no existing resource found]</text><polygon fill="#334155" points="952.5,393.3984,962.5,397.3984,952.5,401.3984,956.5,397.3984" style="stroke:#334155;stroke-width:1.0;"/><line style="stroke:#334155;stroke-width:1.0;" x1="342.5" x2="958.5" y1="397.3984" y2="397.3984"/><text fill="#000000" font-family="sans-serif" font-size="13" font-weight="bold" lengthAdjust="spacing" textLength="9" x="349.5" y="392.3325">6</text><text fill="#000000" font-family="sans-serif" font-size="13" lengthAdjust="spacing" textLength="152" x="362.5" y="392.3325">create the OCI resource</text><polygon fill="#334155" points="1036.5,422.5313,1046.5,426.5313,1036.5,430.5313,1040.5,426.5313" style="stroke:#334155;stroke-width:1.0;"/><line style="stroke:#334155;stroke-width:1.0;" x1="342.5" x2="1042.5" y1="426.5313" y2="426.5313"/><text fill="#000000" font-family="sans-serif" font-size="13" font-weight="bold" lengthAdjust="spacing" textLength="9" x="349.5" y="421.4653">7</text><text fill="#000000" font-family="sans-serif" font-size="13" lengthAdjust="spacing" textLength="216" x="362.5" y="421.4653">persist the created OCID in status</text><path d="M10,462.5313 L74,462.5313 L74,469.6641 L64,479.6641 L10,479.6641 L10,462.5313 " fill="#F8FAFC" style="stroke:#475569;stroke-width:1.5;"/><rect fill="none" height="498.8047" style="stroke:#475569;stroke-width:1.5;" width="1114.5" x="10" y="462.5313"/><text fill="#000000" font-family="sans-serif" font-size="13" font-weight="bold" lengthAdjust="spacing" textLength="19" x="25" y="475.5981">alt</text><text fill="#000000" font-family="sans-serif" font-size="11" font-weight="bold" lengthAdjust="spacing" textLength="120" x="89" y="474.7417">[delete requested]</text><path d="M268.5,486.6641 L361.5,486.6641 L361.5,493.7969 L351.5,503.7969 L268.5,503.7969 L268.5,486.6641 " fill="#F8FAFC" style="stroke:#475569;stroke-width:1.5;"/><rect fill="none" height="104.5313" style="stroke:#475569;stroke-width:1.5;" width="846" x="268.5" y="486.6641"/><text fill="#000000" font-family="sans-serif" font-size="13" font-weight="bold" lengthAdjust="spacing" textLength="48" x="283.5" y="499.731">Delete</text><polygon fill="#334155" points="952.5,520.9297,962.5,524.9297,952.5,528.9297,956.5,524.9297" style="stroke:#334155;stroke-width:1.0;"/><line style="stroke:#334155;stroke-width:1.0;" x1="342.5" x2="958.5" y1="524.9297" y2="524.9297"/><text fill="#000000" font-family="sans-serif" font-size="13" font-weight="bold" lengthAdjust="spacing" textLength="9" x="349.5" y="519.8638">8</text><text fill="#000000" font-family="sans-serif" font-size="13" lengthAdjust="spacing" textLength="114" x="362.5" y="519.8638">submit OCI delete</text><polygon fill="#334155" points="952.5,550.0625,962.5,554.0625,952.5,558.0625,956.5,554.0625" style="stroke:#334155;stroke-width:1.0;"/><line style="stroke:#334155;stroke-width:1.0;" x1="342.5" x2="958.5" y1="554.0625" y2="554.0625"/><text fill="#000000" font-family="sans-serif" font-size="13" font-weight="bold" lengthAdjust="spacing" textLength="9" x="349.5" y="548.9966">9</text><text fill="#000000" font-family="sans-serif" font-size="13" lengthAdjust="spacing" textLength="509" x="362.5" y="548.9966">Confirm deletion with GetApplication until the resource is DELETED or not found.</text><polygon fill="#334155" points="1036.5,579.1953,1046.5,583.1953,1036.5,587.1953,1040.5,583.1953" style="stroke:#334155;stroke-width:1.0;"/><line style="stroke:#334155;stroke-width:1.0;" x1="342.5" x2="1042.5" y1="583.1953" y2="583.1953"/><text fill="#000000" font-family="sans-serif" font-size="13" font-weight="bold" lengthAdjust="spacing" textLength="18" x="349.5" y="578.1294">10</text><text fill="#000000" font-family="sans-serif" font-size="13" lengthAdjust="spacing" textLength="289" x="371.5" y="578.1294">remove the finalizer after delete confirmation</text><line style="stroke:#475569;stroke-width:1.0;stroke-dasharray:2.0,2.0;" x1="10" x2="1124.5" y1="599.1953" y2="599.1953"/><text fill="#000000" font-family="sans-serif" font-size="11" font-weight="bold" lengthAdjust="spacing" textLength="147" x="15" y="609.4058">[OCI state is retryable]</text><polygon fill="#334155" points="67.5,630.1328,57.5,634.1328,67.5,638.1328,63.5,634.1328" style="stroke:#334155;stroke-width:1.0;"/><line style="stroke:#334155;stroke-width:1.0;stroke-dasharray:2.0,2.0;" x1="61.5" x2="341.5" y1="634.1328" y2="634.1328"/><text fill="#000000" font-family="sans-serif" font-size="13" font-weight="bold" lengthAdjust="spacing" textLength="18" x="73.5" y="629.0669">11</text><text fill="#000000" font-family="sans-serif" font-size="13" lengthAdjust="spacing" textLength="110" x="95.5" y="629.0669">requeue required</text><line style="stroke:#475569;stroke-width:1.0;stroke-dasharray:2.0,2.0;" x1="10" x2="1124.5" y1="643.1328" y2="643.1328"/><text fill="#000000" font-family="sans-serif" font-size="11" font-weight="bold" lengthAdjust="spacing" textLength="200" x="15" y="653.3433">[OCI state is failed or terminal]</text><polygon fill="#334155" points="67.5,674.0703,57.5,678.0703,67.5,682.0703,63.5,678.0703" style="stroke:#334155;stroke-width:1.0;"/><line style="stroke:#334155;stroke-width:1.0;stroke-dasharray:2.0,2.0;" x1="61.5" x2="341.5" y1="678.0703" y2="678.0703"/><text fill="#000000" font-family="sans-serif" font-size="13" font-weight="bold" lengthAdjust="spacing" textLength="18" x="73.5" y="673.0044">12</text><text fill="#000000" font-family="sans-serif" font-size="13" lengthAdjust="spacing" textLength="240" x="95.5" y="673.0044">unsuccessful terminal reconcile result</text><line style="stroke:#475569;stroke-width:1.0;stroke-dasharray:2.0,2.0;" x1="10" x2="1124.5" y1="687.0703" y2="687.0703"/><text fill="#000000" font-family="sans-serif" font-size="11" font-weight="bold" lengthAdjust="spacing" textLength="203" x="15" y="697.2808">[OCI state is active and usable]</text><path d="M258.5,707.875 L405.5,707.875 L405.5,715.0078 L395.5,725.0078 L258.5,725.0078 L258.5,707.875 " fill="#F8FAFC" style="stroke:#475569;stroke-width:1.5;"/><rect fill="none" height="217.3281" style="stroke:#475569;stroke-width:1.5;" width="754.5" x="258.5" y="707.875"/><text fill="#000000" font-family="sans-serif" font-size="13" font-weight="bold" lengthAdjust="spacing" textLength="102" x="273.5" y="720.9419">Drift handling</text><path d="M304,730.0078 L304,830.0078 L1003,830.0078 L1003,740.0078 L993,730.0078 L304,730.0078 " fill="#FEFFDD" style="stroke:#181818;stroke-width:0.5;"/><path d="M993,730.0078 L993,740.0078 L1003,740.0078 L993,730.0078 " fill="#FEFFDD" style="stroke:#181818;stroke-width:0.5;"/><text fill="#000000" font-family="sans-serif" font-size="13" lengthAdjust="spacing" textLength="171" x="310" y="747.0747">Supported update surface:</text><text fill="#000000" font-family="sans-serif" font-size="13" lengthAdjust="spacing" textLength="47" x="310" y="762.2075">- config</text><text fill="#000000" font-family="sans-serif" font-size="13" lengthAdjust="spacing" textLength="168" x="310" y="777.3403">- networkSecurityGroupIds</text><text fill="#000000" font-family="sans-serif" font-size="13" lengthAdjust="spacing" textLength="67" x="310" y="792.4731">- syslogUrl</text><text fill="#000000" font-family="sans-serif" font-size="13" lengthAdjust="spacing" textLength="94" x="310" y="807.606">- freeformTags</text><text fill="#000000" font-family="sans-serif" font-size="13" lengthAdjust="spacing" textLength="86" x="310" y="822.7388">- definedTags</text><polygon fill="#334155" points="952.5,852.9375,962.5,856.9375,952.5,860.9375,956.5,856.9375" style="stroke:#334155;stroke-width:1.0;"/><line style="stroke:#334155;stroke-width:1.0;" x1="342.5" x2="958.5" y1="856.9375" y2="856.9375"/><text fill="#000000" font-family="sans-serif" font-size="13" font-weight="bold" lengthAdjust="spacing" textLength="18" x="349.5" y="851.8716">13</text><text fill="#000000" font-family="sans-serif" font-size="13" lengthAdjust="spacing" textLength="576" x="371.5" y="851.8716">Apply diff-based updates through the resolved OCID instead of restarting name resolution.</text><path d="M268.5,871.9375 L338.5,871.9375 L338.5,879.0703 L328.5,889.0703 L268.5,889.0703 L268.5,871.9375 " fill="#F8FAFC" style="stroke:#475569;stroke-width:1.5;"/><rect fill="none" height="46.2656" style="stroke:#475569;stroke-width:1.5;" width="724" x="268.5" y="871.9375"/><text fill="#000000" font-family="sans-serif" font-size="13" font-weight="bold" lengthAdjust="spacing" textLength="25" x="283.5" y="885.0044">opt</text><text fill="#000000" font-family="sans-serif" font-size="11" font-weight="bold" lengthAdjust="spacing" textLength="258" x="353.5" y="884.1479">[supported drift or collection diff exists]</text><polygon fill="#334155" points="952.5,906.2031,962.5,910.2031,952.5,914.2031,956.5,910.2031" style="stroke:#334155;stroke-width:1.0;"/><line style="stroke:#334155;stroke-width:1.0;" x1="342.5" x2="958.5" y1="910.2031" y2="910.2031"/><text fill="#000000" font-family="sans-serif" font-size="13" font-weight="bold" lengthAdjust="spacing" textLength="18" x="349.5" y="905.1372">14</text><text fill="#000000" font-family="sans-serif" font-size="13" lengthAdjust="spacing" textLength="277" x="371.5" y="905.1372">apply the supported in-place mutation path</text><polygon fill="#334155" points="67.5,949.3359,57.5,953.3359,67.5,957.3359,63.5,953.3359" style="stroke:#334155;stroke-width:1.0;"/><line style="stroke:#334155;stroke-width:1.0;stroke-dasharray:2.0,2.0;" x1="61.5" x2="341.5" y1="953.3359" y2="953.3359"/><text fill="#000000" font-family="sans-serif" font-size="13" font-weight="bold" lengthAdjust="spacing" textLength="18" x="73.5" y="948.27">15</text><text fill="#000000" font-family="sans-serif" font-size="13" lengthAdjust="spacing" textLength="169" x="95.5" y="948.27">successful active reconcile</text><path d="M31,973.3359 L31,1073.3359 L988,1073.3359 L988,983.3359 L978,973.3359 L31,973.3359 " fill="#FEFFDD" style="stroke:#181818;stroke-width:0.5;"/><path d="M978,973.3359 L978,983.3359 L988,983.3359 L978,973.3359 " fill="#FEFFDD" style="stroke:#181818;stroke-width:0.5;"/><text fill="#000000" font-family="sans-serif" font-size="13" lengthAdjust="spacing" textLength="105" x="37" y="990.4028">Boundary notes:</text><text fill="#000000" font-family="sans-serif" font-size="13" lengthAdjust="spacing" textLength="426" x="37" y="1005.5356">- The current formal partition omits OCI DELETING even though the</text><text fill="#000000" font-family="sans-serif" font-size="13" lengthAdjust="spacing" textLength="233" x="53" y="1020.6685">controller code treats it as retryable.</text><text fill="#000000" font-family="sans-serif" font-size="13" lengthAdjust="spacing" textLength="108" x="37" y="1035.8013">Sequence notes:</text><text fill="#000000" font-family="sans-serif" font-size="13" lengthAdjust="spacing" textLength="433" x="37" y="1050.9341">- Resolved-name binds and explicit-ID binds both continue using the</text><text fill="#000000" font-family="sans-serif" font-size="13" lengthAdjust="spacing" textLength="170" x="53" y="1066.0669">retained OCID for updates.</text><!--SRC=[bLRRRjiu47tNLmpIrpfecqlJF2pWE7OGDEqMIVO3Q6ba4wP8bHUxtaN_VMT8Mb8TnzqrO0lYtC-S6TfBhn1cGPTU6krWtBPAbe9Vu15Beqj9yYVy7b2NM8ZWZGxD76tXLbAtmee6t59KPYFr0cgX70uaDw9SBQm9kfeOPIoycSNFG6DihTbauTdP-VkBYu6mmbe4vP_nXnyhkT0DQWyAQpyCdbE3Vmg0Ry9wMSfMQFyozDLiF9liAHbReSqAvnylBYu_aSA3hF51Qln5-kbyV7PpDPI-KXl07PssXrqdqQkfZKjlx0lnzDtimspQYOUEtyq-NbvEYv-5O16SJ8psrYY5zWI4W_wrQFkguUG9xLeIPb-45ekicy_oKL49B-R28PpyERcF2lGSd7uEH0AD7eaptvB2vojN57r86Fsnv_GQR4Uf2fsqM85hiGIXAr1oZU2yyC4Llvgn8_BDrgA2oMFMYbQrr4B9lqc93x4e6BaM7enPqOCrvb9NX9rG7hmbQ2ac8OK_cEVISrMt96JNMpgLpZlI1dYP0cbUmmB9pHAX3DOo6oqw4on1ET_2IfkD1bdHkQmbOGY0D0-WJOeY7SovhR15Voo6eYGwnuuzLzArIcn1YmQZ9LSJa-MfwtAesNkK7_8T8MpHEdRFDR2TMXCUAJkzGv_DTud_to2nW9BGz1XZq7jd-jypImuE9nQ3yoz_2mQYGaKyf32q2HoPaJonu3OAZa7jmhn99CXUZYaJjMjfcwJ92t8Z_HBkq0-NPg3cgmxUY1Zr_NRwC7sUtZBpjF49mzFY21eM6xDE4FOK5xMdtrnkcRA9KNU8SDEubZWB7DUYjrinLrpNVYGArG_hTO8l91XvCWzugmLDRXmVogFXj7xlDcWNIgAnguFgp0PxW52Y5NyW66qqtWWymi7b4d9RhQmzB4cYY9aHnQ-6Z0WmkvVEMrvQcNQXROrbLeMsuXWks5gKU9tbeuJeedkbvROnTlM4DElIR-FglgzS9tTRfypYBwkwazeYriOspsBHgz4bHhT5rPrHevW3Hvd6XEAfh-iHRzjToexuG5aibWV7bwXFwz7KBF2yxMbgUM4anS0yIPGphQVYTsXK4KtgQSaTYty3OkJXCdmrKH4JvMnwXrAFQ5aHxvlWqqoqmY_tXlUtl1cm9ZEXuqoQ_BxblLbkzmsFbx3RYBFZ1e_WUR2qkKT4mdWbnWGDBO5umQL1lVzw1xX6JONjqCumbFtjLfgAvfCNbGDQ8M8mRAUnlFo_P933O-xOABQ5BwPqYUqken7rCPtE3MqM3YOrZMHmtCi-2meac5EfyrJDZX-dHSUkVm40]--></g></svg>