<?xml version="1.0" encoding="UTF-8" standalone="no"?><svg xmlns="http://www.w3.org/2000/svg" xmlns:xlink="http://www.w3.org/1999/xlink" contentStyleType="text/css" height="704px" preserveAspectRatio="none" style="width:785px;height:704px;background:#FFFFFF;" version="1.1" viewBox="0 0 785 704" width="785px" zoomAndPan="magnify"><defs/><g><text fill="#000000" font-family="sans-serif" font-size="14" font-weight="bold" lengthAdjust="spacing" textLength="302" x="234.78" y="22.9951">Functions Application Reconcile Model</text><ellipse cx="449.56" cy="53.2969" fill="#222222" rx="10" ry="10" style="stroke:none;stroke-width:1.0;"/><g id="Ready"><rect fill="#F1F1F1" height="50" rx="12.5" ry="12.5" style="stroke:#181818;stroke-width:0.5;" width="63" x="118.06" y="140.2969"/><line style="stroke:#181818;stroke-width:0.5;" x1="118.06" x2="181.06" y1="166.5938" y2="166.5938"/><text fill="#000000" font-family="sans-serif" font-size="14" lengthAdjust="spacing" textLength="43" x="128.06" y="158.292">Ready</text></g><g id="Retryable"><rect fill="#F1F1F1" height="50.2656" rx="12.5" ry="12.5" style="stroke:#181818;stroke-width:0.5;" width="130" x="197.56" y="267.2969"/><line style="stroke:#181818;stroke-width:0.5;" x1="197.56" x2="327.56" y1="293.5938" y2="293.5938"/><text fill="#000000" font-family="sans-serif" font-size="14" lengthAdjust="spacing" textLength="65" x="230.06" y="285.292">Retryable</text><text fill="#000000" font-family="sans-serif" font-size="12" lengthAdjust="spacing" textLength="110" x="202.56" y="309.7324">requeue required</text></g><g id="Failed"><rect fill="#F1F1F1" height="50" rx="12.5" ry="12.5" style="stroke:#181818;stroke-width:0.5;" width="60" x="303.56" y="394.2969"/><line style="stroke:#181818;stroke-width:0.5;" x1="303.56" x2="363.56" y1="420.5938" y2="420.5938"/><text fill="#000000" font-family="sans-serif" font-size="14" lengthAdjust="spacing" textLength="40" x="313.56" y="412.292">Failed</text></g><g id="Deleting"><rect fill="#F1F1F1" height="50" rx="12.5" ry="12.5" style="stroke:#181818;stroke-width:0.5;" width="78" x="118.56" y="521.2969"/><line style="stroke:#181818;stroke-width:0.5;" x1="118.56" x2="196.56" y1="547.5938" y2="547.5938"/><text fill="#000000" font-family="sans-serif" font-size="14" lengthAdjust="spacing" textLength="58" x="128.56" y="539.292">Deleting</text></g><g id="Deleted"><rect fill="#F1F1F1" height="50" rx="12.5" ry="12.5" style="stroke:#181818;stroke-width:0.5;" width="75" x="120.06" y="648.2969"/><line style="stroke:#181818;stroke-width:0.5;" x1="120.06" x2="195.06" y1="674.5938" y2="674.5938"/><text fill="#000000" font-family="sans-serif" font-size="14" lengthAdjust="spacing" textLength="55" x="130.06" y="666.292">Deleted</text></g><!--link *start to Ready--><g id="link_*start_Ready"><path d="M440.25,57.7069 C401.95,71.7469 255.32,125.5169 186.12,150.8869 " fill="none" id="*start-to-Ready" style="stroke:#181818;stroke-width:1.0;"/><polygon fill="#181818" points="181.27,152.6669,191.0964,153.3311,185.9656,150.949,188.3478,145.8181,181.27,152.6669" style="stroke:#181818;stroke-width:1.0;"/><text fill="#000000" font-family="sans-serif" font-size="13" lengthAdjust="spacing" textLength="45" x="335.56" y="106.3638">ACTIVE</text></g><!--link *start to Retryable--><g id="link_*start_Retryable"><path d="M450.21,63.6369 C451.75,93.0769 452.47,185.0969 406.56,237.2969 C387.63,258.8169 359.27,271.7769 332.7,279.5869 " fill="none" id="*start-to-Retryable" style="stroke:#181818;stroke-width:1.0;"/><polygon fill="#181818" points="327.77,280.9769,337.5177,282.3849,332.5824,279.6203,335.3471,274.685,327.77,280.9769" style="stroke:#181818;stroke-width:1.0;"/><text fill="#000000" font-family="sans-serif" font-size="13" lengthAdjust="spacing" textLength="218" x="446.56" y="169.8638">CREATING / UPDATING / DELETING</text></g><!--link *start to Failed--><g id="link_*start_Failed"><path d="M459.5,54.4769 C495.85,55.7169 622.12,65.4569 673.56,140.2969 C686.14,158.6069 680.25,169.1069 673.56,190.2969 C645.13,280.3669 629.45,310.8869 551.56,364.2969 C495.51,402.7269 414.74,413.8569 368.88,417.0469 " fill="none" id="*start-to-Failed" style="stroke:#181818;stroke-width:1.0;"/><polygon fill="#181818" points="363.74,417.3869,372.9836,420.7864,368.7292,417.0581,372.4575,412.8037,363.74,417.3869" style="stroke:#181818;stroke-width:1.0;"/><text fill="#000000" font-family="sans-serif" font-size="13" lengthAdjust="spacing" textLength="114" x="663.56" y="233.3638">FAILED / DELETED</text></g><!--link Ready to Retryable--><g id="link_Ready_Retryable"><path d="M117.72,172.4869 C74.63,182.2969 6,203.7769 32.56,237.2969 C52.29,262.1969 132.34,276.7369 192.5,284.3269 " fill="none" id="Ready-to-Retryable" style="stroke:#181818;stroke-width:1.0;"/><polygon fill="#181818" points="197.53,284.9569,189.0902,279.8804,192.568,284.342,188.1064,287.8197,197.53,284.9569" style="stroke:#181818;stroke-width:1.0;"/><text fill="#000000" font-family="sans-serif" font-size="13" lengthAdjust="spacing" textLength="185" x="33.56" y="233.3638">OCI enters nonterminal state</text></g><!--link Retryable to Ready--><g id="link_Retryable_Ready"><path d="M252.6,267.2769 C245.8,252.6769 235.82,234.2369 223.56,220.2969 C212.7,207.9569 198.56,196.7869 185.55,187.8369 " fill="none" id="Retryable-to-Ready" style="stroke:#181818;stroke-width:1.0;"/><polygon fill="#181818" points="181.18,184.8969,186.3968,193.2506,185.3226,187.6967,190.8765,186.6225,181.18,184.8969" style="stroke:#181818;stroke-width:1.0;"/><text fill="#000000" font-family="sans-serif" font-size="13" lengthAdjust="spacing" textLength="162" x="235.56" y="233.3638">lifecycle becomes ACTIVE</text></g><!--link Retryable to Failed--><g id="link_Retryable_Failed"><path d="M276.25,317.3969 C287.98,338.0669 304.92,367.8669 317.33,389.7269 " fill="none" id="Retryable-to-Failed" style="stroke:#181818;stroke-width:1.0;"/><polygon fill="#181818" points="319.91,394.2669,318.9351,384.4664,317.437,389.9213,311.9821,388.4232,319.91,394.2669" style="stroke:#181818;stroke-width:1.0;"/><text fill="#000000" font-family="sans-serif" font-size="13" lengthAdjust="spacing" textLength="240" x="302.56" y="360.3638">lifecycle becomes FAILED or DELETED</text></g><!--link Ready to Deleting--><g id="link_Ready_Deleting"><path d="M117.87,169.6169 C86.9,174.7269 41.33,187.6669 19.56,220.2969 C15.36,226.5769 18,229.9069 19.56,237.2969 C42.59,346.5969 107.85,463.9169 139.67,516.6969 " fill="none" id="Ready-to-Deleting" style="stroke:#181818;stroke-width:1.0;"/><polygon fill="#181818" points="142.27,520.9869,141.0456,511.2144,139.687,516.7057,134.1957,515.3472,142.27,520.9869" style="stroke:#181818;stroke-width:1.0;"/><text fill="#000000" font-family="sans-serif" font-size="13" lengthAdjust="spacing" textLength="109" x="61.56" y="360.3638">delete requested</text></g><!--link Retryable to Deleting--><g id="link_Retryable_Deleting"><path d="M234.04,317.6569 C214.12,336.4369 188.8,364.2169 175.56,394.2969 C158.15,433.8069 155.64,484.4669 156.09,515.8969 " fill="none" id="Retryable-to-Deleting" style="stroke:#181818;stroke-width:1.0;"/><polygon fill="#181818" points="156.2,521.1569,160.0192,512.0787,156.1,516.1579,152.0208,512.2387,156.2,521.1569" style="stroke:#181818;stroke-width:1.0;"/><text fill="#000000" font-family="sans-serif" font-size="13" lengthAdjust="spacing" textLength="109" x="176.56" y="423.8638">delete requested</text></g><!--link Failed to Deleting--><g id="link_Failed_Deleting"><path d="M303.3,441.7869 C273.58,462.8969 228.12,495.1769 195.88,518.0769 " fill="none" id="Failed-to-Deleting" style="stroke:#181818;stroke-width:1.0;"/><polygon fill="#181818" points="191.62,521.0969,201.2789,519.1719,195.704,518.2123,196.6637,512.6375,191.62,521.0969" style="stroke:#181818;stroke-width:1.0;"/><text fill="#000000" font-family="sans-serif" font-size="13" lengthAdjust="spacing" textLength="109" x="256.56" y="487.3638">delete requested</text></g><!--link Deleting to Deleted--><g id="link_Deleting_Deleted"><path d="M157.56,571.3969 C157.56,591.8869 157.56,621.3769 157.56,643.1769 " fill="none" id="Deleting-to-Deleted" style="stroke:#181818;stroke-width:1.0;"/><polygon fill="#181818" points="157.56,648.2669,161.56,639.2669,157.56,643.2669,153.56,639.2669,157.56,648.2669" style="stroke:#181818;stroke-width:1.0;"/><text fill="#000000" font-family="sans-serif" font-size="13" lengthAdjust="spacing" textLength="210" x="158.56" y="614.3638">resource gone, finalizer removed</text></g><!--SRC=[XP11JyCm38Nl_HK-8oRkEo1LJOegRO2cmGLno19lifGc8qcHog_76MleG89JdBpFzdj9b2n2EpYToBi8zV5eIQjyWGrgxpInllO6RLMzNBt2Od7BWZ8ZBA5kjjspd3sdCAeTyqjeDhBUTlTtS0DFZs8gXLp9N9QMLl5umtnRToif9aIAgffF2_Wsu82damAQh6OBFxS-D1sWInWYE9_Fdfoo49DAE1iups1fZthK_BhZk3t6ATKbNep-vi_MVIZUlyq9j9Z87RZHvF8h0iR46IuN_4MUb_-75Qs09yS1en-2HZXuXzUmprz27nXOwFqxztq2]--></g></svg>