<?xml version="1.0" encoding="UTF-8" standalone="no"?><svg xmlns="http://www.w3.org/2000/svg" xmlns:xlink="http://www.w3.org/1999/xlink" contentStyleType="text/css" height="400px" preserveAspectRatio="none" style="width:1929px;height:400px;background:#FFFFFF;" version="1.1" viewBox="0 0 1929 400" width="1929px" zoomAndPan="magnify"><defs/><g><text fill="#000000" font-family="sans-serif" font-size="14" font-weight="bold" lengthAdjust="spacing" textLength="366" x="774.5" y="22.9951">Functions Application Reconcile State Machine</text><ellipse cx="16" cy="263.2969" fill="#222222" rx="10" ry="10" style="stroke:none;stroke-width:1.0;"/><g id="Observe"><rect fill="#F8FAFC" height="50.2656" rx="6" ry="6" style="stroke:#475569;stroke-width:0.5;" width="329" x="86" y="238.2969"/><line style="stroke:#475569;stroke-width:0.5;" x1="86" x2="415" y1="264.5938" y2="264.5938"/><text fill="#0F172A" font-family="sans-serif" font-size="14" lengthAdjust="spacing" textLength="58" x="221.5" y="256.292">Observe</text><text fill="#0F172A" font-family="sans-serif" font-size="12" lengthAdjust="spacing" textLength="309" x="91" y="280.7324">read spec, status, delete intent, and OCI lifecycle</text></g><rect fill="#F8FAFC" height="40" rx="6" ry="6" style="stroke:#475569;stroke-width:0.5;" width="122" x="475" y="243.2969"/><text fill="#0F172A" font-family="sans-serif" font-size="14" lengthAdjust="spacing" textLength="112" x="480" y="268.1436">ResolveByName</text><rect fill="#F8FAFC" height="40" rx="6" ry="6" style="stroke:#475569;stroke-width:0.5;" width="111" x="657" y="160.2969"/><text fill="#0F172A" font-family="sans-serif" font-size="14" lengthAdjust="spacing" textLength="101" x="662" y="185.1436">EvaluateReady</text><rect fill="#F8FAFC" height="40" rx="6" ry="6" style="stroke:#475569;stroke-width:0.5;" width="75" x="839" y="243.2969"/><text fill="#0F172A" font-family="sans-serif" font-size="14" lengthAdjust="spacing" textLength="65" x="844" y="268.1436">Retryable</text><rect fill="#F8FAFC" height="40" rx="6" ry="6" style="stroke:#475569;stroke-width:0.5;" width="50" x="986.5" y="329.2969"/><text fill="#0F172A" font-family="sans-serif" font-size="14" lengthAdjust="spacing" textLength="40" x="991.5" y="354.1436">Failed</text><rect fill="#F8FAFC" height="40" rx="6" ry="6" style="stroke:#475569;stroke-width:0.5;" width="97" x="828" y="150.2969"/><text fill="#0F172A" font-family="sans-serif" font-size="14" lengthAdjust="spacing" textLength="87" x="833" y="175.1436">ApplyUpdate</text><rect fill="#F8FAFC" height="40" rx="6" ry="6" style="stroke:#475569;stroke-width:0.5;" width="53" x="985" y="150.2969"/><text fill="#0F172A" font-family="sans-serif" font-size="14" lengthAdjust="spacing" textLength="43" x="990" y="175.1436">Ready</text><rect fill="#F8FAFC" height="40" rx="6" ry="6" style="stroke:#475569;stroke-width:0.5;" width="113" x="1228" y="270.2969"/><text fill="#0F172A" font-family="sans-serif" font-size="14" lengthAdjust="spacing" textLength="103" x="1233" y="295.1436">DeletePending</text><rect fill="#F8FAFC" height="40" rx="6" ry="6" style="stroke:#475569;stroke-width:0.5;" width="65" x="1694" y="217.2969"/><text fill="#0F172A" font-family="sans-serif" font-size="14" lengthAdjust="spacing" textLength="55" x="1699" y="242.1436">Deleted</text><g id="elem_GMN27"><path d="M1098,49.2969 L1098,159.6269 L1038.17,163.6269 L1098,167.6269 L1098,228.8906 A6,6 0 0 0 1104,234.8906 L1465,234.8906 A6,6 0 0 0 1471,228.8906 L1471,53.2969 L1461,43.2969 L1104,43.2969 A6,6 0 0 0 1098,49.2969 " fill="#FFF7ED" style="stroke:#181818;stroke-width:0.5;"/><path d="M1461,43.2969 L1461,50.2969 A3,3 0 0 0 1464,53.2969 L1471,53.2969 L1461,43.2969 " fill="#FFF7ED" style="stroke:#181818;stroke-width:0.5;"/><text fill="#0F172A" font-family="sans-serif" font-size="13" lengthAdjust="spacing" textLength="69" x="1104" y="60.3638">Archetype:</text><text fill="#0F172A" font-family="sans-serif" font-size="13" lengthAdjust="spacing" textLength="138" x="1104" y="75.4966">- resolved-drift-delete</text><text fill="#0F172A" font-family="sans-serif" font-size="13" lengthAdjust="spacing" textLength="102" x="1104" y="90.6294">Update surface:</text><text fill="#0F172A" font-family="sans-serif" font-size="13" lengthAdjust="spacing" textLength="47" x="1104" y="105.7622">- config</text><text fill="#0F172A" font-family="sans-serif" font-size="13" lengthAdjust="spacing" textLength="168" x="1104" y="120.895">- networkSecurityGroupIds</text><text fill="#0F172A" font-family="sans-serif" font-size="13" lengthAdjust="spacing" textLength="67" x="1104" y="136.0278">- syslogUrl</text><text fill="#0F172A" font-family="sans-serif" font-size="13" lengthAdjust="spacing" textLength="94" x="1104" y="151.1606">- freeformTags</text><text fill="#0F172A" font-family="sans-serif" font-size="13" lengthAdjust="spacing" textLength="86" x="1104" y="166.2935">- definedTags</text><text fill="#0F172A" font-family="sans-serif" font-size="13" lengthAdjust="spacing" textLength="175" x="1104" y="181.4263">Reject before mutate: none</text><text fill="#0F172A" font-family="sans-serif" font-size="13" lengthAdjust="spacing" textLength="105" x="1104" y="196.5591">Boundary notes:</text><text fill="#0F172A" font-family="sans-serif" font-size="13" lengthAdjust="spacing" textLength="352" x="1104" y="211.6919">- The current formal partition omits OCI DELETING even</text><text fill="#0F172A" font-family="sans-serif" font-size="13" lengthAdjust="spacing" textLength="307" x="1120" y="226.8247">though the controller code treats it as retryable.</text></g><g id="elem_GMN30"><path d="M1531,298.7969 L1531,297.5469 L1341.38,301.5469 L1531,305.5469 L1531,387.5938 A6,6 0 0 0 1537,393.5938 L1916,393.5938 A6,6 0 0 0 1922,387.5938 L1922,302.7969 L1912,292.7969 L1537,292.7969 A6,6 0 0 0 1531,298.7969 " fill="#FFF7ED" style="stroke:#181818;stroke-width:0.5;"/><path d="M1912,292.7969 L1912,299.7969 A3,3 0 0 0 1915,302.7969 L1922,302.7969 L1912,292.7969 " fill="#FFF7ED" style="stroke:#181818;stroke-width:0.5;"/><text fill="#0F172A" font-family="sans-serif" font-size="13" lengthAdjust="spacing" textLength="90" x="1537" y="309.8638">Delete states:</text><text fill="#0F172A" font-family="sans-serif" font-size="13" lengthAdjust="spacing" textLength="102" x="1537" y="324.9966">- DeletePending</text><text fill="#0F172A" font-family="sans-serif" font-size="13" lengthAdjust="spacing" textLength="59" x="1537" y="340.1294">- Deleted</text><text fill="#0F172A" font-family="sans-serif" font-size="13" lengthAdjust="spacing" textLength="103" x="1537" y="355.2622">Delete workflow:</text><text fill="#0F172A" font-family="sans-serif" font-size="13" lengthAdjust="spacing" textLength="370" x="1537" y="370.395">- Confirm deletion with GetApplication until the resource is</text><text fill="#0F172A" font-family="sans-serif" font-size="13" lengthAdjust="spacing" textLength="144" x="1553" y="385.5278">DELETED or not found.</text></g><!--link *start to Observe--><g id="link_*start_Observe"><path d="M26.08,263.2969 C26.08,263.2969 80.84,263.2969 80.84,263.2969 " fill="none" id="*start-to-Observe" style="stroke:#181818;stroke-width:1.0;"/><polygon fill="#181818" points="85.84,263.2969,76.84,259.2969,80.84,263.2969,76.84,267.2969,85.84,263.2969" style="stroke:#181818;stroke-width:1.0;"/></g><!--link Observe to ResolveByName--><g id="link_Observe_ResolveByName"><path d="M415.34,263.2969 C415.34,263.2969 469.86,263.2969 469.86,263.2969 " fill="none" id="Observe-to-ResolveByName" style="stroke:#181818;stroke-width:1.0;"/><polygon fill="#181818" points="474.86,263.2969,465.86,259.2969,469.86,263.2969,465.86,267.2969,474.86,263.2969" style="stroke:#181818;stroke-width:1.0;"/><text fill="#000000" font-family="sans-serif" font-size="13" lengthAdjust="spacing" textLength="163" x="443.6" y="267.8638">status/spec OCID missing</text></g><!--link ResolveByName to EvaluateReady--><g id="link_ResolveByName_EvaluateReady"><path d="M597.41,253.2969 C648.53,253.2969 713,253.2969 713,253.2969 C713,253.2969 713,205.6269 713,205.6269 " fill="none" id="ResolveByName-to-EvaluateReady" style="stroke:#181818;stroke-width:1.0;"/><polygon fill="#181818" points="713,200.6269,709,209.6269,713,205.6269,717,209.6269,713,200.6269" style="stroke:#181818;stroke-width:1.0;"/><text fill="#000000" font-family="sans-serif" font-size="13" lengthAdjust="spacing" textLength="123" x="680.04" y="249.3638">OCI state in ACTIVE</text></g><!--link ResolveByName to Retryable--><g id="link_ResolveByName_Retryable"><path d="M597.27,263.2969 C597.27,263.2969 833.91,263.2969 833.91,263.2969 " fill="none" id="ResolveByName-to-Retryable" style="stroke:#181818;stroke-width:1.0;"/><polygon fill="#181818" points="838.91,263.2969,829.91,259.2969,833.91,263.2969,829.91,267.2969,838.91,263.2969" style="stroke:#181818;stroke-width:1.0;"/><text fill="#000000" font-family="sans-serif" font-size="13" lengthAdjust="spacing" textLength="217" x="716.59" y="267.8638">OCI state in CREATING, UPDATING</text></g><!--link ResolveByName to Failed--><g id="link_ResolveByName_Failed"><path d="M536,283.4069 C536,310.6569 536,355.9669 536,355.9669 C536,355.9669 981.27,355.9669 981.27,355.9669 " fill="none" id="ResolveByName-to-Failed" style="stroke:#181818;stroke-width:1.0;"/><polygon fill="#181818" points="986.27,355.9669,977.27,351.9669,981.27,355.9669,977.27,359.9669,986.27,355.9669" style="stroke:#181818;stroke-width:1.0;"/><text fill="#000000" font-family="sans-serif" font-size="13" lengthAdjust="spacing" textLength="188" x="533.36" y="369.0338">OCI state in FAILED, DELETED</text></g><!--link EvaluateReady to ApplyUpdate--><g id="link_EvaluateReady_ApplyUpdate"><path d="M768.02,175.2969 C768.02,175.2969 822.9,175.2969 822.9,175.2969 " fill="none" id="EvaluateReady-to-ApplyUpdate" style="stroke:#181818;stroke-width:1.0;"/><polygon fill="#181818" points="827.9,175.2969,818.9,171.2969,822.9,175.2969,818.9,179.2969,827.9,175.2969" style="stroke:#181818;stroke-width:1.0;"/><text fill="#000000" font-family="sans-serif" font-size="13" lengthAdjust="spacing" textLength="158" x="796.46" y="188.3638">continue active reconcile</text></g><!--link ApplyUpdate to Ready--><g id="link_ApplyUpdate_Ready"><path d="M925.24,163.6269 C925.24,163.6269 979.81,163.6269 979.81,163.6269 " fill="none" id="ApplyUpdate-to-Ready" style="stroke:#181818;stroke-width:1.0;"/><polygon fill="#181818" points="984.81,163.6269,975.81,159.6269,979.81,163.6269,975.81,167.6269,984.81,163.6269" style="stroke:#181818;stroke-width:1.0;"/><text fill="#000000" font-family="sans-serif" font-size="13" lengthAdjust="spacing" textLength="231" x="720.52" y="159.6938">supported mutation path completes</text></g><!--link Ready to Ready--><g id="link_Ready_Ready"><path d="M984.84,176.9669 C966.33,176.9669 945,176.9669 945,176.9669 C945,176.9669 945,195.2969 945,195.2969 C945,195.2969 1058,195.2969 1058,195.2969 C1058,195.2969 1058,176.9669 1058,176.9669 C1058,176.9669 1043.01,176.9669 1043.01,176.9669 " fill="none" id="Ready-to-Ready" style="stroke:#181818;stroke-width:1.0;"/><polygon fill="#181818" points="1038.01,176.9669,1047.01,180.9669,1043.01,176.9669,1047.01,172.9669,1038.01,176.9669" style="stroke:#181818;stroke-width:1.0;"/><text fill="#000000" font-family="sans-serif" font-size="13" lengthAdjust="spacing" textLength="170" x="813.08" y="213.3638">no supported drift remains</text></g><!--link Retryable to Retryable--><g id="link_Retryable_Retryable"><path d="M838.88,273.2969 C835.89,273.2969 834,273.2969 834,273.2969 C834,273.2969 834,295.6269 834,295.6269 C834,295.6269 920,295.6269 920,295.6269 C920,295.6269 920,273.5469 920,273.5469 C920,273.5469 919.31,273.5469 919.31,273.5469 " fill="none" id="Retryable-to-Retryable" style="stroke:#181818;stroke-width:1.0;"/><polygon fill="#181818" points="914.31,273.5469,923.31,277.5469,919.31,273.5469,923.31,269.5469,914.31,273.5469" style="stroke:#181818;stroke-width:1.0;"/><text fill="#000000" font-family="sans-serif" font-size="13" lengthAdjust="spacing" textLength="159" x="709.78" y="313.6938">OCI remains nonterminal</text></g><!--link Failed to Failed--><g id="link_Failed_Failed"><path d="M986.34,342.6269 C975.39,342.6269 965,342.6269 965,342.6269 C965,342.6269 965,319.7969 965,319.7969 C965,319.7969 1078,319.7969 1078,319.7969 C1078,319.7969 1078,349.2969 1078,349.2969 C1078,349.2969 1041.64,349.2969 1041.64,349.2969 " fill="none" id="Failed-to-Failed" style="stroke:#181818;stroke-width:1.0;"/><polygon fill="#181818" points="1036.64,349.2969,1045.64,353.2969,1041.64,349.2969,1045.64,345.2969,1036.64,349.2969" style="stroke:#181818;stroke-width:1.0;"/><text fill="#000000" font-family="sans-serif" font-size="13" lengthAdjust="spacing" textLength="135" x="1038.34" y="317.6138">OCI remains terminal</text></g><!--link Ready to DeletePending--><g id="link_Ready_DeletePending"><path d="M1004,190.3269 C1004,221.1769 1004,276.7969 1004,276.7969 C1004,276.7969 1222.74,276.7969 1222.74,276.7969 " fill="none" id="Ready-to-DeletePending" style="stroke:#181818;stroke-width:1.0;"/><polygon fill="#181818" points="1227.74,276.7969,1218.74,272.7969,1222.74,276.7969,1218.74,280.7969,1227.74,276.7969" style="stroke:#181818;stroke-width:1.0;"/><text fill="#000000" font-family="sans-serif" font-size="13" lengthAdjust="spacing" textLength="109" x="960.13" y="272.8638">delete requested</text></g><!--link Retryable to DeletePending--><g id="link_Retryable_DeletePending"><path d="M914.15,280.0469 C914.15,280.0469 1222.9,280.0469 1222.9,280.0469 " fill="none" id="Retryable-to-DeletePending" style="stroke:#181818;stroke-width:1.0;"/><polygon fill="#181818" points="1227.9,280.0469,1218.9,276.0469,1222.9,280.0469,1218.9,284.0469,1227.9,280.0469" style="stroke:#181818;stroke-width:1.0;"/><text fill="#000000" font-family="sans-serif" font-size="13" lengthAdjust="spacing" textLength="109" x="958.53" y="293.1138">delete requested</text></g><!--link Failed to DeletePending--><g id="link_Failed_DeletePending"><path d="M1020,329.1069 C1020,316.6269 1020,302.9669 1020,302.9669 C1020,302.9669 1222.76,302.9669 1222.76,302.9669 " fill="none" id="Failed-to-DeletePending" style="stroke:#181818;stroke-width:1.0;"/><polygon fill="#181818" points="1227.76,302.9669,1218.76,298.9669,1222.76,302.9669,1218.76,306.9669,1227.76,302.9669" style="stroke:#181818;stroke-width:1.0;"/><text fill="#000000" font-family="sans-serif" font-size="13" lengthAdjust="spacing" textLength="109" x="1109.31" y="299.0338">delete requested</text></g><!--link DeletePending to Deleted--><g id="link_DeletePending_Deleted"><path d="M1341.44,281.5469 C1460.96,281.5469 1727,281.5469 1727,281.5469 C1727,281.5469 1727,262.3469 1727,262.3469 " fill="none" id="DeletePending-to-Deleted" style="stroke:#181818;stroke-width:1.0;"/><polygon fill="#181818" points="1727,257.3469,1723,266.3469,1727,262.3469,1731,266.3469,1727,257.3469" style="stroke:#181818;stroke-width:1.0;"/><text fill="#000000" font-family="sans-serif" font-size="13" lengthAdjust="spacing" textLength="373" x="1544.82" y="277.6138">OCI deletion is confirmed and the finalizer can be removed</text></g><!--link Deleted to Deleted--><g id="link_Deleted_Deleted"><path d="M1693.98,250.2969 C1660.44,250.2969 1613,250.2969 1613,250.2969 C1613,250.2969 1613,263.7969 1613,263.7969 C1613,263.7969 1841,263.7969 1841,263.7969 C1841,263.7969 1841,237.2969 1841,237.2969 C1841,237.2969 1764,237.2969 1764,237.2969 " fill="none" id="Deleted-to-Deleted" style="stroke:#181818;stroke-width:1.0;"/><polygon fill="#181818" points="1759,237.2969,1768,241.2969,1764,237.2969,1768,233.2969,1759,237.2969" style="stroke:#181818;stroke-width:1.0;"/><text fill="#000000" font-family="sans-serif" font-size="13" lengthAdjust="spacing" textLength="100" x="1737.51" y="254.8638">terminal stutter</text></g><!--SRC=[XLLDJzj04BtxLupKMvMqGA6K72ev7qQHAA0GUgbwMBnZUyjwrzrTXxeL_xspQviu8H9Si3tptioy-OWJJY8ajKgTqCf2N5LIfCo_m0fJhL91zZl77C8tbXP2OIGnS-0q694N3hWm6C1H8JW2bfLhWADDZQZ2P_ieLCKCAy4MZEideNB8cBGui4ZYTKs5e8qhzC1WTAruger20ySd0yEKfOzviCwqr0RU9U5luC4nOxLqQ_pZOYboLQ9ou7CVPXGA-nS1JBNXQ3gkq_EpiyyNz3NHodNVZfBZyvFOUxwA_2M9ardqFE1L-X3jzFJiqz75GOeaEL_C3mPyZdwy_mdZyLUuUR1eDXXr_s421Xa7Ms4w2fNKTaHLIwJOGZagTmHCSRYPBKdW3DCcbLkqProXrNA3q-QQbPwl9Vde6Jrg3gMmbleLxJfww6B3P4tYhIY5Xg0-IAkcK13FrillYmEe5JhJi0U9-uZPQX6lbzUN8xY_dOUd0-Y4qJ3oVMWIBwyMyn7C5rUBDOcucvd7-Q5kxYlk0HEWeNP2rGYCnfQ4CFsOHqE_DjksDbjN5GqcXIvhr-v6nLn1J6NbrRRHDbQFKNe0uqRGoXWicL3UkHVXa2IT5n5G2qqf59DHL_Wh3NhV5yTj7lCm1xUekD-tIJyN1d_NQ2cdlIpUT1-ayARlhiCMqgST05v5ONqtCc5AilbHTGL2vYiHVsdXKwRWmHENUlD2o_S8-zff86f7Br4KbgyzJZfh6nB59Yt2XPb4Oo8CayN7eI_ZDl-eQxojJSRIu1Too-c1ZjEJDeztcDP6kEQILhTQSaiMsrYfytiZwJapY9asvPhbtaJtXwuQ3syh_4L7aeeXExPJX7v6w9fE_HbWfWatm_gmQnA10Xb_hpmVrKPNnOaWcIw5iq75CE-qA80RL7GwWDJJTLu44VsG6osbLr7JMNPqAWWd731BzNUj_n1HZqBWVTLsMjWftwvSI77NtB_tBG8lLYRratUTjGtUDlr9qEfSeXl-rDIqaZ8axdjJcvGssuQQkgsc7mQV9-b1QWtI_Wy0]--></g></svg>