<?xml version="1.0" encoding="UTF-8" standalone="no"?><svg xmlns="http://www.w3.org/2000/svg" xmlns:xlink="http://www.w3.org/1999/xlink" contentStyleType="text/css" height="1428px" preserveAspectRatio="none" style="width:1673px;height:1428px;background:#FFFFFF;" version="1.1" viewBox="0 0 1673 1428" width="1673px" zoomAndPan="magnify"><defs/><g><text fill="#000000" font-family="sans-serif" font-size="14" font-weight="bold" lengthAdjust="spacing" textLength="287" x="691.625" y="32.9951">Compute Instance Reconcile Activity</text><ellipse cx="652.875" cy="57.2969" fill="#0F766E" rx="10" ry="10" style="stroke:#222222;stroke-width:1.0;"/><rect fill="none" height="308.1719" style="stroke:#000000;stroke-width:1.5;" width="686" x="330.375" y="77.2969"/><path d="M463.375,77.2969 L463.375,86.5938 L453.375,96.5938 L330.375,96.5938 " fill="none" style="stroke:#000000;stroke-width:1.5;"/><text fill="#000000" font-family="sans-serif" font-size="14" lengthAdjust="spacing" textLength="123" x="333.375" y="91.292">Observe and Bind</text><rect fill="#F8FAFC" height="33.9688" rx="12.5" ry="12.5" style="stroke:#475569;stroke-width:0.5;" width="304" x="500.875" y="113.5938"/><text fill="#0F172A" font-family="sans-serif" font-size="12" lengthAdjust="spacing" textLength="284" x="510.875" y="134.7324">Read CR spec, status OCID, and delete intent</text><rect fill="#F8FAFC" height="33.9688" rx="12.5" ry="12.5" style="stroke:#475569;stroke-width:0.5;" width="460" x="422.875" y="167.5625"/><text fill="#0F172A" font-family="sans-serif" font-size="12" lengthAdjust="spacing" textLength="440" x="432.875" y="188.7012">Keep status-bound OCID authoritative for later update or delete paths</text><polygon fill="#E2E8F0" points="552.875,221.5313,752.875,221.5313,764.875,233.5313,752.875,245.5313,552.875,245.5313,540.875,233.5313,552.875,221.5313" style="stroke:#475569;stroke-width:0.5;"/><text fill="#0F172A" font-family="sans-serif" font-size="11" lengthAdjust="spacing" textLength="200" x="552.875" y="237.3394">"Tracked or explicit OCID present?"</text><text fill="#000000" font-family="sans-serif" font-size="11" lengthAdjust="spacing" textLength="20" x="520.875" y="230.937">yes</text><text fill="#000000" font-family="sans-serif" font-size="11" lengthAdjust="spacing" textLength="14" x="764.875" y="230.937">no</text><rect fill="#F8FAFC" height="33.9688" rx="12.5" ry="12.5" style="stroke:#475569;stroke-width:0.5;" width="272" x="350.375" y="255.5313"/><text fill="#0F172A" font-family="sans-serif" font-size="12" lengthAdjust="spacing" textLength="252" x="360.375" y="276.6699">Get the OCI resource by known identifier</text><rect fill="#F8FAFC" height="33.9688" rx="12.5" ry="12.5" style="stroke:#475569;stroke-width:0.5;" width="328" x="655.375" y="255.5313"/><text fill="#0F172A" font-family="sans-serif" font-size="12" lengthAdjust="spacing" textLength="308" x="665.375" y="276.6699">Resolve an existing OCI resource by display name</text><rect fill="#F8FAFC" height="33.9688" rx="12.5" ry="12.5" style="stroke:#475569;stroke-width:0.5;" width="354" x="642.375" y="309.5"/><text fill="#0F172A" font-family="sans-serif" font-size="12" lengthAdjust="spacing" textLength="334" x="652.375" y="330.6387">Persist the resolved or created OCID back into status</text><polygon fill="#E2E8F0" points="652.875,349.4688,664.875,361.4688,652.875,373.4688,640.875,361.4688,652.875,349.4688" style="stroke:#475569;stroke-width:0.5;"/><path d="M1254.25,708.9375 L1254.25,1157.7891 L1661.25,1157.7891 L1661.25,718.9375 L1651.25,708.9375 L1254.25,708.9375 " fill="#FEFFDD" style="stroke:#181818;stroke-width:0.5;"/><path d="M1651.25,708.9375 L1651.25,718.9375 L1661.25,718.9375 L1651.25,708.9375 " fill="#FEFFDD" style="stroke:#181818;stroke-width:0.5;"/><text fill="#000000" font-family="sans-serif" font-size="13" lengthAdjust="spacing" textLength="69" x="1260.25" y="726.0044">Archetype:</text><text fill="#000000" font-family="sans-serif" font-size="13" lengthAdjust="spacing" textLength="138" x="1260.25" y="741.1372">- resolved-drift-delete</text><text fill="#000000" font-family="sans-serif" font-size="13" lengthAdjust="spacing" textLength="134" x="1260.25" y="756.27">Retryable OCI states:</text><text fill="#000000" font-family="sans-serif" font-size="13" lengthAdjust="spacing" textLength="102" x="1260.25" y="771.4028">- PROVISIONING</text><text fill="#000000" font-family="sans-serif" font-size="13" lengthAdjust="spacing" textLength="72" x="1260.25" y="786.5356">- STARTING</text><text fill="#000000" font-family="sans-serif" font-size="13" lengthAdjust="spacing" textLength="74" x="1260.25" y="801.6685">- STOPPING</text><text fill="#000000" font-family="sans-serif" font-size="13" lengthAdjust="spacing" textLength="113" x="1260.25" y="816.8013">Active OCI states:</text><text fill="#000000" font-family="sans-serif" font-size="13" lengthAdjust="spacing" textLength="70" x="1260.25" y="831.9341">- RUNNING</text><text fill="#000000" font-family="sans-serif" font-size="13" lengthAdjust="spacing" textLength="69" x="1260.25" y="847.0669">- STOPPED</text><text fill="#000000" font-family="sans-serif" font-size="13" lengthAdjust="spacing" textLength="111" x="1260.25" y="862.1997">Failed OCI states:</text><text fill="#000000" font-family="sans-serif" font-size="13" lengthAdjust="spacing" textLength="53" x="1260.25" y="877.3325">- FAILED</text><text fill="#000000" font-family="sans-serif" font-size="13" lengthAdjust="spacing" textLength="90" x="1260.25" y="892.4653">- TERMINATED</text><text fill="#000000" font-family="sans-serif" font-size="13" lengthAdjust="spacing" textLength="102" x="1260.25" y="907.5981">Update surface:</text><text fill="#000000" font-family="sans-serif" font-size="13" lengthAdjust="spacing" textLength="92" x="1260.25" y="922.731">- displayName</text><text fill="#000000" font-family="sans-serif" font-size="13" lengthAdjust="spacing" textLength="48" x="1260.25" y="937.8638">- shape</text><text fill="#000000" font-family="sans-serif" font-size="13" lengthAdjust="spacing" textLength="88" x="1260.25" y="952.9966">- shapeConfig</text><text fill="#000000" font-family="sans-serif" font-size="13" lengthAdjust="spacing" textLength="94" x="1260.25" y="968.1294">- freeformTags</text><text fill="#000000" font-family="sans-serif" font-size="13" lengthAdjust="spacing" textLength="86" x="1260.25" y="983.2622">- definedTags</text><text fill="#000000" font-family="sans-serif" font-size="13" lengthAdjust="spacing" textLength="139" x="1260.25" y="998.395">Reject before mutate:</text><text fill="#000000" font-family="sans-serif" font-size="13" lengthAdjust="spacing" textLength="89" x="1260.25" y="1013.5278">- imageId drift</text><text fill="#000000" font-family="sans-serif" font-size="13" lengthAdjust="spacing" textLength="386" x="1260.25" y="1028.6606">- subnet and instance-option drift outside the modeled post-</text><text fill="#000000" font-family="sans-serif" font-size="13" lengthAdjust="spacing" textLength="78" x="1276.25" y="1043.7935">bind surface</text><text fill="#000000" font-family="sans-serif" font-size="13" lengthAdjust="spacing" textLength="105" x="1260.25" y="1058.9263">Boundary notes:</text><text fill="#000000" font-family="sans-serif" font-size="13" lengthAdjust="spacing" textLength="356" x="1260.25" y="1074.0591">- The modeled post-bind surface stops at display name,</text><text fill="#000000" font-family="sans-serif" font-size="13" lengthAdjust="spacing" textLength="218" x="1276.25" y="1089.1919">shape, shape config, and tag drift.</text><text fill="#000000" font-family="sans-serif" font-size="13" lengthAdjust="spacing" textLength="373" x="1260.25" y="1104.3247">- Compartment changes are handled in place before other</text><text fill="#000000" font-family="sans-serif" font-size="13" lengthAdjust="spacing" textLength="125" x="1276.25" y="1119.4575">supported updates.</text><text fill="#000000" font-family="sans-serif" font-size="13" lengthAdjust="spacing" textLength="166" x="1260.25" y="1134.5903">Controller-local invariants:</text><text fill="#000000" font-family="sans-serif" font-size="13" lengthAdjust="spacing" textLength="229" x="1260.25" y="1149.7231">- StatusPresentUsesStatusInvariant</text><polygon fill="#E2E8F0" points="595.875,405.4688,709.875,405.4688,721.875,417.4688,709.875,429.4688,595.875,429.4688,583.875,417.4688,595.875,405.4688" style="stroke:#475569;stroke-width:0.5;"/><text fill="#0F172A" font-family="sans-serif" font-size="11" lengthAdjust="spacing" textLength="114" x="595.875" y="421.2769">"Delete requested?"</text><text fill="#000000" font-family="sans-serif" font-size="11" lengthAdjust="spacing" textLength="20" x="563.875" y="414.8745">yes</text><text fill="#000000" font-family="sans-serif" font-size="11" lengthAdjust="spacing" textLength="14" x="721.875" y="414.8745">no</text><rect fill="none" height="220.2031" style="stroke:#000000;stroke-width:1.5;" width="624" x="11" y="439.4688"/><path d="M67,439.4688 L67,448.7656 L57,458.7656 L11,458.7656 " fill="none" style="stroke:#000000;stroke-width:1.5;"/><text fill="#000000" font-family="sans-serif" font-size="14" lengthAdjust="spacing" textLength="46" x="14" y="453.4639">Delete</text><rect fill="#F8FAFC" height="33.9688" rx="12.5" ry="12.5" style="stroke:#475569;stroke-width:0.5;" width="270" x="188" y="475.7656"/><text fill="#0F172A" font-family="sans-serif" font-size="12" lengthAdjust="spacing" textLength="250" x="198" y="496.9043">Submit OCI delete for Compute Instance</text><rect fill="#F8FAFC" height="33.9688" rx="12.5" ry="12.5" style="stroke:#475569;stroke-width:0.5;" width="604" x="21" y="544.7344"/><text fill="#0F172A" font-family="sans-serif" font-size="12" lengthAdjust="spacing" textLength="584" x="31" y="565.873">Confirm termination with GetInstance until the resource reaches TERMINATED or is not found.</text><rect fill="#F8FAFC" height="33.9688" rx="12.5" ry="12.5" style="stroke:#475569;stroke-width:0.5;" width="338" x="154" y="613.7031"/><text fill="#0F172A" font-family="sans-serif" font-size="12" lengthAdjust="spacing" textLength="318" x="164" y="634.8418">Remove the finalizer after OCI deletion is confirmed</text><ellipse cx="323" cy="705.6719" fill="none" rx="11" ry="11" style="stroke:#222222;stroke-width:1.0;"/><ellipse cx="323" cy="705.6719" fill="#222222" rx="6" ry="6" style="stroke:#111111;stroke-width:1.0;"/><rect fill="none" height="422.8438" style="stroke:#000000;stroke-width:1.5;" width="376" x="800.75" y="439.4688"/><path d="M961.75,439.4688 L961.75,448.7656 L951.75,458.7656 L800.75,458.7656 " fill="none" style="stroke:#000000;stroke-width:1.5;"/><text fill="#000000" font-family="sans-serif" font-size="14" lengthAdjust="spacing" textLength="151" x="803.75" y="453.4639">Lifecycle Classification</text><rect fill="#F8FAFC" height="33.9688" rx="12.5" ry="12.5" style="stroke:#475569;stroke-width:0.5;" width="268" x="848.75" y="524.168"/><text fill="#0F172A" font-family="sans-serif" font-size="12" lengthAdjust="spacing" textLength="248" x="858.75" y="545.3066">Request requeue and keep the finalizer</text><ellipse cx="982.75" cy="604.1367" fill="none" rx="11" ry="11" style="stroke:#222222;stroke-width:1.0;"/><ellipse cx="982.75" cy="604.1367" fill="#222222" rx="6" ry="6" style="stroke:#111111;stroke-width:1.0;"/><polygon fill="#E2E8F0" points="902.75,475.7656,1062.75,475.7656,1074.75,487.7656,1062.75,499.7656,902.75,499.7656,890.75,487.7656,902.75,475.7656" style="stroke:#475569;stroke-width:0.5;"/><text fill="#000000" font-family="sans-serif" font-size="11" lengthAdjust="spacing" textLength="20" x="986.75" y="509.9761">yes</text><text fill="#0F172A" font-family="sans-serif" font-size="11" lengthAdjust="spacing" textLength="160" x="902.75" y="491.5737">"OCI state in retryable set?"</text><rect fill="#F8FAFC" height="33.9688" rx="12.5" ry="12.5" style="stroke:#475569;stroke-width:0.5;" width="324" x="820.75" y="720.9414"/><text fill="#0F172A" font-family="sans-serif" font-size="12" lengthAdjust="spacing" textLength="304" x="830.75" y="742.0801">Return an unsuccessful terminal reconcile result</text><ellipse cx="982.75" cy="800.9102" fill="none" rx="11" ry="11" style="stroke:#222222;stroke-width:1.0;"/><ellipse cx="982.75" cy="800.9102" fill="#222222" rx="6" ry="6" style="stroke:#111111;stroke-width:1.0;"/><polygon fill="#E2E8F0" points="912.75,672.5391,1052.75,672.5391,1064.75,684.5391,1052.75,696.5391,912.75,696.5391,900.75,684.5391,912.75,672.5391" style="stroke:#475569;stroke-width:0.5;"/><text fill="#000000" font-family="sans-serif" font-size="11" lengthAdjust="spacing" textLength="20" x="986.75" y="706.7495">yes</text><text fill="#0F172A" font-family="sans-serif" font-size="11" lengthAdjust="spacing" textLength="140" x="912.75" y="688.3472">"OCI state in failed set?"</text><rect fill="none" height="512.9453" style="stroke:#000000;stroke-width:1.5;" width="589.25" x="655" y="897.3125"/><path d="M834,897.3125 L834,906.6094 L824,916.6094 L655,916.6094 " fill="none" style="stroke:#000000;stroke-width:1.5;"/><text fill="#000000" font-family="sans-serif" font-size="14" lengthAdjust="spacing" textLength="169" x="658" y="911.3076">Ready and Drift Handling</text><rect fill="#F8FAFC" height="33.9688" rx="12.5" ry="12.5" style="stroke:#475569;stroke-width:0.5;" width="364" x="800.75" y="933.6094"/><text fill="#0F172A" font-family="sans-serif" font-size="12" lengthAdjust="spacing" textLength="344" x="810.75" y="954.748">Compare live OCI state with the supported drift surface</text><rect fill="#F8FAFC" height="33.9688" rx="12.5" ry="12.5" style="stroke:#475569;stroke-width:0.5;" width="290" x="837.75" y="1050.9805"/><text fill="#0F172A" font-family="sans-serif" font-size="12" lengthAdjust="spacing" textLength="270" x="847.75" y="1072.1191">Reject the change before any OCI mutation</text><ellipse cx="982.75" cy="1130.9492" fill="none" rx="11" ry="11" style="stroke:#222222;stroke-width:1.0;"/><ellipse cx="982.75" cy="1130.9492" fill="#222222" rx="6" ry="6" style="stroke:#111111;stroke-width:1.0;"/><polygon fill="#E2E8F0" points="858.25,1002.5781,1107.25,1002.5781,1119.25,1014.5781,1107.25,1026.5781,858.25,1026.5781,846.25,1014.5781,858.25,1002.5781" style="stroke:#475569;stroke-width:0.5;"/><text fill="#000000" font-family="sans-serif" font-size="11" lengthAdjust="spacing" textLength="20" x="986.75" y="1036.7886">yes</text><text fill="#0F172A" font-family="sans-serif" font-size="11" lengthAdjust="spacing" textLength="249" x="858.25" y="1018.3862">"Unsupported or immutable drift detected?"</text><rect fill="#F8FAFC" height="33.9688" rx="12.5" ry="12.5" style="stroke:#475569;stroke-width:0.5;" width="499" x="733.25" y="1192.3516"/><text fill="#0F172A" font-family="sans-serif" font-size="12" lengthAdjust="spacing" textLength="479" x="743.25" y="1213.4902">Keep the retained OCID authoritative for post-bind update and delete paths.</text><polygon fill="#E2E8F0" points="905.25,1246.3203,1060.25,1246.3203,1072.25,1258.3203,1060.25,1270.3203,905.25,1270.3203,893.25,1258.3203,905.25,1246.3203" style="stroke:#475569;stroke-width:0.5;"/><text fill="#0F172A" font-family="sans-serif" font-size="11" lengthAdjust="spacing" textLength="155" x="905.25" y="1262.1284">"Supported drift detected?"</text><text fill="#000000" font-family="sans-serif" font-size="11" lengthAdjust="spacing" textLength="20" x="873.25" y="1255.7261">yes</text><text fill="#000000" font-family="sans-serif" font-size="11" lengthAdjust="spacing" textLength="14" x="1072.25" y="1255.7261">no</text><rect fill="#F8FAFC" height="33.9688" rx="12.5" ry="12.5" style="stroke:#475569;stroke-width:0.5;" width="329" x="675" y="1280.3203"/><text fill="#0F172A" font-family="sans-serif" font-size="12" lengthAdjust="spacing" textLength="309" x="685" y="1301.459">Apply only the supported in-place update surface</text><rect fill="#F8FAFC" height="33.9688" rx="12.5" ry="12.5" style="stroke:#475569;stroke-width:0.5;" width="204" x="1024" y="1280.3203"/><text fill="#0F172A" font-family="sans-serif" font-size="12" lengthAdjust="spacing" textLength="184" x="1034" y="1301.459">Skip the no-op mutation path</text><polygon fill="#E2E8F0" points="982.75,1320.2891,994.75,1332.2891,982.75,1344.2891,970.75,1332.2891,982.75,1320.2891" style="stroke:#475569;stroke-width:0.5;"/><rect fill="#F8FAFC" height="33.9688" rx="12.5" ry="12.5" style="stroke:#475569;stroke-width:0.5;" width="287" x="839.25" y="1364.2891"/><text fill="#0F172A" font-family="sans-serif" font-size="12" lengthAdjust="spacing" textLength="267" x="849.25" y="1385.4277">Return success for the usable active state</text><line style="stroke:#334155;stroke-width:1.0;" x1="652.875" x2="652.875" y1="147.5625" y2="167.5625"/><polygon fill="#334155" points="648.875,157.5625,652.875,167.5625,656.875,157.5625,652.875,161.5625" style="stroke:#334155;stroke-width:1.0;"/><line style="stroke:#334155;stroke-width:1.0;" x1="819.375" x2="819.375" y1="289.5" y2="309.5"/><polygon fill="#334155" points="815.375,299.5,819.375,309.5,823.375,299.5,819.375,303.5" style="stroke:#334155;stroke-width:1.0;"/><line style="stroke:#334155;stroke-width:1.0;" x1="540.875" x2="486.375" y1="233.5313" y2="233.5313"/><line style="stroke:#334155;stroke-width:1.0;" x1="486.375" x2="486.375" y1="233.5313" y2="255.5313"/><polygon fill="#334155" points="482.375,245.5313,486.375,255.5313,490.375,245.5313,486.375,249.5313" style="stroke:#334155;stroke-width:1.0;"/><line style="stroke:#334155;stroke-width:1.0;" x1="764.875" x2="819.375" y1="233.5313" y2="233.5313"/><line style="stroke:#334155;stroke-width:1.0;" x1="819.375" x2="819.375" y1="233.5313" y2="255.5313"/><polygon fill="#334155" points="815.375,245.5313,819.375,255.5313,823.375,245.5313,819.375,249.5313" style="stroke:#334155;stroke-width:1.0;"/><line style="stroke:#334155;stroke-width:1.0;" x1="486.375" x2="486.375" y1="289.5" y2="361.4688"/><line style="stroke:#334155;stroke-width:1.0;" x1="486.375" x2="640.875" y1="361.4688" y2="361.4688"/><polygon fill="#334155" points="630.875,357.4688,640.875,361.4688,630.875,365.4688,634.875,361.4688" style="stroke:#334155;stroke-width:1.0;"/><line style="stroke:#334155;stroke-width:1.0;" x1="819.375" x2="819.375" y1="343.4688" y2="361.4688"/><line style="stroke:#334155;stroke-width:1.0;" x1="819.375" x2="664.875" y1="361.4688" y2="361.4688"/><polygon fill="#334155" points="674.875,357.4688,664.875,361.4688,674.875,365.4688,670.875,361.4688" style="stroke:#334155;stroke-width:1.0;"/><line style="stroke:#334155;stroke-width:1.0;" x1="652.875" x2="652.875" y1="201.5313" y2="221.5313"/><polygon fill="#334155" points="648.875,211.5313,652.875,221.5313,656.875,211.5313,652.875,215.5313" style="stroke:#334155;stroke-width:1.0;"/><line style="stroke:#334155;stroke-width:1.0;" x1="652.875" x2="652.875" y1="67.2969" y2="113.5938"/><polygon fill="#334155" points="648.875,103.5938,652.875,113.5938,656.875,103.5938,652.875,107.5938" style="stroke:#334155;stroke-width:1.0;"/><line style="stroke:#334155;stroke-width:1.0;" x1="323" x2="323" y1="509.7344" y2="544.7344"/><polygon fill="#334155" points="319,534.7344,323,544.7344,327,534.7344,323,538.7344" style="stroke:#334155;stroke-width:1.0;"/><line style="stroke:#334155;stroke-width:1.0;" x1="323" x2="323" y1="578.7031" y2="613.7031"/><polygon fill="#334155" points="319,603.7031,323,613.7031,327,603.7031,323,607.7031" style="stroke:#334155;stroke-width:1.0;"/><line style="stroke:#334155;stroke-width:1.0;" x1="323" x2="323" y1="647.6719" y2="694.6719"/><polygon fill="#334155" points="319,684.6719,323,694.6719,327,684.6719,323,688.6719" style="stroke:#334155;stroke-width:1.0;"/><line style="stroke:#334155;stroke-width:1.0;" x1="982.75" x2="982.75" y1="558.1367" y2="593.1367"/><polygon fill="#334155" points="978.75,583.1367,982.75,593.1367,986.75,583.1367,982.75,587.1367" style="stroke:#334155;stroke-width:1.0;"/><line style="stroke:#334155;stroke-width:1.0;" x1="982.75" x2="982.75" y1="499.7656" y2="524.168"/><polygon fill="#334155" points="978.75,514.168,982.75,524.168,986.75,514.168,982.75,518.168" style="stroke:#334155;stroke-width:1.0;"/><line style="stroke:#334155;stroke-width:1.0;" x1="1074.75" x2="1126.75" y1="487.7656" y2="487.7656"/><polygon fill="#334155" points="1122.75,556.6523,1126.75,566.6523,1130.75,556.6523,1126.75,560.6523" style="stroke:#334155;stroke-width:1.0;"/><line style="stroke:#334155;stroke-width:1.0;" x1="1126.75" x2="1126.75" y1="487.7656" y2="645.5391"/><line style="stroke:#334155;stroke-width:1.0;" x1="1126.75" x2="982.75" y1="645.5391" y2="645.5391"/><line style="stroke:#334155;stroke-width:1.0;" x1="982.75" x2="982.75" y1="645.5391" y2="672.5391"/><polygon fill="#334155" points="978.75,662.5391,982.75,672.5391,986.75,662.5391,982.75,666.5391" style="stroke:#334155;stroke-width:1.0;"/><line style="stroke:#334155;stroke-width:1.0;" x1="982.75" x2="982.75" y1="754.9102" y2="789.9102"/><polygon fill="#334155" points="978.75,779.9102,982.75,789.9102,986.75,779.9102,982.75,783.9102" style="stroke:#334155;stroke-width:1.0;"/><line style="stroke:#334155;stroke-width:1.0;" x1="982.75" x2="982.75" y1="696.5391" y2="720.9414"/><polygon fill="#334155" points="978.75,710.9414,982.75,720.9414,986.75,710.9414,982.75,714.9414" style="stroke:#334155;stroke-width:1.0;"/><line style="stroke:#334155;stroke-width:1.0;" x1="1064.75" x2="1154.75" y1="684.5391" y2="684.5391"/><polygon fill="#334155" points="1150.75,753.4258,1154.75,763.4258,1158.75,753.4258,1154.75,757.4258" style="stroke:#334155;stroke-width:1.0;"/><line style="stroke:#334155;stroke-width:1.0;" x1="1154.75" x2="1154.75" y1="684.5391" y2="842.3125"/><line style="stroke:#334155;stroke-width:1.0;" x1="1154.75" x2="982.75" y1="842.3125" y2="842.3125"/><line style="stroke:#334155;stroke-width:1.0;" x1="982.75" x2="982.75" y1="842.3125" y2="933.6094"/><polygon fill="#334155" points="978.75,923.6094,982.75,933.6094,986.75,923.6094,982.75,927.6094" style="stroke:#334155;stroke-width:1.0;"/><line style="stroke:#334155;stroke-width:1.0;" x1="982.75" x2="982.75" y1="1084.9492" y2="1119.9492"/><polygon fill="#334155" points="978.75,1109.9492,982.75,1119.9492,986.75,1109.9492,982.75,1113.9492" style="stroke:#334155;stroke-width:1.0;"/><line style="stroke:#334155;stroke-width:1.0;" x1="982.75" x2="982.75" y1="1026.5781" y2="1050.9805"/><polygon fill="#334155" points="978.75,1040.9805,982.75,1050.9805,986.75,1040.9805,982.75,1044.9805" style="stroke:#334155;stroke-width:1.0;"/><line style="stroke:#334155;stroke-width:1.0;" x1="1119.25" x2="1137.75" y1="1014.5781" y2="1014.5781"/><polygon fill="#334155" points="1133.75,1083.4648,1137.75,1093.4648,1141.75,1083.4648,1137.75,1087.4648" style="stroke:#334155;stroke-width:1.0;"/><line style="stroke:#334155;stroke-width:1.0;" x1="1137.75" x2="1137.75" y1="1014.5781" y2="1172.3516"/><line style="stroke:#334155;stroke-width:1.0;" x1="1137.75" x2="982.75" y1="1172.3516" y2="1172.3516"/><line style="stroke:#334155;stroke-width:1.0;" x1="982.75" x2="982.75" y1="1172.3516" y2="1192.3516"/><polygon fill="#334155" points="978.75,1182.3516,982.75,1192.3516,986.75,1182.3516,982.75,1186.3516" style="stroke:#334155;stroke-width:1.0;"/><line style="stroke:#334155;stroke-width:1.0;" x1="982.75" x2="982.75" y1="967.5781" y2="1002.5781"/><polygon fill="#334155" points="978.75,992.5781,982.75,1002.5781,986.75,992.5781,982.75,996.5781" style="stroke:#334155;stroke-width:1.0;"/><line style="stroke:#334155;stroke-width:1.0;" x1="893.25" x2="839.5" y1="1258.3203" y2="1258.3203"/><line style="stroke:#334155;stroke-width:1.0;" x1="839.5" x2="839.5" y1="1258.3203" y2="1280.3203"/><polygon fill="#334155" points="835.5,1270.3203,839.5,1280.3203,843.5,1270.3203,839.5,1274.3203" style="stroke:#334155;stroke-width:1.0;"/><line style="stroke:#334155;stroke-width:1.0;" x1="1072.25" x2="1126" y1="1258.3203" y2="1258.3203"/><line style="stroke:#334155;stroke-width:1.0;" x1="1126" x2="1126" y1="1258.3203" y2="1280.3203"/><polygon fill="#334155" points="1122,1270.3203,1126,1280.3203,1130,1270.3203,1126,1274.3203" style="stroke:#334155;stroke-width:1.0;"/><line style="stroke:#334155;stroke-width:1.0;" x1="839.5" x2="839.5" y1="1314.2891" y2="1332.2891"/><line style="stroke:#334155;stroke-width:1.0;" x1="839.5" x2="970.75" y1="1332.2891" y2="1332.2891"/><polygon fill="#334155" points="960.75,1328.2891,970.75,1332.2891,960.75,1336.2891,964.75,1332.2891" style="stroke:#334155;stroke-width:1.0;"/><line style="stroke:#334155;stroke-width:1.0;" x1="1126" x2="1126" y1="1314.2891" y2="1332.2891"/><line style="stroke:#334155;stroke-width:1.0;" x1="1126" x2="994.75" y1="1332.2891" y2="1332.2891"/><polygon fill="#334155" points="1004.75,1328.2891,994.75,1332.2891,1004.75,1336.2891,1000.75,1332.2891" style="stroke:#334155;stroke-width:1.0;"/><line style="stroke:#334155;stroke-width:1.0;" x1="982.75" x2="982.75" y1="1226.3203" y2="1246.3203"/><polygon fill="#334155" points="978.75,1236.3203,982.75,1246.3203,986.75,1236.3203,982.75,1240.3203" style="stroke:#334155;stroke-width:1.0;"/><line style="stroke:#334155;stroke-width:1.0;" x1="982.75" x2="982.75" y1="1344.2891" y2="1364.2891"/><polygon fill="#334155" points="978.75,1354.2891,982.75,1364.2891,986.75,1354.2891,982.75,1358.2891" style="stroke:#334155;stroke-width:1.0;"/><line style="stroke:#334155;stroke-width:1.0;" x1="583.875" x2="323" y1="417.4688" y2="417.4688"/><line style="stroke:#334155;stroke-width:1.0;" x1="323" x2="323" y1="417.4688" y2="475.7656"/><polygon fill="#334155" points="319,465.7656,323,475.7656,327,465.7656,323,469.7656" style="stroke:#334155;stroke-width:1.0;"/><line style="stroke:#334155;stroke-width:1.0;" x1="721.875" x2="982.75" y1="417.4688" y2="417.4688"/><line style="stroke:#334155;stroke-width:1.0;" x1="982.75" x2="982.75" y1="417.4688" y2="475.7656"/><polygon fill="#334155" points="978.75,465.7656,982.75,475.7656,986.75,465.7656,982.75,469.7656" style="stroke:#334155;stroke-width:1.0;"/><line style="stroke:#334155;stroke-width:1.0;" x1="982.75" x2="982.75" y1="1398.2578" y2="1416.2578"/><line style="stroke:#334155;stroke-width:1.0;" x1="982.75" x2="652.875" y1="1416.2578" y2="1416.2578"/><line style="stroke:#334155;stroke-width:1.0;" x1="652.875" x2="652.875" y1="373.4688" y2="405.4688"/><polygon fill="#334155" points="648.875,395.4688,652.875,405.4688,656.875,395.4688,652.875,399.4688" style="stroke:#334155;stroke-width:1.0;"/><!--SRC=[VLRRKjj847tNLqonBwGAKo49a8I7BU5BrhLPGzbctyTIovvbDAET2qIxbNzFTuyiP4AW2cpDzEsSFjqYgA11Z6tTn01YRdoGfW2nXCAQGk5LNWJre4AR-Njb6kbaBVnEblPHcQsefFOmkBcMnVtMsMZAiTNMYTzc_3Emo9spZztb-_SVpixF1vSbL3Bgi8Pl8TTgQsemGMYemi16TlM8_pFnGhwFitmsfXlhId3TwOVBy_EBJtWwioPqPszdPvVlSZoRA5bRK_uKQlfk-d7sTc3mOiHLaEufvEN5nHGFftsGozdPv6oIVSyysMKPOWWgA6l4qSt6Wti08KqfhfKfZnZHvoN8KeoNmZTGd0Xq2z6Bc_5ySiAM9MZ0HYaJa9ihSlWJeEdiHXkgdws5Z65ddS9pXKagB4RB04x4fiHFWSzTg4Q6dQT8gXB7Hsk7F419z_2jqQfG8SLh77XC-VlH6n5sOCHn2_uDUc45No3G6Ta9jBBHeO8shRWtzj48LQARgXGuIW8e675iREUwH7FD960wvGE9wdcOKlb6orOOMSDLShi5vz6QixeKWaik722uZe4D8Y6YRCSEfpUbgh0T6OET90OS_1l1ezzFu0RjIhQfILZ1AcxgHCsUHwBu-HnrvOwjgPIh1V9VAoCvuACAEu7CzICNaINT8sBmYAROWHVhwVAl-I9VJoS4KdbXRC1ysElJgpsFjKKQoRl235hzXwsM5JMyBv6oec-HYe6INB_Zhm-soOPz6Q3-gYeese9MX9RUOniBBd_F0zD86OXYaYNM75mhD-ZXuIMrSB7CT-8zfWcu9nKVb7_LcNDvz2NrxkMibSHTLRwMCaHdI6RH-5WKu7qLzRuX6alPxpia7rVGBvEZT0u8ed5j6S74gIg8F_2hHXNtGY59I0T2qnW-rSpj9xm-Derr9DgI0_ZeAhbN3WEzCqysrFwwZe49JWubYgzuIRmTy7_mbZCLEscsE560IYNIMow7WX6KL-XEAoOfCqXbu9Shfh4-Z3QupFPhPh2oUC-S3d2jdY5_7KZUDBeLrk2VGzgK6U5we05AAGy8F5mtDBVtAa4nTcIR7ZrNT_KSTwUQJZ2Ca5oZP_hvJGIfdscMacjMQIjva-6O8cTgkmjPxd2IGzl0vspKhwmH0nybWh9bFpczJ3nPtovl_fwlvZUB-U8BFgxM-NAz_tfpUqjVyrJAeT_oRh4Os4qdsInDoQ7PB9z_nRlHOCjaTmTKabMtX1UuW_49_mDe-a_URbjygXoGjkgrt7foWOgqma-T33ljCUiSLjLo2_DE0HGmRWo-JKWsgbkCs2RkK1A9ZS7Z6uNxK5jYhaoguuwnzBggisjQaDArt0Q6kdxkDBHdvNiXmy4BvuJZCiwJz94Mw3QzZeFSfi9ECNmQzS3_jQHXmt08TqSxWPKgab8x6Yo2S2b-h-OaOd-Q8Ql1MQt1ZRGjS4Kfyo2TaYOmb1M_qcxJI_dEWqy7yxqHQP61Ppy0]--></g></svg>