<?xml version="1.0" encoding="UTF-8" standalone="no"?><svg xmlns="http://www.w3.org/2000/svg" xmlns:xlink="http://www.w3.org/1999/xlink" contentStyleType="text/css" height="561px" preserveAspectRatio="none" style="width:554px;height:561px;background:#FFFFFF;" version="1.1" viewBox="0 0 554 561" width="554px" zoomAndPan="magnify"><defs/><g><text fill="#000000" font-family="sans-serif" font-size="14" font-weight="bold" lengthAdjust="spacing" textLength="271" x="134.625" y="22.9951">ComputeInstance Formal Lifecycle</text><ellipse cx="266.25" cy="53.2969" fill="#222222" rx="10" ry="10" style="stroke:none;stroke-width:1.0;"/><g id="Observed"><rect fill="#F1F1F1" height="50" rx="12.5" ry="12.5" style="stroke:#181818;stroke-width:0.5;" width="87" x="222.75" y="124.2969"/><line style="stroke:#181818;stroke-width:0.5;" x1="222.75" x2="309.75" y1="150.5938" y2="150.5938"/><text fill="#000000" font-family="sans-serif" font-size="14" lengthAdjust="spacing" textLength="67" x="232.75" y="142.292">Observed</text></g><g id="Retryable"><rect fill="#F1F1F1" height="50" rx="12.5" ry="12.5" style="stroke:#181818;stroke-width:0.5;" width="85" x="8.75" y="251.2969"/><line style="stroke:#181818;stroke-width:0.5;" x1="8.75" x2="93.75" y1="277.5938" y2="277.5938"/><text fill="#000000" font-family="sans-serif" font-size="14" lengthAdjust="spacing" textLength="65" x="18.75" y="269.292">Retryable</text></g><g id="Active"><rect fill="#F1F1F1" height="50" rx="12.5" ry="12.5" style="stroke:#181818;stroke-width:0.5;" width="61" x="235.75" y="251.2969"/><line style="stroke:#181818;stroke-width:0.5;" x1="235.75" x2="296.75" y1="277.5938" y2="277.5938"/><text fill="#000000" font-family="sans-serif" font-size="14" lengthAdjust="spacing" textLength="41" x="245.75" y="269.292">Active</text></g><g id="Failed"><rect fill="#F1F1F1" height="50" rx="12.5" ry="12.5" style="stroke:#181818;stroke-width:0.5;" width="60" x="402.25" y="251.2969"/><line style="stroke:#181818;stroke-width:0.5;" x1="402.25" x2="462.25" y1="277.5938" y2="277.5938"/><text fill="#000000" font-family="sans-serif" font-size="14" lengthAdjust="spacing" textLength="40" x="412.25" y="269.292">Failed</text></g><g id="DeletePending"><rect fill="#F1F1F1" height="50" rx="12.5" ry="12.5" style="stroke:#181818;stroke-width:0.5;" width="123" x="204.75" y="378.2969"/><line style="stroke:#181818;stroke-width:0.5;" x1="204.75" x2="327.75" y1="404.5938" y2="404.5938"/><text fill="#000000" font-family="sans-serif" font-size="14" lengthAdjust="spacing" textLength="103" x="214.75" y="396.292">DeletePending</text></g><g id="Deleted"><rect fill="#F1F1F1" height="50" rx="12.5" ry="12.5" style="stroke:#181818;stroke-width:0.5;" width="75" x="228.75" y="505.2969"/><line style="stroke:#181818;stroke-width:0.5;" x1="228.75" x2="303.75" y1="531.5938" y2="531.5938"/><text fill="#000000" font-family="sans-serif" font-size="14" lengthAdjust="spacing" textLength="55" x="238.75" y="523.292">Deleted</text></g><!--link *start to Observed--><g id="link_*start_Observed"><path d="M266.25,63.3069 C266.25,75.9969 266.25,99.7069 266.25,118.8669 " fill="none" id="*start-to-Observed" style="stroke:#181818;stroke-width:1.0;"/><polygon fill="#181818" points="266.25,124.1369,270.25,115.1369,266.25,119.1369,262.25,115.1369,266.25,124.1369" style="stroke:#181818;stroke-width:1.0;"/></g><!--link Observed to Retryable--><g id="link_Observed_Retryable"><path d="M222.55,153.2969 C157.92,158.7469 41.7,172.7669 16.25,204.2969 C6,216.9969 12.79,233.1869 23.01,246.8969 " fill="none" id="Observed-to-Retryable" style="stroke:#181818;stroke-width:1.0;"/><polygon fill="#181818" points="26.28,251.0669,23.8664,241.5183,23.1915,247.1348,17.5751,246.4599,26.28,251.0669" style="stroke:#181818;stroke-width:1.0;"/><text fill="#000000" font-family="sans-serif" font-size="13" lengthAdjust="spacing" textLength="237" x="17.25" y="217.3638">PROVISIONING, STARTING, STOPPING</text></g><!--link Observed to Active--><g id="link_Observed_Active"><path d="M264.62,174.4769 C264.07,183.7969 263.52,194.5369 263.25,204.2969 C262.87,217.8969 263.38,232.9469 264.07,245.6769 " fill="none" id="Observed-to-Active" style="stroke:#181818;stroke-width:1.0;"/><polygon fill="#181818" points="264.38,250.9869,267.86,241.7733,264.0948,245.995,259.8731,242.2297,264.38,250.9869" style="stroke:#181818;stroke-width:1.0;"/><text fill="#000000" font-family="sans-serif" font-size="13" lengthAdjust="spacing" textLength="129" x="264.25" y="217.3638">RUNNING, STOPPED</text></g><!--link Observed to Failed--><g id="link_Observed_Failed"><path d="M309.92,159.5369 C338.03,167.3969 373.76,181.1869 398.25,204.2969 C410.31,215.6669 418.57,232.2069 423.93,246.4569 " fill="none" id="Observed-to-Failed" style="stroke:#181818;stroke-width:1.0;"/><polygon fill="#181818" points="425.64,251.1869,426.3667,241.3649,423.952,246.4804,418.8364,244.0657,425.64,251.1869" style="stroke:#181818;stroke-width:1.0;"/><text fill="#000000" font-family="sans-serif" font-size="13" lengthAdjust="spacing" textLength="133" x="413.25" y="217.3638">FAILED, TERMINATED</text></g><!--link Active to DeletePending--><g id="link_Active_DeletePending"><path d="M266.25,301.3969 C266.25,321.8869 266.25,351.3769 266.25,373.1769 " fill="none" id="Active-to-DeletePending" style="stroke:#181818;stroke-width:1.0;"/><polygon fill="#181818" points="266.25,378.2669,270.25,369.2669,266.25,373.2669,262.25,369.2669,266.25,378.2669" style="stroke:#181818;stroke-width:1.0;"/><text fill="#000000" font-family="sans-serif" font-size="13" lengthAdjust="spacing" textLength="109" x="267.25" y="344.3638">delete requested</text></g><!--link Retryable to DeletePending--><g id="link_Retryable_DeletePending"><path d="M80.4,301.3769 C98.87,315.9869 123.66,334.4269 147.25,348.2969 C164.47,358.4169 183.92,367.9669 202.03,376.1369 " fill="none" id="Retryable-to-DeletePending" style="stroke:#181818;stroke-width:1.0;"/><polygon fill="#181818" points="206.6,378.1769,200.0151,370.853,202.0351,376.1369,196.7512,378.1569,206.6,378.1769" style="stroke:#181818;stroke-width:1.0;"/><text fill="#000000" font-family="sans-serif" font-size="13" lengthAdjust="spacing" textLength="109" x="148.25" y="344.3638">delete requested</text></g><!--link Failed to DeletePending--><g id="link_Failed_DeletePending"><path d="M420.67,301.5469 C412.49,316.5969 400.32,335.4469 385.25,348.2969 C369.89,361.3869 350.84,371.9069 332.51,380.0569 " fill="none" id="Failed-to-DeletePending" style="stroke:#181818;stroke-width:1.0;"/><polygon fill="#181818" points="327.87,382.0769,337.7184,382.1712,332.4583,380.09,334.5395,374.8299,327.87,382.0769" style="stroke:#181818;stroke-width:1.0;"/><text fill="#000000" font-family="sans-serif" font-size="13" lengthAdjust="spacing" textLength="109" x="402.25" y="344.3638">delete requested</text></g><!--link DeletePending to Deleted--><g id="link_DeletePending_Deleted"><path d="M266.25,428.3969 C266.25,448.8869 266.25,478.3769 266.25,500.1769 " fill="none" id="DeletePending-to-Deleted" style="stroke:#181818;stroke-width:1.0;"/><polygon fill="#181818" points="266.25,505.2669,270.25,496.2669,266.25,500.2669,262.25,496.2669,266.25,505.2669" style="stroke:#181818;stroke-width:1.0;"/><text fill="#000000" font-family="sans-serif" font-size="13" lengthAdjust="spacing" textLength="188" x="267.25" y="471.3638">finalizer removed after delete</text></g><!--SRC=[ZP31ReCm44Jl_eezLyaFv5095QWifGOvj9Ug1mUMof8nZTb4Ihw-It2BVCjjndexEskov11Unk7dJ2ZzHCQt2EKO1kDWRtjihwr38JwVlc2xVORgE66uO2V-nFrL8uMhENBI3cfTVSY3h9HKhniuD9bkeghgcbKwcRLaB_EOVbTgvOeynKfZ7SiTb9dS5_a6caA_IPKr3CQ86SlH8M6DlhF-c-dkxY7WwOmJSUkrw4DuNFiGcmBhoDowjzuuUyF0_33EHvcUs2qXGl2tSzP_kUYNmw9PgaIJx4hUkby0]--></g></svg>