<?xml version="1.0" encoding="UTF-8" standalone="no"?><svg xmlns="http://www.w3.org/2000/svg" xmlns:xlink="http://www.w3.org/1999/xlink" contentStyleType="text/css" height="1336px" preserveAspectRatio="none" style="width:1169px;height:1336px;background:#FFFFFF;" version="1.1" viewBox="0 0 1169 1336" width="1169px" zoomAndPan="magnify"><defs/><g><text fill="#000000" font-family="sans-serif" font-size="14" font-weight="bold" lengthAdjust="spacing" textLength="308" x="432.25" y="27.9951">Compute Instance Reconcile Sequence</text><rect fill="none" height="254.6719" style="stroke:#475569;stroke-width:1.5;" width="895" x="268.5" y="193.8594"/><rect fill="none" height="223.5391" style="stroke:#475569;stroke-width:1.5;" width="875" x="278.5" y="217.9922"/><rect fill="none" height="119.3359" style="stroke:#475569;stroke-width:1.5;" width="855" x="288.5" y="315.1953"/><rect fill="none" height="619.6016" style="stroke:#475569;stroke-width:1.5;" width="1143.5" x="10" y="462.5313"/><rect fill="none" height="104.5313" style="stroke:#475569;stroke-width:1.5;" width="855" x="288.5" y="486.6641"/><rect fill="none" height="338.125" style="stroke:#475569;stroke-width:1.5;" width="1022" x="20" y="707.875"/><rect fill="none" height="46.2656" style="stroke:#475569;stroke-width:1.5;" width="406.5" x="30" y="903.3359"/><rect fill="none" height="46.2656" style="stroke:#475569;stroke-width:1.5;" width="733" x="288.5" y="992.7344"/><line style="stroke:#94A3B8;stroke-width:0.5;stroke-dasharray:5.0,5.0;" x1="76" x2="76" y1="118.5938" y2="1255.3281"/><line style="stroke:#94A3B8;stroke-width:0.5;stroke-dasharray:5.0,5.0;" x1="362.5" x2="362.5" y1="118.5938" y2="1255.3281"/><line style="stroke:#94A3B8;stroke-width:0.5;stroke-dasharray:5.0,5.0;" x1="993.5" x2="993.5" y1="118.5938" y2="1255.3281"/><line style="stroke:#94A3B8;stroke-width:0.5;stroke-dasharray:5.0,5.0;" x1="1077.5" x2="1077.5" y1="118.5938" y2="1255.3281"/><text fill="#000000" font-family="sans-serif" font-size="14" lengthAdjust="spacing" textLength="67" x="40" y="115.292">Controller</text><ellipse cx="76.5" cy="50.7969" fill="#E0F2FE" rx="8" ry="8" style="stroke:#0F766E;stroke-width:0.5;"/><path d="M76.5,58.7969 L76.5,85.7969 M63.5,66.7969 L89.5,66.7969 M76.5,85.7969 L63.5,100.7969 M76.5,85.7969 L89.5,100.7969 " fill="none" style="stroke:#0F766E;stroke-width:0.5;"/><text fill="#000000" font-family="sans-serif" font-size="14" lengthAdjust="spacing" textLength="67" x="40" y="1267.3232">Controller</text><ellipse cx="76.5" cy="1279.125" fill="#E0F2FE" rx="8" ry="8" style="stroke:#0F766E;stroke-width:0.5;"/><path d="M76.5,1287.125 L76.5,1314.125 M63.5,1295.125 L89.5,1295.125 M76.5,1314.125 L63.5,1329.125 M76.5,1314.125 L89.5,1329.125 " fill="none" style="stroke:#0F766E;stroke-width:0.5;"/><rect fill="#F8FAFC" height="30.2969" rx="2.5" ry="2.5" style="stroke:#475569;stroke-width:0.5;" width="128" x="298.5" y="87.2969"/><text fill="#000000" font-family="sans-serif" font-size="14" lengthAdjust="spacing" textLength="114" x="305.5" y="107.292">Service Manager</text><rect fill="#F8FAFC" height="30.2969" rx="2.5" ry="2.5" style="stroke:#475569;stroke-width:0.5;" width="128" x="298.5" y="1254.3281"/><text fill="#000000" font-family="sans-serif" font-size="14" lengthAdjust="spacing" textLength="114" x="305.5" y="1274.3232">Service Manager</text><text fill="#000000" font-family="sans-serif" font-size="14" lengthAdjust="spacing" textLength="24" x="978.5" y="115.292">OCI</text><path d="M975.5,66.2969 C975.5,56.2969 993.5,56.2969 993.5,56.2969 C993.5,56.2969 1011.5,56.2969 1011.5,66.2969 L1011.5,92.2969 C1011.5,102.2969 993.5,102.2969 993.5,102.2969 C993.5,102.2969 975.5,102.2969 975.5,92.2969 L975.5,66.2969 " fill="#E2E2F0" style="stroke:#181818;stroke-width:1.5;"/><path d="M975.5,66.2969 C975.5,76.2969 993.5,76.2969 993.5,76.2969 C993.5,76.2969 1011.5,76.2969 1011.5,66.2969 " fill="none" style="stroke:#181818;stroke-width:1.5;"/><text fill="#000000" font-family="sans-serif" font-size="14" lengthAdjust="spacing" textLength="24" x="978.5" y="1267.3232">OCI</text><path d="M975.5,1280.625 C975.5,1270.625 993.5,1270.625 993.5,1270.625 C993.5,1270.625 1011.5,1270.625 1011.5,1280.625 L1011.5,1306.625 C1011.5,1316.625 993.5,1316.625 993.5,1316.625 C993.5,1316.625 975.5,1316.625 975.5,1306.625 L975.5,1280.625 " fill="#E2E2F0" style="stroke:#181818;stroke-width:1.5;"/><path d="M975.5,1280.625 C975.5,1290.625 993.5,1290.625 993.5,1290.625 C993.5,1290.625 1011.5,1290.625 1011.5,1280.625 " fill="none" style="stroke:#181818;stroke-width:1.5;"/><text fill="#000000" font-family="sans-serif" font-size="14" lengthAdjust="spacing" textLength="106" x="1021.5" y="115.292">Kubernetes API</text><path d="M1059.5,66.2969 C1059.5,56.2969 1077.5,56.2969 1077.5,56.2969 C1077.5,56.2969 1095.5,56.2969 1095.5,66.2969 L1095.5,92.2969 C1095.5,102.2969 1077.5,102.2969 1077.5,102.2969 C1077.5,102.2969 1059.5,102.2969 1059.5,92.2969 L1059.5,66.2969 " fill="#E2E2F0" style="stroke:#181818;stroke-width:1.5;"/><path d="M1059.5,66.2969 C1059.5,76.2969 1077.5,76.2969 1077.5,76.2969 C1077.5,76.2969 1095.5,76.2969 1095.5,66.2969 " fill="none" style="stroke:#181818;stroke-width:1.5;"/><text fill="#000000" font-family="sans-serif" font-size="14" lengthAdjust="spacing" textLength="106" x="1021.5" y="1267.3232">Kubernetes API</text><path d="M1059.5,1280.625 C1059.5,1270.625 1077.5,1270.625 1077.5,1270.625 C1077.5,1270.625 1095.5,1270.625 1095.5,1280.625 L1095.5,1306.625 C1095.5,1316.625 1077.5,1316.625 1077.5,1316.625 C1077.5,1316.625 1059.5,1316.625 1059.5,1306.625 L1059.5,1280.625 " fill="#E2E2F0" style="stroke:#181818;stroke-width:1.5;"/><path d="M1059.5,1280.625 C1059.5,1290.625 1077.5,1290.625 1077.5,1290.625 C1077.5,1290.625 1095.5,1290.625 1095.5,1280.625 " fill="none" style="stroke:#181818;stroke-width:1.5;"/><polygon fill="#334155" points="350.5,145.7266,360.5,149.7266,350.5,153.7266,354.5,149.7266" style="stroke:#334155;stroke-width:1.0;"/><line style="stroke:#334155;stroke-width:1.0;" x1="76.5" x2="356.5" y1="149.7266" y2="149.7266"/><text fill="#000000" font-family="sans-serif" font-size="13" font-weight="bold" lengthAdjust="spacing" textLength="9" x="83.5" y="144.6606">1</text><text fill="#000000" font-family="sans-serif" font-size="13" lengthAdjust="spacing" textLength="239" x="96.5" y="144.6606">reconcile desired spec and live status</text><polygon fill="#334155" points="1065.5,174.8594,1075.5,178.8594,1065.5,182.8594,1069.5,178.8594" style="stroke:#334155;stroke-width:1.0;"/><line style="stroke:#334155;stroke-width:1.0;" x1="362.5" x2="1071.5" y1="178.8594" y2="178.8594"/><text fill="#000000" font-family="sans-serif" font-size="13" font-weight="bold" lengthAdjust="spacing" textLength="9" x="369.5" y="173.7935">2</text><text fill="#000000" font-family="sans-serif" font-size="13" lengthAdjust="spacing" textLength="212" x="382.5" y="173.7935">read CR status and finalizer state</text><path d="M268.5,193.8594 L438.5,193.8594 L438.5,200.9922 L428.5,210.9922 L268.5,210.9922 L268.5,193.8594 " fill="#F8FAFC" style="stroke:#475569;stroke-width:1.5;"/><rect fill="none" height="254.6719" style="stroke:#475569;stroke-width:1.5;" width="895" x="268.5" y="193.8594"/><text fill="#000000" font-family="sans-serif" font-size="13" font-weight="bold" lengthAdjust="spacing" textLength="125" x="283.5" y="206.9263">Lookup and bind</text><path d="M278.5,217.9922 L342.5,217.9922 L342.5,225.125 L332.5,235.125 L278.5,235.125 L278.5,217.9922 " fill="#F8FAFC" style="stroke:#475569;stroke-width:1.5;"/><rect fill="none" height="223.5391" style="stroke:#475569;stroke-width:1.5;" width="875" x="278.5" y="217.9922"/><text fill="#000000" font-family="sans-serif" font-size="13" font-weight="bold" lengthAdjust="spacing" textLength="19" x="293.5" y="231.0591">alt</text><text fill="#000000" font-family="sans-serif" font-size="11" font-weight="bold" lengthAdjust="spacing" textLength="256" x="357.5" y="230.2026">[tracked or explicit OCID already exists]</text><polygon fill="#334155" points="981.5,252.2578,991.5,256.2578,981.5,260.2578,985.5,256.2578" style="stroke:#334155;stroke-width:1.0;"/><line style="stroke:#334155;stroke-width:1.0;" x1="362.5" x2="987.5" y1="256.2578" y2="256.2578"/><text fill="#000000" font-family="sans-serif" font-size="13" font-weight="bold" lengthAdjust="spacing" textLength="9" x="369.5" y="251.1919">3</text><text fill="#000000" font-family="sans-serif" font-size="13" lengthAdjust="spacing" textLength="278" x="382.5" y="251.1919">get the current resource by known identifier</text><line style="stroke:#475569;stroke-width:1.0;stroke-dasharray:2.0,2.0;" x1="278.5" x2="1153.5" y1="265.2578" y2="265.2578"/><text fill="#000000" font-family="sans-serif" font-size="11" font-weight="bold" lengthAdjust="spacing" textLength="145" x="283.5" y="275.4683">[no OCID is bound yet]</text><polygon fill="#334155" points="981.5,296.1953,991.5,300.1953,981.5,304.1953,985.5,300.1953" style="stroke:#334155;stroke-width:1.0;"/><line style="stroke:#334155;stroke-width:1.0;" x1="362.5" x2="987.5" y1="300.1953" y2="300.1953"/><text fill="#000000" font-family="sans-serif" font-size="13" font-weight="bold" lengthAdjust="spacing" textLength="9" x="369.5" y="295.1294">4</text><text fill="#000000" font-family="sans-serif" font-size="13" lengthAdjust="spacing" textLength="193" x="382.5" y="295.1294">list resources by display name</text><path d="M288.5,315.1953 L352.5,315.1953 L352.5,322.3281 L342.5,332.3281 L288.5,332.3281 L288.5,315.1953 " fill="#F8FAFC" style="stroke:#475569;stroke-width:1.5;"/><rect fill="none" height="119.3359" style="stroke:#475569;stroke-width:1.5;" width="855" x="288.5" y="315.1953"/><text fill="#000000" font-family="sans-serif" font-size="13" font-weight="bold" lengthAdjust="spacing" textLength="19" x="303.5" y="328.2622">alt</text><text fill="#000000" font-family="sans-serif" font-size="11" font-weight="bold" lengthAdjust="spacing" textLength="162" x="367.5" y="327.4058">[existing resource found]</text><polygon fill="#334155" points="1065.5,349.4609,1075.5,353.4609,1065.5,357.4609,1069.5,353.4609" style="stroke:#334155;stroke-width:1.0;"/><line style="stroke:#334155;stroke-width:1.0;" x1="362.5" x2="1071.5" y1="353.4609" y2="353.4609"/><text fill="#000000" font-family="sans-serif" font-size="13" font-weight="bold" lengthAdjust="spacing" textLength="9" x="369.5" y="348.395">5</text><text fill="#000000" font-family="sans-serif" font-size="13" lengthAdjust="spacing" textLength="221" x="382.5" y="348.395">persist the resolved OCID in status</text><line style="stroke:#475569;stroke-width:1.0;stroke-dasharray:2.0,2.0;" x1="288.5" x2="1143.5" y1="362.4609" y2="362.4609"/><text fill="#000000" font-family="sans-serif" font-size="11" font-weight="bold" lengthAdjust="spacing" textLength="182" x="293.5" y="372.6714">[no existing resource found]</text><polygon fill="#334155" points="981.5,393.3984,991.5,397.3984,981.5,401.3984,985.5,397.3984" style="stroke:#334155;stroke-width:1.0;"/><line style="stroke:#334155;stroke-width:1.0;" x1="362.5" x2="987.5" y1="397.3984" y2="397.3984"/><text fill="#000000" font-family="sans-serif" font-size="13" font-weight="bold" lengthAdjust="spacing" textLength="9" x="369.5" y="392.3325">6</text><text fill="#000000" font-family="sans-serif" font-size="13" lengthAdjust="spacing" textLength="152" x="382.5" y="392.3325">create the OCI resource</text><polygon fill="#334155" points="1065.5,422.5313,1075.5,426.5313,1065.5,430.5313,1069.5,426.5313" style="stroke:#334155;stroke-width:1.0;"/><line style="stroke:#334155;stroke-width:1.0;" x1="362.5" x2="1071.5" y1="426.5313" y2="426.5313"/><text fill="#000000" font-family="sans-serif" font-size="13" font-weight="bold" lengthAdjust="spacing" textLength="9" x="369.5" y="421.4653">7</text><text fill="#000000" font-family="sans-serif" font-size="13" lengthAdjust="spacing" textLength="216" x="382.5" y="421.4653">persist the created OCID in status</text><path d="M10,462.5313 L74,462.5313 L74,469.6641 L64,479.6641 L10,479.6641 L10,462.5313 " fill="#F8FAFC" style="stroke:#475569;stroke-width:1.5;"/><rect fill="none" height="619.6016" style="stroke:#475569;stroke-width:1.5;" width="1143.5" x="10" y="462.5313"/><text fill="#000000" font-family="sans-serif" font-size="13" font-weight="bold" lengthAdjust="spacing" textLength="19" x="25" y="475.5981">alt</text><text fill="#000000" font-family="sans-serif" font-size="11" font-weight="bold" lengthAdjust="spacing" textLength="120" x="89" y="474.7417">[delete requested]</text><path d="M288.5,486.6641 L381.5,486.6641 L381.5,493.7969 L371.5,503.7969 L288.5,503.7969 L288.5,486.6641 " fill="#F8FAFC" style="stroke:#475569;stroke-width:1.5;"/><rect fill="none" height="104.5313" style="stroke:#475569;stroke-width:1.5;" width="855" x="288.5" y="486.6641"/><text fill="#000000" font-family="sans-serif" font-size="13" font-weight="bold" lengthAdjust="spacing" textLength="48" x="303.5" y="499.731">Delete</text><polygon fill="#334155" points="981.5,520.9297,991.5,524.9297,981.5,528.9297,985.5,524.9297" style="stroke:#334155;stroke-width:1.0;"/><line style="stroke:#334155;stroke-width:1.0;" x1="362.5" x2="987.5" y1="524.9297" y2="524.9297"/><text fill="#000000" font-family="sans-serif" font-size="13" font-weight="bold" lengthAdjust="spacing" textLength="9" x="369.5" y="519.8638">8</text><text fill="#000000" font-family="sans-serif" font-size="13" lengthAdjust="spacing" textLength="114" x="382.5" y="519.8638">submit OCI delete</text><polygon fill="#334155" points="981.5,550.0625,991.5,554.0625,981.5,558.0625,985.5,554.0625" style="stroke:#334155;stroke-width:1.0;"/><line style="stroke:#334155;stroke-width:1.0;" x1="362.5" x2="987.5" y1="554.0625" y2="554.0625"/><text fill="#000000" font-family="sans-serif" font-size="13" font-weight="bold" lengthAdjust="spacing" textLength="9" x="369.5" y="548.9966">9</text><text fill="#000000" font-family="sans-serif" font-size="13" lengthAdjust="spacing" textLength="594" x="382.5" y="548.9966">Confirm termination with GetInstance until the resource reaches TERMINATED or is not found.</text><polygon fill="#334155" points="1065.5,579.1953,1075.5,583.1953,1065.5,587.1953,1069.5,583.1953" style="stroke:#334155;stroke-width:1.0;"/><line style="stroke:#334155;stroke-width:1.0;" x1="362.5" x2="1071.5" y1="583.1953" y2="583.1953"/><text fill="#000000" font-family="sans-serif" font-size="13" font-weight="bold" lengthAdjust="spacing" textLength="18" x="369.5" y="578.1294">10</text><text fill="#000000" font-family="sans-serif" font-size="13" lengthAdjust="spacing" textLength="289" x="391.5" y="578.1294">remove the finalizer after delete confirmation</text><line style="stroke:#475569;stroke-width:1.0;stroke-dasharray:2.0,2.0;" x1="10" x2="1153.5" y1="599.1953" y2="599.1953"/><text fill="#000000" font-family="sans-serif" font-size="11" font-weight="bold" lengthAdjust="spacing" textLength="147" x="15" y="609.4058">[OCI state is retryable]</text><polygon fill="#334155" points="87.5,630.1328,77.5,634.1328,87.5,638.1328,83.5,634.1328" style="stroke:#334155;stroke-width:1.0;"/><line style="stroke:#334155;stroke-width:1.0;stroke-dasharray:2.0,2.0;" x1="81.5" x2="361.5" y1="634.1328" y2="634.1328"/><text fill="#000000" font-family="sans-serif" font-size="13" font-weight="bold" lengthAdjust="spacing" textLength="18" x="93.5" y="629.0669">11</text><text fill="#000000" font-family="sans-serif" font-size="13" lengthAdjust="spacing" textLength="110" x="115.5" y="629.0669">requeue required</text><line style="stroke:#475569;stroke-width:1.0;stroke-dasharray:2.0,2.0;" x1="10" x2="1153.5" y1="643.1328" y2="643.1328"/><text fill="#000000" font-family="sans-serif" font-size="11" font-weight="bold" lengthAdjust="spacing" textLength="200" x="15" y="653.3433">[OCI state is failed or terminal]</text><polygon fill="#334155" points="87.5,674.0703,77.5,678.0703,87.5,682.0703,83.5,678.0703" style="stroke:#334155;stroke-width:1.0;"/><line style="stroke:#334155;stroke-width:1.0;stroke-dasharray:2.0,2.0;" x1="81.5" x2="361.5" y1="678.0703" y2="678.0703"/><text fill="#000000" font-family="sans-serif" font-size="13" font-weight="bold" lengthAdjust="spacing" textLength="18" x="93.5" y="673.0044">12</text><text fill="#000000" font-family="sans-serif" font-size="13" lengthAdjust="spacing" textLength="240" x="115.5" y="673.0044">unsuccessful terminal reconcile result</text><line style="stroke:#475569;stroke-width:1.0;stroke-dasharray:2.0,2.0;" x1="10" x2="1153.5" y1="687.0703" y2="687.0703"/><text fill="#000000" font-family="sans-serif" font-size="11" font-weight="bold" lengthAdjust="spacing" textLength="203" x="15" y="697.2808">[OCI state is active and usable]</text><path d="M20,707.875 L167,707.875 L167,715.0078 L157,725.0078 L20,725.0078 L20,707.875 " fill="#F8FAFC" style="stroke:#475569;stroke-width:1.5;"/><rect fill="none" height="338.125" style="stroke:#475569;stroke-width:1.5;" width="1022" x="20" y="707.875"/><text fill="#000000" font-family="sans-serif" font-size="13" font-weight="bold" lengthAdjust="spacing" textLength="102" x="35" y="720.9419">Drift handling</text><path d="M324,730.0078 L324,891.0078 L1032,891.0078 L1032,740.0078 L1022,730.0078 L324,730.0078 " fill="#FEFFDD" style="stroke:#181818;stroke-width:0.5;"/><path d="M1022,730.0078 L1022,740.0078 L1032,740.0078 L1022,730.0078 " fill="#FEFFDD" style="stroke:#181818;stroke-width:0.5;"/><text fill="#000000" font-family="sans-serif" font-size="13" lengthAdjust="spacing" textLength="171" x="330" y="747.0747">Supported update surface:</text><text fill="#000000" font-family="sans-serif" font-size="13" lengthAdjust="spacing" textLength="92" x="330" y="762.2075">- displayName</text><text fill="#000000" font-family="sans-serif" font-size="13" lengthAdjust="spacing" textLength="48" x="330" y="777.3403">- shape</text><text fill="#000000" font-family="sans-serif" font-size="13" lengthAdjust="spacing" textLength="88" x="330" y="792.4731">- shapeConfig</text><text fill="#000000" font-family="sans-serif" font-size="13" lengthAdjust="spacing" textLength="94" x="330" y="807.606">- freeformTags</text><text fill="#000000" font-family="sans-serif" font-size="13" lengthAdjust="spacing" textLength="86" x="330" y="822.7388">- definedTags</text><text fill="#000000" font-family="sans-serif" font-size="13" lengthAdjust="spacing" textLength="139" x="330" y="837.8716">Reject before mutate:</text><text fill="#000000" font-family="sans-serif" font-size="13" lengthAdjust="spacing" textLength="89" x="330" y="853.0044">- imageId drift</text><text fill="#000000" font-family="sans-serif" font-size="13" lengthAdjust="spacing" textLength="413" x="330" y="868.1372">- subnet and instance-option drift outside the modeled post-bind</text><text fill="#000000" font-family="sans-serif" font-size="13" lengthAdjust="spacing" textLength="47" x="346" y="883.27">surface</text><path d="M30,903.3359 L100,903.3359 L100,910.4688 L90,920.4688 L30,920.4688 L30,903.3359 " fill="#F8FAFC" style="stroke:#475569;stroke-width:1.5;"/><rect fill="none" height="46.2656" style="stroke:#475569;stroke-width:1.5;" width="406.5" x="30" y="903.3359"/><text fill="#000000" font-family="sans-serif" font-size="13" font-weight="bold" lengthAdjust="spacing" textLength="25" x="45" y="916.4028">opt</text><text fill="#000000" font-family="sans-serif" font-size="11" font-weight="bold" lengthAdjust="spacing" textLength="286" x="115" y="915.5464">[unsupported or immutable drift is detected]</text><polygon fill="#334155" points="87.5,937.6016,77.5,941.6016,87.5,945.6016,83.5,941.6016" style="stroke:#334155;stroke-width:1.0;"/><line style="stroke:#334155;stroke-width:1.0;stroke-dasharray:2.0,2.0;" x1="81.5" x2="361.5" y1="941.6016" y2="941.6016"/><text fill="#000000" font-family="sans-serif" font-size="13" font-weight="bold" lengthAdjust="spacing" textLength="18" x="93.5" y="936.5356">13</text><text fill="#000000" font-family="sans-serif" font-size="13" lengthAdjust="spacing" textLength="169" x="115.5" y="936.5356">reject before OCI mutation</text><polygon fill="#334155" points="981.5,973.7344,991.5,977.7344,981.5,981.7344,985.5,977.7344" style="stroke:#334155;stroke-width:1.0;"/><line style="stroke:#334155;stroke-width:1.0;" x1="362.5" x2="987.5" y1="977.7344" y2="977.7344"/><text fill="#000000" font-family="sans-serif" font-size="13" font-weight="bold" lengthAdjust="spacing" textLength="18" x="369.5" y="972.6685">14</text><text fill="#000000" font-family="sans-serif" font-size="13" lengthAdjust="spacing" textLength="485" x="391.5" y="972.6685">Keep the retained OCID authoritative for post-bind update and delete paths.</text><path d="M288.5,992.7344 L358.5,992.7344 L358.5,999.8672 L348.5,1009.8672 L288.5,1009.8672 L288.5,992.7344 " fill="#F8FAFC" style="stroke:#475569;stroke-width:1.5;"/><rect fill="none" height="46.2656" style="stroke:#475569;stroke-width:1.5;" width="733" x="288.5" y="992.7344"/><text fill="#000000" font-family="sans-serif" font-size="13" font-weight="bold" lengthAdjust="spacing" textLength="25" x="303.5" y="1005.8013">opt</text><text fill="#000000" font-family="sans-serif" font-size="11" font-weight="bold" lengthAdjust="spacing" textLength="258" x="373.5" y="1004.9448">[supported drift or collection diff exists]</text><polygon fill="#334155" points="981.5,1027,991.5,1031,981.5,1035,985.5,1031" style="stroke:#334155;stroke-width:1.0;"/><line style="stroke:#334155;stroke-width:1.0;" x1="362.5" x2="987.5" y1="1031" y2="1031"/><text fill="#000000" font-family="sans-serif" font-size="13" font-weight="bold" lengthAdjust="spacing" textLength="18" x="369.5" y="1025.9341">15</text><text fill="#000000" font-family="sans-serif" font-size="13" lengthAdjust="spacing" textLength="277" x="391.5" y="1025.9341">apply the supported in-place mutation path</text><polygon fill="#334155" points="87.5,1070.1328,77.5,1074.1328,87.5,1078.1328,83.5,1074.1328" style="stroke:#334155;stroke-width:1.0;"/><line style="stroke:#334155;stroke-width:1.0;stroke-dasharray:2.0,2.0;" x1="81.5" x2="361.5" y1="1074.1328" y2="1074.1328"/><text fill="#000000" font-family="sans-serif" font-size="13" font-weight="bold" lengthAdjust="spacing" textLength="18" x="93.5" y="1069.0669">16</text><text fill="#000000" font-family="sans-serif" font-size="13" lengthAdjust="spacing" textLength="169" x="115.5" y="1069.0669">successful active reconcile</text><path d="M51,1094.1328 L51,1240.1328 L1017,1240.1328 L1017,1104.1328 L1007,1094.1328 L51,1094.1328 " fill="#FEFFDD" style="stroke:#181818;stroke-width:0.5;"/><path d="M1007,1094.1328 L1007,1104.1328 L1017,1104.1328 L1007,1094.1328 " fill="#FEFFDD" style="stroke:#181818;stroke-width:0.5;"/><text fill="#000000" font-family="sans-serif" font-size="13" lengthAdjust="spacing" textLength="105" x="57" y="1111.1997">Boundary notes:</text><text fill="#000000" font-family="sans-serif" font-size="13" lengthAdjust="spacing" textLength="446" x="57" y="1126.3325">- The modeled post-bind surface stops at display name, shape, shape</text><text fill="#000000" font-family="sans-serif" font-size="13" lengthAdjust="spacing" textLength="128" x="73" y="1141.4653">config, and tag drift.</text><text fill="#000000" font-family="sans-serif" font-size="13" lengthAdjust="spacing" textLength="502" x="57" y="1156.5981">- Compartment changes are handled in place before other supported updates.</text><text fill="#000000" font-family="sans-serif" font-size="13" lengthAdjust="spacing" textLength="108" x="57" y="1171.731">Sequence notes:</text><text fill="#000000" font-family="sans-serif" font-size="13" lengthAdjust="spacing" textLength="470" x="57" y="1186.8638">- RUNNING and STOPPED are both active outcomes, while PROVISIONING,</text><text fill="#000000" font-family="sans-serif" font-size="13" lengthAdjust="spacing" textLength="278" x="73" y="1201.9966">STARTING, and STOPPING remain retryable.</text><text fill="#000000" font-family="sans-serif" font-size="13" lengthAdjust="spacing" textLength="166" x="57" y="1217.1294">Controller-local invariants:</text><text fill="#000000" font-family="sans-serif" font-size="13" lengthAdjust="spacing" textLength="229" x="57" y="1232.2622">- StatusPresentUsesStatusInvariant</text><!--SRC=[bLRRSk9647tNLtGvh-3Qn9Vr-Y5L61iNPI-cWCtx8BLWOcb6cGjUDfL_J_TeT376teGgcz9qJrzEdpx8ILSWZ7LPUOSmLTO9bI8iCDKgbMHQubyUwIWHtcdbopMQn3vBLGaZIh1RaUaNgJQGYy9Ypt8ZqkUDqLvbOrre0xzCmgVdCJ96lqJZsTdvhnSNFME6kV25M-5tDohaHfMe71IOktxoM1hydG3CXN4obPLGxctggybeCZvmqYP34ntEFrzSN7uXXqUPuwDK-ChwvNnqTdFLjxxJ6y0zdLR7GzUcTqiRfKwRD-QxJvFV9dUjkH_uq-JpvULTyayYs0GdOwsSqKM1vWI4XUungRgkuMI9PYS9iwz2YKtqZMVnACc44sjX4KwUnjFWGD-zqmTF953eqC9eNZiyNDaawLB2yFU3eDTWMafbQAN136o5AGYLGI5t2CGyvsto-Xe7ejXyMsGmNaIlS2kNIXJo1pdn8IO98rV1ezRFzCKUQwaomauK3fmXQ2ad8ONVguBWSDpLBHavz9vEfNMMl07Uba2Urx112hD5IBqnp4Q3Ldj3KAxtyApqYmAPqRdC9M48WBGFe7ITHLfOyrXXZ-wZ70KLqGQs73cJjYh47fGeCTpaRaAnl7Lj3Jb73_PZiGE45HhBuRa7lbVi28-wEjMWpzURmlzlaj10IcYIa70EUcwl_lVAwW372ml9-J__9Gn4XWNnaDAG4bYwHlQQ1RV1y17Krg_BcWGnoaVEHErScX8Scf9evwHMy2BT5kxHjQBfQVX52sz0Z9f9jpJ8rTtYwtGsMjtTCWE93Kgx6ixJv0DW39PwLwFPiLtaL4NJULeN5YfgmE7vSLjXBJYPGMVsObrmYuUPA5MtjzSrahv6b9VqIBHSq1A7JOfe53yFwvNrAJ7Qvhveh_KaWG0ZjJ-IZCIDnO6tsTlOGfomaRc3BLaA8cb0SQRf4W5c3iePi7v51lggqeO9vgkCSrXlSf7YTRGFcuMRDVl6P_GpLnqy1KPishFS8ERQb2kniLqefAbXrZjRu9-OEbYpBqBfkSqkjIofsca66RVMfVDh4ji0WOnK6-egK30uWlREalG4cfIQYP51fQqRHlrhFh7LPfUOW_K3HGiJQg1XYfPSt9hLEkIWKMJ4jxJUiMEKVKEaVgSyqz1jJTDcbz_TjmV4AcwI4unX56lljjf8ZhDZEJ9Tdyqy6QQu6vLmMtlQTjZr5s4pj3rKR5f3AVEy_oFmRccYgefzgAqBADMGE9DYssF8VI1QFuMijoAHzks2r8hNyRkx5hbzmreYp3uCrJAbXh0wneU61RHYkgBzSgz-OGOrkGUl61yqPZC8q3gngU4x3IdunP7UBiBRMKgxk26j4pJli9O16AY1YJpGX9lf0LSFBGofUT7iTx3uDfjDP_SXytBrD9-JVdBuDSLfC2Bsfxf4Eu2NBKl9VF7qntGvVUABWsQKgz5YnSzT90vByahawkIHo-YG7HOw9P6IQYUCf7UdMDCo_23DIR6ewMyMRNqmRToIThN-1G00]--></g></svg>