<?xml version="1.0" encoding="UTF-8" standalone="no"?><svg xmlns="http://www.w3.org/2000/svg" xmlns:xlink="http://www.w3.org/1999/xlink" contentStyleType="text/css" height="514px" preserveAspectRatio="none" style="width:2189px;height:514px;background:#FFFFFF;" version="1.1" viewBox="0 0 2189 514" width="2189px" zoomAndPan="magnify"><defs/><g><text fill="#000000" font-family="sans-serif" font-size="14" font-weight="bold" lengthAdjust="spacing" textLength="340" x="917.5" y="22.9951">Compute Instance Reconcile State Machine</text><ellipse cx="16" cy="355.2969" fill="#222222" rx="10" ry="10" style="stroke:none;stroke-width:1.0;"/><g id="Observe"><rect fill="#F8FAFC" height="50.2656" rx="6" ry="6" style="stroke:#475569;stroke-width:0.5;" width="329" x="86" y="330.2969"/><line style="stroke:#475569;stroke-width:0.5;" x1="86" x2="415" y1="356.5938" y2="356.5938"/><text fill="#0F172A" font-family="sans-serif" font-size="14" lengthAdjust="spacing" textLength="58" x="221.5" y="348.292">Observe</text><text fill="#0F172A" font-family="sans-serif" font-size="12" lengthAdjust="spacing" textLength="309" x="91" y="372.7324">read spec, status, delete intent, and OCI lifecycle</text></g><rect fill="#F8FAFC" height="40" rx="6" ry="6" style="stroke:#475569;stroke-width:0.5;" width="122" x="475" y="335.2969"/><text fill="#0F172A" font-family="sans-serif" font-size="14" lengthAdjust="spacing" textLength="112" x="480" y="360.1436">ResolveByName</text><rect fill="#F8FAFC" height="40" rx="6" ry="6" style="stroke:#475569;stroke-width:0.5;" width="111" x="657" y="244.2969"/><text fill="#0F172A" font-family="sans-serif" font-size="14" lengthAdjust="spacing" textLength="101" x="662" y="269.1436">EvaluateReady</text><rect fill="#F8FAFC" height="40" rx="6" ry="6" style="stroke:#475569;stroke-width:0.5;" width="75" x="1072" y="335.2969"/><text fill="#0F172A" font-family="sans-serif" font-size="14" lengthAdjust="spacing" textLength="65" x="1077" y="360.1436">Retryable</text><rect fill="#F8FAFC" height="40" rx="6" ry="6" style="stroke:#475569;stroke-width:0.5;" width="50" x="1219.5" y="421.2969"/><text fill="#0F172A" font-family="sans-serif" font-size="14" lengthAdjust="spacing" textLength="40" x="1224.5" y="446.1436">Failed</text><rect fill="#F8FAFC" height="40" rx="6" ry="6" style="stroke:#475569;stroke-width:0.5;" width="173" x="828" y="169.2969"/><text fill="#0F172A" font-family="sans-serif" font-size="14" lengthAdjust="spacing" textLength="163" x="833" y="194.1436">RejectUnsupportedDrift</text><rect fill="#F8FAFC" height="40" rx="6" ry="6" style="stroke:#475569;stroke-width:0.5;" width="53" x="1218" y="207.2969"/><text fill="#0F172A" font-family="sans-serif" font-size="14" lengthAdjust="spacing" textLength="43" x="1223" y="232.1436">Ready</text><rect fill="#F8FAFC" height="40" rx="6" ry="6" style="stroke:#475569;stroke-width:0.5;" width="142" x="843.5" y="244.2969"/><text fill="#0F172A" font-family="sans-serif" font-size="14" lengthAdjust="spacing" textLength="132" x="848.5" y="269.1436">MoveCompartment</text><rect fill="#F8FAFC" height="40" rx="6" ry="6" style="stroke:#475569;stroke-width:0.5;" width="97" x="1061" y="242.2969"/><text fill="#0F172A" font-family="sans-serif" font-size="14" lengthAdjust="spacing" textLength="87" x="1066" y="267.1436">ApplyUpdate</text><rect fill="#F8FAFC" height="40" rx="6" ry="6" style="stroke:#475569;stroke-width:0.5;" width="113" x="1478" y="376.2969"/><text fill="#0F172A" font-family="sans-serif" font-size="14" lengthAdjust="spacing" textLength="103" x="1483" y="401.1436">DeletePending</text><rect fill="#F8FAFC" height="40" rx="6" ry="6" style="stroke:#475569;stroke-width:0.5;" width="65" x="1957.5" y="323.2969"/><text fill="#0F172A" font-family="sans-serif" font-size="14" lengthAdjust="spacing" textLength="55" x="1962.5" y="348.1436">Deleted</text><g id="elem_GMN32"><path d="M1331,49.2969 L1331,216.6269 L1271,220.6269 L1331,224.6269 L1331,334.8203 A6,6 0 0 0 1337,340.8203 L1732,340.8203 A6,6 0 0 0 1738,334.8203 L1738,53.2969 L1728,43.2969 L1337,43.2969 A6,6 0 0 0 1331,49.2969 " fill="#FFF7ED" style="stroke:#181818;stroke-width:0.5;"/><path d="M1728,43.2969 L1728,50.2969 A3,3 0 0 0 1731,53.2969 L1738,53.2969 L1728,43.2969 " fill="#FFF7ED" style="stroke:#181818;stroke-width:0.5;"/><text fill="#0F172A" font-family="sans-serif" font-size="13" lengthAdjust="spacing" textLength="69" x="1337" y="60.3638">Archetype:</text><text fill="#0F172A" font-family="sans-serif" font-size="13" lengthAdjust="spacing" textLength="138" x="1337" y="75.4966">- resolved-drift-delete</text><text fill="#0F172A" font-family="sans-serif" font-size="13" lengthAdjust="spacing" textLength="102" x="1337" y="90.6294">Update surface:</text><text fill="#0F172A" font-family="sans-serif" font-size="13" lengthAdjust="spacing" textLength="92" x="1337" y="105.7622">- displayName</text><text fill="#0F172A" font-family="sans-serif" font-size="13" lengthAdjust="spacing" textLength="48" x="1337" y="120.895">- shape</text><text fill="#0F172A" font-family="sans-serif" font-size="13" lengthAdjust="spacing" textLength="88" x="1337" y="136.0278">- shapeConfig</text><text fill="#0F172A" font-family="sans-serif" font-size="13" lengthAdjust="spacing" textLength="94" x="1337" y="151.1606">- freeformTags</text><text fill="#0F172A" font-family="sans-serif" font-size="13" lengthAdjust="spacing" textLength="86" x="1337" y="166.2935">- definedTags</text><text fill="#0F172A" font-family="sans-serif" font-size="13" lengthAdjust="spacing" textLength="139" x="1337" y="181.4263">Reject before mutate:</text><text fill="#0F172A" font-family="sans-serif" font-size="13" lengthAdjust="spacing" textLength="89" x="1337" y="196.5591">- imageId drift</text><text fill="#0F172A" font-family="sans-serif" font-size="13" lengthAdjust="spacing" textLength="386" x="1337" y="211.6919">- subnet and instance-option drift outside the modeled post-</text><text fill="#0F172A" font-family="sans-serif" font-size="13" lengthAdjust="spacing" textLength="78" x="1353" y="226.8247">bind surface</text><text fill="#0F172A" font-family="sans-serif" font-size="13" lengthAdjust="spacing" textLength="105" x="1337" y="241.9575">Boundary notes:</text><text fill="#0F172A" font-family="sans-serif" font-size="13" lengthAdjust="spacing" textLength="356" x="1337" y="257.0903">- The modeled post-bind surface stops at display name,</text><text fill="#0F172A" font-family="sans-serif" font-size="13" lengthAdjust="spacing" textLength="218" x="1353" y="272.2231">shape, shape config, and tag drift.</text><text fill="#0F172A" font-family="sans-serif" font-size="13" lengthAdjust="spacing" textLength="373" x="1337" y="287.356">- Compartment changes are handled in place before other</text><text fill="#0F172A" font-family="sans-serif" font-size="13" lengthAdjust="spacing" textLength="125" x="1353" y="302.4888">supported updates.</text><text fill="#0F172A" font-family="sans-serif" font-size="13" lengthAdjust="spacing" textLength="166" x="1337" y="317.6216">Controller-local invariants:</text><text fill="#0F172A" font-family="sans-serif" font-size="13" lengthAdjust="spacing" textLength="229" x="1337" y="332.7544">- StatusPresentUsesStatusInvariant</text></g><g id="elem_GMN35"><path d="M1798,404.7969 L1798,403.5469 L1591.27,407.5469 L1798,411.5469 L1798,493.5938 A6,6 0 0 0 1804,499.5938 L2176,499.5938 A6,6 0 0 0 2182,493.5938 L2182,408.7969 L2172,398.7969 L1804,398.7969 A6,6 0 0 0 1798,404.7969 " fill="#FFF7ED" style="stroke:#181818;stroke-width:0.5;"/><path d="M2172,398.7969 L2172,405.7969 A3,3 0 0 0 2175,408.7969 L2182,408.7969 L2172,398.7969 " fill="#FFF7ED" style="stroke:#181818;stroke-width:0.5;"/><text fill="#0F172A" font-family="sans-serif" font-size="13" lengthAdjust="spacing" textLength="90" x="1804" y="415.8638">Delete states:</text><text fill="#0F172A" font-family="sans-serif" font-size="13" lengthAdjust="spacing" textLength="102" x="1804" y="430.9966">- DeletePending</text><text fill="#0F172A" font-family="sans-serif" font-size="13" lengthAdjust="spacing" textLength="59" x="1804" y="446.1294">- Deleted</text><text fill="#0F172A" font-family="sans-serif" font-size="13" lengthAdjust="spacing" textLength="103" x="1804" y="461.2622">Delete workflow:</text><text fill="#0F172A" font-family="sans-serif" font-size="13" lengthAdjust="spacing" textLength="363" x="1804" y="476.395">- Confirm termination with GetInstance until the resource</text><text fill="#0F172A" font-family="sans-serif" font-size="13" lengthAdjust="spacing" textLength="236" x="1820" y="491.5278">reaches TERMINATED or is not found.</text></g><!--link *start to Observe--><g id="link_*start_Observe"><path d="M26.08,355.2969 C26.08,355.2969 80.84,355.2969 80.84,355.2969 " fill="none" id="*start-to-Observe" style="stroke:#181818;stroke-width:1.0;"/><polygon fill="#181818" points="85.84,355.2969,76.84,351.2969,80.84,355.2969,76.84,359.2969,85.84,355.2969" style="stroke:#181818;stroke-width:1.0;"/></g><!--link Observe to ResolveByName--><g id="link_Observe_ResolveByName"><path d="M415.34,355.2969 C415.34,355.2969 469.86,355.2969 469.86,355.2969 " fill="none" id="Observe-to-ResolveByName" style="stroke:#181818;stroke-width:1.0;"/><polygon fill="#181818" points="474.86,355.2969,465.86,351.2969,469.86,355.2969,465.86,359.2969,474.86,355.2969" style="stroke:#181818;stroke-width:1.0;"/><text fill="#000000" font-family="sans-serif" font-size="13" lengthAdjust="spacing" textLength="163" x="443.6" y="368.3638">status/spec OCID missing</text></g><!--link ResolveByName to EvaluateReady--><g id="link_ResolveByName_EvaluateReady"><path d="M597.41,345.2969 C648.53,345.2969 713,345.2969 713,345.2969 C713,345.2969 713,289.3169 713,289.3169 " fill="none" id="ResolveByName-to-EvaluateReady" style="stroke:#181818;stroke-width:1.0;"/><polygon fill="#181818" points="713,284.3169,709,293.3169,713,289.3169,717,293.3169,713,284.3169" style="stroke:#181818;stroke-width:1.0;"/><text fill="#000000" font-family="sans-serif" font-size="13" lengthAdjust="spacing" textLength="207" x="684.19" y="341.3638">OCI state in RUNNING, STOPPED</text></g><!--link ResolveByName to Retryable--><g id="link_ResolveByName_Retryable"><path d="M597.1,355.2969 C597.1,355.2969 1066.75,355.2969 1066.75,355.2969 " fill="none" id="ResolveByName-to-Retryable" style="stroke:#181818;stroke-width:1.0;"/><polygon fill="#181818" points="1071.75,355.2969,1062.75,351.2969,1066.75,355.2969,1062.75,359.2969,1071.75,355.2969" style="stroke:#181818;stroke-width:1.0;"/><text fill="#000000" font-family="sans-serif" font-size="13" lengthAdjust="spacing" textLength="315" x="832.93" y="368.3638">OCI state in PROVISIONING, STARTING, STOPPING</text></g><!--link ResolveByName to Failed--><g id="link_ResolveByName_Failed"><path d="M536,375.3169 C536,398.8169 536,434.6269 536,434.6269 C536,434.6269 1214.28,434.6269 1214.28,434.6269 " fill="none" id="ResolveByName-to-Failed" style="stroke:#181818;stroke-width:1.0;"/><polygon fill="#181818" points="1219.28,434.6269,1210.28,430.6269,1214.28,434.6269,1210.28,438.6269,1219.28,434.6269" style="stroke:#181818;stroke-width:1.0;"/><text fill="#000000" font-family="sans-serif" font-size="13" lengthAdjust="spacing" textLength="211" x="633.48" y="447.6938">OCI state in FAILED, TERMINATED</text></g><!--link EvaluateReady to RejectUnsupportedDrift--><g id="link_EvaluateReady_RejectUnsupportedDrift"><path d="M768.11,257.6269 C800.89,257.6269 836,257.6269 836,257.6269 C836,257.6269 836,214.4269 836,214.4269 " fill="none" id="EvaluateReady-to-RejectUnsupportedDrift" style="stroke:#181818;stroke-width:1.0;"/><polygon fill="#181818" points="836,209.4269,832,218.4269,836,214.4269,840,218.4269,836,209.4269" style="stroke:#181818;stroke-width:1.0;"/><text fill="#000000" font-family="sans-serif" font-size="13" lengthAdjust="spacing" textLength="275" x="547.65" y="253.6938">unsupported or immutable drift is detected</text></g><!--link RejectUnsupportedDrift to Ready--><g id="link_RejectUnsupportedDrift_Ready"><path d="M994,209.4569 C994,215.3769 994,220.2969 994,220.2969 C994,220.2969 1212.69,220.2969 1212.69,220.2969 " fill="none" id="RejectUnsupportedDrift-to-Ready" style="stroke:#181818;stroke-width:1.0;"/><polygon fill="#181818" points="1217.69,220.2969,1208.69,216.2969,1212.69,220.2969,1208.69,224.2969,1217.69,220.2969" style="stroke:#181818;stroke-width:1.0;"/><text fill="#000000" font-family="sans-serif" font-size="13" lengthAdjust="spacing" textLength="252" x="844.92" y="233.3638">wait for the spec or live state to change</text></g><!--link EvaluateReady to MoveCompartment--><g id="link_EvaluateReady_MoveCompartment"><path d="M768.23,270.9669 C768.23,270.9669 838.4,270.9669 838.4,270.9669 " fill="none" id="EvaluateReady-to-MoveCompartment" style="stroke:#181818;stroke-width:1.0;"/><polygon fill="#181818" points="843.4,270.9669,834.4,266.9669,838.4,270.9669,834.4,274.9669,843.4,270.9669" style="stroke:#181818;stroke-width:1.0;"/><text fill="#000000" font-family="sans-serif" font-size="13" lengthAdjust="spacing" textLength="158" x="644.32" y="284.0338">continue active reconcile</text></g><!--link MoveCompartment to ApplyUpdate--><g id="link_MoveCompartment_ApplyUpdate"><path d="M985.73,263.2969 C985.73,263.2969 1055.99,263.2969 1055.99,263.2969 " fill="none" id="MoveCompartment-to-ApplyUpdate" style="stroke:#181818;stroke-width:1.0;"/><polygon fill="#181818" points="1060.99,263.2969,1051.99,259.2969,1055.99,263.2969,1051.99,267.2969,1060.99,263.2969" style="stroke:#181818;stroke-width:1.0;"/><text fill="#000000" font-family="sans-serif" font-size="13" lengthAdjust="spacing" textLength="221" x="1021.86" y="276.3638">continue after compartment move</text></g><!--link ApplyUpdate to Ready--><g id="link_ApplyUpdate_Ready"><path d="M1158.21,270.6269 C1201.17,270.6269 1257,270.6269 1257,270.6269 C1257,270.6269 1257,252.4369 1257,252.4369 " fill="none" id="ApplyUpdate-to-Ready" style="stroke:#181818;stroke-width:1.0;"/><polygon fill="#181818" points="1257,247.4369,1253,256.4369,1257,252.4369,1261,256.4369,1257,247.4369" style="stroke:#181818;stroke-width:1.0;"/><text fill="#000000" font-family="sans-serif" font-size="13" lengthAdjust="spacing" textLength="231" x="984.7" y="266.6938">supported mutation path completes</text></g><!--link Ready to Ready--><g id="link_Ready_Ready"><path d="M1217.84,231.2969 C1199.33,231.2969 1178,231.2969 1178,231.2969 C1178,231.2969 1178,258.9669 1178,258.9669 C1178,258.9669 1291,258.9669 1291,258.9669 C1291,258.9669 1291,233.9669 1291,233.9669 C1291,233.9669 1276.01,233.9669 1276.01,233.9669 " fill="none" id="Ready-to-Ready" style="stroke:#181818;stroke-width:1.0;"/><polygon fill="#181818" points="1271.01,233.9669,1280.01,237.9669,1276.01,233.9669,1280.01,229.9669,1271.01,233.9669" style="stroke:#181818;stroke-width:1.0;"/><text fill="#000000" font-family="sans-serif" font-size="13" lengthAdjust="spacing" textLength="170" x="1226.74" y="277.0338">no supported drift remains</text></g><!--link Retryable to Retryable--><g id="link_Retryable_Retryable"><path d="M1071.88,365.2969 C1068.89,365.2969 1067,365.2969 1067,365.2969 C1067,365.2969 1067,387.4969 1067,387.4969 C1067,387.4969 1153,387.4969 1153,387.4969 C1153,387.4969 1153,367.2969 1153,367.2969 C1153,367.2969 1152.31,367.2969 1152.31,367.2969 " fill="none" id="Retryable-to-Retryable" style="stroke:#181818;stroke-width:1.0;"/><polygon fill="#181818" points="1147.31,367.2969,1156.31,371.2969,1152.31,367.2969,1156.31,363.2969,1147.31,367.2969" style="stroke:#181818;stroke-width:1.0;"/><text fill="#000000" font-family="sans-serif" font-size="13" lengthAdjust="spacing" textLength="159" x="941.91" y="405.5638">OCI remains nonterminal</text></g><!--link Failed to Failed--><g id="link_Failed_Failed"><path d="M1219.34,447.9669 C1208.39,447.9669 1198,447.9669 1198,447.9669 C1198,447.9669 1198,480.5469 1198,480.5469 C1198,480.5469 1311,480.5469 1311,480.5469 C1311,480.5469 1311,441.2969 1311,441.2969 C1311,441.2969 1274.64,441.2969 1274.64,441.2969 " fill="none" id="Failed-to-Failed" style="stroke:#181818;stroke-width:1.0;"/><polygon fill="#181818" points="1269.64,441.2969,1278.64,445.2969,1274.64,441.2969,1278.64,437.2969,1269.64,441.2969" style="stroke:#181818;stroke-width:1.0;"/><text fill="#000000" font-family="sans-serif" font-size="13" lengthAdjust="spacing" textLength="135" x="1124.34" y="498.6138">OCI remains terminal</text></g><!--link Ready to DeletePending--><g id="link_Ready_DeletePending"><path d="M1232,247.4869 C1232,292.0169 1232,394.6969 1232,394.6969 C1232,394.6969 1472.96,394.6969 1472.96,394.6969 " fill="none" id="Ready-to-DeletePending" style="stroke:#181818;stroke-width:1.0;"/><polygon fill="#181818" points="1477.96,394.6969,1468.96,390.6969,1472.96,394.6969,1468.96,398.6969,1477.96,394.6969" style="stroke:#181818;stroke-width:1.0;"/><text fill="#000000" font-family="sans-serif" font-size="13" lengthAdjust="spacing" textLength="109" x="1168.87" y="390.7638">delete requested</text></g><!--link Retryable to DeletePending--><g id="link_Retryable_DeletePending"><path d="M1110,375.3269 C1110,387.9569 1110,401.8969 1110,401.8969 C1110,401.8969 1472.69,401.8969 1472.69,401.8969 " fill="none" id="Retryable-to-DeletePending" style="stroke:#181818;stroke-width:1.0;"/><polygon fill="#181818" points="1477.69,401.8969,1468.69,397.8969,1472.69,401.8969,1468.69,405.8969,1477.69,401.8969" style="stroke:#181818;stroke-width:1.0;"/><text fill="#000000" font-family="sans-serif" font-size="13" lengthAdjust="spacing" textLength="109" x="1168.06" y="414.9638">delete requested</text></g><!--link Failed to DeletePending--><g id="link_Failed_DeletePending"><path d="M1245,421.0869 C1245,414.6169 1245,409.0969 1245,409.0969 C1245,409.0969 1472.99,409.0969 1472.99,409.0969 " fill="none" id="Failed-to-DeletePending" style="stroke:#181818;stroke-width:1.0;"/><polygon fill="#181818" points="1477.99,409.0969,1468.99,405.0969,1472.99,409.0969,1468.99,413.0969,1477.99,409.0969" style="stroke:#181818;stroke-width:1.0;"/><text fill="#000000" font-family="sans-serif" font-size="13" lengthAdjust="spacing" textLength="109" x="1354" y="422.1638">delete requested</text></g><!--link DeletePending to Deleted--><g id="link_DeletePending_Deleted"><path d="M1591.27,387.5469 C1713.37,387.5469 1990,387.5469 1990,387.5469 C1990,387.5469 1990,368.3469 1990,368.3469 " fill="none" id="DeletePending-to-Deleted" style="stroke:#181818;stroke-width:1.0;"/><polygon fill="#181818" points="1990,363.3469,1986,372.3469,1990,368.3469,1994,372.3469,1990,363.3469" style="stroke:#181818;stroke-width:1.0;"/><text fill="#000000" font-family="sans-serif" font-size="13" lengthAdjust="spacing" textLength="373" x="1801.23" y="387.8638">OCI deletion is confirmed and the finalizer can be removed</text></g><!--link Deleted to Deleted--><g id="link_Deleted_Deleted"><path d="M1957.3,352.2969 C1924.25,352.2969 1878,352.2969 1878,352.2969 C1878,352.2969 1878,371.2969 1878,371.2969 C1878,371.2969 2103,371.2969 2103,371.2969 C2103,371.2969 2103,343.2969 2103,343.2969 C2103,343.2969 2027.68,343.2969 2027.68,343.2969 " fill="none" id="Deleted-to-Deleted" style="stroke:#181818;stroke-width:1.0;"/><polygon fill="#181818" points="2022.68,343.2969,2031.68,347.2969,2027.68,343.2969,2031.68,339.2969,2022.68,343.2969" style="stroke:#181818;stroke-width:1.0;"/><text fill="#000000" font-family="sans-serif" font-size="13" lengthAdjust="spacing" textLength="100" x="1999.01" y="362.3638">terminal stutter</text></g><!--SRC=[XLPDR-Cs4BtpLmpGMs6d-vMcwqC1VyGB0nlRS9ozB7gWnP743KLgISgkM-n_xv2KOjbniRd896SUP-Qz6SPBhn2cfgeRZx3GpdET8MmmCpgJTFJeEHqyyAoK6fd2t8CtO6LHUX3IOkQbqQoK0W6hsXz1eCkihEEsUvQwvfPNu4ekp47g0dAk7FPE5E7wOurWh2zDxy2QHelCM8qMthxh7Knuzbp4qwbHni8ly_ZNin2OyqRvBVxjnqeMkaBj8SJUZoWczYy3c1WhqBPO7-vkRt__IBjpetsxzsR-zkxTE5Y-klcF-NW-PJzwkDfSWvryk7t_vkDLYFdyxdvszS8VxEklVy5m-2UiTWxj7bdxXH5Ov09SZTaWPjAu0MMjaEwMsbEw0-1Qm6gwe0Bdc1qpTV8EY1jqHkrnSbpoAk0baDy2Ol2QGIMT8xxOkM5mlTzprL3nDXJ2aLp39QcQKiFcQRbSB3yDu76xMgyfiTV-6_Jso7SABttNczMNnUDYrG6CDziJ5FswWZNd959n2JGVBpxVpmQmlTyyB9RZBOLn7dGAunkfzqcxfgv9UoXcLfAwHz2SjaYK8AkgyJ5S4GsaeqfxSaN1_WSZmQVg7BZqa1EEBp4I5Z2L91fIkDHDMSbrWLT2V31x3Bt9hOyI7W6rfPUwGU3KU8HXkqPbbxR1VrpNwlXKYt1FtpVtr5DPpxWYPzQtxcTmgaOeH6XigBal8q1Gd6FzeYOVRNfkgMuMAovrCExeloQ6ree0ICQsafehrfByYk_EziNm5CSizi8QjGWpPzJrXiNl3Rh4N3-AdvhtGlYfxRd1oQKBEpg4AfAIY9DSsehEGhi6YUGX4_bF88Xhs0NWm4u7Aou0kzn9JOsd1MDn0AK1RV9421lRh8nJTiI611YxI0mZByCKFsk9TutDUHRjX7Iruh7NQ4KJl7xvJaFO1QroYqZYhhQySC45ANmKSPLwWpAWSqpIYR2ouWKkMbK4m6P7Bq3CNxRlpz34zwCLZccy2-zBg4vbGhW2QkFya8Ocm4wIOnircuJ1okqnJc4NRjjUElNjgMYcTi1zbojeIdOGSMEUW_H9D1LffdfUfC1k2BxVSQcD2OxIfPyYN4d3Y73ffhOCXfAm2V-bFPfOUNV3gAhU6gNG3fN9Y5EfzznAhdrCvJ6Ew3NHHxSzENHfOz4PCL9SJFnI0sU2R7MKfa_4FJ_krftWu63iSwxCOHJJZNBjL1T9EaYQ1P_Gl_ppqD2OKP6jeBJ64YyXONgnI8IkDvJZT0sj7WOa4NTpok0_]--></g></svg>