<?xml version="1.0" encoding="UTF-8" standalone="no"?><svg xmlns="http://www.w3.org/2000/svg" xmlns:xlink="http://www.w3.org/1999/xlink" contentStyleType="text/css" height="607px" preserveAspectRatio="none" style="width:2155px;height:607px;background:#FFFFFF;" version="1.1" viewBox="0 0 2155 607" width="2155px" zoomAndPan="magnify"><defs/><g><text fill="#000000" font-family="sans-serif" font-size="14" font-weight="bold" lengthAdjust="spacing" textLength="256" x="942.83" y="22.9951">Shared Controller State Machine</text><ellipse cx="16" cy="362.2969" fill="#222222" rx="10" ry="10" style="stroke:none;stroke-width:1.0;"/><g id="Observe"><rect fill="#F8FAFC" height="50.2656" rx="6" ry="6" style="stroke:#475569;stroke-width:0.5;" width="295" x="86" y="337.2969"/><line style="stroke:#475569;stroke-width:0.5;" x1="86" x2="381" y1="363.5938" y2="363.5938"/><text fill="#0F172A" font-family="sans-serif" font-size="14" lengthAdjust="spacing" textLength="58" x="204.5" y="355.292">Observe</text><text fill="#0F172A" font-family="sans-serif" font-size="12" lengthAdjust="spacing" textLength="275" x="91" y="379.7324">read spec, status, finalizer, and OCI lifecycle</text></g><rect fill="#F8FAFC" height="40" rx="6" ry="6" style="stroke:#475569;stroke-width:0.5;" width="122" x="441" y="269.2969"/><text fill="#0F172A" font-family="sans-serif" font-size="14" lengthAdjust="spacing" textLength="112" x="446" y="294.1436">ResolveByName</text><rect fill="#F8FAFC" height="40" rx="6" ry="6" style="stroke:#475569;stroke-width:0.5;" width="130" x="623" y="268.2969"/><text fill="#0F172A" font-family="sans-serif" font-size="14" lengthAdjust="spacing" textLength="120" x="628" y="293.1436">PaginatedLookup</text><rect fill="#F8FAFC" height="40" rx="6" ry="6" style="stroke:#475569;stroke-width:0.5;" width="53" x="813" y="233.2969"/><text fill="#0F172A" font-family="sans-serif" font-size="14" lengthAdjust="spacing" textLength="43" x="818" y="258.1436">Ready</text><rect fill="#F8FAFC" height="40" rx="6" ry="6" style="stroke:#475569;stroke-width:0.5;" width="75" x="650.5" y="415.2969"/><text fill="#0F172A" font-family="sans-serif" font-size="14" lengthAdjust="spacing" textLength="65" x="655.5" y="440.1436">Retryable</text><rect fill="#F8FAFC" height="40" rx="6" ry="6" style="stroke:#475569;stroke-width:0.5;" width="50" x="814.5" y="342.2969"/><text fill="#0F172A" font-family="sans-serif" font-size="14" lengthAdjust="spacing" textLength="40" x="819.5" y="367.1436">Failed</text><rect fill="#F8FAFC" height="40" rx="6" ry="6" style="stroke:#475569;stroke-width:0.5;" width="142" x="1118" y="198.2969"/><text fill="#0F172A" font-family="sans-serif" font-size="14" lengthAdjust="spacing" textLength="132" x="1123" y="223.1436">MoveCompartment</text><rect fill="#F8FAFC" height="40" rx="6" ry="6" style="stroke:#475569;stroke-width:0.5;" width="97" x="1567" y="198.2969"/><text fill="#0F172A" font-family="sans-serif" font-size="14" lengthAdjust="spacing" textLength="87" x="1572" y="223.1436">ApplyUpdate</text><rect fill="#F8FAFC" height="40" rx="6" ry="6" style="stroke:#475569;stroke-width:0.5;" width="88" x="1806" y="325.2969"/><text fill="#0F172A" font-family="sans-serif" font-size="14" lengthAdjust="spacing" textLength="78" x="1811" y="350.1436">SyncSecret</text><rect fill="#F8FAFC" height="40" rx="6" ry="6" style="stroke:#475569;stroke-width:0.5;" width="142" x="1779" y="44.2969"/><text fill="#0F172A" font-family="sans-serif" font-size="14" lengthAdjust="spacing" textLength="132" x="1784" y="69.1436">ResubmitWholeList</text><rect fill="#F8FAFC" height="40" rx="6" ry="6" style="stroke:#475569;stroke-width:0.5;" width="135" x="1782.5" y="216.2969"/><text fill="#0F172A" font-family="sans-serif" font-size="14" lengthAdjust="spacing" textLength="125" x="1787.5" y="241.1436">BestEffortCleanup</text><rect fill="#F8FAFC" height="40" rx="6" ry="6" style="stroke:#475569;stroke-width:0.5;" width="113" x="1132.5" y="415.2969"/><text fill="#0F172A" font-family="sans-serif" font-size="14" lengthAdjust="spacing" textLength="103" x="1137.5" y="440.1436">DeletePending</text><rect fill="#F8FAFC" height="40" rx="6" ry="6" style="stroke:#475569;stroke-width:0.5;" width="207" x="1512" y="486.2969"/><text fill="#0F172A" font-family="sans-serif" font-size="14" lengthAdjust="spacing" textLength="197" x="1517" y="511.1436">DeleteWorkRequestPending</text><rect fill="#F8FAFC" height="40" rx="6" ry="6" style="stroke:#475569;stroke-width:0.5;" width="169" x="1531" y="561.2969"/><text fill="#0F172A" font-family="sans-serif" font-size="14" lengthAdjust="spacing" textLength="159" x="1536" y="586.1436">DeleteCleanupBlocked</text><rect fill="#F8FAFC" height="40" rx="6" ry="6" style="stroke:#475569;stroke-width:0.5;" width="65" x="1817.5" y="486.2969"/><text fill="#0F172A" font-family="sans-serif" font-size="14" lengthAdjust="spacing" textLength="55" x="1822.5" y="511.1436">Deleted</text><g id="elem_GMN42"><path d="M926,113.7969 L926,157.1953 A6,6 0 0 0 932,163.1953 L1446,163.1953 A6,6 0 0 0 1452,157.1953 L1452,117.7969 L1442,107.7969 L932,107.7969 A6,6 0 0 0 926,113.7969 " fill="#FFF7ED" style="stroke:#181818;stroke-width:0.5;"/><path d="M1442,107.7969 L1442,114.7969 A3,3 0 0 0 1445,117.7969 L1452,117.7969 L1442,107.7969 " fill="#FFF7ED" style="stroke:#181818;stroke-width:1.0;"/><text fill="#0F172A" font-family="sans-serif" font-size="13" lengthAdjust="spacing" textLength="453" x="932" y="124.8638">- Controller-local state machines prune or expand these shared states.</text><text fill="#0F172A" font-family="sans-serif" font-size="13" lengthAdjust="spacing" textLength="505" x="932" y="139.9966">- For example: namespace resolution, resize branches, immutable-drift rejects,</text><text fill="#0F172A" font-family="sans-serif" font-size="13" lengthAdjust="spacing" textLength="368" x="940" y="155.1294">best-effort cleanup, or work-request-backed delete paths.</text></g><!--link *start to Observe--><g id="link_*start_Observe"><path d="M26.2,362.2969 C26.2,362.2969 80.95,362.2969 80.95,362.2969 " fill="none" id="*start-to-Observe" style="stroke:#181818;stroke-width:1.0;"/><polygon fill="#181818" points="85.95,362.2969,76.95,358.2969,80.95,362.2969,76.95,366.2969,85.95,362.2969" style="stroke:#181818;stroke-width:1.0;"/></g><!--link Observe to ResolveByName--><g id="link_Observe_ResolveByName"><path d="M381.1,352.2969 C443.49,352.2969 502,352.2969 502,352.2969 C502,352.2969 502,314.5769 502,314.5769 " fill="none" id="Observe-to-ResolveByName" style="stroke:#181818;stroke-width:1.0;"/><polygon fill="#181818" points="502,309.5769,498,318.5769,502,314.5769,506,318.5769,502,309.5769" style="stroke:#181818;stroke-width:1.0;"/><text fill="#000000" font-family="sans-serif" font-size="13" lengthAdjust="spacing" textLength="134" x="461.41" y="348.3638">no OCID is bound yet</text></g><!--link ResolveByName to PaginatedLookup--><g id="link_ResolveByName_PaginatedLookup"><path d="M563.16,288.7969 C563.16,288.7969 617.96,288.7969 617.96,288.7969 " fill="none" id="ResolveByName-to-PaginatedLookup" style="stroke:#181818;stroke-width:1.0;"/><polygon fill="#181818" points="622.96,288.7969,613.96,284.7969,617.96,288.7969,613.96,292.7969,622.96,288.7969" style="stroke:#181818;stroke-width:1.0;"/><text fill="#000000" font-family="sans-serif" font-size="13" lengthAdjust="spacing" textLength="192" x="397.56" y="301.8638">later pages must be searched</text></g><!--link PaginatedLookup to Ready--><g id="link_PaginatedLookup_Ready"><path d="M753.08,290.7969 C797.38,290.7969 848,290.7969 848,290.7969 C848,290.7969 848,278.3669 848,278.3669 " fill="none" id="PaginatedLookup-to-Ready" style="stroke:#181818;stroke-width:1.0;"/><polygon fill="#181818" points="848,273.3669,844,282.3669,848,278.3669,852,282.3669,848,273.3669" style="stroke:#181818;stroke-width:1.0;"/><text fill="#000000" font-family="sans-serif" font-size="13" lengthAdjust="spacing" textLength="242" x="807.76" y="303.8638">an active resource is found or created</text></g><!--link Observe to Retryable--><g id="link_Observe_Retryable"><path d="M381.06,372.2969 C513.77,372.2969 688,372.2969 688,372.2969 C688,372.2969 688,410.0169 688,410.0169 " fill="none" id="Observe-to-Retryable" style="stroke:#181818;stroke-width:1.0;"/><polygon fill="#181818" points="688,415.0169,692,406.0169,688,410.0169,684,406.0169,688,415.0169" style="stroke:#181818;stroke-width:1.0;"/><text fill="#000000" font-family="sans-serif" font-size="13" lengthAdjust="spacing" textLength="154" x="398.39" y="385.3638">OCI state is nonterminal</text></g><!--link Observe to Failed--><g id="link_Observe_Failed"><path d="M381.36,362.2969 C381.36,362.2969 809.43,362.2969 809.43,362.2969 " fill="none" id="Observe-to-Failed" style="stroke:#181818;stroke-width:1.0;"/><polygon fill="#181818" points="814.43,362.2969,805.43,358.2969,809.43,362.2969,805.43,366.2969,814.43,362.2969" style="stroke:#181818;stroke-width:1.0;"/><text fill="#000000" font-family="sans-serif" font-size="13" lengthAdjust="spacing" textLength="130" x="596.4" y="375.3638">OCI state is terminal</text></g><!--link Ready to MoveCompartment--><g id="link_Ready_MoveCompartment"><path d="M866.2,242.7969 C937.32,242.7969 1126,242.7969 1126,242.7969 C1126,242.7969 1126,242.3669 1126,242.3669 " fill="none" id="Ready-to-MoveCompartment" style="stroke:#181818;stroke-width:1.0;"/><polygon fill="#181818" points="1126,238.5269,1122,247.5269,1126,243.5269,1130,247.5269,1126,238.5269" style="stroke:#181818;stroke-width:1.0;"/><text fill="#000000" font-family="sans-serif" font-size="13" lengthAdjust="spacing" textLength="191" x="997.31" y="255.8638">compartment drift is modeled</text></g><!--link MoveCompartment to ApplyUpdate--><g id="link_MoveCompartment_ApplyUpdate"><path d="M1260.39,218.2969 C1260.39,218.2969 1561.82,218.2969 1561.82,218.2969 " fill="none" id="MoveCompartment-to-ApplyUpdate" style="stroke:#181818;stroke-width:1.0;"/><polygon fill="#181818" points="1566.82,218.2969,1557.82,214.2969,1561.82,218.2969,1557.82,222.2969,1566.82,218.2969" style="stroke:#181818;stroke-width:1.0;"/><text fill="#000000" font-family="sans-serif" font-size="13" lengthAdjust="spacing" textLength="273" x="1412.1" y="231.3638">continue with the supported mutation path</text></g><!--link Ready to ApplyUpdate--><g id="link_Ready_ApplyUpdate"><path d="M866.12,247.2969 C1000.72,247.2969 1600,247.2969 1600,247.2969 C1600,247.2969 1600,243.4369 1600,243.4369 " fill="none" id="Ready-to-ApplyUpdate" style="stroke:#181818;stroke-width:1.0;"/><polygon fill="#181818" points="1600,238.4369,1596,247.4369,1600,243.4369,1604,247.4369,1600,238.4369" style="stroke:#181818;stroke-width:1.0;"/><text fill="#000000" font-family="sans-serif" font-size="13" lengthAdjust="spacing" textLength="135" x="1235.99" y="260.3638">supported drift exists</text></g><!--link ApplyUpdate to SyncSecret--><g id="link_ApplyUpdate_SyncSecret"><path d="M1632,238.3969 C1632,270.3869 1632,329.2969 1632,329.2969 C1632,329.2969 1800.88,329.2969 1800.88,329.2969 " fill="none" id="ApplyUpdate-to-SyncSecret" style="stroke:#181818;stroke-width:1.0;"/><polygon fill="#181818" points="1805.88,329.2969,1796.88,325.2969,1800.88,329.2969,1796.88,333.2969,1805.88,329.2969" style="stroke:#181818;stroke-width:1.0;"/><text fill="#000000" font-family="sans-serif" font-size="13" lengthAdjust="spacing" textLength="189" x="1480.99" y="342.3638">Secret generation is modeled</text></g><!--link ApplyUpdate to ResubmitWholeList--><g id="link_ApplyUpdate_ResubmitWholeList"><path d="M1616,198.1169 C1616,157.7669 1616,70.9669 1616,70.9669 C1616,70.9669 1773.84,70.9669 1773.84,70.9669 " fill="none" id="ApplyUpdate-to-ResubmitWholeList" style="stroke:#181818;stroke-width:1.0;"/><polygon fill="#181818" points="1778.84,70.9669,1769.84,66.9669,1773.84,70.9669,1769.84,74.9669,1778.84,70.9669" style="stroke:#181818;stroke-width:1.0;"/><text fill="#000000" font-family="sans-serif" font-size="13" lengthAdjust="spacing" textLength="240" x="1390.34" y="84.0338">full desired collections must converge</text></g><!--link ApplyUpdate to BestEffortCleanup--><g id="link_ApplyUpdate_BestEffortCleanup"><path d="M1664.09,227.2969 C1664.09,227.2969 1777.36,227.2969 1777.36,227.2969 " fill="none" id="ApplyUpdate-to-BestEffortCleanup" style="stroke:#181818;stroke-width:1.0;"/><polygon fill="#181818" points="1782.36,227.2969,1773.36,223.2969,1777.36,227.2969,1773.36,231.2969,1782.36,227.2969" style="stroke:#181818;stroke-width:1.0;"/><text fill="#000000" font-family="sans-serif" font-size="13" lengthAdjust="spacing" textLength="234" x="1721.72" y="223.3638">eligible duplicate cleanup is modeled</text></g><!--link SyncSecret to Ready--><g id="link_SyncSecret_Ready"><path d="M1805.93,333.2969 C1610.54,333.2969 832,333.2969 832,333.2969 C832,333.2969 832,278.4869 832,278.4869 " fill="none" id="SyncSecret-to-Ready" style="stroke:#181818;stroke-width:1.0;"/><polygon fill="#181818" points="832,273.4869,828,282.4869,832,278.4869,836,282.4869,832,273.4869" style="stroke:#181818;stroke-width:1.0;"/><text fill="#000000" font-family="sans-serif" font-size="13" lengthAdjust="spacing" textLength="176" x="1114.56" y="346.3638">Secret side effects succeed</text></g><!--link ResubmitWholeList to Ready--><g id="link_ResubmitWholeList_Ready"><path d="M1778.75,57.6269 C1547.23,57.6269 831,57.6269 831,57.6269 C831,57.6269 831,228.0969 831,228.0969 " fill="none" id="ResubmitWholeList-to-Ready" style="stroke:#181818;stroke-width:1.0;"/><polygon fill="#181818" points="831,233.0969,835,224.0969,831,228.0969,827,224.0969,831,233.0969" style="stroke:#181818;stroke-width:1.0;"/><text fill="#000000" font-family="sans-serif" font-size="13" lengthAdjust="spacing" textLength="206" x="1012.64" y="70.6938">the desired collection converges</text></g><!--link BestEffortCleanup to Ready--><g id="link_BestEffortCleanup_Ready"><path d="M1782.13,251.7969 C1782.13,251.7969 871.18,251.7969 871.18,251.7969 " fill="none" id="BestEffortCleanup-to-Ready" style="stroke:#181818;stroke-width:1.0;"/><polygon fill="#181818" points="866.18,251.7969,875.18,255.7969,871.18,251.7969,875.18,247.7969,866.18,251.7969" style="stroke:#181818;stroke-width:1.0;"/><text fill="#000000" font-family="sans-serif" font-size="13" lengthAdjust="spacing" textLength="206" x="1327.66" y="247.8638">non-blocking cleanup completes</text></g><!--link Ready to DeletePending--><g id="link_Ready_DeletePending"><path d="M866.06,264.7969 C947.62,264.7969 1189,264.7969 1189,264.7969 C1189,264.7969 1189,410.0669 1189,410.0669 " fill="none" id="Ready-to-DeletePending" style="stroke:#181818;stroke-width:1.0;"/><polygon fill="#181818" points="1189,415.0669,1193,406.0669,1189,410.0669,1185,406.0669,1189,415.0669" style="stroke:#181818;stroke-width:1.0;"/><text fill="#000000" font-family="sans-serif" font-size="13" lengthAdjust="spacing" textLength="109" x="990.16" y="277.8638">delete requested</text></g><!--link Retryable to DeletePending--><g id="link_Retryable_DeletePending"><path d="M725.66,441.9669 C725.66,441.9669 1127.18,441.9669 1127.18,441.9669 " fill="none" id="Retryable-to-DeletePending" style="stroke:#181818;stroke-width:1.0;"/><polygon fill="#181818" points="1132.18,441.9669,1123.18,437.9669,1127.18,441.9669,1123.18,445.9669,1132.18,441.9669" style="stroke:#181818;stroke-width:1.0;"/><text fill="#000000" font-family="sans-serif" font-size="13" lengthAdjust="spacing" textLength="109" x="816.42" y="455.0338">delete requested</text></g><!--link Failed to DeletePending--><g id="link_Failed_DeletePending"><path d="M840,382.5569 C840,402.0669 840,428.6269 840,428.6269 C840,428.6269 1127.15,428.6269 1127.15,428.6269 " fill="none" id="Failed-to-DeletePending" style="stroke:#181818;stroke-width:1.0;"/><polygon fill="#181818" points="1132.15,428.6269,1123.15,424.6269,1127.15,428.6269,1123.15,432.6269,1132.15,428.6269" style="stroke:#181818;stroke-width:1.0;"/><text fill="#000000" font-family="sans-serif" font-size="13" lengthAdjust="spacing" textLength="109" x="961.54" y="441.6938">delete requested</text></g><!--link DeletePending to DeleteWorkRequestPending--><g id="link_DeletePending_DeleteWorkRequestPending"><path d="M1245.78,441.9669 C1345.12,441.9669 1540,441.9669 1540,441.9669 C1540,441.9669 1540,481.2969 1540,481.2969 " fill="none" id="DeletePending-to-DeleteWorkRequestPending" style="stroke:#181818;stroke-width:1.0;"/><polygon fill="#181818" points="1540,486.2969,1544,477.2969,1540,481.2969,1536,477.2969,1540,486.2969" style="stroke:#181818;stroke-width:1.0;"/><text fill="#000000" font-family="sans-serif" font-size="13" lengthAdjust="spacing" textLength="258" x="1413.56" y="455.0338">delete is tracked through a work request</text></g><!--link DeletePending to DeleteCleanupBlocked--><g id="link_DeletePending_DeleteCleanupBlocked"><path d="M1189,455.5969 C1189,495.7169 1189,581.2969 1189,581.2969 C1189,581.2969 1525.98,581.2969 1525.98,581.2969 " fill="none" id="DeletePending-to-DeleteCleanupBlocked" style="stroke:#181818;stroke-width:1.0;"/><polygon fill="#181818" points="1530.98,581.2969,1521.98,577.2969,1525.98,581.2969,1521.98,585.2969,1530.98,581.2969" style="stroke:#181818;stroke-width:1.0;"/><text fill="#000000" font-family="sans-serif" font-size="13" lengthAdjust="spacing" textLength="229" x="1064.64" y="594.3638">Secret cleanup fails after OCI delete</text></g><!--link DeletePending to Deleted--><g id="link_DeletePending_Deleted"><path d="M1245.64,428.6269 C1405.73,428.6269 1850,428.6269 1850,428.6269 C1850,428.6269 1850,481.2969 1850,481.2969 " fill="none" id="DeletePending-to-Deleted" style="stroke:#181818;stroke-width:1.0;"/><polygon fill="#181818" points="1850,486.2969,1854,477.2969,1850,481.2969,1846,477.2969,1850,486.2969" style="stroke:#181818;stroke-width:1.0;"/><text fill="#000000" font-family="sans-serif" font-size="13" lengthAdjust="spacing" textLength="159" x="1414.15" y="424.6938">OCI deletion is confirmed</text></g><!--link DeleteWorkRequestPending to Deleted--><g id="link_DeleteWorkRequestPending_Deleted"><path d="M1719.04,512.9669 C1719.04,512.9669 1812.29,512.9669 1812.29,512.9669 " fill="none" id="DeleteWorkRequestPending-to-Deleted" style="stroke:#181818;stroke-width:1.0;"/><polygon fill="#181818" points="1817.29,512.9669,1808.29,508.9669,1812.29,512.9669,1808.29,516.9669,1817.29,512.9669" style="stroke:#181818;stroke-width:1.0;"/><text fill="#000000" font-family="sans-serif" font-size="13" lengthAdjust="spacing" textLength="381" x="1766.66" y="526.0338">delete work request succeeds and OCI deletion is confirmed</text></g><!--link DeleteCleanupBlocked to Deleted--><g id="link_DeleteCleanupBlocked_Deleted"><path d="M1700.16,581.2969 C1767.33,581.2969 1850,581.2969 1850,581.2969 C1850,581.2969 1850,531.3969 1850,531.3969 " fill="none" id="DeleteCleanupBlocked-to-Deleted" style="stroke:#181818;stroke-width:1.0;"/><polygon fill="#181818" points="1850,526.3969,1846,535.3969,1850,531.3969,1854,535.3969,1850,526.3969" style="stroke:#181818;stroke-width:1.0;"/><text fill="#000000" font-family="sans-serif" font-size="13" lengthAdjust="spacing" textLength="148" x="1801.03" y="594.3638">cleanup retry succeeds</text></g><!--link Deleted to Deleted--><g id="link_Deleted_Deleted"><path d="M1817.28,499.6269 C1814.09,499.6269 1812,499.6269 1812,499.6269 C1812,499.6269 1812,470.7969 1812,470.7969 C1812,470.7969 1889,470.7969 1889,470.7969 C1889,470.7969 1889,506.2969 1889,506.2969 C1889,506.2969 1887.56,506.2969 1887.56,506.2969 " fill="none" id="Deleted-to-Deleted" style="stroke:#181818;stroke-width:1.0;"/><polygon fill="#181818" points="1882.56,506.2969,1891.56,510.2969,1887.56,506.2969,1891.56,502.2969,1882.56,506.2969" style="stroke:#181818;stroke-width:1.0;"/><text fill="#000000" font-family="sans-serif" font-size="13" lengthAdjust="spacing" textLength="100" x="1745.91" y="461.8638">terminal stutter</text></g><!--link Ready to GMN42--><g id="link_Ready_GMN42"><path d="M849,233.2769 C849,199.6169 849,135.2969 849,135.2969 C849,135.2969 881.17,135.2969 925.73,135.2969 " fill="none" id="Ready-GMN42" style="stroke:#181818;stroke-width:1.0;stroke-dasharray:7.0,7.0;"/></g><!--SRC=[ZLLHRzms37xtho2mj-8yj5sph7aOaBlKm81sBPeDVHZs84kqhPqiUPASr2twtqlAzaLtbnRDIyxIH_8Z-P6AEXg4sqvuLB1pDdfd37guZI8Yl16oqnOBWqs4wC3hjekWj4SPjRD5fnK2zaESG66GNW_fEEor7OGNFOHEA7UlRGkDC06p6qD-upGWE1yxbrruDrebdRV4ujdpx68hvBvDjpjdd8UVglIN8HGsOZJnB_mOhurkROys0dFF6QN4FXS0M-SL-iNNYykBYrzVqcb5DLZEdbRFBfzVC_8iyc_LTRKhlcH-hNlCxVR5nIzFNpxgegekNzqy6l1ByS-JVw4iVuUtTK1_XyNo7wx0er0G1fIRbCaODj1eAup-X7u3mYfuk_k3YjkWdAHvi6Hlxp4uSuVRwK_Hio_h67m3Ea3Dp632M1o3sEoTQ2b2HFNQkVquaA6XBm-3Q350FuO8DK90uMM7gZY5pv65ciXGM12a7EBZASpe9NBm9WMd0aZAZWnFI4S_YTemOKvjxXzPMQeR-fwJFpAeX3QavHFq0JfJOU0RTuSxrrFxOXBA5SZiItbDcYVBtYaaXyKfd5rS3uEP_XuK1s5p6xKT4Uvrx21sL9Hn64ZVHASVYGdD1bKjTXc9OmyF-3ayVjGXXY87iT7jPEKjKhMOzFAZHHgOEKH6-jIIkZlMlOuVEcVmDJad1yre38-lvXKWUVpJS2-jfQJkqBTuvcgB8Rvg6gAxCoXi4WRIr6dkbHe7eoL3vNAPaShev-9OZaBQAGq9E0OgY9H89kUySqikzNa21-gXEEUQcvEIojeukUSzjV9bBHYCPFpGh1laatTe5IElGALlqlB_8mL8D5Un_X1yaUeFOOy13oOVdD-_dr5drgnxJuk7OiIEba_RWO1xCbZzVjFhKgOjLoKDqzASjJeDCGyW6ju3F6Tpm6-wMySnmHQ9KdSQxVj3QeyaSknWIIhdl-eZ73RVzoAS97NiVStCSmiFVeiLS0nUjmdjbp7IHr6azJy_ZwwPbLMKsODQKj24vvdevsSrmE17ooyW3Vh06P2G0_AZoKfEsF0pkQaIGh0WIQsqbyCWvBn3pSZPRlWtFG5GUs5f2zEhe7jUEIJ5Sbub7l_ZYThGYrDJvKfCux2clM4INDbogMnPpxfPYivRYwXGNz93Ltm5]--></g></svg>