<?xml version="1.0" encoding="UTF-8" standalone="no"?><svg xmlns="http://www.w3.org/2000/svg" xmlns:xlink="http://www.w3.org/1999/xlink" contentStyleType="text/css" height="642px" preserveAspectRatio="none" style="width:834px;height:642px;background:#FFFFFF;" version="1.1" viewBox="0 0 834 642" width="834px" zoomAndPan="magnify"><defs/><g><text fill="#000000" font-family="sans-serif" font-size="14" font-weight="bold" lengthAdjust="spacing" textLength="228" x="304.75" y="27.9951">Shared Resolution Sequence</text><rect fill="none" height="314.9375" style="stroke:#475569;stroke-width:1.5;" width="608" x="220.5" y="164.7266"/><rect fill="none" height="283.8047" style="stroke:#475569;stroke-width:1.5;" width="588" x="230.5" y="188.8594"/><rect fill="none" height="46.2656" style="stroke:#475569;stroke-width:1.5;" width="446" x="240.5" y="286.0625"/><rect fill="none" height="119.3359" style="stroke:#475569;stroke-width:1.5;" width="568" x="240.5" y="346.3281"/><line style="stroke:#94A3B8;stroke-width:0.5;stroke-dasharray:5.0,5.0;" x1="41" x2="41" y1="118.5938" y2="562.0625"/><line style="stroke:#94A3B8;stroke-width:0.5;stroke-dasharray:5.0,5.0;" x1="314.5" x2="314.5" y1="118.5938" y2="562.0625"/><line style="stroke:#94A3B8;stroke-width:0.5;stroke-dasharray:5.0,5.0;" x1="658.5" x2="658.5" y1="118.5938" y2="562.0625"/><line style="stroke:#94A3B8;stroke-width:0.5;stroke-dasharray:5.0,5.0;" x1="742.5" x2="742.5" y1="118.5938" y2="562.0625"/><text fill="#000000" font-family="sans-serif" font-size="14" lengthAdjust="spacing" textLength="67" x="5" y="115.292">Controller</text><ellipse cx="41.5" cy="50.7969" fill="#E0F2FE" rx="8" ry="8" style="stroke:#0F766E;stroke-width:0.5;"/><path d="M41.5,58.7969 L41.5,85.7969 M28.5,66.7969 L54.5,66.7969 M41.5,85.7969 L28.5,100.7969 M41.5,85.7969 L54.5,100.7969 " fill="none" style="stroke:#0F766E;stroke-width:0.5;"/><text fill="#000000" font-family="sans-serif" font-size="14" lengthAdjust="spacing" textLength="67" x="5" y="574.0576">Controller</text><ellipse cx="41.5" cy="585.8594" fill="#E0F2FE" rx="8" ry="8" style="stroke:#0F766E;stroke-width:0.5;"/><path d="M41.5,593.8594 L41.5,620.8594 M28.5,601.8594 L54.5,601.8594 M41.5,620.8594 L28.5,635.8594 M41.5,620.8594 L54.5,635.8594 " fill="none" style="stroke:#0F766E;stroke-width:0.5;"/><rect fill="#F8FAFC" height="30.2969" rx="2.5" ry="2.5" style="stroke:#475569;stroke-width:0.5;" width="128" x="250.5" y="87.2969"/><text fill="#000000" font-family="sans-serif" font-size="14" lengthAdjust="spacing" textLength="114" x="257.5" y="107.292">Service Manager</text><rect fill="#F8FAFC" height="30.2969" rx="2.5" ry="2.5" style="stroke:#475569;stroke-width:0.5;" width="128" x="250.5" y="561.0625"/><text fill="#000000" font-family="sans-serif" font-size="14" lengthAdjust="spacing" textLength="114" x="257.5" y="581.0576">Service Manager</text><text fill="#000000" font-family="sans-serif" font-size="14" lengthAdjust="spacing" textLength="24" x="643.5" y="115.292">OCI</text><path d="M640.5,66.2969 C640.5,56.2969 658.5,56.2969 658.5,56.2969 C658.5,56.2969 676.5,56.2969 676.5,66.2969 L676.5,92.2969 C676.5,102.2969 658.5,102.2969 658.5,102.2969 C658.5,102.2969 640.5,102.2969 640.5,92.2969 L640.5,66.2969 " fill="#E2E2F0" style="stroke:#181818;stroke-width:1.5;"/><path d="M640.5,66.2969 C640.5,76.2969 658.5,76.2969 658.5,76.2969 C658.5,76.2969 676.5,76.2969 676.5,66.2969 " fill="none" style="stroke:#181818;stroke-width:1.5;"/><text fill="#000000" font-family="sans-serif" font-size="14" lengthAdjust="spacing" textLength="24" x="643.5" y="574.0576">OCI</text><path d="M640.5,587.3594 C640.5,577.3594 658.5,577.3594 658.5,577.3594 C658.5,577.3594 676.5,577.3594 676.5,587.3594 L676.5,613.3594 C676.5,623.3594 658.5,623.3594 658.5,623.3594 C658.5,623.3594 640.5,623.3594 640.5,613.3594 L640.5,587.3594 " fill="#E2E2F0" style="stroke:#181818;stroke-width:1.5;"/><path d="M640.5,587.3594 C640.5,597.3594 658.5,597.3594 658.5,597.3594 C658.5,597.3594 676.5,597.3594 676.5,587.3594 " fill="none" style="stroke:#181818;stroke-width:1.5;"/><text fill="#000000" font-family="sans-serif" font-size="14" lengthAdjust="spacing" textLength="106" x="686.5" y="115.292">Kubernetes API</text><path d="M724.5,66.2969 C724.5,56.2969 742.5,56.2969 742.5,56.2969 C742.5,56.2969 760.5,56.2969 760.5,66.2969 L760.5,92.2969 C760.5,102.2969 742.5,102.2969 742.5,102.2969 C742.5,102.2969 724.5,102.2969 724.5,92.2969 L724.5,66.2969 " fill="#E2E2F0" style="stroke:#181818;stroke-width:1.5;"/><path d="M724.5,66.2969 C724.5,76.2969 742.5,76.2969 742.5,76.2969 C742.5,76.2969 760.5,76.2969 760.5,66.2969 " fill="none" style="stroke:#181818;stroke-width:1.5;"/><text fill="#000000" font-family="sans-serif" font-size="14" lengthAdjust="spacing" textLength="106" x="686.5" y="574.0576">Kubernetes API</text><path d="M724.5,587.3594 C724.5,577.3594 742.5,577.3594 742.5,577.3594 C742.5,577.3594 760.5,577.3594 760.5,587.3594 L760.5,613.3594 C760.5,623.3594 742.5,623.3594 742.5,623.3594 C742.5,623.3594 724.5,623.3594 724.5,613.3594 L724.5,587.3594 " fill="#E2E2F0" style="stroke:#181818;stroke-width:1.5;"/><path d="M724.5,587.3594 C724.5,597.3594 742.5,597.3594 742.5,597.3594 C742.5,597.3594 760.5,597.3594 760.5,587.3594 " fill="none" style="stroke:#181818;stroke-width:1.5;"/><polygon fill="#334155" points="302.5,145.7266,312.5,149.7266,302.5,153.7266,306.5,149.7266" style="stroke:#334155;stroke-width:1.0;"/><line style="stroke:#334155;stroke-width:1.0;" x1="41.5" x2="308.5" y1="149.7266" y2="149.7266"/><text fill="#000000" font-family="sans-serif" font-size="13" font-weight="bold" lengthAdjust="spacing" textLength="9" x="48.5" y="144.6606">1</text><text fill="#000000" font-family="sans-serif" font-size="13" lengthAdjust="spacing" textLength="236" x="61.5" y="144.6606">reconcile desired and observed state</text><path d="M220.5,164.7266 L403.5,164.7266 L403.5,171.8594 L393.5,181.8594 L220.5,181.8594 L220.5,164.7266 " fill="#F8FAFC" style="stroke:#475569;stroke-width:1.5;"/><rect fill="none" height="314.9375" style="stroke:#475569;stroke-width:1.5;" width="608" x="220.5" y="164.7266"/><text fill="#000000" font-family="sans-serif" font-size="13" font-weight="bold" lengthAdjust="spacing" textLength="138" x="235.5" y="177.7935">Identifier selection</text><path d="M230.5,188.8594 L294.5,188.8594 L294.5,195.9922 L284.5,205.9922 L230.5,205.9922 L230.5,188.8594 " fill="#F8FAFC" style="stroke:#475569;stroke-width:1.5;"/><rect fill="none" height="283.8047" style="stroke:#475569;stroke-width:1.5;" width="588" x="230.5" y="188.8594"/><text fill="#000000" font-family="sans-serif" font-size="13" font-weight="bold" lengthAdjust="spacing" textLength="19" x="245.5" y="201.9263">alt</text><text fill="#000000" font-family="sans-serif" font-size="11" font-weight="bold" lengthAdjust="spacing" textLength="231" x="309.5" y="201.0698">[status or spec OCID already exists]</text><polygon fill="#334155" points="646.5,223.125,656.5,227.125,646.5,231.125,650.5,227.125" style="stroke:#334155;stroke-width:1.0;"/><line style="stroke:#334155;stroke-width:1.0;" x1="314.5" x2="652.5" y1="227.125" y2="227.125"/><text fill="#000000" font-family="sans-serif" font-size="13" font-weight="bold" lengthAdjust="spacing" textLength="9" x="321.5" y="222.0591">2</text><text fill="#000000" font-family="sans-serif" font-size="13" lengthAdjust="spacing" textLength="230" x="334.5" y="222.0591">Get the resource by known identifier</text><line style="stroke:#475569;stroke-width:1.0;stroke-dasharray:2.0,2.0;" x1="230.5" x2="818.5" y1="236.125" y2="236.125"/><text fill="#000000" font-family="sans-serif" font-size="11" font-weight="bold" lengthAdjust="spacing" textLength="145" x="235.5" y="246.3354">[no OCID is bound yet]</text><polygon fill="#334155" points="646.5,267.0625,656.5,271.0625,646.5,275.0625,650.5,271.0625" style="stroke:#334155;stroke-width:1.0;"/><line style="stroke:#334155;stroke-width:1.0;" x1="314.5" x2="652.5" y1="271.0625" y2="271.0625"/><text fill="#000000" font-family="sans-serif" font-size="13" font-weight="bold" lengthAdjust="spacing" textLength="9" x="321.5" y="265.9966">3</text><text fill="#000000" font-family="sans-serif" font-size="13" lengthAdjust="spacing" textLength="130" x="334.5" y="265.9966">List by display name</text><path d="M240.5,286.0625 L317.5,286.0625 L317.5,293.1953 L307.5,303.1953 L240.5,303.1953 L240.5,286.0625 " fill="#F8FAFC" style="stroke:#475569;stroke-width:1.5;"/><rect fill="none" height="46.2656" style="stroke:#475569;stroke-width:1.5;" width="446" x="240.5" y="286.0625"/><text fill="#000000" font-family="sans-serif" font-size="13" font-weight="bold" lengthAdjust="spacing" textLength="32" x="255.5" y="299.1294">loop</text><text fill="#000000" font-family="sans-serif" font-size="11" font-weight="bold" lengthAdjust="spacing" textLength="266" x="332.5" y="298.2729">[later pages when pagination is enabled]</text><polygon fill="#334155" points="646.5,320.3281,656.5,324.3281,646.5,328.3281,650.5,324.3281" style="stroke:#334155;stroke-width:1.0;"/><line style="stroke:#334155;stroke-width:1.0;" x1="314.5" x2="652.5" y1="324.3281" y2="324.3281"/><text fill="#000000" font-family="sans-serif" font-size="13" font-weight="bold" lengthAdjust="spacing" textLength="9" x="321.5" y="319.2622">4</text><text fill="#000000" font-family="sans-serif" font-size="13" lengthAdjust="spacing" textLength="307" x="334.5" y="319.2622">Fetch the next page until a match or exhaustion</text><path d="M240.5,346.3281 L304.5,346.3281 L304.5,353.4609 L294.5,363.4609 L240.5,363.4609 L240.5,346.3281 " fill="#F8FAFC" style="stroke:#475569;stroke-width:1.5;"/><rect fill="none" height="119.3359" style="stroke:#475569;stroke-width:1.5;" width="568" x="240.5" y="346.3281"/><text fill="#000000" font-family="sans-serif" font-size="13" font-weight="bold" lengthAdjust="spacing" textLength="19" x="255.5" y="359.395">alt</text><text fill="#000000" font-family="sans-serif" font-size="11" font-weight="bold" lengthAdjust="spacing" textLength="162" x="319.5" y="358.5386">[existing resource found]</text><polygon fill="#334155" points="730.5,380.5938,740.5,384.5938,730.5,388.5938,734.5,384.5938" style="stroke:#334155;stroke-width:1.0;"/><line style="stroke:#334155;stroke-width:1.0;" x1="314.5" x2="736.5" y1="384.5938" y2="384.5938"/><text fill="#000000" font-family="sans-serif" font-size="13" font-weight="bold" lengthAdjust="spacing" textLength="9" x="321.5" y="379.5278">5</text><text fill="#000000" font-family="sans-serif" font-size="13" lengthAdjust="spacing" textLength="221" x="334.5" y="379.5278">Persist the resolved OCID in status</text><line style="stroke:#475569;stroke-width:1.0;stroke-dasharray:2.0,2.0;" x1="240.5" x2="808.5" y1="393.5938" y2="393.5938"/><text fill="#000000" font-family="sans-serif" font-size="11" font-weight="bold" lengthAdjust="spacing" textLength="182" x="245.5" y="403.8042">[no existing resource found]</text><polygon fill="#334155" points="646.5,424.5313,656.5,428.5313,646.5,432.5313,650.5,428.5313" style="stroke:#334155;stroke-width:1.0;"/><line style="stroke:#334155;stroke-width:1.0;" x1="314.5" x2="652.5" y1="428.5313" y2="428.5313"/><text fill="#000000" font-family="sans-serif" font-size="13" font-weight="bold" lengthAdjust="spacing" textLength="9" x="321.5" y="423.4653">6</text><text fill="#000000" font-family="sans-serif" font-size="13" lengthAdjust="spacing" textLength="154" x="334.5" y="423.4653">Create the OCI resource</text><polygon fill="#334155" points="730.5,453.6641,740.5,457.6641,730.5,461.6641,734.5,457.6641" style="stroke:#334155;stroke-width:1.0;"/><line style="stroke:#334155;stroke-width:1.0;" x1="314.5" x2="736.5" y1="457.6641" y2="457.6641"/><text fill="#000000" font-family="sans-serif" font-size="13" font-weight="bold" lengthAdjust="spacing" textLength="9" x="321.5" y="452.5981">7</text><text fill="#000000" font-family="sans-serif" font-size="13" lengthAdjust="spacing" textLength="216" x="334.5" y="452.5981">Persist the created OCID in status</text><path d="M209,491.6641 L209,546.6641 L764,546.6641 L764,501.6641 L754,491.6641 L209,491.6641 " fill="#FEFFDD" style="stroke:#181818;stroke-width:0.5;"/><path d="M754,491.6641 L754,501.6641 L764,501.6641 L754,491.6641 " fill="#FEFFDD" style="stroke:#181818;stroke-width:0.5;"/><text fill="#000000" font-family="sans-serif" font-size="13" lengthAdjust="spacing" textLength="428" x="215" y="508.731">- Bind-by-ID keeps spec/status OCIDs authoritative once they exist.</text><text fill="#000000" font-family="sans-serif" font-size="13" lengthAdjust="spacing" textLength="511" x="215" y="523.8638">- Name resolution stays on the resolved OCID for later update and delete paths.</text><text fill="#000000" font-family="sans-serif" font-size="13" lengthAdjust="spacing" textLength="534" x="215" y="538.9966">- Paginated lookup must keep using the later-page match, not restart from scratch.</text><!--SRC=[bLJRRjim37ttLn3PQzDrQzFRmu0qgukYtHQi-m7QecCXYkH9SjDWsB-NbBtKlMJO0YInHUeSyl18KKT3S5UZ9mNVAJZJHkqitD7Fbcn96RRHsNPLaC_2Kji6FQuWrAZSMji5L6W23I8NM2uNthLMpPnn7jxbwJF8c7hlrdtmyF3emsGo22ggi3Nn1pt4gT4Bko8RmL0LX-HzQV0h0vYZZxhK3Thucleqd-Qp5qdEA_9zmj79P79ynWctkg9RRUbPzEneUdXnEepkw0tWYbURjw6xqCxIfcLq_bNuyY3_c5zkmqFWW_pa-FWo-vsXX60qSpPwPmpv4M20fzUiUUeQHdVaxpLhzWKjBlhSVgrVoXH6B30GZBxDhbC2_mzMRresWQL80QRpBk7cD6JP4oMCFxq0FGTFfREbPfCf2bfSXbQ1AmBdyKk862cJvXkuLZnjNMa62cIe52Eo1cXYIci3SCEXeL8A-yphdb1jW1vqY84JuGMvbCEPvt154M9DN4jmhMSLYWqihLjRq5jAtaziPR2kGzS12fa8R2Z-3VkMoGLFwT0Ot8355QLyurm3XhlpqF2E0EkQh3ngY-c8CGDPB0ofbB-J8QTOrgb-oySYWK7BLHj0MA74M1PwgB4DlMBSYkr0HRkaZvpLRVkLDBQJb8Tw3dFoGJhx8vkHONN2s7uQ7L6lsV-IfCvcFC18YOFVjrl_lR8o0RnTM2ANN_bcrZ6HksUSvx1xul4nN6YhniLcp31BeYOacxtlNIVe0VWYh9tNlAJl6Kek82wXjzy-OtpboNTQTLSexzwmPUqR6bOyiSuQRQD40ZaJYZtFZmt6EWZUlBCAxs4hBVbyh7Z0gJneWqWjk0bbd3oHlB37muZ25ldqG-KTtvUbbyY-225HoXu1]--></g></svg>