<?xml version="1.0" encoding="UTF-8" standalone="no"?><svg xmlns="http://www.w3.org/2000/svg" xmlns:xlink="http://www.w3.org/1999/xlink" contentStyleType="text/css" height="1535px" preserveAspectRatio="none" style="width:1696px;height:1535px;background:#FFFFFF;" version="1.1" viewBox="0 0 1696 1535" width="1696px" zoomAndPan="magnify"><defs/><g><text fill="#000000" font-family="sans-serif" font-size="14" font-weight="bold" lengthAdjust="spacing" textLength="274" x="709.625" y="32.9951">OCI Security List Reconcile Activity</text><ellipse cx="643.125" cy="57.2969" fill="#0F766E" rx="10" ry="10" style="stroke:#222222;stroke-width:1.0;"/><rect fill="none" height="362.1406" style="stroke:#000000;stroke-width:1.5;" width="686" x="320.625" y="77.2969"/><path d="M453.625,77.2969 L453.625,86.5938 L443.625,96.5938 L320.625,96.5938 " fill="none" style="stroke:#000000;stroke-width:1.5;"/><text fill="#000000" font-family="sans-serif" font-size="14" lengthAdjust="spacing" textLength="123" x="323.625" y="91.292">Observe and Bind</text><rect fill="#F8FAFC" height="33.9688" rx="12.5" ry="12.5" style="stroke:#475569;stroke-width:0.5;" width="304" x="491.125" y="113.5938"/><text fill="#0F172A" font-family="sans-serif" font-size="12" lengthAdjust="spacing" textLength="284" x="501.125" y="134.7324">Read CR spec, status OCID, and delete intent</text><rect fill="#F8FAFC" height="33.9688" rx="12.5" ry="12.5" style="stroke:#475569;stroke-width:0.5;" width="460" x="413.125" y="167.5625"/><text fill="#0F172A" font-family="sans-serif" font-size="12" lengthAdjust="spacing" textLength="440" x="423.125" y="188.7012">Keep status-bound OCID authoritative for later update or delete paths</text><polygon fill="#E2E8F0" points="543.125,221.5313,743.125,221.5313,755.125,233.5313,743.125,245.5313,543.125,245.5313,531.125,233.5313,543.125,221.5313" style="stroke:#475569;stroke-width:0.5;"/><text fill="#0F172A" font-family="sans-serif" font-size="11" lengthAdjust="spacing" textLength="200" x="543.125" y="237.3394">"Tracked or explicit OCID present?"</text><text fill="#000000" font-family="sans-serif" font-size="11" lengthAdjust="spacing" textLength="20" x="511.125" y="230.937">yes</text><text fill="#000000" font-family="sans-serif" font-size="11" lengthAdjust="spacing" textLength="14" x="755.125" y="230.937">no</text><rect fill="#F8FAFC" height="33.9688" rx="12.5" ry="12.5" style="stroke:#475569;stroke-width:0.5;" width="272" x="340.625" y="255.5313"/><text fill="#0F172A" font-family="sans-serif" font-size="12" lengthAdjust="spacing" textLength="252" x="350.625" y="276.6699">Get the OCI resource by known identifier</text><rect fill="#F8FAFC" height="33.9688" rx="12.5" ry="12.5" style="stroke:#475569;stroke-width:0.5;" width="328" x="645.625" y="255.5313"/><text fill="#0F172A" font-family="sans-serif" font-size="12" lengthAdjust="spacing" textLength="308" x="655.625" y="276.6699">Resolve an existing OCI resource by display name</text><rect fill="#F8FAFC" height="33.9688" rx="12.5" ry="12.5" style="stroke:#475569;stroke-width:0.5;" width="345" x="637.125" y="309.5"/><text fill="#0F172A" font-family="sans-serif" font-size="12" lengthAdjust="spacing" textLength="325" x="647.125" y="330.6387">Continue list pagination until a match or exhaustion</text><rect fill="#F8FAFC" height="33.9688" rx="12.5" ry="12.5" style="stroke:#475569;stroke-width:0.5;" width="354" x="632.625" y="363.4688"/><text fill="#0F172A" font-family="sans-serif" font-size="12" lengthAdjust="spacing" textLength="334" x="642.625" y="384.6074">Persist the resolved or created OCID back into status</text><polygon fill="#E2E8F0" points="643.125,403.4375,655.125,415.4375,643.125,427.4375,631.125,415.4375,643.125,403.4375" style="stroke:#475569;stroke-width:0.5;"/><path d="M1254.25,827.3945 L1254.25,1215.7148 L1684.25,1215.7148 L1684.25,837.3945 L1674.25,827.3945 L1254.25,827.3945 " fill="#FEFFDD" style="stroke:#181818;stroke-width:0.5;"/><path d="M1674.25,827.3945 L1674.25,837.3945 L1684.25,837.3945 L1674.25,827.3945 " fill="#FEFFDD" style="stroke:#181818;stroke-width:0.5;"/><text fill="#000000" font-family="sans-serif" font-size="13" lengthAdjust="spacing" textLength="69" x="1260.25" y="844.4614">Archetype:</text><text fill="#000000" font-family="sans-serif" font-size="13" lengthAdjust="spacing" textLength="272" x="1260.25" y="859.5942">- resolved-drift-delete-paginated-collection</text><text fill="#000000" font-family="sans-serif" font-size="13" lengthAdjust="spacing" textLength="134" x="1260.25" y="874.7271">Retryable OCI states:</text><text fill="#000000" font-family="sans-serif" font-size="13" lengthAdjust="spacing" textLength="102" x="1260.25" y="889.8599">- PROVISIONING</text><text fill="#000000" font-family="sans-serif" font-size="13" lengthAdjust="spacing" textLength="76" x="1260.25" y="904.9927">- UPDATING</text><text fill="#000000" font-family="sans-serif" font-size="13" lengthAdjust="spacing" textLength="113" x="1260.25" y="920.1255">Active OCI states:</text><text fill="#000000" font-family="sans-serif" font-size="13" lengthAdjust="spacing" textLength="79" x="1260.25" y="935.2583">- AVAILABLE</text><text fill="#000000" font-family="sans-serif" font-size="13" lengthAdjust="spacing" textLength="111" x="1260.25" y="950.3911">Failed OCI states:</text><text fill="#000000" font-family="sans-serif" font-size="13" lengthAdjust="spacing" textLength="53" x="1260.25" y="965.5239">- FAILED</text><text fill="#000000" font-family="sans-serif" font-size="13" lengthAdjust="spacing" textLength="67" x="1260.25" y="980.6567">- DELETED</text><text fill="#000000" font-family="sans-serif" font-size="13" lengthAdjust="spacing" textLength="102" x="1260.25" y="995.7896">Update surface:</text><text fill="#000000" font-family="sans-serif" font-size="13" lengthAdjust="spacing" textLength="94" x="1260.25" y="1010.9224">- display name</text><text fill="#000000" font-family="sans-serif" font-size="13" lengthAdjust="spacing" textLength="96" x="1260.25" y="1026.0552">- freeform tags</text><text fill="#000000" font-family="sans-serif" font-size="13" lengthAdjust="spacing" textLength="88" x="1260.25" y="1041.188">- defined tags</text><text fill="#000000" font-family="sans-serif" font-size="13" lengthAdjust="spacing" textLength="144" x="1260.25" y="1056.3208">- ingress security rules</text><text fill="#000000" font-family="sans-serif" font-size="13" lengthAdjust="spacing" textLength="141" x="1260.25" y="1071.4536">- egress security rules</text><text fill="#000000" font-family="sans-serif" font-size="13" lengthAdjust="spacing" textLength="139" x="1260.25" y="1086.5864">Reject before mutate:</text><text fill="#000000" font-family="sans-serif" font-size="13" lengthAdjust="spacing" textLength="71" x="1260.25" y="1101.7192">- vcnId drift</text><text fill="#000000" font-family="sans-serif" font-size="13" lengthAdjust="spacing" textLength="105" x="1260.25" y="1116.8521">Boundary notes:</text><text fill="#000000" font-family="sans-serif" font-size="13" lengthAdjust="spacing" textLength="409" x="1260.25" y="1131.9849">- Later-page name matches must keep using the resolved OCID</text><text fill="#000000" font-family="sans-serif" font-size="13" lengthAdjust="spacing" textLength="156" x="1276.25" y="1147.1177">for later mutation paths.</text><text fill="#000000" font-family="sans-serif" font-size="13" lengthAdjust="spacing" textLength="358" x="1260.25" y="1162.2505">- Partial OCI-side application of an already-submitted full</text><text fill="#000000" font-family="sans-serif" font-size="13" lengthAdjust="spacing" textLength="314" x="1276.25" y="1177.3833">rule set remains outside the modeled guarantee.</text><text fill="#000000" font-family="sans-serif" font-size="13" lengthAdjust="spacing" textLength="166" x="1260.25" y="1192.5161">Controller-local invariants:</text><text fill="#000000" font-family="sans-serif" font-size="13" lengthAdjust="spacing" textLength="229" x="1260.25" y="1207.6489">- StatusPresentUsesStatusInvariant</text><polygon fill="#E2E8F0" points="586.125,459.4375,700.125,459.4375,712.125,471.4375,700.125,483.4375,586.125,483.4375,574.125,471.4375,586.125,459.4375" style="stroke:#475569;stroke-width:0.5;"/><text fill="#0F172A" font-family="sans-serif" font-size="11" lengthAdjust="spacing" textLength="114" x="586.125" y="475.2456">"Delete requested?"</text><text fill="#000000" font-family="sans-serif" font-size="11" lengthAdjust="spacing" textLength="20" x="554.125" y="468.8433">yes</text><text fill="#000000" font-family="sans-serif" font-size="11" lengthAdjust="spacing" textLength="14" x="712.125" y="468.8433">no</text><rect fill="none" height="220.2031" style="stroke:#000000;stroke-width:1.5;" width="611" x="11" y="493.4375"/><path d="M67,493.4375 L67,502.7344 L57,512.7344 L11,512.7344 " fill="none" style="stroke:#000000;stroke-width:1.5;"/><text fill="#000000" font-family="sans-serif" font-size="14" lengthAdjust="spacing" textLength="46" x="14" y="507.4326">Delete</text><rect fill="#F8FAFC" height="33.9688" rx="12.5" ry="12.5" style="stroke:#475569;stroke-width:0.5;" width="255" x="189" y="529.7344"/><text fill="#0F172A" font-family="sans-serif" font-size="12" lengthAdjust="spacing" textLength="235" x="199" y="550.873">Submit OCI delete for OCI Security List</text><rect fill="#F8FAFC" height="33.9688" rx="12.5" ry="12.5" style="stroke:#475569;stroke-width:0.5;" width="591" x="21" y="598.7031"/><text fill="#0F172A" font-family="sans-serif" font-size="12" lengthAdjust="spacing" textLength="571" x="31" y="619.8418">Confirm deletion with follow-up GetSecurityList calls until the resource is gone or not found.</text><rect fill="#F8FAFC" height="33.9688" rx="12.5" ry="12.5" style="stroke:#475569;stroke-width:0.5;" width="338" x="147.5" y="667.6719"/><text fill="#0F172A" font-family="sans-serif" font-size="12" lengthAdjust="spacing" textLength="318" x="157.5" y="688.8105">Remove the finalizer after OCI deletion is confirmed</text><ellipse cx="316.5" cy="759.6406" fill="none" rx="11" ry="11" style="stroke:#222222;stroke-width:1.0;"/><ellipse cx="316.5" cy="759.6406" fill="#222222" rx="6" ry="6" style="stroke:#111111;stroke-width:1.0;"/><rect fill="none" height="422.582" style="stroke:#000000;stroke-width:1.5;" width="376" x="787.75" y="493.4375"/><path d="M948.75,493.4375 L948.75,502.7344 L938.75,512.7344 L787.75,512.7344 " fill="none" style="stroke:#000000;stroke-width:1.5;"/><text fill="#000000" font-family="sans-serif" font-size="14" lengthAdjust="spacing" textLength="151" x="790.75" y="507.4326">Lifecycle Classification</text><rect fill="#F8FAFC" height="33.9688" rx="12.5" ry="12.5" style="stroke:#475569;stroke-width:0.5;" width="268" x="835.75" y="578.1367"/><text fill="#0F172A" font-family="sans-serif" font-size="12" lengthAdjust="spacing" textLength="248" x="845.75" y="599.2754">Request requeue and keep the finalizer</text><ellipse cx="969.75" cy="658.1055" fill="none" rx="11" ry="11" style="stroke:#222222;stroke-width:1.0;"/><ellipse cx="969.75" cy="658.1055" fill="#222222" rx="6" ry="6" style="stroke:#111111;stroke-width:1.0;"/><polygon fill="#E2E8F0" points="889.75,529.7344,1049.75,529.7344,1061.75,541.7344,1049.75,553.7344,889.75,553.7344,877.75,541.7344,889.75,529.7344" style="stroke:#475569;stroke-width:0.5;"/><text fill="#000000" font-family="sans-serif" font-size="11" lengthAdjust="spacing" textLength="20" x="973.75" y="563.9448">yes</text><text fill="#0F172A" font-family="sans-serif" font-size="11" lengthAdjust="spacing" textLength="160" x="889.75" y="545.5425">"OCI state in retryable set?"</text><rect fill="#F8FAFC" height="33.9688" rx="12.5" ry="12.5" style="stroke:#475569;stroke-width:0.5;" width="324" x="807.75" y="774.9102"/><text fill="#0F172A" font-family="sans-serif" font-size="12" lengthAdjust="spacing" textLength="304" x="817.75" y="796.0488">Return an unsuccessful terminal reconcile result</text><ellipse cx="969.75" cy="854.6172" fill="none" rx="11" ry="11" style="stroke:#222222;stroke-width:1.0;"/><ellipse cx="969.75" cy="854.6172" fill="#222222" rx="6" ry="6" style="stroke:#111111;stroke-width:1.0;"/><polygon fill="#E2E8F0" points="899.75,726.5078,1039.75,726.5078,1051.75,738.5078,1039.75,750.5078,899.75,750.5078,887.75,738.5078,899.75,726.5078" style="stroke:#475569;stroke-width:0.5;"/><text fill="#000000" font-family="sans-serif" font-size="11" lengthAdjust="spacing" textLength="20" x="973.75" y="760.7183">yes</text><text fill="#0F172A" font-family="sans-serif" font-size="11" lengthAdjust="spacing" textLength="140" x="899.75" y="742.3159">"OCI state in failed set?"</text><rect fill="none" height="566.9141" style="stroke:#000000;stroke-width:1.5;" width="602.25" x="642" y="951.0195"/><path d="M821,951.0195 L821,960.3164 L811,970.3164 L642,970.3164 " fill="none" style="stroke:#000000;stroke-width:1.5;"/><text fill="#000000" font-family="sans-serif" font-size="14" lengthAdjust="spacing" textLength="169" x="645" y="965.0146">Ready and Drift Handling</text><rect fill="#F8FAFC" height="33.9688" rx="12.5" ry="12.5" style="stroke:#475569;stroke-width:0.5;" width="364" x="787.75" y="987.3164"/><text fill="#0F172A" font-family="sans-serif" font-size="12" lengthAdjust="spacing" textLength="344" x="797.75" y="1008.4551">Compare live OCI state with the supported drift surface</text><rect fill="#F8FAFC" height="33.9688" rx="12.5" ry="12.5" style="stroke:#475569;stroke-width:0.5;" width="290" x="824.75" y="1104.6875"/><text fill="#0F172A" font-family="sans-serif" font-size="12" lengthAdjust="spacing" textLength="270" x="834.75" y="1125.8262">Reject the change before any OCI mutation</text><ellipse cx="969.75" cy="1184.6563" fill="none" rx="11" ry="11" style="stroke:#222222;stroke-width:1.0;"/><ellipse cx="969.75" cy="1184.6563" fill="#222222" rx="6" ry="6" style="stroke:#111111;stroke-width:1.0;"/><polygon fill="#E2E8F0" points="845.25,1056.2852,1094.25,1056.2852,1106.25,1068.2852,1094.25,1080.2852,845.25,1080.2852,833.25,1068.2852,845.25,1056.2852" style="stroke:#475569;stroke-width:0.5;"/><text fill="#000000" font-family="sans-serif" font-size="11" lengthAdjust="spacing" textLength="20" x="973.75" y="1090.4956">yes</text><text fill="#0F172A" font-family="sans-serif" font-size="11" lengthAdjust="spacing" textLength="249" x="845.25" y="1072.0933">"Unsupported or immutable drift detected?"</text><rect fill="#F8FAFC" height="33.9688" rx="12.5" ry="12.5" style="stroke:#475569;stroke-width:0.5;" width="445" x="747.25" y="1246.0586"/><text fill="#0F172A" font-family="sans-serif" font-size="12" lengthAdjust="spacing" textLength="425" x="757.25" y="1267.1973">Move the security list compartment before reconciling rules or tags.</text><rect fill="#F8FAFC" height="33.9688" rx="12.5" ry="12.5" style="stroke:#475569;stroke-width:0.5;" width="529" x="705.25" y="1300.0273"/><text fill="#0F172A" font-family="sans-serif" font-size="12" lengthAdjust="spacing" textLength="509" x="715.25" y="1321.166">Resubmit the full desired ingress and egress rule lists when semantic drift exists.</text><polygon fill="#E2E8F0" points="892.25,1353.9961,1047.25,1353.9961,1059.25,1365.9961,1047.25,1377.9961,892.25,1377.9961,880.25,1365.9961,892.25,1353.9961" style="stroke:#475569;stroke-width:0.5;"/><text fill="#0F172A" font-family="sans-serif" font-size="11" lengthAdjust="spacing" textLength="155" x="892.25" y="1369.8042">"Supported drift detected?"</text><text fill="#000000" font-family="sans-serif" font-size="11" lengthAdjust="spacing" textLength="20" x="860.25" y="1363.4019">yes</text><text fill="#000000" font-family="sans-serif" font-size="11" lengthAdjust="spacing" textLength="14" x="1059.25" y="1363.4019">no</text><rect fill="#F8FAFC" height="33.9688" rx="12.5" ry="12.5" style="stroke:#475569;stroke-width:0.5;" width="329" x="662" y="1387.9961"/><text fill="#0F172A" font-family="sans-serif" font-size="12" lengthAdjust="spacing" textLength="309" x="672" y="1409.1348">Apply only the supported in-place update surface</text><rect fill="#F8FAFC" height="33.9688" rx="12.5" ry="12.5" style="stroke:#475569;stroke-width:0.5;" width="204" x="1011" y="1387.9961"/><text fill="#0F172A" font-family="sans-serif" font-size="12" lengthAdjust="spacing" textLength="184" x="1021" y="1409.1348">Skip the no-op mutation path</text><polygon fill="#E2E8F0" points="969.75,1427.9648,981.75,1439.9648,969.75,1451.9648,957.75,1439.9648,969.75,1427.9648" style="stroke:#475569;stroke-width:0.5;"/><rect fill="#F8FAFC" height="33.9688" rx="12.5" ry="12.5" style="stroke:#475569;stroke-width:0.5;" width="287" x="826.25" y="1471.9648"/><text fill="#0F172A" font-family="sans-serif" font-size="12" lengthAdjust="spacing" textLength="267" x="836.25" y="1493.1035">Return success for the usable active state</text><line style="stroke:#334155;stroke-width:1.0;" x1="643.125" x2="643.125" y1="147.5625" y2="167.5625"/><polygon fill="#334155" points="639.125,157.5625,643.125,167.5625,647.125,157.5625,643.125,161.5625" style="stroke:#334155;stroke-width:1.0;"/><line style="stroke:#334155;stroke-width:1.0;" x1="809.625" x2="809.625" y1="289.5" y2="309.5"/><polygon fill="#334155" points="805.625,299.5,809.625,309.5,813.625,299.5,809.625,303.5" style="stroke:#334155;stroke-width:1.0;"/><line style="stroke:#334155;stroke-width:1.0;" x1="809.625" x2="809.625" y1="343.4688" y2="363.4688"/><polygon fill="#334155" points="805.625,353.4688,809.625,363.4688,813.625,353.4688,809.625,357.4688" style="stroke:#334155;stroke-width:1.0;"/><line style="stroke:#334155;stroke-width:1.0;" x1="531.125" x2="476.625" y1="233.5313" y2="233.5313"/><line style="stroke:#334155;stroke-width:1.0;" x1="476.625" x2="476.625" y1="233.5313" y2="255.5313"/><polygon fill="#334155" points="472.625,245.5313,476.625,255.5313,480.625,245.5313,476.625,249.5313" style="stroke:#334155;stroke-width:1.0;"/><line style="stroke:#334155;stroke-width:1.0;" x1="755.125" x2="809.625" y1="233.5313" y2="233.5313"/><line style="stroke:#334155;stroke-width:1.0;" x1="809.625" x2="809.625" y1="233.5313" y2="255.5313"/><polygon fill="#334155" points="805.625,245.5313,809.625,255.5313,813.625,245.5313,809.625,249.5313" style="stroke:#334155;stroke-width:1.0;"/><line style="stroke:#334155;stroke-width:1.0;" x1="476.625" x2="476.625" y1="289.5" y2="415.4375"/><line style="stroke:#334155;stroke-width:1.0;" x1="476.625" x2="631.125" y1="415.4375" y2="415.4375"/><polygon fill="#334155" points="621.125,411.4375,631.125,415.4375,621.125,419.4375,625.125,415.4375" style="stroke:#334155;stroke-width:1.0;"/><line style="stroke:#334155;stroke-width:1.0;" x1="809.625" x2="809.625" y1="397.4375" y2="415.4375"/><line style="stroke:#334155;stroke-width:1.0;" x1="809.625" x2="655.125" y1="415.4375" y2="415.4375"/><polygon fill="#334155" points="665.125,411.4375,655.125,415.4375,665.125,419.4375,661.125,415.4375" style="stroke:#334155;stroke-width:1.0;"/><line style="stroke:#334155;stroke-width:1.0;" x1="643.125" x2="643.125" y1="201.5313" y2="221.5313"/><polygon fill="#334155" points="639.125,211.5313,643.125,221.5313,647.125,211.5313,643.125,215.5313" style="stroke:#334155;stroke-width:1.0;"/><line style="stroke:#334155;stroke-width:1.0;" x1="643.125" x2="643.125" y1="67.2969" y2="113.5938"/><polygon fill="#334155" points="639.125,103.5938,643.125,113.5938,647.125,103.5938,643.125,107.5938" style="stroke:#334155;stroke-width:1.0;"/><line style="stroke:#334155;stroke-width:1.0;" x1="316.5" x2="316.5" y1="563.7031" y2="598.7031"/><polygon fill="#334155" points="312.5,588.7031,316.5,598.7031,320.5,588.7031,316.5,592.7031" style="stroke:#334155;stroke-width:1.0;"/><line style="stroke:#334155;stroke-width:1.0;" x1="316.5" x2="316.5" y1="632.6719" y2="667.6719"/><polygon fill="#334155" points="312.5,657.6719,316.5,667.6719,320.5,657.6719,316.5,661.6719" style="stroke:#334155;stroke-width:1.0;"/><line style="stroke:#334155;stroke-width:1.0;" x1="316.5" x2="316.5" y1="701.6406" y2="748.6406"/><polygon fill="#334155" points="312.5,738.6406,316.5,748.6406,320.5,738.6406,316.5,742.6406" style="stroke:#334155;stroke-width:1.0;"/><line style="stroke:#334155;stroke-width:1.0;" x1="969.75" x2="969.75" y1="612.1055" y2="647.1055"/><polygon fill="#334155" points="965.75,637.1055,969.75,647.1055,973.75,637.1055,969.75,641.1055" style="stroke:#334155;stroke-width:1.0;"/><line style="stroke:#334155;stroke-width:1.0;" x1="969.75" x2="969.75" y1="553.7344" y2="578.1367"/><polygon fill="#334155" points="965.75,568.1367,969.75,578.1367,973.75,568.1367,969.75,572.1367" style="stroke:#334155;stroke-width:1.0;"/><line style="stroke:#334155;stroke-width:1.0;" x1="1061.75" x2="1113.75" y1="541.7344" y2="541.7344"/><polygon fill="#334155" points="1109.75,610.6211,1113.75,620.6211,1117.75,610.6211,1113.75,614.6211" style="stroke:#334155;stroke-width:1.0;"/><line style="stroke:#334155;stroke-width:1.0;" x1="1113.75" x2="1113.75" y1="541.7344" y2="699.5078"/><line style="stroke:#334155;stroke-width:1.0;" x1="1113.75" x2="969.75" y1="699.5078" y2="699.5078"/><line style="stroke:#334155;stroke-width:1.0;" x1="969.75" x2="969.75" y1="699.5078" y2="726.5078"/><polygon fill="#334155" points="965.75,716.5078,969.75,726.5078,973.75,716.5078,969.75,720.5078" style="stroke:#334155;stroke-width:1.0;"/><line style="stroke:#334155;stroke-width:1.0;" x1="969.75" x2="969.75" y1="808.8789" y2="843.6172"/><polygon fill="#334155" points="965.75,833.6172,969.75,843.6172,973.75,833.6172,969.75,837.6172" style="stroke:#334155;stroke-width:1.0;"/><line style="stroke:#334155;stroke-width:1.0;" x1="969.75" x2="969.75" y1="750.5078" y2="774.9102"/><polygon fill="#334155" points="965.75,764.9102,969.75,774.9102,973.75,764.9102,969.75,768.9102" style="stroke:#334155;stroke-width:1.0;"/><line style="stroke:#334155;stroke-width:1.0;" x1="1051.75" x2="1141.75" y1="738.5078" y2="738.5078"/><polygon fill="#334155" points="1137.75,807.3945,1141.75,817.3945,1145.75,807.3945,1141.75,811.3945" style="stroke:#334155;stroke-width:1.0;"/><line style="stroke:#334155;stroke-width:1.0;" x1="1141.75" x2="1141.75" y1="738.5078" y2="896.0195"/><line style="stroke:#334155;stroke-width:1.0;" x1="1141.75" x2="969.75" y1="896.0195" y2="896.0195"/><line style="stroke:#334155;stroke-width:1.0;" x1="969.75" x2="969.75" y1="896.0195" y2="987.3164"/><polygon fill="#334155" points="965.75,977.3164,969.75,987.3164,973.75,977.3164,969.75,981.3164" style="stroke:#334155;stroke-width:1.0;"/><line style="stroke:#334155;stroke-width:1.0;" x1="969.75" x2="969.75" y1="1138.6563" y2="1173.6563"/><polygon fill="#334155" points="965.75,1163.6563,969.75,1173.6563,973.75,1163.6563,969.75,1167.6563" style="stroke:#334155;stroke-width:1.0;"/><line style="stroke:#334155;stroke-width:1.0;" x1="969.75" x2="969.75" y1="1080.2852" y2="1104.6875"/><polygon fill="#334155" points="965.75,1094.6875,969.75,1104.6875,973.75,1094.6875,969.75,1098.6875" style="stroke:#334155;stroke-width:1.0;"/><line style="stroke:#334155;stroke-width:1.0;" x1="1106.25" x2="1124.75" y1="1068.2852" y2="1068.2852"/><polygon fill="#334155" points="1120.75,1137.1719,1124.75,1147.1719,1128.75,1137.1719,1124.75,1141.1719" style="stroke:#334155;stroke-width:1.0;"/><line style="stroke:#334155;stroke-width:1.0;" x1="1124.75" x2="1124.75" y1="1068.2852" y2="1226.0586"/><line style="stroke:#334155;stroke-width:1.0;" x1="1124.75" x2="969.75" y1="1226.0586" y2="1226.0586"/><line style="stroke:#334155;stroke-width:1.0;" x1="969.75" x2="969.75" y1="1226.0586" y2="1246.0586"/><polygon fill="#334155" points="965.75,1236.0586,969.75,1246.0586,973.75,1236.0586,969.75,1240.0586" style="stroke:#334155;stroke-width:1.0;"/><line style="stroke:#334155;stroke-width:1.0;" x1="969.75" x2="969.75" y1="1021.2852" y2="1056.2852"/><polygon fill="#334155" points="965.75,1046.2852,969.75,1056.2852,973.75,1046.2852,969.75,1050.2852" style="stroke:#334155;stroke-width:1.0;"/><line style="stroke:#334155;stroke-width:1.0;" x1="969.75" x2="969.75" y1="1280.0273" y2="1300.0273"/><polygon fill="#334155" points="965.75,1290.0273,969.75,1300.0273,973.75,1290.0273,969.75,1294.0273" style="stroke:#334155;stroke-width:1.0;"/><line style="stroke:#334155;stroke-width:1.0;" x1="880.25" x2="826.5" y1="1365.9961" y2="1365.9961"/><line style="stroke:#334155;stroke-width:1.0;" x1="826.5" x2="826.5" y1="1365.9961" y2="1387.9961"/><polygon fill="#334155" points="822.5,1377.9961,826.5,1387.9961,830.5,1377.9961,826.5,1381.9961" style="stroke:#334155;stroke-width:1.0;"/><line style="stroke:#334155;stroke-width:1.0;" x1="1059.25" x2="1113" y1="1365.9961" y2="1365.9961"/><line style="stroke:#334155;stroke-width:1.0;" x1="1113" x2="1113" y1="1365.9961" y2="1387.9961"/><polygon fill="#334155" points="1109,1377.9961,1113,1387.9961,1117,1377.9961,1113,1381.9961" style="stroke:#334155;stroke-width:1.0;"/><line style="stroke:#334155;stroke-width:1.0;" x1="826.5" x2="826.5" y1="1421.9648" y2="1439.9648"/><line style="stroke:#334155;stroke-width:1.0;" x1="826.5" x2="957.75" y1="1439.9648" y2="1439.9648"/><polygon fill="#334155" points="947.75,1435.9648,957.75,1439.9648,947.75,1443.9648,951.75,1439.9648" style="stroke:#334155;stroke-width:1.0;"/><line style="stroke:#334155;stroke-width:1.0;" x1="1113" x2="1113" y1="1421.9648" y2="1439.9648"/><line style="stroke:#334155;stroke-width:1.0;" x1="1113" x2="981.75" y1="1439.9648" y2="1439.9648"/><polygon fill="#334155" points="991.75,1435.9648,981.75,1439.9648,991.75,1443.9648,987.75,1439.9648" style="stroke:#334155;stroke-width:1.0;"/><line style="stroke:#334155;stroke-width:1.0;" x1="969.75" x2="969.75" y1="1333.9961" y2="1353.9961"/><polygon fill="#334155" points="965.75,1343.9961,969.75,1353.9961,973.75,1343.9961,969.75,1347.9961" style="stroke:#334155;stroke-width:1.0;"/><line style="stroke:#334155;stroke-width:1.0;" x1="969.75" x2="969.75" y1="1451.9648" y2="1471.9648"/><polygon fill="#334155" points="965.75,1461.9648,969.75,1471.9648,973.75,1461.9648,969.75,1465.9648" style="stroke:#334155;stroke-width:1.0;"/><line style="stroke:#334155;stroke-width:1.0;" x1="574.125" x2="316.5" y1="471.4375" y2="471.4375"/><line style="stroke:#334155;stroke-width:1.0;" x1="316.5" x2="316.5" y1="471.4375" y2="529.7344"/><polygon fill="#334155" points="312.5,519.7344,316.5,529.7344,320.5,519.7344,316.5,523.7344" style="stroke:#334155;stroke-width:1.0;"/><line style="stroke:#334155;stroke-width:1.0;" x1="712.125" x2="969.75" y1="471.4375" y2="471.4375"/><line style="stroke:#334155;stroke-width:1.0;" x1="969.75" x2="969.75" y1="471.4375" y2="529.7344"/><polygon fill="#334155" points="965.75,519.7344,969.75,529.7344,973.75,519.7344,969.75,523.7344" style="stroke:#334155;stroke-width:1.0;"/><line style="stroke:#334155;stroke-width:1.0;" x1="969.75" x2="969.75" y1="1505.9336" y2="1523.9336"/><line style="stroke:#334155;stroke-width:1.0;" x1="969.75" x2="643.125" y1="1523.9336" y2="1523.9336"/><line style="stroke:#334155;stroke-width:1.0;" x1="643.125" x2="643.125" y1="427.4375" y2="459.4375"/><polygon fill="#334155" points="639.125,449.4375,643.125,459.4375,647.125,449.4375,643.125,453.4375" style="stroke:#334155;stroke-width:1.0;"/><!--SRC=[VLRRSjis47tdLs3SbsGcyiH9RAVsGuVM9TLKZJsIdNS8N4geGO35nOhQoRztTq7Aagt6CxP9xFtisGMZZWR4xN0g5g2Irt4hPZf4CGVbhD8eArNKJtXUX4TjM-bb8y9QLcwZxKhKqWJOazn8zRZoBjbgw8ppufS9_-nfbDwxJIVy-F7JsVdvdh22MYOJx-5xB8rUsGPi50RgkASZktp4luKu4k_pf9mCIU9y1Rux_NHvVdxnAvvEd8tTsVl9sUM74iz6MZRELgzSZJ-CFq_UxoaSzRY8qZ-xlBou6EFXUEVaSd8sEXiLFuf0UaM1DKGTjRFYv7OPm3-1aBOIDzfM9rpHrHna9OPp4LfGxmIQnHIeGQDth5c1WGX2suZON9F17m1jfpTOKlwiBMIAQuSDbGWNY1gJCJA25wcjyB_0zyvLA-Cwa2TTYpSdznvnW8hayBqrMkcO_RKU0eRyxUIjY6kmuiqMmbkqmWo-GAGpfX5gkUGLYELMF5gtiK9NQAPh3Pw20196lB6kCvsZkc4GC1mIZqZrqasbGslaLbZPm7Ks6s8VjKqW396rbIjj9QEQyDm8AHePrJeNiPOfaAmplGCVo8WIzZawLwiy82uTU4i4WJ1s7R2SkQrqZPqi6ATH1i_3tma2sht2PQ_JMJVt5pDOf6MJKUrRGDrvDOFFfTRQDrcLt6rqNAE5CMupIAr0y7ipdbmbZGaT3dsDZAGEOkKiTzwwY1wGAgVNVHiQXrqW_HgXDFeVP8giYI-xD2as-b0v7wZ8z0V-XkZQOh-jUvNFT0rggt2D38qC0LcWk4yz5WmbHI2OYTMORlHRkKIB0CV8niaovXdxb0VeaORW8FthJftJeuVSl-DHQuchhlfPo9Yy9POc6v9I44AT45_m3SN3LFfrYN3Z1llVu4YV0u1eshTSmSZhEehVyT7W4Ep8CdGDgXFHd_A0vPoP15HlI6thF16tOWSX-LggRawuq0Vxh8EzrqsJ8WES3Ieae3f6uAxmlr3AaTHQsXKE921R2VGjfqFEdgVhADnNV_RS2Zs_UMmLbnPvoNTUUnnf3VXa8536KQx2Cr53dXxkTJ86ym_QOsbeWjW7nXBo8tdWK45igB80ZSIvK5tbl71wpmpLuWMOFyUcR5kp5SxYdyDEQ3l0XOKZr-tQWvuSBa1Q1uywKzUwWMjtWF9Uldu9PKV4ZeEyECWq1UuetusGAPB7CviMjN6ITojEFgAiL-jOb5wj8MvRk2e6kqquuC87UIyDkiMAnmht3KA1UHNptOJkw1Z8nTtyzjjqCRtzEltw1LyVxaRbFJsMEQb3vV9REPsLDxDnCScZToYUe7GymeVHU3Q-nwU70oH9PVzMmDVQ0r6eORQG670JeD_kjMV7Ze7CBXJ0qVEEzXqhkIKSz4dPQKUEueOMgFHRnfIpdj45Iw01PvKl8UHmWnTGtb0fK1CEhXwwRxYtprVq0GN2AM5B6mFt32eF0bweGhPqDsSjLzDYaiRJBXda-I0QqdYmPvu3t6qOj97Qub2bo5ueaSPHioknIlXvXLyLS5hGxUgfuNvW7DudYDwJz1gbNEQ2hyIx_3tm423aWsclHAHZK8h_0000]--></g></svg>