<?xml version="1.0" encoding="UTF-8" standalone="no"?><svg xmlns="http://www.w3.org/2000/svg" xmlns:xlink="http://www.w3.org/1999/xlink" contentStyleType="text/css" height="1410px" preserveAspectRatio="none" style="width:1163px;height:1410px;background:#FFFFFF;" version="1.1" viewBox="0 0 1163 1410" width="1163px" zoomAndPan="magnify"><defs/><g><text fill="#000000" font-family="sans-serif" font-size="14" font-weight="bold" lengthAdjust="spacing" textLength="295" x="435.75" y="27.9951">OCI Security List Reconcile Sequence</text><rect fill="none" height="314.9375" style="stroke:#475569;stroke-width:1.5;" width="889" x="268.5" y="193.8594"/><rect fill="none" height="283.8047" style="stroke:#475569;stroke-width:1.5;" width="869" x="278.5" y="217.9922"/><rect fill="none" height="46.2656" style="stroke:#475569;stroke-width:1.5;" width="727" x="288.5" y="315.1953"/><rect fill="none" height="119.3359" style="stroke:#475569;stroke-width:1.5;" width="849" x="288.5" y="375.4609"/><rect fill="none" height="618.4688" style="stroke:#475569;stroke-width:1.5;" width="1137.5" x="10" y="522.7969"/><rect fill="none" height="104.5313" style="stroke:#475569;stroke-width:1.5;" width="849" x="288.5" y="546.9297"/><rect fill="none" height="336.9922" style="stroke:#475569;stroke-width:1.5;" width="1016" x="20" y="768.1406"/><rect fill="none" height="46.2656" style="stroke:#475569;stroke-width:1.5;" width="406.5" x="30" y="933.3359"/><rect fill="none" height="46.2656" style="stroke:#475569;stroke-width:1.5;" width="727" x="288.5" y="1051.8672"/><line style="stroke:#94A3B8;stroke-width:0.5;stroke-dasharray:5.0,5.0;" x1="76" x2="76" y1="118.5938" y2="1329.5938"/><line style="stroke:#94A3B8;stroke-width:0.5;stroke-dasharray:5.0,5.0;" x1="362.5" x2="362.5" y1="118.5938" y2="1329.5938"/><line style="stroke:#94A3B8;stroke-width:0.5;stroke-dasharray:5.0,5.0;" x1="987.5" x2="987.5" y1="118.5938" y2="1329.5938"/><line style="stroke:#94A3B8;stroke-width:0.5;stroke-dasharray:5.0,5.0;" x1="1071.5" x2="1071.5" y1="118.5938" y2="1329.5938"/><text fill="#000000" font-family="sans-serif" font-size="14" lengthAdjust="spacing" textLength="67" x="40" y="115.292">Controller</text><ellipse cx="76.5" cy="50.7969" fill="#E0F2FE" rx="8" ry="8" style="stroke:#0F766E;stroke-width:0.5;"/><path d="M76.5,58.7969 L76.5,85.7969 M63.5,66.7969 L89.5,66.7969 M76.5,85.7969 L63.5,100.7969 M76.5,85.7969 L89.5,100.7969 " fill="none" style="stroke:#0F766E;stroke-width:0.5;"/><text fill="#000000" font-family="sans-serif" font-size="14" lengthAdjust="spacing" textLength="67" x="40" y="1341.5889">Controller</text><ellipse cx="76.5" cy="1353.3906" fill="#E0F2FE" rx="8" ry="8" style="stroke:#0F766E;stroke-width:0.5;"/><path d="M76.5,1361.3906 L76.5,1388.3906 M63.5,1369.3906 L89.5,1369.3906 M76.5,1388.3906 L63.5,1403.3906 M76.5,1388.3906 L89.5,1403.3906 " fill="none" style="stroke:#0F766E;stroke-width:0.5;"/><rect fill="#F8FAFC" height="30.2969" rx="2.5" ry="2.5" style="stroke:#475569;stroke-width:0.5;" width="128" x="298.5" y="87.2969"/><text fill="#000000" font-family="sans-serif" font-size="14" lengthAdjust="spacing" textLength="114" x="305.5" y="107.292">Service Manager</text><rect fill="#F8FAFC" height="30.2969" rx="2.5" ry="2.5" style="stroke:#475569;stroke-width:0.5;" width="128" x="298.5" y="1328.5938"/><text fill="#000000" font-family="sans-serif" font-size="14" lengthAdjust="spacing" textLength="114" x="305.5" y="1348.5889">Service Manager</text><text fill="#000000" font-family="sans-serif" font-size="14" lengthAdjust="spacing" textLength="24" x="972.5" y="115.292">OCI</text><path d="M969.5,66.2969 C969.5,56.2969 987.5,56.2969 987.5,56.2969 C987.5,56.2969 1005.5,56.2969 1005.5,66.2969 L1005.5,92.2969 C1005.5,102.2969 987.5,102.2969 987.5,102.2969 C987.5,102.2969 969.5,102.2969 969.5,92.2969 L969.5,66.2969 " fill="#E2E2F0" style="stroke:#181818;stroke-width:1.5;"/><path d="M969.5,66.2969 C969.5,76.2969 987.5,76.2969 987.5,76.2969 C987.5,76.2969 1005.5,76.2969 1005.5,66.2969 " fill="none" style="stroke:#181818;stroke-width:1.5;"/><text fill="#000000" font-family="sans-serif" font-size="14" lengthAdjust="spacing" textLength="24" x="972.5" y="1341.5889">OCI</text><path d="M969.5,1354.8906 C969.5,1344.8906 987.5,1344.8906 987.5,1344.8906 C987.5,1344.8906 1005.5,1344.8906 1005.5,1354.8906 L1005.5,1380.8906 C1005.5,1390.8906 987.5,1390.8906 987.5,1390.8906 C987.5,1390.8906 969.5,1390.8906 969.5,1380.8906 L969.5,1354.8906 " fill="#E2E2F0" style="stroke:#181818;stroke-width:1.5;"/><path d="M969.5,1354.8906 C969.5,1364.8906 987.5,1364.8906 987.5,1364.8906 C987.5,1364.8906 1005.5,1364.8906 1005.5,1354.8906 " fill="none" style="stroke:#181818;stroke-width:1.5;"/><text fill="#000000" font-family="sans-serif" font-size="14" lengthAdjust="spacing" textLength="106" x="1015.5" y="115.292">Kubernetes API</text><path d="M1053.5,66.2969 C1053.5,56.2969 1071.5,56.2969 1071.5,56.2969 C1071.5,56.2969 1089.5,56.2969 1089.5,66.2969 L1089.5,92.2969 C1089.5,102.2969 1071.5,102.2969 1071.5,102.2969 C1071.5,102.2969 1053.5,102.2969 1053.5,92.2969 L1053.5,66.2969 " fill="#E2E2F0" style="stroke:#181818;stroke-width:1.5;"/><path d="M1053.5,66.2969 C1053.5,76.2969 1071.5,76.2969 1071.5,76.2969 C1071.5,76.2969 1089.5,76.2969 1089.5,66.2969 " fill="none" style="stroke:#181818;stroke-width:1.5;"/><text fill="#000000" font-family="sans-serif" font-size="14" lengthAdjust="spacing" textLength="106" x="1015.5" y="1341.5889">Kubernetes API</text><path d="M1053.5,1354.8906 C1053.5,1344.8906 1071.5,1344.8906 1071.5,1344.8906 C1071.5,1344.8906 1089.5,1344.8906 1089.5,1354.8906 L1089.5,1380.8906 C1089.5,1390.8906 1071.5,1390.8906 1071.5,1390.8906 C1071.5,1390.8906 1053.5,1390.8906 1053.5,1380.8906 L1053.5,1354.8906 " fill="#E2E2F0" style="stroke:#181818;stroke-width:1.5;"/><path d="M1053.5,1354.8906 C1053.5,1364.8906 1071.5,1364.8906 1071.5,1364.8906 C1071.5,1364.8906 1089.5,1364.8906 1089.5,1354.8906 " fill="none" style="stroke:#181818;stroke-width:1.5;"/><polygon fill="#334155" points="350.5,145.7266,360.5,149.7266,350.5,153.7266,354.5,149.7266" style="stroke:#334155;stroke-width:1.0;"/><line style="stroke:#334155;stroke-width:1.0;" x1="76.5" x2="356.5" y1="149.7266" y2="149.7266"/><text fill="#000000" font-family="sans-serif" font-size="13" font-weight="bold" lengthAdjust="spacing" textLength="9" x="83.5" y="144.6606">1</text><text fill="#000000" font-family="sans-serif" font-size="13" lengthAdjust="spacing" textLength="239" x="96.5" y="144.6606">reconcile desired spec and live status</text><polygon fill="#334155" points="1059.5,174.8594,1069.5,178.8594,1059.5,182.8594,1063.5,178.8594" style="stroke:#334155;stroke-width:1.0;"/><line style="stroke:#334155;stroke-width:1.0;" x1="362.5" x2="1065.5" y1="178.8594" y2="178.8594"/><text fill="#000000" font-family="sans-serif" font-size="13" font-weight="bold" lengthAdjust="spacing" textLength="9" x="369.5" y="173.7935">2</text><text fill="#000000" font-family="sans-serif" font-size="13" lengthAdjust="spacing" textLength="212" x="382.5" y="173.7935">read CR status and finalizer state</text><path d="M268.5,193.8594 L438.5,193.8594 L438.5,200.9922 L428.5,210.9922 L268.5,210.9922 L268.5,193.8594 " fill="#F8FAFC" style="stroke:#475569;stroke-width:1.5;"/><rect fill="none" height="314.9375" style="stroke:#475569;stroke-width:1.5;" width="889" x="268.5" y="193.8594"/><text fill="#000000" font-family="sans-serif" font-size="13" font-weight="bold" lengthAdjust="spacing" textLength="125" x="283.5" y="206.9263">Lookup and bind</text><path d="M278.5,217.9922 L342.5,217.9922 L342.5,225.125 L332.5,235.125 L278.5,235.125 L278.5,217.9922 " fill="#F8FAFC" style="stroke:#475569;stroke-width:1.5;"/><rect fill="none" height="283.8047" style="stroke:#475569;stroke-width:1.5;" width="869" x="278.5" y="217.9922"/><text fill="#000000" font-family="sans-serif" font-size="13" font-weight="bold" lengthAdjust="spacing" textLength="19" x="293.5" y="231.0591">alt</text><text fill="#000000" font-family="sans-serif" font-size="11" font-weight="bold" lengthAdjust="spacing" textLength="256" x="357.5" y="230.2026">[tracked or explicit OCID already exists]</text><polygon fill="#334155" points="975.5,252.2578,985.5,256.2578,975.5,260.2578,979.5,256.2578" style="stroke:#334155;stroke-width:1.0;"/><line style="stroke:#334155;stroke-width:1.0;" x1="362.5" x2="981.5" y1="256.2578" y2="256.2578"/><text fill="#000000" font-family="sans-serif" font-size="13" font-weight="bold" lengthAdjust="spacing" textLength="9" x="369.5" y="251.1919">3</text><text fill="#000000" font-family="sans-serif" font-size="13" lengthAdjust="spacing" textLength="278" x="382.5" y="251.1919">get the current resource by known identifier</text><line style="stroke:#475569;stroke-width:1.0;stroke-dasharray:2.0,2.0;" x1="278.5" x2="1147.5" y1="265.2578" y2="265.2578"/><text fill="#000000" font-family="sans-serif" font-size="11" font-weight="bold" lengthAdjust="spacing" textLength="145" x="283.5" y="275.4683">[no OCID is bound yet]</text><polygon fill="#334155" points="975.5,296.1953,985.5,300.1953,975.5,304.1953,979.5,300.1953" style="stroke:#334155;stroke-width:1.0;"/><line style="stroke:#334155;stroke-width:1.0;" x1="362.5" x2="981.5" y1="300.1953" y2="300.1953"/><text fill="#000000" font-family="sans-serif" font-size="13" font-weight="bold" lengthAdjust="spacing" textLength="9" x="369.5" y="295.1294">4</text><text fill="#000000" font-family="sans-serif" font-size="13" lengthAdjust="spacing" textLength="193" x="382.5" y="295.1294">list resources by display name</text><path d="M288.5,315.1953 L365.5,315.1953 L365.5,322.3281 L355.5,332.3281 L288.5,332.3281 L288.5,315.1953 " fill="#F8FAFC" style="stroke:#475569;stroke-width:1.5;"/><rect fill="none" height="46.2656" style="stroke:#475569;stroke-width:1.5;" width="727" x="288.5" y="315.1953"/><text fill="#000000" font-family="sans-serif" font-size="13" font-weight="bold" lengthAdjust="spacing" textLength="32" x="303.5" y="328.2622">loop</text><text fill="#000000" font-family="sans-serif" font-size="11" font-weight="bold" lengthAdjust="spacing" textLength="263" x="380.5" y="327.4058">[later pages until a match or exhaustion]</text><polygon fill="#334155" points="975.5,349.4609,985.5,353.4609,975.5,357.4609,979.5,353.4609" style="stroke:#334155;stroke-width:1.0;"/><line style="stroke:#334155;stroke-width:1.0;" x1="362.5" x2="981.5" y1="353.4609" y2="353.4609"/><text fill="#000000" font-family="sans-serif" font-size="13" font-weight="bold" lengthAdjust="spacing" textLength="9" x="369.5" y="348.395">5</text><text fill="#000000" font-family="sans-serif" font-size="13" lengthAdjust="spacing" textLength="147" x="382.5" y="348.395">fetch the next list page</text><path d="M288.5,375.4609 L352.5,375.4609 L352.5,382.5938 L342.5,392.5938 L288.5,392.5938 L288.5,375.4609 " fill="#F8FAFC" style="stroke:#475569;stroke-width:1.5;"/><rect fill="none" height="119.3359" style="stroke:#475569;stroke-width:1.5;" width="849" x="288.5" y="375.4609"/><text fill="#000000" font-family="sans-serif" font-size="13" font-weight="bold" lengthAdjust="spacing" textLength="19" x="303.5" y="388.5278">alt</text><text fill="#000000" font-family="sans-serif" font-size="11" font-weight="bold" lengthAdjust="spacing" textLength="162" x="367.5" y="387.6714">[existing resource found]</text><polygon fill="#334155" points="1059.5,409.7266,1069.5,413.7266,1059.5,417.7266,1063.5,413.7266" style="stroke:#334155;stroke-width:1.0;"/><line style="stroke:#334155;stroke-width:1.0;" x1="362.5" x2="1065.5" y1="413.7266" y2="413.7266"/><text fill="#000000" font-family="sans-serif" font-size="13" font-weight="bold" lengthAdjust="spacing" textLength="9" x="369.5" y="408.6606">6</text><text fill="#000000" font-family="sans-serif" font-size="13" lengthAdjust="spacing" textLength="221" x="382.5" y="408.6606">persist the resolved OCID in status</text><line style="stroke:#475569;stroke-width:1.0;stroke-dasharray:2.0,2.0;" x1="288.5" x2="1137.5" y1="422.7266" y2="422.7266"/><text fill="#000000" font-family="sans-serif" font-size="11" font-weight="bold" lengthAdjust="spacing" textLength="182" x="293.5" y="432.937">[no existing resource found]</text><polygon fill="#334155" points="975.5,453.6641,985.5,457.6641,975.5,461.6641,979.5,457.6641" style="stroke:#334155;stroke-width:1.0;"/><line style="stroke:#334155;stroke-width:1.0;" x1="362.5" x2="981.5" y1="457.6641" y2="457.6641"/><text fill="#000000" font-family="sans-serif" font-size="13" font-weight="bold" lengthAdjust="spacing" textLength="9" x="369.5" y="452.5981">7</text><text fill="#000000" font-family="sans-serif" font-size="13" lengthAdjust="spacing" textLength="152" x="382.5" y="452.5981">create the OCI resource</text><polygon fill="#334155" points="1059.5,482.7969,1069.5,486.7969,1059.5,490.7969,1063.5,486.7969" style="stroke:#334155;stroke-width:1.0;"/><line style="stroke:#334155;stroke-width:1.0;" x1="362.5" x2="1065.5" y1="486.7969" y2="486.7969"/><text fill="#000000" font-family="sans-serif" font-size="13" font-weight="bold" lengthAdjust="spacing" textLength="9" x="369.5" y="481.731">8</text><text fill="#000000" font-family="sans-serif" font-size="13" lengthAdjust="spacing" textLength="216" x="382.5" y="481.731">persist the created OCID in status</text><path d="M10,522.7969 L74,522.7969 L74,529.9297 L64,539.9297 L10,539.9297 L10,522.7969 " fill="#F8FAFC" style="stroke:#475569;stroke-width:1.5;"/><rect fill="none" height="618.4688" style="stroke:#475569;stroke-width:1.5;" width="1137.5" x="10" y="522.7969"/><text fill="#000000" font-family="sans-serif" font-size="13" font-weight="bold" lengthAdjust="spacing" textLength="19" x="25" y="535.8638">alt</text><text fill="#000000" font-family="sans-serif" font-size="11" font-weight="bold" lengthAdjust="spacing" textLength="120" x="89" y="535.0073">[delete requested]</text><path d="M288.5,546.9297 L381.5,546.9297 L381.5,554.0625 L371.5,564.0625 L288.5,564.0625 L288.5,546.9297 " fill="#F8FAFC" style="stroke:#475569;stroke-width:1.5;"/><rect fill="none" height="104.5313" style="stroke:#475569;stroke-width:1.5;" width="849" x="288.5" y="546.9297"/><text fill="#000000" font-family="sans-serif" font-size="13" font-weight="bold" lengthAdjust="spacing" textLength="48" x="303.5" y="559.9966">Delete</text><polygon fill="#334155" points="975.5,581.1953,985.5,585.1953,975.5,589.1953,979.5,585.1953" style="stroke:#334155;stroke-width:1.0;"/><line style="stroke:#334155;stroke-width:1.0;" x1="362.5" x2="981.5" y1="585.1953" y2="585.1953"/><text fill="#000000" font-family="sans-serif" font-size="13" font-weight="bold" lengthAdjust="spacing" textLength="9" x="369.5" y="580.1294">9</text><text fill="#000000" font-family="sans-serif" font-size="13" lengthAdjust="spacing" textLength="114" x="382.5" y="580.1294">submit OCI delete</text><polygon fill="#334155" points="975.5,610.3281,985.5,614.3281,975.5,618.3281,979.5,614.3281" style="stroke:#334155;stroke-width:1.0;"/><line style="stroke:#334155;stroke-width:1.0;" x1="362.5" x2="981.5" y1="614.3281" y2="614.3281"/><text fill="#000000" font-family="sans-serif" font-size="13" font-weight="bold" lengthAdjust="spacing" textLength="18" x="369.5" y="609.2622">10</text><text fill="#000000" font-family="sans-serif" font-size="13" lengthAdjust="spacing" textLength="579" x="391.5" y="609.2622">Confirm deletion with follow-up GetSecurityList calls until the resource is gone or not found.</text><polygon fill="#334155" points="1059.5,639.4609,1069.5,643.4609,1059.5,647.4609,1063.5,643.4609" style="stroke:#334155;stroke-width:1.0;"/><line style="stroke:#334155;stroke-width:1.0;" x1="362.5" x2="1065.5" y1="643.4609" y2="643.4609"/><text fill="#000000" font-family="sans-serif" font-size="13" font-weight="bold" lengthAdjust="spacing" textLength="18" x="369.5" y="638.395">11</text><text fill="#000000" font-family="sans-serif" font-size="13" lengthAdjust="spacing" textLength="289" x="391.5" y="638.395">remove the finalizer after delete confirmation</text><line style="stroke:#475569;stroke-width:1.0;stroke-dasharray:2.0,2.0;" x1="10" x2="1147.5" y1="659.4609" y2="659.4609"/><text fill="#000000" font-family="sans-serif" font-size="11" font-weight="bold" lengthAdjust="spacing" textLength="147" x="15" y="669.6714">[OCI state is retryable]</text><polygon fill="#334155" points="87.5,690.3984,77.5,694.3984,87.5,698.3984,83.5,694.3984" style="stroke:#334155;stroke-width:1.0;"/><line style="stroke:#334155;stroke-width:1.0;stroke-dasharray:2.0,2.0;" x1="81.5" x2="361.5" y1="694.3984" y2="694.3984"/><text fill="#000000" font-family="sans-serif" font-size="13" font-weight="bold" lengthAdjust="spacing" textLength="18" x="93.5" y="689.3325">12</text><text fill="#000000" font-family="sans-serif" font-size="13" lengthAdjust="spacing" textLength="110" x="115.5" y="689.3325">requeue required</text><line style="stroke:#475569;stroke-width:1.0;stroke-dasharray:2.0,2.0;" x1="10" x2="1147.5" y1="703.3984" y2="703.3984"/><text fill="#000000" font-family="sans-serif" font-size="11" font-weight="bold" lengthAdjust="spacing" textLength="200" x="15" y="713.6089">[OCI state is failed or terminal]</text><polygon fill="#334155" points="87.5,734.3359,77.5,738.3359,87.5,742.3359,83.5,738.3359" style="stroke:#334155;stroke-width:1.0;"/><line style="stroke:#334155;stroke-width:1.0;stroke-dasharray:2.0,2.0;" x1="81.5" x2="361.5" y1="738.3359" y2="738.3359"/><text fill="#000000" font-family="sans-serif" font-size="13" font-weight="bold" lengthAdjust="spacing" textLength="18" x="93.5" y="733.27">13</text><text fill="#000000" font-family="sans-serif" font-size="13" lengthAdjust="spacing" textLength="240" x="115.5" y="733.27">unsuccessful terminal reconcile result</text><line style="stroke:#475569;stroke-width:1.0;stroke-dasharray:2.0,2.0;" x1="10" x2="1147.5" y1="747.3359" y2="747.3359"/><text fill="#000000" font-family="sans-serif" font-size="11" font-weight="bold" lengthAdjust="spacing" textLength="203" x="15" y="757.5464">[OCI state is active and usable]</text><path d="M20,768.1406 L167,768.1406 L167,775.2734 L157,785.2734 L20,785.2734 L20,768.1406 " fill="#F8FAFC" style="stroke:#475569;stroke-width:1.5;"/><rect fill="none" height="336.9922" style="stroke:#475569;stroke-width:1.5;" width="1016" x="20" y="768.1406"/><text fill="#000000" font-family="sans-serif" font-size="13" font-weight="bold" lengthAdjust="spacing" textLength="102" x="35" y="781.2075">Drift handling</text><path d="M324,790.2734 L324,921.2734 L1026,921.2734 L1026,800.2734 L1016,790.2734 L324,790.2734 " fill="#FEFFDD" style="stroke:#181818;stroke-width:0.5;"/><path d="M1016,790.2734 L1016,800.2734 L1026,800.2734 L1016,790.2734 " fill="#FEFFDD" style="stroke:#181818;stroke-width:0.5;"/><text fill="#000000" font-family="sans-serif" font-size="13" lengthAdjust="spacing" textLength="171" x="330" y="807.3403">Supported update surface:</text><text fill="#000000" font-family="sans-serif" font-size="13" lengthAdjust="spacing" textLength="94" x="330" y="822.4731">- display name</text><text fill="#000000" font-family="sans-serif" font-size="13" lengthAdjust="spacing" textLength="96" x="330" y="837.606">- freeform tags</text><text fill="#000000" font-family="sans-serif" font-size="13" lengthAdjust="spacing" textLength="88" x="330" y="852.7388">- defined tags</text><text fill="#000000" font-family="sans-serif" font-size="13" lengthAdjust="spacing" textLength="144" x="330" y="867.8716">- ingress security rules</text><text fill="#000000" font-family="sans-serif" font-size="13" lengthAdjust="spacing" textLength="141" x="330" y="883.0044">- egress security rules</text><text fill="#000000" font-family="sans-serif" font-size="13" lengthAdjust="spacing" textLength="139" x="330" y="898.1372">Reject before mutate:</text><text fill="#000000" font-family="sans-serif" font-size="13" lengthAdjust="spacing" textLength="71" x="330" y="913.27">- vcnId drift</text><path d="M30,933.3359 L100,933.3359 L100,940.4688 L90,950.4688 L30,950.4688 L30,933.3359 " fill="#F8FAFC" style="stroke:#475569;stroke-width:1.5;"/><rect fill="none" height="46.2656" style="stroke:#475569;stroke-width:1.5;" width="406.5" x="30" y="933.3359"/><text fill="#000000" font-family="sans-serif" font-size="13" font-weight="bold" lengthAdjust="spacing" textLength="25" x="45" y="946.4028">opt</text><text fill="#000000" font-family="sans-serif" font-size="11" font-weight="bold" lengthAdjust="spacing" textLength="286" x="115" y="945.5464">[unsupported or immutable drift is detected]</text><polygon fill="#334155" points="87.5,967.6016,77.5,971.6016,87.5,975.6016,83.5,971.6016" style="stroke:#334155;stroke-width:1.0;"/><line style="stroke:#334155;stroke-width:1.0;stroke-dasharray:2.0,2.0;" x1="81.5" x2="361.5" y1="971.6016" y2="971.6016"/><text fill="#000000" font-family="sans-serif" font-size="13" font-weight="bold" lengthAdjust="spacing" textLength="18" x="93.5" y="966.5356">14</text><text fill="#000000" font-family="sans-serif" font-size="13" lengthAdjust="spacing" textLength="169" x="115.5" y="966.5356">reject before OCI mutation</text><polygon fill="#334155" points="975.5,1003.7344,985.5,1007.7344,975.5,1011.7344,979.5,1007.7344" style="stroke:#334155;stroke-width:1.0;"/><line style="stroke:#334155;stroke-width:1.0;" x1="362.5" x2="981.5" y1="1007.7344" y2="1007.7344"/><text fill="#000000" font-family="sans-serif" font-size="13" font-weight="bold" lengthAdjust="spacing" textLength="18" x="369.5" y="1002.6685">15</text><text fill="#000000" font-family="sans-serif" font-size="13" lengthAdjust="spacing" textLength="432" x="391.5" y="1002.6685">Move the security list compartment before reconciling rules or tags.</text><polygon fill="#334155" points="975.5,1032.8672,985.5,1036.8672,975.5,1040.8672,979.5,1036.8672" style="stroke:#334155;stroke-width:1.0;"/><line style="stroke:#334155;stroke-width:1.0;" x1="362.5" x2="981.5" y1="1036.8672" y2="1036.8672"/><text fill="#000000" font-family="sans-serif" font-size="13" font-weight="bold" lengthAdjust="spacing" textLength="18" x="369.5" y="1031.8013">16</text><text fill="#000000" font-family="sans-serif" font-size="13" lengthAdjust="spacing" textLength="514" x="391.5" y="1031.8013">Resubmit the full desired ingress and egress rule lists when semantic drift exists.</text><path d="M288.5,1051.8672 L358.5,1051.8672 L358.5,1059 L348.5,1069 L288.5,1069 L288.5,1051.8672 " fill="#F8FAFC" style="stroke:#475569;stroke-width:1.5;"/><rect fill="none" height="46.2656" style="stroke:#475569;stroke-width:1.5;" width="727" x="288.5" y="1051.8672"/><text fill="#000000" font-family="sans-serif" font-size="13" font-weight="bold" lengthAdjust="spacing" textLength="25" x="303.5" y="1064.9341">opt</text><text fill="#000000" font-family="sans-serif" font-size="11" font-weight="bold" lengthAdjust="spacing" textLength="258" x="373.5" y="1064.0776">[supported drift or collection diff exists]</text><polygon fill="#334155" points="975.5,1086.1328,985.5,1090.1328,975.5,1094.1328,979.5,1090.1328" style="stroke:#334155;stroke-width:1.0;"/><line style="stroke:#334155;stroke-width:1.0;" x1="362.5" x2="981.5" y1="1090.1328" y2="1090.1328"/><text fill="#000000" font-family="sans-serif" font-size="13" font-weight="bold" lengthAdjust="spacing" textLength="18" x="369.5" y="1085.0669">17</text><text fill="#000000" font-family="sans-serif" font-size="13" lengthAdjust="spacing" textLength="277" x="391.5" y="1085.0669">apply the supported in-place mutation path</text><polygon fill="#334155" points="87.5,1129.2656,77.5,1133.2656,87.5,1137.2656,83.5,1133.2656" style="stroke:#334155;stroke-width:1.0;"/><line style="stroke:#334155;stroke-width:1.0;stroke-dasharray:2.0,2.0;" x1="81.5" x2="361.5" y1="1133.2656" y2="1133.2656"/><text fill="#000000" font-family="sans-serif" font-size="13" font-weight="bold" lengthAdjust="spacing" textLength="18" x="93.5" y="1128.1997">18</text><text fill="#000000" font-family="sans-serif" font-size="13" lengthAdjust="spacing" textLength="169" x="115.5" y="1128.1997">successful active reconcile</text><path d="M51,1153.2656 L51,1314.2656 L1011,1314.2656 L1011,1163.2656 L1001,1153.2656 L51,1153.2656 " fill="#FEFFDD" style="stroke:#181818;stroke-width:0.5;"/><path d="M1001,1153.2656 L1001,1163.2656 L1011,1163.2656 L1001,1153.2656 " fill="#FEFFDD" style="stroke:#181818;stroke-width:0.5;"/><text fill="#000000" font-family="sans-serif" font-size="13" lengthAdjust="spacing" textLength="105" x="57" y="1170.3325">Boundary notes:</text><text fill="#000000" font-family="sans-serif" font-size="13" lengthAdjust="spacing" textLength="463" x="57" y="1185.4653">- Later-page name matches must keep using the resolved OCID for later</text><text fill="#000000" font-family="sans-serif" font-size="13" lengthAdjust="spacing" textLength="102" x="73" y="1200.5981">mutation paths.</text><text fill="#000000" font-family="sans-serif" font-size="13" lengthAdjust="spacing" textLength="410" x="57" y="1215.731">- Partial OCI-side application of an already-submitted full rule set</text><text fill="#000000" font-family="sans-serif" font-size="13" lengthAdjust="spacing" textLength="262" x="73" y="1230.8638">remains outside the modeled guarantee.</text><text fill="#000000" font-family="sans-serif" font-size="13" lengthAdjust="spacing" textLength="108" x="57" y="1245.9966">Sequence notes:</text><text fill="#000000" font-family="sans-serif" font-size="13" lengthAdjust="spacing" textLength="401" x="57" y="1261.1294">- Matching ingress and egress rule lists must skip no-op writes.</text><text fill="#000000" font-family="sans-serif" font-size="13" lengthAdjust="spacing" textLength="374" x="57" y="1276.2622">- Differing lists converge only after whole-list resubmission.</text><text fill="#000000" font-family="sans-serif" font-size="13" lengthAdjust="spacing" textLength="166" x="57" y="1291.395">Controller-local invariants:</text><text fill="#000000" font-family="sans-serif" font-size="13" lengthAdjust="spacing" textLength="229" x="57" y="1306.5278">- StatusPresentUsesStatusInvariant</text><!--SRC=[bLRRRXit47tVhnYuhrqZhIzn_510lYWmOhU6tNu0jJihiUQIMrwag47_lJCazsBBKbe3iH7E_SoPcVNIAuJVhk_W6QjWfT_2lNGUdh0okf8aUyQ_0keA2n6yqQ5Te2tSYzITiA85jnArsKYzX4OeXnF9bQXUbjO4NLyRPIpyC8y_4usPjMQJXISdfp-TdKs4DJOYAFyxVlKp9PUwHUr1OUEdmNDgyAq0U1JMoqfsGllTq1VpsVpwZPAnDTgiSFhnxEpy4odSomRlfSPNqa-divEhYwbqJsq0d-crUzzr4krDRLPvOtV4jn_cFyzl1_7KyOVvn_Fps-AVGh08ZgwDzjOeXVO8X8FnlqKtLWr7psZNaZ1x45eiisv-oqz5BRnO28TmHCI82lHtyleb40aqUdGmUqmANovSKOmXeVpbZTDBi0EbQdJIOWskmmg4ha79DOBpmWTNl3PZH-IRhKKDrqzPArerKWib_oObViIYOEGwk3VcXVwmnaBgch0JoeEt12t59AJmQwS83izLtP2GNM_fbNZlI1jWDmNIl8GbafiL0is9PJPQT2POWdAnXHTjDXfaJU-oaOGX0D8yW3OfYdImuBR25lsX68g7htVis7CjNQV45hHeCLegOpfGLB25ZcmT18gfG40hVBLA1Qv4S5uQ7Gts1ckG3RWaJMEMOhFBQ8KHkWHUn8Q7V2YvuMBsUeyTwz0wziZ-sKwj2Vu4XkwR7GDbdFvla5X2HStp66Fm4kjD_tjcoS7xYSNW_9l_5Gn4ZOfeJs5eyJWo8taYtKqK7Egi2uisSIvxEQHCazH8soPDwYDif5yH7agPJKdXFgFlztLSrvLGgYT2ZtU4a7YtD1gP5ThuXEXnSG0RYwrP9q37-H8DioqNNwNSHEPNn8TRo9N5GUIW5htTYeNYAjz6eb3ZfhXCO8O4Ag-5TxmrWjP6d5tAe-MqlkysQ1SgcY7N13MOJPOGGKJtvPrWj4vv7V7-22wNa9jiPUDXHH95F8qe_ch8Y02pRzBvaJTc9c7eEcEPOw6hEOOBjX4LNcPvkJlY_DXOnCOG1xnOkb4LgIlawjKZ9KFLEBg7-OJRe70Kum7f4_w9bOS5Xq9e0uCm9hQkz5qDDPVTJmJJA2LfEXz1xgkZxiYMFInunKUe2CsQA5EbINcFTJjScAR3ROafzPkitqbxfkQXP-vGQbnfbMdv0iOlYEovfq5SDmn7v1PXUdp8_nFc8OxJ4PGQBbdV0IPDXflTnlWEDYkanO8jtLzPPMZIkJaUa1nnJ7BAfs9GgZZ-jMoQwONQcwBeEhLD60mEfIw9NXKEMDAIzwitA-wxhPbCKvwGOPRIVXn7OJJBOt35QqVORIIFOtwLSCyNhEHp4tcVhXSregNB1I-87KqVjsVtV507q_tBKBmgAq9QfWyzcdSoA1sTvGYCh9AUQQXH_U4lKqyPgDZIs3UNhpJmFXHI4p-2ZtuudTRmAgnX6UWpL7l4umXV_XYTrFZ0DN4HX_aHIwRFseviIphk6-8kva9kgFDesKVI9SW9OWBDQ6fqMioRbL5OzfyEN8vpL2Sx65jHAaDNWZ9P2oifwvpYSxntZsH7u_67GvSUxdgrOfZvVm40]--></g></svg>