<?xml version="1.0" encoding="UTF-8" standalone="no"?><svg xmlns="http://www.w3.org/2000/svg" xmlns:xlink="http://www.w3.org/1999/xlink" contentStyleType="text/css" height="525px" preserveAspectRatio="none" style="width:2457px;height:525px;background:#FFFFFF;" version="1.1" viewBox="0 0 2457 525" width="2457px" zoomAndPan="magnify"><defs/><g><text fill="#000000" font-family="sans-serif" font-size="14" font-weight="bold" lengthAdjust="spacing" textLength="327" x="1058.445" y="22.9951">OCI Security List Reconcile State Machine</text><ellipse cx="16" cy="188.2969" fill="#222222" rx="10" ry="10" style="stroke:none;stroke-width:1.0;"/><g id="Observe"><rect fill="#F8FAFC" height="50.2656" rx="6" ry="6" style="stroke:#475569;stroke-width:0.5;" width="329" x="86" y="163.2969"/><line style="stroke:#475569;stroke-width:0.5;" x1="86" x2="415" y1="189.5938" y2="189.5938"/><text fill="#0F172A" font-family="sans-serif" font-size="14" lengthAdjust="spacing" textLength="58" x="221.5" y="181.292">Observe</text><text fill="#0F172A" font-family="sans-serif" font-size="12" lengthAdjust="spacing" textLength="309" x="91" y="205.7324">read spec, status, delete intent, and OCI lifecycle</text></g><rect fill="#F8FAFC" height="40" rx="6" ry="6" style="stroke:#475569;stroke-width:0.5;" width="122" x="475" y="168.2969"/><text fill="#0F172A" font-family="sans-serif" font-size="14" lengthAdjust="spacing" textLength="112" x="480" y="193.1436">ResolveByName</text><rect fill="#F8FAFC" height="40" rx="6" ry="6" style="stroke:#475569;stroke-width:0.5;" width="130" x="657" y="168.2969"/><text fill="#0F172A" font-family="sans-serif" font-size="14" lengthAdjust="spacing" textLength="120" x="662" y="193.1436">PaginatedLookup</text><rect fill="#F8FAFC" height="40" rx="6" ry="6" style="stroke:#475569;stroke-width:0.5;" width="111" x="862" y="241.2969"/><text fill="#0F172A" font-family="sans-serif" font-size="14" lengthAdjust="spacing" textLength="101" x="867" y="266.1436">EvaluateReady</text><rect fill="#F8FAFC" height="40" rx="6" ry="6" style="stroke:#475569;stroke-width:0.5;" width="75" x="1299" y="88.2969"/><text fill="#0F172A" font-family="sans-serif" font-size="14" lengthAdjust="spacing" textLength="65" x="1304" y="113.1436">Retryable</text><rect fill="#F8FAFC" height="40" rx="6" ry="6" style="stroke:#475569;stroke-width:0.5;" width="50" x="1484.5" y="177.2969"/><text fill="#0F172A" font-family="sans-serif" font-size="14" lengthAdjust="spacing" textLength="40" x="1489.5" y="202.1436">Failed</text><rect fill="#F8FAFC" height="40" rx="6" ry="6" style="stroke:#475569;stroke-width:0.5;" width="173" x="1250" y="256.2969"/><text fill="#0F172A" font-family="sans-serif" font-size="14" lengthAdjust="spacing" textLength="163" x="1255" y="281.1436">RejectUnsupportedDrift</text><rect fill="#F8FAFC" height="40" rx="6" ry="6" style="stroke:#475569;stroke-width:0.5;" width="53" x="1483" y="360.2969"/><text fill="#0F172A" font-family="sans-serif" font-size="14" lengthAdjust="spacing" textLength="43" x="1488" y="385.1436">Ready</text><rect fill="#F8FAFC" height="40" rx="6" ry="6" style="stroke:#475569;stroke-width:0.5;" width="142" x="1048" y="313.2969"/><text fill="#0F172A" font-family="sans-serif" font-size="14" lengthAdjust="spacing" textLength="132" x="1053" y="338.1436">MoveCompartment</text><rect fill="#F8FAFC" height="40" rx="6" ry="6" style="stroke:#475569;stroke-width:0.5;" width="97" x="1288" y="360.2969"/><text fill="#0F172A" font-family="sans-serif" font-size="14" lengthAdjust="spacing" textLength="87" x="1293" y="385.1436">ApplyUpdate</text><rect fill="#F8FAFC" height="40" rx="6" ry="6" style="stroke:#475569;stroke-width:0.5;" width="141" x="847" y="424.2969"/><text fill="#0F172A" font-family="sans-serif" font-size="14" lengthAdjust="spacing" textLength="131" x="852" y="449.1436">CompareCollection</text><rect fill="#F8FAFC" height="40" rx="6" ry="6" style="stroke:#475569;stroke-width:0.5;" width="142" x="1048" y="388.2969"/><text fill="#0F172A" font-family="sans-serif" font-size="14" lengthAdjust="spacing" textLength="132" x="1053" y="413.1436">ResubmitWholeList</text><rect fill="#F8FAFC" height="40" rx="6" ry="6" style="stroke:#475569;stroke-width:0.5;" width="113" x="1754.5" y="175.2969"/><text fill="#0F172A" font-family="sans-serif" font-size="14" lengthAdjust="spacing" textLength="103" x="1759.5" y="200.1436">DeletePending</text><rect fill="#F8FAFC" height="40" rx="6" ry="6" style="stroke:#475569;stroke-width:0.5;" width="65" x="2232" y="122.2969"/><text fill="#0F172A" font-family="sans-serif" font-size="14" lengthAdjust="spacing" textLength="55" x="2237" y="147.1436">Deleted</text><g id="elem_GMN39"><path d="M1596,256.7969 L1596,386.2969 L1536.26,390.2969 L1596,394.2969 L1596,512.0547 A6,6 0 0 0 1602,518.0547 L2020,518.0547 A6,6 0 0 0 2026,512.0547 L2026,260.7969 L2016,250.7969 L1602,250.7969 A6,6 0 0 0 1596,256.7969 " fill="#FFF7ED" style="stroke:#181818;stroke-width:0.5;"/><path d="M2016,250.7969 L2016,257.7969 A3,3 0 0 0 2019,260.7969 L2026,260.7969 L2016,250.7969 " fill="#FFF7ED" style="stroke:#181818;stroke-width:0.5;"/><text fill="#0F172A" font-family="sans-serif" font-size="13" lengthAdjust="spacing" textLength="69" x="1602" y="267.8638">Archetype:</text><text fill="#0F172A" font-family="sans-serif" font-size="13" lengthAdjust="spacing" textLength="272" x="1602" y="282.9966">- resolved-drift-delete-paginated-collection</text><text fill="#0F172A" font-family="sans-serif" font-size="13" lengthAdjust="spacing" textLength="102" x="1602" y="298.1294">Update surface:</text><text fill="#0F172A" font-family="sans-serif" font-size="13" lengthAdjust="spacing" textLength="94" x="1602" y="313.2622">- display name</text><text fill="#0F172A" font-family="sans-serif" font-size="13" lengthAdjust="spacing" textLength="96" x="1602" y="328.395">- freeform tags</text><text fill="#0F172A" font-family="sans-serif" font-size="13" lengthAdjust="spacing" textLength="88" x="1602" y="343.5278">- defined tags</text><text fill="#0F172A" font-family="sans-serif" font-size="13" lengthAdjust="spacing" textLength="144" x="1602" y="358.6606">- ingress security rules</text><text fill="#0F172A" font-family="sans-serif" font-size="13" lengthAdjust="spacing" textLength="141" x="1602" y="373.7935">- egress security rules</text><text fill="#0F172A" font-family="sans-serif" font-size="13" lengthAdjust="spacing" textLength="139" x="1602" y="388.9263">Reject before mutate:</text><text fill="#0F172A" font-family="sans-serif" font-size="13" lengthAdjust="spacing" textLength="71" x="1602" y="404.0591">- vcnId drift</text><text fill="#0F172A" font-family="sans-serif" font-size="13" lengthAdjust="spacing" textLength="105" x="1602" y="419.1919">Boundary notes:</text><text fill="#0F172A" font-family="sans-serif" font-size="13" lengthAdjust="spacing" textLength="409" x="1602" y="434.3247">- Later-page name matches must keep using the resolved OCID</text><text fill="#0F172A" font-family="sans-serif" font-size="13" lengthAdjust="spacing" textLength="156" x="1618" y="449.4575">for later mutation paths.</text><text fill="#0F172A" font-family="sans-serif" font-size="13" lengthAdjust="spacing" textLength="358" x="1602" y="464.5903">- Partial OCI-side application of an already-submitted full</text><text fill="#0F172A" font-family="sans-serif" font-size="13" lengthAdjust="spacing" textLength="314" x="1618" y="479.7231">rule set remains outside the modeled guarantee.</text><text fill="#0F172A" font-family="sans-serif" font-size="13" lengthAdjust="spacing" textLength="166" x="1602" y="494.856">Controller-local invariants:</text><text fill="#0F172A" font-family="sans-serif" font-size="13" lengthAdjust="spacing" textLength="229" x="1602" y="509.9888">- StatusPresentUsesStatusInvariant</text></g><g id="elem_GMN42"><path d="M2086,203.7969 L2086,202.5469 L1867.52,206.5469 L2086,210.5469 L2086,292.5938 A6,6 0 0 0 2092,298.5938 L2437,298.5938 A6,6 0 0 0 2443,292.5938 L2443,207.7969 L2433,197.7969 L2092,197.7969 A6,6 0 0 0 2086,203.7969 " fill="#FFF7ED" style="stroke:#181818;stroke-width:0.5;"/><path d="M2433,197.7969 L2433,204.7969 A3,3 0 0 0 2436,207.7969 L2443,207.7969 L2433,197.7969 " fill="#FFF7ED" style="stroke:#181818;stroke-width:0.5;"/><text fill="#0F172A" font-family="sans-serif" font-size="13" lengthAdjust="spacing" textLength="90" x="2092" y="214.8638">Delete states:</text><text fill="#0F172A" font-family="sans-serif" font-size="13" lengthAdjust="spacing" textLength="102" x="2092" y="229.9966">- DeletePending</text><text fill="#0F172A" font-family="sans-serif" font-size="13" lengthAdjust="spacing" textLength="59" x="2092" y="245.1294">- Deleted</text><text fill="#0F172A" font-family="sans-serif" font-size="13" lengthAdjust="spacing" textLength="103" x="2092" y="260.2622">Delete workflow:</text><text fill="#0F172A" font-family="sans-serif" font-size="13" lengthAdjust="spacing" textLength="336" x="2092" y="275.395">- Confirm deletion with follow-up GetSecurityList calls</text><text fill="#0F172A" font-family="sans-serif" font-size="13" lengthAdjust="spacing" textLength="248" x="2108" y="290.5278">until the resource is gone or not found.</text></g><!--link *start to Observe--><g id="link_*start_Observe"><path d="M26.08,188.2969 C26.08,188.2969 80.84,188.2969 80.84,188.2969 " fill="none" id="*start-to-Observe" style="stroke:#181818;stroke-width:1.0;"/><polygon fill="#181818" points="85.84,188.2969,76.84,184.2969,80.84,188.2969,76.84,192.2969,85.84,188.2969" style="stroke:#181818;stroke-width:1.0;"/></g><!--link Observe to ResolveByName--><g id="link_Observe_ResolveByName"><path d="M415.34,188.2969 C415.34,188.2969 469.86,188.2969 469.86,188.2969 " fill="none" id="Observe-to-ResolveByName" style="stroke:#181818;stroke-width:1.0;"/><polygon fill="#181818" points="474.86,188.2969,465.86,184.2969,469.86,188.2969,465.86,192.2969,474.86,188.2969" style="stroke:#181818;stroke-width:1.0;"/><text fill="#000000" font-family="sans-serif" font-size="13" lengthAdjust="spacing" textLength="163" x="443.6" y="201.3638">status/spec OCID missing</text></g><!--link ResolveByName to PaginatedLookup--><g id="link_ResolveByName_PaginatedLookup"><path d="M597.16,188.2969 C597.16,188.2969 651.96,188.2969 651.96,188.2969 " fill="none" id="ResolveByName-to-PaginatedLookup" style="stroke:#181818;stroke-width:1.0;"/><polygon fill="#181818" points="656.96,188.2969,647.96,184.2969,651.96,188.2969,647.96,192.2969,656.96,188.2969" style="stroke:#181818;stroke-width:1.0;"/><text fill="#000000" font-family="sans-serif" font-size="13" lengthAdjust="spacing" textLength="219" x="625.56" y="201.3638">continue searching later list pages</text></g><!--link PaginatedLookup to EvaluateReady--><g id="link_PaginatedLookup_EvaluateReady"><path d="M787.27,200.5469 C844.28,200.5469 918,200.5469 918,200.5469 C918,200.5469 918,236.0669 918,236.0669 " fill="none" id="PaginatedLookup-to-EvaluateReady" style="stroke:#181818;stroke-width:1.0;"/><polygon fill="#181818" points="918,241.0669,922,232.0669,918,236.0669,914,232.0669,918,241.0669" style="stroke:#181818;stroke-width:1.0;"/><text fill="#000000" font-family="sans-serif" font-size="13" lengthAdjust="spacing" textLength="148" x="871.39" y="213.6138">OCI state in AVAILABLE</text></g><!--link PaginatedLookup to Retryable--><g id="link_PaginatedLookup_Retryable"><path d="M787.23,173.5469 C945.51,173.5469 1337,173.5469 1337,173.5469 C1337,173.5469 1337,133.5869 1337,133.5869 " fill="none" id="PaginatedLookup-to-Retryable" style="stroke:#181818;stroke-width:1.0;"/><polygon fill="#181818" points="1337,128.5869,1333,137.5869,1337,133.5869,1341,137.5869,1337,128.5869" style="stroke:#181818;stroke-width:1.0;"/><text fill="#000000" font-family="sans-serif" font-size="13" lengthAdjust="spacing" textLength="246" x="1083.1" y="186.6138">OCI state in PROVISIONING, UPDATING</text></g><!--link PaginatedLookup to Failed--><g id="link_PaginatedLookup_Failed"><path d="M787.11,192.7969 C787.11,192.7969 1479.42,192.7969 1479.42,192.7969 " fill="none" id="PaginatedLookup-to-Failed" style="stroke:#181818;stroke-width:1.0;"/><polygon fill="#181818" points="1484.42,192.7969,1475.4315,188.7712,1479.42,192.7826,1475.4086,196.7711,1484.42,192.7969" style="stroke:#181818;stroke-width:1.0;"/><text fill="#000000" font-family="sans-serif" font-size="13" lengthAdjust="spacing" textLength="188" x="1134.26" y="205.8638">OCI state in FAILED, DELETED</text></g><!--link EvaluateReady to RejectUnsupportedDrift--><g id="link_EvaluateReady_RejectUnsupportedDrift"><path d="M973.14,268.7969 C973.14,268.7969 1244.63,268.7969 1244.63,268.7969 " fill="none" id="EvaluateReady-to-RejectUnsupportedDrift" style="stroke:#181818;stroke-width:1.0;"/><polygon fill="#181818" points="1249.63,268.7969,1240.63,264.7969,1244.63,268.7969,1240.63,272.7969,1249.63,268.7969" style="stroke:#181818;stroke-width:1.0;"/><text fill="#000000" font-family="sans-serif" font-size="13" lengthAdjust="spacing" textLength="275" x="832.88" y="281.8638">unsupported or immutable drift is detected</text></g><!--link RejectUnsupportedDrift to Ready--><g id="link_RejectUnsupportedDrift_Ready"><path d="M1404,296.3469 C1404,326.5669 1404,380.2969 1404,380.2969 C1404,380.2969 1477.88,380.2969 1477.88,380.2969 " fill="none" id="RejectUnsupportedDrift-to-Ready" style="stroke:#181818;stroke-width:1.0;"/><polygon fill="#181818" points="1482.88,380.2969,1473.88,376.2969,1477.88,380.2969,1473.88,384.2969,1482.88,380.2969" style="stroke:#181818;stroke-width:1.0;"/><text fill="#000000" font-family="sans-serif" font-size="13" lengthAdjust="spacing" textLength="252" x="1151" y="371.3338">wait for the spec or live state to change</text></g><!--link EvaluateReady to MoveCompartment--><g id="link_EvaluateReady_MoveCompartment"><path d="M918,281.3569 C918,302.6569 918,333.2969 918,333.2969 C918,333.2969 1042.85,333.2969 1042.85,333.2969 " fill="none" id="EvaluateReady-to-MoveCompartment" style="stroke:#181818;stroke-width:1.0;"/><polygon fill="#181818" points="1047.85,333.2969,1038.85,329.2969,1042.85,333.2969,1038.85,337.2969,1047.85,333.2969" style="stroke:#181818;stroke-width:1.0;"/><text fill="#000000" font-family="sans-serif" font-size="13" lengthAdjust="spacing" textLength="158" x="795.45" y="346.3638">continue active reconcile</text></g><!--link MoveCompartment to ApplyUpdate--><g id="link_MoveCompartment_ApplyUpdate"><path d="M1190.08,333.2969 C1253.7,333.2969 1337,333.2969 1337,333.2969 C1337,333.2969 1337,355.0969 1337,355.0969 " fill="none" id="MoveCompartment-to-ApplyUpdate" style="stroke:#181818;stroke-width:1.0;"/><polygon fill="#181818" points="1337,360.0969,1341.0257,351.1083,1337.0143,355.0969,1333.0257,351.0855,1337,360.0969" style="stroke:#181818;stroke-width:1.0;"/><text fill="#000000" font-family="sans-serif" font-size="13" lengthAdjust="spacing" textLength="221" x="1275.44" y="329.3638">continue after compartment move</text></g><!--link CompareCollection to ResubmitWholeList--><g id="link_CompareCollection_ResubmitWholeList"><path d="M981,423.9669 C981,414.9269 981,406.2969 981,406.2969 C981,406.2969 1042.98,406.2969 1042.98,406.2969 " fill="none" id="CompareCollection-to-ResubmitWholeList" style="stroke:#181818;stroke-width:1.0;"/><polygon fill="#181818" points="1047.98,406.2969,1038.98,402.2969,1042.98,406.2969,1038.98,410.2969,1047.98,406.2969" style="stroke:#181818;stroke-width:1.0;"/><text fill="#000000" font-family="sans-serif" font-size="13" lengthAdjust="spacing" textLength="187" x="815.16" y="419.3638">semantic collection diff exists</text></g><!--link CompareCollection to Ready--><g id="link_CompareCollection_Ready"><path d="M988.09,446.2969 C1145.2,446.2969 1510,446.2969 1510,446.2969 C1510,446.2969 1510,405.4569 1510,405.4569 " fill="none" id="CompareCollection-to-Ready" style="stroke:#181818;stroke-width:1.0;"/><polygon fill="#181818" points="1510,400.4569,1506,409.4569,1510,405.4569,1514,409.4569,1510,400.4569" style="stroke:#181818;stroke-width:1.0;"/><text fill="#000000" font-family="sans-serif" font-size="13" lengthAdjust="spacing" textLength="222" x="1046.46" y="459.3638">matching collection skips mutation</text></g><!--link ResubmitWholeList to ApplyUpdate--><g id="link_ResubmitWholeList_ApplyUpdate"><path d="M1190.22,394.2969 C1190.22,394.2969 1282.82,394.2969 1282.82,394.2969 " fill="none" id="ResubmitWholeList-to-ApplyUpdate" style="stroke:#181818;stroke-width:1.0;"/><polygon fill="#181818" points="1287.82,394.2969,1278.82,390.2969,1282.82,394.2969,1278.82,398.2969,1287.82,394.2969" style="stroke:#181818;stroke-width:1.0;"/><text fill="#000000" font-family="sans-serif" font-size="13" lengthAdjust="spacing" textLength="229" x="1006.52" y="390.3638">full desired collection is resubmitted</text></g><!--link ApplyUpdate to Ready--><g id="link_ApplyUpdate_Ready"><path d="M1385.15,390.2969 C1385.15,390.2969 1477.67,390.2969 1477.67,390.2969 " fill="none" id="ApplyUpdate-to-Ready" style="stroke:#181818;stroke-width:1.0;"/><polygon fill="#181818" points="1482.67,390.2969,1473.67,386.2969,1477.67,390.2969,1473.67,394.2969,1482.67,390.2969" style="stroke:#181818;stroke-width:1.0;"/><text fill="#000000" font-family="sans-serif" font-size="13" lengthAdjust="spacing" textLength="231" x="1199.41" y="403.3638">supported mutation path completes</text></g><!--link Ready to Ready--><g id="link_Ready_Ready"><path d="M1482.84,370.2969 C1464.33,370.2969 1443,370.2969 1443,370.2969 C1443,370.2969 1443,356.7969 1443,356.7969 C1443,356.7969 1551,356.7969 1551,356.7969 C1551,356.7969 1551,370.2969 1551,370.2969 C1551,370.2969 1541.02,370.2969 1541.02,370.2969 " fill="none" id="Ready-to-Ready" style="stroke:#181818;stroke-width:1.0;"/><polygon fill="#181818" points="1536.02,370.2969,1545.02,374.2969,1541.02,370.2969,1545.02,366.2969,1536.02,370.2969" style="stroke:#181818;stroke-width:1.0;"/><text fill="#000000" font-family="sans-serif" font-size="13" lengthAdjust="spacing" textLength="170" x="1306.07" y="347.8638">no supported drift remains</text></g><!--link Retryable to Retryable--><g id="link_Retryable_Retryable"><path d="M1298.95,108.2969 C1286.15,108.2969 1275,108.2969 1275,108.2969 C1275,108.2969 1275,70.2969 1275,70.2969 C1275,70.2969 1399,70.2969 1399,70.2969 C1399,70.2969 1399,99.6269 1399,99.6269 C1399,99.6269 1379.3,99.6269 1379.3,99.6269 " fill="none" id="Retryable-to-Retryable" style="stroke:#181818;stroke-width:1.0;"/><polygon fill="#181818" points="1374.3,99.6269,1383.3,103.6269,1379.3,99.6269,1383.3,95.6269,1374.3,99.6269" style="stroke:#181818;stroke-width:1.0;"/><text fill="#000000" font-family="sans-serif" font-size="13" lengthAdjust="spacing" textLength="159" x="1165.54" y="61.3638">OCI remains nonterminal</text></g><!--link Failed to Failed--><g id="link_Failed_Failed"><path d="M1484.34,185.0469 C1473.39,185.0469 1463,185.0469 1463,185.0469 C1463,185.0469 1463,170.0469 1463,170.0469 C1463,170.0469 1566,170.0469 1566,170.0469 C1566,170.0469 1566,186.7969 1566,186.7969 C1566,186.7969 1539.78,186.7969 1539.78,186.7969 " fill="none" id="Failed-to-Failed" style="stroke:#181818;stroke-width:1.0;"/><polygon fill="#181818" points="1534.78,186.7969,1543.78,190.7969,1539.78,186.7969,1543.78,182.7969,1534.78,186.7969" style="stroke:#181818;stroke-width:1.0;"/><text fill="#000000" font-family="sans-serif" font-size="13" lengthAdjust="spacing" textLength="135" x="1376.81" y="161.1138">OCI remains terminal</text></g><!--link Ready to DeletePending--><g id="link_Ready_DeletePending"><path d="M1536.12,380.2969 C1556.45,380.2969 1581,380.2969 1581,380.2969 C1581,380.2969 1581,205.7969 1581,205.7969 C1581,205.7969 1749.44,205.7969 1749.44,205.7969 " fill="none" id="Ready-to-DeletePending" style="stroke:#181818;stroke-width:1.0;"/><polygon fill="#181818" points="1754.44,205.7969,1745.44,201.7969,1749.44,205.7969,1745.44,209.7969,1754.44,205.7969" style="stroke:#181818;stroke-width:1.0;"/><text fill="#000000" font-family="sans-serif" font-size="13" lengthAdjust="spacing" textLength="109" x="1471" y="244.3338">delete requested</text></g><!--link Retryable to DeletePending--><g id="link_Retryable_DeletePending"><path d="M1374.13,110.9669 C1486.36,110.9669 1811,110.9669 1811,110.9669 C1811,110.9669 1811,169.8869 1811,169.8869 " fill="none" id="Retryable-to-DeletePending" style="stroke:#181818;stroke-width:1.0;"/><polygon fill="#181818" points="1811,174.8869,1815,165.8869,1811,169.8869,1807,165.8869,1811,174.8869" style="stroke:#181818;stroke-width:1.0;"/><text fill="#000000" font-family="sans-serif" font-size="13" lengthAdjust="spacing" textLength="109" x="1512.02" y="124.0338">delete requested</text></g><!--link Failed to DeletePending--><g id="link_Failed_DeletePending"><path d="M1534.69,196.2969 C1534.69,196.2969 1749.4,196.2969 1749.4,196.2969 " fill="none" id="Failed-to-DeletePending" style="stroke:#181818;stroke-width:1.0;"/><polygon fill="#181818" points="1754.4,196.2969,1745.4,192.2969,1749.4,196.2969,1745.4,200.2969,1754.4,196.2969" style="stroke:#181818;stroke-width:1.0;"/><text fill="#000000" font-family="sans-serif" font-size="13" lengthAdjust="spacing" textLength="109" x="1643.04" y="209.3638">delete requested</text></g><!--link DeletePending to Deleted--><g id="link_DeletePending_Deleted"><path d="M1867.58,186.5469 C1989.28,186.5469 2265,186.5469 2265,186.5469 C2265,186.5469 2265,167.3469 2265,167.3469 " fill="none" id="DeletePending-to-Deleted" style="stroke:#181818;stroke-width:1.0;"/><polygon fill="#181818" points="2265,162.3469,2261,171.3469,2265,167.3469,2269,171.3469,2265,162.3469" style="stroke:#181818;stroke-width:1.0;"/><text fill="#000000" font-family="sans-serif" font-size="13" lengthAdjust="spacing" textLength="373" x="2076.89" y="186.8638">OCI deletion is confirmed and the finalizer can be removed</text></g><!--link Deleted to Deleted--><g id="link_Deleted_Deleted"><path d="M2231.99,145.2969 C2200.99,145.2969 2159,145.2969 2159,145.2969 C2159,145.2969 2159,171.7969 2159,171.7969 C2159,171.7969 2370,171.7969 2370,171.7969 C2370,171.7969 2370,142.2969 2370,142.2969 C2370,142.2969 2302.01,142.2969 2302.01,142.2969 " fill="none" id="Deleted-to-Deleted" style="stroke:#181818;stroke-width:1.0;"/><polygon fill="#181818" points="2297.01,142.2969,2306.01,146.2969,2302.01,142.2969,2306.01,138.2969,2297.01,142.2969" style="stroke:#181818;stroke-width:1.0;"/><text fill="#000000" font-family="sans-serif" font-size="13" lengthAdjust="spacing" textLength="100" x="2157.5" y="162.8638">terminal stutter</text></g><!--SRC=[XLPDRnit4Btlho3GMs6vIHhNZGy594iA12Ysu8_qKFH0xywkM7F9BScLeXJvxtr3xbehMK5yaKNElFbwywYWWYPnUxqGzvItJeMTM2eVn1tbrkGAT_T11XAVPBvMXZ9DPH312gUgTH25SfG7PKssLWK9gXlu5-Hpfvfux9-LQQIJjV1hMTYjCfKefVOqkD703Rk6X7LXRGSNphQcoAqpvCJRTuEBYSoVgtXxRRLrugTv_1jO55JALeS7-XB6MbMc9XC4vpxCA1RsNoR4nBg2N8Vr_lBYuhSFE9rR4xgpD_Etb-_6RFagyk_pyVmw-pR0DVOKxEJznQzlFfo4cCylPzEJ0RzbV_tyjnYD_X2tJvxSXhBkKrm9Hx8Glg7yB5RI-ZDKhGcnbGaezqn8KyJ9QbLIlilrtfiHxyXRlQ79xaRMZ9T0Vc54zfgAMdcFUMM7XkowafKoQ5wnjFQvRU0CiWHbMXAUf6EcL4B3m24soDJ8YdnsxCL8iutKBSxkKCmEE9nkceioOlnvl5YE9ylPITSx2cuddpGTkwtkRZylxXUtDukRZsVYSJKTF-2_anXp2OONnm1pX9rDpyHqjfmzO3A7IQRO_u3tZyQtJGFMKZ5r2djn9Thz4UWiL5st8UPOH0FbCQC0Logoxs0a-DIDhLH1bC09QugZPaojCC2KA_OmNqjJqOaKFzaDNTiQb0oH_8CPIQmiC5o_ujcnBVkFcqRl7fk2umnzIvvgFZ2kuPmbRu1edGIXfrZxLAlmvzfgYh82cb4jWPK3uyMsK6Kfw0iC_7UHKaTg6HAx1jxOlCOBRdIKdDT1NvTJjbgpJa6-YY4KvkCwTnxHq6cOnNx6VLHGFAnZMtW3VJQaIl8nTk2MsE3G2cNOk6VoALvtLW30MhiQ7DPPnzjN5EvjNmptUKoZDgp85Do-gruh7FtRaazy76RnG_D12Z-qFJJOk_HfHuUk_s1QgLoDEvOl9dx9bQYlJ3jfn1C3C-TwsE88iAyTEz9YYYxBeY2d1ykMQI3P62eLNvshRCGpPuKhHd4kevJ_gEa5OxHdIDQnmRUkb7bqBfHljDm90tN4rz8HOMLh4MJb-PgGFnBhlg81YEQn1jrhwrfDV44dpvD8e6X0Kc9R3Bh9pQAZKJRXjqIwNNnuFDykMNevVufPfQqXtX5impDH8rfMzjZTllQe-NY4H1IS9Du7xFRdG5vXwnLw2-EHvoTVOaLKdgpGN0n8QdwPTgENDOhR5f6v9bJumdnXsn1HE97QSjyBKRLuHK5rEeSMcE2uzswaROwmocoaKxYDPTx75sk52g13ZvvyEbZqHXa85vjoJ843FdOqIf8QSG-l- -yztyJMkkTIsosRNYUsxXcyLT214ZdRxGYFp4SA_U-gA4KeGllOYnOYg5ycqBgScFsLDVmxYBC62kPwlY_YVm00]--></g></svg>