<?xml version="1.0" encoding="UTF-8" standalone="no"?><svg xmlns="http://www.w3.org/2000/svg" xmlns:xlink="http://www.w3.org/1999/xlink" contentStyleType="text/css" height="1428px" preserveAspectRatio="none" style="width:1872px;height:1428px;background:#FFFFFF;" version="1.1" viewBox="0 0 1872 1428" width="1872px" zoomAndPan="magnify"><defs/><g><text fill="#000000" font-family="sans-serif" font-size="14" font-weight="bold" lengthAdjust="spacing" textLength="293" x="788.375" y="32.9951">Container Instance Reconcile Activity</text><ellipse cx="762.375" cy="57.2969" fill="#0F766E" rx="10" ry="10" style="stroke:#222222;stroke-width:1.0;"/><rect fill="none" height="254.2031" style="stroke:#000000;stroke-width:1.5;" width="686" x="439.875" y="77.2969"/><path d="M572.875,77.2969 L572.875,86.5938 L562.875,96.5938 L439.875,96.5938 " fill="none" style="stroke:#000000;stroke-width:1.5;"/><text fill="#000000" font-family="sans-serif" font-size="14" lengthAdjust="spacing" textLength="123" x="442.875" y="91.292">Observe and Bind</text><rect fill="#F8FAFC" height="33.9688" rx="12.5" ry="12.5" style="stroke:#475569;stroke-width:0.5;" width="304" x="610.375" y="113.5938"/><text fill="#0F172A" font-family="sans-serif" font-size="12" lengthAdjust="spacing" textLength="284" x="620.375" y="134.7324">Read CR spec, status OCID, and delete intent</text><polygon fill="#E2E8F0" points="662.375,167.5625,862.375,167.5625,874.375,179.5625,862.375,191.5625,662.375,191.5625,650.375,179.5625,662.375,167.5625" style="stroke:#475569;stroke-width:0.5;"/><text fill="#0F172A" font-family="sans-serif" font-size="11" lengthAdjust="spacing" textLength="200" x="662.375" y="183.3706">"Tracked or explicit OCID present?"</text><text fill="#000000" font-family="sans-serif" font-size="11" lengthAdjust="spacing" textLength="20" x="630.375" y="176.9683">yes</text><text fill="#000000" font-family="sans-serif" font-size="11" lengthAdjust="spacing" textLength="14" x="874.375" y="176.9683">no</text><rect fill="#F8FAFC" height="33.9688" rx="12.5" ry="12.5" style="stroke:#475569;stroke-width:0.5;" width="272" x="459.875" y="201.5625"/><text fill="#0F172A" font-family="sans-serif" font-size="12" lengthAdjust="spacing" textLength="252" x="469.875" y="222.7012">Get the OCI resource by known identifier</text><rect fill="#F8FAFC" height="33.9688" rx="12.5" ry="12.5" style="stroke:#475569;stroke-width:0.5;" width="328" x="764.875" y="201.5625"/><text fill="#0F172A" font-family="sans-serif" font-size="12" lengthAdjust="spacing" textLength="308" x="774.875" y="222.7012">Resolve an existing OCI resource by display name</text><rect fill="#F8FAFC" height="33.9688" rx="12.5" ry="12.5" style="stroke:#475569;stroke-width:0.5;" width="354" x="751.875" y="255.5313"/><text fill="#0F172A" font-family="sans-serif" font-size="12" lengthAdjust="spacing" textLength="334" x="761.875" y="276.6699">Persist the resolved or created OCID back into status</text><polygon fill="#E2E8F0" points="762.375,295.5,774.375,307.5,762.375,319.5,750.375,307.5,762.375,295.5" style="stroke:#475569;stroke-width:0.5;"/><path d="M1465.75,712.1523 L1465.75,1115.6055 L1860.75,1115.6055 L1860.75,722.1523 L1850.75,712.1523 L1465.75,712.1523 " fill="#FEFFDD" style="stroke:#181818;stroke-width:0.5;"/><path d="M1850.75,712.1523 L1850.75,722.1523 L1860.75,722.1523 L1850.75,712.1523 " fill="#FEFFDD" style="stroke:#181818;stroke-width:0.5;"/><text fill="#000000" font-family="sans-serif" font-size="13" lengthAdjust="spacing" textLength="69" x="1471.75" y="729.2192">Archetype:</text><text fill="#000000" font-family="sans-serif" font-size="13" lengthAdjust="spacing" textLength="193" x="1471.75" y="744.3521">- resolved-drift-delete-cleanup</text><text fill="#000000" font-family="sans-serif" font-size="13" lengthAdjust="spacing" textLength="134" x="1471.75" y="759.4849">Retryable OCI states:</text><text fill="#000000" font-family="sans-serif" font-size="13" lengthAdjust="spacing" textLength="73" x="1471.75" y="774.6177">- CREATING</text><text fill="#000000" font-family="sans-serif" font-size="13" lengthAdjust="spacing" textLength="76" x="1471.75" y="789.7505">- UPDATING</text><text fill="#000000" font-family="sans-serif" font-size="13" lengthAdjust="spacing" textLength="113" x="1471.75" y="804.8833">Active OCI states:</text><text fill="#000000" font-family="sans-serif" font-size="13" lengthAdjust="spacing" textLength="54" x="1471.75" y="820.0161">- ACTIVE</text><text fill="#000000" font-family="sans-serif" font-size="13" lengthAdjust="spacing" textLength="111" x="1471.75" y="835.1489">Failed OCI states:</text><text fill="#000000" font-family="sans-serif" font-size="13" lengthAdjust="spacing" textLength="53" x="1471.75" y="850.2817">- FAILED</text><text fill="#000000" font-family="sans-serif" font-size="13" lengthAdjust="spacing" textLength="67" x="1471.75" y="865.4146">- DELETED</text><text fill="#000000" font-family="sans-serif" font-size="13" lengthAdjust="spacing" textLength="102" x="1471.75" y="880.5474">Update surface:</text><text fill="#000000" font-family="sans-serif" font-size="13" lengthAdjust="spacing" textLength="94" x="1471.75" y="895.6802">- display name</text><text fill="#000000" font-family="sans-serif" font-size="13" lengthAdjust="spacing" textLength="96" x="1471.75" y="910.813">- freeform tags</text><text fill="#000000" font-family="sans-serif" font-size="13" lengthAdjust="spacing" textLength="88" x="1471.75" y="925.9458">- defined tags</text><text fill="#000000" font-family="sans-serif" font-size="13" lengthAdjust="spacing" textLength="139" x="1471.75" y="941.0786">Reject before mutate:</text><text fill="#000000" font-family="sans-serif" font-size="13" lengthAdjust="spacing" textLength="154" x="1471.75" y="956.2114">- availabilityDomain drift</text><text fill="#000000" font-family="sans-serif" font-size="13" lengthAdjust="spacing" textLength="77" x="1471.75" y="971.3442">- shape drift</text><text fill="#000000" font-family="sans-serif" font-size="13" lengthAdjust="spacing" textLength="116" x="1471.75" y="986.4771">- faultDomain drift</text><text fill="#000000" font-family="sans-serif" font-size="13" lengthAdjust="spacing" textLength="270" x="1471.75" y="1001.6099">- gracefulShutdownTimeoutInSeconds drift</text><text fill="#000000" font-family="sans-serif" font-size="13" lengthAdjust="spacing" textLength="180" x="1471.75" y="1016.7427">- containerRestartPolicy drift</text><text fill="#000000" font-family="sans-serif" font-size="13" lengthAdjust="spacing" textLength="105" x="1471.75" y="1031.8755">Boundary notes:</text><text fill="#000000" font-family="sans-serif" font-size="13" lengthAdjust="spacing" textLength="368" x="1471.75" y="1047.0083">- Best-effort cleanup remains non-blocking and must stay</text><text fill="#000000" font-family="sans-serif" font-size="13" lengthAdjust="spacing" textLength="273" x="1487.75" y="1062.1411">within the controller's eligible duplicate set.</text><text fill="#000000" font-family="sans-serif" font-size="13" lengthAdjust="spacing" textLength="354" x="1471.75" y="1077.2739">- Implementation lookup also treats INACTIVE container</text><text fill="#000000" font-family="sans-serif" font-size="13" lengthAdjust="spacing" textLength="358" x="1487.75" y="1092.4067">instances as existing matches even though that state is</text><text fill="#000000" font-family="sans-serif" font-size="13" lengthAdjust="spacing" textLength="232" x="1487.75" y="1107.5396">outside the formal lifecycle partition.</text><polygon fill="#E2E8F0" points="705.375,351.5,819.375,351.5,831.375,363.5,819.375,375.5,705.375,375.5,693.375,363.5,705.375,351.5" style="stroke:#475569;stroke-width:0.5;"/><text fill="#0F172A" font-family="sans-serif" font-size="11" lengthAdjust="spacing" textLength="114" x="705.375" y="367.3081">"Delete requested?"</text><text fill="#000000" font-family="sans-serif" font-size="11" lengthAdjust="spacing" textLength="20" x="673.375" y="360.9058">yes</text><text fill="#000000" font-family="sans-serif" font-size="11" lengthAdjust="spacing" textLength="14" x="831.375" y="360.9058">no</text><rect fill="none" height="220.2031" style="stroke:#000000;stroke-width:1.5;" width="770" x="11" y="385.5"/><path d="M67,385.5 L67,394.7969 L57,404.7969 L11,404.7969 " fill="none" style="stroke:#000000;stroke-width:1.5;"/><text fill="#000000" font-family="sans-serif" font-size="14" lengthAdjust="spacing" textLength="46" x="14" y="399.4951">Delete</text><rect fill="#F8FAFC" height="33.9688" rx="12.5" ry="12.5" style="stroke:#475569;stroke-width:0.5;" width="275" x="258.5" y="421.7969"/><text fill="#0F172A" font-family="sans-serif" font-size="12" lengthAdjust="spacing" textLength="255" x="268.5" y="442.9355">Submit OCI delete for Container Instance</text><rect fill="#F8FAFC" height="33.9688" rx="12.5" ry="12.5" style="stroke:#475569;stroke-width:0.5;" width="750" x="21" y="490.7656"/><text fill="#0F172A" font-family="sans-serif" font-size="12" lengthAdjust="spacing" textLength="730" x="31" y="511.9043">Confirm deletion with follow-up GetContainerInstance calls until the lifecycle is DELETED or the resource is not found.</text><rect fill="#F8FAFC" height="33.9688" rx="12.5" ry="12.5" style="stroke:#475569;stroke-width:0.5;" width="338" x="227" y="559.7344"/><text fill="#0F172A" font-family="sans-serif" font-size="12" lengthAdjust="spacing" textLength="318" x="237" y="580.873">Remove the finalizer after OCI deletion is confirmed</text><ellipse cx="396" cy="651.7031" fill="none" rx="11" ry="11" style="stroke:#222222;stroke-width:1.0;"/><ellipse cx="396" cy="651.7031" fill="#222222" rx="6" ry="6" style="stroke:#111111;stroke-width:1.0;"/><rect fill="none" height="422.8438" style="stroke:#000000;stroke-width:1.5;" width="376" x="946.75" y="385.5"/><path d="M1107.75,385.5 L1107.75,394.7969 L1097.75,404.7969 L946.75,404.7969 " fill="none" style="stroke:#000000;stroke-width:1.5;"/><text fill="#000000" font-family="sans-serif" font-size="14" lengthAdjust="spacing" textLength="151" x="949.75" y="399.4951">Lifecycle Classification</text><rect fill="#F8FAFC" height="33.9688" rx="12.5" ry="12.5" style="stroke:#475569;stroke-width:0.5;" width="268" x="994.75" y="470.1992"/><text fill="#0F172A" font-family="sans-serif" font-size="12" lengthAdjust="spacing" textLength="248" x="1004.75" y="491.3379">Request requeue and keep the finalizer</text><ellipse cx="1128.75" cy="550.168" fill="none" rx="11" ry="11" style="stroke:#222222;stroke-width:1.0;"/><ellipse cx="1128.75" cy="550.168" fill="#222222" rx="6" ry="6" style="stroke:#111111;stroke-width:1.0;"/><polygon fill="#E2E8F0" points="1048.75,421.7969,1208.75,421.7969,1220.75,433.7969,1208.75,445.7969,1048.75,445.7969,1036.75,433.7969,1048.75,421.7969" style="stroke:#475569;stroke-width:0.5;"/><text fill="#000000" font-family="sans-serif" font-size="11" lengthAdjust="spacing" textLength="20" x="1132.75" y="456.0073">yes</text><text fill="#0F172A" font-family="sans-serif" font-size="11" lengthAdjust="spacing" textLength="160" x="1048.75" y="437.605">"OCI state in retryable set?"</text><rect fill="#F8FAFC" height="33.9688" rx="12.5" ry="12.5" style="stroke:#475569;stroke-width:0.5;" width="324" x="966.75" y="666.9727"/><text fill="#0F172A" font-family="sans-serif" font-size="12" lengthAdjust="spacing" textLength="304" x="976.75" y="688.1113">Return an unsuccessful terminal reconcile result</text><ellipse cx="1128.75" cy="746.9414" fill="none" rx="11" ry="11" style="stroke:#222222;stroke-width:1.0;"/><ellipse cx="1128.75" cy="746.9414" fill="#222222" rx="6" ry="6" style="stroke:#111111;stroke-width:1.0;"/><polygon fill="#E2E8F0" points="1058.75,618.5703,1198.75,618.5703,1210.75,630.5703,1198.75,642.5703,1058.75,642.5703,1046.75,630.5703,1058.75,618.5703" style="stroke:#475569;stroke-width:0.5;"/><text fill="#000000" font-family="sans-serif" font-size="11" lengthAdjust="spacing" textLength="20" x="1132.75" y="652.7808">yes</text><text fill="#0F172A" font-family="sans-serif" font-size="11" lengthAdjust="spacing" textLength="140" x="1058.75" y="634.3784">"OCI state in failed set?"</text><rect fill="none" height="566.9141" style="stroke:#000000;stroke-width:1.5;" width="654.75" x="801" y="843.3438"/><path d="M980,843.3438 L980,852.6406 L970,862.6406 L801,862.6406 " fill="none" style="stroke:#000000;stroke-width:1.5;"/><text fill="#000000" font-family="sans-serif" font-size="14" lengthAdjust="spacing" textLength="169" x="804" y="857.3389">Ready and Drift Handling</text><rect fill="#F8FAFC" height="33.9688" rx="12.5" ry="12.5" style="stroke:#475569;stroke-width:0.5;" width="364" x="946.75" y="879.6406"/><text fill="#0F172A" font-family="sans-serif" font-size="12" lengthAdjust="spacing" textLength="344" x="956.75" y="900.7793">Compare live OCI state with the supported drift surface</text><rect fill="#F8FAFC" height="33.9688" rx="12.5" ry="12.5" style="stroke:#475569;stroke-width:0.5;" width="290" x="983.75" y="997.0117"/><text fill="#0F172A" font-family="sans-serif" font-size="12" lengthAdjust="spacing" textLength="270" x="993.75" y="1018.1504">Reject the change before any OCI mutation</text><ellipse cx="1128.75" cy="1076.9805" fill="none" rx="11" ry="11" style="stroke:#222222;stroke-width:1.0;"/><ellipse cx="1128.75" cy="1076.9805" fill="#222222" rx="6" ry="6" style="stroke:#111111;stroke-width:1.0;"/><polygon fill="#E2E8F0" points="1004.25,948.6094,1253.25,948.6094,1265.25,960.6094,1253.25,972.6094,1004.25,972.6094,992.25,960.6094,1004.25,948.6094" style="stroke:#475569;stroke-width:0.5;"/><text fill="#000000" font-family="sans-serif" font-size="11" lengthAdjust="spacing" textLength="20" x="1132.75" y="982.8198">yes</text><text fill="#0F172A" font-family="sans-serif" font-size="11" lengthAdjust="spacing" textLength="249" x="1004.25" y="964.4175">"Unsupported or immutable drift detected?"</text><rect fill="#F8FAFC" height="33.9688" rx="12.5" ry="12.5" style="stroke:#475569;stroke-width:0.5;" width="634" x="811.75" y="1138.3828"/><text fill="#0F172A" font-family="sans-serif" font-size="12" lengthAdjust="spacing" textLength="614" x="821.75" y="1159.5215">Move the container instance compartment before reconciling supported tag or display-name drift.</text><rect fill="#F8FAFC" height="33.9688" rx="12.5" ry="12.5" style="stroke:#475569;stroke-width:0.5;" width="583" x="837.25" y="1192.3516"/><text fill="#0F172A" font-family="sans-serif" font-size="12" lengthAdjust="spacing" textLength="563" x="847.25" y="1213.4902">Run duplicate-name cleanup as a separate non-blocking pass over eligible OCI resources.</text><polygon fill="#E2E8F0" points="1051.25,1246.3203,1206.25,1246.3203,1218.25,1258.3203,1206.25,1270.3203,1051.25,1270.3203,1039.25,1258.3203,1051.25,1246.3203" style="stroke:#475569;stroke-width:0.5;"/><text fill="#0F172A" font-family="sans-serif" font-size="11" lengthAdjust="spacing" textLength="155" x="1051.25" y="1262.1284">"Supported drift detected?"</text><text fill="#000000" font-family="sans-serif" font-size="11" lengthAdjust="spacing" textLength="20" x="1019.25" y="1255.7261">yes</text><text fill="#000000" font-family="sans-serif" font-size="11" lengthAdjust="spacing" textLength="14" x="1218.25" y="1255.7261">no</text><rect fill="#F8FAFC" height="33.9688" rx="12.5" ry="12.5" style="stroke:#475569;stroke-width:0.5;" width="329" x="821" y="1280.3203"/><text fill="#0F172A" font-family="sans-serif" font-size="12" lengthAdjust="spacing" textLength="309" x="831" y="1301.459">Apply only the supported in-place update surface</text><rect fill="#F8FAFC" height="33.9688" rx="12.5" ry="12.5" style="stroke:#475569;stroke-width:0.5;" width="204" x="1170" y="1280.3203"/><text fill="#0F172A" font-family="sans-serif" font-size="12" lengthAdjust="spacing" textLength="184" x="1180" y="1301.459">Skip the no-op mutation path</text><polygon fill="#E2E8F0" points="1128.75,1320.2891,1140.75,1332.2891,1128.75,1344.2891,1116.75,1332.2891,1128.75,1320.2891" style="stroke:#475569;stroke-width:0.5;"/><rect fill="#F8FAFC" height="33.9688" rx="12.5" ry="12.5" style="stroke:#475569;stroke-width:0.5;" width="287" x="985.25" y="1364.2891"/><text fill="#0F172A" font-family="sans-serif" font-size="12" lengthAdjust="spacing" textLength="267" x="995.25" y="1385.4277">Return success for the usable active state</text><line style="stroke:#334155;stroke-width:1.0;" x1="928.875" x2="928.875" y1="235.5313" y2="255.5313"/><polygon fill="#334155" points="924.875,245.5313,928.875,255.5313,932.875,245.5313,928.875,249.5313" style="stroke:#334155;stroke-width:1.0;"/><line style="stroke:#334155;stroke-width:1.0;" x1="650.375" x2="595.875" y1="179.5625" y2="179.5625"/><line style="stroke:#334155;stroke-width:1.0;" x1="595.875" x2="595.875" y1="179.5625" y2="201.5625"/><polygon fill="#334155" points="591.875,191.5625,595.875,201.5625,599.875,191.5625,595.875,195.5625" style="stroke:#334155;stroke-width:1.0;"/><line style="stroke:#334155;stroke-width:1.0;" x1="874.375" x2="928.875" y1="179.5625" y2="179.5625"/><line style="stroke:#334155;stroke-width:1.0;" x1="928.875" x2="928.875" y1="179.5625" y2="201.5625"/><polygon fill="#334155" points="924.875,191.5625,928.875,201.5625,932.875,191.5625,928.875,195.5625" style="stroke:#334155;stroke-width:1.0;"/><line style="stroke:#334155;stroke-width:1.0;" x1="595.875" x2="595.875" y1="235.5313" y2="307.5"/><line style="stroke:#334155;stroke-width:1.0;" x1="595.875" x2="750.375" y1="307.5" y2="307.5"/><polygon fill="#334155" points="740.375,303.5,750.375,307.5,740.375,311.5,744.375,307.5" style="stroke:#334155;stroke-width:1.0;"/><line style="stroke:#334155;stroke-width:1.0;" x1="928.875" x2="928.875" y1="289.5" y2="307.5"/><line style="stroke:#334155;stroke-width:1.0;" x1="928.875" x2="774.375" y1="307.5" y2="307.5"/><polygon fill="#334155" points="784.375,303.5,774.375,307.5,784.375,311.5,780.375,307.5" style="stroke:#334155;stroke-width:1.0;"/><line style="stroke:#334155;stroke-width:1.0;" x1="762.375" x2="762.375" y1="147.5625" y2="167.5625"/><polygon fill="#334155" points="758.375,157.5625,762.375,167.5625,766.375,157.5625,762.375,161.5625" style="stroke:#334155;stroke-width:1.0;"/><line style="stroke:#334155;stroke-width:1.0;" x1="762.375" x2="762.375" y1="67.2969" y2="113.5938"/><polygon fill="#334155" points="758.375,103.5938,762.375,113.5938,766.375,103.5938,762.375,107.5938" style="stroke:#334155;stroke-width:1.0;"/><line style="stroke:#334155;stroke-width:1.0;" x1="396" x2="396" y1="455.7656" y2="490.7656"/><polygon fill="#334155" points="392,480.7656,396,490.7656,400,480.7656,396,484.7656" style="stroke:#334155;stroke-width:1.0;"/><line style="stroke:#334155;stroke-width:1.0;" x1="396" x2="396" y1="524.7344" y2="559.7344"/><polygon fill="#334155" points="392,549.7344,396,559.7344,400,549.7344,396,553.7344" style="stroke:#334155;stroke-width:1.0;"/><line style="stroke:#334155;stroke-width:1.0;" x1="396" x2="396" y1="593.7031" y2="640.7031"/><polygon fill="#334155" points="392,630.7031,396,640.7031,400,630.7031,396,634.7031" style="stroke:#334155;stroke-width:1.0;"/><line style="stroke:#334155;stroke-width:1.0;" x1="1128.75" x2="1128.75" y1="504.168" y2="539.168"/><polygon fill="#334155" points="1124.75,529.168,1128.75,539.168,1132.75,529.168,1128.75,533.168" style="stroke:#334155;stroke-width:1.0;"/><line style="stroke:#334155;stroke-width:1.0;" x1="1128.75" x2="1128.75" y1="445.7969" y2="470.1992"/><polygon fill="#334155" points="1124.75,460.1992,1128.75,470.1992,1132.75,460.1992,1128.75,464.1992" style="stroke:#334155;stroke-width:1.0;"/><line style="stroke:#334155;stroke-width:1.0;" x1="1220.75" x2="1272.75" y1="433.7969" y2="433.7969"/><polygon fill="#334155" points="1268.75,502.6836,1272.75,512.6836,1276.75,502.6836,1272.75,506.6836" style="stroke:#334155;stroke-width:1.0;"/><line style="stroke:#334155;stroke-width:1.0;" x1="1272.75" x2="1272.75" y1="433.7969" y2="591.5703"/><line style="stroke:#334155;stroke-width:1.0;" x1="1272.75" x2="1128.75" y1="591.5703" y2="591.5703"/><line style="stroke:#334155;stroke-width:1.0;" x1="1128.75" x2="1128.75" y1="591.5703" y2="618.5703"/><polygon fill="#334155" points="1124.75,608.5703,1128.75,618.5703,1132.75,608.5703,1128.75,612.5703" style="stroke:#334155;stroke-width:1.0;"/><line style="stroke:#334155;stroke-width:1.0;" x1="1128.75" x2="1128.75" y1="700.9414" y2="735.9414"/><polygon fill="#334155" points="1124.75,725.9414,1128.75,735.9414,1132.75,725.9414,1128.75,729.9414" style="stroke:#334155;stroke-width:1.0;"/><line style="stroke:#334155;stroke-width:1.0;" x1="1128.75" x2="1128.75" y1="642.5703" y2="666.9727"/><polygon fill="#334155" points="1124.75,656.9727,1128.75,666.9727,1132.75,656.9727,1128.75,660.9727" style="stroke:#334155;stroke-width:1.0;"/><line style="stroke:#334155;stroke-width:1.0;" x1="1210.75" x2="1300.75" y1="630.5703" y2="630.5703"/><polygon fill="#334155" points="1296.75,699.457,1300.75,709.457,1304.75,699.457,1300.75,703.457" style="stroke:#334155;stroke-width:1.0;"/><line style="stroke:#334155;stroke-width:1.0;" x1="1300.75" x2="1300.75" y1="630.5703" y2="788.3438"/><line style="stroke:#334155;stroke-width:1.0;" x1="1300.75" x2="1128.75" y1="788.3438" y2="788.3438"/><line style="stroke:#334155;stroke-width:1.0;" x1="1128.75" x2="1128.75" y1="788.3438" y2="879.6406"/><polygon fill="#334155" points="1124.75,869.6406,1128.75,879.6406,1132.75,869.6406,1128.75,873.6406" style="stroke:#334155;stroke-width:1.0;"/><line style="stroke:#334155;stroke-width:1.0;" x1="1128.75" x2="1128.75" y1="1030.9805" y2="1065.9805"/><polygon fill="#334155" points="1124.75,1055.9805,1128.75,1065.9805,1132.75,1055.9805,1128.75,1059.9805" style="stroke:#334155;stroke-width:1.0;"/><line style="stroke:#334155;stroke-width:1.0;" x1="1128.75" x2="1128.75" y1="972.6094" y2="997.0117"/><polygon fill="#334155" points="1124.75,987.0117,1128.75,997.0117,1132.75,987.0117,1128.75,991.0117" style="stroke:#334155;stroke-width:1.0;"/><line style="stroke:#334155;stroke-width:1.0;" x1="1265.25" x2="1283.75" y1="960.6094" y2="960.6094"/><polygon fill="#334155" points="1279.75,1029.4961,1283.75,1039.4961,1287.75,1029.4961,1283.75,1033.4961" style="stroke:#334155;stroke-width:1.0;"/><line style="stroke:#334155;stroke-width:1.0;" x1="1283.75" x2="1283.75" y1="960.6094" y2="1118.3828"/><line style="stroke:#334155;stroke-width:1.0;" x1="1283.75" x2="1128.75" y1="1118.3828" y2="1118.3828"/><line style="stroke:#334155;stroke-width:1.0;" x1="1128.75" x2="1128.75" y1="1118.3828" y2="1138.3828"/><polygon fill="#334155" points="1124.75,1128.3828,1128.75,1138.3828,1132.75,1128.3828,1128.75,1132.3828" style="stroke:#334155;stroke-width:1.0;"/><line style="stroke:#334155;stroke-width:1.0;" x1="1128.75" x2="1128.75" y1="913.6094" y2="948.6094"/><polygon fill="#334155" points="1124.75,938.6094,1128.75,948.6094,1132.75,938.6094,1128.75,942.6094" style="stroke:#334155;stroke-width:1.0;"/><line style="stroke:#334155;stroke-width:1.0;" x1="1128.75" x2="1128.75" y1="1172.3516" y2="1192.3516"/><polygon fill="#334155" points="1124.75,1182.3516,1128.75,1192.3516,1132.75,1182.3516,1128.75,1186.3516" style="stroke:#334155;stroke-width:1.0;"/><line style="stroke:#334155;stroke-width:1.0;" x1="1039.25" x2="985.5" y1="1258.3203" y2="1258.3203"/><line style="stroke:#334155;stroke-width:1.0;" x1="985.5" x2="985.5" y1="1258.3203" y2="1280.3203"/><polygon fill="#334155" points="981.5,1270.3203,985.5,1280.3203,989.5,1270.3203,985.5,1274.3203" style="stroke:#334155;stroke-width:1.0;"/><line style="stroke:#334155;stroke-width:1.0;" x1="1218.25" x2="1272" y1="1258.3203" y2="1258.3203"/><line style="stroke:#334155;stroke-width:1.0;" x1="1272" x2="1272" y1="1258.3203" y2="1280.3203"/><polygon fill="#334155" points="1268,1270.3203,1272,1280.3203,1276,1270.3203,1272,1274.3203" style="stroke:#334155;stroke-width:1.0;"/><line style="stroke:#334155;stroke-width:1.0;" x1="985.5" x2="985.5" y1="1314.2891" y2="1332.2891"/><line style="stroke:#334155;stroke-width:1.0;" x1="985.5" x2="1116.75" y1="1332.2891" y2="1332.2891"/><polygon fill="#334155" points="1106.75,1328.2891,1116.75,1332.2891,1106.75,1336.2891,1110.75,1332.2891" style="stroke:#334155;stroke-width:1.0;"/><line style="stroke:#334155;stroke-width:1.0;" x1="1272" x2="1272" y1="1314.2891" y2="1332.2891"/><line style="stroke:#334155;stroke-width:1.0;" x1="1272" x2="1140.75" y1="1332.2891" y2="1332.2891"/><polygon fill="#334155" points="1150.75,1328.2891,1140.75,1332.2891,1150.75,1336.2891,1146.75,1332.2891" style="stroke:#334155;stroke-width:1.0;"/><line style="stroke:#334155;stroke-width:1.0;" x1="1128.75" x2="1128.75" y1="1226.3203" y2="1246.3203"/><polygon fill="#334155" points="1124.75,1236.3203,1128.75,1246.3203,1132.75,1236.3203,1128.75,1240.3203" style="stroke:#334155;stroke-width:1.0;"/><line style="stroke:#334155;stroke-width:1.0;" x1="1128.75" x2="1128.75" y1="1344.2891" y2="1364.2891"/><polygon fill="#334155" points="1124.75,1354.2891,1128.75,1364.2891,1132.75,1354.2891,1128.75,1358.2891" style="stroke:#334155;stroke-width:1.0;"/><line style="stroke:#334155;stroke-width:1.0;" x1="693.375" x2="396" y1="363.5" y2="363.5"/><line style="stroke:#334155;stroke-width:1.0;" x1="396" x2="396" y1="363.5" y2="421.7969"/><polygon fill="#334155" points="392,411.7969,396,421.7969,400,411.7969,396,415.7969" style="stroke:#334155;stroke-width:1.0;"/><line style="stroke:#334155;stroke-width:1.0;" x1="831.375" x2="1128.75" y1="363.5" y2="363.5"/><line style="stroke:#334155;stroke-width:1.0;" x1="1128.75" x2="1128.75" y1="363.5" y2="421.7969"/><polygon fill="#334155" points="1124.75,411.7969,1128.75,421.7969,1132.75,411.7969,1128.75,415.7969" style="stroke:#334155;stroke-width:1.0;"/><line style="stroke:#334155;stroke-width:1.0;" x1="1128.75" x2="1128.75" y1="1398.2578" y2="1416.2578"/><line style="stroke:#334155;stroke-width:1.0;" x1="1128.75" x2="762.375" y1="1416.2578" y2="1416.2578"/><line style="stroke:#334155;stroke-width:1.0;" x1="762.375" x2="762.375" y1="319.5" y2="351.5"/><polygon fill="#334155" points="758.375,341.5,762.375,351.5,766.375,341.5,762.375,345.5" style="stroke:#334155;stroke-width:1.0;"/><!--SRC=[VLRRRXit47tVho3SXoP0PCH9RAVsGo7haWfm4yENlbExin8hBhdbnSwcoB_t3BbQIxPh0nPMEpEScJDd3XLKq2GcrWIf33cnC3v8KvAufjAQKi4uBeEwLw4h_4QPLZhP2B-MbNrGPYLggJtjM2vakLav6qqriTewySiy_UruZ9sp3xtnuyTFHyV7EyQAQXbrkANlOQpLoZHaWj1KXnqVsTSZ_Yt42_a-pyVp2LkigyZrRp-T7X-V_8QtStJQlti_FphzCCQxgPADDTMpesOVPf_dxtSSNZpn9aZtUEJfoSaCBsV38QVpe-dHjFXPUFOh2lGGL53MY8DlIq_kdeGqbRXGfZf87PrTawp4v5hubift0c4XUl5jifY-IvuLQGeab0d0vXm1gXPl3cuTggTA82LzRxKgLKWnedNauVZxmLiHrcJ4cuxyMqGXqHSA_8xz1BniT9ZxiXCROn-CK1N2LAt8SHB2cCKRO_lGQxZhL3hIAH-O2a-FgPHljUo4aGsTvx0hSXxUAQlBHwIIIqSou35Ll4Gdt9xjUq_fJQLgW5YaPgSP0aV_HFA8UzRS3iZPDqEB2cxYiidGR86iaVyv__k2OQYLQx8ld_UWmXeXMjk7KMm581nYXzKffTPUHA2dKwTQrLHs9LP9UJ6TNSvkPrFkUej20WmcOmEE1lyEpxSeDnOWir-jZDJg1ogKTS3dq00NXTWo5qeLX_x4lm-sBNQdjeF9vL3GH4llCUHIicMBKWAPC_00c6eeCxXEBX7XwIKkfMBJDF9KOcRrXgZTB_-yTq_byKEUxCjPQmdzgLvB6Q8pJC9eV2nByhwEm9nSm_bGobR303DavN-JWrXx0F4ATgc3gLDr47_WKOFZ0uqcje4xZ_O-xq-kER63-_MnRQrZIbVf01zTBRUiIetUcKSVS44rJGm9u1nGWPhbIzJk6_yRrfIfN4kpmhuHUCoWTwaSFenRUGNkip-tt2e7zgk1mgc_aEItFteB9g_wO-b1hhZyVjT7lEkvWu73qOWgiY81e6m7yQJ1yaWl98RBgWxiZ3MZfRRbXXEqeAL0VL0pN0EASTcL5t-uW-JD4wnVXsxSjheJrk1ZVr3AZD02UezjnVNiZMnV_bX7DYepszYHRGUyKNXOdpz5kkTfJz6aE1mQVHfukiyeCoXlRmujQcrbKbO80_1NgtKengvSK-XQEYj6WuIEKkEZB6YZ7jxYUjZPWQ2UeoRNi_7jukiNFDvTJVFZEDUmxpYUt2x-cXNpl8NxjlbuSJcRug7Ni-9k3pLssTL_VAqTCP4QfendCq4KCeDyqHEwfrf2CvqXxv5SBi6wq4rj0vRc8SE4to0j3T_IpuOd7YlSYGH1k5d7W9yhvbOrP6DOc1kcSkK7ns41SAtnBNrbGTUkDr-m8alNfIcatY_WDQ8QfOQ1ouuujTzdCGj84w69EBLBL621G8NRhNEuICZzwXzPFgmAgzuXaYsQLXFlOUQNjdR3gwEz5O5lJIyMN_EW7jl8kz7likSz6oxfHWOG22_kYSkmSSM29SDMT7sA1KeUzt-MRimCMlfuYGqwUSX4JR0K_m40]--></g></svg>