<?xml version="1.0" encoding="UTF-8" standalone="no"?><svg xmlns="http://www.w3.org/2000/svg" xmlns:xlink="http://www.w3.org/1999/xlink" contentStyleType="text/css" height="1350px" preserveAspectRatio="none" style="width:1315px;height:1350px;background:#FFFFFF;" version="1.1" viewBox="0 0 1315 1350" width="1315px" zoomAndPan="magnify"><defs/><g><text fill="#000000" font-family="sans-serif" font-size="14" font-weight="bold" lengthAdjust="spacing" textLength="314" x="502.25" y="27.9951">Container Instance Reconcile Sequence</text><rect fill="none" height="254.6719" style="stroke:#475569;stroke-width:1.5;" width="1041" x="268.5" y="193.8594"/><rect fill="none" height="223.5391" style="stroke:#475569;stroke-width:1.5;" width="1021" x="278.5" y="217.9922"/><rect fill="none" height="119.3359" style="stroke:#475569;stroke-width:1.5;" width="1001" x="288.5" y="315.1953"/><rect fill="none" height="648.7344" style="stroke:#475569;stroke-width:1.5;" width="1289.5" x="10" y="462.5313"/><rect fill="none" height="104.5313" style="stroke:#475569;stroke-width:1.5;" width="1001" x="288.5" y="486.6641"/><rect fill="none" height="367.2578" style="stroke:#475569;stroke-width:1.5;" width="1168" x="20" y="707.875"/><rect fill="none" height="46.2656" style="stroke:#475569;stroke-width:1.5;" width="406.5" x="30" y="903.3359"/><rect fill="none" height="46.2656" style="stroke:#475569;stroke-width:1.5;" width="879" x="288.5" y="1021.8672"/><line style="stroke:#94A3B8;stroke-width:0.5;stroke-dasharray:5.0,5.0;" x1="76" x2="76" y1="118.5938" y2="1269.3281"/><line style="stroke:#94A3B8;stroke-width:0.5;stroke-dasharray:5.0,5.0;" x1="362.5" x2="362.5" y1="118.5938" y2="1269.3281"/><line style="stroke:#94A3B8;stroke-width:0.5;stroke-dasharray:5.0,5.0;" x1="1139.5" x2="1139.5" y1="118.5938" y2="1269.3281"/><line style="stroke:#94A3B8;stroke-width:0.5;stroke-dasharray:5.0,5.0;" x1="1223.5" x2="1223.5" y1="118.5938" y2="1269.3281"/><text fill="#000000" font-family="sans-serif" font-size="14" lengthAdjust="spacing" textLength="67" x="40" y="115.292">Controller</text><ellipse cx="76.5" cy="50.7969" fill="#E0F2FE" rx="8" ry="8" style="stroke:#0F766E;stroke-width:0.5;"/><path d="M76.5,58.7969 L76.5,85.7969 M63.5,66.7969 L89.5,66.7969 M76.5,85.7969 L63.5,100.7969 M76.5,85.7969 L89.5,100.7969 " fill="none" style="stroke:#0F766E;stroke-width:0.5;"/><text fill="#000000" font-family="sans-serif" font-size="14" lengthAdjust="spacing" textLength="67" x="40" y="1281.3232">Controller</text><ellipse cx="76.5" cy="1293.125" fill="#E0F2FE" rx="8" ry="8" style="stroke:#0F766E;stroke-width:0.5;"/><path d="M76.5,1301.125 L76.5,1328.125 M63.5,1309.125 L89.5,1309.125 M76.5,1328.125 L63.5,1343.125 M76.5,1328.125 L89.5,1343.125 " fill="none" style="stroke:#0F766E;stroke-width:0.5;"/><rect fill="#F8FAFC" height="30.2969" rx="2.5" ry="2.5" style="stroke:#475569;stroke-width:0.5;" width="128" x="298.5" y="87.2969"/><text fill="#000000" font-family="sans-serif" font-size="14" lengthAdjust="spacing" textLength="114" x="305.5" y="107.292">Service Manager</text><rect fill="#F8FAFC" height="30.2969" rx="2.5" ry="2.5" style="stroke:#475569;stroke-width:0.5;" width="128" x="298.5" y="1268.3281"/><text fill="#000000" font-family="sans-serif" font-size="14" lengthAdjust="spacing" textLength="114" x="305.5" y="1288.3232">Service Manager</text><text fill="#000000" font-family="sans-serif" font-size="14" lengthAdjust="spacing" textLength="24" x="1124.5" y="115.292">OCI</text><path d="M1121.5,66.2969 C1121.5,56.2969 1139.5,56.2969 1139.5,56.2969 C1139.5,56.2969 1157.5,56.2969 1157.5,66.2969 L1157.5,92.2969 C1157.5,102.2969 1139.5,102.2969 1139.5,102.2969 C1139.5,102.2969 1121.5,102.2969 1121.5,92.2969 L1121.5,66.2969 " fill="#E2E2F0" style="stroke:#181818;stroke-width:1.5;"/><path d="M1121.5,66.2969 C1121.5,76.2969 1139.5,76.2969 1139.5,76.2969 C1139.5,76.2969 1157.5,76.2969 1157.5,66.2969 " fill="none" style="stroke:#181818;stroke-width:1.5;"/><text fill="#000000" font-family="sans-serif" font-size="14" lengthAdjust="spacing" textLength="24" x="1124.5" y="1281.3232">OCI</text><path d="M1121.5,1294.625 C1121.5,1284.625 1139.5,1284.625 1139.5,1284.625 C1139.5,1284.625 1157.5,1284.625 1157.5,1294.625 L1157.5,1320.625 C1157.5,1330.625 1139.5,1330.625 1139.5,1330.625 C1139.5,1330.625 1121.5,1330.625 1121.5,1320.625 L1121.5,1294.625 " fill="#E2E2F0" style="stroke:#181818;stroke-width:1.5;"/><path d="M1121.5,1294.625 C1121.5,1304.625 1139.5,1304.625 1139.5,1304.625 C1139.5,1304.625 1157.5,1304.625 1157.5,1294.625 " fill="none" style="stroke:#181818;stroke-width:1.5;"/><text fill="#000000" font-family="sans-serif" font-size="14" lengthAdjust="spacing" textLength="106" x="1167.5" y="115.292">Kubernetes API</text><path d="M1205.5,66.2969 C1205.5,56.2969 1223.5,56.2969 1223.5,56.2969 C1223.5,56.2969 1241.5,56.2969 1241.5,66.2969 L1241.5,92.2969 C1241.5,102.2969 1223.5,102.2969 1223.5,102.2969 C1223.5,102.2969 1205.5,102.2969 1205.5,92.2969 L1205.5,66.2969 " fill="#E2E2F0" style="stroke:#181818;stroke-width:1.5;"/><path d="M1205.5,66.2969 C1205.5,76.2969 1223.5,76.2969 1223.5,76.2969 C1223.5,76.2969 1241.5,76.2969 1241.5,66.2969 " fill="none" style="stroke:#181818;stroke-width:1.5;"/><text fill="#000000" font-family="sans-serif" font-size="14" lengthAdjust="spacing" textLength="106" x="1167.5" y="1281.3232">Kubernetes API</text><path d="M1205.5,1294.625 C1205.5,1284.625 1223.5,1284.625 1223.5,1284.625 C1223.5,1284.625 1241.5,1284.625 1241.5,1294.625 L1241.5,1320.625 C1241.5,1330.625 1223.5,1330.625 1223.5,1330.625 C1223.5,1330.625 1205.5,1330.625 1205.5,1320.625 L1205.5,1294.625 " fill="#E2E2F0" style="stroke:#181818;stroke-width:1.5;"/><path d="M1205.5,1294.625 C1205.5,1304.625 1223.5,1304.625 1223.5,1304.625 C1223.5,1304.625 1241.5,1304.625 1241.5,1294.625 " fill="none" style="stroke:#181818;stroke-width:1.5;"/><polygon fill="#334155" points="350.5,145.7266,360.5,149.7266,350.5,153.7266,354.5,149.7266" style="stroke:#334155;stroke-width:1.0;"/><line style="stroke:#334155;stroke-width:1.0;" x1="76.5" x2="356.5" y1="149.7266" y2="149.7266"/><text fill="#000000" font-family="sans-serif" font-size="13" font-weight="bold" lengthAdjust="spacing" textLength="9" x="83.5" y="144.6606">1</text><text fill="#000000" font-family="sans-serif" font-size="13" lengthAdjust="spacing" textLength="239" x="96.5" y="144.6606">reconcile desired spec and live status</text><polygon fill="#334155" points="1211.5,174.8594,1221.5,178.8594,1211.5,182.8594,1215.5,178.8594" style="stroke:#334155;stroke-width:1.0;"/><line style="stroke:#334155;stroke-width:1.0;" x1="362.5" x2="1217.5" y1="178.8594" y2="178.8594"/><text fill="#000000" font-family="sans-serif" font-size="13" font-weight="bold" lengthAdjust="spacing" textLength="9" x="369.5" y="173.7935">2</text><text fill="#000000" font-family="sans-serif" font-size="13" lengthAdjust="spacing" textLength="212" x="382.5" y="173.7935">read CR status and finalizer state</text><path d="M268.5,193.8594 L438.5,193.8594 L438.5,200.9922 L428.5,210.9922 L268.5,210.9922 L268.5,193.8594 " fill="#F8FAFC" style="stroke:#475569;stroke-width:1.5;"/><rect fill="none" height="254.6719" style="stroke:#475569;stroke-width:1.5;" width="1041" x="268.5" y="193.8594"/><text fill="#000000" font-family="sans-serif" font-size="13" font-weight="bold" lengthAdjust="spacing" textLength="125" x="283.5" y="206.9263">Lookup and bind</text><path d="M278.5,217.9922 L342.5,217.9922 L342.5,225.125 L332.5,235.125 L278.5,235.125 L278.5,217.9922 " fill="#F8FAFC" style="stroke:#475569;stroke-width:1.5;"/><rect fill="none" height="223.5391" style="stroke:#475569;stroke-width:1.5;" width="1021" x="278.5" y="217.9922"/><text fill="#000000" font-family="sans-serif" font-size="13" font-weight="bold" lengthAdjust="spacing" textLength="19" x="293.5" y="231.0591">alt</text><text fill="#000000" font-family="sans-serif" font-size="11" font-weight="bold" lengthAdjust="spacing" textLength="256" x="357.5" y="230.2026">[tracked or explicit OCID already exists]</text><polygon fill="#334155" points="1127.5,252.2578,1137.5,256.2578,1127.5,260.2578,1131.5,256.2578" style="stroke:#334155;stroke-width:1.0;"/><line style="stroke:#334155;stroke-width:1.0;" x1="362.5" x2="1133.5" y1="256.2578" y2="256.2578"/><text fill="#000000" font-family="sans-serif" font-size="13" font-weight="bold" lengthAdjust="spacing" textLength="9" x="369.5" y="251.1919">3</text><text fill="#000000" font-family="sans-serif" font-size="13" lengthAdjust="spacing" textLength="278" x="382.5" y="251.1919">get the current resource by known identifier</text><line style="stroke:#475569;stroke-width:1.0;stroke-dasharray:2.0,2.0;" x1="278.5" x2="1299.5" y1="265.2578" y2="265.2578"/><text fill="#000000" font-family="sans-serif" font-size="11" font-weight="bold" lengthAdjust="spacing" textLength="145" x="283.5" y="275.4683">[no OCID is bound yet]</text><polygon fill="#334155" points="1127.5,296.1953,1137.5,300.1953,1127.5,304.1953,1131.5,300.1953" style="stroke:#334155;stroke-width:1.0;"/><line style="stroke:#334155;stroke-width:1.0;" x1="362.5" x2="1133.5" y1="300.1953" y2="300.1953"/><text fill="#000000" font-family="sans-serif" font-size="13" font-weight="bold" lengthAdjust="spacing" textLength="9" x="369.5" y="295.1294">4</text><text fill="#000000" font-family="sans-serif" font-size="13" lengthAdjust="spacing" textLength="193" x="382.5" y="295.1294">list resources by display name</text><path d="M288.5,315.1953 L352.5,315.1953 L352.5,322.3281 L342.5,332.3281 L288.5,332.3281 L288.5,315.1953 " fill="#F8FAFC" style="stroke:#475569;stroke-width:1.5;"/><rect fill="none" height="119.3359" style="stroke:#475569;stroke-width:1.5;" width="1001" x="288.5" y="315.1953"/><text fill="#000000" font-family="sans-serif" font-size="13" font-weight="bold" lengthAdjust="spacing" textLength="19" x="303.5" y="328.2622">alt</text><text fill="#000000" font-family="sans-serif" font-size="11" font-weight="bold" lengthAdjust="spacing" textLength="162" x="367.5" y="327.4058">[existing resource found]</text><polygon fill="#334155" points="1211.5,349.4609,1221.5,353.4609,1211.5,357.4609,1215.5,353.4609" style="stroke:#334155;stroke-width:1.0;"/><line style="stroke:#334155;stroke-width:1.0;" x1="362.5" x2="1217.5" y1="353.4609" y2="353.4609"/><text fill="#000000" font-family="sans-serif" font-size="13" font-weight="bold" lengthAdjust="spacing" textLength="9" x="369.5" y="348.395">5</text><text fill="#000000" font-family="sans-serif" font-size="13" lengthAdjust="spacing" textLength="221" x="382.5" y="348.395">persist the resolved OCID in status</text><line style="stroke:#475569;stroke-width:1.0;stroke-dasharray:2.0,2.0;" x1="288.5" x2="1289.5" y1="362.4609" y2="362.4609"/><text fill="#000000" font-family="sans-serif" font-size="11" font-weight="bold" lengthAdjust="spacing" textLength="182" x="293.5" y="372.6714">[no existing resource found]</text><polygon fill="#334155" points="1127.5,393.3984,1137.5,397.3984,1127.5,401.3984,1131.5,397.3984" style="stroke:#334155;stroke-width:1.0;"/><line style="stroke:#334155;stroke-width:1.0;" x1="362.5" x2="1133.5" y1="397.3984" y2="397.3984"/><text fill="#000000" font-family="sans-serif" font-size="13" font-weight="bold" lengthAdjust="spacing" textLength="9" x="369.5" y="392.3325">6</text><text fill="#000000" font-family="sans-serif" font-size="13" lengthAdjust="spacing" textLength="152" x="382.5" y="392.3325">create the OCI resource</text><polygon fill="#334155" points="1211.5,422.5313,1221.5,426.5313,1211.5,430.5313,1215.5,426.5313" style="stroke:#334155;stroke-width:1.0;"/><line style="stroke:#334155;stroke-width:1.0;" x1="362.5" x2="1217.5" y1="426.5313" y2="426.5313"/><text fill="#000000" font-family="sans-serif" font-size="13" font-weight="bold" lengthAdjust="spacing" textLength="9" x="369.5" y="421.4653">7</text><text fill="#000000" font-family="sans-serif" font-size="13" lengthAdjust="spacing" textLength="216" x="382.5" y="421.4653">persist the created OCID in status</text><path d="M10,462.5313 L74,462.5313 L74,469.6641 L64,479.6641 L10,479.6641 L10,462.5313 " fill="#F8FAFC" style="stroke:#475569;stroke-width:1.5;"/><rect fill="none" height="648.7344" style="stroke:#475569;stroke-width:1.5;" width="1289.5" x="10" y="462.5313"/><text fill="#000000" font-family="sans-serif" font-size="13" font-weight="bold" lengthAdjust="spacing" textLength="19" x="25" y="475.5981">alt</text><text fill="#000000" font-family="sans-serif" font-size="11" font-weight="bold" lengthAdjust="spacing" textLength="120" x="89" y="474.7417">[delete requested]</text><path d="M288.5,486.6641 L381.5,486.6641 L381.5,493.7969 L371.5,503.7969 L288.5,503.7969 L288.5,486.6641 " fill="#F8FAFC" style="stroke:#475569;stroke-width:1.5;"/><rect fill="none" height="104.5313" style="stroke:#475569;stroke-width:1.5;" width="1001" x="288.5" y="486.6641"/><text fill="#000000" font-family="sans-serif" font-size="13" font-weight="bold" lengthAdjust="spacing" textLength="48" x="303.5" y="499.731">Delete</text><polygon fill="#334155" points="1127.5,520.9297,1137.5,524.9297,1127.5,528.9297,1131.5,524.9297" style="stroke:#334155;stroke-width:1.0;"/><line style="stroke:#334155;stroke-width:1.0;" x1="362.5" x2="1133.5" y1="524.9297" y2="524.9297"/><text fill="#000000" font-family="sans-serif" font-size="13" font-weight="bold" lengthAdjust="spacing" textLength="9" x="369.5" y="519.8638">8</text><text fill="#000000" font-family="sans-serif" font-size="13" lengthAdjust="spacing" textLength="114" x="382.5" y="519.8638">submit OCI delete</text><polygon fill="#334155" points="1127.5,550.0625,1137.5,554.0625,1127.5,558.0625,1131.5,554.0625" style="stroke:#334155;stroke-width:1.0;"/><line style="stroke:#334155;stroke-width:1.0;" x1="362.5" x2="1133.5" y1="554.0625" y2="554.0625"/><text fill="#000000" font-family="sans-serif" font-size="13" font-weight="bold" lengthAdjust="spacing" textLength="9" x="369.5" y="548.9966">9</text><text fill="#000000" font-family="sans-serif" font-size="13" lengthAdjust="spacing" textLength="740" x="382.5" y="548.9966">Confirm deletion with follow-up GetContainerInstance calls until the lifecycle is DELETED or the resource is not found.</text><polygon fill="#334155" points="1211.5,579.1953,1221.5,583.1953,1211.5,587.1953,1215.5,583.1953" style="stroke:#334155;stroke-width:1.0;"/><line style="stroke:#334155;stroke-width:1.0;" x1="362.5" x2="1217.5" y1="583.1953" y2="583.1953"/><text fill="#000000" font-family="sans-serif" font-size="13" font-weight="bold" lengthAdjust="spacing" textLength="18" x="369.5" y="578.1294">10</text><text fill="#000000" font-family="sans-serif" font-size="13" lengthAdjust="spacing" textLength="289" x="391.5" y="578.1294">remove the finalizer after delete confirmation</text><line style="stroke:#475569;stroke-width:1.0;stroke-dasharray:2.0,2.0;" x1="10" x2="1299.5" y1="599.1953" y2="599.1953"/><text fill="#000000" font-family="sans-serif" font-size="11" font-weight="bold" lengthAdjust="spacing" textLength="147" x="15" y="609.4058">[OCI state is retryable]</text><polygon fill="#334155" points="87.5,630.1328,77.5,634.1328,87.5,638.1328,83.5,634.1328" style="stroke:#334155;stroke-width:1.0;"/><line style="stroke:#334155;stroke-width:1.0;stroke-dasharray:2.0,2.0;" x1="81.5" x2="361.5" y1="634.1328" y2="634.1328"/><text fill="#000000" font-family="sans-serif" font-size="13" font-weight="bold" lengthAdjust="spacing" textLength="18" x="93.5" y="629.0669">11</text><text fill="#000000" font-family="sans-serif" font-size="13" lengthAdjust="spacing" textLength="110" x="115.5" y="629.0669">requeue required</text><line style="stroke:#475569;stroke-width:1.0;stroke-dasharray:2.0,2.0;" x1="10" x2="1299.5" y1="643.1328" y2="643.1328"/><text fill="#000000" font-family="sans-serif" font-size="11" font-weight="bold" lengthAdjust="spacing" textLength="200" x="15" y="653.3433">[OCI state is failed or terminal]</text><polygon fill="#334155" points="87.5,674.0703,77.5,678.0703,87.5,682.0703,83.5,678.0703" style="stroke:#334155;stroke-width:1.0;"/><line style="stroke:#334155;stroke-width:1.0;stroke-dasharray:2.0,2.0;" x1="81.5" x2="361.5" y1="678.0703" y2="678.0703"/><text fill="#000000" font-family="sans-serif" font-size="13" font-weight="bold" lengthAdjust="spacing" textLength="18" x="93.5" y="673.0044">12</text><text fill="#000000" font-family="sans-serif" font-size="13" lengthAdjust="spacing" textLength="240" x="115.5" y="673.0044">unsuccessful terminal reconcile result</text><line style="stroke:#475569;stroke-width:1.0;stroke-dasharray:2.0,2.0;" x1="10" x2="1299.5" y1="687.0703" y2="687.0703"/><text fill="#000000" font-family="sans-serif" font-size="11" font-weight="bold" lengthAdjust="spacing" textLength="203" x="15" y="697.2808">[OCI state is active and usable]</text><path d="M20,707.875 L167,707.875 L167,715.0078 L157,725.0078 L20,725.0078 L20,707.875 " fill="#F8FAFC" style="stroke:#475569;stroke-width:1.5;"/><rect fill="none" height="367.2578" style="stroke:#475569;stroke-width:1.5;" width="1168" x="20" y="707.875"/><text fill="#000000" font-family="sans-serif" font-size="13" font-weight="bold" lengthAdjust="spacing" textLength="102" x="35" y="720.9419">Drift handling</text><path d="M324,730.0078 L324,891.0078 L1178,891.0078 L1178,740.0078 L1168,730.0078 L324,730.0078 " fill="#FEFFDD" style="stroke:#181818;stroke-width:0.5;"/><path d="M1168,730.0078 L1168,740.0078 L1178,740.0078 L1168,730.0078 " fill="#FEFFDD" style="stroke:#181818;stroke-width:0.5;"/><text fill="#000000" font-family="sans-serif" font-size="13" lengthAdjust="spacing" textLength="171" x="330" y="747.0747">Supported update surface:</text><text fill="#000000" font-family="sans-serif" font-size="13" lengthAdjust="spacing" textLength="94" x="330" y="762.2075">- display name</text><text fill="#000000" font-family="sans-serif" font-size="13" lengthAdjust="spacing" textLength="96" x="330" y="777.3403">- freeform tags</text><text fill="#000000" font-family="sans-serif" font-size="13" lengthAdjust="spacing" textLength="88" x="330" y="792.4731">- defined tags</text><text fill="#000000" font-family="sans-serif" font-size="13" lengthAdjust="spacing" textLength="139" x="330" y="807.606">Reject before mutate:</text><text fill="#000000" font-family="sans-serif" font-size="13" lengthAdjust="spacing" textLength="154" x="330" y="822.7388">- availabilityDomain drift</text><text fill="#000000" font-family="sans-serif" font-size="13" lengthAdjust="spacing" textLength="77" x="330" y="837.8716">- shape drift</text><text fill="#000000" font-family="sans-serif" font-size="13" lengthAdjust="spacing" textLength="116" x="330" y="853.0044">- faultDomain drift</text><text fill="#000000" font-family="sans-serif" font-size="13" lengthAdjust="spacing" textLength="270" x="330" y="868.1372">- gracefulShutdownTimeoutInSeconds drift</text><text fill="#000000" font-family="sans-serif" font-size="13" lengthAdjust="spacing" textLength="180" x="330" y="883.27">- containerRestartPolicy drift</text><path d="M30,903.3359 L100,903.3359 L100,910.4688 L90,920.4688 L30,920.4688 L30,903.3359 " fill="#F8FAFC" style="stroke:#475569;stroke-width:1.5;"/><rect fill="none" height="46.2656" style="stroke:#475569;stroke-width:1.5;" width="406.5" x="30" y="903.3359"/><text fill="#000000" font-family="sans-serif" font-size="13" font-weight="bold" lengthAdjust="spacing" textLength="25" x="45" y="916.4028">opt</text><text fill="#000000" font-family="sans-serif" font-size="11" font-weight="bold" lengthAdjust="spacing" textLength="286" x="115" y="915.5464">[unsupported or immutable drift is detected]</text><polygon fill="#334155" points="87.5,937.6016,77.5,941.6016,87.5,945.6016,83.5,941.6016" style="stroke:#334155;stroke-width:1.0;"/><line style="stroke:#334155;stroke-width:1.0;stroke-dasharray:2.0,2.0;" x1="81.5" x2="361.5" y1="941.6016" y2="941.6016"/><text fill="#000000" font-family="sans-serif" font-size="13" font-weight="bold" lengthAdjust="spacing" textLength="18" x="93.5" y="936.5356">13</text><text fill="#000000" font-family="sans-serif" font-size="13" lengthAdjust="spacing" textLength="169" x="115.5" y="936.5356">reject before OCI mutation</text><polygon fill="#334155" points="1127.5,973.7344,1137.5,977.7344,1127.5,981.7344,1131.5,977.7344" style="stroke:#334155;stroke-width:1.0;"/><line style="stroke:#334155;stroke-width:1.0;" x1="362.5" x2="1133.5" y1="977.7344" y2="977.7344"/><text fill="#000000" font-family="sans-serif" font-size="13" font-weight="bold" lengthAdjust="spacing" textLength="18" x="369.5" y="972.6685">14</text><text fill="#000000" font-family="sans-serif" font-size="13" lengthAdjust="spacing" textLength="624" x="391.5" y="972.6685">Move the container instance compartment before reconciling supported tag or display-name drift.</text><polygon fill="#334155" points="1127.5,1002.8672,1137.5,1006.8672,1127.5,1010.8672,1131.5,1006.8672" style="stroke:#334155;stroke-width:1.0;"/><line style="stroke:#334155;stroke-width:1.0;" x1="362.5" x2="1133.5" y1="1006.8672" y2="1006.8672"/><text fill="#000000" font-family="sans-serif" font-size="13" font-weight="bold" lengthAdjust="spacing" textLength="18" x="369.5" y="1001.8013">15</text><text fill="#000000" font-family="sans-serif" font-size="13" lengthAdjust="spacing" textLength="570" x="391.5" y="1001.8013">Run duplicate-name cleanup as a separate non-blocking pass over eligible OCI resources.</text><path d="M288.5,1021.8672 L358.5,1021.8672 L358.5,1029 L348.5,1039 L288.5,1039 L288.5,1021.8672 " fill="#F8FAFC" style="stroke:#475569;stroke-width:1.5;"/><rect fill="none" height="46.2656" style="stroke:#475569;stroke-width:1.5;" width="879" x="288.5" y="1021.8672"/><text fill="#000000" font-family="sans-serif" font-size="13" font-weight="bold" lengthAdjust="spacing" textLength="25" x="303.5" y="1034.9341">opt</text><text fill="#000000" font-family="sans-serif" font-size="11" font-weight="bold" lengthAdjust="spacing" textLength="258" x="373.5" y="1034.0776">[supported drift or collection diff exists]</text><polygon fill="#334155" points="1127.5,1056.1328,1137.5,1060.1328,1127.5,1064.1328,1131.5,1060.1328" style="stroke:#334155;stroke-width:1.0;"/><line style="stroke:#334155;stroke-width:1.0;" x1="362.5" x2="1133.5" y1="1060.1328" y2="1060.1328"/><text fill="#000000" font-family="sans-serif" font-size="13" font-weight="bold" lengthAdjust="spacing" textLength="18" x="369.5" y="1055.0669">16</text><text fill="#000000" font-family="sans-serif" font-size="13" lengthAdjust="spacing" textLength="277" x="391.5" y="1055.0669">apply the supported in-place mutation path</text><polygon fill="#334155" points="87.5,1099.2656,77.5,1103.2656,87.5,1107.2656,83.5,1103.2656" style="stroke:#334155;stroke-width:1.0;"/><line style="stroke:#334155;stroke-width:1.0;stroke-dasharray:2.0,2.0;" x1="81.5" x2="361.5" y1="1103.2656" y2="1103.2656"/><text fill="#000000" font-family="sans-serif" font-size="13" font-weight="bold" lengthAdjust="spacing" textLength="18" x="93.5" y="1098.1997">17</text><text fill="#000000" font-family="sans-serif" font-size="13" lengthAdjust="spacing" textLength="169" x="115.5" y="1098.1997">successful active reconcile</text><path d="M51,1123.2656 L51,1254.2656 L1163,1254.2656 L1163,1133.2656 L1153,1123.2656 L51,1123.2656 " fill="#FEFFDD" style="stroke:#181818;stroke-width:0.5;"/><path d="M1153,1123.2656 L1153,1133.2656 L1163,1133.2656 L1153,1123.2656 " fill="#FEFFDD" style="stroke:#181818;stroke-width:0.5;"/><text fill="#000000" font-family="sans-serif" font-size="13" lengthAdjust="spacing" textLength="105" x="57" y="1140.3325">Boundary notes:</text><text fill="#000000" font-family="sans-serif" font-size="13" lengthAdjust="spacing" textLength="433" x="57" y="1155.4653">- Best-effort cleanup remains non-blocking and must stay within the</text><text fill="#000000" font-family="sans-serif" font-size="13" lengthAdjust="spacing" textLength="208" x="73" y="1170.5981">controller's eligible duplicate set.</text><text fill="#000000" font-family="sans-serif" font-size="13" lengthAdjust="spacing" textLength="438" x="57" y="1185.731">- Implementation lookup also treats INACTIVE container instances as</text><text fill="#000000" font-family="sans-serif" font-size="13" lengthAdjust="spacing" textLength="395" x="73" y="1200.8638">existing matches even though that state is outside the formal</text><text fill="#000000" font-family="sans-serif" font-size="13" lengthAdjust="spacing" textLength="111" x="73" y="1215.9966">lifecycle partition.</text><text fill="#000000" font-family="sans-serif" font-size="13" lengthAdjust="spacing" textLength="108" x="57" y="1231.1294">Sequence notes:</text><text fill="#000000" font-family="sans-serif" font-size="13" lengthAdjust="spacing" textLength="434" x="57" y="1246.2622">- Managed cleanup should never block a successful active reconcile.</text><!--SRC=[bLPDKoCt4BtFhr2HGounjGcmot98bJ7sbclP3GLKxhAcnrRGI1Dzm3gf_FUyrend1cFOn5NWihhL7wzVTolgQ4ZCd8rIM_9YQKEKLf6u9UMiqX3UqP-9S5J859rDzOfy4HwqRQINjGWRMRedRTUYaYRGI78frSFQksJBcJFEYnyM-JFIc7hldZhXoSdfpsTd8s59bKmctjEtE3LwRMkoKHYgujXv5vhukn3YHlgebMwaZIzTdo-cYzcUalCb-KxXzCFPsVkFKBZM5Lq3YcVIZwVJaylpiVILt8JuXDFciEbMz6feKnMTVo6UlrlyifZtuh7XTuiFxz_FYtyAoI9nn5NqpXZoHq86CVmicY5hSNH7_b43io_IodMdsvrrHqKferp9GEBejzaoA-1xTFevWGIM8WKnlMaLFf-7eXXSYiclUqOlXEyfLLBGdaeH6b92sb8O_KW2p8if5C-liI7Ovjko5BFRJYlVghILHly59Jwaec3a6d7jt0E-M6EbRGdif8aYUa0Bdq2AlZK6S4JEwWf2Dht5gGunG5k8bo50yqAi2MOs95JodjdeARZa0ULgAnwiUx92bpZNbGQ6GX3wGLZNUj51hBYiOalnBHy6GVI60rikTMYCt0ehQyetEPiSB7TT7qF5rhFyaEqCOKC-i7dEWU-PH-3HHcTtwFFrNU3_rqbEG07DIDa7VlTN_tjahO73WMNd_9__2WQY90CUmWqcGS0ro5iMN6N1Mr27jAfR4dHMtb86jIljwrPJEokUTDm03sFSqmJkFb7ifsW_H9Kq9eW4IfYSci7uK5k53W0ThkRNy_lv5HDoLv2CCKJMnHRgu-8Dq3pLxh55UkW4MKNyxr1HRT2I0zu1nxNbb7FBi3DFqM_bod3w-vxWQkZfYnRbrABD3Np0MYNHuBdB44VDONtVRB8XAR0zLCdqrqRZ0j1W4nnmXi77WuCxFOKkXQxwNbTHR20n8716yQl39G3czyBvYMTRnyxKDCup-L9Jie-GV2KLNNJooSjcvCFA4rKEv8Xo7GPLGbLWQdHuIt-GYcB5sYJgn7aCjkKZi9ChRNJSNhaQL18bfz4hODSsj7UMb-H1xJK67W7HkqsAMD7sNjVaKbpQEmQs37lgQiVUM_GHziMDmupSZfJ07YPccxPhOYxR3Y_KMzUSqCfq4N9zIf1GjKrvYCSls3L6XmkT4Mgvksl-LnlqowuN-aGmF7Pzw6fUWVa9qPdViOl7sv06QiMfT5MUS9NRR8xVSdsRW7tYdO9wjfVGuzBo4W99yKpXvqhacMedA-FK0tjjP0Wj7mdl6yt0ZGTcEEw17k9haKM4YZ5JUH2Lkgh6o-lLC6NJc6s6Q32exGIPAkgXHbXnipTilrkvKVjsBTatRpkfXzuRhdLzTybpJlfjvbRWRfY8Ir1mGXKA5NiaCUrGrV0SG-xyEc5neD3RF9BH1iYm0qBrpduC0yfzgL2ONDY9MDQD8QP7Yu7fNX0cEBmRi8w2M7wTpkwNlyyFq0ibtY7VRqpCNBM1X1w90t9flS6NZCFiGYi6F1VQyOtXaGSbVuObaPzj7D1nBa7trXtXrDQZx34AS6JGfSH8Pv2OVQyNvxZec_fV]--></g></svg>