<?xml version="1.0" encoding="UTF-8" standalone="no"?><svg xmlns="http://www.w3.org/2000/svg" xmlns:xlink="http://www.w3.org/1999/xlink" contentStyleType="text/css" height="514px" preserveAspectRatio="none" style="width:2257px;height:514px;background:#FFFFFF;" version="1.1" viewBox="0 0 2257 514" width="2257px" zoomAndPan="magnify"><defs/><g><text fill="#000000" font-family="sans-serif" font-size="14" font-weight="bold" lengthAdjust="spacing" textLength="346" x="948.5" y="22.9951">Container Instance Reconcile State Machine</text><ellipse cx="16" cy="356.2969" fill="#222222" rx="10" ry="10" style="stroke:none;stroke-width:1.0;"/><g id="Observe"><rect fill="#F8FAFC" height="50.2656" rx="6" ry="6" style="stroke:#475569;stroke-width:0.5;" width="329" x="86" y="331.2969"/><line style="stroke:#475569;stroke-width:0.5;" x1="86" x2="415" y1="357.5938" y2="357.5938"/><text fill="#0F172A" font-family="sans-serif" font-size="14" lengthAdjust="spacing" textLength="58" x="221.5" y="349.292">Observe</text><text fill="#0F172A" font-family="sans-serif" font-size="12" lengthAdjust="spacing" textLength="309" x="91" y="373.7324">read spec, status, delete intent, and OCI lifecycle</text></g><rect fill="#F8FAFC" height="40" rx="6" ry="6" style="stroke:#475569;stroke-width:0.5;" width="122" x="475" y="336.2969"/><text fill="#0F172A" font-family="sans-serif" font-size="14" lengthAdjust="spacing" textLength="112" x="480" y="361.1436">ResolveByName</text><rect fill="#F8FAFC" height="40" rx="6" ry="6" style="stroke:#475569;stroke-width:0.5;" width="111" x="657" y="190.2969"/><text fill="#0F172A" font-family="sans-serif" font-size="14" lengthAdjust="spacing" textLength="101" x="662" y="215.1436">EvaluateReady</text><rect fill="#F8FAFC" height="40" rx="6" ry="6" style="stroke:#475569;stroke-width:0.5;" width="75" x="1261" y="340.2969"/><text fill="#0F172A" font-family="sans-serif" font-size="14" lengthAdjust="spacing" textLength="65" x="1266" y="365.1436">Retryable</text><rect fill="#F8FAFC" height="40" rx="6" ry="6" style="stroke:#475569;stroke-width:0.5;" width="50" x="687.5" y="427.2969"/><text fill="#0F172A" font-family="sans-serif" font-size="14" lengthAdjust="spacing" textLength="40" x="692.5" y="452.1436">Failed</text><rect fill="#F8FAFC" height="40" rx="6" ry="6" style="stroke:#475569;stroke-width:0.5;" width="173" x="828" y="115.2969"/><text fill="#0F172A" font-family="sans-serif" font-size="14" lengthAdjust="spacing" textLength="163" x="833" y="140.1436">RejectUnsupportedDrift</text><rect fill="#F8FAFC" height="40" rx="6" ry="6" style="stroke:#475569;stroke-width:0.5;" width="53" x="1272" y="188.2969"/><text fill="#0F172A" font-family="sans-serif" font-size="14" lengthAdjust="spacing" textLength="43" x="1277" y="213.1436">Ready</text><rect fill="#F8FAFC" height="40" rx="6" ry="6" style="stroke:#475569;stroke-width:0.5;" width="142" x="843.5" y="190.2969"/><text fill="#0F172A" font-family="sans-serif" font-size="14" lengthAdjust="spacing" textLength="132" x="848.5" y="215.1436">MoveCompartment</text><rect fill="#F8FAFC" height="40" rx="6" ry="6" style="stroke:#475569;stroke-width:0.5;" width="97" x="1082.5" y="188.2969"/><text fill="#0F172A" font-family="sans-serif" font-size="14" lengthAdjust="spacing" textLength="87" x="1087.5" y="213.1436">ApplyUpdate</text><rect fill="#F8FAFC" height="40" rx="6" ry="6" style="stroke:#475569;stroke-width:0.5;" width="140" x="1061" y="263.2969"/><text fill="#0F172A" font-family="sans-serif" font-size="14" lengthAdjust="spacing" textLength="130" x="1066" y="288.1436">CleanupDuplicates</text><rect fill="#F8FAFC" height="40" rx="6" ry="6" style="stroke:#475569;stroke-width:0.5;" width="113" x="1537" y="360.2969"/><text fill="#0F172A" font-family="sans-serif" font-size="14" lengthAdjust="spacing" textLength="103" x="1542" y="385.1436">DeletePending</text><rect fill="#F8FAFC" height="40" rx="6" ry="6" style="stroke:#475569;stroke-width:0.5;" width="65" x="2018" y="303.2969"/><text fill="#0F172A" font-family="sans-serif" font-size="14" lengthAdjust="spacing" textLength="55" x="2023" y="328.1436">Deleted</text><g id="elem_GMN34"><path d="M1396,49.2969 L1396,204.2969 L1325.2,208.2969 L1396,212.2969 L1396,319.6875 A6,6 0 0 0 1402,325.6875 L1785,325.6875 A6,6 0 0 0 1791,319.6875 L1791,53.2969 L1781,43.2969 L1402,43.2969 A6,6 0 0 0 1396,49.2969 " fill="#FFF7ED" style="stroke:#181818;stroke-width:0.5;"/><path d="M1781,43.2969 L1781,50.2969 A3,3 0 0 0 1784,53.2969 L1791,53.2969 L1781,43.2969 " fill="#FFF7ED" style="stroke:#181818;stroke-width:0.5;"/><text fill="#0F172A" font-family="sans-serif" font-size="13" lengthAdjust="spacing" textLength="69" x="1402" y="60.3638">Archetype:</text><text fill="#0F172A" font-family="sans-serif" font-size="13" lengthAdjust="spacing" textLength="193" x="1402" y="75.4966">- resolved-drift-delete-cleanup</text><text fill="#0F172A" font-family="sans-serif" font-size="13" lengthAdjust="spacing" textLength="102" x="1402" y="90.6294">Update surface:</text><text fill="#0F172A" font-family="sans-serif" font-size="13" lengthAdjust="spacing" textLength="94" x="1402" y="105.7622">- display name</text><text fill="#0F172A" font-family="sans-serif" font-size="13" lengthAdjust="spacing" textLength="96" x="1402" y="120.895">- freeform tags</text><text fill="#0F172A" font-family="sans-serif" font-size="13" lengthAdjust="spacing" textLength="88" x="1402" y="136.0278">- defined tags</text><text fill="#0F172A" font-family="sans-serif" font-size="13" lengthAdjust="spacing" textLength="139" x="1402" y="151.1606">Reject before mutate:</text><text fill="#0F172A" font-family="sans-serif" font-size="13" lengthAdjust="spacing" textLength="154" x="1402" y="166.2935">- availabilityDomain drift</text><text fill="#0F172A" font-family="sans-serif" font-size="13" lengthAdjust="spacing" textLength="77" x="1402" y="181.4263">- shape drift</text><text fill="#0F172A" font-family="sans-serif" font-size="13" lengthAdjust="spacing" textLength="116" x="1402" y="196.5591">- faultDomain drift</text><text fill="#0F172A" font-family="sans-serif" font-size="13" lengthAdjust="spacing" textLength="270" x="1402" y="211.6919">- gracefulShutdownTimeoutInSeconds drift</text><text fill="#0F172A" font-family="sans-serif" font-size="13" lengthAdjust="spacing" textLength="180" x="1402" y="226.8247">- containerRestartPolicy drift</text><text fill="#0F172A" font-family="sans-serif" font-size="13" lengthAdjust="spacing" textLength="105" x="1402" y="241.9575">Boundary notes:</text><text fill="#0F172A" font-family="sans-serif" font-size="13" lengthAdjust="spacing" textLength="368" x="1402" y="257.0903">- Best-effort cleanup remains non-blocking and must stay</text><text fill="#0F172A" font-family="sans-serif" font-size="13" lengthAdjust="spacing" textLength="273" x="1418" y="272.2231">within the controller's eligible duplicate set.</text><text fill="#0F172A" font-family="sans-serif" font-size="13" lengthAdjust="spacing" textLength="354" x="1402" y="287.356">- Implementation lookup also treats INACTIVE container</text><text fill="#0F172A" font-family="sans-serif" font-size="13" lengthAdjust="spacing" textLength="358" x="1418" y="302.4888">instances as existing matches even though that state is</text><text fill="#0F172A" font-family="sans-serif" font-size="13" lengthAdjust="spacing" textLength="232" x="1418" y="317.6216">outside the formal lifecycle partition.</text></g><g id="elem_GMN37"><path d="M1851,384.2969 L1851,385.2969 L1650.46,389.2969 L1851,393.2969 L1851,488.2266 A6,6 0 0 0 1857,494.2266 L2244,494.2266 A6,6 0 0 0 2250,488.2266 L2250,388.2969 L2240,378.2969 L1857,378.2969 A6,6 0 0 0 1851,384.2969 " fill="#FFF7ED" style="stroke:#181818;stroke-width:0.5;"/><path d="M2240,378.2969 L2240,385.2969 A3,3 0 0 0 2243,388.2969 L2250,388.2969 L2240,378.2969 " fill="#FFF7ED" style="stroke:#181818;stroke-width:0.5;"/><text fill="#0F172A" font-family="sans-serif" font-size="13" lengthAdjust="spacing" textLength="90" x="1857" y="395.3638">Delete states:</text><text fill="#0F172A" font-family="sans-serif" font-size="13" lengthAdjust="spacing" textLength="102" x="1857" y="410.4966">- DeletePending</text><text fill="#0F172A" font-family="sans-serif" font-size="13" lengthAdjust="spacing" textLength="59" x="1857" y="425.6294">- Deleted</text><text fill="#0F172A" font-family="sans-serif" font-size="13" lengthAdjust="spacing" textLength="103" x="1857" y="440.7622">Delete workflow:</text><text fill="#0F172A" font-family="sans-serif" font-size="13" lengthAdjust="spacing" textLength="378" x="1857" y="455.895">- Confirm deletion with follow-up GetContainerInstance calls</text><text fill="#0F172A" font-family="sans-serif" font-size="13" lengthAdjust="spacing" textLength="323" x="1873" y="471.0278">until the lifecycle is DELETED or the resource is not</text><text fill="#0F172A" font-family="sans-serif" font-size="13" lengthAdjust="spacing" textLength="40" x="1873" y="486.1606">found.</text></g><!--link *start to Observe--><g id="link_*start_Observe"><path d="M26.08,356.2969 C26.08,356.2969 80.84,356.2969 80.84,356.2969 " fill="none" id="*start-to-Observe" style="stroke:#181818;stroke-width:1.0;"/><polygon fill="#181818" points="85.84,356.2969,76.84,352.2969,80.84,356.2969,76.84,360.2969,85.84,356.2969" style="stroke:#181818;stroke-width:1.0;"/></g><!--link Observe to ResolveByName--><g id="link_Observe_ResolveByName"><path d="M415.34,356.2969 C415.34,356.2969 469.86,356.2969 469.86,356.2969 " fill="none" id="Observe-to-ResolveByName" style="stroke:#181818;stroke-width:1.0;"/><polygon fill="#181818" points="474.86,356.2969,465.86,352.2969,469.86,356.2969,465.86,360.2969,474.86,356.2969" style="stroke:#181818;stroke-width:1.0;"/><text fill="#000000" font-family="sans-serif" font-size="13" lengthAdjust="spacing" textLength="163" x="443.6" y="369.3638">status/spec OCID missing</text></g><!--link ResolveByName to EvaluateReady--><g id="link_ResolveByName_EvaluateReady"><path d="M597.36,347.4969 C631.83,347.4969 668,347.4969 668,347.4969 C668,347.4969 668,235.5369 668,235.5369 " fill="none" id="ResolveByName-to-EvaluateReady" style="stroke:#181818;stroke-width:1.0;"/><polygon fill="#181818" points="668,230.5369,664,239.5369,668,235.5369,672,239.5369,668,230.5369" style="stroke:#181818;stroke-width:1.0;"/><text fill="#000000" font-family="sans-serif" font-size="13" lengthAdjust="spacing" textLength="123" x="669" y="339.9038">OCI state in ACTIVE</text></g><!--link ResolveByName to Retryable--><g id="link_ResolveByName_Retryable"><path d="M597.11,354.6969 C597.11,354.6969 1255.7,354.6969 1255.7,354.6969 " fill="none" id="ResolveByName-to-Retryable" style="stroke:#181818;stroke-width:1.0;"/><polygon fill="#181818" points="1260.7,354.6969,1251.7,350.6969,1255.7,354.6969,1251.7,358.6969,1260.7,354.6969" style="stroke:#181818;stroke-width:1.0;"/><text fill="#000000" font-family="sans-serif" font-size="13" lengthAdjust="spacing" textLength="217" x="708.41" y="367.7638">OCI state in CREATING, UPDATING</text></g><!--link ResolveByName to Failed--><g id="link_ResolveByName_Failed"><path d="M597.01,369.0969 C645.42,369.0969 705,369.0969 705,369.0969 C705,369.0969 705,422.1569 705,422.1569 " fill="none" id="ResolveByName-to-Failed" style="stroke:#181818;stroke-width:1.0;"/><polygon fill="#181818" points="705,427.1569,709,418.1569,705,422.1569,701,418.1569,705,427.1569" style="stroke:#181818;stroke-width:1.0;"/><text fill="#000000" font-family="sans-serif" font-size="13" lengthAdjust="spacing" textLength="188" x="678.54" y="382.1638">OCI state in FAILED, DELETED</text></g><!--link EvaluateReady to RejectUnsupportedDrift--><g id="link_EvaluateReady_RejectUnsupportedDrift"><path d="M768.11,203.6269 C800.89,203.6269 836,203.6269 836,203.6269 C836,203.6269 836,160.4269 836,160.4269 " fill="none" id="EvaluateReady-to-RejectUnsupportedDrift" style="stroke:#181818;stroke-width:1.0;"/><polygon fill="#181818" points="836,155.4269,832,164.4269,836,160.4269,840,164.4269,836,155.4269" style="stroke:#181818;stroke-width:1.0;"/><text fill="#000000" font-family="sans-serif" font-size="13" lengthAdjust="spacing" textLength="275" x="547.65" y="199.6938">unsupported or immutable drift is detected</text></g><!--link RejectUnsupportedDrift to Ready--><g id="link_RejectUnsupportedDrift_Ready"><path d="M1001.27,135.2969 C1114.67,135.2969 1299,135.2969 1299,135.2969 C1299,135.2969 1299,182.9669 1299,182.9669 " fill="none" id="RejectUnsupportedDrift-to-Ready" style="stroke:#181818;stroke-width:1.0;"/><polygon fill="#181818" points="1299,187.9669,1303,178.9669,1299,182.9669,1295,178.9669,1299,187.9669" style="stroke:#181818;stroke-width:1.0;"/><text fill="#000000" font-family="sans-serif" font-size="13" lengthAdjust="spacing" textLength="252" x="1174.97" y="148.3638">wait for the spec or live state to change</text></g><!--link EvaluateReady to MoveCompartment--><g id="link_EvaluateReady_MoveCompartment"><path d="M768.23,216.9669 C768.23,216.9669 838.4,216.9669 838.4,216.9669 " fill="none" id="EvaluateReady-to-MoveCompartment" style="stroke:#181818;stroke-width:1.0;"/><polygon fill="#181818" points="843.4,216.9669,834.4,212.9669,838.4,216.9669,834.4,220.9669,843.4,216.9669" style="stroke:#181818;stroke-width:1.0;"/><text fill="#000000" font-family="sans-serif" font-size="13" lengthAdjust="spacing" textLength="158" x="644.32" y="230.0338">continue active reconcile</text></g><!--link MoveCompartment to ApplyUpdate--><g id="link_MoveCompartment_ApplyUpdate"><path d="M985.69,209.2969 C985.69,209.2969 1077.34,209.2969 1077.34,209.2969 " fill="none" id="MoveCompartment-to-ApplyUpdate" style="stroke:#181818;stroke-width:1.0;"/><polygon fill="#181818" points="1082.34,209.2969,1073.34,205.2969,1077.34,209.2969,1073.34,213.2969,1082.34,209.2969" style="stroke:#181818;stroke-width:1.0;"/><text fill="#000000" font-family="sans-serif" font-size="13" lengthAdjust="spacing" textLength="221" x="1032.52" y="222.3638">continue after compartment move</text></g><!--link ApplyUpdate to Ready--><g id="link_ApplyUpdate_Ready"><path d="M1179.9,208.2969 C1179.9,208.2969 1266.66,208.2969 1266.66,208.2969 " fill="none" id="ApplyUpdate-to-Ready" style="stroke:#181818;stroke-width:1.0;"/><polygon fill="#181818" points="1271.66,208.2969,1262.66,204.2969,1266.66,208.2969,1262.66,212.2969,1271.66,208.2969" style="stroke:#181818;stroke-width:1.0;"/><text fill="#000000" font-family="sans-serif" font-size="13" lengthAdjust="spacing" textLength="231" x="991.28" y="204.3638">supported mutation path completes</text></g><!--link CleanupDuplicates to Ready--><g id="link_CleanupDuplicates_Ready"><path d="M1191,263.0869 C1191,244.0069 1191,218.2969 1191,218.2969 C1191,218.2969 1266.93,218.2969 1266.93,218.2969 " fill="none" id="CleanupDuplicates-to-Ready" style="stroke:#181818;stroke-width:1.0;"/><polygon fill="#181818" points="1271.93,218.2969,1262.93,214.2969,1266.93,218.2969,1262.93,222.2969,1271.93,218.2969" style="stroke:#181818;stroke-width:1.0;"/><text fill="#000000" font-family="sans-serif" font-size="13" lengthAdjust="spacing" textLength="283" x="1207.57" y="231.3638">eligible duplicate cleanup stays non-blocking</text></g><!--link Ready to Ready--><g id="link_Ready_Ready"><path d="M1271.92,198.2969 C1268.97,198.2969 1267,198.2969 1267,198.2969 C1267,198.2969 1267,171.7969 1267,171.7969 C1267,171.7969 1331,171.7969 1331,171.7969 C1331,171.7969 1331,198.2969 1331,198.2969 C1331,198.2969 1330.04,198.2969 1330.04,198.2969 " fill="none" id="Ready-to-Ready" style="stroke:#181818;stroke-width:1.0;"/><polygon fill="#181818" points="1325.04,198.2969,1334.04,202.2969,1330.04,198.2969,1334.04,194.2969,1325.04,198.2969" style="stroke:#181818;stroke-width:1.0;"/><text fill="#000000" font-family="sans-serif" font-size="13" lengthAdjust="spacing" textLength="170" x="1121.02" y="162.8638">no supported drift remains</text></g><!--link Retryable to Retryable--><g id="link_Retryable_Retryable"><path d="M1260.8,361.8969 C1245.34,361.8969 1231,361.8969 1231,361.8969 C1231,361.8969 1231,387.6269 1231,387.6269 C1231,387.6269 1356,387.6269 1356,387.6269 C1356,387.6269 1356,365.2969 1356,365.2969 C1356,365.2969 1341.21,365.2969 1341.21,365.2969 " fill="none" id="Retryable-to-Retryable" style="stroke:#181818;stroke-width:1.0;"/><polygon fill="#181818" points="1336.21,365.2969,1345.21,369.2969,1341.21,365.2969,1345.21,361.2969,1336.21,365.2969" style="stroke:#181818;stroke-width:1.0;"/><text fill="#000000" font-family="sans-serif" font-size="13" lengthAdjust="spacing" textLength="159" x="1119.29" y="405.6938">OCI remains nonterminal</text></g><!--link Failed to Failed--><g id="link_Failed_Failed"><path d="M687.43,447.2969 C682.08,447.2969 678,447.2969 678,447.2969 C678,447.2969 678,480.7969 678,480.7969 C678,480.7969 753,480.7969 753,480.7969 C753,480.7969 753,447.2969 753,447.2969 C753,447.2969 742.92,447.2969 742.92,447.2969 " fill="none" id="Failed-to-Failed" style="stroke:#181818;stroke-width:1.0;"/><polygon fill="#181818" points="737.92,447.2969,746.92,451.2969,742.92,447.2969,746.92,443.2969,737.92,447.2969" style="stroke:#181818;stroke-width:1.0;"/><text fill="#000000" font-family="sans-serif" font-size="13" lengthAdjust="spacing" textLength="135" x="574.83" y="498.8638">OCI remains terminal</text></g><!--link Ready to DeletePending--><g id="link_Ready_DeletePending"><path d="M1325.17,218.2969 C1347.59,218.2969 1376,218.2969 1376,218.2969 C1376,218.2969 1376,370.2969 1376,370.2969 C1376,370.2969 1531.92,370.2969 1531.92,370.2969 " fill="none" id="Ready-to-DeletePending" style="stroke:#181818;stroke-width:1.0;"/><polygon fill="#181818" points="1536.92,370.2969,1527.92,366.2969,1531.92,370.2969,1527.92,374.2969,1536.92,370.2969" style="stroke:#181818;stroke-width:1.0;"/><text fill="#000000" font-family="sans-serif" font-size="13" lengthAdjust="spacing" textLength="109" x="1377" y="359.9138">delete requested</text></g><!--link Retryable to DeletePending--><g id="link_Retryable_DeletePending"><path d="M1336.16,375.2969 C1336.16,375.2969 1531.88,375.2969 1531.88,375.2969 " fill="none" id="Retryable-to-DeletePending" style="stroke:#181818;stroke-width:1.0;"/><polygon fill="#181818" points="1536.88,375.2969,1527.88,371.2969,1531.88,375.2969,1527.88,379.2969,1536.88,375.2969" style="stroke:#181818;stroke-width:1.0;"/><text fill="#000000" font-family="sans-serif" font-size="13" lengthAdjust="spacing" textLength="109" x="1324.02" y="388.3638">delete requested</text></g><!--link Failed to DeletePending--><g id="link_Failed_DeletePending"><path d="M721,427.1369 C721,412.0269 721,393.9669 721,393.9669 C721,393.9669 1531.93,393.9669 1531.93,393.9669 " fill="none" id="Failed-to-DeletePending" style="stroke:#181818;stroke-width:1.0;"/><polygon fill="#181818" points="1536.93,393.9669,1527.93,389.9669,1531.93,393.9669,1527.93,397.9669,1536.93,393.9669" style="stroke:#181818;stroke-width:1.0;"/><text fill="#000000" font-family="sans-serif" font-size="13" lengthAdjust="spacing" textLength="109" x="999.88" y="407.0338">delete requested</text></g><!--link DeletePending to Deleted--><g id="link_DeletePending_Deleted"><path d="M1650.06,369.2969 C1772.46,369.2969 2051,369.2969 2051,369.2969 C2051,369.2969 2051,348.3369 2051,348.3369 " fill="none" id="DeletePending-to-Deleted" style="stroke:#181818;stroke-width:1.0;"/><polygon fill="#181818" points="2051,343.3369,2047,352.3369,2051,348.3369,2055,352.3369,2051,343.3369" style="stroke:#181818;stroke-width:1.0;"/><text fill="#000000" font-family="sans-serif" font-size="13" lengthAdjust="spacing" textLength="373" x="1862.01" y="365.3638">OCI deletion is confirmed and the finalizer can be removed</text></g><!--link Deleted to Deleted--><g id="link_Deleted_Deleted"><path d="M2017.71,314.2969 C1983.56,314.2969 1935,314.2969 1935,314.2969 C1935,314.2969 1935,351.7969 1935,351.7969 C1935,351.7969 2167,351.7969 2167,351.7969 C2167,351.7969 2167,323.2969 2167,323.2969 C2167,323.2969 2088.26,323.2969 2088.26,323.2969 " fill="none" id="Deleted-to-Deleted" style="stroke:#181818;stroke-width:1.0;"/><polygon fill="#181818" points="2083.26,323.2969,2092.26,327.2969,2088.26,323.2969,2092.26,319.2969,2083.26,323.2969" style="stroke:#181818;stroke-width:1.0;"/><text fill="#000000" font-family="sans-serif" font-size="13" lengthAdjust="spacing" textLength="100" x="1938.51" y="342.8638">terminal stutter</text></g><!--SRC=[XLPBZzis4BxhLmpGGu5YdLUptMOF1VmC32IRnJvoANhWIYEBNOfKoP4TfSX_xmmfsRBZ8hxOqZpupSpt3KsQ3CBSMLBQeeUr3QHiZd27kREvPkCzAKBugFAAFJA39G4vy7fJ4HJQOqxQsQpI1GBM3NLGOCYzRkBhyAnjexog8LIgS3jjDr0g4t1aCPoNkWR1UQhSoE1TQulSUG7s-it8C5FvyoPQvyuu3p-jucVaKM2fMaCF-8McHcziZPP0i8yHnSB-pG1cpXVe-rnlhoulVtl7RrVSbVxTgzNhgpTJyVpkvDzNqzKy-pRAQzsvjBEtbx- -UdSsnMfrjLoSFV1RzkSlVy5ayWTyUWhejvZrtt0D7bK1eS7y8bRIXWkksY2VhIrnkHUWR06VvcjkS8bvbvj3j6Iym-3C5cVTZQebNqhoKZ9Ar09g7GBFApjsbD3bLfcMctV743eEbKDIDxM5wVnX_Nbv9keEoNVgoU1fnFnkENrOtxo_WCVRHVnr9dgbc8p5QUXgklwmN5p0OlbX-S1DF4QMJlsRAVfeGziqJ30i5bupXQ-XFRnYve6kwvOYkY8wwC3j90x58lkV72bzQi5EQOAIyr25SIgIqsZkTSBAaiahPJTu1k97jyMvgvaz57bw3QmzqhP5KAmkpk47DMQdlX8_RHhJFJQ5d3EEBOc5au-SQmxEnjxZ2WxTa4Q8Ug5HLCK4GgkGpGqgspQBjZ4wv_1m58-iCntxDzWXJm7IWYwmBkpaoRZyEP7gCA0KRzq8Gfg1nvhNKiWEp3d7ezvBydF1jRRAP3rRlYFEuBjtFE1OHF7SeYraILqFOlBuJuiXiM2CueVk8mW_z3rsE8GCi6E0J8HPoVCjjQ_P9leMkfLIYVugmrOMdYInJ7f8Mvma76hdiRJ43raMDrRQwAvC0yccFg_YMhxE9fmmoh6OnBbC4lv9Fzwi9rDeVQdow5_eq1ZLWMNrycFf4LaRDP3Q134ZGsOiyJ69Ys6p1oRknHngomrKJzfewXPEnfPOmIQ-InhSFyLDV-AnyOoaRCrzrH9VE_P1r-XQMjjxKL8HzexvSFNnnY7MoQrZxdQzUIPRMlakhlGWe6RiDS6IeTAUtIF-xVaTPrEtWIBtURS3x3Jn3He79eTwPmpwdyCvtGIa5tpOMeGdmargDCuzyt5yUpeWtluKO7sJjksXZ7YKxc_n08hpVz6115AjY4VABxOeC5oxgVXBqR1DGupbBWMvooEnU6RCa_tz0R99j81vaJ5NOrjEsND4vPw1wOJOm6Fpy3nG5NREFvV6xSHrdeX-8Bzqa34Pja-u4U-HzdzSzlzRScLCAgJbDMXY6GVyB9_-fe1-LGkpMvz74nSI8qiP-wZ2_m00]--></g></svg>