<?xml version="1.0" encoding="UTF-8" standalone="no"?><svg xmlns="http://www.w3.org/2000/svg" xmlns:xlink="http://www.w3.org/1999/xlink" contentStyleType="text/css" height="1555px" preserveAspectRatio="none" style="width:1917px;height:1555px;background:#FFFFFF;" version="1.1" viewBox="0 0 1917 1555" width="1917px" zoomAndPan="magnify"><defs/><g><text fill="#000000" font-family="sans-serif" font-size="14" font-weight="bold" lengthAdjust="spacing" textLength="249" x="832.5" y="32.9951">Redis Cluster Reconcile Activity</text><ellipse cx="755.5" cy="57.2969" fill="#0F766E" rx="10" ry="10" style="stroke:#222222;stroke-width:1.0;"/><rect fill="none" height="308.1719" style="stroke:#000000;stroke-width:1.5;" width="686" x="433" y="77.2969"/><path d="M566,77.2969 L566,86.5938 L556,96.5938 L433,96.5938 " fill="none" style="stroke:#000000;stroke-width:1.5;"/><text fill="#000000" font-family="sans-serif" font-size="14" lengthAdjust="spacing" textLength="123" x="436" y="91.292">Observe and Bind</text><rect fill="#F8FAFC" height="33.9688" rx="12.5" ry="12.5" style="stroke:#475569;stroke-width:0.5;" width="304" x="603.5" y="113.5938"/><text fill="#0F172A" font-family="sans-serif" font-size="12" lengthAdjust="spacing" textLength="284" x="613.5" y="134.7324">Read CR spec, status OCID, and delete intent</text><rect fill="#F8FAFC" height="33.9688" rx="12.5" ry="12.5" style="stroke:#475569;stroke-width:0.5;" width="460" x="525.5" y="167.5625"/><text fill="#0F172A" font-family="sans-serif" font-size="12" lengthAdjust="spacing" textLength="440" x="535.5" y="188.7012">Keep status-bound OCID authoritative for later update or delete paths</text><polygon fill="#E2E8F0" points="655.5,221.5313,855.5,221.5313,867.5,233.5313,855.5,245.5313,655.5,245.5313,643.5,233.5313,655.5,221.5313" style="stroke:#475569;stroke-width:0.5;"/><text fill="#0F172A" font-family="sans-serif" font-size="11" lengthAdjust="spacing" textLength="200" x="655.5" y="237.3394">"Tracked or explicit OCID present?"</text><text fill="#000000" font-family="sans-serif" font-size="11" lengthAdjust="spacing" textLength="20" x="623.5" y="230.937">yes</text><text fill="#000000" font-family="sans-serif" font-size="11" lengthAdjust="spacing" textLength="14" x="867.5" y="230.937">no</text><rect fill="#F8FAFC" height="33.9688" rx="12.5" ry="12.5" style="stroke:#475569;stroke-width:0.5;" width="272" x="453" y="255.5313"/><text fill="#0F172A" font-family="sans-serif" font-size="12" lengthAdjust="spacing" textLength="252" x="463" y="276.6699">Get the OCI resource by known identifier</text><rect fill="#F8FAFC" height="33.9688" rx="12.5" ry="12.5" style="stroke:#475569;stroke-width:0.5;" width="328" x="758" y="255.5313"/><text fill="#0F172A" font-family="sans-serif" font-size="12" lengthAdjust="spacing" textLength="308" x="768" y="276.6699">Resolve an existing OCI resource by display name</text><rect fill="#F8FAFC" height="33.9688" rx="12.5" ry="12.5" style="stroke:#475569;stroke-width:0.5;" width="354" x="745" y="309.5"/><text fill="#0F172A" font-family="sans-serif" font-size="12" lengthAdjust="spacing" textLength="334" x="755" y="330.6387">Persist the resolved or created OCID back into status</text><polygon fill="#E2E8F0" points="755.5,349.4688,767.5,361.4688,755.5,373.4688,743.5,361.4688,755.5,349.4688" style="stroke:#475569;stroke-width:0.5;"/><path d="M1511,808.3867 L1511,1181.5742 L1905,1181.5742 L1905,818.3867 L1895,808.3867 L1511,808.3867 " fill="#FEFFDD" style="stroke:#181818;stroke-width:0.5;"/><path d="M1895,808.3867 L1895,818.3867 L1905,818.3867 L1895,808.3867 " fill="#FEFFDD" style="stroke:#181818;stroke-width:0.5;"/><text fill="#000000" font-family="sans-serif" font-size="13" lengthAdjust="spacing" textLength="69" x="1517" y="825.4536">Archetype:</text><text fill="#000000" font-family="sans-serif" font-size="13" lengthAdjust="spacing" textLength="183" x="1517" y="840.5864">- resolved-drift-delete-secret</text><text fill="#000000" font-family="sans-serif" font-size="13" lengthAdjust="spacing" textLength="134" x="1517" y="855.7192">Retryable OCI states:</text><text fill="#000000" font-family="sans-serif" font-size="13" lengthAdjust="spacing" textLength="73" x="1517" y="870.8521">- CREATING</text><text fill="#000000" font-family="sans-serif" font-size="13" lengthAdjust="spacing" textLength="76" x="1517" y="885.9849">- UPDATING</text><text fill="#000000" font-family="sans-serif" font-size="13" lengthAdjust="spacing" textLength="113" x="1517" y="901.1177">Active OCI states:</text><text fill="#000000" font-family="sans-serif" font-size="13" lengthAdjust="spacing" textLength="54" x="1517" y="916.2505">- ACTIVE</text><text fill="#000000" font-family="sans-serif" font-size="13" lengthAdjust="spacing" textLength="111" x="1517" y="931.3833">Failed OCI states:</text><text fill="#000000" font-family="sans-serif" font-size="13" lengthAdjust="spacing" textLength="53" x="1517" y="946.5161">- FAILED</text><text fill="#000000" font-family="sans-serif" font-size="13" lengthAdjust="spacing" textLength="67" x="1517" y="961.6489">- DELETED</text><text fill="#000000" font-family="sans-serif" font-size="13" lengthAdjust="spacing" textLength="102" x="1517" y="976.7817">Update surface:</text><text fill="#000000" font-family="sans-serif" font-size="13" lengthAdjust="spacing" textLength="92" x="1517" y="991.9146">- displayName</text><text fill="#000000" font-family="sans-serif" font-size="13" lengthAdjust="spacing" textLength="79" x="1517" y="1007.0474">- nodeCount</text><text fill="#000000" font-family="sans-serif" font-size="13" lengthAdjust="spacing" textLength="130" x="1517" y="1022.1802">- nodeMemoryInGBs</text><text fill="#000000" font-family="sans-serif" font-size="13" lengthAdjust="spacing" textLength="96" x="1517" y="1037.313">- freeform tags</text><text fill="#000000" font-family="sans-serif" font-size="13" lengthAdjust="spacing" textLength="88" x="1517" y="1052.4458">- defined tags</text><text fill="#000000" font-family="sans-serif" font-size="13" lengthAdjust="spacing" textLength="139" x="1517" y="1067.5786">Reject before mutate:</text><text fill="#000000" font-family="sans-serif" font-size="13" lengthAdjust="spacing" textLength="140" x="1517" y="1082.7114">- softwareVersion drift</text><text fill="#000000" font-family="sans-serif" font-size="13" lengthAdjust="spacing" textLength="93" x="1517" y="1097.8442">- subnetId drift</text><text fill="#000000" font-family="sans-serif" font-size="13" lengthAdjust="spacing" textLength="105" x="1517" y="1112.9771">Boundary notes:</text><text fill="#000000" font-family="sans-serif" font-size="13" lengthAdjust="spacing" textLength="358" x="1517" y="1128.1099">- A direct DeleteRedisCluster 404 currently short-circuits</text><text fill="#000000" font-family="sans-serif" font-size="13" lengthAdjust="spacing" textLength="357" x="1533" y="1143.2427">completion and can skip Secret cleanup on that branch.</text><text fill="#000000" font-family="sans-serif" font-size="13" lengthAdjust="spacing" textLength="166" x="1517" y="1158.3755">Controller-local invariants:</text><text fill="#000000" font-family="sans-serif" font-size="13" lengthAdjust="spacing" textLength="229" x="1517" y="1173.5083">- StatusPresentUsesStatusInvariant</text><polygon fill="#E2E8F0" points="698.5,405.4688,812.5,405.4688,824.5,417.4688,812.5,429.4688,698.5,429.4688,686.5,417.4688,698.5,405.4688" style="stroke:#475569;stroke-width:0.5;"/><text fill="#0F172A" font-family="sans-serif" font-size="11" lengthAdjust="spacing" textLength="114" x="698.5" y="421.2769">"Delete requested?"</text><text fill="#000000" font-family="sans-serif" font-size="11" lengthAdjust="spacing" textLength="20" x="666.5" y="414.8745">yes</text><text fill="#000000" font-family="sans-serif" font-size="11" lengthAdjust="spacing" textLength="14" x="824.5" y="414.8745">no</text><rect fill="none" height="348.3047" style="stroke:#000000;stroke-width:1.5;" width="763" x="11" y="439.4688"/><path d="M67,439.4688 L67,448.7656 L57,458.7656 L11,458.7656 " fill="none" style="stroke:#000000;stroke-width:1.5;"/><text fill="#000000" font-family="sans-serif" font-size="14" lengthAdjust="spacing" textLength="46" x="14" y="453.4639">Delete</text><rect fill="#F8FAFC" height="33.9688" rx="12.5" ry="12.5" style="stroke:#475569;stroke-width:0.5;" width="238" x="260.75" y="475.7656"/><text fill="#0F172A" font-family="sans-serif" font-size="12" lengthAdjust="spacing" textLength="218" x="270.75" y="496.9043">Submit OCI delete for Redis Cluster</text><rect fill="#F8FAFC" height="33.9688" rx="12.5" ry="12.5" style="stroke:#475569;stroke-width:0.5;" width="622" x="68.75" y="544.7344"/><text fill="#0F172A" font-family="sans-serif" font-size="12" lengthAdjust="spacing" textLength="602" x="78.75" y="565.873">Confirm deletion with GetRedisCluster until the lifecycle is DELETED or the resource is not found.</text><rect fill="#F8FAFC" height="33.9688" rx="12.5" ry="12.5" style="stroke:#475569;stroke-width:0.5;" width="364" x="197.75" y="613.7031"/><text fill="#0F172A" font-family="sans-serif" font-size="12" lengthAdjust="spacing" textLength="344" x="207.75" y="634.8418">Delete the owned Secret after OCI delete confirmation.</text><polygon fill="#E2E8F0" points="278.75,669.8047,480.75,669.8047,492.75,681.8047,480.75,693.8047,278.75,693.8047,266.75,681.8047,278.75,669.8047" style="stroke:#475569;stroke-width:0.5;"/><text fill="#0F172A" font-family="sans-serif" font-size="11" lengthAdjust="spacing" textLength="202" x="278.75" y="685.6128">"Owned Secret cleanup succeeds?"</text><text fill="#000000" font-family="sans-serif" font-size="11" lengthAdjust="spacing" textLength="20" x="246.75" y="679.2104">yes</text><text fill="#000000" font-family="sans-serif" font-size="11" lengthAdjust="spacing" textLength="14" x="492.75" y="679.2104">no</text><rect fill="#F8FAFC" height="33.9688" rx="12.5" ry="12.5" style="stroke:#475569;stroke-width:0.5;" width="338" x="23" y="703.8047"/><text fill="#0F172A" font-family="sans-serif" font-size="12" lengthAdjust="spacing" textLength="318" x="33" y="724.9434">Remove the finalizer after OCI deletion is confirmed</text><rect fill="#F8FAFC" height="33.9688" rx="12.5" ry="12.5" style="stroke:#475569;stroke-width:0.5;" width="373" x="381" y="703.8047"/><text fill="#0F172A" font-family="sans-serif" font-size="12" lengthAdjust="spacing" textLength="353" x="391" y="724.9434">Stay blocked until Secret cleanup succeeds or is absent</text><polygon fill="#E2E8F0" points="379.75,743.7734,391.75,755.7734,379.75,767.7734,367.75,755.7734,379.75,743.7734" style="stroke:#475569;stroke-width:0.5;"/><ellipse cx="379.75" cy="833.7734" fill="none" rx="11" ry="11" style="stroke:#222222;stroke-width:1.0;"/><ellipse cx="379.75" cy="833.7734" fill="#222222" rx="6" ry="6" style="stroke:#111111;stroke-width:1.0;"/><rect fill="none" height="417.9766" style="stroke:#000000;stroke-width:1.5;" width="376" x="949.25" y="439.4688"/><path d="M1110.25,439.4688 L1110.25,448.7656 L1100.25,458.7656 L949.25,458.7656 " fill="none" style="stroke:#000000;stroke-width:1.5;"/><text fill="#000000" font-family="sans-serif" font-size="14" lengthAdjust="spacing" textLength="151" x="952.25" y="453.4639">Lifecycle Classification</text><rect fill="#F8FAFC" height="33.9688" rx="12.5" ry="12.5" style="stroke:#475569;stroke-width:0.5;" width="268" x="997.25" y="524.168"/><text fill="#0F172A" font-family="sans-serif" font-size="12" lengthAdjust="spacing" textLength="248" x="1007.25" y="545.3066">Request requeue and keep the finalizer</text><ellipse cx="1131.25" cy="604.1367" fill="none" rx="11" ry="11" style="stroke:#222222;stroke-width:1.0;"/><ellipse cx="1131.25" cy="604.1367" fill="#222222" rx="6" ry="6" style="stroke:#111111;stroke-width:1.0;"/><polygon fill="#E2E8F0" points="1051.25,475.7656,1211.25,475.7656,1223.25,487.7656,1211.25,499.7656,1051.25,499.7656,1039.25,487.7656,1051.25,475.7656" style="stroke:#475569;stroke-width:0.5;"/><text fill="#000000" font-family="sans-serif" font-size="11" lengthAdjust="spacing" textLength="20" x="1135.25" y="509.9761">yes</text><text fill="#0F172A" font-family="sans-serif" font-size="11" lengthAdjust="spacing" textLength="160" x="1051.25" y="491.5737">"OCI state in retryable set?"</text><rect fill="#F8FAFC" height="33.9688" rx="12.5" ry="12.5" style="stroke:#475569;stroke-width:0.5;" width="324" x="969.25" y="716.0742"/><text fill="#0F172A" font-family="sans-serif" font-size="12" lengthAdjust="spacing" textLength="304" x="979.25" y="737.2129">Return an unsuccessful terminal reconcile result</text><ellipse cx="1131.25" cy="796.043" fill="none" rx="11" ry="11" style="stroke:#222222;stroke-width:1.0;"/><ellipse cx="1131.25" cy="796.043" fill="#222222" rx="6" ry="6" style="stroke:#111111;stroke-width:1.0;"/><polygon fill="#E2E8F0" points="1061.25,667.6719,1201.25,667.6719,1213.25,679.6719,1201.25,691.6719,1061.25,691.6719,1049.25,679.6719,1061.25,667.6719" style="stroke:#475569;stroke-width:0.5;"/><text fill="#000000" font-family="sans-serif" font-size="11" lengthAdjust="spacing" textLength="20" x="1135.25" y="701.8823">yes</text><text fill="#0F172A" font-family="sans-serif" font-size="11" lengthAdjust="spacing" textLength="140" x="1061.25" y="683.48">"OCI state in failed set?"</text><rect fill="none" height="645.0039" style="stroke:#000000;stroke-width:1.5;" width="707" x="794" y="892.4453"/><path d="M973,892.4453 L973,901.7422 L963,911.7422 L794,911.7422 " fill="none" style="stroke:#000000;stroke-width:1.5;"/><text fill="#000000" font-family="sans-serif" font-size="14" lengthAdjust="spacing" textLength="169" x="797" y="906.4404">Ready and Drift Handling</text><rect fill="#F8FAFC" height="33.9688" rx="12.5" ry="12.5" style="stroke:#475569;stroke-width:0.5;" width="364" x="949.25" y="928.7422"/><text fill="#0F172A" font-family="sans-serif" font-size="12" lengthAdjust="spacing" textLength="344" x="959.25" y="949.8809">Compare live OCI state with the supported drift surface</text><rect fill="#F8FAFC" height="33.9688" rx="12.5" ry="12.5" style="stroke:#475569;stroke-width:0.5;" width="290" x="986.25" y="1046.1133"/><text fill="#0F172A" font-family="sans-serif" font-size="12" lengthAdjust="spacing" textLength="270" x="996.25" y="1067.252">Reject the change before any OCI mutation</text><ellipse cx="1131.25" cy="1126.082" fill="none" rx="11" ry="11" style="stroke:#222222;stroke-width:1.0;"/><ellipse cx="1131.25" cy="1126.082" fill="#222222" rx="6" ry="6" style="stroke:#111111;stroke-width:1.0;"/><polygon fill="#E2E8F0" points="1006.75,997.7109,1255.75,997.7109,1267.75,1009.7109,1255.75,1021.7109,1006.75,1021.7109,994.75,1009.7109,1006.75,997.7109" style="stroke:#475569;stroke-width:0.5;"/><text fill="#000000" font-family="sans-serif" font-size="11" lengthAdjust="spacing" textLength="20" x="1135.25" y="1031.9214">yes</text><text fill="#0F172A" font-family="sans-serif" font-size="11" lengthAdjust="spacing" textLength="249" x="1006.75" y="1013.519">"Unsupported or immutable drift detected?"</text><rect fill="#F8FAFC" height="33.9688" rx="12.5" ry="12.5" style="stroke:#475569;stroke-width:0.5;" width="470" x="896.25" y="1201.5742"/><text fill="#0F172A" font-family="sans-serif" font-size="12" lengthAdjust="spacing" textLength="450" x="906.25" y="1222.7129">Always route resolved or bound resources through UpdateRedisCluster.</text><rect fill="#F8FAFC" height="33.9688" rx="12.5" ry="12.5" style="stroke:#475569;stroke-width:0.5;" width="604" x="829.25" y="1255.543"/><text fill="#0F172A" font-family="sans-serif" font-size="12" lengthAdjust="spacing" textLength="584" x="839.25" y="1276.6816">Move the Redis cluster compartment before mutable updates when compartment drift exists.</text><polygon fill="#E2E8F0" points="1053.75,1309.5117,1208.75,1309.5117,1220.75,1321.5117,1208.75,1333.5117,1053.75,1333.5117,1041.75,1321.5117,1053.75,1309.5117" style="stroke:#475569;stroke-width:0.5;"/><text fill="#0F172A" font-family="sans-serif" font-size="11" lengthAdjust="spacing" textLength="155" x="1053.75" y="1325.3198">"Supported drift detected?"</text><text fill="#000000" font-family="sans-serif" font-size="11" lengthAdjust="spacing" textLength="20" x="1021.75" y="1318.9175">yes</text><text fill="#000000" font-family="sans-serif" font-size="11" lengthAdjust="spacing" textLength="14" x="1220.75" y="1318.9175">no</text><rect fill="#F8FAFC" height="33.9688" rx="12.5" ry="12.5" style="stroke:#475569;stroke-width:0.5;" width="329" x="823.5" y="1343.5117"/><text fill="#0F172A" font-family="sans-serif" font-size="12" lengthAdjust="spacing" textLength="309" x="833.5" y="1364.6504">Apply only the supported in-place update surface</text><rect fill="#F8FAFC" height="33.9688" rx="12.5" ry="12.5" style="stroke:#475569;stroke-width:0.5;" width="204" x="1172.5" y="1343.5117"/><text fill="#0F172A" font-family="sans-serif" font-size="12" lengthAdjust="spacing" textLength="184" x="1182.5" y="1364.6504">Skip the no-op mutation path</text><polygon fill="#E2E8F0" points="1131.25,1383.4805,1143.25,1395.4805,1131.25,1407.4805,1119.25,1395.4805,1131.25,1383.4805" style="stroke:#475569;stroke-width:0.5;"/><polygon fill="#E2E8F0" points="1060.75,1427.4805,1201.75,1427.4805,1213.75,1439.4805,1201.75,1451.4805,1060.75,1451.4805,1048.75,1439.4805,1060.75,1427.4805" style="stroke:#475569;stroke-width:0.5;"/><text fill="#0F172A" font-family="sans-serif" font-size="11" lengthAdjust="spacing" textLength="141" x="1060.75" y="1443.2886">"Secret sync succeeds?"</text><text fill="#000000" font-family="sans-serif" font-size="11" lengthAdjust="spacing" textLength="20" x="1028.75" y="1436.8862">yes</text><text fill="#000000" font-family="sans-serif" font-size="11" lengthAdjust="spacing" textLength="14" x="1213.75" y="1436.8862">no</text><rect fill="#F8FAFC" height="33.9688" rx="12.5" ry="12.5" style="stroke:#475569;stroke-width:0.5;" width="287" x="814" y="1461.4805"/><text fill="#0F172A" font-family="sans-serif" font-size="12" lengthAdjust="spacing" textLength="267" x="824" y="1482.6191">Return success for the usable active state</text><rect fill="#F8FAFC" height="33.9688" rx="12.5" ry="12.5" style="stroke:#475569;stroke-width:0.5;" width="368" x="1121" y="1461.4805"/><text fill="#0F172A" font-family="sans-serif" font-size="12" lengthAdjust="spacing" textLength="348" x="1131" y="1482.6191">Block successful completion until Secret sync succeeds</text><polygon fill="#E2E8F0" points="1131.25,1501.4492,1143.25,1513.4492,1131.25,1525.4492,1119.25,1513.4492,1131.25,1501.4492" style="stroke:#475569;stroke-width:0.5;"/><line style="stroke:#334155;stroke-width:1.0;" x1="755.5" x2="755.5" y1="147.5625" y2="167.5625"/><polygon fill="#334155" points="751.5,157.5625,755.5,167.5625,759.5,157.5625,755.5,161.5625" style="stroke:#334155;stroke-width:1.0;"/><line style="stroke:#334155;stroke-width:1.0;" x1="922" x2="922" y1="289.5" y2="309.5"/><polygon fill="#334155" points="918,299.5,922,309.5,926,299.5,922,303.5" style="stroke:#334155;stroke-width:1.0;"/><line style="stroke:#334155;stroke-width:1.0;" x1="643.5" x2="589" y1="233.5313" y2="233.5313"/><line style="stroke:#334155;stroke-width:1.0;" x1="589" x2="589" y1="233.5313" y2="255.5313"/><polygon fill="#334155" points="585,245.5313,589,255.5313,593,245.5313,589,249.5313" style="stroke:#334155;stroke-width:1.0;"/><line style="stroke:#334155;stroke-width:1.0;" x1="867.5" x2="922" y1="233.5313" y2="233.5313"/><line style="stroke:#334155;stroke-width:1.0;" x1="922" x2="922" y1="233.5313" y2="255.5313"/><polygon fill="#334155" points="918,245.5313,922,255.5313,926,245.5313,922,249.5313" style="stroke:#334155;stroke-width:1.0;"/><line style="stroke:#334155;stroke-width:1.0;" x1="589" x2="589" y1="289.5" y2="361.4688"/><line style="stroke:#334155;stroke-width:1.0;" x1="589" x2="743.5" y1="361.4688" y2="361.4688"/><polygon fill="#334155" points="733.5,357.4688,743.5,361.4688,733.5,365.4688,737.5,361.4688" style="stroke:#334155;stroke-width:1.0;"/><line style="stroke:#334155;stroke-width:1.0;" x1="922" x2="922" y1="343.4688" y2="361.4688"/><line style="stroke:#334155;stroke-width:1.0;" x1="922" x2="767.5" y1="361.4688" y2="361.4688"/><polygon fill="#334155" points="777.5,357.4688,767.5,361.4688,777.5,365.4688,773.5,361.4688" style="stroke:#334155;stroke-width:1.0;"/><line style="stroke:#334155;stroke-width:1.0;" x1="755.5" x2="755.5" y1="201.5313" y2="221.5313"/><polygon fill="#334155" points="751.5,211.5313,755.5,221.5313,759.5,211.5313,755.5,215.5313" style="stroke:#334155;stroke-width:1.0;"/><line style="stroke:#334155;stroke-width:1.0;" x1="755.5" x2="755.5" y1="67.2969" y2="113.5938"/><polygon fill="#334155" points="751.5,103.5938,755.5,113.5938,759.5,103.5938,755.5,107.5938" style="stroke:#334155;stroke-width:1.0;"/><line style="stroke:#334155;stroke-width:1.0;" x1="379.75" x2="379.75" y1="509.7344" y2="544.7344"/><polygon fill="#334155" points="375.75,534.7344,379.75,544.7344,383.75,534.7344,379.75,538.7344" style="stroke:#334155;stroke-width:1.0;"/><line style="stroke:#334155;stroke-width:1.0;" x1="379.75" x2="379.75" y1="578.7031" y2="613.7031"/><polygon fill="#334155" points="375.75,603.7031,379.75,613.7031,383.75,603.7031,379.75,607.7031" style="stroke:#334155;stroke-width:1.0;"/><line style="stroke:#334155;stroke-width:1.0;" x1="266.75" x2="192" y1="681.8047" y2="681.8047"/><line style="stroke:#334155;stroke-width:1.0;" x1="192" x2="192" y1="681.8047" y2="703.8047"/><polygon fill="#334155" points="188,693.8047,192,703.8047,196,693.8047,192,697.8047" style="stroke:#334155;stroke-width:1.0;"/><line style="stroke:#334155;stroke-width:1.0;" x1="492.75" x2="567.5" y1="681.8047" y2="681.8047"/><line style="stroke:#334155;stroke-width:1.0;" x1="567.5" x2="567.5" y1="681.8047" y2="703.8047"/><polygon fill="#334155" points="563.5,693.8047,567.5,703.8047,571.5,693.8047,567.5,697.8047" style="stroke:#334155;stroke-width:1.0;"/><line style="stroke:#334155;stroke-width:1.0;" x1="192" x2="192" y1="737.7734" y2="755.7734"/><line style="stroke:#334155;stroke-width:1.0;" x1="192" x2="367.75" y1="755.7734" y2="755.7734"/><polygon fill="#334155" points="357.75,751.7734,367.75,755.7734,357.75,759.7734,361.75,755.7734" style="stroke:#334155;stroke-width:1.0;"/><line style="stroke:#334155;stroke-width:1.0;" x1="567.5" x2="567.5" y1="737.7734" y2="755.7734"/><line style="stroke:#334155;stroke-width:1.0;" x1="567.5" x2="391.75" y1="755.7734" y2="755.7734"/><polygon fill="#334155" points="401.75,751.7734,391.75,755.7734,401.75,759.7734,397.75,755.7734" style="stroke:#334155;stroke-width:1.0;"/><line style="stroke:#334155;stroke-width:1.0;" x1="379.75" x2="379.75" y1="647.6719" y2="669.8047"/><polygon fill="#334155" points="375.75,659.8047,379.75,669.8047,383.75,659.8047,379.75,663.8047" style="stroke:#334155;stroke-width:1.0;"/><line style="stroke:#334155;stroke-width:1.0;" x1="379.75" x2="379.75" y1="767.7734" y2="822.7734"/><polygon fill="#334155" points="375.75,812.7734,379.75,822.7734,383.75,812.7734,379.75,816.7734" style="stroke:#334155;stroke-width:1.0;"/><line style="stroke:#334155;stroke-width:1.0;" x1="1131.25" x2="1131.25" y1="558.1367" y2="593.1367"/><polygon fill="#334155" points="1127.25,583.1367,1131.25,593.1367,1135.25,583.1367,1131.25,587.1367" style="stroke:#334155;stroke-width:1.0;"/><line style="stroke:#334155;stroke-width:1.0;" x1="1131.25" x2="1131.25" y1="499.7656" y2="524.168"/><polygon fill="#334155" points="1127.25,514.168,1131.25,524.168,1135.25,514.168,1131.25,518.168" style="stroke:#334155;stroke-width:1.0;"/><line style="stroke:#334155;stroke-width:1.0;" x1="1223.25" x2="1275.25" y1="487.7656" y2="487.7656"/><polygon fill="#334155" points="1271.25,556.6523,1275.25,566.6523,1279.25,556.6523,1275.25,560.6523" style="stroke:#334155;stroke-width:1.0;"/><line style="stroke:#334155;stroke-width:1.0;" x1="1275.25" x2="1275.25" y1="487.7656" y2="645.5391"/><line style="stroke:#334155;stroke-width:1.0;" x1="1275.25" x2="1131.25" y1="645.5391" y2="645.5391"/><line style="stroke:#334155;stroke-width:1.0;" x1="1131.25" x2="1131.25" y1="645.5391" y2="667.6719"/><polygon fill="#334155" points="1127.25,657.6719,1131.25,667.6719,1135.25,657.6719,1131.25,661.6719" style="stroke:#334155;stroke-width:1.0;"/><line style="stroke:#334155;stroke-width:1.0;" x1="1131.25" x2="1131.25" y1="750.043" y2="785.043"/><polygon fill="#334155" points="1127.25,775.043,1131.25,785.043,1135.25,775.043,1131.25,779.043" style="stroke:#334155;stroke-width:1.0;"/><line style="stroke:#334155;stroke-width:1.0;" x1="1131.25" x2="1131.25" y1="691.6719" y2="716.0742"/><polygon fill="#334155" points="1127.25,706.0742,1131.25,716.0742,1135.25,706.0742,1131.25,710.0742" style="stroke:#334155;stroke-width:1.0;"/><line style="stroke:#334155;stroke-width:1.0;" x1="1213.25" x2="1303.25" y1="679.6719" y2="679.6719"/><polygon fill="#334155" points="1299.25,748.5586,1303.25,758.5586,1307.25,748.5586,1303.25,752.5586" style="stroke:#334155;stroke-width:1.0;"/><line style="stroke:#334155;stroke-width:1.0;" x1="1303.25" x2="1303.25" y1="679.6719" y2="837.4453"/><line style="stroke:#334155;stroke-width:1.0;" x1="1303.25" x2="1131.25" y1="837.4453" y2="837.4453"/><line style="stroke:#334155;stroke-width:1.0;" x1="1131.25" x2="1131.25" y1="837.4453" y2="928.7422"/><polygon fill="#334155" points="1127.25,918.7422,1131.25,928.7422,1135.25,918.7422,1131.25,922.7422" style="stroke:#334155;stroke-width:1.0;"/><line style="stroke:#334155;stroke-width:1.0;" x1="1131.25" x2="1131.25" y1="1080.082" y2="1115.082"/><polygon fill="#334155" points="1127.25,1105.082,1131.25,1115.082,1135.25,1105.082,1131.25,1109.082" style="stroke:#334155;stroke-width:1.0;"/><line style="stroke:#334155;stroke-width:1.0;" x1="1131.25" x2="1131.25" y1="1021.7109" y2="1046.1133"/><polygon fill="#334155" points="1127.25,1036.1133,1131.25,1046.1133,1135.25,1036.1133,1131.25,1040.1133" style="stroke:#334155;stroke-width:1.0;"/><line style="stroke:#334155;stroke-width:1.0;" x1="1267.75" x2="1286.25" y1="1009.7109" y2="1009.7109"/><polygon fill="#334155" points="1282.25,1078.5977,1286.25,1088.5977,1290.25,1078.5977,1286.25,1082.5977" style="stroke:#334155;stroke-width:1.0;"/><line style="stroke:#334155;stroke-width:1.0;" x1="1286.25" x2="1286.25" y1="1009.7109" y2="1167.4844"/><line style="stroke:#334155;stroke-width:1.0;" x1="1286.25" x2="1131.25" y1="1167.4844" y2="1167.4844"/><line style="stroke:#334155;stroke-width:1.0;" x1="1131.25" x2="1131.25" y1="1167.4844" y2="1201.5742"/><polygon fill="#334155" points="1127.25,1191.5742,1131.25,1201.5742,1135.25,1191.5742,1131.25,1195.5742" style="stroke:#334155;stroke-width:1.0;"/><line style="stroke:#334155;stroke-width:1.0;" x1="1131.25" x2="1131.25" y1="962.7109" y2="997.7109"/><polygon fill="#334155" points="1127.25,987.7109,1131.25,997.7109,1135.25,987.7109,1131.25,991.7109" style="stroke:#334155;stroke-width:1.0;"/><line style="stroke:#334155;stroke-width:1.0;" x1="1131.25" x2="1131.25" y1="1235.543" y2="1255.543"/><polygon fill="#334155" points="1127.25,1245.543,1131.25,1255.543,1135.25,1245.543,1131.25,1249.543" style="stroke:#334155;stroke-width:1.0;"/><line style="stroke:#334155;stroke-width:1.0;" x1="1041.75" x2="988" y1="1321.5117" y2="1321.5117"/><line style="stroke:#334155;stroke-width:1.0;" x1="988" x2="988" y1="1321.5117" y2="1343.5117"/><polygon fill="#334155" points="984,1333.5117,988,1343.5117,992,1333.5117,988,1337.5117" style="stroke:#334155;stroke-width:1.0;"/><line style="stroke:#334155;stroke-width:1.0;" x1="1220.75" x2="1274.5" y1="1321.5117" y2="1321.5117"/><line style="stroke:#334155;stroke-width:1.0;" x1="1274.5" x2="1274.5" y1="1321.5117" y2="1343.5117"/><polygon fill="#334155" points="1270.5,1333.5117,1274.5,1343.5117,1278.5,1333.5117,1274.5,1337.5117" style="stroke:#334155;stroke-width:1.0;"/><line style="stroke:#334155;stroke-width:1.0;" x1="988" x2="988" y1="1377.4805" y2="1395.4805"/><line style="stroke:#334155;stroke-width:1.0;" x1="988" x2="1119.25" y1="1395.4805" y2="1395.4805"/><polygon fill="#334155" points="1109.25,1391.4805,1119.25,1395.4805,1109.25,1399.4805,1113.25,1395.4805" style="stroke:#334155;stroke-width:1.0;"/><line style="stroke:#334155;stroke-width:1.0;" x1="1274.5" x2="1274.5" y1="1377.4805" y2="1395.4805"/><line style="stroke:#334155;stroke-width:1.0;" x1="1274.5" x2="1143.25" y1="1395.4805" y2="1395.4805"/><polygon fill="#334155" points="1153.25,1391.4805,1143.25,1395.4805,1153.25,1399.4805,1149.25,1395.4805" style="stroke:#334155;stroke-width:1.0;"/><line style="stroke:#334155;stroke-width:1.0;" x1="1131.25" x2="1131.25" y1="1289.5117" y2="1309.5117"/><polygon fill="#334155" points="1127.25,1299.5117,1131.25,1309.5117,1135.25,1299.5117,1131.25,1303.5117" style="stroke:#334155;stroke-width:1.0;"/><line style="stroke:#334155;stroke-width:1.0;" x1="1048.75" x2="957.5" y1="1439.4805" y2="1439.4805"/><line style="stroke:#334155;stroke-width:1.0;" x1="957.5" x2="957.5" y1="1439.4805" y2="1461.4805"/><polygon fill="#334155" points="953.5,1451.4805,957.5,1461.4805,961.5,1451.4805,957.5,1455.4805" style="stroke:#334155;stroke-width:1.0;"/><line style="stroke:#334155;stroke-width:1.0;" x1="1213.75" x2="1305" y1="1439.4805" y2="1439.4805"/><line style="stroke:#334155;stroke-width:1.0;" x1="1305" x2="1305" y1="1439.4805" y2="1461.4805"/><polygon fill="#334155" points="1301,1451.4805,1305,1461.4805,1309,1451.4805,1305,1455.4805" style="stroke:#334155;stroke-width:1.0;"/><line style="stroke:#334155;stroke-width:1.0;" x1="957.5" x2="957.5" y1="1495.4492" y2="1513.4492"/><line style="stroke:#334155;stroke-width:1.0;" x1="957.5" x2="1119.25" y1="1513.4492" y2="1513.4492"/><polygon fill="#334155" points="1109.25,1509.4492,1119.25,1513.4492,1109.25,1517.4492,1113.25,1513.4492" style="stroke:#334155;stroke-width:1.0;"/><line style="stroke:#334155;stroke-width:1.0;" x1="1305" x2="1305" y1="1495.4492" y2="1513.4492"/><line style="stroke:#334155;stroke-width:1.0;" x1="1305" x2="1143.25" y1="1513.4492" y2="1513.4492"/><polygon fill="#334155" points="1153.25,1509.4492,1143.25,1513.4492,1153.25,1517.4492,1149.25,1513.4492" style="stroke:#334155;stroke-width:1.0;"/><line style="stroke:#334155;stroke-width:1.0;" x1="1131.25" x2="1131.25" y1="1407.4805" y2="1427.4805"/><polygon fill="#334155" points="1127.25,1417.4805,1131.25,1427.4805,1135.25,1417.4805,1131.25,1421.4805" style="stroke:#334155;stroke-width:1.0;"/><line style="stroke:#334155;stroke-width:1.0;" x1="686.5" x2="379.75" y1="417.4688" y2="417.4688"/><line style="stroke:#334155;stroke-width:1.0;" x1="379.75" x2="379.75" y1="417.4688" y2="475.7656"/><polygon fill="#334155" points="375.75,465.7656,379.75,475.7656,383.75,465.7656,379.75,469.7656" style="stroke:#334155;stroke-width:1.0;"/><line style="stroke:#334155;stroke-width:1.0;" x1="824.5" x2="1131.25" y1="417.4688" y2="417.4688"/><line style="stroke:#334155;stroke-width:1.0;" x1="1131.25" x2="1131.25" y1="417.4688" y2="475.7656"/><polygon fill="#334155" points="1127.25,465.7656,1131.25,475.7656,1135.25,465.7656,1131.25,469.7656" style="stroke:#334155;stroke-width:1.0;"/><line style="stroke:#334155;stroke-width:1.0;" x1="1131.25" x2="1131.25" y1="1525.4492" y2="1543.4492"/><line style="stroke:#334155;stroke-width:1.0;" x1="1131.25" x2="755.5" y1="1543.4492" y2="1543.4492"/><line style="stroke:#334155;stroke-width:1.0;" x1="755.5" x2="755.5" y1="373.4688" y2="405.4688"/><polygon fill="#334155" points="751.5,395.4688,755.5,405.4688,759.5,395.4688,755.5,399.4688" style="stroke:#334155;stroke-width:1.0;"/><!--SRC=[XLRRKjmu47ttLwZO5rALIK729GiFMsOkx5H8e0R8kqPkpsYH9QyapyIxbN_VRacUs32mL06srEhBwNDQzj8hO0ief6DZrJWF5j-4qKBYUYwyt4ZVPkv9wffRNZ6tveNPIhrY9LSEUZjNN3ojh6bqCJRAMFRRBFpqB79hpJPjVlfqSdnwsjiieEIDyW_mm-TAhdG5sZC5fU_Py9GF-pTZU-9zdkMpCUqOMu1DgoVdfwTdl-Fgp6YVrevcn-SVSroRI5uPNRnmDVqu_JmxwXdizNZlkVtbylpiR8gBqvsJyzdnv7YI_SmSsMKPrk2bbqQpWzkb0xi1ndN1hgGk3a955mlW1HilcAj1l6Tup3UEtOxda_V1iW057fZK7h6vf0DV0EfaDrfI_i6QySQlZPMuBZ58YSaeJfrjwWB_CtnFhchkruuyoP8T7ZnOn04AseSVjP92-kYljk0mv1y7xvXVWsQ7BRXtU0epk0PFQsJ7qCeqLW1Rjkn9cwrcii1ZifHWAGWWOTYXDkde0irL0073IUU9LC_T82zhnLkcUGMNyTWTM8VM8QgDBaBAmW8Mbn1OOYK4b4deXF2wa2Ms8ml5JY825lvk06bVl2Ykrwve6vk46Tmtoof2q-5840z4b78T6rrAMqKpShMLViqGis3S2Qv1Z5IeHyaIH2jGUkXgChsPFamdL5jNQu05jxJn61Fx_I45IjMG7UAEADm3uk4PBob0BrCHC-AKJJeSuBZjdy84k6wGMOqG08NRq_ZGlyfiOinIQgxaFnZgMK2g6VDDKQ684OT484GzzdYfJA1VXEELL0WDTCYNBccWwojZF_7NULDdVVUzBjxim1qhxXpIKWGOkhv6731peWp9327tjkLBFE70lmP2u4_aKHCL_KIg7C1ocSn3UlsSzqKjESxUugsGlh6QPDFe08jpPOFy0LjHF4obczz86HofhmP7AGm0el7JXWecLfQU_OcF2bMv8_xOL6XEDDr4nSUS0wcfNjVKjR4amY8uS8qjkO0UpHxrBnlgP5KrFW0S3nH8KR5FZAdmlt0tH19hhbSu8G2LHw2t8HroHgMy0VT5hhQyTGodlH_EZpW_EvKv38CsgpLx34EpBzXET5yx-aVfYoHd4L3ouG9B2NPLnW7is9Pgwzl5yiCOT7rPtZz3z6s0yhfMBJCQ_mpR8VK8nwZe4XWsvgKQdsJahpOZK-zG3RV5vJxw9gswLel_dHc1kucsOMvIeCO5UCBz3f5Lh-HsHKE2zMXFAAP1CnWSWsIU3uhub9NAy73ju3n5CiZLscUv5MlmRGqNsMZ7Zr50VnHdwCY52DbYDnrsKd1qQBoOvW_pRzVu-7WtYOzvh6nec8yVvj-dsIpgVRWto-Stqma-f5iWUnnqZapItVWDhqPyqwQ0CLBOf-UlE9rjEzVNLmvNIWl4n8fvlg9t_DgIDF33Qz9LZwi-172cz5lK-tUwSH7V00AjDqiDVfuucLsHSBXj0ugnCCpDaijuBGqkkvEZ4oOQQv7rI5E7tob-9AGLZVGkTAdNK1f50kUS8q8-kn1mswyvPcsv5kiF6LwrtXgbm8wG8ZW6fTvmAxds8QNxy1bm5pza7Xsuk33lZ8WIeO3iFm00]--></g></svg>