<?xml version="1.0" encoding="UTF-8" standalone="no"?><svg xmlns="http://www.w3.org/2000/svg" xmlns:xlink="http://www.w3.org/1999/xlink" contentStyleType="text/css" height="1528px" preserveAspectRatio="none" style="width:1187px;height:1528px;background:#FFFFFF;" version="1.1" viewBox="0 0 1187 1528" width="1187px" zoomAndPan="magnify"><defs/><g><text fill="#000000" font-family="sans-serif" font-size="14" font-weight="bold" lengthAdjust="spacing" textLength="270" x="459.75" y="27.9951">Redis Cluster Reconcile Sequence</text><rect fill="none" height="254.6719" style="stroke:#475569;stroke-width:1.5;" width="912" x="268.5" y="193.8594"/><rect fill="none" height="223.5391" style="stroke:#475569;stroke-width:1.5;" width="892" x="278.5" y="217.9922"/><rect fill="none" height="119.3359" style="stroke:#475569;stroke-width:1.5;" width="872" x="288.5" y="315.1953"/><rect fill="none" height="827.2031" style="stroke:#475569;stroke-width:1.5;" width="1170.5" x="10" y="462.5313"/><rect fill="none" height="208.7344" style="stroke:#475569;stroke-width:1.5;" width="1150.5" x="20" y="486.6641"/><rect fill="none" height="90.2031" style="stroke:#475569;stroke-width:1.5;" width="1130.5" x="30" y="598.1953"/><rect fill="none" height="441.5234" style="stroke:#475569;stroke-width:1.5;" width="1140.5" x="20" y="812.0781"/><rect fill="none" height="46.2656" style="stroke:#475569;stroke-width:1.5;" width="406.5" x="30" y="992.4063"/><rect fill="none" height="46.2656" style="stroke:#475569;stroke-width:1.5;" width="750" x="288.5" y="1110.9375"/><rect fill="none" height="46.2656" style="stroke:#475569;stroke-width:1.5;" width="406.5" x="30" y="1200.3359"/><line style="stroke:#94A3B8;stroke-width:0.5;stroke-dasharray:5.0,5.0;" x1="76" x2="76" y1="118.5938" y2="1447.7969"/><line style="stroke:#94A3B8;stroke-width:0.5;stroke-dasharray:5.0,5.0;" x1="362.5" x2="362.5" y1="118.5938" y2="1447.7969"/><line style="stroke:#94A3B8;stroke-width:0.5;stroke-dasharray:5.0,5.0;" x1="1010.5" x2="1010.5" y1="118.5938" y2="1447.7969"/><line style="stroke:#94A3B8;stroke-width:0.5;stroke-dasharray:5.0,5.0;" x1="1094.5" x2="1094.5" y1="118.5938" y2="1447.7969"/><text fill="#000000" font-family="sans-serif" font-size="14" lengthAdjust="spacing" textLength="67" x="40" y="115.292">Controller</text><ellipse cx="76.5" cy="50.7969" fill="#E0F2FE" rx="8" ry="8" style="stroke:#0F766E;stroke-width:0.5;"/><path d="M76.5,58.7969 L76.5,85.7969 M63.5,66.7969 L89.5,66.7969 M76.5,85.7969 L63.5,100.7969 M76.5,85.7969 L89.5,100.7969 " fill="none" style="stroke:#0F766E;stroke-width:0.5;"/><text fill="#000000" font-family="sans-serif" font-size="14" lengthAdjust="spacing" textLength="67" x="40" y="1459.792">Controller</text><ellipse cx="76.5" cy="1471.5938" fill="#E0F2FE" rx="8" ry="8" style="stroke:#0F766E;stroke-width:0.5;"/><path d="M76.5,1479.5938 L76.5,1506.5938 M63.5,1487.5938 L89.5,1487.5938 M76.5,1506.5938 L63.5,1521.5938 M76.5,1506.5938 L89.5,1521.5938 " fill="none" style="stroke:#0F766E;stroke-width:0.5;"/><rect fill="#F8FAFC" height="30.2969" rx="2.5" ry="2.5" style="stroke:#475569;stroke-width:0.5;" width="128" x="298.5" y="87.2969"/><text fill="#000000" font-family="sans-serif" font-size="14" lengthAdjust="spacing" textLength="114" x="305.5" y="107.292">Service Manager</text><rect fill="#F8FAFC" height="30.2969" rx="2.5" ry="2.5" style="stroke:#475569;stroke-width:0.5;" width="128" x="298.5" y="1446.7969"/><text fill="#000000" font-family="sans-serif" font-size="14" lengthAdjust="spacing" textLength="114" x="305.5" y="1466.792">Service Manager</text><text fill="#000000" font-family="sans-serif" font-size="14" lengthAdjust="spacing" textLength="24" x="995.5" y="115.292">OCI</text><path d="M992.5,66.2969 C992.5,56.2969 1010.5,56.2969 1010.5,56.2969 C1010.5,56.2969 1028.5,56.2969 1028.5,66.2969 L1028.5,92.2969 C1028.5,102.2969 1010.5,102.2969 1010.5,102.2969 C1010.5,102.2969 992.5,102.2969 992.5,92.2969 L992.5,66.2969 " fill="#E2E2F0" style="stroke:#181818;stroke-width:1.5;"/><path d="M992.5,66.2969 C992.5,76.2969 1010.5,76.2969 1010.5,76.2969 C1010.5,76.2969 1028.5,76.2969 1028.5,66.2969 " fill="none" style="stroke:#181818;stroke-width:1.5;"/><text fill="#000000" font-family="sans-serif" font-size="14" lengthAdjust="spacing" textLength="24" x="995.5" y="1459.792">OCI</text><path d="M992.5,1473.0938 C992.5,1463.0938 1010.5,1463.0938 1010.5,1463.0938 C1010.5,1463.0938 1028.5,1463.0938 1028.5,1473.0938 L1028.5,1499.0938 C1028.5,1509.0938 1010.5,1509.0938 1010.5,1509.0938 C1010.5,1509.0938 992.5,1509.0938 992.5,1499.0938 L992.5,1473.0938 " fill="#E2E2F0" style="stroke:#181818;stroke-width:1.5;"/><path d="M992.5,1473.0938 C992.5,1483.0938 1010.5,1483.0938 1010.5,1483.0938 C1010.5,1483.0938 1028.5,1483.0938 1028.5,1473.0938 " fill="none" style="stroke:#181818;stroke-width:1.5;"/><text fill="#000000" font-family="sans-serif" font-size="14" lengthAdjust="spacing" textLength="106" x="1038.5" y="115.292">Kubernetes API</text><path d="M1076.5,66.2969 C1076.5,56.2969 1094.5,56.2969 1094.5,56.2969 C1094.5,56.2969 1112.5,56.2969 1112.5,66.2969 L1112.5,92.2969 C1112.5,102.2969 1094.5,102.2969 1094.5,102.2969 C1094.5,102.2969 1076.5,102.2969 1076.5,92.2969 L1076.5,66.2969 " fill="#E2E2F0" style="stroke:#181818;stroke-width:1.5;"/><path d="M1076.5,66.2969 C1076.5,76.2969 1094.5,76.2969 1094.5,76.2969 C1094.5,76.2969 1112.5,76.2969 1112.5,66.2969 " fill="none" style="stroke:#181818;stroke-width:1.5;"/><text fill="#000000" font-family="sans-serif" font-size="14" lengthAdjust="spacing" textLength="106" x="1038.5" y="1459.792">Kubernetes API</text><path d="M1076.5,1473.0938 C1076.5,1463.0938 1094.5,1463.0938 1094.5,1463.0938 C1094.5,1463.0938 1112.5,1463.0938 1112.5,1473.0938 L1112.5,1499.0938 C1112.5,1509.0938 1094.5,1509.0938 1094.5,1509.0938 C1094.5,1509.0938 1076.5,1509.0938 1076.5,1499.0938 L1076.5,1473.0938 " fill="#E2E2F0" style="stroke:#181818;stroke-width:1.5;"/><path d="M1076.5,1473.0938 C1076.5,1483.0938 1094.5,1483.0938 1094.5,1483.0938 C1094.5,1483.0938 1112.5,1483.0938 1112.5,1473.0938 " fill="none" style="stroke:#181818;stroke-width:1.5;"/><polygon fill="#334155" points="350.5,145.7266,360.5,149.7266,350.5,153.7266,354.5,149.7266" style="stroke:#334155;stroke-width:1.0;"/><line style="stroke:#334155;stroke-width:1.0;" x1="76.5" x2="356.5" y1="149.7266" y2="149.7266"/><text fill="#000000" font-family="sans-serif" font-size="13" font-weight="bold" lengthAdjust="spacing" textLength="9" x="83.5" y="144.6606">1</text><text fill="#000000" font-family="sans-serif" font-size="13" lengthAdjust="spacing" textLength="239" x="96.5" y="144.6606">reconcile desired spec and live status</text><polygon fill="#334155" points="1082.5,174.8594,1092.5,178.8594,1082.5,182.8594,1086.5,178.8594" style="stroke:#334155;stroke-width:1.0;"/><line style="stroke:#334155;stroke-width:1.0;" x1="362.5" x2="1088.5" y1="178.8594" y2="178.8594"/><text fill="#000000" font-family="sans-serif" font-size="13" font-weight="bold" lengthAdjust="spacing" textLength="9" x="369.5" y="173.7935">2</text><text fill="#000000" font-family="sans-serif" font-size="13" lengthAdjust="spacing" textLength="212" x="382.5" y="173.7935">read CR status and finalizer state</text><path d="M268.5,193.8594 L438.5,193.8594 L438.5,200.9922 L428.5,210.9922 L268.5,210.9922 L268.5,193.8594 " fill="#F8FAFC" style="stroke:#475569;stroke-width:1.5;"/><rect fill="none" height="254.6719" style="stroke:#475569;stroke-width:1.5;" width="912" x="268.5" y="193.8594"/><text fill="#000000" font-family="sans-serif" font-size="13" font-weight="bold" lengthAdjust="spacing" textLength="125" x="283.5" y="206.9263">Lookup and bind</text><path d="M278.5,217.9922 L342.5,217.9922 L342.5,225.125 L332.5,235.125 L278.5,235.125 L278.5,217.9922 " fill="#F8FAFC" style="stroke:#475569;stroke-width:1.5;"/><rect fill="none" height="223.5391" style="stroke:#475569;stroke-width:1.5;" width="892" x="278.5" y="217.9922"/><text fill="#000000" font-family="sans-serif" font-size="13" font-weight="bold" lengthAdjust="spacing" textLength="19" x="293.5" y="231.0591">alt</text><text fill="#000000" font-family="sans-serif" font-size="11" font-weight="bold" lengthAdjust="spacing" textLength="256" x="357.5" y="230.2026">[tracked or explicit OCID already exists]</text><polygon fill="#334155" points="998.5,252.2578,1008.5,256.2578,998.5,260.2578,1002.5,256.2578" style="stroke:#334155;stroke-width:1.0;"/><line style="stroke:#334155;stroke-width:1.0;" x1="362.5" x2="1004.5" y1="256.2578" y2="256.2578"/><text fill="#000000" font-family="sans-serif" font-size="13" font-weight="bold" lengthAdjust="spacing" textLength="9" x="369.5" y="251.1919">3</text><text fill="#000000" font-family="sans-serif" font-size="13" lengthAdjust="spacing" textLength="278" x="382.5" y="251.1919">get the current resource by known identifier</text><line style="stroke:#475569;stroke-width:1.0;stroke-dasharray:2.0,2.0;" x1="278.5" x2="1170.5" y1="265.2578" y2="265.2578"/><text fill="#000000" font-family="sans-serif" font-size="11" font-weight="bold" lengthAdjust="spacing" textLength="145" x="283.5" y="275.4683">[no OCID is bound yet]</text><polygon fill="#334155" points="998.5,296.1953,1008.5,300.1953,998.5,304.1953,1002.5,300.1953" style="stroke:#334155;stroke-width:1.0;"/><line style="stroke:#334155;stroke-width:1.0;" x1="362.5" x2="1004.5" y1="300.1953" y2="300.1953"/><text fill="#000000" font-family="sans-serif" font-size="13" font-weight="bold" lengthAdjust="spacing" textLength="9" x="369.5" y="295.1294">4</text><text fill="#000000" font-family="sans-serif" font-size="13" lengthAdjust="spacing" textLength="193" x="382.5" y="295.1294">list resources by display name</text><path d="M288.5,315.1953 L352.5,315.1953 L352.5,322.3281 L342.5,332.3281 L288.5,332.3281 L288.5,315.1953 " fill="#F8FAFC" style="stroke:#475569;stroke-width:1.5;"/><rect fill="none" height="119.3359" style="stroke:#475569;stroke-width:1.5;" width="872" x="288.5" y="315.1953"/><text fill="#000000" font-family="sans-serif" font-size="13" font-weight="bold" lengthAdjust="spacing" textLength="19" x="303.5" y="328.2622">alt</text><text fill="#000000" font-family="sans-serif" font-size="11" font-weight="bold" lengthAdjust="spacing" textLength="162" x="367.5" y="327.4058">[existing resource found]</text><polygon fill="#334155" points="1082.5,349.4609,1092.5,353.4609,1082.5,357.4609,1086.5,353.4609" style="stroke:#334155;stroke-width:1.0;"/><line style="stroke:#334155;stroke-width:1.0;" x1="362.5" x2="1088.5" y1="353.4609" y2="353.4609"/><text fill="#000000" font-family="sans-serif" font-size="13" font-weight="bold" lengthAdjust="spacing" textLength="9" x="369.5" y="348.395">5</text><text fill="#000000" font-family="sans-serif" font-size="13" lengthAdjust="spacing" textLength="221" x="382.5" y="348.395">persist the resolved OCID in status</text><line style="stroke:#475569;stroke-width:1.0;stroke-dasharray:2.0,2.0;" x1="288.5" x2="1160.5" y1="362.4609" y2="362.4609"/><text fill="#000000" font-family="sans-serif" font-size="11" font-weight="bold" lengthAdjust="spacing" textLength="182" x="293.5" y="372.6714">[no existing resource found]</text><polygon fill="#334155" points="998.5,393.3984,1008.5,397.3984,998.5,401.3984,1002.5,397.3984" style="stroke:#334155;stroke-width:1.0;"/><line style="stroke:#334155;stroke-width:1.0;" x1="362.5" x2="1004.5" y1="397.3984" y2="397.3984"/><text fill="#000000" font-family="sans-serif" font-size="13" font-weight="bold" lengthAdjust="spacing" textLength="9" x="369.5" y="392.3325">6</text><text fill="#000000" font-family="sans-serif" font-size="13" lengthAdjust="spacing" textLength="152" x="382.5" y="392.3325">create the OCI resource</text><polygon fill="#334155" points="1082.5,422.5313,1092.5,426.5313,1082.5,430.5313,1086.5,426.5313" style="stroke:#334155;stroke-width:1.0;"/><line style="stroke:#334155;stroke-width:1.0;" x1="362.5" x2="1088.5" y1="426.5313" y2="426.5313"/><text fill="#000000" font-family="sans-serif" font-size="13" font-weight="bold" lengthAdjust="spacing" textLength="9" x="369.5" y="421.4653">7</text><text fill="#000000" font-family="sans-serif" font-size="13" lengthAdjust="spacing" textLength="216" x="382.5" y="421.4653">persist the created OCID in status</text><path d="M10,462.5313 L74,462.5313 L74,469.6641 L64,479.6641 L10,479.6641 L10,462.5313 " fill="#F8FAFC" style="stroke:#475569;stroke-width:1.5;"/><rect fill="none" height="827.2031" style="stroke:#475569;stroke-width:1.5;" width="1170.5" x="10" y="462.5313"/><text fill="#000000" font-family="sans-serif" font-size="13" font-weight="bold" lengthAdjust="spacing" textLength="19" x="25" y="475.5981">alt</text><text fill="#000000" font-family="sans-serif" font-size="11" font-weight="bold" lengthAdjust="spacing" textLength="120" x="89" y="474.7417">[delete requested]</text><path d="M20,486.6641 L113,486.6641 L113,493.7969 L103,503.7969 L20,503.7969 L20,486.6641 " fill="#F8FAFC" style="stroke:#475569;stroke-width:1.5;"/><rect fill="none" height="208.7344" style="stroke:#475569;stroke-width:1.5;" width="1150.5" x="20" y="486.6641"/><text fill="#000000" font-family="sans-serif" font-size="13" font-weight="bold" lengthAdjust="spacing" textLength="48" x="35" y="499.731">Delete</text><polygon fill="#334155" points="998.5,520.9297,1008.5,524.9297,998.5,528.9297,1002.5,524.9297" style="stroke:#334155;stroke-width:1.0;"/><line style="stroke:#334155;stroke-width:1.0;" x1="362.5" x2="1004.5" y1="524.9297" y2="524.9297"/><text fill="#000000" font-family="sans-serif" font-size="13" font-weight="bold" lengthAdjust="spacing" textLength="9" x="369.5" y="519.8638">8</text><text fill="#000000" font-family="sans-serif" font-size="13" lengthAdjust="spacing" textLength="114" x="382.5" y="519.8638">submit OCI delete</text><polygon fill="#334155" points="998.5,550.0625,1008.5,554.0625,998.5,558.0625,1002.5,554.0625" style="stroke:#334155;stroke-width:1.0;"/><line style="stroke:#334155;stroke-width:1.0;" x1="362.5" x2="1004.5" y1="554.0625" y2="554.0625"/><text fill="#000000" font-family="sans-serif" font-size="13" font-weight="bold" lengthAdjust="spacing" textLength="9" x="369.5" y="548.9966">9</text><text fill="#000000" font-family="sans-serif" font-size="13" lengthAdjust="spacing" textLength="611" x="382.5" y="548.9966">Confirm deletion with GetRedisCluster until the lifecycle is DELETED or the resource is not found.</text><polygon fill="#334155" points="1082.5,579.1953,1092.5,583.1953,1082.5,587.1953,1086.5,583.1953" style="stroke:#334155;stroke-width:1.0;"/><line style="stroke:#334155;stroke-width:1.0;" x1="362.5" x2="1088.5" y1="583.1953" y2="583.1953"/><text fill="#000000" font-family="sans-serif" font-size="13" font-weight="bold" lengthAdjust="spacing" textLength="18" x="369.5" y="578.1294">10</text><text fill="#000000" font-family="sans-serif" font-size="13" lengthAdjust="spacing" textLength="350" x="391.5" y="578.1294">Delete the owned Secret after OCI delete confirmation.</text><path d="M30,598.1953 L94,598.1953 L94,605.3281 L84,615.3281 L30,615.3281 L30,598.1953 " fill="#F8FAFC" style="stroke:#475569;stroke-width:1.5;"/><rect fill="none" height="90.2031" style="stroke:#475569;stroke-width:1.5;" width="1130.5" x="30" y="598.1953"/><text fill="#000000" font-family="sans-serif" font-size="13" font-weight="bold" lengthAdjust="spacing" textLength="19" x="45" y="611.2622">alt</text><text fill="#000000" font-family="sans-serif" font-size="11" font-weight="bold" lengthAdjust="spacing" textLength="217" x="109" y="610.4058">[owned Secret cleanup succeeds]</text><polygon fill="#334155" points="1082.5,632.4609,1092.5,636.4609,1082.5,640.4609,1086.5,636.4609" style="stroke:#334155;stroke-width:1.0;"/><line style="stroke:#334155;stroke-width:1.0;" x1="362.5" x2="1088.5" y1="636.4609" y2="636.4609"/><text fill="#000000" font-family="sans-serif" font-size="13" font-weight="bold" lengthAdjust="spacing" textLength="18" x="369.5" y="631.395">11</text><text fill="#000000" font-family="sans-serif" font-size="13" lengthAdjust="spacing" textLength="127" x="391.5" y="631.395">remove the finalizer</text><line style="stroke:#475569;stroke-width:1.0;stroke-dasharray:2.0,2.0;" x1="30" x2="1160.5" y1="645.4609" y2="645.4609"/><text fill="#000000" font-family="sans-serif" font-size="11" font-weight="bold" lengthAdjust="spacing" textLength="138" x="35" y="655.6714">[Secret cleanup fails]</text><polygon fill="#334155" points="87.5,676.3984,77.5,680.3984,87.5,684.3984,83.5,680.3984" style="stroke:#334155;stroke-width:1.0;"/><line style="stroke:#334155;stroke-width:1.0;stroke-dasharray:2.0,2.0;" x1="81.5" x2="361.5" y1="680.3984" y2="680.3984"/><text fill="#000000" font-family="sans-serif" font-size="13" font-weight="bold" lengthAdjust="spacing" textLength="18" x="93.5" y="675.3325">12</text><text fill="#000000" font-family="sans-serif" font-size="13" lengthAdjust="spacing" textLength="177" x="115.5" y="675.3325">retain the finalizer and retry</text><line style="stroke:#475569;stroke-width:1.0;stroke-dasharray:2.0,2.0;" x1="10" x2="1180.5" y1="703.3984" y2="703.3984"/><text fill="#000000" font-family="sans-serif" font-size="11" font-weight="bold" lengthAdjust="spacing" textLength="147" x="15" y="713.6089">[OCI state is retryable]</text><polygon fill="#334155" points="87.5,734.3359,77.5,738.3359,87.5,742.3359,83.5,738.3359" style="stroke:#334155;stroke-width:1.0;"/><line style="stroke:#334155;stroke-width:1.0;stroke-dasharray:2.0,2.0;" x1="81.5" x2="361.5" y1="738.3359" y2="738.3359"/><text fill="#000000" font-family="sans-serif" font-size="13" font-weight="bold" lengthAdjust="spacing" textLength="18" x="93.5" y="733.27">13</text><text fill="#000000" font-family="sans-serif" font-size="13" lengthAdjust="spacing" textLength="110" x="115.5" y="733.27">requeue required</text><line style="stroke:#475569;stroke-width:1.0;stroke-dasharray:2.0,2.0;" x1="10" x2="1180.5" y1="747.3359" y2="747.3359"/><text fill="#000000" font-family="sans-serif" font-size="11" font-weight="bold" lengthAdjust="spacing" textLength="200" x="15" y="757.5464">[OCI state is failed or terminal]</text><polygon fill="#334155" points="87.5,778.2734,77.5,782.2734,87.5,786.2734,83.5,782.2734" style="stroke:#334155;stroke-width:1.0;"/><line style="stroke:#334155;stroke-width:1.0;stroke-dasharray:2.0,2.0;" x1="81.5" x2="361.5" y1="782.2734" y2="782.2734"/><text fill="#000000" font-family="sans-serif" font-size="13" font-weight="bold" lengthAdjust="spacing" textLength="18" x="93.5" y="777.2075">14</text><text fill="#000000" font-family="sans-serif" font-size="13" lengthAdjust="spacing" textLength="240" x="115.5" y="777.2075">unsuccessful terminal reconcile result</text><line style="stroke:#475569;stroke-width:1.0;stroke-dasharray:2.0,2.0;" x1="10" x2="1180.5" y1="791.2734" y2="791.2734"/><text fill="#000000" font-family="sans-serif" font-size="11" font-weight="bold" lengthAdjust="spacing" textLength="203" x="15" y="801.4839">[OCI state is active and usable]</text><path d="M20,812.0781 L167,812.0781 L167,819.2109 L157,829.2109 L20,829.2109 L20,812.0781 " fill="#F8FAFC" style="stroke:#475569;stroke-width:1.5;"/><rect fill="none" height="441.5234" style="stroke:#475569;stroke-width:1.5;" width="1140.5" x="20" y="812.0781"/><text fill="#000000" font-family="sans-serif" font-size="13" font-weight="bold" lengthAdjust="spacing" textLength="102" x="35" y="825.145">Drift handling</text><path d="M324,834.2109 L324,980.2109 L1049,980.2109 L1049,844.2109 L1039,834.2109 L324,834.2109 " fill="#FEFFDD" style="stroke:#181818;stroke-width:0.5;"/><path d="M1039,834.2109 L1039,844.2109 L1049,844.2109 L1039,834.2109 " fill="#FEFFDD" style="stroke:#181818;stroke-width:0.5;"/><text fill="#000000" font-family="sans-serif" font-size="13" lengthAdjust="spacing" textLength="171" x="330" y="851.2778">Supported update surface:</text><text fill="#000000" font-family="sans-serif" font-size="13" lengthAdjust="spacing" textLength="92" x="330" y="866.4106">- displayName</text><text fill="#000000" font-family="sans-serif" font-size="13" lengthAdjust="spacing" textLength="79" x="330" y="881.5435">- nodeCount</text><text fill="#000000" font-family="sans-serif" font-size="13" lengthAdjust="spacing" textLength="130" x="330" y="896.6763">- nodeMemoryInGBs</text><text fill="#000000" font-family="sans-serif" font-size="13" lengthAdjust="spacing" textLength="96" x="330" y="911.8091">- freeform tags</text><text fill="#000000" font-family="sans-serif" font-size="13" lengthAdjust="spacing" textLength="88" x="330" y="926.9419">- defined tags</text><text fill="#000000" font-family="sans-serif" font-size="13" lengthAdjust="spacing" textLength="139" x="330" y="942.0747">Reject before mutate:</text><text fill="#000000" font-family="sans-serif" font-size="13" lengthAdjust="spacing" textLength="140" x="330" y="957.2075">- softwareVersion drift</text><text fill="#000000" font-family="sans-serif" font-size="13" lengthAdjust="spacing" textLength="93" x="330" y="972.3403">- subnetId drift</text><path d="M30,992.4063 L100,992.4063 L100,999.5391 L90,1009.5391 L30,1009.5391 L30,992.4063 " fill="#F8FAFC" style="stroke:#475569;stroke-width:1.5;"/><rect fill="none" height="46.2656" style="stroke:#475569;stroke-width:1.5;" width="406.5" x="30" y="992.4063"/><text fill="#000000" font-family="sans-serif" font-size="13" font-weight="bold" lengthAdjust="spacing" textLength="25" x="45" y="1005.4731">opt</text><text fill="#000000" font-family="sans-serif" font-size="11" font-weight="bold" lengthAdjust="spacing" textLength="286" x="115" y="1004.6167">[unsupported or immutable drift is detected]</text><polygon fill="#334155" points="87.5,1026.6719,77.5,1030.6719,87.5,1034.6719,83.5,1030.6719" style="stroke:#334155;stroke-width:1.0;"/><line style="stroke:#334155;stroke-width:1.0;stroke-dasharray:2.0,2.0;" x1="81.5" x2="361.5" y1="1030.6719" y2="1030.6719"/><text fill="#000000" font-family="sans-serif" font-size="13" font-weight="bold" lengthAdjust="spacing" textLength="18" x="93.5" y="1025.606">15</text><text fill="#000000" font-family="sans-serif" font-size="13" lengthAdjust="spacing" textLength="169" x="115.5" y="1025.606">reject before OCI mutation</text><polygon fill="#334155" points="998.5,1062.8047,1008.5,1066.8047,998.5,1070.8047,1002.5,1066.8047" style="stroke:#334155;stroke-width:1.0;"/><line style="stroke:#334155;stroke-width:1.0;" x1="362.5" x2="1004.5" y1="1066.8047" y2="1066.8047"/><text fill="#000000" font-family="sans-serif" font-size="13" font-weight="bold" lengthAdjust="spacing" textLength="18" x="369.5" y="1061.7388">16</text><text fill="#000000" font-family="sans-serif" font-size="13" lengthAdjust="spacing" textLength="455" x="391.5" y="1061.7388">Always route resolved or bound resources through UpdateRedisCluster.</text><polygon fill="#334155" points="998.5,1091.9375,1008.5,1095.9375,998.5,1099.9375,1002.5,1095.9375" style="stroke:#334155;stroke-width:1.0;"/><line style="stroke:#334155;stroke-width:1.0;" x1="362.5" x2="1004.5" y1="1095.9375" y2="1095.9375"/><text fill="#000000" font-family="sans-serif" font-size="13" font-weight="bold" lengthAdjust="spacing" textLength="18" x="369.5" y="1090.8716">17</text><text fill="#000000" font-family="sans-serif" font-size="13" lengthAdjust="spacing" textLength="597" x="391.5" y="1090.8716">Move the Redis cluster compartment before mutable updates when compartment drift exists.</text><path d="M288.5,1110.9375 L358.5,1110.9375 L358.5,1118.0703 L348.5,1128.0703 L288.5,1128.0703 L288.5,1110.9375 " fill="#F8FAFC" style="stroke:#475569;stroke-width:1.5;"/><rect fill="none" height="46.2656" style="stroke:#475569;stroke-width:1.5;" width="750" x="288.5" y="1110.9375"/><text fill="#000000" font-family="sans-serif" font-size="13" font-weight="bold" lengthAdjust="spacing" textLength="25" x="303.5" y="1124.0044">opt</text><text fill="#000000" font-family="sans-serif" font-size="11" font-weight="bold" lengthAdjust="spacing" textLength="258" x="373.5" y="1123.1479">[supported drift or collection diff exists]</text><polygon fill="#334155" points="998.5,1145.2031,1008.5,1149.2031,998.5,1153.2031,1002.5,1149.2031" style="stroke:#334155;stroke-width:1.0;"/><line style="stroke:#334155;stroke-width:1.0;" x1="362.5" x2="1004.5" y1="1149.2031" y2="1149.2031"/><text fill="#000000" font-family="sans-serif" font-size="13" font-weight="bold" lengthAdjust="spacing" textLength="18" x="369.5" y="1144.1372">18</text><text fill="#000000" font-family="sans-serif" font-size="13" lengthAdjust="spacing" textLength="277" x="391.5" y="1144.1372">apply the supported in-place mutation path</text><polygon fill="#334155" points="1082.5,1181.3359,1092.5,1185.3359,1082.5,1189.3359,1086.5,1185.3359" style="stroke:#334155;stroke-width:1.0;"/><line style="stroke:#334155;stroke-width:1.0;" x1="362.5" x2="1088.5" y1="1185.3359" y2="1185.3359"/><text fill="#000000" font-family="sans-serif" font-size="13" font-weight="bold" lengthAdjust="spacing" textLength="18" x="369.5" y="1180.27">19</text><text fill="#000000" font-family="sans-serif" font-size="13" lengthAdjust="spacing" textLength="351" x="391.5" y="1180.27">upsert the owned Secret for the usable active resource</text><path d="M30,1200.3359 L94,1200.3359 L94,1207.4688 L84,1217.4688 L30,1217.4688 L30,1200.3359 " fill="#F8FAFC" style="stroke:#475569;stroke-width:1.5;"/><rect fill="none" height="46.2656" style="stroke:#475569;stroke-width:1.5;" width="406.5" x="30" y="1200.3359"/><text fill="#000000" font-family="sans-serif" font-size="13" font-weight="bold" lengthAdjust="spacing" textLength="19" x="45" y="1213.4028">alt</text><text fill="#000000" font-family="sans-serif" font-size="11" font-weight="bold" lengthAdjust="spacing" textLength="116" x="109" y="1212.5464">[Secret sync fails]</text><polygon fill="#334155" points="87.5,1234.6016,77.5,1238.6016,87.5,1242.6016,83.5,1238.6016" style="stroke:#334155;stroke-width:1.0;"/><line style="stroke:#334155;stroke-width:1.0;stroke-dasharray:2.0,2.0;" x1="81.5" x2="361.5" y1="1238.6016" y2="1238.6016"/><text fill="#000000" font-family="sans-serif" font-size="13" font-weight="bold" lengthAdjust="spacing" textLength="18" x="93.5" y="1233.5356">20</text><text fill="#000000" font-family="sans-serif" font-size="13" lengthAdjust="spacing" textLength="150" x="115.5" y="1233.5356">block success and retry</text><polygon fill="#334155" points="87.5,1277.7344,77.5,1281.7344,87.5,1285.7344,83.5,1281.7344" style="stroke:#334155;stroke-width:1.0;"/><line style="stroke:#334155;stroke-width:1.0;stroke-dasharray:2.0,2.0;" x1="81.5" x2="361.5" y1="1281.7344" y2="1281.7344"/><text fill="#000000" font-family="sans-serif" font-size="13" font-weight="bold" lengthAdjust="spacing" textLength="18" x="93.5" y="1276.6685">21</text><text fill="#000000" font-family="sans-serif" font-size="13" lengthAdjust="spacing" textLength="169" x="115.5" y="1276.6685">successful active reconcile</text><path d="M51,1301.7344 L51,1432.7344 L1034,1432.7344 L1034,1311.7344 L1024,1301.7344 L51,1301.7344 " fill="#FEFFDD" style="stroke:#181818;stroke-width:0.5;"/><path d="M1024,1301.7344 L1024,1311.7344 L1034,1311.7344 L1024,1301.7344 " fill="#FEFFDD" style="stroke:#181818;stroke-width:0.5;"/><text fill="#000000" font-family="sans-serif" font-size="13" lengthAdjust="spacing" textLength="105" x="57" y="1318.8013">Boundary notes:</text><text fill="#000000" font-family="sans-serif" font-size="13" lengthAdjust="spacing" textLength="461" x="57" y="1333.9341">- A direct DeleteRedisCluster 404 currently short-circuits completion and</text><text fill="#000000" font-family="sans-serif" font-size="13" lengthAdjust="spacing" textLength="254" x="73" y="1349.0669">can skip Secret cleanup on that branch.</text><text fill="#000000" font-family="sans-serif" font-size="13" lengthAdjust="spacing" textLength="108" x="57" y="1364.1997">Sequence notes:</text><text fill="#000000" font-family="sans-serif" font-size="13" lengthAdjust="spacing" textLength="486" x="57" y="1379.3325">- Resolved-name and status-based binds both keep using the retained OCID</text><text fill="#000000" font-family="sans-serif" font-size="13" lengthAdjust="spacing" textLength="175" x="73" y="1394.4653">for later update and delete.</text><text fill="#000000" font-family="sans-serif" font-size="13" lengthAdjust="spacing" textLength="166" x="57" y="1409.5981">Controller-local invariants:</text><text fill="#000000" font-family="sans-serif" font-size="13" lengthAdjust="spacing" textLength="229" x="57" y="1424.731">- StatusPresentUsesStatusInvariant</text><!--SRC=[bLRRRYCt37sVho3Irpf8cyjcyr30SUmWs6GR9BjzbpKSMxKiJNM9rrlqtqjAuvcn4pkx0Hp38iNB8Ncee896UC9IUHZfw0Cw-YMjaOhEd_6VY4PY8MAm9Ywdw0g_KAOMJYp1pqLfLyhCe1BQOqzoBUHYvcmqvSXgw-2NIVhhQGoTiwj6U7fwzjlvUKzOOYMY3b_mMnXgDJDBD04qLg7ll0aD_Yq07eKBIgfQcF3QzULaE1djA5bNeciKpZwSdrzy98LxLU6zChWb_NWsFBs-x4ltv0PmIwVrswQpQ6zeGnciUoKUdqn-dunRST_moUJ3nSMu-AyGB8AZaJN1MQtH7O6WIhO_YxhB6ewUqRqemkn1635hT9kpvgWeHH1JuH6E_XpT9GNwxfr-YjG41WDw63vcXK-NlYWwbp3uOyVe5RYsfKhqoc49laO9mfIWrGk23o94NsnVOqDacs-B4aPFZLQwLIaZjFfEIdo8HS78rN1lxOA-M6EgJ4dO2HqWE8AMV19I-AtM14VWh6v8oARNTAfyyAGDy3e4qho26PAPEOACpd4tElGsEe9okeQ5iIi3ggHpLId2401f7i3Ox8L6QyfbXJM6Gpuq1T4QzcoPfhBMOWr6B37Tv6nIi3nrRGmLMq_ojsmd26jqdirp3dnFln0UEJgpGP-lRmB_MISf0Kbe1am-w7TxzSSZomRU3Ymvv__yAHY84ZNr8RaX9Y3YOddkWfiaE0IrZzDbReB6oY5bQkrAkMNMLDR0IeKvt698jBbXpKZLroaBJKmXrvAQdIf_CxuVVndVSEzji4zmaiZOa54zBWxWavD9bwdD29nd99W2Y8gzTXc0p64A3l6uxPQjEnIJC0IGZr8YblvmPHmkxKlst8vRroGx9YkXz3vxPB2Z1xOR11LtosuQMHAuzMwrsHTdcUQSOKjQOggvPkzwejQ8kKMOTTwmnd5dQY0ubnpE-sQZIG1wNqNTNkjn71MPrjSRpeYjcUqur-YR59gMTQeAC2U9fgbB67osT8aAu7R2-PK9kG4wrhLrF36nBjc7ZwuI4gyQ-M3389yt1C9dnfOuehuBMoSFL6stlZEtrxuzhnnYPQdrWvXrfxIU5JTLx_09_qOPOChQ2Cl82NT1U5k5bN3u5uywpK_9oNRIEALzSbVsZgdmF1qvP5k7XFWcLIgLMhABAQ-JX1j1Mz88o4m2FzI2_NYvHYbc2gxNVdi9OQXNOasDQ6FeiId5bMc-e_0m9vtP7BwcwlJfulYG_OVDsELtcMmOHjebR_Fq6keXpJ3aydjOpT5iwMLyyduxRk7imCnooyO96PdehLHLrL-9U-CKTQtNAT3Ee383QZY9BQ1GYp1_1zL4Dx7swC9hegiQwimJivcXhUN2HDTe-xMHFqD6Kstb0ffvtij2xvhf4K8RO4C7UM5rqznTQoRvchj6k7LgUSzZCu0XLS5nYsRwtzeqPoTdctS8mU_d1Fn0AYUZ2ZuLlrbJejtNKj0kNQXwbxGjix2WRdB2oFbnIhDvLlTYUMewVC3Fa0HHtii3VX7cXnQ_S6WdBX1hgXE_6_AoOw9lzdaJ2bTJYxGmCsMnlRp1s7y7pe0AGwogp8jmYbwlJJ3FoVKZbP_I_-hHvuExZLhHSiV_]--></g></svg>