<?xml version="1.0" encoding="UTF-8" standalone="no"?><svg xmlns="http://www.w3.org/2000/svg" xmlns:xlink="http://www.w3.org/1999/xlink" contentStyleType="text/css" height="498px" preserveAspectRatio="none" style="width:2655px;height:498px;background:#FFFFFF;" version="1.1" viewBox="0 0 2655 498" width="2655px" zoomAndPan="magnify"><defs/><g><text fill="#000000" font-family="sans-serif" font-size="14" font-weight="bold" lengthAdjust="spacing" textLength="302" x="1169.93" y="22.9951">Redis Cluster Reconcile State Machine</text><ellipse cx="16" cy="346.2969" fill="#222222" rx="10" ry="10" style="stroke:none;stroke-width:1.0;"/><g id="Observe"><rect fill="#F8FAFC" height="50.2656" rx="6" ry="6" style="stroke:#475569;stroke-width:0.5;" width="329" x="86" y="321.2969"/><line style="stroke:#475569;stroke-width:0.5;" x1="86" x2="415" y1="347.5938" y2="347.5938"/><text fill="#0F172A" font-family="sans-serif" font-size="14" lengthAdjust="spacing" textLength="58" x="221.5" y="339.292">Observe</text><text fill="#0F172A" font-family="sans-serif" font-size="12" lengthAdjust="spacing" textLength="309" x="91" y="363.7324">read spec, status, delete intent, and OCI lifecycle</text></g><rect fill="#F8FAFC" height="40" rx="6" ry="6" style="stroke:#475569;stroke-width:0.5;" width="122" x="475" y="326.2969"/><text fill="#0F172A" font-family="sans-serif" font-size="14" lengthAdjust="spacing" textLength="112" x="480" y="351.1436">ResolveByName</text><rect fill="#F8FAFC" height="40" rx="6" ry="6" style="stroke:#475569;stroke-width:0.5;" width="111" x="657" y="233.2969"/><text fill="#0F172A" font-family="sans-serif" font-size="14" lengthAdjust="spacing" textLength="101" x="662" y="258.1436">EvaluateReady</text><rect fill="#F8FAFC" height="40" rx="6" ry="6" style="stroke:#475569;stroke-width:0.5;" width="75" x="1072" y="326.2969"/><text fill="#0F172A" font-family="sans-serif" font-size="14" lengthAdjust="spacing" textLength="65" x="1077" y="351.1436">Retryable</text><rect fill="#F8FAFC" height="40" rx="6" ry="6" style="stroke:#475569;stroke-width:0.5;" width="50" x="1237" y="412.2969"/><text fill="#0F172A" font-family="sans-serif" font-size="14" lengthAdjust="spacing" textLength="40" x="1242" y="437.1436">Failed</text><rect fill="#F8FAFC" height="40" rx="6" ry="6" style="stroke:#475569;stroke-width:0.5;" width="173" x="828" y="158.2969"/><text fill="#0F172A" font-family="sans-serif" font-size="14" lengthAdjust="spacing" textLength="163" x="833" y="183.1436">RejectUnsupportedDrift</text><rect fill="#F8FAFC" height="40" rx="6" ry="6" style="stroke:#475569;stroke-width:0.5;" width="53" x="1395" y="158.2969"/><text fill="#0F172A" font-family="sans-serif" font-size="14" lengthAdjust="spacing" textLength="43" x="1400" y="183.1436">Ready</text><rect fill="#F8FAFC" height="40" rx="6" ry="6" style="stroke:#475569;stroke-width:0.5;" width="142" x="843.5" y="233.2969"/><text fill="#0F172A" font-family="sans-serif" font-size="14" lengthAdjust="spacing" textLength="132" x="848.5" y="258.1436">MoveCompartment</text><rect fill="#F8FAFC" height="40" rx="6" ry="6" style="stroke:#475569;stroke-width:0.5;" width="97" x="1061" y="233.2969"/><text fill="#0F172A" font-family="sans-serif" font-size="14" lengthAdjust="spacing" textLength="87" x="1066" y="258.1436">ApplyUpdate</text><rect fill="#F8FAFC" height="40" rx="6" ry="6" style="stroke:#475569;stroke-width:0.5;" width="88" x="1218" y="233.2969"/><text fill="#0F172A" font-family="sans-serif" font-size="14" lengthAdjust="spacing" textLength="78" x="1223" y="258.1436">SyncSecret</text><rect fill="#F8FAFC" height="40" rx="6" ry="6" style="stroke:#475569;stroke-width:0.5;" width="111" x="1366" y="233.2969"/><text fill="#0F172A" font-family="sans-serif" font-size="14" lengthAdjust="spacing" textLength="101" x="1371" y="258.1436">SecretBlocked</text><rect fill="#F8FAFC" height="40" rx="6" ry="6" style="stroke:#475569;stroke-width:0.5;" width="113" x="1677.5" y="330.2969"/><text fill="#0F172A" font-family="sans-serif" font-size="14" lengthAdjust="spacing" textLength="103" x="1682.5" y="355.1436">DeletePending</text><rect fill="#F8FAFC" height="40" rx="6" ry="6" style="stroke:#475569;stroke-width:0.5;" width="169" x="2096.5" y="269.2969"/><text fill="#0F172A" font-family="sans-serif" font-size="14" lengthAdjust="spacing" textLength="159" x="2101.5" y="294.1436">DeleteCleanupBlocked</text><rect fill="#F8FAFC" height="40" rx="6" ry="6" style="stroke:#475569;stroke-width:0.5;" width="65" x="2431" y="269.2969"/><text fill="#0F172A" font-family="sans-serif" font-size="14" lengthAdjust="spacing" textLength="55" x="2436" y="294.1436">Deleted</text><g id="elem_GMN39"><path d="M1537,49.2969 L1537,174.2969 L1448.14,178.2969 L1537,182.2969 L1537,289.4219 A6,6 0 0 0 1543,295.4219 L1925,295.4219 A6,6 0 0 0 1931,289.4219 L1931,53.2969 L1921,43.2969 L1543,43.2969 A6,6 0 0 0 1537,49.2969 " fill="#FFF7ED" style="stroke:#181818;stroke-width:0.5;"/><path d="M1921,43.2969 L1921,50.2969 A3,3 0 0 0 1924,53.2969 L1931,53.2969 L1921,43.2969 " fill="#FFF7ED" style="stroke:#181818;stroke-width:0.5;"/><text fill="#0F172A" font-family="sans-serif" font-size="13" lengthAdjust="spacing" textLength="69" x="1543" y="60.3638">Archetype:</text><text fill="#0F172A" font-family="sans-serif" font-size="13" lengthAdjust="spacing" textLength="183" x="1543" y="75.4966">- resolved-drift-delete-secret</text><text fill="#0F172A" font-family="sans-serif" font-size="13" lengthAdjust="spacing" textLength="102" x="1543" y="90.6294">Update surface:</text><text fill="#0F172A" font-family="sans-serif" font-size="13" lengthAdjust="spacing" textLength="92" x="1543" y="105.7622">- displayName</text><text fill="#0F172A" font-family="sans-serif" font-size="13" lengthAdjust="spacing" textLength="79" x="1543" y="120.895">- nodeCount</text><text fill="#0F172A" font-family="sans-serif" font-size="13" lengthAdjust="spacing" textLength="130" x="1543" y="136.0278">- nodeMemoryInGBs</text><text fill="#0F172A" font-family="sans-serif" font-size="13" lengthAdjust="spacing" textLength="96" x="1543" y="151.1606">- freeform tags</text><text fill="#0F172A" font-family="sans-serif" font-size="13" lengthAdjust="spacing" textLength="88" x="1543" y="166.2935">- defined tags</text><text fill="#0F172A" font-family="sans-serif" font-size="13" lengthAdjust="spacing" textLength="139" x="1543" y="181.4263">Reject before mutate:</text><text fill="#0F172A" font-family="sans-serif" font-size="13" lengthAdjust="spacing" textLength="140" x="1543" y="196.5591">- softwareVersion drift</text><text fill="#0F172A" font-family="sans-serif" font-size="13" lengthAdjust="spacing" textLength="93" x="1543" y="211.6919">- subnetId drift</text><text fill="#0F172A" font-family="sans-serif" font-size="13" lengthAdjust="spacing" textLength="105" x="1543" y="226.8247">Boundary notes:</text><text fill="#0F172A" font-family="sans-serif" font-size="13" lengthAdjust="spacing" textLength="358" x="1543" y="241.9575">- A direct DeleteRedisCluster 404 currently short-circuits</text><text fill="#0F172A" font-family="sans-serif" font-size="13" lengthAdjust="spacing" textLength="357" x="1559" y="257.0903">completion and can skip Secret cleanup on that branch.</text><text fill="#0F172A" font-family="sans-serif" font-size="13" lengthAdjust="spacing" textLength="166" x="1543" y="272.2231">Controller-local invariants:</text><text fill="#0F172A" font-family="sans-serif" font-size="13" lengthAdjust="spacing" textLength="229" x="1543" y="287.356">- StatusPresentUsesStatusInvariant</text></g><g id="elem_GMN42"><path d="M1991,350.7969 L1991,353.5469 L1790.61,357.5469 L1991,361.5469 L1991,469.8594 A6,6 0 0 0 1997,475.8594 L2365,475.8594 A6,6 0 0 0 2371,469.8594 L2371,354.7969 L2361,344.7969 L1997,344.7969 A6,6 0 0 0 1991,350.7969 " fill="#FFF7ED" style="stroke:#181818;stroke-width:0.5;"/><path d="M2361,344.7969 L2361,351.7969 A3,3 0 0 0 2364,354.7969 L2371,354.7969 L2361,344.7969 " fill="#FFF7ED" style="stroke:#181818;stroke-width:0.5;"/><text fill="#0F172A" font-family="sans-serif" font-size="13" lengthAdjust="spacing" textLength="90" x="1997" y="361.8638">Delete states:</text><text fill="#0F172A" font-family="sans-serif" font-size="13" lengthAdjust="spacing" textLength="102" x="1997" y="376.9966">- DeletePending</text><text fill="#0F172A" font-family="sans-serif" font-size="13" lengthAdjust="spacing" textLength="153" x="1997" y="392.1294">- DeleteCleanupBlocked</text><text fill="#0F172A" font-family="sans-serif" font-size="13" lengthAdjust="spacing" textLength="59" x="1997" y="407.2622">- Deleted</text><text fill="#0F172A" font-family="sans-serif" font-size="13" lengthAdjust="spacing" textLength="103" x="1997" y="422.395">Delete workflow:</text><text fill="#0F172A" font-family="sans-serif" font-size="13" lengthAdjust="spacing" textLength="359" x="1997" y="437.5278">- Confirm deletion with GetRedisCluster until the lifecycle</text><text fill="#0F172A" font-family="sans-serif" font-size="13" lengthAdjust="spacing" textLength="257" x="2013" y="452.6606">is DELETED or the resource is not found.</text><text fill="#0F172A" font-family="sans-serif" font-size="13" lengthAdjust="spacing" textLength="359" x="1997" y="467.7935">- Delete the owned Secret after OCI delete confirmation.</text></g><!--link *start to Observe--><g id="link_*start_Observe"><path d="M26.08,346.2969 C26.08,346.2969 80.84,346.2969 80.84,346.2969 " fill="none" id="*start-to-Observe" style="stroke:#181818;stroke-width:1.0;"/><polygon fill="#181818" points="85.84,346.2969,76.84,342.2969,80.84,346.2969,76.84,350.2969,85.84,346.2969" style="stroke:#181818;stroke-width:1.0;"/></g><!--link Observe to ResolveByName--><g id="link_Observe_ResolveByName"><path d="M415.34,346.2969 C415.34,346.2969 469.86,346.2969 469.86,346.2969 " fill="none" id="Observe-to-ResolveByName" style="stroke:#181818;stroke-width:1.0;"/><polygon fill="#181818" points="474.86,346.2969,465.86,342.2969,469.86,346.2969,465.86,350.2969,474.86,346.2969" style="stroke:#181818;stroke-width:1.0;"/><text fill="#000000" font-family="sans-serif" font-size="13" lengthAdjust="spacing" textLength="163" x="443.6" y="359.3638">status/spec OCID missing</text></g><!--link ResolveByName to EvaluateReady--><g id="link_ResolveByName_EvaluateReady"><path d="M597.41,346.2969 C648.53,346.2969 713,346.2969 713,346.2969 C713,346.2969 713,278.4769 713,278.4769 " fill="none" id="ResolveByName-to-EvaluateReady" style="stroke:#181818;stroke-width:1.0;"/><polygon fill="#181818" points="713,273.4769,709,282.4769,713,278.4769,717,282.4769,713,273.4769" style="stroke:#181818;stroke-width:1.0;"/><text fill="#000000" font-family="sans-serif" font-size="13" lengthAdjust="spacing" textLength="123" x="690.11" y="359.3638">OCI state in ACTIVE</text></g><!--link ResolveByName to Retryable--><g id="link_ResolveByName_Retryable"><path d="M597.1,356.2969 C597.1,356.2969 1066.75,356.2969 1066.75,356.2969 " fill="none" id="ResolveByName-to-Retryable" style="stroke:#181818;stroke-width:1.0;"/><polygon fill="#181818" points="1071.75,356.2969,1062.75,352.2969,1066.75,356.2969,1062.75,360.2969,1071.75,356.2969" style="stroke:#181818;stroke-width:1.0;"/><text fill="#000000" font-family="sans-serif" font-size="13" lengthAdjust="spacing" textLength="217" x="832.93" y="369.3638">OCI state in CREATING, UPDATING</text></g><!--link ResolveByName to Failed--><g id="link_ResolveByName_Failed"><path d="M536,366.3169 C536,389.8169 536,425.6269 536,425.6269 C536,425.6269 1231.59,425.6269 1231.59,425.6269 " fill="none" id="ResolveByName-to-Failed" style="stroke:#181818;stroke-width:1.0;"/><polygon fill="#181818" points="1236.59,425.6269,1227.59,421.6269,1231.59,425.6269,1227.59,429.6269,1236.59,425.6269" style="stroke:#181818;stroke-width:1.0;"/><text fill="#000000" font-family="sans-serif" font-size="13" lengthAdjust="spacing" textLength="188" x="665.14" y="438.6938">OCI state in FAILED, DELETED</text></g><!--link EvaluateReady to RejectUnsupportedDrift--><g id="link_EvaluateReady_RejectUnsupportedDrift"><path d="M768.11,246.6269 C800.89,246.6269 836,246.6269 836,246.6269 C836,246.6269 836,203.4269 836,203.4269 " fill="none" id="EvaluateReady-to-RejectUnsupportedDrift" style="stroke:#181818;stroke-width:1.0;"/><polygon fill="#181818" points="836,198.4269,832,207.4269,836,203.4269,840,207.4269,836,198.4269" style="stroke:#181818;stroke-width:1.0;"/><text fill="#000000" font-family="sans-serif" font-size="13" lengthAdjust="spacing" textLength="275" x="547.65" y="242.6938">unsupported or immutable drift is detected</text></g><!--link RejectUnsupportedDrift to Ready--><g id="link_RejectUnsupportedDrift_Ready"><path d="M1001.08,168.2969 C1001.08,168.2969 1389.85,168.2969 1389.85,168.2969 " fill="none" id="RejectUnsupportedDrift-to-Ready" style="stroke:#181818;stroke-width:1.0;"/><polygon fill="#181818" points="1394.85,168.2969,1385.85,164.2969,1389.85,168.2969,1385.85,172.2969,1394.85,168.2969" style="stroke:#181818;stroke-width:1.0;"/><text fill="#000000" font-family="sans-serif" font-size="13" lengthAdjust="spacing" textLength="252" x="1196.46" y="164.3638">wait for the spec or live state to change</text></g><!--link EvaluateReady to MoveCompartment--><g id="link_EvaluateReady_MoveCompartment"><path d="M768.23,259.9669 C768.23,259.9669 838.4,259.9669 838.4,259.9669 " fill="none" id="EvaluateReady-to-MoveCompartment" style="stroke:#181818;stroke-width:1.0;"/><polygon fill="#181818" points="843.4,259.9669,834.4,255.9669,838.4,259.9669,834.4,263.9669,843.4,259.9669" style="stroke:#181818;stroke-width:1.0;"/><text fill="#000000" font-family="sans-serif" font-size="13" lengthAdjust="spacing" textLength="158" x="644.32" y="273.0338">continue active reconcile</text></g><!--link MoveCompartment to ApplyUpdate--><g id="link_MoveCompartment_ApplyUpdate"><path d="M985.73,253.2969 C985.73,253.2969 1055.99,253.2969 1055.99,253.2969 " fill="none" id="MoveCompartment-to-ApplyUpdate" style="stroke:#181818;stroke-width:1.0;"/><polygon fill="#181818" points="1060.99,253.2969,1051.99,249.2969,1055.99,253.2969,1051.99,257.2969,1060.99,253.2969" style="stroke:#181818;stroke-width:1.0;"/><text fill="#000000" font-family="sans-serif" font-size="13" lengthAdjust="spacing" textLength="221" x="1021.86" y="266.3638">continue after compartment move</text></g><!--link ApplyUpdate to SyncSecret--><g id="link_ApplyUpdate_SyncSecret"><path d="M1158.17,253.2969 C1158.17,253.2969 1212.92,253.2969 1212.92,253.2969 " fill="none" id="ApplyUpdate-to-SyncSecret" style="stroke:#181818;stroke-width:1.0;"/><polygon fill="#181818" points="1217.92,253.2969,1208.92,249.2969,1212.92,253.2969,1208.92,257.2969,1217.92,253.2969" style="stroke:#181818;stroke-width:1.0;"/><text fill="#000000" font-family="sans-serif" font-size="13" lengthAdjust="spacing" textLength="231" x="1186.55" y="249.3638">supported mutation path completes</text></g><!--link SyncSecret to SecretBlocked--><g id="link_SyncSecret_SecretBlocked"><path d="M1306.01,259.9669 C1306.01,259.9669 1360.94,259.9669 1360.94,259.9669 " fill="none" id="SyncSecret-to-SecretBlocked" style="stroke:#181818;stroke-width:1.0;"/><polygon fill="#181818" points="1365.94,259.9669,1356.94,255.9669,1360.94,259.9669,1356.94,263.9669,1365.94,259.9669" style="stroke:#181818;stroke-width:1.0;"/><text fill="#000000" font-family="sans-serif" font-size="13" lengthAdjust="spacing" textLength="105" x="1334.48" y="273.0338">Secret write fails</text></g><!--link SecretBlocked to SyncSecret--><g id="link_SecretBlocked_SyncSecret"><path d="M1365.71,246.6269 C1365.71,246.6269 1311.2,246.6269 1311.2,246.6269 " fill="none" id="SecretBlocked-to-SyncSecret" style="stroke:#181818;stroke-width:1.0;"/><polygon fill="#181818" points="1306.2,246.6269,1315.2,250.6269,1311.2,246.6269,1315.2,242.6269,1306.2,246.6269" style="stroke:#181818;stroke-width:1.0;"/><text fill="#000000" font-family="sans-serif" font-size="13" lengthAdjust="spacing" textLength="109" x="1228.46" y="242.6938">retry Secret sync</text></g><!--link SyncSecret to Ready--><g id="link_SyncSecret_Ready"><path d="M1262,233.1969 C1262,210.9869 1262,178.2969 1262,178.2969 C1262,178.2969 1389.8,178.2969 1389.8,178.2969 " fill="none" id="SyncSecret-to-Ready" style="stroke:#181818;stroke-width:1.0;"/><polygon fill="#181818" points="1394.8,178.2969,1385.8,174.2969,1389.8,178.2969,1385.8,182.2969,1394.8,178.2969" style="stroke:#181818;stroke-width:1.0;"/><text fill="#000000" font-family="sans-serif" font-size="13" lengthAdjust="spacing" textLength="176" x="1121.45" y="191.3638">Secret side effects succeed</text></g><!--link Ready to Ready--><g id="link_Ready_Ready"><path d="M1394.71,188.2969 C1387.18,188.2969 1381,188.2969 1381,188.2969 C1381,188.2969 1381,215.7969 1381,215.7969 C1381,215.7969 1463,215.7969 1463,215.7969 C1463,215.7969 1463,168.2969 1463,168.2969 C1463,168.2969 1453.02,168.2969 1453.02,168.2969 " fill="none" id="Ready-to-Ready" style="stroke:#181818;stroke-width:1.0;"/><polygon fill="#181818" points="1448.02,168.2969,1457.02,172.2969,1453.02,168.2969,1457.02,164.2969,1448.02,168.2969" style="stroke:#181818;stroke-width:1.0;"/><text fill="#000000" font-family="sans-serif" font-size="13" lengthAdjust="spacing" textLength="170" x="1254.14" y="206.8638">no supported drift remains</text></g><!--link Retryable to Retryable--><g id="link_Retryable_Retryable"><path d="M1071.88,336.2969 C1068.89,336.2969 1067,336.2969 1067,336.2969 C1067,336.2969 1067,313.2969 1067,313.2969 C1067,313.2969 1153,313.2969 1153,313.2969 C1153,313.2969 1153,337.4969 1153,337.4969 C1153,337.4969 1152.31,337.4969 1152.31,337.4969 " fill="none" id="Retryable-to-Retryable" style="stroke:#181818;stroke-width:1.0;"/><polygon fill="#181818" points="1147.31,337.4969,1156.31,341.4969,1152.31,337.4969,1156.31,333.4969,1147.31,337.4969" style="stroke:#181818;stroke-width:1.0;"/><text fill="#000000" font-family="sans-serif" font-size="13" lengthAdjust="spacing" textLength="159" x="943.51" y="304.3638">OCI remains nonterminal</text></g><!--link Failed to Failed--><g id="link_Failed_Failed"><path d="M1236.93,438.9669 C1231.84,438.9669 1228,438.9669 1228,438.9669 C1228,438.9669 1228,464.0469 1228,464.0469 C1228,464.0469 1297,464.0469 1297,464.0469 C1297,464.0469 1297,432.2969 1297,432.2969 C1297,432.2969 1292.06,432.2969 1292.06,432.2969 " fill="none" id="Failed-to-Failed" style="stroke:#181818;stroke-width:1.0;"/><polygon fill="#181818" points="1287.06,432.2969,1296.06,436.2969,1292.06,432.2969,1296.06,428.2969,1287.06,432.2969" style="stroke:#181818;stroke-width:1.0;"/><text fill="#000000" font-family="sans-serif" font-size="13" lengthAdjust="spacing" textLength="135" x="1122.83" y="482.1138">OCI remains terminal</text></g><!--link Ready to DeletePending--><g id="link_Ready_DeletePending"><path d="M1448.08,188.2969 C1473.18,188.2969 1507,188.2969 1507,188.2969 C1507,188.2969 1507,344.6969 1507,344.6969 C1507,344.6969 1672.3,344.6969 1672.3,344.6969 " fill="none" id="Ready-to-DeletePending" style="stroke:#181818;stroke-width:1.0;"/><polygon fill="#181818" points="1677.3,344.6969,1668.3,340.6969,1672.3,344.6969,1668.3,348.6969,1677.3,344.6969" style="stroke:#181818;stroke-width:1.0;"/><text fill="#000000" font-family="sans-serif" font-size="13" lengthAdjust="spacing" textLength="109" x="1397" y="332.7538">delete requested</text></g><!--link Retryable to DeletePending--><g id="link_Retryable_DeletePending"><path d="M1147.16,351.8969 C1147.16,351.8969 1672.18,351.8969 1672.18,351.8969 " fill="none" id="Retryable-to-DeletePending" style="stroke:#181818;stroke-width:1.0;"/><polygon fill="#181818" points="1677.18,351.8969,1668.18,347.8969,1672.18,351.8969,1668.18,355.8969,1677.18,351.8969" style="stroke:#181818;stroke-width:1.0;"/><text fill="#000000" font-family="sans-serif" font-size="13" lengthAdjust="spacing" textLength="109" x="1299.67" y="364.9638">delete requested</text></g><!--link Failed to DeletePending--><g id="link_Failed_DeletePending"><path d="M1262,412.2969 C1262,390.6169 1262,359.0969 1262,359.0969 C1262,359.0969 1672.07,359.0969 1672.07,359.0969 " fill="none" id="Failed-to-DeletePending" style="stroke:#181818;stroke-width:1.0;"/><polygon fill="#181818" points="1677.07,359.0969,1668.07,355.0969,1672.07,359.0969,1668.07,363.0969,1677.07,359.0969" style="stroke:#181818;stroke-width:1.0;"/><text fill="#000000" font-family="sans-serif" font-size="13" lengthAdjust="spacing" textLength="109" x="1441.43" y="372.1638">delete requested</text></g><!--link DeletePending to DeleteCleanupBlocked--><g id="link_DeletePending_DeleteCleanupBlocked"><path d="M1734,330.2169 C1734,317.0669 1734,302.2969 1734,302.2969 C1734,302.2969 2091.4,302.2969 2091.4,302.2969 " fill="none" id="DeletePending-to-DeleteCleanupBlocked" style="stroke:#181818;stroke-width:1.0;"/><polygon fill="#181818" points="2096.4,302.2969,2087.4,298.2969,2091.4,302.2969,2087.4,306.2969,2096.4,302.2969" style="stroke:#181818;stroke-width:1.0;"/><text fill="#000000" font-family="sans-serif" font-size="13" lengthAdjust="spacing" textLength="274" x="1623.74" y="315.3638">owned Secret cleanup fails after OCI delete</text></g><!--link DeleteCleanupBlocked to Deleted--><g id="link_DeleteCleanupBlocked_Deleted"><path d="M2265.76,282.6269 C2265.76,282.6269 2425.96,282.6269 2425.96,282.6269 " fill="none" id="DeleteCleanupBlocked-to-Deleted" style="stroke:#181818;stroke-width:1.0;"/><polygon fill="#181818" points="2430.96,282.6269,2421.96,278.6269,2425.96,282.6269,2421.96,286.6269,2430.96,282.6269" style="stroke:#181818;stroke-width:1.0;"/><text fill="#000000" font-family="sans-serif" font-size="13" lengthAdjust="spacing" textLength="301" x="2346.86" y="278.6938">retry Secret cleanup until completion is allowed</text></g><!--link Deleted to Deleted--><g id="link_Deleted_Deleted"><path d="M2430.79,295.9669 C2415.66,295.9669 2401,295.9669 2401,295.9669 C2401,295.9669 2401,317.2969 2401,317.2969 C2401,317.2969 2514,317.2969 2514,317.2969 C2514,317.2969 2514,289.2969 2514,289.2969 C2514,289.2969 2501.05,289.2969 2501.05,289.2969 " fill="none" id="Deleted-to-Deleted" style="stroke:#181818;stroke-width:1.0;"/><polygon fill="#181818" points="2496.05,289.2969,2505.05,293.2969,2501.05,289.2969,2505.05,285.2969,2496.05,289.2969" style="stroke:#181818;stroke-width:1.0;"/><text fill="#000000" font-family="sans-serif" font-size="13" lengthAdjust="spacing" textLength="100" x="2346.41" y="335.3638">terminal stutter</text></g><!--SRC=[XLLBRziu4BxpLmomjyBEfjrai_LX0Jy30qqRE4alnHuOQcHnGv5Qah8hBFhVTqXAaUneKLyiaZFVlBwPyT8hX1rcqi5IrSwZfPCmMaYwV_3S8znnKKYDJ67kmHkmSbzuoAH5uQNHh90P0fQLRo139woiuhLxaRhYbfVW2fwPezHxoBboE7XHXEkR2i5ONvZ1WpMrpeInclnv_s7miE3YPHzVbqOP2xziucyWaM7EQ-KVyRkVAxdN9MeFmVUXHp6mVnd0mjWCROjrTNDz_Vj7kjqOxTkxoytxcm_p8Fd6yX-R-MR9VWnmjHc3NLnT_tRvSHHYixbPhqOD_c3Vtlq5q-cVyENPeJqWQ_zX1XPv1gv2COcHr6v2KIiasr9x2dS2N6VmPRcb1ESe6g5wxO2uGsVK0HVDPru6l0JoQq0CMYiefNDKBtOg65JN1wvgIjwEN6X8DHX9sPGQvil7xTVrYDOElMtuiy9pZULkFN_SVhwTmDFzAdwDQ6yuaJ4xLztCjv_Mgmcirf_MZvJ4Ky-IrR-9ea_QrLL51CDiPILHU0PrVqNC0rcMjO_UPL60UY6ZP0fwPl-3aU1J2evSUiW9nnSOgn8mbQHS9r-fPKJ1zHv7NBmp1roQajZZ8qzdGBtdfQuHE7KNOTYk6zcvRD2VLvLgdgeis1dgvg6HnK2u96Ksb0xQ3uqM3oWi1iDzIa8sGWj3nNqHKGAt71k8H-tukL16lCJgj4z7Ama-fvgHned86vCsqABJS_HoRg9BSISI9qrEbFQE_1K2OuNwUYTfRGR1f99QBBdKZlL47ADbAqK0r4Qsb9ehrfBl3GyxsLV1tezLxCLxr5cOUREkDot-KwDBf1fwyLFnWGi_bJqLw5MM2hckgxvQvgZflqsiIA-fQYrxGf09der2zDZPUIaxk9heg3e21K9HPt6bpF7LqNEOBflKEhMd0sDnfAQLO_9KOZQteeXxOyQcP3dEYsmQAprDBazTz8IrP7UrpRc8uhJfAiNZSA6JDXdr5FdPVjzXQMoprRSBHpUvHQJ6Bi7pVJZJQf4XQ_6O9WCy1mbCFHCDE9Fx8xVu5QqBCKUtmdtzJCjkspAIBS8Qu9Ip4A0BYlDsfxRfY4kvsybNbrSWQckfbLL32vMuFHNIYbfwH-i3XaaEirzm3RIMglEAqBClE7bjkHR51LiIqwrH2ksKoafvb_h0hUJQHvSUucAufnIJuIU7BbriEo56F8i1dDVfX8PjhTCuZBYdpzDHZhvUTro1ex4lER4d893ZkRHbOcY8-YXfLjsYFqbR8c2Oo_qY3DaY7hPh0zgv7LXKMu7XYKAXUKxbkNZr8SgSjCnvauJX6poAa_EYJyn_]--></g></svg>