<?xml version="1.0" encoding="UTF-8" standalone="no"?><svg xmlns="http://www.w3.org/2000/svg" xmlns:xlink="http://www.w3.org/1999/xlink" contentStyleType="text/css" height="1427px" preserveAspectRatio="none" style="width:1787px;height:1427px;background:#FFFFFF;" version="1.1" viewBox="0 0 1787 1427" width="1787px" zoomAndPan="magnify"><defs/><g><text fill="#000000" font-family="sans-serif" font-size="14" font-weight="bold" lengthAdjust="spacing" textLength="342" x="721.125" y="32.9951">API Gateway Deployment Reconcile Activity</text><ellipse cx="731.625" cy="57.2969" fill="#0F766E" rx="10" ry="10" style="stroke:#222222;stroke-width:1.0;"/><rect fill="none" height="254.2031" style="stroke:#000000;stroke-width:1.5;" width="686" x="409.125" y="77.2969"/><path d="M542.125,77.2969 L542.125,86.5938 L532.125,96.5938 L409.125,96.5938 " fill="none" style="stroke:#000000;stroke-width:1.5;"/><text fill="#000000" font-family="sans-serif" font-size="14" lengthAdjust="spacing" textLength="123" x="412.125" y="91.292">Observe and Bind</text><rect fill="#F8FAFC" height="33.9688" rx="12.5" ry="12.5" style="stroke:#475569;stroke-width:0.5;" width="304" x="579.625" y="113.5938"/><text fill="#0F172A" font-family="sans-serif" font-size="12" lengthAdjust="spacing" textLength="284" x="589.625" y="134.7324">Read CR spec, status OCID, and delete intent</text><polygon fill="#E2E8F0" points="631.625,167.5625,831.625,167.5625,843.625,179.5625,831.625,191.5625,631.625,191.5625,619.625,179.5625,631.625,167.5625" style="stroke:#475569;stroke-width:0.5;"/><text fill="#0F172A" font-family="sans-serif" font-size="11" lengthAdjust="spacing" textLength="200" x="631.625" y="183.3706">"Tracked or explicit OCID present?"</text><text fill="#000000" font-family="sans-serif" font-size="11" lengthAdjust="spacing" textLength="20" x="599.625" y="176.9683">yes</text><text fill="#000000" font-family="sans-serif" font-size="11" lengthAdjust="spacing" textLength="14" x="843.625" y="176.9683">no</text><rect fill="#F8FAFC" height="33.9688" rx="12.5" ry="12.5" style="stroke:#475569;stroke-width:0.5;" width="272" x="429.125" y="201.5625"/><text fill="#0F172A" font-family="sans-serif" font-size="12" lengthAdjust="spacing" textLength="252" x="439.125" y="222.7012">Get the OCI resource by known identifier</text><rect fill="#F8FAFC" height="33.9688" rx="12.5" ry="12.5" style="stroke:#475569;stroke-width:0.5;" width="328" x="734.125" y="201.5625"/><text fill="#0F172A" font-family="sans-serif" font-size="12" lengthAdjust="spacing" textLength="308" x="744.125" y="222.7012">Resolve an existing OCI resource by display name</text><rect fill="#F8FAFC" height="33.9688" rx="12.5" ry="12.5" style="stroke:#475569;stroke-width:0.5;" width="354" x="721.125" y="255.5313"/><text fill="#0F172A" font-family="sans-serif" font-size="12" lengthAdjust="spacing" textLength="334" x="731.125" y="276.6699">Persist the resolved or created OCID back into status</text><polygon fill="#E2E8F0" points="731.625,295.5,743.625,307.5,731.625,319.5,719.625,307.5,731.625,295.5" style="stroke:#475569;stroke-width:0.5;"/><path d="M1372.25,719.457 L1372.25,1107.7773 L1775.25,1107.7773 L1775.25,729.457 L1765.25,719.457 L1372.25,719.457 " fill="#FEFFDD" style="stroke:#181818;stroke-width:0.5;"/><path d="M1765.25,719.457 L1765.25,729.457 L1775.25,729.457 L1765.25,719.457 " fill="#FEFFDD" style="stroke:#181818;stroke-width:0.5;"/><text fill="#000000" font-family="sans-serif" font-size="13" lengthAdjust="spacing" textLength="69" x="1378.25" y="736.5239">Archetype:</text><text fill="#000000" font-family="sans-serif" font-size="13" lengthAdjust="spacing" textLength="203" x="1378.25" y="751.6567">- resolved-drift-delete-collection</text><text fill="#000000" font-family="sans-serif" font-size="13" lengthAdjust="spacing" textLength="134" x="1378.25" y="766.7896">Retryable OCI states:</text><text fill="#000000" font-family="sans-serif" font-size="13" lengthAdjust="spacing" textLength="73" x="1378.25" y="781.9224">- CREATING</text><text fill="#000000" font-family="sans-serif" font-size="13" lengthAdjust="spacing" textLength="76" x="1378.25" y="797.0552">- UPDATING</text><text fill="#000000" font-family="sans-serif" font-size="13" lengthAdjust="spacing" textLength="113" x="1378.25" y="812.188">Active OCI states:</text><text fill="#000000" font-family="sans-serif" font-size="13" lengthAdjust="spacing" textLength="54" x="1378.25" y="827.3208">- ACTIVE</text><text fill="#000000" font-family="sans-serif" font-size="13" lengthAdjust="spacing" textLength="111" x="1378.25" y="842.4536">Failed OCI states:</text><text fill="#000000" font-family="sans-serif" font-size="13" lengthAdjust="spacing" textLength="53" x="1378.25" y="857.5864">- FAILED</text><text fill="#000000" font-family="sans-serif" font-size="13" lengthAdjust="spacing" textLength="67" x="1378.25" y="872.7192">- DELETED</text><text fill="#000000" font-family="sans-serif" font-size="13" lengthAdjust="spacing" textLength="102" x="1378.25" y="887.8521">Update surface:</text><text fill="#000000" font-family="sans-serif" font-size="13" lengthAdjust="spacing" textLength="94" x="1378.25" y="902.9849">- display name</text><text fill="#000000" font-family="sans-serif" font-size="13" lengthAdjust="spacing" textLength="96" x="1378.25" y="918.1177">- freeform tags</text><text fill="#000000" font-family="sans-serif" font-size="13" lengthAdjust="spacing" textLength="88" x="1378.25" y="933.2505">- defined tags</text><text fill="#000000" font-family="sans-serif" font-size="13" lengthAdjust="spacing" textLength="203" x="1378.25" y="948.3833">- routes compared semantically</text><text fill="#000000" font-family="sans-serif" font-size="13" lengthAdjust="spacing" textLength="139" x="1378.25" y="963.5161">Reject before mutate:</text><text fill="#000000" font-family="sans-serif" font-size="13" lengthAdjust="spacing" textLength="102" x="1378.25" y="978.6489">- gatewayId drift</text><text fill="#000000" font-family="sans-serif" font-size="13" lengthAdjust="spacing" textLength="102" x="1378.25" y="993.7817">- pathPrefix drift</text><text fill="#000000" font-family="sans-serif" font-size="13" lengthAdjust="spacing" textLength="105" x="1378.25" y="1008.9146">Boundary notes:</text><text fill="#000000" font-family="sans-serif" font-size="13" lengthAdjust="spacing" textLength="375" x="1378.25" y="1024.0474">- Route collection equivalence is part of the modeled ready</text><text fill="#000000" font-family="sans-serif" font-size="13" lengthAdjust="spacing" textLength="332" x="1394.25" y="1039.1802">path, but the current formal state partition does not</text><text fill="#000000" font-family="sans-serif" font-size="13" lengthAdjust="spacing" textLength="223" x="1394.25" y="1054.313">expose OCI DELETING as retryable.</text><text fill="#000000" font-family="sans-serif" font-size="13" lengthAdjust="spacing" textLength="364" x="1378.25" y="1069.4458">- Code and tests treat OCI DELETING as requeueing even</text><text fill="#000000" font-family="sans-serif" font-size="13" lengthAdjust="spacing" textLength="366" x="1394.25" y="1084.5786">though spec.cfg only names CREATING and UPDATING as</text><text fill="#000000" font-family="sans-serif" font-size="13" lengthAdjust="spacing" textLength="61" x="1394.25" y="1099.7114">retryable.</text><polygon fill="#E2E8F0" points="674.625,351.5,788.625,351.5,800.625,363.5,788.625,375.5,674.625,375.5,662.625,363.5,674.625,351.5" style="stroke:#475569;stroke-width:0.5;"/><text fill="#0F172A" font-family="sans-serif" font-size="11" lengthAdjust="spacing" textLength="114" x="674.625" y="367.3081">"Delete requested?"</text><text fill="#000000" font-family="sans-serif" font-size="11" lengthAdjust="spacing" textLength="20" x="642.625" y="360.9058">yes</text><text fill="#000000" font-family="sans-serif" font-size="11" lengthAdjust="spacing" textLength="14" x="800.625" y="360.9058">no</text><rect fill="none" height="220.2031" style="stroke:#000000;stroke-width:1.5;" width="729" x="11" y="385.5"/><path d="M67,385.5 L67,394.7969 L57,404.7969 L11,404.7969 " fill="none" style="stroke:#000000;stroke-width:1.5;"/><text fill="#000000" font-family="sans-serif" font-size="14" lengthAdjust="spacing" textLength="46" x="14" y="399.4951">Delete</text><rect fill="#F8FAFC" height="33.9688" rx="12.5" ry="12.5" style="stroke:#475569;stroke-width:0.5;" width="310" x="220.5" y="421.7969"/><text fill="#0F172A" font-family="sans-serif" font-size="12" lengthAdjust="spacing" textLength="290" x="230.5" y="442.9355">Submit OCI delete for API Gateway Deployment</text><rect fill="#F8FAFC" height="33.9688" rx="12.5" ry="12.5" style="stroke:#475569;stroke-width:0.5;" width="709" x="21" y="490.7656"/><text fill="#0F172A" font-family="sans-serif" font-size="12" lengthAdjust="spacing" textLength="689" x="31" y="511.9043">Confirm deletion with follow-up GetDeployment calls until the lifecycle is DELETED or the resource is not found.</text><rect fill="#F8FAFC" height="33.9688" rx="12.5" ry="12.5" style="stroke:#475569;stroke-width:0.5;" width="338" x="206.5" y="559.7344"/><text fill="#0F172A" font-family="sans-serif" font-size="12" lengthAdjust="spacing" textLength="318" x="216.5" y="580.873">Remove the finalizer after OCI deletion is confirmed</text><ellipse cx="375.5" cy="651.7031" fill="none" rx="11" ry="11" style="stroke:#222222;stroke-width:1.0;"/><ellipse cx="375.5" cy="651.7031" fill="#222222" rx="6" ry="6" style="stroke:#111111;stroke-width:1.0;"/><rect fill="none" height="422.582" style="stroke:#000000;stroke-width:1.5;" width="376" x="905.75" y="385.5"/><path d="M1066.75,385.5 L1066.75,394.7969 L1056.75,404.7969 L905.75,404.7969 " fill="none" style="stroke:#000000;stroke-width:1.5;"/><text fill="#000000" font-family="sans-serif" font-size="14" lengthAdjust="spacing" textLength="151" x="908.75" y="399.4951">Lifecycle Classification</text><rect fill="#F8FAFC" height="33.9688" rx="12.5" ry="12.5" style="stroke:#475569;stroke-width:0.5;" width="268" x="953.75" y="470.1992"/><text fill="#0F172A" font-family="sans-serif" font-size="12" lengthAdjust="spacing" textLength="248" x="963.75" y="491.3379">Request requeue and keep the finalizer</text><ellipse cx="1087.75" cy="550.168" fill="none" rx="11" ry="11" style="stroke:#222222;stroke-width:1.0;"/><ellipse cx="1087.75" cy="550.168" fill="#222222" rx="6" ry="6" style="stroke:#111111;stroke-width:1.0;"/><polygon fill="#E2E8F0" points="1007.75,421.7969,1167.75,421.7969,1179.75,433.7969,1167.75,445.7969,1007.75,445.7969,995.75,433.7969,1007.75,421.7969" style="stroke:#475569;stroke-width:0.5;"/><text fill="#000000" font-family="sans-serif" font-size="11" lengthAdjust="spacing" textLength="20" x="1091.75" y="456.0073">yes</text><text fill="#0F172A" font-family="sans-serif" font-size="11" lengthAdjust="spacing" textLength="160" x="1007.75" y="437.605">"OCI state in retryable set?"</text><rect fill="#F8FAFC" height="33.9688" rx="12.5" ry="12.5" style="stroke:#475569;stroke-width:0.5;" width="324" x="925.75" y="666.9727"/><text fill="#0F172A" font-family="sans-serif" font-size="12" lengthAdjust="spacing" textLength="304" x="935.75" y="688.1113">Return an unsuccessful terminal reconcile result</text><ellipse cx="1087.75" cy="746.6797" fill="none" rx="11" ry="11" style="stroke:#222222;stroke-width:1.0;"/><ellipse cx="1087.75" cy="746.6797" fill="#222222" rx="6" ry="6" style="stroke:#111111;stroke-width:1.0;"/><polygon fill="#E2E8F0" points="1017.75,618.5703,1157.75,618.5703,1169.75,630.5703,1157.75,642.5703,1017.75,642.5703,1005.75,630.5703,1017.75,618.5703" style="stroke:#475569;stroke-width:0.5;"/><text fill="#000000" font-family="sans-serif" font-size="11" lengthAdjust="spacing" textLength="20" x="1091.75" y="652.7808">yes</text><text fill="#0F172A" font-family="sans-serif" font-size="11" lengthAdjust="spacing" textLength="140" x="1017.75" y="634.3784">"OCI state in failed set?"</text><rect fill="none" height="566.9141" style="stroke:#000000;stroke-width:1.5;" width="602.25" x="760" y="843.082"/><path d="M939,843.082 L939,852.3789 L929,862.3789 L760,862.3789 " fill="none" style="stroke:#000000;stroke-width:1.5;"/><text fill="#000000" font-family="sans-serif" font-size="14" lengthAdjust="spacing" textLength="169" x="763" y="857.0771">Ready and Drift Handling</text><rect fill="#F8FAFC" height="33.9688" rx="12.5" ry="12.5" style="stroke:#475569;stroke-width:0.5;" width="364" x="905.75" y="879.3789"/><text fill="#0F172A" font-family="sans-serif" font-size="12" lengthAdjust="spacing" textLength="344" x="915.75" y="900.5176">Compare live OCI state with the supported drift surface</text><rect fill="#F8FAFC" height="33.9688" rx="12.5" ry="12.5" style="stroke:#475569;stroke-width:0.5;" width="290" x="942.75" y="996.75"/><text fill="#0F172A" font-family="sans-serif" font-size="12" lengthAdjust="spacing" textLength="270" x="952.75" y="1017.8887">Reject the change before any OCI mutation</text><ellipse cx="1087.75" cy="1076.7188" fill="none" rx="11" ry="11" style="stroke:#222222;stroke-width:1.0;"/><ellipse cx="1087.75" cy="1076.7188" fill="#222222" rx="6" ry="6" style="stroke:#111111;stroke-width:1.0;"/><polygon fill="#E2E8F0" points="963.25,948.3477,1212.25,948.3477,1224.25,960.3477,1212.25,972.3477,963.25,972.3477,951.25,960.3477,963.25,948.3477" style="stroke:#475569;stroke-width:0.5;"/><text fill="#000000" font-family="sans-serif" font-size="11" lengthAdjust="spacing" textLength="20" x="1091.75" y="982.5581">yes</text><text fill="#0F172A" font-family="sans-serif" font-size="11" lengthAdjust="spacing" textLength="249" x="963.25" y="964.1558">"Unsupported or immutable drift detected?"</text><rect fill="#F8FAFC" height="33.9688" rx="12.5" ry="12.5" style="stroke:#475569;stroke-width:0.5;" width="472" x="851.75" y="1138.1211"/><text fill="#0F172A" font-family="sans-serif" font-size="12" lengthAdjust="spacing" textLength="452" x="861.75" y="1159.2598">Move the deployment compartment before reconciling route or tag drift.</text><rect fill="#F8FAFC" height="33.9688" rx="12.5" ry="12.5" style="stroke:#475569;stroke-width:0.5;" width="529" x="823.25" y="1192.0898"/><text fill="#0F172A" font-family="sans-serif" font-size="12" lengthAdjust="spacing" textLength="509" x="833.25" y="1213.2285">Compare routes semantically before deciding whether to call UpdateDeployment.</text><polygon fill="#E2E8F0" points="1010.25,1246.0586,1165.25,1246.0586,1177.25,1258.0586,1165.25,1270.0586,1010.25,1270.0586,998.25,1258.0586,1010.25,1246.0586" style="stroke:#475569;stroke-width:0.5;"/><text fill="#0F172A" font-family="sans-serif" font-size="11" lengthAdjust="spacing" textLength="155" x="1010.25" y="1261.8667">"Supported drift detected?"</text><text fill="#000000" font-family="sans-serif" font-size="11" lengthAdjust="spacing" textLength="20" x="978.25" y="1255.4644">yes</text><text fill="#000000" font-family="sans-serif" font-size="11" lengthAdjust="spacing" textLength="14" x="1177.25" y="1255.4644">no</text><rect fill="#F8FAFC" height="33.9688" rx="12.5" ry="12.5" style="stroke:#475569;stroke-width:0.5;" width="329" x="780" y="1280.0586"/><text fill="#0F172A" font-family="sans-serif" font-size="12" lengthAdjust="spacing" textLength="309" x="790" y="1301.1973">Apply only the supported in-place update surface</text><rect fill="#F8FAFC" height="33.9688" rx="12.5" ry="12.5" style="stroke:#475569;stroke-width:0.5;" width="204" x="1129" y="1280.0586"/><text fill="#0F172A" font-family="sans-serif" font-size="12" lengthAdjust="spacing" textLength="184" x="1139" y="1301.1973">Skip the no-op mutation path</text><polygon fill="#E2E8F0" points="1087.75,1320.0273,1099.75,1332.0273,1087.75,1344.0273,1075.75,1332.0273,1087.75,1320.0273" style="stroke:#475569;stroke-width:0.5;"/><rect fill="#F8FAFC" height="33.9688" rx="12.5" ry="12.5" style="stroke:#475569;stroke-width:0.5;" width="287" x="944.25" y="1364.0273"/><text fill="#0F172A" font-family="sans-serif" font-size="12" lengthAdjust="spacing" textLength="267" x="954.25" y="1385.166">Return success for the usable active state</text><line style="stroke:#334155;stroke-width:1.0;" x1="898.125" x2="898.125" y1="235.5313" y2="255.5313"/><polygon fill="#334155" points="894.125,245.5313,898.125,255.5313,902.125,245.5313,898.125,249.5313" style="stroke:#334155;stroke-width:1.0;"/><line style="stroke:#334155;stroke-width:1.0;" x1="619.625" x2="565.125" y1="179.5625" y2="179.5625"/><line style="stroke:#334155;stroke-width:1.0;" x1="565.125" x2="565.125" y1="179.5625" y2="201.5625"/><polygon fill="#334155" points="561.125,191.5625,565.125,201.5625,569.125,191.5625,565.125,195.5625" style="stroke:#334155;stroke-width:1.0;"/><line style="stroke:#334155;stroke-width:1.0;" x1="843.625" x2="898.125" y1="179.5625" y2="179.5625"/><line style="stroke:#334155;stroke-width:1.0;" x1="898.125" x2="898.125" y1="179.5625" y2="201.5625"/><polygon fill="#334155" points="894.125,191.5625,898.125,201.5625,902.125,191.5625,898.125,195.5625" style="stroke:#334155;stroke-width:1.0;"/><line style="stroke:#334155;stroke-width:1.0;" x1="565.125" x2="565.125" y1="235.5313" y2="307.5"/><line style="stroke:#334155;stroke-width:1.0;" x1="565.125" x2="719.625" y1="307.5" y2="307.5"/><polygon fill="#334155" points="709.625,303.5,719.625,307.5,709.625,311.5,713.625,307.5" style="stroke:#334155;stroke-width:1.0;"/><line style="stroke:#334155;stroke-width:1.0;" x1="898.125" x2="898.125" y1="289.5" y2="307.5"/><line style="stroke:#334155;stroke-width:1.0;" x1="898.125" x2="743.625" y1="307.5" y2="307.5"/><polygon fill="#334155" points="753.625,303.5,743.625,307.5,753.625,311.5,749.625,307.5" style="stroke:#334155;stroke-width:1.0;"/><line style="stroke:#334155;stroke-width:1.0;" x1="731.625" x2="731.625" y1="147.5625" y2="167.5625"/><polygon fill="#334155" points="727.625,157.5625,731.625,167.5625,735.625,157.5625,731.625,161.5625" style="stroke:#334155;stroke-width:1.0;"/><line style="stroke:#334155;stroke-width:1.0;" x1="731.625" x2="731.625" y1="67.2969" y2="113.5938"/><polygon fill="#334155" points="727.625,103.5938,731.625,113.5938,735.625,103.5938,731.625,107.5938" style="stroke:#334155;stroke-width:1.0;"/><line style="stroke:#334155;stroke-width:1.0;" x1="375.5" x2="375.5" y1="455.7656" y2="490.7656"/><polygon fill="#334155" points="371.5,480.7656,375.5,490.7656,379.5,480.7656,375.5,484.7656" style="stroke:#334155;stroke-width:1.0;"/><line style="stroke:#334155;stroke-width:1.0;" x1="375.5" x2="375.5" y1="524.7344" y2="559.7344"/><polygon fill="#334155" points="371.5,549.7344,375.5,559.7344,379.5,549.7344,375.5,553.7344" style="stroke:#334155;stroke-width:1.0;"/><line style="stroke:#334155;stroke-width:1.0;" x1="375.5" x2="375.5" y1="593.7031" y2="640.7031"/><polygon fill="#334155" points="371.5,630.7031,375.5,640.7031,379.5,630.7031,375.5,634.7031" style="stroke:#334155;stroke-width:1.0;"/><line style="stroke:#334155;stroke-width:1.0;" x1="1087.75" x2="1087.75" y1="504.168" y2="539.168"/><polygon fill="#334155" points="1083.75,529.168,1087.75,539.168,1091.75,529.168,1087.75,533.168" style="stroke:#334155;stroke-width:1.0;"/><line style="stroke:#334155;stroke-width:1.0;" x1="1087.75" x2="1087.75" y1="445.7969" y2="470.1992"/><polygon fill="#334155" points="1083.75,460.1992,1087.75,470.1992,1091.75,460.1992,1087.75,464.1992" style="stroke:#334155;stroke-width:1.0;"/><line style="stroke:#334155;stroke-width:1.0;" x1="1179.75" x2="1231.75" y1="433.7969" y2="433.7969"/><polygon fill="#334155" points="1227.75,502.6836,1231.75,512.6836,1235.75,502.6836,1231.75,506.6836" style="stroke:#334155;stroke-width:1.0;"/><line style="stroke:#334155;stroke-width:1.0;" x1="1231.75" x2="1231.75" y1="433.7969" y2="591.5703"/><line style="stroke:#334155;stroke-width:1.0;" x1="1231.75" x2="1087.75" y1="591.5703" y2="591.5703"/><line style="stroke:#334155;stroke-width:1.0;" x1="1087.75" x2="1087.75" y1="591.5703" y2="618.5703"/><polygon fill="#334155" points="1083.75,608.5703,1087.75,618.5703,1091.75,608.5703,1087.75,612.5703" style="stroke:#334155;stroke-width:1.0;"/><line style="stroke:#334155;stroke-width:1.0;" x1="1087.75" x2="1087.75" y1="700.9414" y2="735.6797"/><polygon fill="#334155" points="1083.75,725.6797,1087.75,735.6797,1091.75,725.6797,1087.75,729.6797" style="stroke:#334155;stroke-width:1.0;"/><line style="stroke:#334155;stroke-width:1.0;" x1="1087.75" x2="1087.75" y1="642.5703" y2="666.9727"/><polygon fill="#334155" points="1083.75,656.9727,1087.75,666.9727,1091.75,656.9727,1087.75,660.9727" style="stroke:#334155;stroke-width:1.0;"/><line style="stroke:#334155;stroke-width:1.0;" x1="1169.75" x2="1259.75" y1="630.5703" y2="630.5703"/><polygon fill="#334155" points="1255.75,699.457,1259.75,709.457,1263.75,699.457,1259.75,703.457" style="stroke:#334155;stroke-width:1.0;"/><line style="stroke:#334155;stroke-width:1.0;" x1="1259.75" x2="1259.75" y1="630.5703" y2="788.082"/><line style="stroke:#334155;stroke-width:1.0;" x1="1259.75" x2="1087.75" y1="788.082" y2="788.082"/><line style="stroke:#334155;stroke-width:1.0;" x1="1087.75" x2="1087.75" y1="788.082" y2="879.3789"/><polygon fill="#334155" points="1083.75,869.3789,1087.75,879.3789,1091.75,869.3789,1087.75,873.3789" style="stroke:#334155;stroke-width:1.0;"/><line style="stroke:#334155;stroke-width:1.0;" x1="1087.75" x2="1087.75" y1="1030.7188" y2="1065.7188"/><polygon fill="#334155" points="1083.75,1055.7188,1087.75,1065.7188,1091.75,1055.7188,1087.75,1059.7188" style="stroke:#334155;stroke-width:1.0;"/><line style="stroke:#334155;stroke-width:1.0;" x1="1087.75" x2="1087.75" y1="972.3477" y2="996.75"/><polygon fill="#334155" points="1083.75,986.75,1087.75,996.75,1091.75,986.75,1087.75,990.75" style="stroke:#334155;stroke-width:1.0;"/><line style="stroke:#334155;stroke-width:1.0;" x1="1224.25" x2="1242.75" y1="960.3477" y2="960.3477"/><polygon fill="#334155" points="1238.75,1029.2344,1242.75,1039.2344,1246.75,1029.2344,1242.75,1033.2344" style="stroke:#334155;stroke-width:1.0;"/><line style="stroke:#334155;stroke-width:1.0;" x1="1242.75" x2="1242.75" y1="960.3477" y2="1118.1211"/><line style="stroke:#334155;stroke-width:1.0;" x1="1242.75" x2="1087.75" y1="1118.1211" y2="1118.1211"/><line style="stroke:#334155;stroke-width:1.0;" x1="1087.75" x2="1087.75" y1="1118.1211" y2="1138.1211"/><polygon fill="#334155" points="1083.75,1128.1211,1087.75,1138.1211,1091.75,1128.1211,1087.75,1132.1211" style="stroke:#334155;stroke-width:1.0;"/><line style="stroke:#334155;stroke-width:1.0;" x1="1087.75" x2="1087.75" y1="913.3477" y2="948.3477"/><polygon fill="#334155" points="1083.75,938.3477,1087.75,948.3477,1091.75,938.3477,1087.75,942.3477" style="stroke:#334155;stroke-width:1.0;"/><line style="stroke:#334155;stroke-width:1.0;" x1="1087.75" x2="1087.75" y1="1172.0898" y2="1192.0898"/><polygon fill="#334155" points="1083.75,1182.0898,1087.75,1192.0898,1091.75,1182.0898,1087.75,1186.0898" style="stroke:#334155;stroke-width:1.0;"/><line style="stroke:#334155;stroke-width:1.0;" x1="998.25" x2="944.5" y1="1258.0586" y2="1258.0586"/><line style="stroke:#334155;stroke-width:1.0;" x1="944.5" x2="944.5" y1="1258.0586" y2="1280.0586"/><polygon fill="#334155" points="940.5,1270.0586,944.5,1280.0586,948.5,1270.0586,944.5,1274.0586" style="stroke:#334155;stroke-width:1.0;"/><line style="stroke:#334155;stroke-width:1.0;" x1="1177.25" x2="1231" y1="1258.0586" y2="1258.0586"/><line style="stroke:#334155;stroke-width:1.0;" x1="1231" x2="1231" y1="1258.0586" y2="1280.0586"/><polygon fill="#334155" points="1227,1270.0586,1231,1280.0586,1235,1270.0586,1231,1274.0586" style="stroke:#334155;stroke-width:1.0;"/><line style="stroke:#334155;stroke-width:1.0;" x1="944.5" x2="944.5" y1="1314.0273" y2="1332.0273"/><line style="stroke:#334155;stroke-width:1.0;" x1="944.5" x2="1075.75" y1="1332.0273" y2="1332.0273"/><polygon fill="#334155" points="1065.75,1328.0273,1075.75,1332.0273,1065.75,1336.0273,1069.75,1332.0273" style="stroke:#334155;stroke-width:1.0;"/><line style="stroke:#334155;stroke-width:1.0;" x1="1231" x2="1231" y1="1314.0273" y2="1332.0273"/><line style="stroke:#334155;stroke-width:1.0;" x1="1231" x2="1099.75" y1="1332.0273" y2="1332.0273"/><polygon fill="#334155" points="1109.75,1328.0273,1099.75,1332.0273,1109.75,1336.0273,1105.75,1332.0273" style="stroke:#334155;stroke-width:1.0;"/><line style="stroke:#334155;stroke-width:1.0;" x1="1087.75" x2="1087.75" y1="1226.0586" y2="1246.0586"/><polygon fill="#334155" points="1083.75,1236.0586,1087.75,1246.0586,1091.75,1236.0586,1087.75,1240.0586" style="stroke:#334155;stroke-width:1.0;"/><line style="stroke:#334155;stroke-width:1.0;" x1="1087.75" x2="1087.75" y1="1344.0273" y2="1364.0273"/><polygon fill="#334155" points="1083.75,1354.0273,1087.75,1364.0273,1091.75,1354.0273,1087.75,1358.0273" style="stroke:#334155;stroke-width:1.0;"/><line style="stroke:#334155;stroke-width:1.0;" x1="662.625" x2="375.5" y1="363.5" y2="363.5"/><line style="stroke:#334155;stroke-width:1.0;" x1="375.5" x2="375.5" y1="363.5" y2="421.7969"/><polygon fill="#334155" points="371.5,411.7969,375.5,421.7969,379.5,411.7969,375.5,415.7969" style="stroke:#334155;stroke-width:1.0;"/><line style="stroke:#334155;stroke-width:1.0;" x1="800.625" x2="1087.75" y1="363.5" y2="363.5"/><line style="stroke:#334155;stroke-width:1.0;" x1="1087.75" x2="1087.75" y1="363.5" y2="421.7969"/><polygon fill="#334155" points="1083.75,411.7969,1087.75,421.7969,1091.75,411.7969,1087.75,415.7969" style="stroke:#334155;stroke-width:1.0;"/><line style="stroke:#334155;stroke-width:1.0;" x1="1087.75" x2="1087.75" y1="1397.9961" y2="1415.9961"/><line style="stroke:#334155;stroke-width:1.0;" x1="1087.75" x2="731.625" y1="1415.9961" y2="1415.9961"/><line style="stroke:#334155;stroke-width:1.0;" x1="731.625" x2="731.625" y1="319.5" y2="351.5"/><polygon fill="#334155" points="727.625,341.5,731.625,351.5,735.625,341.5,731.625,345.5" style="stroke:#334155;stroke-width:1.0;"/><!--SRC=[VLPTJoCt57sVNs7H5rOYqRAxm9OyL4C-Q2JQHG7wxepl92uUUsfx2BFL_lVUUpr99cmA4iYnx-UvvvuGTJGWylkvk9KHDh8L4wYDQokmKIoWSBRGP514_Q9ZcuLdRMlfPIN2MYgtqNObIca2z5vkPF6yygwnQkoCy-AN6V_qB7BltQPx_Fpvo_d5HUzHGIaR4n_XDUP6hooNOg2CFHlPrIF-pSIHV5zd-MnCByuhyDtjbwkBYyjVyNRcREpkFixEhpxbU3VHid9M_HHg-cdwTVQnPt0quaEKVX_owl9oYfVJNP2hsVdaV9Bzo0BPPHds47NKpegJRyi0_WM4j4hSQAjEkAFh1KWbnWiHQYZE1Bh59eXlu_daZ2qL68WWj8s8pGWTT2bEJnuzLWzAO4fuhOqkT6GVKNi8QFZRoGSHrs35QGlX0tfXebk8T4Ts0grSumiGorOyMxUnGYjqqwK6Jqa0nonEhUjS5sXkk7HCfqCaAhmDetIe3PBAoWf6oUqUV41hpkfJ22wvy80CLAdY9NP2xRckTqvlbIuHn8oRdIG8FFpJG42_dvhhWPni4xHOmKEph18qMo1Bp7zy1xgYnywMsbV9dc9kT5oZcp5kCsXgWJ3szgQGnWJH87I6spIwXA8jS8zq49FftVHnEg6Mjn0mMlXaNSIOIBxXQ0jnvH1XiYkrbKP_1oza6V7lhdgg1dsBL24eSls1lo6wEkkFh0V8tQwWiP4Xu8GBIIzRY1XXoa3e4y-mpEXRkKIF0CU8nCNoAD98caJfPu3wiFnHPyxbqI6DzNZMKgBugFTIniPROc1ZGrCK44BP8ERWAyg7fMm53656JVdVvCYg0u1e_rhkOE9r6SNlU3H8y1s7ngv2SnhjIrgUL3FJWleDJLqxJtnM720qlfH5jmFSw9FTso0NT5KraG5E3WfvMHpZTTVut_ZAcOgrj2jSDa0I4-WjbqF1g9LtuBx-OyijrQCkznNvt8NSWaZxZTA8NH9rvIeLEXmT0i8M0KTMIUG_RKAx3QIWq8gYRDQ0QJ68urKHJxL2yFOBDEp1zF06oFTnoUiQypcBVmwdeEq0XGZNhE5SX_Cu53PIY6UTQ6lTmDKxC94XSJrw2sD7mev_h2NasWIU9dzJGQ97MitacfN6ITPCt7g4JQ_MCSjzWT2qDLndWvqu3hZnGPAgGO6QWm1WDTbYjvCx0WPo72-c-UFypriyFjrFqZ5FPHmQvkF7-L_JR9QsxF1jbi_lfXCyT7gLFHq0HoPzSSUFfGUQSqNS2FGCkFGOj_lO4ICHZ9Twpv2iutD75CQRKwoI8C-xwUCDZU3UO-ZNxkg615Fwbd7aqXTCqZrG0WL9lqW3Diai4LouagTKES9L8TYuy3nFId0cbastNOttj0lK60fAslAzK2W7BDk94w-r2mbZ1Wrn5pBifND8iy5yh2jOQmmYqfVU4GzMK287l83bu77jcjMQ_o4O5kKgSPoG3xjvSzpjn34E-_Mo8_4OfEm_]--></g></svg>