<?xml version="1.0" encoding="UTF-8" standalone="no"?><svg xmlns="http://www.w3.org/2000/svg" xmlns:xlink="http://www.w3.org/1999/xlink" contentStyleType="text/css" height="1319px" preserveAspectRatio="none" style="width:1277px;height:1319px;background:#FFFFFF;" version="1.1" viewBox="0 0 1277 1319" width="1277px" zoomAndPan="magnify"><defs/><g><text fill="#000000" font-family="sans-serif" font-size="14" font-weight="bold" lengthAdjust="spacing" textLength="363" x="458.75" y="27.9951">API Gateway Deployment Reconcile Sequence</text><rect fill="none" height="254.6719" style="stroke:#475569;stroke-width:1.5;" width="1003" x="268.5" y="193.8594"/><rect fill="none" height="223.5391" style="stroke:#475569;stroke-width:1.5;" width="983" x="278.5" y="217.9922"/><rect fill="none" height="119.3359" style="stroke:#475569;stroke-width:1.5;" width="963" x="288.5" y="315.1953"/><rect fill="none" height="618.4688" style="stroke:#475569;stroke-width:1.5;" width="1251.5" x="10" y="462.5313"/><rect fill="none" height="104.5313" style="stroke:#475569;stroke-width:1.5;" width="963" x="288.5" y="486.6641"/><rect fill="none" height="336.9922" style="stroke:#475569;stroke-width:1.5;" width="1130" x="20" y="707.875"/><rect fill="none" height="46.2656" style="stroke:#475569;stroke-width:1.5;" width="406.5" x="30" y="873.0703"/><rect fill="none" height="46.2656" style="stroke:#475569;stroke-width:1.5;" width="841" x="288.5" y="991.6016"/><line style="stroke:#94A3B8;stroke-width:0.5;stroke-dasharray:5.0,5.0;" x1="76" x2="76" y1="118.5938" y2="1239.0625"/><line style="stroke:#94A3B8;stroke-width:0.5;stroke-dasharray:5.0,5.0;" x1="362.5" x2="362.5" y1="118.5938" y2="1239.0625"/><line style="stroke:#94A3B8;stroke-width:0.5;stroke-dasharray:5.0,5.0;" x1="1101.5" x2="1101.5" y1="118.5938" y2="1239.0625"/><line style="stroke:#94A3B8;stroke-width:0.5;stroke-dasharray:5.0,5.0;" x1="1185.5" x2="1185.5" y1="118.5938" y2="1239.0625"/><text fill="#000000" font-family="sans-serif" font-size="14" lengthAdjust="spacing" textLength="67" x="40" y="115.292">Controller</text><ellipse cx="76.5" cy="50.7969" fill="#E0F2FE" rx="8" ry="8" style="stroke:#0F766E;stroke-width:0.5;"/><path d="M76.5,58.7969 L76.5,85.7969 M63.5,66.7969 L89.5,66.7969 M76.5,85.7969 L63.5,100.7969 M76.5,85.7969 L89.5,100.7969 " fill="none" style="stroke:#0F766E;stroke-width:0.5;"/><text fill="#000000" font-family="sans-serif" font-size="14" lengthAdjust="spacing" textLength="67" x="40" y="1251.0576">Controller</text><ellipse cx="76.5" cy="1262.8594" fill="#E0F2FE" rx="8" ry="8" style="stroke:#0F766E;stroke-width:0.5;"/><path d="M76.5,1270.8594 L76.5,1297.8594 M63.5,1278.8594 L89.5,1278.8594 M76.5,1297.8594 L63.5,1312.8594 M76.5,1297.8594 L89.5,1312.8594 " fill="none" style="stroke:#0F766E;stroke-width:0.5;"/><rect fill="#F8FAFC" height="30.2969" rx="2.5" ry="2.5" style="stroke:#475569;stroke-width:0.5;" width="128" x="298.5" y="87.2969"/><text fill="#000000" font-family="sans-serif" font-size="14" lengthAdjust="spacing" textLength="114" x="305.5" y="107.292">Service Manager</text><rect fill="#F8FAFC" height="30.2969" rx="2.5" ry="2.5" style="stroke:#475569;stroke-width:0.5;" width="128" x="298.5" y="1238.0625"/><text fill="#000000" font-family="sans-serif" font-size="14" lengthAdjust="spacing" textLength="114" x="305.5" y="1258.0576">Service Manager</text><text fill="#000000" font-family="sans-serif" font-size="14" lengthAdjust="spacing" textLength="24" x="1086.5" y="115.292">OCI</text><path d="M1083.5,66.2969 C1083.5,56.2969 1101.5,56.2969 1101.5,56.2969 C1101.5,56.2969 1119.5,56.2969 1119.5,66.2969 L1119.5,92.2969 C1119.5,102.2969 1101.5,102.2969 1101.5,102.2969 C1101.5,102.2969 1083.5,102.2969 1083.5,92.2969 L1083.5,66.2969 " fill="#E2E2F0" style="stroke:#181818;stroke-width:1.5;"/><path d="M1083.5,66.2969 C1083.5,76.2969 1101.5,76.2969 1101.5,76.2969 C1101.5,76.2969 1119.5,76.2969 1119.5,66.2969 " fill="none" style="stroke:#181818;stroke-width:1.5;"/><text fill="#000000" font-family="sans-serif" font-size="14" lengthAdjust="spacing" textLength="24" x="1086.5" y="1251.0576">OCI</text><path d="M1083.5,1264.3594 C1083.5,1254.3594 1101.5,1254.3594 1101.5,1254.3594 C1101.5,1254.3594 1119.5,1254.3594 1119.5,1264.3594 L1119.5,1290.3594 C1119.5,1300.3594 1101.5,1300.3594 1101.5,1300.3594 C1101.5,1300.3594 1083.5,1300.3594 1083.5,1290.3594 L1083.5,1264.3594 " fill="#E2E2F0" style="stroke:#181818;stroke-width:1.5;"/><path d="M1083.5,1264.3594 C1083.5,1274.3594 1101.5,1274.3594 1101.5,1274.3594 C1101.5,1274.3594 1119.5,1274.3594 1119.5,1264.3594 " fill="none" style="stroke:#181818;stroke-width:1.5;"/><text fill="#000000" font-family="sans-serif" font-size="14" lengthAdjust="spacing" textLength="106" x="1129.5" y="115.292">Kubernetes API</text><path d="M1167.5,66.2969 C1167.5,56.2969 1185.5,56.2969 1185.5,56.2969 C1185.5,56.2969 1203.5,56.2969 1203.5,66.2969 L1203.5,92.2969 C1203.5,102.2969 1185.5,102.2969 1185.5,102.2969 C1185.5,102.2969 1167.5,102.2969 1167.5,92.2969 L1167.5,66.2969 " fill="#E2E2F0" style="stroke:#181818;stroke-width:1.5;"/><path d="M1167.5,66.2969 C1167.5,76.2969 1185.5,76.2969 1185.5,76.2969 C1185.5,76.2969 1203.5,76.2969 1203.5,66.2969 " fill="none" style="stroke:#181818;stroke-width:1.5;"/><text fill="#000000" font-family="sans-serif" font-size="14" lengthAdjust="spacing" textLength="106" x="1129.5" y="1251.0576">Kubernetes API</text><path d="M1167.5,1264.3594 C1167.5,1254.3594 1185.5,1254.3594 1185.5,1254.3594 C1185.5,1254.3594 1203.5,1254.3594 1203.5,1264.3594 L1203.5,1290.3594 C1203.5,1300.3594 1185.5,1300.3594 1185.5,1300.3594 C1185.5,1300.3594 1167.5,1300.3594 1167.5,1290.3594 L1167.5,1264.3594 " fill="#E2E2F0" style="stroke:#181818;stroke-width:1.5;"/><path d="M1167.5,1264.3594 C1167.5,1274.3594 1185.5,1274.3594 1185.5,1274.3594 C1185.5,1274.3594 1203.5,1274.3594 1203.5,1264.3594 " fill="none" style="stroke:#181818;stroke-width:1.5;"/><polygon fill="#334155" points="350.5,145.7266,360.5,149.7266,350.5,153.7266,354.5,149.7266" style="stroke:#334155;stroke-width:1.0;"/><line style="stroke:#334155;stroke-width:1.0;" x1="76.5" x2="356.5" y1="149.7266" y2="149.7266"/><text fill="#000000" font-family="sans-serif" font-size="13" font-weight="bold" lengthAdjust="spacing" textLength="9" x="83.5" y="144.6606">1</text><text fill="#000000" font-family="sans-serif" font-size="13" lengthAdjust="spacing" textLength="239" x="96.5" y="144.6606">reconcile desired spec and live status</text><polygon fill="#334155" points="1173.5,174.8594,1183.5,178.8594,1173.5,182.8594,1177.5,178.8594" style="stroke:#334155;stroke-width:1.0;"/><line style="stroke:#334155;stroke-width:1.0;" x1="362.5" x2="1179.5" y1="178.8594" y2="178.8594"/><text fill="#000000" font-family="sans-serif" font-size="13" font-weight="bold" lengthAdjust="spacing" textLength="9" x="369.5" y="173.7935">2</text><text fill="#000000" font-family="sans-serif" font-size="13" lengthAdjust="spacing" textLength="212" x="382.5" y="173.7935">read CR status and finalizer state</text><path d="M268.5,193.8594 L438.5,193.8594 L438.5,200.9922 L428.5,210.9922 L268.5,210.9922 L268.5,193.8594 " fill="#F8FAFC" style="stroke:#475569;stroke-width:1.5;"/><rect fill="none" height="254.6719" style="stroke:#475569;stroke-width:1.5;" width="1003" x="268.5" y="193.8594"/><text fill="#000000" font-family="sans-serif" font-size="13" font-weight="bold" lengthAdjust="spacing" textLength="125" x="283.5" y="206.9263">Lookup and bind</text><path d="M278.5,217.9922 L342.5,217.9922 L342.5,225.125 L332.5,235.125 L278.5,235.125 L278.5,217.9922 " fill="#F8FAFC" style="stroke:#475569;stroke-width:1.5;"/><rect fill="none" height="223.5391" style="stroke:#475569;stroke-width:1.5;" width="983" x="278.5" y="217.9922"/><text fill="#000000" font-family="sans-serif" font-size="13" font-weight="bold" lengthAdjust="spacing" textLength="19" x="293.5" y="231.0591">alt</text><text fill="#000000" font-family="sans-serif" font-size="11" font-weight="bold" lengthAdjust="spacing" textLength="256" x="357.5" y="230.2026">[tracked or explicit OCID already exists]</text><polygon fill="#334155" points="1089.5,252.2578,1099.5,256.2578,1089.5,260.2578,1093.5,256.2578" style="stroke:#334155;stroke-width:1.0;"/><line style="stroke:#334155;stroke-width:1.0;" x1="362.5" x2="1095.5" y1="256.2578" y2="256.2578"/><text fill="#000000" font-family="sans-serif" font-size="13" font-weight="bold" lengthAdjust="spacing" textLength="9" x="369.5" y="251.1919">3</text><text fill="#000000" font-family="sans-serif" font-size="13" lengthAdjust="spacing" textLength="278" x="382.5" y="251.1919">get the current resource by known identifier</text><line style="stroke:#475569;stroke-width:1.0;stroke-dasharray:2.0,2.0;" x1="278.5" x2="1261.5" y1="265.2578" y2="265.2578"/><text fill="#000000" font-family="sans-serif" font-size="11" font-weight="bold" lengthAdjust="spacing" textLength="145" x="283.5" y="275.4683">[no OCID is bound yet]</text><polygon fill="#334155" points="1089.5,296.1953,1099.5,300.1953,1089.5,304.1953,1093.5,300.1953" style="stroke:#334155;stroke-width:1.0;"/><line style="stroke:#334155;stroke-width:1.0;" x1="362.5" x2="1095.5" y1="300.1953" y2="300.1953"/><text fill="#000000" font-family="sans-serif" font-size="13" font-weight="bold" lengthAdjust="spacing" textLength="9" x="369.5" y="295.1294">4</text><text fill="#000000" font-family="sans-serif" font-size="13" lengthAdjust="spacing" textLength="193" x="382.5" y="295.1294">list resources by display name</text><path d="M288.5,315.1953 L352.5,315.1953 L352.5,322.3281 L342.5,332.3281 L288.5,332.3281 L288.5,315.1953 " fill="#F8FAFC" style="stroke:#475569;stroke-width:1.5;"/><rect fill="none" height="119.3359" style="stroke:#475569;stroke-width:1.5;" width="963" x="288.5" y="315.1953"/><text fill="#000000" font-family="sans-serif" font-size="13" font-weight="bold" lengthAdjust="spacing" textLength="19" x="303.5" y="328.2622">alt</text><text fill="#000000" font-family="sans-serif" font-size="11" font-weight="bold" lengthAdjust="spacing" textLength="162" x="367.5" y="327.4058">[existing resource found]</text><polygon fill="#334155" points="1173.5,349.4609,1183.5,353.4609,1173.5,357.4609,1177.5,353.4609" style="stroke:#334155;stroke-width:1.0;"/><line style="stroke:#334155;stroke-width:1.0;" x1="362.5" x2="1179.5" y1="353.4609" y2="353.4609"/><text fill="#000000" font-family="sans-serif" font-size="13" font-weight="bold" lengthAdjust="spacing" textLength="9" x="369.5" y="348.395">5</text><text fill="#000000" font-family="sans-serif" font-size="13" lengthAdjust="spacing" textLength="221" x="382.5" y="348.395">persist the resolved OCID in status</text><line style="stroke:#475569;stroke-width:1.0;stroke-dasharray:2.0,2.0;" x1="288.5" x2="1251.5" y1="362.4609" y2="362.4609"/><text fill="#000000" font-family="sans-serif" font-size="11" font-weight="bold" lengthAdjust="spacing" textLength="182" x="293.5" y="372.6714">[no existing resource found]</text><polygon fill="#334155" points="1089.5,393.3984,1099.5,397.3984,1089.5,401.3984,1093.5,397.3984" style="stroke:#334155;stroke-width:1.0;"/><line style="stroke:#334155;stroke-width:1.0;" x1="362.5" x2="1095.5" y1="397.3984" y2="397.3984"/><text fill="#000000" font-family="sans-serif" font-size="13" font-weight="bold" lengthAdjust="spacing" textLength="9" x="369.5" y="392.3325">6</text><text fill="#000000" font-family="sans-serif" font-size="13" lengthAdjust="spacing" textLength="152" x="382.5" y="392.3325">create the OCI resource</text><polygon fill="#334155" points="1173.5,422.5313,1183.5,426.5313,1173.5,430.5313,1177.5,426.5313" style="stroke:#334155;stroke-width:1.0;"/><line style="stroke:#334155;stroke-width:1.0;" x1="362.5" x2="1179.5" y1="426.5313" y2="426.5313"/><text fill="#000000" font-family="sans-serif" font-size="13" font-weight="bold" lengthAdjust="spacing" textLength="9" x="369.5" y="421.4653">7</text><text fill="#000000" font-family="sans-serif" font-size="13" lengthAdjust="spacing" textLength="216" x="382.5" y="421.4653">persist the created OCID in status</text><path d="M10,462.5313 L74,462.5313 L74,469.6641 L64,479.6641 L10,479.6641 L10,462.5313 " fill="#F8FAFC" style="stroke:#475569;stroke-width:1.5;"/><rect fill="none" height="618.4688" style="stroke:#475569;stroke-width:1.5;" width="1251.5" x="10" y="462.5313"/><text fill="#000000" font-family="sans-serif" font-size="13" font-weight="bold" lengthAdjust="spacing" textLength="19" x="25" y="475.5981">alt</text><text fill="#000000" font-family="sans-serif" font-size="11" font-weight="bold" lengthAdjust="spacing" textLength="120" x="89" y="474.7417">[delete requested]</text><path d="M288.5,486.6641 L381.5,486.6641 L381.5,493.7969 L371.5,503.7969 L288.5,503.7969 L288.5,486.6641 " fill="#F8FAFC" style="stroke:#475569;stroke-width:1.5;"/><rect fill="none" height="104.5313" style="stroke:#475569;stroke-width:1.5;" width="963" x="288.5" y="486.6641"/><text fill="#000000" font-family="sans-serif" font-size="13" font-weight="bold" lengthAdjust="spacing" textLength="48" x="303.5" y="499.731">Delete</text><polygon fill="#334155" points="1089.5,520.9297,1099.5,524.9297,1089.5,528.9297,1093.5,524.9297" style="stroke:#334155;stroke-width:1.0;"/><line style="stroke:#334155;stroke-width:1.0;" x1="362.5" x2="1095.5" y1="524.9297" y2="524.9297"/><text fill="#000000" font-family="sans-serif" font-size="13" font-weight="bold" lengthAdjust="spacing" textLength="9" x="369.5" y="519.8638">8</text><text fill="#000000" font-family="sans-serif" font-size="13" lengthAdjust="spacing" textLength="114" x="382.5" y="519.8638">submit OCI delete</text><polygon fill="#334155" points="1089.5,550.0625,1099.5,554.0625,1089.5,558.0625,1093.5,554.0625" style="stroke:#334155;stroke-width:1.0;"/><line style="stroke:#334155;stroke-width:1.0;" x1="362.5" x2="1095.5" y1="554.0625" y2="554.0625"/><text fill="#000000" font-family="sans-serif" font-size="13" font-weight="bold" lengthAdjust="spacing" textLength="9" x="369.5" y="548.9966">9</text><text fill="#000000" font-family="sans-serif" font-size="13" lengthAdjust="spacing" textLength="702" x="382.5" y="548.9966">Confirm deletion with follow-up GetDeployment calls until the lifecycle is DELETED or the resource is not found.</text><polygon fill="#334155" points="1173.5,579.1953,1183.5,583.1953,1173.5,587.1953,1177.5,583.1953" style="stroke:#334155;stroke-width:1.0;"/><line style="stroke:#334155;stroke-width:1.0;" x1="362.5" x2="1179.5" y1="583.1953" y2="583.1953"/><text fill="#000000" font-family="sans-serif" font-size="13" font-weight="bold" lengthAdjust="spacing" textLength="18" x="369.5" y="578.1294">10</text><text fill="#000000" font-family="sans-serif" font-size="13" lengthAdjust="spacing" textLength="289" x="391.5" y="578.1294">remove the finalizer after delete confirmation</text><line style="stroke:#475569;stroke-width:1.0;stroke-dasharray:2.0,2.0;" x1="10" x2="1261.5" y1="599.1953" y2="599.1953"/><text fill="#000000" font-family="sans-serif" font-size="11" font-weight="bold" lengthAdjust="spacing" textLength="147" x="15" y="609.4058">[OCI state is retryable]</text><polygon fill="#334155" points="87.5,630.1328,77.5,634.1328,87.5,638.1328,83.5,634.1328" style="stroke:#334155;stroke-width:1.0;"/><line style="stroke:#334155;stroke-width:1.0;stroke-dasharray:2.0,2.0;" x1="81.5" x2="361.5" y1="634.1328" y2="634.1328"/><text fill="#000000" font-family="sans-serif" font-size="13" font-weight="bold" lengthAdjust="spacing" textLength="18" x="93.5" y="629.0669">11</text><text fill="#000000" font-family="sans-serif" font-size="13" lengthAdjust="spacing" textLength="110" x="115.5" y="629.0669">requeue required</text><line style="stroke:#475569;stroke-width:1.0;stroke-dasharray:2.0,2.0;" x1="10" x2="1261.5" y1="643.1328" y2="643.1328"/><text fill="#000000" font-family="sans-serif" font-size="11" font-weight="bold" lengthAdjust="spacing" textLength="200" x="15" y="653.3433">[OCI state is failed or terminal]</text><polygon fill="#334155" points="87.5,674.0703,77.5,678.0703,87.5,682.0703,83.5,678.0703" style="stroke:#334155;stroke-width:1.0;"/><line style="stroke:#334155;stroke-width:1.0;stroke-dasharray:2.0,2.0;" x1="81.5" x2="361.5" y1="678.0703" y2="678.0703"/><text fill="#000000" font-family="sans-serif" font-size="13" font-weight="bold" lengthAdjust="spacing" textLength="18" x="93.5" y="673.0044">12</text><text fill="#000000" font-family="sans-serif" font-size="13" lengthAdjust="spacing" textLength="240" x="115.5" y="673.0044">unsuccessful terminal reconcile result</text><line style="stroke:#475569;stroke-width:1.0;stroke-dasharray:2.0,2.0;" x1="10" x2="1261.5" y1="687.0703" y2="687.0703"/><text fill="#000000" font-family="sans-serif" font-size="11" font-weight="bold" lengthAdjust="spacing" textLength="203" x="15" y="697.2808">[OCI state is active and usable]</text><path d="M20,707.875 L167,707.875 L167,715.0078 L157,725.0078 L20,725.0078 L20,707.875 " fill="#F8FAFC" style="stroke:#475569;stroke-width:1.5;"/><rect fill="none" height="336.9922" style="stroke:#475569;stroke-width:1.5;" width="1130" x="20" y="707.875"/><text fill="#000000" font-family="sans-serif" font-size="13" font-weight="bold" lengthAdjust="spacing" textLength="102" x="35" y="720.9419">Drift handling</text><path d="M324,730.0078 L324,861.0078 L1140,861.0078 L1140,740.0078 L1130,730.0078 L324,730.0078 " fill="#FEFFDD" style="stroke:#181818;stroke-width:0.5;"/><path d="M1130,730.0078 L1130,740.0078 L1140,740.0078 L1130,730.0078 " fill="#FEFFDD" style="stroke:#181818;stroke-width:0.5;"/><text fill="#000000" font-family="sans-serif" font-size="13" lengthAdjust="spacing" textLength="171" x="330" y="747.0747">Supported update surface:</text><text fill="#000000" font-family="sans-serif" font-size="13" lengthAdjust="spacing" textLength="94" x="330" y="762.2075">- display name</text><text fill="#000000" font-family="sans-serif" font-size="13" lengthAdjust="spacing" textLength="96" x="330" y="777.3403">- freeform tags</text><text fill="#000000" font-family="sans-serif" font-size="13" lengthAdjust="spacing" textLength="88" x="330" y="792.4731">- defined tags</text><text fill="#000000" font-family="sans-serif" font-size="13" lengthAdjust="spacing" textLength="203" x="330" y="807.606">- routes compared semantically</text><text fill="#000000" font-family="sans-serif" font-size="13" lengthAdjust="spacing" textLength="139" x="330" y="822.7388">Reject before mutate:</text><text fill="#000000" font-family="sans-serif" font-size="13" lengthAdjust="spacing" textLength="102" x="330" y="837.8716">- gatewayId drift</text><text fill="#000000" font-family="sans-serif" font-size="13" lengthAdjust="spacing" textLength="102" x="330" y="853.0044">- pathPrefix drift</text><path d="M30,873.0703 L100,873.0703 L100,880.2031 L90,890.2031 L30,890.2031 L30,873.0703 " fill="#F8FAFC" style="stroke:#475569;stroke-width:1.5;"/><rect fill="none" height="46.2656" style="stroke:#475569;stroke-width:1.5;" width="406.5" x="30" y="873.0703"/><text fill="#000000" font-family="sans-serif" font-size="13" font-weight="bold" lengthAdjust="spacing" textLength="25" x="45" y="886.1372">opt</text><text fill="#000000" font-family="sans-serif" font-size="11" font-weight="bold" lengthAdjust="spacing" textLength="286" x="115" y="885.2808">[unsupported or immutable drift is detected]</text><polygon fill="#334155" points="87.5,907.3359,77.5,911.3359,87.5,915.3359,83.5,911.3359" style="stroke:#334155;stroke-width:1.0;"/><line style="stroke:#334155;stroke-width:1.0;stroke-dasharray:2.0,2.0;" x1="81.5" x2="361.5" y1="911.3359" y2="911.3359"/><text fill="#000000" font-family="sans-serif" font-size="13" font-weight="bold" lengthAdjust="spacing" textLength="18" x="93.5" y="906.27">13</text><text fill="#000000" font-family="sans-serif" font-size="13" lengthAdjust="spacing" textLength="169" x="115.5" y="906.27">reject before OCI mutation</text><polygon fill="#334155" points="1089.5,943.4688,1099.5,947.4688,1089.5,951.4688,1093.5,947.4688" style="stroke:#334155;stroke-width:1.0;"/><line style="stroke:#334155;stroke-width:1.0;" x1="362.5" x2="1095.5" y1="947.4688" y2="947.4688"/><text fill="#000000" font-family="sans-serif" font-size="13" font-weight="bold" lengthAdjust="spacing" textLength="18" x="369.5" y="942.4028">14</text><text fill="#000000" font-family="sans-serif" font-size="13" lengthAdjust="spacing" textLength="461" x="391.5" y="942.4028">Move the deployment compartment before reconciling route or tag drift.</text><polygon fill="#334155" points="1089.5,972.6016,1099.5,976.6016,1089.5,980.6016,1093.5,976.6016" style="stroke:#334155;stroke-width:1.0;"/><line style="stroke:#334155;stroke-width:1.0;" x1="362.5" x2="1095.5" y1="976.6016" y2="976.6016"/><text fill="#000000" font-family="sans-serif" font-size="13" font-weight="bold" lengthAdjust="spacing" textLength="18" x="369.5" y="971.5356">15</text><text fill="#000000" font-family="sans-serif" font-size="13" lengthAdjust="spacing" textLength="520" x="391.5" y="971.5356">Compare routes semantically before deciding whether to call UpdateDeployment.</text><path d="M288.5,991.6016 L358.5,991.6016 L358.5,998.7344 L348.5,1008.7344 L288.5,1008.7344 L288.5,991.6016 " fill="#F8FAFC" style="stroke:#475569;stroke-width:1.5;"/><rect fill="none" height="46.2656" style="stroke:#475569;stroke-width:1.5;" width="841" x="288.5" y="991.6016"/><text fill="#000000" font-family="sans-serif" font-size="13" font-weight="bold" lengthAdjust="spacing" textLength="25" x="303.5" y="1004.6685">opt</text><text fill="#000000" font-family="sans-serif" font-size="11" font-weight="bold" lengthAdjust="spacing" textLength="258" x="373.5" y="1003.812">[supported drift or collection diff exists]</text><polygon fill="#334155" points="1089.5,1025.8672,1099.5,1029.8672,1089.5,1033.8672,1093.5,1029.8672" style="stroke:#334155;stroke-width:1.0;"/><line style="stroke:#334155;stroke-width:1.0;" x1="362.5" x2="1095.5" y1="1029.8672" y2="1029.8672"/><text fill="#000000" font-family="sans-serif" font-size="13" font-weight="bold" lengthAdjust="spacing" textLength="18" x="369.5" y="1024.8013">16</text><text fill="#000000" font-family="sans-serif" font-size="13" lengthAdjust="spacing" textLength="277" x="391.5" y="1024.8013">apply the supported in-place mutation path</text><polygon fill="#334155" points="87.5,1069,77.5,1073,87.5,1077,83.5,1073" style="stroke:#334155;stroke-width:1.0;"/><line style="stroke:#334155;stroke-width:1.0;stroke-dasharray:2.0,2.0;" x1="81.5" x2="361.5" y1="1073" y2="1073"/><text fill="#000000" font-family="sans-serif" font-size="13" font-weight="bold" lengthAdjust="spacing" textLength="18" x="93.5" y="1067.9341">17</text><text fill="#000000" font-family="sans-serif" font-size="13" lengthAdjust="spacing" textLength="169" x="115.5" y="1067.9341">successful active reconcile</text><path d="M51,1093 L51,1224 L1125,1224 L1125,1103 L1115,1093 L51,1093 " fill="#FEFFDD" style="stroke:#181818;stroke-width:0.5;"/><path d="M1115,1093 L1115,1103 L1125,1103 L1115,1093 " fill="#FEFFDD" style="stroke:#181818;stroke-width:0.5;"/><text fill="#000000" font-family="sans-serif" font-size="13" lengthAdjust="spacing" textLength="105" x="57" y="1110.0669">Boundary notes:</text><text fill="#000000" font-family="sans-serif" font-size="13" lengthAdjust="spacing" textLength="462" x="57" y="1125.1997">- Route collection equivalence is part of the modeled ready path, but the</text><text fill="#000000" font-family="sans-serif" font-size="13" lengthAdjust="spacing" textLength="407" x="73" y="1140.3325">current formal state partition does not expose OCI DELETING as</text><text fill="#000000" font-family="sans-serif" font-size="13" lengthAdjust="spacing" textLength="61" x="73" y="1155.4653">retryable.</text><text fill="#000000" font-family="sans-serif" font-size="13" lengthAdjust="spacing" textLength="470" x="57" y="1170.5981">- Code and tests treat OCI DELETING as requeueing even though spec.cfg</text><text fill="#000000" font-family="sans-serif" font-size="13" lengthAdjust="spacing" textLength="325" x="73" y="1185.731">only names CREATING and UPDATING as retryable.</text><text fill="#000000" font-family="sans-serif" font-size="13" lengthAdjust="spacing" textLength="108" x="57" y="1200.8638">Sequence notes:</text><text fill="#000000" font-family="sans-serif" font-size="13" lengthAdjust="spacing" textLength="328" x="57" y="1215.9966">- Matching route collections must skip no-op writes.</text><!--SRC=[bLRRSXit37tVhy0uhv4cgIzn_D0PMHUF9tRgSP8FeBXOYJMNt99SoMgc_rw0t9jbMMazOyiYGE3Wy01aK44ZJ1vkuKO4t8eTpB3ITbUY2V28qXgfoE4R_bMZaPY9EbXJbqjqcNzIfX9EbE3N8hTRPLPG2ErnOBaMycdbR6togTNMmRj5_1buJ9opsyPuUdhsyVnyOCon4BKEt_4vJBHQcOXAOn66oHjey3C3U10kAAagOSBhr9UBoMAwvsHTZgvnEFjqVdxncHpkL85tok0Bw-UpoUdrvT3wHcq0DxHQ7GwTJ6z2cyXWtIlp_CFYjyMyCmy3VrXykhYOP_zaWarmChKcEAirkXCG7lglMTLN3IVVq6qKSNOlZ5WrlirQivJb8eYby0WdVqnlemDz3bQ_r2G2Wm4zooSwVBdqMTQdXD7lUq6lm7MIoj4hXpdu2YK8auDM6mGVHAXzzd8R1wBOl5laC7rilEAkGXcXrT_an8kOPSnS1NVMFj47UooLoOaxeGC4HzHIJc8AdojDT0IkQaP63hsZLUM39s-0rn38ymfMI67M2B9sZjNeqDlQ4PNB7JmPkpMWSbfNXI8E0P3w0OnDMPI79Hyhx30Sow49H1VOS-HS-KfJSnfHOjp9rKImt7KTXeAZH_kXs9722ftdy5m3xzCRuYEXCotxlBq5_d-Jn08aiHamvg3ltTR_ZYm5E0mi9kU__9in4JbgqY6beKdWQHlPamfcqN2CQbylooI29ienPv9seLoPF9Kri5LXJNneRRSZIdU3OJ0zfT3QGqrQqB4cJND3xYH9dtGmcz_DlyzdhCJs92AvP38s98x7sH6s79PsaoZkMq0KWVusTCY4LZ3IbZ4-LAurzWedSnZSJYmrrxsVYLBrpNoLwAqJpTov1w8LWZexjXVXA1dMhyFMnjUIPEwBMdVR1dE2gA4hu40ocdWyCRZ5Qz-Kq1oxKqM0DLaqAJUo-DNI9YBCxS5vpqEjaMLTLTQnwkegvno-TeMGUDNOHw-xa1SBXrXOKaKGAz-x8fqAXNgnIE1uN4fRqZ3cqOSbJMF5GjarJe_u9ye0Imw9KDPSR0zWbUxesnnoBh5RhqHOFpXA-Jmmq86pbX9IMuN8T5iY7P4gEVoIHt7aYoZDIJSoDT0XwRqIn10hdqt4c-JMDkgRpNJVoZSVj4na9iJ_cx2j4E88OlwYkiGgWHuVRzV8SqlxaEqsUevIvHnwkqR2Gf5jx5lu4INGT_EuOx7dCD56S2GJ8kD4o5LH36-HDy69gY8ON7yVK9aHwKjYnsCysBsfzyjZ6RHJqo9TCwMHsVT2lwtfWskUEyBjed0y2sy4Zv7rGOtS_nkXuwEBHCCd1hQ8jPIMXqyEwJPbzEzXMSUPtj3HtflSCjJdgPlZsoJnPp5DGBgVRTFnSLRUVhsX9qOJf9jQuuXmIbdZ723CmTCjJvV7_ivsVF5XumODGRBrQXsV7sDPh9h8rkZKt_HsUfnFqcQA_EDXDkaZ3RAtB-CXO_SYo7Kls9uwJoTBDnmzNYlo7zaAjaxHjd7MDUk_]--></g></svg>