<?xml version="1.0" encoding="UTF-8" standalone="no"?><svg xmlns="http://www.w3.org/2000/svg" xmlns:xlink="http://www.w3.org/1999/xlink" contentStyleType="text/css" height="476px" preserveAspectRatio="none" style="width:2238px;height:476px;background:#FFFFFF;" version="1.1" viewBox="0 0 2238 476" width="2238px" zoomAndPan="magnify"><defs/><g><text fill="#000000" font-family="sans-serif" font-size="14" font-weight="bold" lengthAdjust="spacing" textLength="395" x="914.5" y="22.9951">API Gateway Deployment Reconcile State Machine</text><ellipse cx="16" cy="356.7969" fill="#222222" rx="10" ry="10" style="stroke:none;stroke-width:1.0;"/><g id="Observe"><rect fill="#F8FAFC" height="50.2656" rx="6" ry="6" style="stroke:#475569;stroke-width:0.5;" width="329" x="86" y="331.7969"/><line style="stroke:#475569;stroke-width:0.5;" x1="86" x2="415" y1="358.0938" y2="358.0938"/><text fill="#0F172A" font-family="sans-serif" font-size="14" lengthAdjust="spacing" textLength="58" x="221.5" y="349.792">Observe</text><text fill="#0F172A" font-family="sans-serif" font-size="12" lengthAdjust="spacing" textLength="309" x="91" y="374.2324">read spec, status, delete intent, and OCI lifecycle</text></g><rect fill="#F8FAFC" height="40" rx="6" ry="6" style="stroke:#475569;stroke-width:0.5;" width="122" x="475" y="336.7969"/><text fill="#0F172A" font-family="sans-serif" font-size="14" lengthAdjust="spacing" textLength="112" x="480" y="361.6436">ResolveByName</text><rect fill="#F8FAFC" height="40" rx="6" ry="6" style="stroke:#475569;stroke-width:0.5;" width="111" x="657" y="243.7969"/><text fill="#0F172A" font-family="sans-serif" font-size="14" lengthAdjust="spacing" textLength="101" x="662" y="268.6436">EvaluateReady</text><rect fill="#F8FAFC" height="40" rx="6" ry="6" style="stroke:#475569;stroke-width:0.5;" width="75" x="1079" y="336.7969"/><text fill="#0F172A" font-family="sans-serif" font-size="14" lengthAdjust="spacing" textLength="65" x="1084" y="361.6436">Retryable</text><rect fill="#F8FAFC" height="40" rx="6" ry="6" style="stroke:#475569;stroke-width:0.5;" width="50" x="1264.5" y="422.7969"/><text fill="#0F172A" font-family="sans-serif" font-size="14" lengthAdjust="spacing" textLength="40" x="1269.5" y="447.6436">Failed</text><rect fill="#F8FAFC" height="40" rx="6" ry="6" style="stroke:#475569;stroke-width:0.5;" width="173" x="1030" y="243.7969"/><text fill="#0F172A" font-family="sans-serif" font-size="14" lengthAdjust="spacing" textLength="163" x="1035" y="268.6436">RejectUnsupportedDrift</text><rect fill="#F8FAFC" height="40" rx="6" ry="6" style="stroke:#475569;stroke-width:0.5;" width="53" x="1263" y="170.7969"/><text fill="#0F172A" font-family="sans-serif" font-size="14" lengthAdjust="spacing" textLength="43" x="1268" y="195.6436">Ready</text><rect fill="#F8FAFC" height="40" rx="6" ry="6" style="stroke:#475569;stroke-width:0.5;" width="142" x="828" y="95.7969"/><text fill="#0F172A" font-family="sans-serif" font-size="14" lengthAdjust="spacing" textLength="132" x="833" y="120.6436">MoveCompartment</text><rect fill="#F8FAFC" height="40" rx="6" ry="6" style="stroke:#475569;stroke-width:0.5;" width="97" x="1068" y="97.7969"/><text fill="#0F172A" font-family="sans-serif" font-size="14" lengthAdjust="spacing" textLength="87" x="1073" y="122.6436">ApplyUpdate</text><rect fill="#F8FAFC" height="40" rx="6" ry="6" style="stroke:#475569;stroke-width:0.5;" width="141" x="828.5" y="170.7969"/><text fill="#0F172A" font-family="sans-serif" font-size="14" lengthAdjust="spacing" textLength="131" x="833.5" y="195.6436">CompareCollection</text><rect fill="#F8FAFC" height="40" rx="6" ry="6" style="stroke:#475569;stroke-width:0.5;" width="113" x="1521" y="345.7969"/><text fill="#0F172A" font-family="sans-serif" font-size="14" lengthAdjust="spacing" textLength="103" x="1526" y="370.6436">DeletePending</text><rect fill="#F8FAFC" height="40" rx="6" ry="6" style="stroke:#475569;stroke-width:0.5;" width="65" x="2002.5" y="292.7969"/><text fill="#0F172A" font-family="sans-serif" font-size="14" lengthAdjust="spacing" textLength="55" x="2007.5" y="317.6436">Deleted</text><g id="elem_GMN35"><path d="M1376,49.2969 L1376,180.1269 L1316.08,184.1269 L1376,188.1269 L1376,304.5547 A6,6 0 0 0 1382,310.5547 L1773,310.5547 A6,6 0 0 0 1779,304.5547 L1779,53.2969 L1769,43.2969 L1382,43.2969 A6,6 0 0 0 1376,49.2969 " fill="#FFF7ED" style="stroke:#181818;stroke-width:0.5;"/><path d="M1769,43.2969 L1769,50.2969 A3,3 0 0 0 1772,53.2969 L1779,53.2969 L1769,43.2969 " fill="#FFF7ED" style="stroke:#181818;stroke-width:0.5;"/><text fill="#0F172A" font-family="sans-serif" font-size="13" lengthAdjust="spacing" textLength="69" x="1382" y="60.3638">Archetype:</text><text fill="#0F172A" font-family="sans-serif" font-size="13" lengthAdjust="spacing" textLength="203" x="1382" y="75.4966">- resolved-drift-delete-collection</text><text fill="#0F172A" font-family="sans-serif" font-size="13" lengthAdjust="spacing" textLength="102" x="1382" y="90.6294">Update surface:</text><text fill="#0F172A" font-family="sans-serif" font-size="13" lengthAdjust="spacing" textLength="94" x="1382" y="105.7622">- display name</text><text fill="#0F172A" font-family="sans-serif" font-size="13" lengthAdjust="spacing" textLength="96" x="1382" y="120.895">- freeform tags</text><text fill="#0F172A" font-family="sans-serif" font-size="13" lengthAdjust="spacing" textLength="88" x="1382" y="136.0278">- defined tags</text><text fill="#0F172A" font-family="sans-serif" font-size="13" lengthAdjust="spacing" textLength="203" x="1382" y="151.1606">- routes compared semantically</text><text fill="#0F172A" font-family="sans-serif" font-size="13" lengthAdjust="spacing" textLength="139" x="1382" y="166.2935">Reject before mutate:</text><text fill="#0F172A" font-family="sans-serif" font-size="13" lengthAdjust="spacing" textLength="102" x="1382" y="181.4263">- gatewayId drift</text><text fill="#0F172A" font-family="sans-serif" font-size="13" lengthAdjust="spacing" textLength="102" x="1382" y="196.5591">- pathPrefix drift</text><text fill="#0F172A" font-family="sans-serif" font-size="13" lengthAdjust="spacing" textLength="105" x="1382" y="211.6919">Boundary notes:</text><text fill="#0F172A" font-family="sans-serif" font-size="13" lengthAdjust="spacing" textLength="375" x="1382" y="226.8247">- Route collection equivalence is part of the modeled ready</text><text fill="#0F172A" font-family="sans-serif" font-size="13" lengthAdjust="spacing" textLength="332" x="1398" y="241.9575">path, but the current formal state partition does not</text><text fill="#0F172A" font-family="sans-serif" font-size="13" lengthAdjust="spacing" textLength="223" x="1398" y="257.0903">expose OCI DELETING as retryable.</text><text fill="#0F172A" font-family="sans-serif" font-size="13" lengthAdjust="spacing" textLength="364" x="1382" y="272.2231">- Code and tests treat OCI DELETING as requeueing even</text><text fill="#0F172A" font-family="sans-serif" font-size="13" lengthAdjust="spacing" textLength="366" x="1398" y="287.356">though spec.cfg only names CREATING and UPDATING as</text><text fill="#0F172A" font-family="sans-serif" font-size="13" lengthAdjust="spacing" textLength="61" x="1398" y="302.4888">retryable.</text></g><g id="elem_GMN38"><path d="M1839,374.2969 L1839,373.0469 L1634.06,377.0469 L1839,381.0469 L1839,463.0938 A6,6 0 0 0 1845,469.0938 L2225,469.0938 A6,6 0 0 0 2231,463.0938 L2231,378.2969 L2221,368.2969 L1845,368.2969 A6,6 0 0 0 1839,374.2969 " fill="#FFF7ED" style="stroke:#181818;stroke-width:0.5;"/><path d="M2221,368.2969 L2221,375.2969 A3,3 0 0 0 2224,378.2969 L2231,378.2969 L2221,368.2969 " fill="#FFF7ED" style="stroke:#181818;stroke-width:0.5;"/><text fill="#0F172A" font-family="sans-serif" font-size="13" lengthAdjust="spacing" textLength="90" x="1845" y="385.3638">Delete states:</text><text fill="#0F172A" font-family="sans-serif" font-size="13" lengthAdjust="spacing" textLength="102" x="1845" y="400.4966">- DeletePending</text><text fill="#0F172A" font-family="sans-serif" font-size="13" lengthAdjust="spacing" textLength="59" x="1845" y="415.6294">- Deleted</text><text fill="#0F172A" font-family="sans-serif" font-size="13" lengthAdjust="spacing" textLength="103" x="1845" y="430.7622">Delete workflow:</text><text fill="#0F172A" font-family="sans-serif" font-size="13" lengthAdjust="spacing" textLength="371" x="1845" y="445.895">- Confirm deletion with follow-up GetDeployment calls until</text><text fill="#0F172A" font-family="sans-serif" font-size="13" lengthAdjust="spacing" textLength="336" x="1861" y="461.0278">the lifecycle is DELETED or the resource is not found.</text></g><!--link *start to Observe--><g id="link_*start_Observe"><path d="M26.08,356.7969 C26.08,356.7969 80.84,356.7969 80.84,356.7969 " fill="none" id="*start-to-Observe" style="stroke:#181818;stroke-width:1.0;"/><polygon fill="#181818" points="85.84,356.7969,76.84,352.7969,80.84,356.7969,76.84,360.7969,85.84,356.7969" style="stroke:#181818;stroke-width:1.0;"/></g><!--link Observe to ResolveByName--><g id="link_Observe_ResolveByName"><path d="M415.34,356.7969 C415.34,356.7969 469.86,356.7969 469.86,356.7969 " fill="none" id="Observe-to-ResolveByName" style="stroke:#181818;stroke-width:1.0;"/><polygon fill="#181818" points="474.86,356.7969,465.86,352.7969,469.86,356.7969,465.86,360.7969,474.86,356.7969" style="stroke:#181818;stroke-width:1.0;"/><text fill="#000000" font-family="sans-serif" font-size="13" lengthAdjust="spacing" textLength="163" x="443.6" y="369.8638">status/spec OCID missing</text></g><!--link ResolveByName to EvaluateReady--><g id="link_ResolveByName_EvaluateReady"><path d="M597.41,356.7969 C648.53,356.7969 713,356.7969 713,356.7969 C713,356.7969 713,288.9769 713,288.9769 " fill="none" id="ResolveByName-to-EvaluateReady" style="stroke:#181818;stroke-width:1.0;"/><polygon fill="#181818" points="713,283.9769,709,292.9769,713,288.9769,717,292.9769,713,283.9769" style="stroke:#181818;stroke-width:1.0;"/><text fill="#000000" font-family="sans-serif" font-size="13" lengthAdjust="spacing" textLength="123" x="690.11" y="369.8638">OCI state in ACTIVE</text></g><!--link ResolveByName to Retryable--><g id="link_ResolveByName_Retryable"><path d="M597.03,366.7969 C597.03,366.7969 1073.87,366.7969 1073.87,366.7969 " fill="none" id="ResolveByName-to-Retryable" style="stroke:#181818;stroke-width:1.0;"/><polygon fill="#181818" points="1078.87,366.7969,1069.87,362.7969,1073.87,366.7969,1069.87,370.7969,1078.87,366.7969" style="stroke:#181818;stroke-width:1.0;"/><text fill="#000000" font-family="sans-serif" font-size="13" lengthAdjust="spacing" textLength="217" x="836.45" y="379.8638">OCI state in CREATING, UPDATING</text></g><!--link ResolveByName to Failed--><g id="link_ResolveByName_Failed"><path d="M536,376.9069 C536,404.1569 536,449.4669 536,449.4669 C536,449.4669 1259.43,449.4669 1259.43,449.4669 " fill="none" id="ResolveByName-to-Failed" style="stroke:#181818;stroke-width:1.0;"/><polygon fill="#181818" points="1264.43,449.4669,1255.43,445.4669,1259.43,449.4669,1255.43,453.4669,1264.43,449.4669" style="stroke:#181818;stroke-width:1.0;"/><text fill="#000000" font-family="sans-serif" font-size="13" lengthAdjust="spacing" textLength="188" x="672.44" y="462.5338">OCI state in FAILED, DELETED</text></g><!--link EvaluateReady to RejectUnsupportedDrift--><g id="link_EvaluateReady_RejectUnsupportedDrift"><path d="M768.25,263.7969 C768.25,263.7969 1024.89,263.7969 1024.89,263.7969 " fill="none" id="EvaluateReady-to-RejectUnsupportedDrift" style="stroke:#181818;stroke-width:1.0;"/><polygon fill="#181818" points="1029.89,263.7969,1020.89,259.7969,1024.89,263.7969,1020.89,267.7969,1029.89,263.7969" style="stroke:#181818;stroke-width:1.0;"/><text fill="#000000" font-family="sans-serif" font-size="13" lengthAdjust="spacing" textLength="275" x="620.57" y="276.8638">unsupported or immutable drift is detected</text></g><!--link RejectUnsupportedDrift to Ready--><g id="link_RejectUnsupportedDrift_Ready"><path d="M1184,243.4669 C1184,223.1169 1184,194.7969 1184,194.7969 C1184,194.7969 1257.88,194.7969 1257.88,194.7969 " fill="none" id="RejectUnsupportedDrift-to-Ready" style="stroke:#181818;stroke-width:1.0;"/><polygon fill="#181818" points="1262.88,194.7969,1253.88,190.7969,1257.88,194.7969,1253.88,198.7969,1262.88,194.7969" style="stroke:#181818;stroke-width:1.0;"/><text fill="#000000" font-family="sans-serif" font-size="13" lengthAdjust="spacing" textLength="252" x="943.6" y="207.8638">wait for the spec or live state to change</text></g><!--link EvaluateReady to MoveCompartment--><g id="link_EvaluateReady_MoveCompartment"><path d="M713,243.5269 C713,202.9969 713,115.7969 713,115.7969 C713,115.7969 822.89,115.7969 822.89,115.7969 " fill="none" id="EvaluateReady-to-MoveCompartment" style="stroke:#181818;stroke-width:1.0;"/><polygon fill="#181818" points="827.89,115.7969,818.89,111.7969,822.89,115.7969,818.89,119.7969,827.89,115.7969" style="stroke:#181818;stroke-width:1.0;"/><text fill="#000000" font-family="sans-serif" font-size="13" lengthAdjust="spacing" textLength="158" x="554" y="137.7838">continue active reconcile</text></g><!--link MoveCompartment to ApplyUpdate--><g id="link_MoveCompartment_ApplyUpdate"><path d="M970.22,116.7969 C970.22,116.7969 1062.82,116.7969 1062.82,116.7969 " fill="none" id="MoveCompartment-to-ApplyUpdate" style="stroke:#181818;stroke-width:1.0;"/><polygon fill="#181818" points="1067.82,116.7969,1058.82,112.7969,1062.82,116.7969,1058.82,120.7969,1067.82,116.7969" style="stroke:#181818;stroke-width:1.0;"/><text fill="#000000" font-family="sans-serif" font-size="13" lengthAdjust="spacing" textLength="221" x="1017.52" y="129.8638">continue after compartment move</text></g><!--link CompareCollection to ApplyUpdate--><g id="link_CompareCollection_ApplyUpdate"><path d="M969.78,178.7969 C1033.43,178.7969 1117,178.7969 1117,178.7969 C1117,178.7969 1117,143.1069 1117,143.1069 " fill="none" id="CompareCollection-to-ApplyUpdate" style="stroke:#181818;stroke-width:1.0;"/><polygon fill="#181818" points="1117,138.1069,1113,147.1069,1117,143.1069,1121,147.1069,1117,138.1069" style="stroke:#181818;stroke-width:1.0;"/><text fill="#000000" font-family="sans-serif" font-size="13" lengthAdjust="spacing" textLength="187" x="873.23" y="174.8638">semantic collection diff exists</text></g><!--link CompareCollection to Ready--><g id="link_CompareCollection_Ready"><path d="M969.72,186.7969 C969.72,186.7969 1257.91,186.7969 1257.91,186.7969 " fill="none" id="CompareCollection-to-Ready" style="stroke:#181818;stroke-width:1.0;"/><polygon fill="#181818" points="1262.91,186.7969,1253.91,182.7969,1257.91,186.7969,1253.91,190.7969,1262.91,186.7969" style="stroke:#181818;stroke-width:1.0;"/><text fill="#000000" font-family="sans-serif" font-size="13" lengthAdjust="spacing" textLength="222" x="1114.81" y="182.8638">matching collection skips mutation</text></g><!--link ApplyUpdate to Ready--><g id="link_ApplyUpdate_Ready"><path d="M1165.29,117.7969 C1216.61,117.7969 1290,117.7969 1290,117.7969 C1290,117.7969 1290,165.4669 1290,165.4669 " fill="none" id="ApplyUpdate-to-Ready" style="stroke:#181818;stroke-width:1.0;"/><polygon fill="#181818" points="1290,170.4669,1294,161.4669,1290,165.4669,1286,161.4669,1290,170.4669" style="stroke:#181818;stroke-width:1.0;"/><text fill="#000000" font-family="sans-serif" font-size="13" lengthAdjust="spacing" textLength="231" x="1252.48" y="130.8638">supported mutation path completes</text></g><!--link Ready to Ready--><g id="link_Ready_Ready"><path d="M1262.84,202.7969 C1244.33,202.7969 1223,202.7969 1223,202.7969 C1223,202.7969 1223,227.2969 1223,227.2969 C1223,227.2969 1336,227.2969 1336,227.2969 C1336,227.2969 1336,197.4669 1336,197.4669 C1336,197.4669 1321.01,197.4669 1321.01,197.4669 " fill="none" id="Ready-to-Ready" style="stroke:#181818;stroke-width:1.0;"/><polygon fill="#181818" points="1316.01,197.4669,1325.01,201.4669,1321.01,197.4669,1325.01,193.4669,1316.01,197.4669" style="stroke:#181818;stroke-width:1.0;"/><text fill="#000000" font-family="sans-serif" font-size="13" lengthAdjust="spacing" textLength="170" x="1093.74" y="245.3638">no supported drift remains</text></g><!--link Retryable to Retryable--><g id="link_Retryable_Retryable"><path d="M1078.95,346.7969 C1066.15,346.7969 1055,346.7969 1055,346.7969 C1055,346.7969 1055,317.4669 1055,317.4669 C1055,317.4669 1179,317.4669 1179,317.4669 C1179,317.4669 1179,339.7969 1179,339.7969 C1179,339.7969 1159.3,339.7969 1159.3,339.7969 " fill="none" id="Retryable-to-Retryable" style="stroke:#181818;stroke-width:1.0;"/><polygon fill="#181818" points="1154.3,339.7969,1163.3,343.7969,1159.3,339.7969,1163.3,335.7969,1154.3,339.7969" style="stroke:#181818;stroke-width:1.0;"/><text fill="#000000" font-family="sans-serif" font-size="13" lengthAdjust="spacing" textLength="159" x="946.37" y="308.5338">OCI remains nonterminal</text></g><!--link Failed to Failed--><g id="link_Failed_Failed"><path d="M1264.34,436.1269 C1253.39,436.1269 1243,436.1269 1243,436.1269 C1243,436.1269 1243,404.2969 1243,404.2969 C1243,404.2969 1356,404.2969 1356,404.2969 C1356,404.2969 1356,442.7969 1356,442.7969 C1356,442.7969 1319.64,442.7969 1319.64,442.7969 " fill="none" id="Failed-to-Failed" style="stroke:#181818;stroke-width:1.0;"/><polygon fill="#181818" points="1314.64,442.7969,1323.64,446.7969,1319.64,442.7969,1323.64,438.7969,1314.64,442.7969" style="stroke:#181818;stroke-width:1.0;"/><text fill="#000000" font-family="sans-serif" font-size="13" lengthAdjust="spacing" textLength="135" x="1316.34" y="402.1138">OCI remains terminal</text></g><!--link Ready to DeletePending--><g id="link_Ready_DeletePending"><path d="M1282,211.0769 C1282,254.7069 1282,353.5469 1282,353.5469 C1282,353.5469 1515.87,353.5469 1515.87,353.5469 " fill="none" id="Ready-to-DeletePending" style="stroke:#181818;stroke-width:1.0;"/><polygon fill="#181818" points="1520.87,353.5469,1511.87,349.5469,1515.87,353.5469,1511.87,357.5469,1520.87,353.5469" style="stroke:#181818;stroke-width:1.0;"/><text fill="#000000" font-family="sans-serif" font-size="13" lengthAdjust="spacing" textLength="109" x="1217.7" y="349.6138">delete requested</text></g><!--link Retryable to DeletePending--><g id="link_Retryable_DeletePending"><path d="M1154.23,361.2969 C1154.23,361.2969 1515.89,361.2969 1515.89,361.2969 " fill="none" id="Retryable-to-DeletePending" style="stroke:#181818;stroke-width:1.0;"/><polygon fill="#181818" points="1520.89,361.2969,1511.89,357.2969,1515.89,361.2969,1511.89,365.2969,1520.89,361.2969" style="stroke:#181818;stroke-width:1.0;"/><text fill="#000000" font-family="sans-serif" font-size="13" lengthAdjust="spacing" textLength="109" x="1225.06" y="374.3638">delete requested</text></g><!--link Failed to DeletePending--><g id="link_Failed_DeletePending"><path d="M1298,422.6469 C1298,400.8069 1298,369.0469 1298,369.0469 C1298,369.0469 1515.94,369.0469 1515.94,369.0469 " fill="none" id="Failed-to-DeletePending" style="stroke:#181818;stroke-width:1.0;"/><polygon fill="#181818" points="1520.94,369.0469,1511.94,365.0469,1515.94,369.0469,1511.94,373.0469,1520.94,369.0469" style="stroke:#181818;stroke-width:1.0;"/><text fill="#000000" font-family="sans-serif" font-size="13" lengthAdjust="spacing" textLength="109" x="1381.17" y="365.1138">delete requested</text></g><!--link DeletePending to Deleted--><g id="link_DeletePending_Deleted"><path d="M1634.06,357.0469 C1756.46,357.0469 2035,357.0469 2035,357.0469 C2035,357.0469 2035,337.8469 2035,337.8469 " fill="none" id="DeletePending-to-Deleted" style="stroke:#181818;stroke-width:1.0;"/><polygon fill="#181818" points="2035,332.8469,2031,341.8469,2035,337.8469,2039,341.8469,2035,332.8469" style="stroke:#181818;stroke-width:1.0;"/><text fill="#000000" font-family="sans-serif" font-size="13" lengthAdjust="spacing" textLength="373" x="1845.13" y="357.3638">OCI deletion is confirmed and the finalizer can be removed</text></g><!--link Deleted to Deleted--><g id="link_Deleted_Deleted"><path d="M2002.33,324.6269 C1968.65,324.6269 1921,324.6269 1921,324.6269 C1921,324.6269 1921,342.7969 1921,342.7969 C1921,342.7969 2150,342.7969 2150,342.7969 C2150,342.7969 2150,312.7969 2150,312.7969 C2150,312.7969 2072.65,312.7969 2072.65,312.7969 " fill="none" id="Deleted-to-Deleted" style="stroke:#181818;stroke-width:1.0;"/><polygon fill="#181818" points="2067.65,312.7969,2076.65,316.7969,2072.65,312.7969,2076.65,308.7969,2067.65,312.7969" style="stroke:#181818;stroke-width:1.0;"/><text fill="#000000" font-family="sans-serif" font-size="13" lengthAdjust="spacing" textLength="100" x="2045.43" y="333.8638">terminal stutter</text></g><!--SRC=[XLPBSzis4BxpL-nCRXqfJT8uRdJeZ9uUpUJXKUnUEZt0n9943G8i04fcE_dlsGL8YrAKYIysWVs-VNsxS5118ynljt0Z0Xv41ojijErgD05sc5kJApBu4kWMFegyKWOpZKM0OC6fiWeWbSCyA6koIaa4h9lGWKIVEzN4O_-eJ2ESgC5NGjg3CYKKGdiStMZY3Ls3O5sexEZ2sTR8t3g33bw_6LqiHFvOnjkbrTR1Yqty6Lb8B4Ihmnq-XRbMfOavSUpZY69Y_sS02-iakfxhxVNLrRltTBgn9lHdhpQlhz_CsV8xpxzlvfjbzdN4Q-mbsiNRgzzUlRz8iTbShrSN7NxD_lhbRvXE_u3F3nxT7hF-Dyp0eP3W6ymdCPFMJoXhZUHRcK3fJa0O2P-NMofmWNcNwoEQ6NVehTxZeliaQkPB9Byo8wDMK2llgL_PgI53rtkXMohUZaBe2CfEKZMLWVdoRlld-W9gXy5rua7ZEMAvMy_ljfzk9d1_kuf_NK1l18bHdaCty-s7zMe2g_M7zHqLyJIovFKVakYzyMtJaC1GhfmY2S-WFHwHya3LTHjYT38QA4_b30H5cVs08z6d4Xo42b0GJwWmTeKvjQ9QfrXfPF9Ac18lXFZHxd5fQr9FY3gT0SrUKAP543HTnE66QSpERHa_RnhTtJUI_OonHQ31oKV6DO6pX2OIhTFiNk3mM0jYoGdzR2LLKG0-AH_y3pY6MjGYyB8ensWQZyO3bpZkXR6xCVJOai4K6X6gc0LhssVZpYQCiIDOQfwZ-9LXuq5obmJOMn413OohbH4wwsNsdU86ssV3OnohE7MtQ2JdF1kcqE6_BVeadt4KFpKVXV1JsrE38sG8EmAuYYHd4aQXN4rtl1XOfmLdelvZbGW33qpC4XbevHdXa3j9kWtqaMLnrQMdm1Qf8TdSvLNSvxDiIeHnZkKqzcMQufyUTP7r6l2jAqGU8LBvHjDZP6ZowRDmY3HNDGHHUhv6Yfh2wJzfaP8gUfNJyQ1SeNNNpoqbHWIO51LTbEczs_PoeHCMsQqZwgV-QC4BMhWkRdFFe1rx6akQcg1ebj7aoENbAUCgS65hovdAkACxskmG7KpWeGtnFc-Tuu7an68zkGPCeDAeMMHLXeZ4fyPwZDsCMuxM8mXFrBseNb9iI_ANkago896Itt01GQffaOM2UpIHd1xSjgpYmdgP5oLOerFb_VDMZhp3OYQUY1jv9-t58fshuKIQlQ9Ifh6SfzV3zo0zE5ZtM6XxcCNied2FOZueMWa5TS8Ufcq3DnX6_xbmwprjzw1qdo8UNq1kLFzMGB-iMQAjIpsa38YNEZzAwni0]--></g></svg>