<?xml version="1.0" encoding="UTF-8" standalone="no"?><svg xmlns="http://www.w3.org/2000/svg" xmlns:xlink="http://www.w3.org/1999/xlink" contentStyleType="text/css" height="1556px" preserveAspectRatio="none" style="width:1907px;height:1556px;background:#FFFFFF;" version="1.1" viewBox="0 0 1907 1556" width="1907px" zoomAndPan="magnify"><defs/><g><text fill="#000000" font-family="sans-serif" font-size="14" font-weight="bold" lengthAdjust="spacing" textLength="294" x="805" y="32.9951">Functions Function Reconcile Activity</text><ellipse cx="755.5" cy="57.2969" fill="#0F766E" rx="10" ry="10" style="stroke:#222222;stroke-width:1.0;"/><rect fill="none" height="254.2031" style="stroke:#000000;stroke-width:1.5;" width="686" x="433" y="77.2969"/><path d="M566,77.2969 L566,86.5938 L556,96.5938 L433,96.5938 " fill="none" style="stroke:#000000;stroke-width:1.5;"/><text fill="#000000" font-family="sans-serif" font-size="14" lengthAdjust="spacing" textLength="123" x="436" y="91.292">Observe and Bind</text><rect fill="#F8FAFC" height="33.9688" rx="12.5" ry="12.5" style="stroke:#475569;stroke-width:0.5;" width="304" x="603.5" y="113.5938"/><text fill="#0F172A" font-family="sans-serif" font-size="12" lengthAdjust="spacing" textLength="284" x="613.5" y="134.7324">Read CR spec, status OCID, and delete intent</text><polygon fill="#E2E8F0" points="655.5,167.5625,855.5,167.5625,867.5,179.5625,855.5,191.5625,655.5,191.5625,643.5,179.5625,655.5,167.5625" style="stroke:#475569;stroke-width:0.5;"/><text fill="#0F172A" font-family="sans-serif" font-size="11" lengthAdjust="spacing" textLength="200" x="655.5" y="183.3706">"Tracked or explicit OCID present?"</text><text fill="#000000" font-family="sans-serif" font-size="11" lengthAdjust="spacing" textLength="20" x="623.5" y="176.9683">yes</text><text fill="#000000" font-family="sans-serif" font-size="11" lengthAdjust="spacing" textLength="14" x="867.5" y="176.9683">no</text><rect fill="#F8FAFC" height="33.9688" rx="12.5" ry="12.5" style="stroke:#475569;stroke-width:0.5;" width="272" x="453" y="201.5625"/><text fill="#0F172A" font-family="sans-serif" font-size="12" lengthAdjust="spacing" textLength="252" x="463" y="222.7012">Get the OCI resource by known identifier</text><rect fill="#F8FAFC" height="33.9688" rx="12.5" ry="12.5" style="stroke:#475569;stroke-width:0.5;" width="328" x="758" y="201.5625"/><text fill="#0F172A" font-family="sans-serif" font-size="12" lengthAdjust="spacing" textLength="308" x="768" y="222.7012">Resolve an existing OCI resource by display name</text><rect fill="#F8FAFC" height="33.9688" rx="12.5" ry="12.5" style="stroke:#475569;stroke-width:0.5;" width="354" x="745" y="255.5313"/><text fill="#0F172A" font-family="sans-serif" font-size="12" lengthAdjust="spacing" textLength="334" x="755" y="276.6699">Persist the resolved or created OCID back into status</text><polygon fill="#E2E8F0" points="755.5,295.5,767.5,307.5,755.5,319.5,743.5,307.5,755.5,295.5" style="stroke:#475569;stroke-width:0.5;"/><path d="M1511,788.9023 L1511,1162.0898 L1895,1162.0898 L1895,798.9023 L1885,788.9023 L1511,788.9023 " fill="#FEFFDD" style="stroke:#181818;stroke-width:0.5;"/><path d="M1885,788.9023 L1885,798.9023 L1895,798.9023 L1885,788.9023 " fill="#FEFFDD" style="stroke:#181818;stroke-width:0.5;"/><text fill="#000000" font-family="sans-serif" font-size="13" lengthAdjust="spacing" textLength="69" x="1517" y="805.9692">Archetype:</text><text fill="#000000" font-family="sans-serif" font-size="13" lengthAdjust="spacing" textLength="183" x="1517" y="821.1021">- resolved-drift-delete-secret</text><text fill="#000000" font-family="sans-serif" font-size="13" lengthAdjust="spacing" textLength="134" x="1517" y="836.2349">Retryable OCI states:</text><text fill="#000000" font-family="sans-serif" font-size="13" lengthAdjust="spacing" textLength="73" x="1517" y="851.3677">- CREATING</text><text fill="#000000" font-family="sans-serif" font-size="13" lengthAdjust="spacing" textLength="76" x="1517" y="866.5005">- UPDATING</text><text fill="#000000" font-family="sans-serif" font-size="13" lengthAdjust="spacing" textLength="113" x="1517" y="881.6333">Active OCI states:</text><text fill="#000000" font-family="sans-serif" font-size="13" lengthAdjust="spacing" textLength="54" x="1517" y="896.7661">- ACTIVE</text><text fill="#000000" font-family="sans-serif" font-size="13" lengthAdjust="spacing" textLength="111" x="1517" y="911.8989">Failed OCI states:</text><text fill="#000000" font-family="sans-serif" font-size="13" lengthAdjust="spacing" textLength="53" x="1517" y="927.0317">- FAILED</text><text fill="#000000" font-family="sans-serif" font-size="13" lengthAdjust="spacing" textLength="67" x="1517" y="942.1646">- DELETED</text><text fill="#000000" font-family="sans-serif" font-size="13" lengthAdjust="spacing" textLength="102" x="1517" y="957.2974">Update surface:</text><text fill="#000000" font-family="sans-serif" font-size="13" lengthAdjust="spacing" textLength="49" x="1517" y="972.4302">- image</text><text fill="#000000" font-family="sans-serif" font-size="13" lengthAdjust="spacing" textLength="101" x="1517" y="987.563">- memoryInMBs</text><text fill="#000000" font-family="sans-serif" font-size="13" lengthAdjust="spacing" textLength="125" x="1517" y="1002.6958">- timeoutInSeconds</text><text fill="#000000" font-family="sans-serif" font-size="13" lengthAdjust="spacing" textLength="47" x="1517" y="1017.8286">- config</text><text fill="#000000" font-family="sans-serif" font-size="13" lengthAdjust="spacing" textLength="96" x="1517" y="1032.9614">- freeform tags</text><text fill="#000000" font-family="sans-serif" font-size="13" lengthAdjust="spacing" textLength="88" x="1517" y="1048.0942">- defined tags</text><text fill="#000000" font-family="sans-serif" font-size="13" lengthAdjust="spacing" textLength="139" x="1517" y="1063.2271">Reject before mutate:</text><text fill="#000000" font-family="sans-serif" font-size="13" lengthAdjust="spacing" textLength="118" x="1517" y="1078.3599">- applicationId drift</text><text fill="#000000" font-family="sans-serif" font-size="13" lengthAdjust="spacing" textLength="121" x="1517" y="1093.4927">- displayName drift</text><text fill="#000000" font-family="sans-serif" font-size="13" lengthAdjust="spacing" textLength="105" x="1517" y="1108.6255">Boundary notes:</text><text fill="#000000" font-family="sans-serif" font-size="13" lengthAdjust="spacing" textLength="354" x="1517" y="1123.7583">- The formal secret profile is stronger than current code</text><text fill="#000000" font-family="sans-serif" font-size="13" lengthAdjust="spacing" textLength="347" x="1533" y="1138.8911">because an active function without InvokeEndpoint still</text><text fill="#000000" font-family="sans-serif" font-size="13" lengthAdjust="spacing" textLength="258" x="1533" y="1154.0239">returns success without writing a Secret.</text><polygon fill="#E2E8F0" points="698.5,351.5,812.5,351.5,824.5,363.5,812.5,375.5,698.5,375.5,686.5,363.5,698.5,351.5" style="stroke:#475569;stroke-width:0.5;"/><text fill="#0F172A" font-family="sans-serif" font-size="11" lengthAdjust="spacing" textLength="114" x="698.5" y="367.3081">"Delete requested?"</text><text fill="#000000" font-family="sans-serif" font-size="11" lengthAdjust="spacing" textLength="20" x="666.5" y="360.9058">yes</text><text fill="#000000" font-family="sans-serif" font-size="11" lengthAdjust="spacing" textLength="14" x="824.5" y="360.9058">no</text><rect fill="none" height="348.3047" style="stroke:#000000;stroke-width:1.5;" width="763" x="11" y="385.5"/><path d="M67,385.5 L67,394.7969 L57,404.7969 L11,404.7969 " fill="none" style="stroke:#000000;stroke-width:1.5;"/><text fill="#000000" font-family="sans-serif" font-size="14" lengthAdjust="spacing" textLength="46" x="14" y="399.4951">Delete</text><rect fill="#F8FAFC" height="33.9688" rx="12.5" ry="12.5" style="stroke:#475569;stroke-width:0.5;" width="275" x="242.25" y="421.7969"/><text fill="#0F172A" font-family="sans-serif" font-size="12" lengthAdjust="spacing" textLength="255" x="252.25" y="442.9355">Submit OCI delete for Functions Function</text><rect fill="#F8FAFC" height="33.9688" rx="12.5" ry="12.5" style="stroke:#475569;stroke-width:0.5;" width="598" x="80.75" y="490.7656"/><text fill="#0F172A" font-family="sans-serif" font-size="12" lengthAdjust="spacing" textLength="578" x="90.75" y="511.9043">Confirm deletion with GetFunction until the lifecycle is DELETED or the resource is not found.</text><rect fill="#F8FAFC" height="33.9688" rx="12.5" ry="12.5" style="stroke:#475569;stroke-width:0.5;" width="364" x="197.75" y="559.7344"/><text fill="#0F172A" font-family="sans-serif" font-size="12" lengthAdjust="spacing" textLength="344" x="207.75" y="580.873">Delete the owned Secret after OCI delete confirmation.</text><polygon fill="#E2E8F0" points="278.75,615.8359,480.75,615.8359,492.75,627.8359,480.75,639.8359,278.75,639.8359,266.75,627.8359,278.75,615.8359" style="stroke:#475569;stroke-width:0.5;"/><text fill="#0F172A" font-family="sans-serif" font-size="11" lengthAdjust="spacing" textLength="202" x="278.75" y="631.644">"Owned Secret cleanup succeeds?"</text><text fill="#000000" font-family="sans-serif" font-size="11" lengthAdjust="spacing" textLength="20" x="246.75" y="625.2417">yes</text><text fill="#000000" font-family="sans-serif" font-size="11" lengthAdjust="spacing" textLength="14" x="492.75" y="625.2417">no</text><rect fill="#F8FAFC" height="33.9688" rx="12.5" ry="12.5" style="stroke:#475569;stroke-width:0.5;" width="338" x="23" y="649.8359"/><text fill="#0F172A" font-family="sans-serif" font-size="12" lengthAdjust="spacing" textLength="318" x="33" y="670.9746">Remove the finalizer after OCI deletion is confirmed</text><rect fill="#F8FAFC" height="33.9688" rx="12.5" ry="12.5" style="stroke:#475569;stroke-width:0.5;" width="373" x="381" y="649.8359"/><text fill="#0F172A" font-family="sans-serif" font-size="12" lengthAdjust="spacing" textLength="353" x="391" y="670.9746">Stay blocked until Secret cleanup succeeds or is absent</text><polygon fill="#E2E8F0" points="379.75,689.8047,391.75,701.8047,379.75,713.8047,367.75,701.8047,379.75,689.8047" style="stroke:#475569;stroke-width:0.5;"/><ellipse cx="379.75" cy="779.8047" fill="none" rx="11" ry="11" style="stroke:#222222;stroke-width:1.0;"/><ellipse cx="379.75" cy="779.8047" fill="#222222" rx="6" ry="6" style="stroke:#111111;stroke-width:1.0;"/><rect fill="none" height="417.9766" style="stroke:#000000;stroke-width:1.5;" width="376" x="949.25" y="385.5"/><path d="M1110.25,385.5 L1110.25,394.7969 L1100.25,404.7969 L949.25,404.7969 " fill="none" style="stroke:#000000;stroke-width:1.5;"/><text fill="#000000" font-family="sans-serif" font-size="14" lengthAdjust="spacing" textLength="151" x="952.25" y="399.4951">Lifecycle Classification</text><rect fill="#F8FAFC" height="33.9688" rx="12.5" ry="12.5" style="stroke:#475569;stroke-width:0.5;" width="268" x="997.25" y="470.1992"/><text fill="#0F172A" font-family="sans-serif" font-size="12" lengthAdjust="spacing" textLength="248" x="1007.25" y="491.3379">Request requeue and keep the finalizer</text><ellipse cx="1131.25" cy="550.168" fill="none" rx="11" ry="11" style="stroke:#222222;stroke-width:1.0;"/><ellipse cx="1131.25" cy="550.168" fill="#222222" rx="6" ry="6" style="stroke:#111111;stroke-width:1.0;"/><polygon fill="#E2E8F0" points="1051.25,421.7969,1211.25,421.7969,1223.25,433.7969,1211.25,445.7969,1051.25,445.7969,1039.25,433.7969,1051.25,421.7969" style="stroke:#475569;stroke-width:0.5;"/><text fill="#000000" font-family="sans-serif" font-size="11" lengthAdjust="spacing" textLength="20" x="1135.25" y="456.0073">yes</text><text fill="#0F172A" font-family="sans-serif" font-size="11" lengthAdjust="spacing" textLength="160" x="1051.25" y="437.605">"OCI state in retryable set?"</text><rect fill="#F8FAFC" height="33.9688" rx="12.5" ry="12.5" style="stroke:#475569;stroke-width:0.5;" width="324" x="969.25" y="662.1055"/><text fill="#0F172A" font-family="sans-serif" font-size="12" lengthAdjust="spacing" textLength="304" x="979.25" y="683.2441">Return an unsuccessful terminal reconcile result</text><ellipse cx="1131.25" cy="742.0742" fill="none" rx="11" ry="11" style="stroke:#222222;stroke-width:1.0;"/><ellipse cx="1131.25" cy="742.0742" fill="#222222" rx="6" ry="6" style="stroke:#111111;stroke-width:1.0;"/><polygon fill="#E2E8F0" points="1061.25,613.7031,1201.25,613.7031,1213.25,625.7031,1201.25,637.7031,1061.25,637.7031,1049.25,625.7031,1061.25,613.7031" style="stroke:#475569;stroke-width:0.5;"/><text fill="#000000" font-family="sans-serif" font-size="11" lengthAdjust="spacing" textLength="20" x="1135.25" y="647.9136">yes</text><text fill="#0F172A" font-family="sans-serif" font-size="11" lengthAdjust="spacing" textLength="140" x="1061.25" y="629.5112">"OCI state in failed set?"</text><rect fill="none" height="699.8828" style="stroke:#000000;stroke-width:1.5;" width="707" x="794" y="838.4766"/><path d="M973,838.4766 L973,847.7734 L963,857.7734 L794,857.7734 " fill="none" style="stroke:#000000;stroke-width:1.5;"/><text fill="#000000" font-family="sans-serif" font-size="14" lengthAdjust="spacing" textLength="169" x="797" y="852.4717">Ready and Drift Handling</text><rect fill="#F8FAFC" height="33.9688" rx="12.5" ry="12.5" style="stroke:#475569;stroke-width:0.5;" width="364" x="949.25" y="874.7734"/><text fill="#0F172A" font-family="sans-serif" font-size="12" lengthAdjust="spacing" textLength="344" x="959.25" y="895.9121">Compare live OCI state with the supported drift surface</text><rect fill="#F8FAFC" height="33.9688" rx="12.5" ry="12.5" style="stroke:#475569;stroke-width:0.5;" width="290" x="986.25" y="992.1445"/><text fill="#0F172A" font-family="sans-serif" font-size="12" lengthAdjust="spacing" textLength="270" x="996.25" y="1013.2832">Reject the change before any OCI mutation</text><ellipse cx="1131.25" cy="1072.1133" fill="none" rx="11" ry="11" style="stroke:#222222;stroke-width:1.0;"/><ellipse cx="1131.25" cy="1072.1133" fill="#222222" rx="6" ry="6" style="stroke:#111111;stroke-width:1.0;"/><polygon fill="#E2E8F0" points="1006.75,943.7422,1255.75,943.7422,1267.75,955.7422,1255.75,967.7422,1006.75,967.7422,994.75,955.7422,1006.75,943.7422" style="stroke:#475569;stroke-width:0.5;"/><text fill="#000000" font-family="sans-serif" font-size="11" lengthAdjust="spacing" textLength="20" x="1135.25" y="977.9526">yes</text><text fill="#0F172A" font-family="sans-serif" font-size="11" lengthAdjust="spacing" textLength="249" x="1006.75" y="959.5503">"Unsupported or immutable drift detected?"</text><rect fill="#F8FAFC" height="33.9688" rx="12.5" ry="12.5" style="stroke:#475569;stroke-width:0.5;" width="589" x="836.75" y="1148.5156"/><text fill="#0F172A" font-family="sans-serif" font-size="12" lengthAdjust="spacing" textLength="569" x="846.75" y="1169.6543">Reuse the spec ID, status ID, or name-resolved OCID for every later update and delete call.</text><rect fill="#F8FAFC" height="33.9688" rx="12.5" ry="12.5" style="stroke:#475569;stroke-width:0.5;" width="463" x="899.75" y="1202.4844"/><text fill="#0F172A" font-family="sans-serif" font-size="12" lengthAdjust="spacing" textLength="443" x="909.75" y="1223.623">Write the invoke-endpoint Secret only when InvokeEndpoint is present.</text><polygon fill="#E2E8F0" points="1053.75,1256.4531,1208.75,1256.4531,1220.75,1268.4531,1208.75,1280.4531,1053.75,1280.4531,1041.75,1268.4531,1053.75,1256.4531" style="stroke:#475569;stroke-width:0.5;"/><text fill="#0F172A" font-family="sans-serif" font-size="11" lengthAdjust="spacing" textLength="155" x="1053.75" y="1272.2612">"Supported drift detected?"</text><text fill="#000000" font-family="sans-serif" font-size="11" lengthAdjust="spacing" textLength="20" x="1021.75" y="1265.8589">yes</text><text fill="#000000" font-family="sans-serif" font-size="11" lengthAdjust="spacing" textLength="14" x="1220.75" y="1265.8589">no</text><rect fill="#F8FAFC" height="33.9688" rx="12.5" ry="12.5" style="stroke:#475569;stroke-width:0.5;" width="329" x="823.5" y="1290.4531"/><text fill="#0F172A" font-family="sans-serif" font-size="12" lengthAdjust="spacing" textLength="309" x="833.5" y="1311.5918">Apply only the supported in-place update surface</text><rect fill="#F8FAFC" height="33.9688" rx="12.5" ry="12.5" style="stroke:#475569;stroke-width:0.5;" width="204" x="1172.5" y="1290.4531"/><text fill="#0F172A" font-family="sans-serif" font-size="12" lengthAdjust="spacing" textLength="184" x="1182.5" y="1311.5918">Skip the no-op mutation path</text><polygon fill="#E2E8F0" points="1131.25,1330.4219,1143.25,1342.4219,1131.25,1354.4219,1119.25,1342.4219,1131.25,1330.4219" style="stroke:#475569;stroke-width:0.5;"/><rect fill="#F8FAFC" height="33.9688" rx="12.5" ry="12.5" style="stroke:#475569;stroke-width:0.5;" width="345" x="958.75" y="1374.4219"/><text fill="#0F172A" font-family="sans-serif" font-size="12" lengthAdjust="spacing" textLength="325" x="968.75" y="1395.5605">Require the live endpoint before writing Secret data</text><polygon fill="#E2E8F0" points="1060.75,1428.3906,1201.75,1428.3906,1213.75,1440.3906,1201.75,1452.3906,1060.75,1452.3906,1048.75,1440.3906,1060.75,1428.3906" style="stroke:#475569;stroke-width:0.5;"/><text fill="#0F172A" font-family="sans-serif" font-size="11" lengthAdjust="spacing" textLength="141" x="1060.75" y="1444.1987">"Secret sync succeeds?"</text><text fill="#000000" font-family="sans-serif" font-size="11" lengthAdjust="spacing" textLength="20" x="1028.75" y="1437.7964">yes</text><text fill="#000000" font-family="sans-serif" font-size="11" lengthAdjust="spacing" textLength="14" x="1213.75" y="1437.7964">no</text><rect fill="#F8FAFC" height="33.9688" rx="12.5" ry="12.5" style="stroke:#475569;stroke-width:0.5;" width="287" x="814" y="1462.3906"/><text fill="#0F172A" font-family="sans-serif" font-size="12" lengthAdjust="spacing" textLength="267" x="824" y="1483.5293">Return success for the usable active state</text><rect fill="#F8FAFC" height="33.9688" rx="12.5" ry="12.5" style="stroke:#475569;stroke-width:0.5;" width="368" x="1121" y="1462.3906"/><text fill="#0F172A" font-family="sans-serif" font-size="12" lengthAdjust="spacing" textLength="348" x="1131" y="1483.5293">Block successful completion until Secret sync succeeds</text><polygon fill="#E2E8F0" points="1131.25,1502.3594,1143.25,1514.3594,1131.25,1526.3594,1119.25,1514.3594,1131.25,1502.3594" style="stroke:#475569;stroke-width:0.5;"/><line style="stroke:#334155;stroke-width:1.0;" x1="922" x2="922" y1="235.5313" y2="255.5313"/><polygon fill="#334155" points="918,245.5313,922,255.5313,926,245.5313,922,249.5313" style="stroke:#334155;stroke-width:1.0;"/><line style="stroke:#334155;stroke-width:1.0;" x1="643.5" x2="589" y1="179.5625" y2="179.5625"/><line style="stroke:#334155;stroke-width:1.0;" x1="589" x2="589" y1="179.5625" y2="201.5625"/><polygon fill="#334155" points="585,191.5625,589,201.5625,593,191.5625,589,195.5625" style="stroke:#334155;stroke-width:1.0;"/><line style="stroke:#334155;stroke-width:1.0;" x1="867.5" x2="922" y1="179.5625" y2="179.5625"/><line style="stroke:#334155;stroke-width:1.0;" x1="922" x2="922" y1="179.5625" y2="201.5625"/><polygon fill="#334155" points="918,191.5625,922,201.5625,926,191.5625,922,195.5625" style="stroke:#334155;stroke-width:1.0;"/><line style="stroke:#334155;stroke-width:1.0;" x1="589" x2="589" y1="235.5313" y2="307.5"/><line style="stroke:#334155;stroke-width:1.0;" x1="589" x2="743.5" y1="307.5" y2="307.5"/><polygon fill="#334155" points="733.5,303.5,743.5,307.5,733.5,311.5,737.5,307.5" style="stroke:#334155;stroke-width:1.0;"/><line style="stroke:#334155;stroke-width:1.0;" x1="922" x2="922" y1="289.5" y2="307.5"/><line style="stroke:#334155;stroke-width:1.0;" x1="922" x2="767.5" y1="307.5" y2="307.5"/><polygon fill="#334155" points="777.5,303.5,767.5,307.5,777.5,311.5,773.5,307.5" style="stroke:#334155;stroke-width:1.0;"/><line style="stroke:#334155;stroke-width:1.0;" x1="755.5" x2="755.5" y1="147.5625" y2="167.5625"/><polygon fill="#334155" points="751.5,157.5625,755.5,167.5625,759.5,157.5625,755.5,161.5625" style="stroke:#334155;stroke-width:1.0;"/><line style="stroke:#334155;stroke-width:1.0;" x1="755.5" x2="755.5" y1="67.2969" y2="113.5938"/><polygon fill="#334155" points="751.5,103.5938,755.5,113.5938,759.5,103.5938,755.5,107.5938" style="stroke:#334155;stroke-width:1.0;"/><line style="stroke:#334155;stroke-width:1.0;" x1="379.75" x2="379.75" y1="455.7656" y2="490.7656"/><polygon fill="#334155" points="375.75,480.7656,379.75,490.7656,383.75,480.7656,379.75,484.7656" style="stroke:#334155;stroke-width:1.0;"/><line style="stroke:#334155;stroke-width:1.0;" x1="379.75" x2="379.75" y1="524.7344" y2="559.7344"/><polygon fill="#334155" points="375.75,549.7344,379.75,559.7344,383.75,549.7344,379.75,553.7344" style="stroke:#334155;stroke-width:1.0;"/><line style="stroke:#334155;stroke-width:1.0;" x1="266.75" x2="192" y1="627.8359" y2="627.8359"/><line style="stroke:#334155;stroke-width:1.0;" x1="192" x2="192" y1="627.8359" y2="649.8359"/><polygon fill="#334155" points="188,639.8359,192,649.8359,196,639.8359,192,643.8359" style="stroke:#334155;stroke-width:1.0;"/><line style="stroke:#334155;stroke-width:1.0;" x1="492.75" x2="567.5" y1="627.8359" y2="627.8359"/><line style="stroke:#334155;stroke-width:1.0;" x1="567.5" x2="567.5" y1="627.8359" y2="649.8359"/><polygon fill="#334155" points="563.5,639.8359,567.5,649.8359,571.5,639.8359,567.5,643.8359" style="stroke:#334155;stroke-width:1.0;"/><line style="stroke:#334155;stroke-width:1.0;" x1="192" x2="192" y1="683.8047" y2="701.8047"/><line style="stroke:#334155;stroke-width:1.0;" x1="192" x2="367.75" y1="701.8047" y2="701.8047"/><polygon fill="#334155" points="357.75,697.8047,367.75,701.8047,357.75,705.8047,361.75,701.8047" style="stroke:#334155;stroke-width:1.0;"/><line style="stroke:#334155;stroke-width:1.0;" x1="567.5" x2="567.5" y1="683.8047" y2="701.8047"/><line style="stroke:#334155;stroke-width:1.0;" x1="567.5" x2="391.75" y1="701.8047" y2="701.8047"/><polygon fill="#334155" points="401.75,697.8047,391.75,701.8047,401.75,705.8047,397.75,701.8047" style="stroke:#334155;stroke-width:1.0;"/><line style="stroke:#334155;stroke-width:1.0;" x1="379.75" x2="379.75" y1="593.7031" y2="615.8359"/><polygon fill="#334155" points="375.75,605.8359,379.75,615.8359,383.75,605.8359,379.75,609.8359" style="stroke:#334155;stroke-width:1.0;"/><line style="stroke:#334155;stroke-width:1.0;" x1="379.75" x2="379.75" y1="713.8047" y2="768.8047"/><polygon fill="#334155" points="375.75,758.8047,379.75,768.8047,383.75,758.8047,379.75,762.8047" style="stroke:#334155;stroke-width:1.0;"/><line style="stroke:#334155;stroke-width:1.0;" x1="1131.25" x2="1131.25" y1="504.168" y2="539.168"/><polygon fill="#334155" points="1127.25,529.168,1131.25,539.168,1135.25,529.168,1131.25,533.168" style="stroke:#334155;stroke-width:1.0;"/><line style="stroke:#334155;stroke-width:1.0;" x1="1131.25" x2="1131.25" y1="445.7969" y2="470.1992"/><polygon fill="#334155" points="1127.25,460.1992,1131.25,470.1992,1135.25,460.1992,1131.25,464.1992" style="stroke:#334155;stroke-width:1.0;"/><line style="stroke:#334155;stroke-width:1.0;" x1="1223.25" x2="1275.25" y1="433.7969" y2="433.7969"/><polygon fill="#334155" points="1271.25,502.6836,1275.25,512.6836,1279.25,502.6836,1275.25,506.6836" style="stroke:#334155;stroke-width:1.0;"/><line style="stroke:#334155;stroke-width:1.0;" x1="1275.25" x2="1275.25" y1="433.7969" y2="591.5703"/><line style="stroke:#334155;stroke-width:1.0;" x1="1275.25" x2="1131.25" y1="591.5703" y2="591.5703"/><line style="stroke:#334155;stroke-width:1.0;" x1="1131.25" x2="1131.25" y1="591.5703" y2="613.7031"/><polygon fill="#334155" points="1127.25,603.7031,1131.25,613.7031,1135.25,603.7031,1131.25,607.7031" style="stroke:#334155;stroke-width:1.0;"/><line style="stroke:#334155;stroke-width:1.0;" x1="1131.25" x2="1131.25" y1="696.0742" y2="731.0742"/><polygon fill="#334155" points="1127.25,721.0742,1131.25,731.0742,1135.25,721.0742,1131.25,725.0742" style="stroke:#334155;stroke-width:1.0;"/><line style="stroke:#334155;stroke-width:1.0;" x1="1131.25" x2="1131.25" y1="637.7031" y2="662.1055"/><polygon fill="#334155" points="1127.25,652.1055,1131.25,662.1055,1135.25,652.1055,1131.25,656.1055" style="stroke:#334155;stroke-width:1.0;"/><line style="stroke:#334155;stroke-width:1.0;" x1="1213.25" x2="1303.25" y1="625.7031" y2="625.7031"/><polygon fill="#334155" points="1299.25,694.5898,1303.25,704.5898,1307.25,694.5898,1303.25,698.5898" style="stroke:#334155;stroke-width:1.0;"/><line style="stroke:#334155;stroke-width:1.0;" x1="1303.25" x2="1303.25" y1="625.7031" y2="783.4766"/><line style="stroke:#334155;stroke-width:1.0;" x1="1303.25" x2="1131.25" y1="783.4766" y2="783.4766"/><line style="stroke:#334155;stroke-width:1.0;" x1="1131.25" x2="1131.25" y1="783.4766" y2="874.7734"/><polygon fill="#334155" points="1127.25,864.7734,1131.25,874.7734,1135.25,864.7734,1131.25,868.7734" style="stroke:#334155;stroke-width:1.0;"/><line style="stroke:#334155;stroke-width:1.0;" x1="1131.25" x2="1131.25" y1="1026.1133" y2="1061.1133"/><polygon fill="#334155" points="1127.25,1051.1133,1131.25,1061.1133,1135.25,1051.1133,1131.25,1055.1133" style="stroke:#334155;stroke-width:1.0;"/><line style="stroke:#334155;stroke-width:1.0;" x1="1131.25" x2="1131.25" y1="967.7422" y2="992.1445"/><polygon fill="#334155" points="1127.25,982.1445,1131.25,992.1445,1135.25,982.1445,1131.25,986.1445" style="stroke:#334155;stroke-width:1.0;"/><line style="stroke:#334155;stroke-width:1.0;" x1="1267.75" x2="1286.25" y1="955.7422" y2="955.7422"/><polygon fill="#334155" points="1282.25,1024.6289,1286.25,1034.6289,1290.25,1024.6289,1286.25,1028.6289" style="stroke:#334155;stroke-width:1.0;"/><line style="stroke:#334155;stroke-width:1.0;" x1="1286.25" x2="1286.25" y1="955.7422" y2="1113.5156"/><line style="stroke:#334155;stroke-width:1.0;" x1="1286.25" x2="1131.25" y1="1113.5156" y2="1113.5156"/><line style="stroke:#334155;stroke-width:1.0;" x1="1131.25" x2="1131.25" y1="1113.5156" y2="1148.5156"/><polygon fill="#334155" points="1127.25,1138.5156,1131.25,1148.5156,1135.25,1138.5156,1131.25,1142.5156" style="stroke:#334155;stroke-width:1.0;"/><line style="stroke:#334155;stroke-width:1.0;" x1="1131.25" x2="1131.25" y1="908.7422" y2="943.7422"/><polygon fill="#334155" points="1127.25,933.7422,1131.25,943.7422,1135.25,933.7422,1131.25,937.7422" style="stroke:#334155;stroke-width:1.0;"/><line style="stroke:#334155;stroke-width:1.0;" x1="1131.25" x2="1131.25" y1="1182.4844" y2="1202.4844"/><polygon fill="#334155" points="1127.25,1192.4844,1131.25,1202.4844,1135.25,1192.4844,1131.25,1196.4844" style="stroke:#334155;stroke-width:1.0;"/><line style="stroke:#334155;stroke-width:1.0;" x1="1041.75" x2="988" y1="1268.4531" y2="1268.4531"/><line style="stroke:#334155;stroke-width:1.0;" x1="988" x2="988" y1="1268.4531" y2="1290.4531"/><polygon fill="#334155" points="984,1280.4531,988,1290.4531,992,1280.4531,988,1284.4531" style="stroke:#334155;stroke-width:1.0;"/><line style="stroke:#334155;stroke-width:1.0;" x1="1220.75" x2="1274.5" y1="1268.4531" y2="1268.4531"/><line style="stroke:#334155;stroke-width:1.0;" x1="1274.5" x2="1274.5" y1="1268.4531" y2="1290.4531"/><polygon fill="#334155" points="1270.5,1280.4531,1274.5,1290.4531,1278.5,1280.4531,1274.5,1284.4531" style="stroke:#334155;stroke-width:1.0;"/><line style="stroke:#334155;stroke-width:1.0;" x1="988" x2="988" y1="1324.4219" y2="1342.4219"/><line style="stroke:#334155;stroke-width:1.0;" x1="988" x2="1119.25" y1="1342.4219" y2="1342.4219"/><polygon fill="#334155" points="1109.25,1338.4219,1119.25,1342.4219,1109.25,1346.4219,1113.25,1342.4219" style="stroke:#334155;stroke-width:1.0;"/><line style="stroke:#334155;stroke-width:1.0;" x1="1274.5" x2="1274.5" y1="1324.4219" y2="1342.4219"/><line style="stroke:#334155;stroke-width:1.0;" x1="1274.5" x2="1143.25" y1="1342.4219" y2="1342.4219"/><polygon fill="#334155" points="1153.25,1338.4219,1143.25,1342.4219,1153.25,1346.4219,1149.25,1342.4219" style="stroke:#334155;stroke-width:1.0;"/><line style="stroke:#334155;stroke-width:1.0;" x1="1131.25" x2="1131.25" y1="1236.4531" y2="1256.4531"/><polygon fill="#334155" points="1127.25,1246.4531,1131.25,1256.4531,1135.25,1246.4531,1131.25,1250.4531" style="stroke:#334155;stroke-width:1.0;"/><line style="stroke:#334155;stroke-width:1.0;" x1="1131.25" x2="1131.25" y1="1354.4219" y2="1374.4219"/><polygon fill="#334155" points="1127.25,1364.4219,1131.25,1374.4219,1135.25,1364.4219,1131.25,1368.4219" style="stroke:#334155;stroke-width:1.0;"/><line style="stroke:#334155;stroke-width:1.0;" x1="1048.75" x2="957.5" y1="1440.3906" y2="1440.3906"/><line style="stroke:#334155;stroke-width:1.0;" x1="957.5" x2="957.5" y1="1440.3906" y2="1462.3906"/><polygon fill="#334155" points="953.5,1452.3906,957.5,1462.3906,961.5,1452.3906,957.5,1456.3906" style="stroke:#334155;stroke-width:1.0;"/><line style="stroke:#334155;stroke-width:1.0;" x1="1213.75" x2="1305" y1="1440.3906" y2="1440.3906"/><line style="stroke:#334155;stroke-width:1.0;" x1="1305" x2="1305" y1="1440.3906" y2="1462.3906"/><polygon fill="#334155" points="1301,1452.3906,1305,1462.3906,1309,1452.3906,1305,1456.3906" style="stroke:#334155;stroke-width:1.0;"/><line style="stroke:#334155;stroke-width:1.0;" x1="957.5" x2="957.5" y1="1496.3594" y2="1514.3594"/><line style="stroke:#334155;stroke-width:1.0;" x1="957.5" x2="1119.25" y1="1514.3594" y2="1514.3594"/><polygon fill="#334155" points="1109.25,1510.3594,1119.25,1514.3594,1109.25,1518.3594,1113.25,1514.3594" style="stroke:#334155;stroke-width:1.0;"/><line style="stroke:#334155;stroke-width:1.0;" x1="1305" x2="1305" y1="1496.3594" y2="1514.3594"/><line style="stroke:#334155;stroke-width:1.0;" x1="1305" x2="1143.25" y1="1514.3594" y2="1514.3594"/><polygon fill="#334155" points="1153.25,1510.3594,1143.25,1514.3594,1153.25,1518.3594,1149.25,1514.3594" style="stroke:#334155;stroke-width:1.0;"/><line style="stroke:#334155;stroke-width:1.0;" x1="1131.25" x2="1131.25" y1="1408.3906" y2="1428.3906"/><polygon fill="#334155" points="1127.25,1418.3906,1131.25,1428.3906,1135.25,1418.3906,1131.25,1422.3906" style="stroke:#334155;stroke-width:1.0;"/><line style="stroke:#334155;stroke-width:1.0;" x1="686.5" x2="379.75" y1="363.5" y2="363.5"/><line style="stroke:#334155;stroke-width:1.0;" x1="379.75" x2="379.75" y1="363.5" y2="421.7969"/><polygon fill="#334155" points="375.75,411.7969,379.75,421.7969,383.75,411.7969,379.75,415.7969" style="stroke:#334155;stroke-width:1.0;"/><line style="stroke:#334155;stroke-width:1.0;" x1="824.5" x2="1131.25" y1="363.5" y2="363.5"/><line style="stroke:#334155;stroke-width:1.0;" x1="1131.25" x2="1131.25" y1="363.5" y2="421.7969"/><polygon fill="#334155" points="1127.25,411.7969,1131.25,421.7969,1135.25,411.7969,1131.25,415.7969" style="stroke:#334155;stroke-width:1.0;"/><line style="stroke:#334155;stroke-width:1.0;" x1="1131.25" x2="1131.25" y1="1526.3594" y2="1544.3594"/><line style="stroke:#334155;stroke-width:1.0;" x1="1131.25" x2="755.5" y1="1544.3594" y2="1544.3594"/><line style="stroke:#334155;stroke-width:1.0;" x1="755.5" x2="755.5" y1="319.5" y2="351.5"/><polygon fill="#334155" points="751.5,341.5,755.5,351.5,759.5,341.5,755.5,345.5" style="stroke:#334155;stroke-width:1.0;"/><!--SRC=[XLRVRzis47xNNq5aBobG5qtR95tpC3Z-qHd8ci9njcUQEjcS9L8bARlQqFzzTqTQaMEd2n248UzuTzzzzr51XnB4j34gQ6jyjn9pKDOeZOT3tDZgq6P-eqqjdQo4NylSxhHPYKAM7dedjr9jLius9X_PqZhnovH_UXP3v-mk7Rv__-7Yyh9tc4CXcp8iu7iObdfbAZ11b524derC-OX_Ct4YtiVfS3gY4-joS6dtm_NbvTMlk3kr9gIzjzEBwtT3t1jhMLcJ7rqrUJVvE7tRCpXvuqEGxkdAwwkh2MvEkakkfnVZYt7s8_DabsLOGz2CyDdzqeFRWf0c5xVQv6TSqQSvo5oCviBNe5uBT0kD5_UZsVWrM-PGGW2XJK1iRj115-ByRE4mUyW5XeJlTQcL3kmZQWSU3NyxUoN26emuRy6_GYyCz1a2xP6TG2lRE0LYsOgDiJiZT8vkkj3WA0XWcyMviSbrZkObfuxXj0z4XUVNvDhNfMo5aHNSHBUlu3nQSrGNh-2KbGCPSCaPBx4IAi-csZcyoNM186PSx3X2uE1R0nxzZehhWHnj8xIOmKEph28qUo0BZ7_C_vJmo9f2kohQqdqx7TO2WUlcf46GIYwer0MeLk74Q2_6axl9OZAculR5CYvuP6p0e4YpDob8AeVi47Y4uG4Ga21a4S3rKrKn6qc1apFZST_tmWIaQMhX6wK0Sd-Yyzp0ocvZp48RMUf_CDIpW5GUvfkYGXuZ7ZA180tOv6LfcNyHZXTI8JJmGhdqYRhxnWhn0tzzi7NMlxxNnhiEt54flKTUAePXtzY80sPEdA7fGCY3Q-KIFJo4bq1W0aKYDN4GDm3r8ImtoPpJw-TyAceXKJBpduKCZJCqDurXMBml6kGFk8hYOIfxsKNAe1A-61nduG0WKesMAnWxNGJnEovB7CkE-IDReJdHT1j7FkRCXAPwVLFNrj4Kvdo1RrmX5VHezcYURAYJLTK41ZWwv4XHTMeQK-5_uob7KcjfLYWHWAD7eBUS3btsD7aduSPB6Xz9I-8eI1AJFj8ISoAj6NJAmd92ymrRSAqe9T6xgNEgkoUbIfRbVXR_SZgDeZPRku41Hgyjgj6UqzQKhTXHUJCscEpFaTX9Q_kZ-V0CrP-3DAnhl9r37BP4cm5gAUf7olwWESSJkT6HmyOERDqXYtG9wvjZJByrsa6ICEH6Lt5gq0uX8NrF061ysIymxlhMgF-L7AP-OZttXM8sdZd4hpf4KhvGrYrfZEXDZK9A9vqwq9s3P9xhJ5nbHMabbuLoZCEcL-kG3PrQGsXh-9GDklTfm8qRHAuCF4V8vfsuT9FaoMaqdmmNio-VSVduTHoNmrZPeU5mj9ZzESccKIuEpwR3sTraZ8lqY6IF1qqd4rt95U3V2cNSjJFpnwt7_uAkm3PXPXv8HNBQOl5UuQ9mGEsiH90hEi0lBKsl1l-RXZCrdFd2OMHDdn9CdbbYCBd6X_qBpbhQkwNdJEA84PXSmsBDBsk5aXOXm-6mXOwFem_EeW9G_r48LUCSVUOfcmFtQWbAqfpZMM95iNzjIQsmmkUpXnyWPSc-ZadcEvRj7VOabeaZRuW7d6xs7m00]--></g></svg>