<?xml version="1.0" encoding="UTF-8" standalone="no"?><svg xmlns="http://www.w3.org/2000/svg" xmlns:xlink="http://www.w3.org/1999/xlink" contentStyleType="text/css" height="482px" preserveAspectRatio="none" style="width:2488px;height:482px;background:#FFFFFF;" version="1.1" viewBox="0 0 2488 482" width="2488px" zoomAndPan="magnify"><defs/><g><text fill="#000000" font-family="sans-serif" font-size="14" font-weight="bold" lengthAdjust="spacing" textLength="347" x="1063.93" y="22.9951">Functions Function Reconcile State Machine</text><ellipse cx="16" cy="325.2969" fill="#222222" rx="10" ry="10" style="stroke:none;stroke-width:1.0;"/><g id="Observe"><rect fill="#F8FAFC" height="50.2656" rx="6" ry="6" style="stroke:#475569;stroke-width:0.5;" width="329" x="86" y="300.2969"/><line style="stroke:#475569;stroke-width:0.5;" x1="86" x2="415" y1="326.5938" y2="326.5938"/><text fill="#0F172A" font-family="sans-serif" font-size="14" lengthAdjust="spacing" textLength="58" x="221.5" y="318.292">Observe</text><text fill="#0F172A" font-family="sans-serif" font-size="12" lengthAdjust="spacing" textLength="309" x="91" y="342.7324">read spec, status, delete intent, and OCI lifecycle</text></g><rect fill="#F8FAFC" height="40" rx="6" ry="6" style="stroke:#475569;stroke-width:0.5;" width="122" x="475" y="305.2969"/><text fill="#0F172A" font-family="sans-serif" font-size="14" lengthAdjust="spacing" textLength="112" x="480" y="330.1436">ResolveByName</text><rect fill="#F8FAFC" height="40" rx="6" ry="6" style="stroke:#475569;stroke-width:0.5;" width="111" x="657" y="230.2969"/><text fill="#0F172A" font-family="sans-serif" font-size="14" lengthAdjust="spacing" textLength="101" x="662" y="255.1436">EvaluateReady</text><rect fill="#F8FAFC" height="40" rx="6" ry="6" style="stroke:#475569;stroke-width:0.5;" width="75" x="1067.5" y="323.2969"/><text fill="#0F172A" font-family="sans-serif" font-size="14" lengthAdjust="spacing" textLength="65" x="1072.5" y="348.1436">Retryable</text><rect fill="#F8FAFC" height="40" rx="6" ry="6" style="stroke:#475569;stroke-width:0.5;" width="50" x="687.5" y="396.2969"/><text fill="#0F172A" font-family="sans-serif" font-size="14" lengthAdjust="spacing" textLength="40" x="692.5" y="421.1436">Failed</text><rect fill="#F8FAFC" height="40" rx="6" ry="6" style="stroke:#475569;stroke-width:0.5;" width="173" x="828" y="155.2969"/><text fill="#0F172A" font-family="sans-serif" font-size="14" lengthAdjust="spacing" textLength="163" x="833" y="180.1436">RejectUnsupportedDrift</text><rect fill="#F8FAFC" height="40" rx="6" ry="6" style="stroke:#475569;stroke-width:0.5;" width="53" x="1238" y="155.2969"/><text fill="#0F172A" font-family="sans-serif" font-size="14" lengthAdjust="spacing" textLength="43" x="1243" y="180.1436">Ready</text><rect fill="#F8FAFC" height="40" rx="6" ry="6" style="stroke:#475569;stroke-width:0.5;" width="97" x="866" y="230.2969"/><text fill="#0F172A" font-family="sans-serif" font-size="14" lengthAdjust="spacing" textLength="87" x="871" y="255.1436">ApplyUpdate</text><rect fill="#F8FAFC" height="40" rx="6" ry="6" style="stroke:#475569;stroke-width:0.5;" width="88" x="1061" y="230.2969"/><text fill="#0F172A" font-family="sans-serif" font-size="14" lengthAdjust="spacing" textLength="78" x="1066" y="255.1436">SyncSecret</text><rect fill="#F8FAFC" height="40" rx="6" ry="6" style="stroke:#475569;stroke-width:0.5;" width="111" x="1209" y="230.2969"/><text fill="#0F172A" font-family="sans-serif" font-size="14" lengthAdjust="spacing" textLength="101" x="1214" y="255.1436">SecretBlocked</text><rect fill="#F8FAFC" height="40" rx="6" ry="6" style="stroke:#475569;stroke-width:0.5;" width="113" x="1515.5" y="330.2969"/><text fill="#0F172A" font-family="sans-serif" font-size="14" lengthAdjust="spacing" textLength="103" x="1520.5" y="355.1436">DeletePending</text><rect fill="#F8FAFC" height="40" rx="6" ry="6" style="stroke:#475569;stroke-width:0.5;" width="169" x="1929.5" y="269.2969"/><text fill="#0F172A" font-family="sans-serif" font-size="14" lengthAdjust="spacing" textLength="159" x="1934.5" y="294.1436">DeleteCleanupBlocked</text><rect fill="#F8FAFC" height="40" rx="6" ry="6" style="stroke:#475569;stroke-width:0.5;" width="65" x="2264" y="269.2969"/><text fill="#0F172A" font-family="sans-serif" font-size="14" lengthAdjust="spacing" textLength="55" x="2269" y="294.1436">Deleted</text><g id="elem_GMN37"><path d="M1380,49.2969 L1380,171.2969 L1291.25,175.2969 L1380,179.2969 L1380,289.4219 A6,6 0 0 0 1386,295.4219 L1758,295.4219 A6,6 0 0 0 1764,289.4219 L1764,53.2969 L1754,43.2969 L1386,43.2969 A6,6 0 0 0 1380,49.2969 " fill="#FFF7ED" style="stroke:#181818;stroke-width:0.5;"/><path d="M1754,43.2969 L1754,50.2969 A3,3 0 0 0 1757,53.2969 L1764,53.2969 L1754,43.2969 " fill="#FFF7ED" style="stroke:#181818;stroke-width:0.5;"/><text fill="#0F172A" font-family="sans-serif" font-size="13" lengthAdjust="spacing" textLength="69" x="1386" y="60.3638">Archetype:</text><text fill="#0F172A" font-family="sans-serif" font-size="13" lengthAdjust="spacing" textLength="183" x="1386" y="75.4966">- resolved-drift-delete-secret</text><text fill="#0F172A" font-family="sans-serif" font-size="13" lengthAdjust="spacing" textLength="102" x="1386" y="90.6294">Update surface:</text><text fill="#0F172A" font-family="sans-serif" font-size="13" lengthAdjust="spacing" textLength="49" x="1386" y="105.7622">- image</text><text fill="#0F172A" font-family="sans-serif" font-size="13" lengthAdjust="spacing" textLength="101" x="1386" y="120.895">- memoryInMBs</text><text fill="#0F172A" font-family="sans-serif" font-size="13" lengthAdjust="spacing" textLength="125" x="1386" y="136.0278">- timeoutInSeconds</text><text fill="#0F172A" font-family="sans-serif" font-size="13" lengthAdjust="spacing" textLength="47" x="1386" y="151.1606">- config</text><text fill="#0F172A" font-family="sans-serif" font-size="13" lengthAdjust="spacing" textLength="96" x="1386" y="166.2935">- freeform tags</text><text fill="#0F172A" font-family="sans-serif" font-size="13" lengthAdjust="spacing" textLength="88" x="1386" y="181.4263">- defined tags</text><text fill="#0F172A" font-family="sans-serif" font-size="13" lengthAdjust="spacing" textLength="139" x="1386" y="196.5591">Reject before mutate:</text><text fill="#0F172A" font-family="sans-serif" font-size="13" lengthAdjust="spacing" textLength="118" x="1386" y="211.6919">- applicationId drift</text><text fill="#0F172A" font-family="sans-serif" font-size="13" lengthAdjust="spacing" textLength="121" x="1386" y="226.8247">- displayName drift</text><text fill="#0F172A" font-family="sans-serif" font-size="13" lengthAdjust="spacing" textLength="105" x="1386" y="241.9575">Boundary notes:</text><text fill="#0F172A" font-family="sans-serif" font-size="13" lengthAdjust="spacing" textLength="354" x="1386" y="257.0903">- The formal secret profile is stronger than current code</text><text fill="#0F172A" font-family="sans-serif" font-size="13" lengthAdjust="spacing" textLength="347" x="1402" y="272.2231">because an active function without InvokeEndpoint still</text><text fill="#0F172A" font-family="sans-serif" font-size="13" lengthAdjust="spacing" textLength="258" x="1402" y="287.356">returns success without writing a Secret.</text></g><g id="elem_GMN40"><path d="M1824,350.7969 L1824,353.5469 L1628.88,357.5469 L1824,361.5469 L1824,469.8594 A6,6 0 0 0 1830,475.8594 L2198,475.8594 A6,6 0 0 0 2204,469.8594 L2204,354.7969 L2194,344.7969 L1830,344.7969 A6,6 0 0 0 1824,350.7969 " fill="#FFF7ED" style="stroke:#181818;stroke-width:0.5;"/><path d="M2194,344.7969 L2194,351.7969 A3,3 0 0 0 2197,354.7969 L2204,354.7969 L2194,344.7969 " fill="#FFF7ED" style="stroke:#181818;stroke-width:0.5;"/><text fill="#0F172A" font-family="sans-serif" font-size="13" lengthAdjust="spacing" textLength="90" x="1830" y="361.8638">Delete states:</text><text fill="#0F172A" font-family="sans-serif" font-size="13" lengthAdjust="spacing" textLength="102" x="1830" y="376.9966">- DeletePending</text><text fill="#0F172A" font-family="sans-serif" font-size="13" lengthAdjust="spacing" textLength="153" x="1830" y="392.1294">- DeleteCleanupBlocked</text><text fill="#0F172A" font-family="sans-serif" font-size="13" lengthAdjust="spacing" textLength="59" x="1830" y="407.2622">- Deleted</text><text fill="#0F172A" font-family="sans-serif" font-size="13" lengthAdjust="spacing" textLength="103" x="1830" y="422.395">Delete workflow:</text><text fill="#0F172A" font-family="sans-serif" font-size="13" lengthAdjust="spacing" textLength="348" x="1830" y="437.5278">- Confirm deletion with GetFunction until the lifecycle is</text><text fill="#0F172A" font-family="sans-serif" font-size="13" lengthAdjust="spacing" textLength="243" x="1846" y="452.6606">DELETED or the resource is not found.</text><text fill="#0F172A" font-family="sans-serif" font-size="13" lengthAdjust="spacing" textLength="359" x="1830" y="467.7935">- Delete the owned Secret after OCI delete confirmation.</text></g><!--link *start to Observe--><g id="link_*start_Observe"><path d="M26.08,325.2969 C26.08,325.2969 80.84,325.2969 80.84,325.2969 " fill="none" id="*start-to-Observe" style="stroke:#181818;stroke-width:1.0;"/><polygon fill="#181818" points="85.84,325.2969,76.84,321.2969,80.84,325.2969,76.84,329.2969,85.84,325.2969" style="stroke:#181818;stroke-width:1.0;"/></g><!--link Observe to ResolveByName--><g id="link_Observe_ResolveByName"><path d="M415.34,325.2969 C415.34,325.2969 469.86,325.2969 469.86,325.2969 " fill="none" id="Observe-to-ResolveByName" style="stroke:#181818;stroke-width:1.0;"/><polygon fill="#181818" points="474.86,325.2969,465.86,321.2969,469.86,325.2969,465.86,329.2969,474.86,325.2969" style="stroke:#181818;stroke-width:1.0;"/><text fill="#000000" font-family="sans-serif" font-size="13" lengthAdjust="spacing" textLength="163" x="443.6" y="338.3638">status/spec OCID missing</text></g><!--link ResolveByName to EvaluateReady--><g id="link_ResolveByName_EvaluateReady"><path d="M597.36,318.6269 C631.83,318.6269 668,318.6269 668,318.6269 C668,318.6269 668,275.4269 668,275.4269 " fill="none" id="ResolveByName-to-EvaluateReady" style="stroke:#181818;stroke-width:1.0;"/><polygon fill="#181818" points="668,270.4269,664,279.4269,668,275.4269,672,279.4269,668,270.4269" style="stroke:#181818;stroke-width:1.0;"/><text fill="#000000" font-family="sans-serif" font-size="13" lengthAdjust="spacing" textLength="123" x="655.28" y="331.6938">OCI state in ACTIVE</text></g><!--link ResolveByName to Retryable--><g id="link_ResolveByName_Retryable"><path d="M597.16,330.6269 C597.16,330.6269 1062.28,330.6269 1062.28,330.6269 " fill="none" id="ResolveByName-to-Retryable" style="stroke:#181818;stroke-width:1.0;"/><polygon fill="#181818" points="1067.28,330.6269,1058.28,326.6269,1062.28,330.6269,1058.28,334.6269,1067.28,330.6269" style="stroke:#181818;stroke-width:1.0;"/><text fill="#000000" font-family="sans-serif" font-size="13" lengthAdjust="spacing" textLength="217" x="830.72" y="343.6938">OCI state in CREATING, UPDATING</text></g><!--link ResolveByName to Failed--><g id="link_ResolveByName_Failed"><path d="M597.01,337.9669 C645.42,337.9669 705,337.9669 705,337.9669 C705,337.9669 705,391.1269 705,391.1269 " fill="none" id="ResolveByName-to-Failed" style="stroke:#181818;stroke-width:1.0;"/><polygon fill="#181818" points="705,396.1269,709,387.1269,705,391.1269,701,387.1269,705,396.1269" style="stroke:#181818;stroke-width:1.0;"/><text fill="#000000" font-family="sans-serif" font-size="13" lengthAdjust="spacing" textLength="188" x="678.59" y="351.0338">OCI state in FAILED, DELETED</text></g><!--link EvaluateReady to RejectUnsupportedDrift--><g id="link_EvaluateReady_RejectUnsupportedDrift"><path d="M768.37,243.6269 C805.33,243.6269 847,243.6269 847,243.6269 C847,243.6269 847,200.4269 847,200.4269 " fill="none" id="EvaluateReady-to-RejectUnsupportedDrift" style="stroke:#181818;stroke-width:1.0;"/><polygon fill="#181818" points="847,195.4269,843,204.4269,847,200.4269,851,204.4269,847,195.4269" style="stroke:#181818;stroke-width:1.0;"/><text fill="#000000" font-family="sans-serif" font-size="13" lengthAdjust="spacing" textLength="275" x="553.29" y="239.6938">unsupported or immutable drift is detected</text></g><!--link RejectUnsupportedDrift to Ready--><g id="link_RejectUnsupportedDrift_Ready"><path d="M1001.02,165.2969 C1001.02,165.2969 1232.91,165.2969 1232.91,165.2969 " fill="none" id="RejectUnsupportedDrift-to-Ready" style="stroke:#181818;stroke-width:1.0;"/><polygon fill="#181818" points="1237.91,165.2969,1228.91,161.2969,1232.91,165.2969,1228.91,169.2969,1237.91,165.2969" style="stroke:#181818;stroke-width:1.0;"/><text fill="#000000" font-family="sans-serif" font-size="13" lengthAdjust="spacing" textLength="252" x="1117.96" y="161.3638">wait for the spec or live state to change</text></g><!--link EvaluateReady to ApplyUpdate--><g id="link_EvaluateReady_ApplyUpdate"><path d="M768.23,256.9669 C768.23,256.9669 860.82,256.9669 860.82,256.9669 " fill="none" id="EvaluateReady-to-ApplyUpdate" style="stroke:#181818;stroke-width:1.0;"/><polygon fill="#181818" points="865.82,256.9669,856.82,252.9669,860.82,256.9669,856.82,260.9669,865.82,256.9669" style="stroke:#181818;stroke-width:1.0;"/><text fill="#000000" font-family="sans-serif" font-size="13" lengthAdjust="spacing" textLength="158" x="815.53" y="270.0338">continue active reconcile</text></g><!--link ApplyUpdate to SyncSecret--><g id="link_ApplyUpdate_SyncSecret"><path d="M963.06,250.2969 C963.06,250.2969 1055.76,250.2969 1055.76,250.2969 " fill="none" id="ApplyUpdate-to-SyncSecret" style="stroke:#181818;stroke-width:1.0;"/><polygon fill="#181818" points="1060.76,250.2969,1051.76,246.2969,1055.76,250.2969,1051.76,254.2969,1060.76,250.2969" style="stroke:#181818;stroke-width:1.0;"/><text fill="#000000" font-family="sans-serif" font-size="13" lengthAdjust="spacing" textLength="231" x="777.41" y="246.3638">supported mutation path completes</text></g><!--link SyncSecret to SecretBlocked--><g id="link_SyncSecret_SecretBlocked"><path d="M1149.01,256.9669 C1149.01,256.9669 1203.94,256.9669 1203.94,256.9669 " fill="none" id="SyncSecret-to-SecretBlocked" style="stroke:#181818;stroke-width:1.0;"/><polygon fill="#181818" points="1208.94,256.9669,1199.94,252.9669,1203.94,256.9669,1199.94,260.9669,1208.94,256.9669" style="stroke:#181818;stroke-width:1.0;"/><text fill="#000000" font-family="sans-serif" font-size="13" lengthAdjust="spacing" textLength="105" x="1177.48" y="270.0338">Secret write fails</text></g><!--link SecretBlocked to SyncSecret--><g id="link_SecretBlocked_SyncSecret"><path d="M1208.71,243.6269 C1208.71,243.6269 1154.2,243.6269 1154.2,243.6269 " fill="none" id="SecretBlocked-to-SyncSecret" style="stroke:#181818;stroke-width:1.0;"/><polygon fill="#181818" points="1149.2,243.6269,1158.2,247.6269,1154.2,243.6269,1158.2,239.6269,1149.2,243.6269" style="stroke:#181818;stroke-width:1.0;"/><text fill="#000000" font-family="sans-serif" font-size="13" lengthAdjust="spacing" textLength="109" x="1071.46" y="239.6938">retry Secret sync</text></g><!--link SyncSecret to Ready--><g id="link_SyncSecret_Ready"><path d="M1105,230.1969 C1105,207.9869 1105,175.2969 1105,175.2969 C1105,175.2969 1232.8,175.2969 1232.8,175.2969 " fill="none" id="SyncSecret-to-Ready" style="stroke:#181818;stroke-width:1.0;"/><polygon fill="#181818" points="1237.8,175.2969,1228.8,171.2969,1232.8,175.2969,1228.8,179.2969,1237.8,175.2969" style="stroke:#181818;stroke-width:1.0;"/><text fill="#000000" font-family="sans-serif" font-size="13" lengthAdjust="spacing" textLength="176" x="1142.45" y="179.8638">Secret side effects succeed</text></g><!--link Ready to Ready--><g id="link_Ready_Ready"><path d="M1237.71,185.2969 C1230.18,185.2969 1224,185.2969 1224,185.2969 C1224,185.2969 1224,212.7969 1224,212.7969 C1224,212.7969 1306,212.7969 1306,212.7969 C1306,212.7969 1306,165.2969 1306,165.2969 C1306,165.2969 1296.02,165.2969 1296.02,165.2969 " fill="none" id="Ready-to-Ready" style="stroke:#181818;stroke-width:1.0;"/><polygon fill="#181818" points="1291.02,165.2969,1300.02,169.2969,1296.02,165.2969,1300.02,161.2969,1291.02,165.2969" style="stroke:#181818;stroke-width:1.0;"/><text fill="#000000" font-family="sans-serif" font-size="13" lengthAdjust="spacing" textLength="170" x="1097.14" y="203.8638">no supported drift remains</text></g><!--link Retryable to Retryable--><g id="link_Retryable_Retryable"><path d="M1067.13,356.7969 C1048.93,356.7969 1031,356.7969 1031,356.7969 C1031,356.7969 1031,365.6269 1031,365.6269 C1031,365.6269 1179,365.6269 1179,365.6269 C1179,365.6269 1179,355.0469 1179,355.0469 C1179,355.0469 1147.87,355.0469 1147.87,355.0469 " fill="none" id="Retryable-to-Retryable" style="stroke:#181818;stroke-width:1.0;"/><polygon fill="#181818" points="1142.87,355.0469,1151.87,359.0469,1147.87,355.0469,1151.87,351.0469,1142.87,355.0469" style="stroke:#181818;stroke-width:1.0;"/><text fill="#000000" font-family="sans-serif" font-size="13" lengthAdjust="spacing" textLength="159" x="1109.38" y="383.6938">OCI remains nonterminal</text></g><!--link Failed to Failed--><g id="link_Failed_Failed"><path d="M687.43,416.2969 C682.08,416.2969 678,416.2969 678,416.2969 C678,416.2969 678,383.2969 678,383.2969 C678,383.2969 753,383.2969 753,383.2969 C753,383.2969 753,416.2969 753,416.2969 C753,416.2969 742.92,416.2969 742.92,416.2969 " fill="none" id="Failed-to-Failed" style="stroke:#181818;stroke-width:1.0;"/><polygon fill="#181818" points="737.92,416.2969,746.92,420.2969,742.92,416.2969,746.92,412.2969,737.92,416.2969" style="stroke:#181818;stroke-width:1.0;"/><text fill="#000000" font-family="sans-serif" font-size="13" lengthAdjust="spacing" textLength="135" x="574.83" y="374.3638">OCI remains terminal</text></g><!--link Ready to DeletePending--><g id="link_Ready_DeletePending"><path d="M1291.08,185.2969 C1316.18,185.2969 1350,185.2969 1350,185.2969 C1350,185.2969 1350,338.5469 1350,338.5469 C1350,338.5469 1510.41,338.5469 1510.41,338.5469 " fill="none" id="Ready-to-DeletePending" style="stroke:#181818;stroke-width:1.0;"/><polygon fill="#181818" points="1515.41,338.5469,1506.41,334.5469,1510.41,338.5469,1506.41,342.5469,1515.41,338.5469" style="stroke:#181818;stroke-width:1.0;"/><text fill="#000000" font-family="sans-serif" font-size="13" lengthAdjust="spacing" textLength="109" x="1240" y="325.7338">delete requested</text></g><!--link Retryable to DeletePending--><g id="link_Retryable_DeletePending"><path d="M1142.82,346.7969 C1142.82,346.7969 1510.3,346.7969 1510.3,346.7969 " fill="none" id="Retryable-to-DeletePending" style="stroke:#181818;stroke-width:1.0;"/><polygon fill="#181818" points="1515.3,346.7969,1506.3,342.7969,1510.3,346.7969,1506.3,350.7969,1515.3,346.7969" style="stroke:#181818;stroke-width:1.0;"/><text fill="#000000" font-family="sans-serif" font-size="13" lengthAdjust="spacing" textLength="109" x="1216.56" y="359.8638">delete requested</text></g><!--link Failed to DeletePending--><g id="link_Failed_DeletePending"><path d="M721,396.0769 C721,382.8369 721,367.9669 721,367.9669 C721,367.9669 1510.17,367.9669 1510.17,367.9669 " fill="none" id="Failed-to-DeletePending" style="stroke:#181818;stroke-width:1.0;"/><polygon fill="#181818" points="1515.17,367.9669,1506.17,363.9669,1510.17,367.9669,1506.17,371.9669,1515.17,367.9669" style="stroke:#181818;stroke-width:1.0;"/><text fill="#000000" font-family="sans-serif" font-size="13" lengthAdjust="spacing" textLength="109" x="991.53" y="381.0338">delete requested</text></g><!--link DeletePending to DeleteCleanupBlocked--><g id="link_DeletePending_DeleteCleanupBlocked"><path d="M1628.88,337.5469 C1748.26,337.5469 2014,337.5469 2014,337.5469 C2014,337.5469 2014,314.4769 2014,314.4769 " fill="none" id="DeletePending-to-DeleteCleanupBlocked" style="stroke:#181818;stroke-width:1.0;"/><polygon fill="#181818" points="2014,309.4769,2010,318.4769,2014,314.4769,2018,318.4769,2014,309.4769" style="stroke:#181818;stroke-width:1.0;"/><text fill="#000000" font-family="sans-serif" font-size="13" lengthAdjust="spacing" textLength="274" x="1833.97" y="333.6138">owned Secret cleanup fails after OCI delete</text></g><!--link DeleteCleanupBlocked to Deleted--><g id="link_DeleteCleanupBlocked_Deleted"><path d="M2098.76,282.6269 C2098.76,282.6269 2258.96,282.6269 2258.96,282.6269 " fill="none" id="DeleteCleanupBlocked-to-Deleted" style="stroke:#181818;stroke-width:1.0;"/><polygon fill="#181818" points="2263.96,282.6269,2254.96,278.6269,2258.96,282.6269,2254.96,286.6269,2263.96,282.6269" style="stroke:#181818;stroke-width:1.0;"/><text fill="#000000" font-family="sans-serif" font-size="13" lengthAdjust="spacing" textLength="301" x="2179.86" y="278.6938">retry Secret cleanup until completion is allowed</text></g><!--link Deleted to Deleted--><g id="link_Deleted_Deleted"><path d="M2263.79,295.9669 C2248.66,295.9669 2234,295.9669 2234,295.9669 C2234,295.9669 2234,313.9669 2234,313.9669 C2234,313.9669 2347,313.9669 2347,313.9669 C2347,313.9669 2347,289.2969 2347,289.2969 C2347,289.2969 2334.05,289.2969 2334.05,289.2969 " fill="none" id="Deleted-to-Deleted" style="stroke:#181818;stroke-width:1.0;"/><polygon fill="#181818" points="2329.05,289.2969,2338.05,293.2969,2334.05,289.2969,2338.05,285.2969,2329.05,289.2969" style="stroke:#181818;stroke-width:1.0;"/><text fill="#000000" font-family="sans-serif" font-size="13" lengthAdjust="spacing" textLength="100" x="2179.41" y="332.0338">terminal stutter</text></g><!--SRC=[XLPBZzis4BxpLmpGMs6dIPhjDZuKy4k1WRpWzVPIzC0bHpPhYbJvMDSeyjyx92LRzhh8NYo9Cz-ylc-uGGMDK4KZWhB6dvvWZS8QeUZm8V20y8cBdJB8DDO1WWMdjhi0KZdCzcod908sRJY2H2-SQlDdlrUcvOutu7TSseCoMwYvzZWuqOGRZYs2TM5d1mVEHYE5TGOTl7axE9XniT_cqxdLri4FLVuRM4YiUTHXW_-4gLPRqw09a78VPfGB-vS1pAoJw3giT_TtTx-yfw-LDQ7xzhfwS_zscYnVHFwrcbPpzcs0Q-mjsDcxkvzVlxy9KLNtoyNDWD_O7p_-2UFnR_3boQDxHjRzmWGSSWc-HJ7AbKG_egerKcnb0fKx0cuaV9clgC4rYgFGP- -4k4PlzJFEZfzva_0Ao4y9CNaje57UqxpOfM5oNJvp7QbvQqhXIAufIEccCZ2TRrQ_BszuhJ6u8t_IUEqnNo-dczNd3oDu_Bh8JpUyAqvabDUkrNJrSRaOmMBvSRcX9bvcLgB-HHHzD3wsBH4CvS8fel04ulaJCGzKqyIGivFPG7bgPo1NbEn_C0fyQS61gm0ruOGTvgaaJAseroLNaepOSRF56obEsrOV7rkPx2P0kWlAH0HEoY9_rokH3UsItyFHY0SK3bCvvs9I7Ld3BGyxWclQn0hF1kRPEp_Ej1NxtDVkwE0KmTVKRVAuC7aHqgM1zdwUJgv3zCtfJVAEg8cCmLE-Gc3kxNbInThOGJ5b60uRhendPmhT8bHdHG0a0DSempNhQFE2GRtjoV2SnoAhw2iQcRRLf5ULmxyZ-aA7OHRVDH-ay5tRIuEpormZDx4zJyiU3FrsZHNbj4mDU4r5vI8BFBi9SSQMrwFiuI8HKVS4IeGYJN2jxU6Kw3LCtqqYVGpqmbXUXkMoi7KPCPiwiSiRVyB653ahNOxpfCSbvR7FcR2Ex3wwcejihXfE6Xf3WurrnvNvDFFq5bI3DeQLUKXYaUaJ_TPgIm-rGoHXDX3uDXtGrQ1Ix_9hKJOy9GiioibXE4bDYIoZLKV2vAfygtdPIUNRBErnJgrBTVhakI7zft2f2QMThRDrkaYfUpuuIpiWRGbkG4Jdqhqah4HQ_q1f21uzAT_qug_x-_YWw6wC0LRcsUvnQMHhQSqJeD8w-rAaw4odA-zF3adFYKkyc-uhHkJAwLuFvu9xtO3Bzig5NHwFRnBpzBad21oiszT4cOGmJoDnJQ5bNnHym73whwCmBgtGqvr5RSlrTHiUkXMRQ1ETo5sbCgZbD8XNf_ZPva8Zrwee1A4vfS23flm7]--></g></svg>